<?xml version="1.0" encoding="utf-8" standalone="no"?>
<!DOCTYPE svg PUBLIC "-//W3C//DTD SVG 1.1//EN"
  "http://www.w3.org/Graphics/SVG/1.1/DTD/svg11.dtd">
<!-- Created with matplotlib (https://matplotlib.org/) -->
<svg height="844.02075pt" version="1.1" viewBox="0 0 1337.82625 844.02075" width="1337.82625pt" xmlns="http://www.w3.org/2000/svg" xmlns:xlink="http://www.w3.org/1999/xlink">
 <metadata>
  <rdf:RDF xmlns:cc="http://creativecommons.org/ns#" xmlns:dc="http://purl.org/dc/elements/1.1/" xmlns:rdf="http://www.w3.org/1999/02/22-rdf-syntax-ns#">
   <cc:Work>
    <dc:type rdf:resource="http://purl.org/dc/dcmitype/StillImage"/>
    <dc:date>2022-07-27T01:16:27.298170</dc:date>
    <dc:format>image/svg+xml</dc:format>
    <dc:creator>
     <cc:Agent>
      <dc:title>Matplotlib v3.3.4, https://matplotlib.org/</dc:title>
     </cc:Agent>
    </dc:creator>
   </cc:Work>
  </rdf:RDF>
 </metadata>
 <defs>
  <style type="text/css">*{stroke-linecap:butt;stroke-linejoin:round;}</style>
 </defs>
 <g id="figure_1">
  <g id="patch_1">
   <path d="M 0 844.02075 
L 1337.82625 844.02075 
L 1337.82625 0 
L 0 0 
z
" style="fill:#ffffff;"/>
  </g>
  <g id="axes_1">
   <g id="patch_2">
    <path d="M 100.07 659.52 
L 1216.07 659.52 
L 1216.07 7.2 
L 100.07 7.2 
z
" style="fill:#eaeaf2;"/>
   </g>
   <g id="matplotlib.axis_1">
    <g id="xtick_1">
     <g id="line2d_1">
      <path clip-path="url(#p04b087a8ed)" d="M 150.797273 659.52 
L 150.797273 7.2 
" style="fill:none;stroke:#ffffff;stroke-linecap:round;"/>
     </g>
     <g id="text_1">
      <!-- 0 -->
      <g style="fill:#262626;" transform="translate(141.889773 690.295625)scale(0.28 -0.28)">
       <defs>
        <path d="M 31.78125 66.40625 
Q 24.171875 66.40625 20.328125 58.90625 
Q 16.5 51.421875 16.5 36.375 
Q 16.5 21.390625 20.328125 13.890625 
Q 24.171875 6.390625 31.78125 6.390625 
Q 39.453125 6.390625 43.28125 13.890625 
Q 47.125 21.390625 47.125 36.375 
Q 47.125 51.421875 43.28125 58.90625 
Q 39.453125 66.40625 31.78125 66.40625 
z
M 31.78125 74.21875 
Q 44.046875 74.21875 50.515625 64.515625 
Q 56.984375 54.828125 56.984375 36.375 
Q 56.984375 17.96875 50.515625 8.265625 
Q 44.046875 -1.421875 31.78125 -1.421875 
Q 19.53125 -1.421875 13.0625 8.265625 
Q 6.59375 17.96875 6.59375 36.375 
Q 6.59375 54.828125 13.0625 64.515625 
Q 19.53125 74.21875 31.78125 74.21875 
z
" id="DejaVuSans-48"/>
       </defs>
       <use xlink:href="#DejaVuSans-48"/>
      </g>
     </g>
    </g>
    <g id="xtick_2">
     <g id="line2d_2">
      <path clip-path="url(#p04b087a8ed)" d="M 351.061366 659.52 
L 351.061366 7.2 
" style="fill:none;stroke:#ffffff;stroke-linecap:round;"/>
     </g>
     <g id="text_2">
      <!-- 10 -->
      <g style="fill:#262626;" transform="translate(333.246366 690.295625)scale(0.28 -0.28)">
       <defs>
        <path d="M 12.40625 8.296875 
L 28.515625 8.296875 
L 28.515625 63.921875 
L 10.984375 60.40625 
L 10.984375 69.390625 
L 28.421875 72.90625 
L 38.28125 72.90625 
L 38.28125 8.296875 
L 54.390625 8.296875 
L 54.390625 0 
L 12.40625 0 
z
" id="DejaVuSans-49"/>
       </defs>
       <use xlink:href="#DejaVuSans-49"/>
       <use x="63.623047" xlink:href="#DejaVuSans-48"/>
      </g>
     </g>
    </g>
    <g id="xtick_3">
     <g id="line2d_3">
      <path clip-path="url(#p04b087a8ed)" d="M 551.32546 659.52 
L 551.32546 7.2 
" style="fill:none;stroke:#ffffff;stroke-linecap:round;"/>
     </g>
     <g id="text_3">
      <!-- 20 -->
      <g style="fill:#262626;" transform="translate(533.51046 690.295625)scale(0.28 -0.28)">
       <defs>
        <path d="M 19.1875 8.296875 
L 53.609375 8.296875 
L 53.609375 0 
L 7.328125 0 
L 7.328125 8.296875 
Q 12.9375 14.109375 22.625 23.890625 
Q 32.328125 33.6875 34.8125 36.53125 
Q 39.546875 41.84375 41.421875 45.53125 
Q 43.3125 49.21875 43.3125 52.78125 
Q 43.3125 58.59375 39.234375 62.25 
Q 35.15625 65.921875 28.609375 65.921875 
Q 23.96875 65.921875 18.8125 64.3125 
Q 13.671875 62.703125 7.8125 59.421875 
L 7.8125 69.390625 
Q 13.765625 71.78125 18.9375 73 
Q 24.125 74.21875 28.421875 74.21875 
Q 39.75 74.21875 46.484375 68.546875 
Q 53.21875 62.890625 53.21875 53.421875 
Q 53.21875 48.921875 51.53125 44.890625 
Q 49.859375 40.875 45.40625 35.40625 
Q 44.1875 33.984375 37.640625 27.21875 
Q 31.109375 20.453125 19.1875 8.296875 
z
" id="DejaVuSans-50"/>
       </defs>
       <use xlink:href="#DejaVuSans-50"/>
       <use x="63.623047" xlink:href="#DejaVuSans-48"/>
      </g>
     </g>
    </g>
    <g id="xtick_4">
     <g id="line2d_4">
      <path clip-path="url(#p04b087a8ed)" d="M 751.589553 659.52 
L 751.589553 7.2 
" style="fill:none;stroke:#ffffff;stroke-linecap:round;"/>
     </g>
     <g id="text_4">
      <!-- 30 -->
      <g style="fill:#262626;" transform="translate(733.774553 690.295625)scale(0.28 -0.28)">
       <defs>
        <path d="M 40.578125 39.3125 
Q 47.65625 37.796875 51.625 33 
Q 55.609375 28.21875 55.609375 21.1875 
Q 55.609375 10.40625 48.1875 4.484375 
Q 40.765625 -1.421875 27.09375 -1.421875 
Q 22.515625 -1.421875 17.65625 -0.515625 
Q 12.796875 0.390625 7.625 2.203125 
L 7.625 11.71875 
Q 11.71875 9.328125 16.59375 8.109375 
Q 21.484375 6.890625 26.8125 6.890625 
Q 36.078125 6.890625 40.9375 10.546875 
Q 45.796875 14.203125 45.796875 21.1875 
Q 45.796875 27.640625 41.28125 31.265625 
Q 36.765625 34.90625 28.71875 34.90625 
L 20.21875 34.90625 
L 20.21875 43.015625 
L 29.109375 43.015625 
Q 36.375 43.015625 40.234375 45.921875 
Q 44.09375 48.828125 44.09375 54.296875 
Q 44.09375 59.90625 40.109375 62.90625 
Q 36.140625 65.921875 28.71875 65.921875 
Q 24.65625 65.921875 20.015625 65.03125 
Q 15.375 64.15625 9.8125 62.3125 
L 9.8125 71.09375 
Q 15.4375 72.65625 20.34375 73.4375 
Q 25.25 74.21875 29.59375 74.21875 
Q 40.828125 74.21875 47.359375 69.109375 
Q 53.90625 64.015625 53.90625 55.328125 
Q 53.90625 49.265625 50.4375 45.09375 
Q 46.96875 40.921875 40.578125 39.3125 
z
" id="DejaVuSans-51"/>
       </defs>
       <use xlink:href="#DejaVuSans-51"/>
       <use x="63.623047" xlink:href="#DejaVuSans-48"/>
      </g>
     </g>
    </g>
    <g id="xtick_5">
     <g id="line2d_5">
      <path clip-path="url(#p04b087a8ed)" d="M 951.853647 659.52 
L 951.853647 7.2 
" style="fill:none;stroke:#ffffff;stroke-linecap:round;"/>
     </g>
     <g id="text_5">
      <!-- 40 -->
      <g style="fill:#262626;" transform="translate(934.038647 690.295625)scale(0.28 -0.28)">
       <defs>
        <path d="M 37.796875 64.3125 
L 12.890625 25.390625 
L 37.796875 25.390625 
z
M 35.203125 72.90625 
L 47.609375 72.90625 
L 47.609375 25.390625 
L 58.015625 25.390625 
L 58.015625 17.1875 
L 47.609375 17.1875 
L 47.609375 0 
L 37.796875 0 
L 37.796875 17.1875 
L 4.890625 17.1875 
L 4.890625 26.703125 
z
" id="DejaVuSans-52"/>
       </defs>
       <use xlink:href="#DejaVuSans-52"/>
       <use x="63.623047" xlink:href="#DejaVuSans-48"/>
      </g>
     </g>
    </g>
    <g id="xtick_6">
     <g id="line2d_6">
      <path clip-path="url(#p04b087a8ed)" d="M 1152.11774 659.52 
L 1152.11774 7.2 
" style="fill:none;stroke:#ffffff;stroke-linecap:round;"/>
     </g>
     <g id="text_6">
      <!-- 50 -->
      <g style="fill:#262626;" transform="translate(1134.30274 690.295625)scale(0.28 -0.28)">
       <defs>
        <path d="M 10.796875 72.90625 
L 49.515625 72.90625 
L 49.515625 64.59375 
L 19.828125 64.59375 
L 19.828125 46.734375 
Q 21.96875 47.46875 24.109375 47.828125 
Q 26.265625 48.1875 28.421875 48.1875 
Q 40.625 48.1875 47.75 41.5 
Q 54.890625 34.8125 54.890625 23.390625 
Q 54.890625 11.625 47.5625 5.09375 
Q 40.234375 -1.421875 26.90625 -1.421875 
Q 22.3125 -1.421875 17.546875 -0.640625 
Q 12.796875 0.140625 7.71875 1.703125 
L 7.71875 11.625 
Q 12.109375 9.234375 16.796875 8.0625 
Q 21.484375 6.890625 26.703125 6.890625 
Q 35.15625 6.890625 40.078125 11.328125 
Q 45.015625 15.765625 45.015625 23.390625 
Q 45.015625 31 40.078125 35.4375 
Q 35.15625 39.890625 26.703125 39.890625 
Q 22.75 39.890625 18.8125 39.015625 
Q 14.890625 38.140625 10.796875 36.28125 
z
" id="DejaVuSans-53"/>
       </defs>
       <use xlink:href="#DejaVuSans-53"/>
       <use x="63.623047" xlink:href="#DejaVuSans-48"/>
      </g>
     </g>
    </g>
    <g id="text_7">
     <!-- Epochs (n.u.) -->
     <g style="fill:#262626;" transform="translate(539.55125 727.473125)scale(0.36 -0.36)">
      <defs>
       <path d="M 9.8125 72.90625 
L 55.90625 72.90625 
L 55.90625 64.59375 
L 19.671875 64.59375 
L 19.671875 43.015625 
L 54.390625 43.015625 
L 54.390625 34.71875 
L 19.671875 34.71875 
L 19.671875 8.296875 
L 56.78125 8.296875 
L 56.78125 0 
L 9.8125 0 
z
" id="DejaVuSans-69"/>
       <path d="M 18.109375 8.203125 
L 18.109375 -20.796875 
L 9.078125 -20.796875 
L 9.078125 54.6875 
L 18.109375 54.6875 
L 18.109375 46.390625 
Q 20.953125 51.265625 25.265625 53.625 
Q 29.59375 56 35.59375 56 
Q 45.5625 56 51.78125 48.09375 
Q 58.015625 40.1875 58.015625 27.296875 
Q 58.015625 14.40625 51.78125 6.484375 
Q 45.5625 -1.421875 35.59375 -1.421875 
Q 29.59375 -1.421875 25.265625 0.953125 
Q 20.953125 3.328125 18.109375 8.203125 
z
M 48.6875 27.296875 
Q 48.6875 37.203125 44.609375 42.84375 
Q 40.53125 48.484375 33.40625 48.484375 
Q 26.265625 48.484375 22.1875 42.84375 
Q 18.109375 37.203125 18.109375 27.296875 
Q 18.109375 17.390625 22.1875 11.75 
Q 26.265625 6.109375 33.40625 6.109375 
Q 40.53125 6.109375 44.609375 11.75 
Q 48.6875 17.390625 48.6875 27.296875 
z
" id="DejaVuSans-112"/>
       <path d="M 30.609375 48.390625 
Q 23.390625 48.390625 19.1875 42.75 
Q 14.984375 37.109375 14.984375 27.296875 
Q 14.984375 17.484375 19.15625 11.84375 
Q 23.34375 6.203125 30.609375 6.203125 
Q 37.796875 6.203125 41.984375 11.859375 
Q 46.1875 17.53125 46.1875 27.296875 
Q 46.1875 37.015625 41.984375 42.703125 
Q 37.796875 48.390625 30.609375 48.390625 
z
M 30.609375 56 
Q 42.328125 56 49.015625 48.375 
Q 55.71875 40.765625 55.71875 27.296875 
Q 55.71875 13.875 49.015625 6.21875 
Q 42.328125 -1.421875 30.609375 -1.421875 
Q 18.84375 -1.421875 12.171875 6.21875 
Q 5.515625 13.875 5.515625 27.296875 
Q 5.515625 40.765625 12.171875 48.375 
Q 18.84375 56 30.609375 56 
z
" id="DejaVuSans-111"/>
       <path d="M 48.78125 52.59375 
L 48.78125 44.1875 
Q 44.96875 46.296875 41.140625 47.34375 
Q 37.3125 48.390625 33.40625 48.390625 
Q 24.65625 48.390625 19.8125 42.84375 
Q 14.984375 37.3125 14.984375 27.296875 
Q 14.984375 17.28125 19.8125 11.734375 
Q 24.65625 6.203125 33.40625 6.203125 
Q 37.3125 6.203125 41.140625 7.25 
Q 44.96875 8.296875 48.78125 10.40625 
L 48.78125 2.09375 
Q 45.015625 0.34375 40.984375 -0.53125 
Q 36.96875 -1.421875 32.421875 -1.421875 
Q 20.0625 -1.421875 12.78125 6.34375 
Q 5.515625 14.109375 5.515625 27.296875 
Q 5.515625 40.671875 12.859375 48.328125 
Q 20.21875 56 33.015625 56 
Q 37.15625 56 41.109375 55.140625 
Q 45.0625 54.296875 48.78125 52.59375 
z
" id="DejaVuSans-99"/>
       <path d="M 54.890625 33.015625 
L 54.890625 0 
L 45.90625 0 
L 45.90625 32.71875 
Q 45.90625 40.484375 42.875 44.328125 
Q 39.84375 48.1875 33.796875 48.1875 
Q 26.515625 48.1875 22.3125 43.546875 
Q 18.109375 38.921875 18.109375 30.90625 
L 18.109375 0 
L 9.078125 0 
L 9.078125 75.984375 
L 18.109375 75.984375 
L 18.109375 46.1875 
Q 21.34375 51.125 25.703125 53.5625 
Q 30.078125 56 35.796875 56 
Q 45.21875 56 50.046875 50.171875 
Q 54.890625 44.34375 54.890625 33.015625 
z
" id="DejaVuSans-104"/>
       <path d="M 44.28125 53.078125 
L 44.28125 44.578125 
Q 40.484375 46.53125 36.375 47.5 
Q 32.28125 48.484375 27.875 48.484375 
Q 21.1875 48.484375 17.84375 46.4375 
Q 14.5 44.390625 14.5 40.28125 
Q 14.5 37.15625 16.890625 35.375 
Q 19.28125 33.59375 26.515625 31.984375 
L 29.59375 31.296875 
Q 39.15625 29.25 43.1875 25.515625 
Q 47.21875 21.78125 47.21875 15.09375 
Q 47.21875 7.46875 41.1875 3.015625 
Q 35.15625 -1.421875 24.609375 -1.421875 
Q 20.21875 -1.421875 15.453125 -0.5625 
Q 10.6875 0.296875 5.421875 2 
L 5.421875 11.28125 
Q 10.40625 8.6875 15.234375 7.390625 
Q 20.0625 6.109375 24.8125 6.109375 
Q 31.15625 6.109375 34.5625 8.28125 
Q 37.984375 10.453125 37.984375 14.40625 
Q 37.984375 18.0625 35.515625 20.015625 
Q 33.0625 21.96875 24.703125 23.78125 
L 21.578125 24.515625 
Q 13.234375 26.265625 9.515625 29.90625 
Q 5.8125 33.546875 5.8125 39.890625 
Q 5.8125 47.609375 11.28125 51.796875 
Q 16.75 56 26.8125 56 
Q 31.78125 56 36.171875 55.265625 
Q 40.578125 54.546875 44.28125 53.078125 
z
" id="DejaVuSans-115"/>
       <path id="DejaVuSans-32"/>
       <path d="M 31 75.875 
Q 24.46875 64.65625 21.28125 53.65625 
Q 18.109375 42.671875 18.109375 31.390625 
Q 18.109375 20.125 21.3125 9.0625 
Q 24.515625 -2 31 -13.1875 
L 23.1875 -13.1875 
Q 15.875 -1.703125 12.234375 9.375 
Q 8.59375 20.453125 8.59375 31.390625 
Q 8.59375 42.28125 12.203125 53.3125 
Q 15.828125 64.359375 23.1875 75.875 
z
" id="DejaVuSans-40"/>
       <path d="M 54.890625 33.015625 
L 54.890625 0 
L 45.90625 0 
L 45.90625 32.71875 
Q 45.90625 40.484375 42.875 44.328125 
Q 39.84375 48.1875 33.796875 48.1875 
Q 26.515625 48.1875 22.3125 43.546875 
Q 18.109375 38.921875 18.109375 30.90625 
L 18.109375 0 
L 9.078125 0 
L 9.078125 54.6875 
L 18.109375 54.6875 
L 18.109375 46.1875 
Q 21.34375 51.125 25.703125 53.5625 
Q 30.078125 56 35.796875 56 
Q 45.21875 56 50.046875 50.171875 
Q 54.890625 44.34375 54.890625 33.015625 
z
" id="DejaVuSans-110"/>
       <path d="M 10.6875 12.40625 
L 21 12.40625 
L 21 0 
L 10.6875 0 
z
" id="DejaVuSans-46"/>
       <path d="M 8.5 21.578125 
L 8.5 54.6875 
L 17.484375 54.6875 
L 17.484375 21.921875 
Q 17.484375 14.15625 20.5 10.265625 
Q 23.53125 6.390625 29.59375 6.390625 
Q 36.859375 6.390625 41.078125 11.03125 
Q 45.3125 15.671875 45.3125 23.6875 
L 45.3125 54.6875 
L 54.296875 54.6875 
L 54.296875 0 
L 45.3125 0 
L 45.3125 8.40625 
Q 42.046875 3.421875 37.71875 1 
Q 33.40625 -1.421875 27.6875 -1.421875 
Q 18.265625 -1.421875 13.375 4.4375 
Q 8.5 10.296875 8.5 21.578125 
z
M 31.109375 56 
z
" id="DejaVuSans-117"/>
       <path d="M 8.015625 75.875 
L 15.828125 75.875 
Q 23.140625 64.359375 26.78125 53.3125 
Q 30.421875 42.28125 30.421875 31.390625 
Q 30.421875 20.453125 26.78125 9.375 
Q 23.140625 -1.703125 15.828125 -13.1875 
L 8.015625 -13.1875 
Q 14.5 -2 17.703125 9.0625 
Q 20.90625 20.125 20.90625 31.390625 
Q 20.90625 42.671875 17.703125 53.65625 
Q 14.5 64.65625 8.015625 75.875 
z
" id="DejaVuSans-41"/>
      </defs>
      <use xlink:href="#DejaVuSans-69"/>
      <use x="63.183594" xlink:href="#DejaVuSans-112"/>
      <use x="126.660156" xlink:href="#DejaVuSans-111"/>
      <use x="187.841797" xlink:href="#DejaVuSans-99"/>
      <use x="242.822266" xlink:href="#DejaVuSans-104"/>
      <use x="306.201172" xlink:href="#DejaVuSans-115"/>
      <use x="358.300781" xlink:href="#DejaVuSans-32"/>
      <use x="390.087891" xlink:href="#DejaVuSans-40"/>
      <use x="429.101562" xlink:href="#DejaVuSans-110"/>
      <use x="492.480469" xlink:href="#DejaVuSans-46"/>
      <use x="524.267578" xlink:href="#DejaVuSans-117"/>
      <use x="587.646484" xlink:href="#DejaVuSans-46"/>
      <use x="619.433594" xlink:href="#DejaVuSans-41"/>
     </g>
    </g>
   </g>
   <g id="matplotlib.axis_2">
    <g id="ytick_1">
     <g id="line2d_7">
      <path clip-path="url(#p04b087a8ed)" d="M 100.07 612.925714 
L 1216.07 612.925714 
" style="fill:none;stroke:#ffffff;stroke-linecap:round;"/>
     </g>
     <g id="line2d_8">
      <defs>
       <path d="M 0 0 
L -6 0 
" id="mec1b52bc0e" style="stroke:#262626;stroke-width:1.25;"/>
      </defs>
      <g>
       <use style="fill:#262626;stroke:#262626;stroke-width:1.25;" x="100.07" xlink:href="#mec1b52bc0e" y="612.925714"/>
      </g>
     </g>
     <g id="text_8">
      <!-- 0.4 -->
      <g style="fill:#262626;" transform="translate(46.04125 623.563527)scale(0.28 -0.28)">
       <use xlink:href="#DejaVuSans-48"/>
       <use x="63.623047" xlink:href="#DejaVuSans-46"/>
       <use x="95.410156" xlink:href="#DejaVuSans-52"/>
      </g>
     </g>
    </g>
    <g id="ytick_2">
     <g id="line2d_9">
      <path clip-path="url(#p04b087a8ed)" d="M 100.07 519.737143 
L 1216.07 519.737143 
" style="fill:none;stroke:#ffffff;stroke-linecap:round;"/>
     </g>
     <g id="line2d_10">
      <g>
       <use style="fill:#262626;stroke:#262626;stroke-width:1.25;" x="100.07" xlink:href="#mec1b52bc0e" y="519.737143"/>
      </g>
     </g>
     <g id="text_9">
      <!-- 0.5 -->
      <g style="fill:#262626;" transform="translate(46.04125 530.374955)scale(0.28 -0.28)">
       <use xlink:href="#DejaVuSans-48"/>
       <use x="63.623047" xlink:href="#DejaVuSans-46"/>
       <use x="95.410156" xlink:href="#DejaVuSans-53"/>
      </g>
     </g>
    </g>
    <g id="ytick_3">
     <g id="line2d_11">
      <path clip-path="url(#p04b087a8ed)" d="M 100.07 426.548571 
L 1216.07 426.548571 
" style="fill:none;stroke:#ffffff;stroke-linecap:round;"/>
     </g>
     <g id="line2d_12">
      <g>
       <use style="fill:#262626;stroke:#262626;stroke-width:1.25;" x="100.07" xlink:href="#mec1b52bc0e" y="426.548571"/>
      </g>
     </g>
     <g id="text_10">
      <!-- 0.6 -->
      <g style="fill:#262626;" transform="translate(46.04125 437.186384)scale(0.28 -0.28)">
       <defs>
        <path d="M 33.015625 40.375 
Q 26.375 40.375 22.484375 35.828125 
Q 18.609375 31.296875 18.609375 23.390625 
Q 18.609375 15.53125 22.484375 10.953125 
Q 26.375 6.390625 33.015625 6.390625 
Q 39.65625 6.390625 43.53125 10.953125 
Q 47.40625 15.53125 47.40625 23.390625 
Q 47.40625 31.296875 43.53125 35.828125 
Q 39.65625 40.375 33.015625 40.375 
z
M 52.59375 71.296875 
L 52.59375 62.3125 
Q 48.875 64.0625 45.09375 64.984375 
Q 41.3125 65.921875 37.59375 65.921875 
Q 27.828125 65.921875 22.671875 59.328125 
Q 17.53125 52.734375 16.796875 39.40625 
Q 19.671875 43.65625 24.015625 45.921875 
Q 28.375 48.1875 33.59375 48.1875 
Q 44.578125 48.1875 50.953125 41.515625 
Q 57.328125 34.859375 57.328125 23.390625 
Q 57.328125 12.15625 50.6875 5.359375 
Q 44.046875 -1.421875 33.015625 -1.421875 
Q 20.359375 -1.421875 13.671875 8.265625 
Q 6.984375 17.96875 6.984375 36.375 
Q 6.984375 53.65625 15.1875 63.9375 
Q 23.390625 74.21875 37.203125 74.21875 
Q 40.921875 74.21875 44.703125 73.484375 
Q 48.484375 72.75 52.59375 71.296875 
z
" id="DejaVuSans-54"/>
       </defs>
       <use xlink:href="#DejaVuSans-48"/>
       <use x="63.623047" xlink:href="#DejaVuSans-46"/>
       <use x="95.410156" xlink:href="#DejaVuSans-54"/>
      </g>
     </g>
    </g>
    <g id="ytick_4">
     <g id="line2d_13">
      <path clip-path="url(#p04b087a8ed)" d="M 100.07 333.36 
L 1216.07 333.36 
" style="fill:none;stroke:#ffffff;stroke-linecap:round;"/>
     </g>
     <g id="line2d_14">
      <g>
       <use style="fill:#262626;stroke:#262626;stroke-width:1.25;" x="100.07" xlink:href="#mec1b52bc0e" y="333.36"/>
      </g>
     </g>
     <g id="text_11">
      <!-- 0.7 -->
      <g style="fill:#262626;" transform="translate(46.04125 343.997813)scale(0.28 -0.28)">
       <defs>
        <path d="M 8.203125 72.90625 
L 55.078125 72.90625 
L 55.078125 68.703125 
L 28.609375 0 
L 18.3125 0 
L 43.21875 64.59375 
L 8.203125 64.59375 
z
" id="DejaVuSans-55"/>
       </defs>
       <use xlink:href="#DejaVuSans-48"/>
       <use x="63.623047" xlink:href="#DejaVuSans-46"/>
       <use x="95.410156" xlink:href="#DejaVuSans-55"/>
      </g>
     </g>
    </g>
    <g id="ytick_5">
     <g id="line2d_15">
      <path clip-path="url(#p04b087a8ed)" d="M 100.07 240.171429 
L 1216.07 240.171429 
" style="fill:none;stroke:#ffffff;stroke-linecap:round;"/>
     </g>
     <g id="line2d_16">
      <g>
       <use style="fill:#262626;stroke:#262626;stroke-width:1.25;" x="100.07" xlink:href="#mec1b52bc0e" y="240.171429"/>
      </g>
     </g>
     <g id="text_12">
      <!-- 0.8 -->
      <g style="fill:#262626;" transform="translate(46.04125 250.809241)scale(0.28 -0.28)">
       <defs>
        <path d="M 31.78125 34.625 
Q 24.75 34.625 20.71875 30.859375 
Q 16.703125 27.09375 16.703125 20.515625 
Q 16.703125 13.921875 20.71875 10.15625 
Q 24.75 6.390625 31.78125 6.390625 
Q 38.8125 6.390625 42.859375 10.171875 
Q 46.921875 13.96875 46.921875 20.515625 
Q 46.921875 27.09375 42.890625 30.859375 
Q 38.875 34.625 31.78125 34.625 
z
M 21.921875 38.8125 
Q 15.578125 40.375 12.03125 44.71875 
Q 8.5 49.078125 8.5 55.328125 
Q 8.5 64.0625 14.71875 69.140625 
Q 20.953125 74.21875 31.78125 74.21875 
Q 42.671875 74.21875 48.875 69.140625 
Q 55.078125 64.0625 55.078125 55.328125 
Q 55.078125 49.078125 51.53125 44.71875 
Q 48 40.375 41.703125 38.8125 
Q 48.828125 37.15625 52.796875 32.3125 
Q 56.78125 27.484375 56.78125 20.515625 
Q 56.78125 9.90625 50.3125 4.234375 
Q 43.84375 -1.421875 31.78125 -1.421875 
Q 19.734375 -1.421875 13.25 4.234375 
Q 6.78125 9.90625 6.78125 20.515625 
Q 6.78125 27.484375 10.78125 32.3125 
Q 14.796875 37.15625 21.921875 38.8125 
z
M 18.3125 54.390625 
Q 18.3125 48.734375 21.84375 45.5625 
Q 25.390625 42.390625 31.78125 42.390625 
Q 38.140625 42.390625 41.71875 45.5625 
Q 45.3125 48.734375 45.3125 54.390625 
Q 45.3125 60.0625 41.71875 63.234375 
Q 38.140625 66.40625 31.78125 66.40625 
Q 25.390625 66.40625 21.84375 63.234375 
Q 18.3125 60.0625 18.3125 54.390625 
z
" id="DejaVuSans-56"/>
       </defs>
       <use xlink:href="#DejaVuSans-48"/>
       <use x="63.623047" xlink:href="#DejaVuSans-46"/>
       <use x="95.410156" xlink:href="#DejaVuSans-56"/>
      </g>
     </g>
    </g>
    <g id="ytick_6">
     <g id="line2d_17">
      <path clip-path="url(#p04b087a8ed)" d="M 100.07 146.982857 
L 1216.07 146.982857 
" style="fill:none;stroke:#ffffff;stroke-linecap:round;"/>
     </g>
     <g id="line2d_18">
      <g>
       <use style="fill:#262626;stroke:#262626;stroke-width:1.25;" x="100.07" xlink:href="#mec1b52bc0e" y="146.982857"/>
      </g>
     </g>
     <g id="text_13">
      <!-- 0.9 -->
      <g style="fill:#262626;" transform="translate(46.04125 157.62067)scale(0.28 -0.28)">
       <defs>
        <path d="M 10.984375 1.515625 
L 10.984375 10.5 
Q 14.703125 8.734375 18.5 7.8125 
Q 22.3125 6.890625 25.984375 6.890625 
Q 35.75 6.890625 40.890625 13.453125 
Q 46.046875 20.015625 46.78125 33.40625 
Q 43.953125 29.203125 39.59375 26.953125 
Q 35.25 24.703125 29.984375 24.703125 
Q 19.046875 24.703125 12.671875 31.3125 
Q 6.296875 37.9375 6.296875 49.421875 
Q 6.296875 60.640625 12.9375 67.421875 
Q 19.578125 74.21875 30.609375 74.21875 
Q 43.265625 74.21875 49.921875 64.515625 
Q 56.59375 54.828125 56.59375 36.375 
Q 56.59375 19.140625 48.40625 8.859375 
Q 40.234375 -1.421875 26.421875 -1.421875 
Q 22.703125 -1.421875 18.890625 -0.6875 
Q 15.09375 0.046875 10.984375 1.515625 
z
M 30.609375 32.421875 
Q 37.25 32.421875 41.125 36.953125 
Q 45.015625 41.5 45.015625 49.421875 
Q 45.015625 57.28125 41.125 61.84375 
Q 37.25 66.40625 30.609375 66.40625 
Q 23.96875 66.40625 20.09375 61.84375 
Q 16.21875 57.28125 16.21875 49.421875 
Q 16.21875 41.5 20.09375 36.953125 
Q 23.96875 32.421875 30.609375 32.421875 
z
" id="DejaVuSans-57"/>
       </defs>
       <use xlink:href="#DejaVuSans-48"/>
       <use x="63.623047" xlink:href="#DejaVuSans-46"/>
       <use x="95.410156" xlink:href="#DejaVuSans-57"/>
      </g>
     </g>
    </g>
    <g id="ytick_7">
     <g id="line2d_19">
      <path clip-path="url(#p04b087a8ed)" d="M 100.07 53.794286 
L 1216.07 53.794286 
" style="fill:none;stroke:#ffffff;stroke-linecap:round;"/>
     </g>
     <g id="line2d_20">
      <g>
       <use style="fill:#262626;stroke:#262626;stroke-width:1.25;" x="100.07" xlink:href="#mec1b52bc0e" y="53.794286"/>
      </g>
     </g>
     <g id="text_14">
      <!-- 1.0 -->
      <g style="fill:#262626;" transform="translate(46.04125 64.432098)scale(0.28 -0.28)">
       <use xlink:href="#DejaVuSans-49"/>
       <use x="63.623047" xlink:href="#DejaVuSans-46"/>
       <use x="95.410156" xlink:href="#DejaVuSans-48"/>
      </g>
     </g>
    </g>
    <g id="text_15">
     <!-- Challenge score (n.u.) -->
     <g style="fill:#262626;" transform="translate(34.554375 531.455625)rotate(-90)scale(0.36 -0.36)">
      <defs>
       <path d="M 64.40625 67.28125 
L 64.40625 56.890625 
Q 59.421875 61.53125 53.78125 63.8125 
Q 48.140625 66.109375 41.796875 66.109375 
Q 29.296875 66.109375 22.65625 58.46875 
Q 16.015625 50.828125 16.015625 36.375 
Q 16.015625 21.96875 22.65625 14.328125 
Q 29.296875 6.6875 41.796875 6.6875 
Q 48.140625 6.6875 53.78125 8.984375 
Q 59.421875 11.28125 64.40625 15.921875 
L 64.40625 5.609375 
Q 59.234375 2.09375 53.4375 0.328125 
Q 47.65625 -1.421875 41.21875 -1.421875 
Q 24.65625 -1.421875 15.125 8.703125 
Q 5.609375 18.84375 5.609375 36.375 
Q 5.609375 53.953125 15.125 64.078125 
Q 24.65625 74.21875 41.21875 74.21875 
Q 47.75 74.21875 53.53125 72.484375 
Q 59.328125 70.75 64.40625 67.28125 
z
" id="DejaVuSans-67"/>
       <path d="M 34.28125 27.484375 
Q 23.390625 27.484375 19.1875 25 
Q 14.984375 22.515625 14.984375 16.5 
Q 14.984375 11.71875 18.140625 8.90625 
Q 21.296875 6.109375 26.703125 6.109375 
Q 34.1875 6.109375 38.703125 11.40625 
Q 43.21875 16.703125 43.21875 25.484375 
L 43.21875 27.484375 
z
M 52.203125 31.203125 
L 52.203125 0 
L 43.21875 0 
L 43.21875 8.296875 
Q 40.140625 3.328125 35.546875 0.953125 
Q 30.953125 -1.421875 24.3125 -1.421875 
Q 15.921875 -1.421875 10.953125 3.296875 
Q 6 8.015625 6 15.921875 
Q 6 25.140625 12.171875 29.828125 
Q 18.359375 34.515625 30.609375 34.515625 
L 43.21875 34.515625 
L 43.21875 35.40625 
Q 43.21875 41.609375 39.140625 45 
Q 35.0625 48.390625 27.6875 48.390625 
Q 23 48.390625 18.546875 47.265625 
Q 14.109375 46.140625 10.015625 43.890625 
L 10.015625 52.203125 
Q 14.9375 54.109375 19.578125 55.046875 
Q 24.21875 56 28.609375 56 
Q 40.484375 56 46.34375 49.84375 
Q 52.203125 43.703125 52.203125 31.203125 
z
" id="DejaVuSans-97"/>
       <path d="M 9.421875 75.984375 
L 18.40625 75.984375 
L 18.40625 0 
L 9.421875 0 
z
" id="DejaVuSans-108"/>
       <path d="M 56.203125 29.59375 
L 56.203125 25.203125 
L 14.890625 25.203125 
Q 15.484375 15.921875 20.484375 11.0625 
Q 25.484375 6.203125 34.421875 6.203125 
Q 39.59375 6.203125 44.453125 7.46875 
Q 49.3125 8.734375 54.109375 11.28125 
L 54.109375 2.78125 
Q 49.265625 0.734375 44.1875 -0.34375 
Q 39.109375 -1.421875 33.890625 -1.421875 
Q 20.796875 -1.421875 13.15625 6.1875 
Q 5.515625 13.8125 5.515625 26.8125 
Q 5.515625 40.234375 12.765625 48.109375 
Q 20.015625 56 32.328125 56 
Q 43.359375 56 49.78125 48.890625 
Q 56.203125 41.796875 56.203125 29.59375 
z
M 47.21875 32.234375 
Q 47.125 39.59375 43.09375 43.984375 
Q 39.0625 48.390625 32.421875 48.390625 
Q 24.90625 48.390625 20.390625 44.140625 
Q 15.875 39.890625 15.1875 32.171875 
z
" id="DejaVuSans-101"/>
       <path d="M 45.40625 27.984375 
Q 45.40625 37.75 41.375 43.109375 
Q 37.359375 48.484375 30.078125 48.484375 
Q 22.859375 48.484375 18.828125 43.109375 
Q 14.796875 37.75 14.796875 27.984375 
Q 14.796875 18.265625 18.828125 12.890625 
Q 22.859375 7.515625 30.078125 7.515625 
Q 37.359375 7.515625 41.375 12.890625 
Q 45.40625 18.265625 45.40625 27.984375 
z
M 54.390625 6.78125 
Q 54.390625 -7.171875 48.1875 -13.984375 
Q 42 -20.796875 29.203125 -20.796875 
Q 24.46875 -20.796875 20.265625 -20.09375 
Q 16.0625 -19.390625 12.109375 -17.921875 
L 12.109375 -9.1875 
Q 16.0625 -11.328125 19.921875 -12.34375 
Q 23.78125 -13.375 27.78125 -13.375 
Q 36.625 -13.375 41.015625 -8.765625 
Q 45.40625 -4.15625 45.40625 5.171875 
L 45.40625 9.625 
Q 42.625 4.78125 38.28125 2.390625 
Q 33.9375 0 27.875 0 
Q 17.828125 0 11.671875 7.65625 
Q 5.515625 15.328125 5.515625 27.984375 
Q 5.515625 40.671875 11.671875 48.328125 
Q 17.828125 56 27.875 56 
Q 33.9375 56 38.28125 53.609375 
Q 42.625 51.21875 45.40625 46.390625 
L 45.40625 54.6875 
L 54.390625 54.6875 
z
" id="DejaVuSans-103"/>
       <path d="M 41.109375 46.296875 
Q 39.59375 47.171875 37.8125 47.578125 
Q 36.03125 48 33.890625 48 
Q 26.265625 48 22.1875 43.046875 
Q 18.109375 38.09375 18.109375 28.8125 
L 18.109375 0 
L 9.078125 0 
L 9.078125 54.6875 
L 18.109375 54.6875 
L 18.109375 46.1875 
Q 20.953125 51.171875 25.484375 53.578125 
Q 30.03125 56 36.53125 56 
Q 37.453125 56 38.578125 55.875 
Q 39.703125 55.765625 41.0625 55.515625 
z
" id="DejaVuSans-114"/>
      </defs>
      <use xlink:href="#DejaVuSans-67"/>
      <use x="69.824219" xlink:href="#DejaVuSans-104"/>
      <use x="133.203125" xlink:href="#DejaVuSans-97"/>
      <use x="194.482422" xlink:href="#DejaVuSans-108"/>
      <use x="222.265625" xlink:href="#DejaVuSans-108"/>
      <use x="250.048828" xlink:href="#DejaVuSans-101"/>
      <use x="311.572266" xlink:href="#DejaVuSans-110"/>
      <use x="374.951172" xlink:href="#DejaVuSans-103"/>
      <use x="438.427734" xlink:href="#DejaVuSans-101"/>
      <use x="499.951172" xlink:href="#DejaVuSans-32"/>
      <use x="531.738281" xlink:href="#DejaVuSans-115"/>
      <use x="583.837891" xlink:href="#DejaVuSans-99"/>
      <use x="638.818359" xlink:href="#DejaVuSans-111"/>
      <use x="700" xlink:href="#DejaVuSans-114"/>
      <use x="738.863281" xlink:href="#DejaVuSans-101"/>
      <use x="800.386719" xlink:href="#DejaVuSans-32"/>
      <use x="832.173828" xlink:href="#DejaVuSans-40"/>
      <use x="871.1875" xlink:href="#DejaVuSans-110"/>
      <use x="934.566406" xlink:href="#DejaVuSans-46"/>
      <use x="966.353516" xlink:href="#DejaVuSans-117"/>
      <use x="1029.732422" xlink:href="#DejaVuSans-46"/>
      <use x="1061.519531" xlink:href="#DejaVuSans-41"/>
     </g>
    </g>
   </g>
   <g id="line2d_21">
    <path clip-path="url(#p04b087a8ed)" d="M 150.797273 626.574276 
L 190.850091 497.332669 
L 230.90291 453.0888 
L 270.955729 413.310318 
L 311.008547 388.902443 
L 351.061366 387.391523 
L 391.114185 395.439049 
L 431.167004 361.747878 
L 471.219822 356.115392 
L 511.272641 348.693955 
L 551.32546 328.358823 
L 591.378278 317.948756 
L 631.431097 305.965124 
L 671.483916 297.498228 
L 711.536734 281.129674 
L 751.589553 259.891544 
L 791.642372 247.588075 
L 831.69519 230.854388 
L 871.748009 206.144778 
L 911.800828 187.103797 
L 951.853647 160.964461 
L 991.906465 148.142434 
L 1031.959284 134.458286 
L 1072.012103 126.803918 
L 1112.064921 126.343 
" style="fill:none;stroke:#4c72b0;stroke-dasharray:14.8,6.4;stroke-dashoffset:0;stroke-width:4;"/>
    <defs>
     <path d="M 0 -6 
L -5.706339 -1.854102 
L -3.526712 4.854102 
L 3.526712 4.854102 
L 5.706339 -1.854102 
z
" id="m7e2f93912a" style="stroke:#4c72b0;stroke-linejoin:miter;"/>
    </defs>
    <g clip-path="url(#p04b087a8ed)">
     <use style="fill:#4c72b0;stroke:#4c72b0;stroke-linejoin:miter;" x="150.797273" xlink:href="#m7e2f93912a" y="626.574276"/>
     <use style="fill:#4c72b0;stroke:#4c72b0;stroke-linejoin:miter;" x="190.850091" xlink:href="#m7e2f93912a" y="497.332669"/>
     <use style="fill:#4c72b0;stroke:#4c72b0;stroke-linejoin:miter;" x="230.90291" xlink:href="#m7e2f93912a" y="453.0888"/>
     <use style="fill:#4c72b0;stroke:#4c72b0;stroke-linejoin:miter;" x="270.955729" xlink:href="#m7e2f93912a" y="413.310318"/>
     <use style="fill:#4c72b0;stroke:#4c72b0;stroke-linejoin:miter;" x="311.008547" xlink:href="#m7e2f93912a" y="388.902443"/>
     <use style="fill:#4c72b0;stroke:#4c72b0;stroke-linejoin:miter;" x="351.061366" xlink:href="#m7e2f93912a" y="387.391523"/>
     <use style="fill:#4c72b0;stroke:#4c72b0;stroke-linejoin:miter;" x="391.114185" xlink:href="#m7e2f93912a" y="395.439049"/>
     <use style="fill:#4c72b0;stroke:#4c72b0;stroke-linejoin:miter;" x="431.167004" xlink:href="#m7e2f93912a" y="361.747878"/>
     <use style="fill:#4c72b0;stroke:#4c72b0;stroke-linejoin:miter;" x="471.219822" xlink:href="#m7e2f93912a" y="356.115392"/>
     <use style="fill:#4c72b0;stroke:#4c72b0;stroke-linejoin:miter;" x="511.272641" xlink:href="#m7e2f93912a" y="348.693955"/>
     <use style="fill:#4c72b0;stroke:#4c72b0;stroke-linejoin:miter;" x="551.32546" xlink:href="#m7e2f93912a" y="328.358823"/>
     <use style="fill:#4c72b0;stroke:#4c72b0;stroke-linejoin:miter;" x="591.378278" xlink:href="#m7e2f93912a" y="317.948756"/>
     <use style="fill:#4c72b0;stroke:#4c72b0;stroke-linejoin:miter;" x="631.431097" xlink:href="#m7e2f93912a" y="305.965124"/>
     <use style="fill:#4c72b0;stroke:#4c72b0;stroke-linejoin:miter;" x="671.483916" xlink:href="#m7e2f93912a" y="297.498228"/>
     <use style="fill:#4c72b0;stroke:#4c72b0;stroke-linejoin:miter;" x="711.536734" xlink:href="#m7e2f93912a" y="281.129674"/>
     <use style="fill:#4c72b0;stroke:#4c72b0;stroke-linejoin:miter;" x="751.589553" xlink:href="#m7e2f93912a" y="259.891544"/>
     <use style="fill:#4c72b0;stroke:#4c72b0;stroke-linejoin:miter;" x="791.642372" xlink:href="#m7e2f93912a" y="247.588075"/>
     <use style="fill:#4c72b0;stroke:#4c72b0;stroke-linejoin:miter;" x="831.69519" xlink:href="#m7e2f93912a" y="230.854388"/>
     <use style="fill:#4c72b0;stroke:#4c72b0;stroke-linejoin:miter;" x="871.748009" xlink:href="#m7e2f93912a" y="206.144778"/>
     <use style="fill:#4c72b0;stroke:#4c72b0;stroke-linejoin:miter;" x="911.800828" xlink:href="#m7e2f93912a" y="187.103797"/>
     <use style="fill:#4c72b0;stroke:#4c72b0;stroke-linejoin:miter;" x="951.853647" xlink:href="#m7e2f93912a" y="160.964461"/>
     <use style="fill:#4c72b0;stroke:#4c72b0;stroke-linejoin:miter;" x="991.906465" xlink:href="#m7e2f93912a" y="148.142434"/>
     <use style="fill:#4c72b0;stroke:#4c72b0;stroke-linejoin:miter;" x="1031.959284" xlink:href="#m7e2f93912a" y="134.458286"/>
     <use style="fill:#4c72b0;stroke:#4c72b0;stroke-linejoin:miter;" x="1072.012103" xlink:href="#m7e2f93912a" y="126.803918"/>
     <use style="fill:#4c72b0;stroke:#4c72b0;stroke-linejoin:miter;" x="1112.064921" xlink:href="#m7e2f93912a" y="126.343"/>
    </g>
   </g>
   <g id="line2d_22">
    <path clip-path="url(#p04b087a8ed)" d="M 150.797273 613.810079 
L 190.850091 495.625065 
L 230.90291 465.311908 
L 270.955729 398.626428 
L 311.008547 368.818282 
L 351.061366 375.973817 
L 391.114185 365.933003 
L 431.167004 358.669658 
L 471.219822 361.572217 
L 511.272641 327.740404 
L 551.32546 335.158861 
L 591.378278 307.066579 
L 631.431097 298.857665 
L 671.483916 286.816105 
L 711.536734 274.148576 
L 751.589553 248.730801 
L 791.642372 225.788909 
L 831.69519 215.61028 
L 871.748009 186.360386 
L 911.800828 160.714163 
L 951.853647 142.128518 
L 991.906465 128.725916 
" style="fill:none;stroke:#dd8452;stroke-dasharray:14.8,6.4;stroke-dashoffset:0;stroke-width:4;"/>
    <defs>
     <path d="M -0 6 
L 6 -6 
L -6 -6 
z
" id="ma7146a207a" style="stroke:#dd8452;stroke-linejoin:miter;"/>
    </defs>
    <g clip-path="url(#p04b087a8ed)">
     <use style="fill:#dd8452;stroke:#dd8452;stroke-linejoin:miter;" x="150.797273" xlink:href="#ma7146a207a" y="613.810079"/>
     <use style="fill:#dd8452;stroke:#dd8452;stroke-linejoin:miter;" x="190.850091" xlink:href="#ma7146a207a" y="495.625065"/>
     <use style="fill:#dd8452;stroke:#dd8452;stroke-linejoin:miter;" x="230.90291" xlink:href="#ma7146a207a" y="465.311908"/>
     <use style="fill:#dd8452;stroke:#dd8452;stroke-linejoin:miter;" x="270.955729" xlink:href="#ma7146a207a" y="398.626428"/>
     <use style="fill:#dd8452;stroke:#dd8452;stroke-linejoin:miter;" x="311.008547" xlink:href="#ma7146a207a" y="368.818282"/>
     <use style="fill:#dd8452;stroke:#dd8452;stroke-linejoin:miter;" x="351.061366" xlink:href="#ma7146a207a" y="375.973817"/>
     <use style="fill:#dd8452;stroke:#dd8452;stroke-linejoin:miter;" x="391.114185" xlink:href="#ma7146a207a" y="365.933003"/>
     <use style="fill:#dd8452;stroke:#dd8452;stroke-linejoin:miter;" x="431.167004" xlink:href="#ma7146a207a" y="358.669658"/>
     <use style="fill:#dd8452;stroke:#dd8452;stroke-linejoin:miter;" x="471.219822" xlink:href="#ma7146a207a" y="361.572217"/>
     <use style="fill:#dd8452;stroke:#dd8452;stroke-linejoin:miter;" x="511.272641" xlink:href="#ma7146a207a" y="327.740404"/>
     <use style="fill:#dd8452;stroke:#dd8452;stroke-linejoin:miter;" x="551.32546" xlink:href="#ma7146a207a" y="335.158861"/>
     <use style="fill:#dd8452;stroke:#dd8452;stroke-linejoin:miter;" x="591.378278" xlink:href="#ma7146a207a" y="307.066579"/>
     <use style="fill:#dd8452;stroke:#dd8452;stroke-linejoin:miter;" x="631.431097" xlink:href="#ma7146a207a" y="298.857665"/>
     <use style="fill:#dd8452;stroke:#dd8452;stroke-linejoin:miter;" x="671.483916" xlink:href="#ma7146a207a" y="286.816105"/>
     <use style="fill:#dd8452;stroke:#dd8452;stroke-linejoin:miter;" x="711.536734" xlink:href="#ma7146a207a" y="274.148576"/>
     <use style="fill:#dd8452;stroke:#dd8452;stroke-linejoin:miter;" x="751.589553" xlink:href="#ma7146a207a" y="248.730801"/>
     <use style="fill:#dd8452;stroke:#dd8452;stroke-linejoin:miter;" x="791.642372" xlink:href="#ma7146a207a" y="225.788909"/>
     <use style="fill:#dd8452;stroke:#dd8452;stroke-linejoin:miter;" x="831.69519" xlink:href="#ma7146a207a" y="215.61028"/>
     <use style="fill:#dd8452;stroke:#dd8452;stroke-linejoin:miter;" x="871.748009" xlink:href="#ma7146a207a" y="186.360386"/>
     <use style="fill:#dd8452;stroke:#dd8452;stroke-linejoin:miter;" x="911.800828" xlink:href="#ma7146a207a" y="160.714163"/>
     <use style="fill:#dd8452;stroke:#dd8452;stroke-linejoin:miter;" x="951.853647" xlink:href="#ma7146a207a" y="142.128518"/>
     <use style="fill:#dd8452;stroke:#dd8452;stroke-linejoin:miter;" x="991.906465" xlink:href="#ma7146a207a" y="128.725916"/>
    </g>
   </g>
   <g id="line2d_23">
    <path clip-path="url(#p04b087a8ed)" d="M 150.797273 631.544668 
L 190.850091 511.457835 
L 230.90291 472.735803 
L 270.955729 433.861141 
L 311.008547 411.382688 
L 351.061366 413.184138 
L 391.114185 421.025735 
L 431.167004 391.249519 
L 471.219822 390.038174 
L 511.272641 387.311019 
L 551.32546 371.267342 
L 591.378278 367.620094 
L 631.431097 359.91984 
L 671.483916 360.654034 
L 711.536734 356.132286 
L 751.589553 345.401199 
L 791.642372 345.422436 
L 831.69519 342.74842 
L 871.748009 344.035994 
L 911.800828 340.174195 
L 951.853647 335.246222 
L 991.906465 342.554611 
L 1031.959284 341.778975 
L 1072.012103 338.916204 
L 1112.064921 339.878996 
" style="fill:none;stroke:#4c72b0;stroke-dasharray:4,4;stroke-dashoffset:0;stroke-width:4;"/>
    <g clip-path="url(#p04b087a8ed)">
     <use style="fill:#4c72b0;stroke:#4c72b0;stroke-linejoin:miter;" x="150.797273" xlink:href="#m7e2f93912a" y="631.544668"/>
     <use style="fill:#4c72b0;stroke:#4c72b0;stroke-linejoin:miter;" x="190.850091" xlink:href="#m7e2f93912a" y="511.457835"/>
     <use style="fill:#4c72b0;stroke:#4c72b0;stroke-linejoin:miter;" x="230.90291" xlink:href="#m7e2f93912a" y="472.735803"/>
     <use style="fill:#4c72b0;stroke:#4c72b0;stroke-linejoin:miter;" x="270.955729" xlink:href="#m7e2f93912a" y="433.861141"/>
     <use style="fill:#4c72b0;stroke:#4c72b0;stroke-linejoin:miter;" x="311.008547" xlink:href="#m7e2f93912a" y="411.382688"/>
     <use style="fill:#4c72b0;stroke:#4c72b0;stroke-linejoin:miter;" x="351.061366" xlink:href="#m7e2f93912a" y="413.184138"/>
     <use style="fill:#4c72b0;stroke:#4c72b0;stroke-linejoin:miter;" x="391.114185" xlink:href="#m7e2f93912a" y="421.025735"/>
     <use style="fill:#4c72b0;stroke:#4c72b0;stroke-linejoin:miter;" x="431.167004" xlink:href="#m7e2f93912a" y="391.249519"/>
     <use style="fill:#4c72b0;stroke:#4c72b0;stroke-linejoin:miter;" x="471.219822" xlink:href="#m7e2f93912a" y="390.038174"/>
     <use style="fill:#4c72b0;stroke:#4c72b0;stroke-linejoin:miter;" x="511.272641" xlink:href="#m7e2f93912a" y="387.311019"/>
     <use style="fill:#4c72b0;stroke:#4c72b0;stroke-linejoin:miter;" x="551.32546" xlink:href="#m7e2f93912a" y="371.267342"/>
     <use style="fill:#4c72b0;stroke:#4c72b0;stroke-linejoin:miter;" x="591.378278" xlink:href="#m7e2f93912a" y="367.620094"/>
     <use style="fill:#4c72b0;stroke:#4c72b0;stroke-linejoin:miter;" x="631.431097" xlink:href="#m7e2f93912a" y="359.91984"/>
     <use style="fill:#4c72b0;stroke:#4c72b0;stroke-linejoin:miter;" x="671.483916" xlink:href="#m7e2f93912a" y="360.654034"/>
     <use style="fill:#4c72b0;stroke:#4c72b0;stroke-linejoin:miter;" x="711.536734" xlink:href="#m7e2f93912a" y="356.132286"/>
     <use style="fill:#4c72b0;stroke:#4c72b0;stroke-linejoin:miter;" x="751.589553" xlink:href="#m7e2f93912a" y="345.401199"/>
     <use style="fill:#4c72b0;stroke:#4c72b0;stroke-linejoin:miter;" x="791.642372" xlink:href="#m7e2f93912a" y="345.422436"/>
     <use style="fill:#4c72b0;stroke:#4c72b0;stroke-linejoin:miter;" x="831.69519" xlink:href="#m7e2f93912a" y="342.74842"/>
     <use style="fill:#4c72b0;stroke:#4c72b0;stroke-linejoin:miter;" x="871.748009" xlink:href="#m7e2f93912a" y="344.035994"/>
     <use style="fill:#4c72b0;stroke:#4c72b0;stroke-linejoin:miter;" x="911.800828" xlink:href="#m7e2f93912a" y="340.174195"/>
     <use style="fill:#4c72b0;stroke:#4c72b0;stroke-linejoin:miter;" x="951.853647" xlink:href="#m7e2f93912a" y="335.246222"/>
     <use style="fill:#4c72b0;stroke:#4c72b0;stroke-linejoin:miter;" x="991.906465" xlink:href="#m7e2f93912a" y="342.554611"/>
     <use style="fill:#4c72b0;stroke:#4c72b0;stroke-linejoin:miter;" x="1031.959284" xlink:href="#m7e2f93912a" y="341.778975"/>
     <use style="fill:#4c72b0;stroke:#4c72b0;stroke-linejoin:miter;" x="1072.012103" xlink:href="#m7e2f93912a" y="338.916204"/>
     <use style="fill:#4c72b0;stroke:#4c72b0;stroke-linejoin:miter;" x="1112.064921" xlink:href="#m7e2f93912a" y="339.878996"/>
    </g>
   </g>
   <g id="line2d_24">
    <path clip-path="url(#p04b087a8ed)" d="M 150.797273 616.10577 
L 190.850091 506.511527 
L 230.90291 485.095049 
L 270.955729 422.484802 
L 311.008547 394.895848 
L 351.061366 401.167399 
L 391.114185 392.921431 
L 431.167004 387.660718 
L 471.219822 398.533558 
L 511.272641 372.124636 
L 551.32546 379.323307 
L 591.378278 362.73374 
L 631.431097 357.075477 
L 671.483916 352.148008 
L 711.536734 355.066964 
L 751.589553 339.120581 
L 791.642372 334.488366 
L 831.69519 339.787642 
L 871.748009 337.412717 
L 911.800828 335.966186 
L 951.853647 337.977316 
L 991.906465 340.064278 
" style="fill:none;stroke:#dd8452;stroke-dasharray:4,4;stroke-dashoffset:0;stroke-width:4;"/>
    <g clip-path="url(#p04b087a8ed)">
     <use style="fill:#dd8452;stroke:#dd8452;stroke-linejoin:miter;" x="150.797273" xlink:href="#ma7146a207a" y="616.10577"/>
     <use style="fill:#dd8452;stroke:#dd8452;stroke-linejoin:miter;" x="190.850091" xlink:href="#ma7146a207a" y="506.511527"/>
     <use style="fill:#dd8452;stroke:#dd8452;stroke-linejoin:miter;" x="230.90291" xlink:href="#ma7146a207a" y="485.095049"/>
     <use style="fill:#dd8452;stroke:#dd8452;stroke-linejoin:miter;" x="270.955729" xlink:href="#ma7146a207a" y="422.484802"/>
     <use style="fill:#dd8452;stroke:#dd8452;stroke-linejoin:miter;" x="311.008547" xlink:href="#ma7146a207a" y="394.895848"/>
     <use style="fill:#dd8452;stroke:#dd8452;stroke-linejoin:miter;" x="351.061366" xlink:href="#ma7146a207a" y="401.167399"/>
     <use style="fill:#dd8452;stroke:#dd8452;stroke-linejoin:miter;" x="391.114185" xlink:href="#ma7146a207a" y="392.921431"/>
     <use style="fill:#dd8452;stroke:#dd8452;stroke-linejoin:miter;" x="431.167004" xlink:href="#ma7146a207a" y="387.660718"/>
     <use style="fill:#dd8452;stroke:#dd8452;stroke-linejoin:miter;" x="471.219822" xlink:href="#ma7146a207a" y="398.533558"/>
     <use style="fill:#dd8452;stroke:#dd8452;stroke-linejoin:miter;" x="511.272641" xlink:href="#ma7146a207a" y="372.124636"/>
     <use style="fill:#dd8452;stroke:#dd8452;stroke-linejoin:miter;" x="551.32546" xlink:href="#ma7146a207a" y="379.323307"/>
     <use style="fill:#dd8452;stroke:#dd8452;stroke-linejoin:miter;" x="591.378278" xlink:href="#ma7146a207a" y="362.73374"/>
     <use style="fill:#dd8452;stroke:#dd8452;stroke-linejoin:miter;" x="631.431097" xlink:href="#ma7146a207a" y="357.075477"/>
     <use style="fill:#dd8452;stroke:#dd8452;stroke-linejoin:miter;" x="671.483916" xlink:href="#ma7146a207a" y="352.148008"/>
     <use style="fill:#dd8452;stroke:#dd8452;stroke-linejoin:miter;" x="711.536734" xlink:href="#ma7146a207a" y="355.066964"/>
     <use style="fill:#dd8452;stroke:#dd8452;stroke-linejoin:miter;" x="751.589553" xlink:href="#ma7146a207a" y="339.120581"/>
     <use style="fill:#dd8452;stroke:#dd8452;stroke-linejoin:miter;" x="791.642372" xlink:href="#ma7146a207a" y="334.488366"/>
     <use style="fill:#dd8452;stroke:#dd8452;stroke-linejoin:miter;" x="831.69519" xlink:href="#ma7146a207a" y="339.787642"/>
     <use style="fill:#dd8452;stroke:#dd8452;stroke-linejoin:miter;" x="871.748009" xlink:href="#ma7146a207a" y="337.412717"/>
     <use style="fill:#dd8452;stroke:#dd8452;stroke-linejoin:miter;" x="911.800828" xlink:href="#ma7146a207a" y="335.966186"/>
     <use style="fill:#dd8452;stroke:#dd8452;stroke-linejoin:miter;" x="951.853647" xlink:href="#ma7146a207a" y="337.977316"/>
     <use style="fill:#dd8452;stroke:#dd8452;stroke-linejoin:miter;" x="991.906465" xlink:href="#ma7146a207a" y="340.064278"/>
    </g>
   </g>
   <g id="line2d_25">
    <path clip-path="url(#p04b087a8ed)" d="M 151.17513 592.215248 
L 154.197984 592.064042 
L 157.220838 591.67105 
L 160.243692 591.036655 
L 163.266546 590.161474 
L 166.289401 589.046359 
L 169.312255 587.692396 
L 170.823682 586.92625 
M 171.579396 586.520964 
L 174.60225 584.752328 
L 177.625104 582.749025 
L 180.647958 580.513004 
L 183.670813 578.046443 
L 187.44938 574.642724 
L 191.227948 570.887732 
M 191.983662 570.095074 
L 195.76223 565.92614 
L 199.540797 561.419192 
L 203.319365 556.581086 
L 207.097933 551.41918 
L 211.632214 544.808568 
M 212.387928 543.663572 
L 216.922209 536.540567 
L 221.456491 528.995212 
L 225.990772 521.044035 
L 231.280767 511.278028 
M 232.03648 509.841409 
L 237.326475 499.506989 
L 242.61647 488.708141 
L 248.662179 475.83927 
L 251.685033 469.20872 
M 252.440747 467.531737 
L 259.242169 452.112229 
L 266.799304 434.356437 
L 272.089299 421.592789 
M 272.845013 419.749562 
L 281.913575 397.302284 
L 292.493565 370.53477 
M 293.249279 368.606767 
L 312.897831 318.291334 
M 313.653545 316.363767 
L 325.744962 285.828442 
L 333.302098 267.171542 
M 334.057811 265.329607 
L 342.37066 245.407582 
L 349.172082 229.63937 
L 353.706364 219.434795 
M 354.462077 217.759902 
L 360.507786 204.645151 
L 366.553494 192.071841 
L 371.843489 181.552886 
L 373.354916 178.634924 
M 374.11063 177.190967 
L 379.400625 167.371847 
L 383.934906 159.372794 
L 388.469187 151.777507 
L 393.003469 144.602621 
L 393.759182 143.448796 
M 394.514896 142.307158 
L 399.049177 135.717088 
L 402.827745 130.572792 
L 406.606313 125.752712 
L 410.384881 121.264182 
L 414.163448 117.114027 
M 414.919162 116.325166 
L 418.69773 112.589351 
L 422.476298 109.205107 
L 426.254865 106.177583 
L 429.27772 104.015515 
L 432.300574 102.086811 
L 434.567715 100.794566 
M 435.323428 100.393348 
L 438.346282 98.936775 
L 441.369137 97.718511 
L 444.391991 96.73974 
L 447.414845 96.001416 
L 450.437699 95.504258 
L 453.460554 95.24875 
L 454.971981 95.211702 
M 455.727694 95.212188 
L 462.529116 95.349516 
L 469.330538 95.721027 
L 475.376247 96.247588 
M 476.13196 96.326383 
L 482.933382 97.165037 
L 489.734804 98.23623 
L 495.024799 99.229535 
M 495.780513 99.382841 
L 502.581935 100.890459 
L 509.383357 102.627244 
L 515.429066 104.362174 
M 516.184779 104.591624 
L 522.986201 106.781821 
L 529.787623 109.195851 
L 535.833332 111.527804 
M 536.589045 111.831531 
L 543.390467 114.686474 
L 550.947603 118.112643 
L 556.237598 120.668086 
M 556.993311 121.043616 
L 564.550447 124.94144 
L 572.107583 129.095305 
L 576.641864 131.708604 
M 577.397577 132.15288 
L 584.954713 136.73121 
L 592.511849 141.552407 
L 597.04613 144.55947 
M 597.801844 145.068875 
L 606.114693 150.825216 
L 614.427542 156.856363 
L 617.450396 159.116059 
M 618.20611 159.686445 
L 626.518959 166.102654 
L 635.587522 173.391701 
L 637.098949 174.63513 
M 637.854662 175.259856 
L 646.923225 182.910419 
L 656.747501 191.50892 
L 657.503215 192.183269 
M 658.258928 192.859427 
L 668.083205 201.810652 
L 677.907481 211.049399 
M 678.663195 211.771484 
L 689.243184 222.043949 
L 698.311747 231.079919 
M 699.067461 231.842052 
L 710.403164 243.43316 
L 718.716013 252.11175 
M 719.471727 252.907726 
L 732.318857 266.604989 
L 739.120279 273.973659 
M 739.875993 274.796999 
L 754.990264 291.437511 
L 759.524545 296.487658 
M 760.280259 297.331656 
L 779.173098 318.613047 
M 779.928812 319.470446 
L 799.577364 341.870445 
M 800.333078 342.734909 
L 819.98163 365.227146 
M 820.737344 366.091636 
L 840.385896 388.49299 
M 841.14161 389.350467 
L 860.790163 411.478556 
M 861.545876 412.32204 
L 877.415861 429.870374 
L 881.194429 433.996707 
M 881.950142 434.81933 
L 895.552986 449.463378 
L 900.842981 455.067905 
M 901.598695 455.864109 
L 913.690112 468.442628 
L 921.247247 476.14032 
M 922.002961 476.902727 
L 933.338664 488.169367 
L 941.651513 496.218871 
M 942.407227 496.941274 
L 952.987217 506.883633 
L 962.05578 515.140087 
M 962.811493 515.816606 
L 972.635769 524.444133 
L 981.704332 532.122798 
L 982.460046 532.749921 
M 983.215759 533.375047 
L 992.284322 540.718285 
L 1001.352885 547.761186 
L 1002.864312 548.905001 
M 1003.620025 549.473645 
L 1011.932875 555.58322 
L 1020.245724 561.420324 
L 1023.268578 563.473799 
M 1024.024292 563.981331 
L 1032.337141 569.408127 
L 1039.894276 574.0891 
L 1042.917131 575.89293 
M 1043.672844 576.337702 
L 1051.22998 580.647999 
L 1058.787115 584.7051 
L 1063.321397 587.015928 
M 1064.07711 587.391979 
L 1071.634246 591.008395 
L 1079.191381 594.360038 
L 1083.725663 596.242362 
M 1084.481376 596.54663 
L 1091.282798 599.162701 
L 1098.08422 601.556921 
L 1104.129929 603.497114 
M 1104.885642 603.727122 
L 1111.687064 605.67134 
L 1118.488487 607.387815 
L 1124.534195 608.721119 
M 1125.289909 608.874994 
L 1132.091331 610.13153 
L 1138.892753 611.156287 
L 1144.938461 611.871846 
M 1145.694175 611.948335 
L 1152.495597 612.50696 
L 1159.297019 612.831654 
L 1165.342727 612.923643 
L 1165.342727 612.923643 
" style="fill:none;stroke:#55a868;stroke-dasharray:6,9.9;stroke-dashoffset:0;stroke-width:6;"/>
   </g>
   <g id="patch_3">
    <path d="M 100.07 659.52 
L 100.07 7.2 
" style="fill:none;stroke:#ffffff;stroke-linecap:square;stroke-linejoin:miter;stroke-width:1.25;"/>
   </g>
   <g id="patch_4">
    <path d="M 1216.07 659.52 
L 1216.07 7.2 
" style="fill:none;stroke:#ffffff;stroke-linecap:square;stroke-linejoin:miter;stroke-width:1.25;"/>
   </g>
   <g id="patch_5">
    <path d="M 100.07 659.52 
L 1216.07 659.52 
" style="fill:none;stroke:#ffffff;stroke-linecap:square;stroke-linejoin:miter;stroke-width:1.25;"/>
   </g>
   <g id="patch_6">
    <path d="M 100.07 7.2 
L 1216.07 7.2 
" style="fill:none;stroke:#ffffff;stroke-linecap:square;stroke-linejoin:miter;stroke-width:1.25;"/>
   </g>
   <g id="text_16">
    <!-- max lr = 0.02 -->
    <g style="fill:#262626;" transform="translate(411.140594 81.750857)scale(0.3 -0.3)">
     <defs>
      <path d="M 52 44.1875 
Q 55.375 50.25 60.0625 53.125 
Q 64.75 56 71.09375 56 
Q 79.640625 56 84.28125 50.015625 
Q 88.921875 44.046875 88.921875 33.015625 
L 88.921875 0 
L 79.890625 0 
L 79.890625 32.71875 
Q 79.890625 40.578125 77.09375 44.375 
Q 74.3125 48.1875 68.609375 48.1875 
Q 61.625 48.1875 57.5625 43.546875 
Q 53.515625 38.921875 53.515625 30.90625 
L 53.515625 0 
L 44.484375 0 
L 44.484375 32.71875 
Q 44.484375 40.625 41.703125 44.40625 
Q 38.921875 48.1875 33.109375 48.1875 
Q 26.21875 48.1875 22.15625 43.53125 
Q 18.109375 38.875 18.109375 30.90625 
L 18.109375 0 
L 9.078125 0 
L 9.078125 54.6875 
L 18.109375 54.6875 
L 18.109375 46.1875 
Q 21.1875 51.21875 25.484375 53.609375 
Q 29.78125 56 35.6875 56 
Q 41.65625 56 45.828125 52.96875 
Q 50 49.953125 52 44.1875 
z
" id="DejaVuSans-109"/>
      <path d="M 54.890625 54.6875 
L 35.109375 28.078125 
L 55.90625 0 
L 45.3125 0 
L 29.390625 21.484375 
L 13.484375 0 
L 2.875 0 
L 24.125 28.609375 
L 4.6875 54.6875 
L 15.28125 54.6875 
L 29.78125 35.203125 
L 44.28125 54.6875 
z
" id="DejaVuSans-120"/>
      <path d="M 10.59375 45.40625 
L 73.1875 45.40625 
L 73.1875 37.203125 
L 10.59375 37.203125 
z
M 10.59375 25.484375 
L 73.1875 25.484375 
L 73.1875 17.1875 
L 10.59375 17.1875 
z
" id="DejaVuSans-61"/>
     </defs>
     <use xlink:href="#DejaVuSans-109"/>
     <use x="97.412109" xlink:href="#DejaVuSans-97"/>
     <use x="158.691406" xlink:href="#DejaVuSans-120"/>
     <use x="217.871094" xlink:href="#DejaVuSans-32"/>
     <use x="249.658203" xlink:href="#DejaVuSans-108"/>
     <use x="277.441406" xlink:href="#DejaVuSans-114"/>
     <use x="318.554688" xlink:href="#DejaVuSans-32"/>
     <use x="350.341797" xlink:href="#DejaVuSans-61"/>
     <use x="434.130859" xlink:href="#DejaVuSans-32"/>
     <use x="465.917969" xlink:href="#DejaVuSans-48"/>
     <use x="529.541016" xlink:href="#DejaVuSans-46"/>
     <use x="561.328125" xlink:href="#DejaVuSans-48"/>
     <use x="624.951172" xlink:href="#DejaVuSans-50"/>
    </g>
   </g>
   <g id="text_17">
    <!-- start lr = 0.00008 -->
    <g style="fill:#262626;" transform="translate(190.850091 603.606857)scale(0.3 -0.3)">
     <defs>
      <path d="M 18.3125 70.21875 
L 18.3125 54.6875 
L 36.8125 54.6875 
L 36.8125 47.703125 
L 18.3125 47.703125 
L 18.3125 18.015625 
Q 18.3125 11.328125 20.140625 9.421875 
Q 21.96875 7.515625 27.59375 7.515625 
L 36.8125 7.515625 
L 36.8125 0 
L 27.59375 0 
Q 17.1875 0 13.234375 3.875 
Q 9.28125 7.765625 9.28125 18.015625 
L 9.28125 47.703125 
L 2.6875 47.703125 
L 2.6875 54.6875 
L 9.28125 54.6875 
L 9.28125 70.21875 
z
" id="DejaVuSans-116"/>
     </defs>
     <use xlink:href="#DejaVuSans-115"/>
     <use x="52.099609" xlink:href="#DejaVuSans-116"/>
     <use x="91.308594" xlink:href="#DejaVuSans-97"/>
     <use x="152.587891" xlink:href="#DejaVuSans-114"/>
     <use x="193.701172" xlink:href="#DejaVuSans-116"/>
     <use x="232.910156" xlink:href="#DejaVuSans-32"/>
     <use x="264.697266" xlink:href="#DejaVuSans-108"/>
     <use x="292.480469" xlink:href="#DejaVuSans-114"/>
     <use x="333.59375" xlink:href="#DejaVuSans-32"/>
     <use x="365.380859" xlink:href="#DejaVuSans-61"/>
     <use x="449.169922" xlink:href="#DejaVuSans-32"/>
     <use x="480.957031" xlink:href="#DejaVuSans-48"/>
     <use x="544.580078" xlink:href="#DejaVuSans-46"/>
     <use x="576.367188" xlink:href="#DejaVuSans-48"/>
     <use x="639.990234" xlink:href="#DejaVuSans-48"/>
     <use x="703.613281" xlink:href="#DejaVuSans-48"/>
     <use x="767.236328" xlink:href="#DejaVuSans-48"/>
     <use x="830.859375" xlink:href="#DejaVuSans-56"/>
    </g>
   </g>
   <g id="legend_1">
    <g id="patch_7">
     <path d="M 268.477813 836.82075 
L 1047.662188 836.82075 
L 1047.662188 739.752 
L 268.477813 739.752 
z
" style="fill:#eaeaf2;opacity:0.8;stroke:#cccccc;stroke-linejoin:miter;"/>
    </g>
    <g id="line2d_26">
     <path d="M 280.477813 764.047313 
L 340.477813 764.047313 
" style="fill:none;stroke:#4c72b0;stroke-dasharray:14.8,6.4;stroke-dashoffset:0;stroke-width:4;"/>
    </g>
    <g id="line2d_27">
     <g>
      <use style="fill:#4c72b0;stroke:#4c72b0;stroke-linejoin:miter;" x="310.477813" xlink:href="#m7e2f93912a" y="764.047313"/>
     </g>
    </g>
    <g id="text_18">
     <!-- train -->
     <g style="fill:#262626;" transform="translate(364.477813 774.547313)scale(0.3 -0.3)">
      <defs>
       <path d="M 9.421875 54.6875 
L 18.40625 54.6875 
L 18.40625 0 
L 9.421875 0 
z
M 9.421875 75.984375 
L 18.40625 75.984375 
L 18.40625 64.59375 
L 9.421875 64.59375 
z
" id="DejaVuSans-105"/>
      </defs>
      <use xlink:href="#DejaVuSans-116"/>
      <use x="39.208984" xlink:href="#DejaVuSans-114"/>
      <use x="80.322266" xlink:href="#DejaVuSans-97"/>
      <use x="141.601562" xlink:href="#DejaVuSans-105"/>
      <use x="169.384766" xlink:href="#DejaVuSans-110"/>
     </g>
    </g>
    <g id="line2d_28">
     <path d="M 280.477813 808.081688 
L 340.477813 808.081688 
" style="fill:none;stroke:#dd8452;stroke-dasharray:14.8,6.4;stroke-dashoffset:0;stroke-width:4;"/>
    </g>
    <g id="line2d_29">
     <g>
      <use style="fill:#dd8452;stroke:#dd8452;stroke-linejoin:miter;" x="310.477813" xlink:href="#ma7146a207a" y="808.081688"/>
     </g>
    </g>
    <g id="text_19">
     <!-- lw-train -->
     <g style="fill:#262626;" transform="translate(364.477813 818.581688)scale(0.3 -0.3)">
      <defs>
       <path d="M 4.203125 54.6875 
L 13.1875 54.6875 
L 24.421875 12.015625 
L 35.59375 54.6875 
L 46.1875 54.6875 
L 57.421875 12.015625 
L 68.609375 54.6875 
L 77.59375 54.6875 
L 63.28125 0 
L 52.6875 0 
L 40.921875 44.828125 
L 29.109375 0 
L 18.5 0 
z
" id="DejaVuSans-119"/>
       <path d="M 4.890625 31.390625 
L 31.203125 31.390625 
L 31.203125 23.390625 
L 4.890625 23.390625 
z
" id="DejaVuSans-45"/>
      </defs>
      <use xlink:href="#DejaVuSans-108"/>
      <use x="27.783203" xlink:href="#DejaVuSans-119"/>
      <use x="109.570312" xlink:href="#DejaVuSans-45"/>
      <use x="145.654297" xlink:href="#DejaVuSans-116"/>
      <use x="184.863281" xlink:href="#DejaVuSans-114"/>
      <use x="225.976562" xlink:href="#DejaVuSans-97"/>
      <use x="287.255859" xlink:href="#DejaVuSans-105"/>
      <use x="315.039062" xlink:href="#DejaVuSans-110"/>
     </g>
    </g>
    <g id="line2d_30">
     <path d="M 537.995 764.047313 
L 597.995 764.047313 
" style="fill:none;stroke:#4c72b0;stroke-dasharray:4,4;stroke-dashoffset:0;stroke-width:4;"/>
    </g>
    <g id="line2d_31">
     <g>
      <use style="fill:#4c72b0;stroke:#4c72b0;stroke-linejoin:miter;" x="567.995" xlink:href="#m7e2f93912a" y="764.047313"/>
     </g>
    </g>
    <g id="text_20">
     <!-- val -->
     <g style="fill:#262626;" transform="translate(621.995 774.547313)scale(0.3 -0.3)">
      <defs>
       <path d="M 2.984375 54.6875 
L 12.5 54.6875 
L 29.59375 8.796875 
L 46.6875 54.6875 
L 56.203125 54.6875 
L 35.6875 0 
L 23.484375 0 
z
" id="DejaVuSans-118"/>
      </defs>
      <use xlink:href="#DejaVuSans-118"/>
      <use x="59.179688" xlink:href="#DejaVuSans-97"/>
      <use x="120.458984" xlink:href="#DejaVuSans-108"/>
     </g>
    </g>
    <g id="line2d_32">
     <path d="M 537.995 808.081688 
L 597.995 808.081688 
" style="fill:none;stroke:#dd8452;stroke-dasharray:4,4;stroke-dashoffset:0;stroke-width:4;"/>
    </g>
    <g id="line2d_33">
     <g>
      <use style="fill:#dd8452;stroke:#dd8452;stroke-linejoin:miter;" x="567.995" xlink:href="#ma7146a207a" y="808.081688"/>
     </g>
    </g>
    <g id="text_21">
     <!-- lw-val -->
     <g style="fill:#262626;" transform="translate(621.995 818.581688)scale(0.3 -0.3)">
      <use xlink:href="#DejaVuSans-108"/>
      <use x="27.783203" xlink:href="#DejaVuSans-119"/>
      <use x="109.570312" xlink:href="#DejaVuSans-45"/>
      <use x="143.029297" xlink:href="#DejaVuSans-118"/>
      <use x="202.208984" xlink:href="#DejaVuSans-97"/>
      <use x="263.488281" xlink:href="#DejaVuSans-108"/>
     </g>
    </g>
    <g id="line2d_34">
     <path d="M 769.374687 764.047313 
L 829.374687 764.047313 
" style="fill:none;stroke:#4c72b0;stroke-linecap:round;stroke-width:4;"/>
    </g>
    <g id="line2d_35"/>
    <g id="text_22">
     <!-- train-loss -->
     <g style="fill:#262626;" transform="translate(853.374687 774.547313)scale(0.3 -0.3)">
      <use xlink:href="#DejaVuSans-116"/>
      <use x="39.208984" xlink:href="#DejaVuSans-114"/>
      <use x="80.322266" xlink:href="#DejaVuSans-97"/>
      <use x="141.601562" xlink:href="#DejaVuSans-105"/>
      <use x="169.384766" xlink:href="#DejaVuSans-110"/>
      <use x="232.763672" xlink:href="#DejaVuSans-45"/>
      <use x="268.847656" xlink:href="#DejaVuSans-108"/>
      <use x="296.630859" xlink:href="#DejaVuSans-111"/>
      <use x="357.8125" xlink:href="#DejaVuSans-115"/>
      <use x="409.912109" xlink:href="#DejaVuSans-115"/>
     </g>
    </g>
    <g id="line2d_36">
     <path d="M 769.374687 808.081688 
L 829.374687 808.081688 
" style="fill:none;stroke:#dd8452;stroke-linecap:round;stroke-width:4;"/>
    </g>
    <g id="line2d_37"/>
    <g id="text_23">
     <!-- lw-train-loss -->
     <g style="fill:#262626;" transform="translate(853.374687 818.581688)scale(0.3 -0.3)">
      <use xlink:href="#DejaVuSans-108"/>
      <use x="27.783203" xlink:href="#DejaVuSans-119"/>
      <use x="109.570312" xlink:href="#DejaVuSans-45"/>
      <use x="145.654297" xlink:href="#DejaVuSans-116"/>
      <use x="184.863281" xlink:href="#DejaVuSans-114"/>
      <use x="225.976562" xlink:href="#DejaVuSans-97"/>
      <use x="287.255859" xlink:href="#DejaVuSans-105"/>
      <use x="315.039062" xlink:href="#DejaVuSans-110"/>
      <use x="378.417969" xlink:href="#DejaVuSans-45"/>
      <use x="414.501953" xlink:href="#DejaVuSans-108"/>
      <use x="442.285156" xlink:href="#DejaVuSans-111"/>
      <use x="503.466797" xlink:href="#DejaVuSans-115"/>
      <use x="555.566406" xlink:href="#DejaVuSans-115"/>
     </g>
    </g>
   </g>
  </g>
  <g id="axes_2">
   <g id="matplotlib.axis_3">
    <g id="ytick_8">
     <g id="line2d_38">
      <path clip-path="url(#p04b087a8ed)" d="M 100.07 612.925714 
L 1216.07 612.925714 
" style="fill:none;stroke:#ffffff;stroke-linecap:round;"/>
     </g>
     <g id="line2d_39">
      <defs>
       <path d="M 0 0 
L 6 0 
" id="ma9da21deb5" style="stroke:#262626;stroke-width:1.25;"/>
      </defs>
      <g>
       <use style="fill:#262626;stroke:#262626;stroke-width:1.25;" x="1216.07" xlink:href="#ma9da21deb5" y="612.925714"/>
      </g>
     </g>
     <g id="text_24">
      <!-- 0.00 -->
      <g style="fill:#262626;" transform="translate(1225.57 623.563527)scale(0.28 -0.28)">
       <use xlink:href="#DejaVuSans-48"/>
       <use x="63.623047" xlink:href="#DejaVuSans-46"/>
       <use x="95.410156" xlink:href="#DejaVuSans-48"/>
       <use x="159.033203" xlink:href="#DejaVuSans-48"/>
      </g>
     </g>
    </g>
    <g id="ytick_9">
     <g id="line2d_40">
      <path clip-path="url(#p04b087a8ed)" d="M 100.07 519.737143 
L 1216.07 519.737143 
" style="fill:none;stroke:#ffffff;stroke-linecap:round;"/>
     </g>
     <g id="line2d_41">
      <g>
       <use style="fill:#262626;stroke:#262626;stroke-width:1.25;" x="1216.07" xlink:href="#ma9da21deb5" y="519.737143"/>
      </g>
     </g>
     <g id="text_25">
      <!-- 0.06 -->
      <g style="fill:#262626;" transform="translate(1225.57 530.374955)scale(0.28 -0.28)">
       <use xlink:href="#DejaVuSans-48"/>
       <use x="63.623047" xlink:href="#DejaVuSans-46"/>
       <use x="95.410156" xlink:href="#DejaVuSans-48"/>
       <use x="159.033203" xlink:href="#DejaVuSans-54"/>
      </g>
     </g>
    </g>
    <g id="ytick_10">
     <g id="line2d_42">
      <path clip-path="url(#p04b087a8ed)" d="M 100.07 426.548571 
L 1216.07 426.548571 
" style="fill:none;stroke:#ffffff;stroke-linecap:round;"/>
     </g>
     <g id="line2d_43">
      <g>
       <use style="fill:#262626;stroke:#262626;stroke-width:1.25;" x="1216.07" xlink:href="#ma9da21deb5" y="426.548571"/>
      </g>
     </g>
     <g id="text_26">
      <!-- 0.12 -->
      <g style="fill:#262626;" transform="translate(1225.57 437.186384)scale(0.28 -0.28)">
       <use xlink:href="#DejaVuSans-48"/>
       <use x="63.623047" xlink:href="#DejaVuSans-46"/>
       <use x="95.410156" xlink:href="#DejaVuSans-49"/>
       <use x="159.033203" xlink:href="#DejaVuSans-50"/>
      </g>
     </g>
    </g>
    <g id="ytick_11">
     <g id="line2d_44">
      <path clip-path="url(#p04b087a8ed)" d="M 100.07 333.36 
L 1216.07 333.36 
" style="fill:none;stroke:#ffffff;stroke-linecap:round;"/>
     </g>
     <g id="line2d_45">
      <g>
       <use style="fill:#262626;stroke:#262626;stroke-width:1.25;" x="1216.07" xlink:href="#ma9da21deb5" y="333.36"/>
      </g>
     </g>
     <g id="text_27">
      <!-- 0.18 -->
      <g style="fill:#262626;" transform="translate(1225.57 343.997813)scale(0.28 -0.28)">
       <use xlink:href="#DejaVuSans-48"/>
       <use x="63.623047" xlink:href="#DejaVuSans-46"/>
       <use x="95.410156" xlink:href="#DejaVuSans-49"/>
       <use x="159.033203" xlink:href="#DejaVuSans-56"/>
      </g>
     </g>
    </g>
    <g id="ytick_12">
     <g id="line2d_46">
      <path clip-path="url(#p04b087a8ed)" d="M 100.07 240.171429 
L 1216.07 240.171429 
" style="fill:none;stroke:#ffffff;stroke-linecap:round;"/>
     </g>
     <g id="line2d_47">
      <g>
       <use style="fill:#262626;stroke:#262626;stroke-width:1.25;" x="1216.07" xlink:href="#ma9da21deb5" y="240.171429"/>
      </g>
     </g>
     <g id="text_28">
      <!-- 0.24 -->
      <g style="fill:#262626;" transform="translate(1225.57 250.809241)scale(0.28 -0.28)">
       <use xlink:href="#DejaVuSans-48"/>
       <use x="63.623047" xlink:href="#DejaVuSans-46"/>
       <use x="95.410156" xlink:href="#DejaVuSans-50"/>
       <use x="159.033203" xlink:href="#DejaVuSans-52"/>
      </g>
     </g>
    </g>
    <g id="ytick_13">
     <g id="line2d_48">
      <path clip-path="url(#p04b087a8ed)" d="M 100.07 146.982857 
L 1216.07 146.982857 
" style="fill:none;stroke:#ffffff;stroke-linecap:round;"/>
     </g>
     <g id="line2d_49">
      <g>
       <use style="fill:#262626;stroke:#262626;stroke-width:1.25;" x="1216.07" xlink:href="#ma9da21deb5" y="146.982857"/>
      </g>
     </g>
     <g id="text_29">
      <!-- 0.30 -->
      <g style="fill:#262626;" transform="translate(1225.57 157.62067)scale(0.28 -0.28)">
       <use xlink:href="#DejaVuSans-48"/>
       <use x="63.623047" xlink:href="#DejaVuSans-46"/>
       <use x="95.410156" xlink:href="#DejaVuSans-51"/>
       <use x="159.033203" xlink:href="#DejaVuSans-48"/>
      </g>
     </g>
    </g>
    <g id="ytick_14">
     <g id="line2d_50">
      <path clip-path="url(#p04b087a8ed)" d="M 100.07 53.794286 
L 1216.07 53.794286 
" style="fill:none;stroke:#ffffff;stroke-linecap:round;"/>
     </g>
     <g id="line2d_51">
      <g>
       <use style="fill:#262626;stroke:#262626;stroke-width:1.25;" x="1216.07" xlink:href="#ma9da21deb5" y="53.794286"/>
      </g>
     </g>
     <g id="text_30">
      <!-- 0.36 -->
      <g style="fill:#262626;" transform="translate(1225.57 64.432098)scale(0.28 -0.28)">
       <use xlink:href="#DejaVuSans-48"/>
       <use x="63.623047" xlink:href="#DejaVuSans-46"/>
       <use x="95.410156" xlink:href="#DejaVuSans-51"/>
       <use x="159.033203" xlink:href="#DejaVuSans-54"/>
      </g>
     </g>
    </g>
    <g id="text_31">
     <!-- Loss (n.u.) -->
     <g style="fill:#262626;" transform="translate(1322.3075 437.25375)rotate(-90)scale(0.4 -0.4)">
      <defs>
       <path d="M 9.8125 72.90625 
L 19.671875 72.90625 
L 19.671875 8.296875 
L 55.171875 8.296875 
L 55.171875 0 
L 9.8125 0 
z
" id="DejaVuSans-76"/>
      </defs>
      <use xlink:href="#DejaVuSans-76"/>
      <use x="53.962891" xlink:href="#DejaVuSans-111"/>
      <use x="115.144531" xlink:href="#DejaVuSans-115"/>
      <use x="167.244141" xlink:href="#DejaVuSans-115"/>
      <use x="219.34375" xlink:href="#DejaVuSans-32"/>
      <use x="251.130859" xlink:href="#DejaVuSans-40"/>
      <use x="290.144531" xlink:href="#DejaVuSans-110"/>
      <use x="353.523438" xlink:href="#DejaVuSans-46"/>
      <use x="385.310547" xlink:href="#DejaVuSans-117"/>
      <use x="448.689453" xlink:href="#DejaVuSans-46"/>
      <use x="480.476562" xlink:href="#DejaVuSans-41"/>
     </g>
    </g>
   </g>
   <g id="line2d_52">
    <path clip-path="url(#p04b087a8ed)" d="M 151.17513 44.189564 
L 157.220838 439.135796 
L 163.266546 479.191065 
L 169.312255 490.681432 
L 175.357963 494.528511 
L 181.403672 509.41736 
L 187.44938 506.059044 
L 193.495089 503.461203 
L 199.540797 510.778972 
L 205.586506 515.355245 
L 211.632214 513.202259 
L 217.677923 488.121706 
L 223.723631 507.115717 
L 229.76934 514.497703 
L 235.815048 511.120041 
L 241.860757 530.915306 
L 247.906465 512.375672 
L 253.952174 506.214892 
L 259.997882 513.728818 
L 266.043591 518.809208 
L 272.089299 527.93472 
L 278.135008 523.900228 
L 284.180716 537.539448 
L 290.226425 521.737249 
L 296.272133 520.85844 
L 302.317842 519.362224 
L 308.36355 529.298694 
L 314.409259 531.281405 
L 320.454967 529.421338 
L 326.500675 511.009685 
L 332.546384 534.142107 
L 338.592092 520.294499 
L 344.637801 533.971745 
L 350.683509 524.19591 
L 356.729218 524.665479 
L 362.774926 527.627896 
L 368.820635 528.649566 
L 374.866343 528.965199 
L 380.912052 538.882757 
L 386.95776 514.799338 
L 393.003469 537.762137 
L 399.049177 542.519009 
L 405.094886 548.161816 
L 411.140594 529.992242 
L 417.186303 532.969601 
L 423.232011 546.360876 
L 429.27772 534.963544 
L 435.323428 533.945553 
L 441.369137 538.984731 
L 447.414845 535.021451 
L 453.460554 538.953418 
L 459.506262 545.304379 
L 465.551971 525.45139 
L 471.597679 541.064936 
L 477.643388 529.649774 
L 483.689096 523.604743 
L 489.734804 540.121286 
L 495.780513 551.034527 
L 501.826221 548.705701 
L 507.87193 529.043565 
L 513.917638 536.542427 
L 519.963347 554.824727 
L 526.009055 511.009201 
L 532.054764 519.075095 
L 538.100472 540.801121 
L 544.146181 515.856397 
L 550.191889 534.339522 
L 556.237598 554.747544 
L 562.283306 522.582677 
L 568.329015 534.995973 
L 574.374723 548.625961 
L 580.420432 537.0222 
L 586.46614 518.742372 
L 592.511849 528.290965 
L 598.557557 551.315643 
L 604.603266 513.461455 
L 610.648974 537.227642 
L 616.694683 547.79505 
L 622.740391 548.994356 
L 628.7861 540.631107 
L 634.831808 528.418066 
L 640.877517 540.136369 
L 646.923225 540.844641 
L 652.968933 549.850174 
L 659.014642 551.035078 
L 665.06035 550.592955 
L 671.106059 540.330984 
L 677.151767 544.237934 
L 683.197476 552.75773 
L 689.243184 546.358436 
L 695.288893 524.086351 
L 701.334601 562.465288 
L 707.38031 551.301236 
L 713.426018 528.39374 
L 719.471727 557.007429 
L 725.517435 542.210003 
L 731.563144 565.762943 
L 737.608852 532.37543 
L 743.654561 560.475358 
L 749.700269 544.700555 
L 755.745978 551.716682 
L 761.791686 543.037484 
L 767.837395 550.411879 
L 773.883103 556.317908 
L 779.928812 545.131278 
L 785.97452 560.592639 
L 792.020229 560.316041 
L 798.065937 551.214462 
L 804.111646 563.584624 
L 810.157354 571.057044 
L 816.203062 548.002545 
L 822.248771 562.390281 
L 828.294479 538.363286 
L 834.340188 544.795953 
L 840.385896 550.814791 
L 846.431605 546.310902 
L 852.477313 547.432542 
L 858.523022 568.612284 
L 864.56873 559.775937 
L 870.614439 567.983897 
L 876.660147 557.304454 
L 882.705856 557.089798 
L 888.751564 561.56304 
L 894.797273 562.982238 
L 900.842981 552.10086 
L 906.88869 544.320473 
L 912.934398 562.19105 
L 918.980107 539.727543 
L 925.025815 565.675924 
L 931.071524 543.234285 
L 937.117232 566.352374 
L 943.162941 571.748791 
L 949.208649 576.924798 
L 955.254358 566.688846 
L 961.300066 565.397692 
L 967.345775 546.346788 
L 973.391483 568.878968 
L 979.437191 565.32318 
L 985.4829 587.002762 
L 991.528608 567.713364 
L 997.574317 578.706709 
L 1003.620025 564.132026 
L 1009.665734 568.265923 
L 1015.711442 583.381415 
L 1021.757151 584.19706 
L 1027.802859 578.73813 
L 1033.848568 577.054136 
L 1039.894276 571.726702 
L 1045.939985 572.196488 
L 1051.985693 568.147456 
L 1058.031402 576.761348 
L 1064.07711 556.593743 
L 1070.122819 574.249111 
L 1076.168527 577.822058 
L 1082.214236 560.609537 
L 1088.259944 565.256133 
L 1094.305653 549.972078 
L 1100.351361 577.177747 
L 1106.39707 571.632506 
L 1112.442778 558.961795 
L 1118.488487 584.253851 
L 1124.534195 584.676671 
L 1130.579904 555.307954 
L 1136.625612 570.675755 
L 1142.67132 564.705109 
L 1148.717029 582.136797 
L 1154.762737 566.776695 
L 1160.808446 593.242117 
L 1160.808446 593.242117 
" style="fill:none;stroke:#4c72b0;stroke-linecap:round;stroke-width:4;"/>
   </g>
   <g id="line2d_53">
    <path clip-path="url(#p04b087a8ed)" d="M 151.17513 19.57969 
L 157.220838 420.292442 
L 163.266546 487.432024 
L 169.312255 480.593967 
L 175.357963 497.612861 
L 181.403672 502.615564 
L 187.44938 511.152719 
L 193.495089 521.154437 
L 199.540797 492.345062 
L 205.586506 507.645553 
L 211.632214 530.75324 
L 217.677923 537.137733 
L 223.723631 499.406393 
L 229.76934 506.878913 
L 235.815048 526.378306 
L 241.860757 527.933637 
L 247.906465 534.351028 
L 253.952174 512.904109 
L 259.997882 528.507592 
L 266.043591 528.456794 
L 272.089299 537.120369 
L 278.135008 518.159622 
L 284.180716 538.008657 
L 290.226425 502.985856 
L 296.272133 536.861041 
L 302.317842 541.273699 
L 308.36355 542.167603 
L 314.409259 534.346106 
L 320.454967 547.850992 
L 326.500675 516.874886 
L 332.546384 522.741551 
L 338.592092 539.985835 
L 344.637801 540.665719 
L 350.683509 546.165036 
L 356.729218 542.280936 
L 362.774926 534.443513 
L 368.820635 551.085094 
L 374.866343 528.604913 
L 380.912052 553.579421 
L 386.95776 524.758022 
L 393.003469 533.652218 
L 399.049177 528.785339 
L 405.094886 510.737786 
L 411.140594 530.064638 
L 417.186303 522.856982 
L 423.232011 530.174905 
L 429.27772 535.075133 
L 435.323428 534.86401 
L 441.369137 534.984433 
L 447.414845 526.065204 
L 453.460554 524.206979 
L 459.506262 542.414874 
L 465.551971 531.92505 
L 471.597679 538.715171 
L 477.643388 528.173622 
L 483.689096 513.024134 
L 489.734804 554.966388 
L 495.780513 541.351944 
L 501.826221 538.582547 
L 507.87193 537.717779 
L 513.917638 521.237568 
L 519.963347 531.026132 
L 526.009055 535.900479 
L 532.054764 531.350707 
L 538.100472 549.540486 
L 544.146181 547.475846 
L 550.191889 527.994116 
L 556.237598 527.444554 
L 562.283306 521.699858 
L 568.329015 534.360598 
L 574.374723 518.082213 
L 580.420432 537.261418 
L 586.46614 541.263633 
L 592.511849 535.250835 
L 598.557557 562.715665 
L 604.603266 534.521429 
L 610.648974 544.22793 
L 616.694683 525.217223 
L 622.740391 547.260099 
L 628.7861 553.480609 
L 634.831808 532.990744 
L 640.877517 543.924226 
L 646.923225 547.156278 
L 652.968933 546.968061 
L 659.014642 547.957933 
L 665.06035 538.26265 
L 671.106059 538.04336 
L 677.151767 545.634861 
L 683.197476 538.745014 
L 689.243184 530.586031 
L 695.288893 533.338192 
L 701.334601 555.599198 
L 707.38031 555.205482 
L 719.471727 538.94006 
L 725.517435 549.966896 
L 731.563144 523.600931 
L 737.608852 534.706033 
L 743.654561 546.111218 
L 749.700269 563.356018 
L 755.745978 524.874934 
L 761.791686 534.039636 
L 767.837395 541.317034 
L 773.883103 552.973667 
L 779.928812 547.964023 
L 785.97452 520.088564 
L 792.020229 562.233021 
L 798.065937 542.298409 
L 804.111646 564.031888 
L 810.157354 568.552322 
L 816.203062 541.574242 
L 822.248771 563.56342 
L 828.294479 544.36389 
L 834.340188 567.232992 
L 840.385896 563.380538 
L 846.431605 570.628264 
L 852.477313 540.205392 
L 858.523022 560.17984 
L 864.56873 563.455517 
L 870.614439 568.421337 
L 876.660147 568.966205 
L 882.705856 567.043773 
L 888.751564 558.698464 
L 894.797273 567.590567 
L 900.842981 567.323438 
L 906.88869 557.341668 
L 912.934398 567.570506 
L 918.980107 565.53993 
L 925.025815 564.175332 
L 931.071524 559.979703 
L 937.117232 554.928949 
L 943.162941 559.454383 
L 949.208649 567.062794 
L 955.254358 552.847232 
L 961.300066 569.406376 
L 967.345775 572.356102 
L 973.391483 558.430908 
L 979.437191 548.109338 
L 985.4829 567.301794 
L 991.528608 581.307507 
L 997.574317 572.043705 
L 1003.620025 554.217185 
L 1009.665734 553.27729 
L 1015.711442 581.844504 
L 1021.757151 585.256471 
L 1021.757151 585.256471 
" style="fill:none;stroke:#dd8452;stroke-linecap:round;stroke-width:4;"/>
   </g>
   <g id="patch_8">
    <path d="M 100.07 659.52 
L 100.07 7.2 
" style="fill:none;stroke:#ffffff;stroke-linecap:square;stroke-linejoin:miter;stroke-width:1.25;"/>
   </g>
   <g id="patch_9">
    <path d="M 1216.07 659.52 
L 1216.07 7.2 
" style="fill:none;stroke:#ffffff;stroke-linecap:square;stroke-linejoin:miter;stroke-width:1.25;"/>
   </g>
   <g id="patch_10">
    <path d="M 100.07 659.52 
L 1216.07 659.52 
" style="fill:none;stroke:#ffffff;stroke-linecap:square;stroke-linejoin:miter;stroke-width:1.25;"/>
   </g>
   <g id="patch_11">
    <path d="M 100.07 7.2 
L 1216.07 7.2 
" style="fill:none;stroke:#ffffff;stroke-linecap:square;stroke-linejoin:miter;stroke-width:1.25;"/>
   </g>
   <g id="legend_2">
    <g id="patch_12">
     <path d="M 850.4075 75.234375 
L 1139.27 75.234375 
Q 1145.27 75.234375 1145.27 69.234375 
L 1145.27 28.2 
Q 1145.27 22.2 1139.27 22.2 
L 850.4075 22.2 
Q 844.4075 22.2 844.4075 28.2 
L 844.4075 69.234375 
Q 844.4075 75.234375 850.4075 75.234375 
z
" style="fill:#eaeaf2;opacity:0.8;stroke:#cccccc;stroke-linejoin:miter;"/>
    </g>
    <g id="line2d_54">
     <path d="M 856.4075 46.495312 
L 916.4075 46.495312 
" style="fill:none;stroke:#55a868;stroke-dasharray:6,9.9;stroke-dashoffset:0;stroke-width:6;"/>
    </g>
    <g id="line2d_55"/>
    <g id="text_32">
     <!-- learning rate -->
     <g style="fill:#262626;" transform="translate(940.4075 56.995312)scale(0.3 -0.3)">
      <use xlink:href="#DejaVuSans-108"/>
      <use x="27.783203" xlink:href="#DejaVuSans-101"/>
      <use x="89.306641" xlink:href="#DejaVuSans-97"/>
      <use x="150.585938" xlink:href="#DejaVuSans-114"/>
      <use x="189.949219" xlink:href="#DejaVuSans-110"/>
      <use x="253.328125" xlink:href="#DejaVuSans-105"/>
      <use x="281.111328" xlink:href="#DejaVuSans-110"/>
      <use x="344.490234" xlink:href="#DejaVuSans-103"/>
      <use x="407.966797" xlink:href="#DejaVuSans-32"/>
      <use x="439.753906" xlink:href="#DejaVuSans-114"/>
      <use x="480.867188" xlink:href="#DejaVuSans-97"/>
      <use x="542.146484" xlink:href="#DejaVuSans-116"/>
      <use x="581.355469" xlink:href="#DejaVuSans-101"/>
     </g>
    </g>
   </g>
  </g>
 </g>
 <defs>
  <clipPath id="p04b087a8ed">
   <rect height="652.32" width="1116" x="100.07" y="7.2"/>
  </clipPath>
 </defs>
</svg>
