<?xml version="1.0" encoding="utf-8" standalone="no"?>
<!DOCTYPE svg PUBLIC "-//W3C//DTD SVG 1.1//EN"
  "http://www.w3.org/Graphics/SVG/1.1/DTD/svg11.dtd">
<!-- Created with matplotlib (https://matplotlib.org/) -->
<svg height="742.16pt" version="1.1" viewBox="0 0 1333.955 742.16" width="1333.955pt" xmlns="http://www.w3.org/2000/svg" xmlns:xlink="http://www.w3.org/1999/xlink">
 <metadata>
  <rdf:RDF xmlns:cc="http://creativecommons.org/ns#" xmlns:dc="http://purl.org/dc/elements/1.1/" xmlns:rdf="http://www.w3.org/1999/02/22-rdf-syntax-ns#">
   <cc:Work>
    <dc:type rdf:resource="http://purl.org/dc/dcmitype/StillImage"/>
    <dc:date>2022-09-08T15:59:10.191647</dc:date>
    <dc:format>image/svg+xml</dc:format>
    <dc:creator>
     <cc:Agent>
      <dc:title>Matplotlib v3.3.4, https://matplotlib.org/</dc:title>
     </cc:Agent>
    </dc:creator>
   </cc:Work>
  </rdf:RDF>
 </metadata>
 <defs>
  <style type="text/css">*{stroke-linecap:butt;stroke-linejoin:round;}</style>
 </defs>
 <g id="figure_1">
  <g id="patch_1">
   <path d="M 0 742.16 
L 1333.955 742.16 
L 1333.955 0 
L 0 0 
z
" style="fill:#ffffff;"/>
  </g>
  <g id="axes_1">
   <g id="patch_2">
    <path d="M 100.07 659.52 
L 1216.07 659.52 
L 1216.07 7.2 
L 100.07 7.2 
z
" style="fill:#eaeaf2;"/>
   </g>
   <g id="matplotlib.axis_1">
    <g id="xtick_1">
     <g id="line2d_1">
      <path clip-path="url(#pb7a69014dc)" d="M 150.797273 659.52 
L 150.797273 7.2 
" style="fill:none;stroke:#ffffff;stroke-linecap:round;"/>
     </g>
     <g id="text_1">
      <!-- 0 -->
      <g style="fill:#262626;" transform="translate(141.889773 690.295625)scale(0.28 -0.28)">
       <defs>
        <path d="M 31.78125 66.40625 
Q 24.171875 66.40625 20.328125 58.90625 
Q 16.5 51.421875 16.5 36.375 
Q 16.5 21.390625 20.328125 13.890625 
Q 24.171875 6.390625 31.78125 6.390625 
Q 39.453125 6.390625 43.28125 13.890625 
Q 47.125 21.390625 47.125 36.375 
Q 47.125 51.421875 43.28125 58.90625 
Q 39.453125 66.40625 31.78125 66.40625 
z
M 31.78125 74.21875 
Q 44.046875 74.21875 50.515625 64.515625 
Q 56.984375 54.828125 56.984375 36.375 
Q 56.984375 17.96875 50.515625 8.265625 
Q 44.046875 -1.421875 31.78125 -1.421875 
Q 19.53125 -1.421875 13.0625 8.265625 
Q 6.59375 17.96875 6.59375 36.375 
Q 6.59375 54.828125 13.0625 64.515625 
Q 19.53125 74.21875 31.78125 74.21875 
z
" id="DejaVuSans-48"/>
       </defs>
       <use xlink:href="#DejaVuSans-48"/>
      </g>
     </g>
    </g>
    <g id="xtick_2">
     <g id="line2d_2">
      <path clip-path="url(#pb7a69014dc)" d="M 394.656271 659.52 
L 394.656271 7.2 
" style="fill:none;stroke:#ffffff;stroke-linecap:round;"/>
     </g>
     <g id="text_2">
      <!-- 50 -->
      <g style="fill:#262626;" transform="translate(376.841271 690.295625)scale(0.28 -0.28)">
       <defs>
        <path d="M 10.796875 72.90625 
L 49.515625 72.90625 
L 49.515625 64.59375 
L 19.828125 64.59375 
L 19.828125 46.734375 
Q 21.96875 47.46875 24.109375 47.828125 
Q 26.265625 48.1875 28.421875 48.1875 
Q 40.625 48.1875 47.75 41.5 
Q 54.890625 34.8125 54.890625 23.390625 
Q 54.890625 11.625 47.5625 5.09375 
Q 40.234375 -1.421875 26.90625 -1.421875 
Q 22.3125 -1.421875 17.546875 -0.640625 
Q 12.796875 0.140625 7.71875 1.703125 
L 7.71875 11.625 
Q 12.109375 9.234375 16.796875 8.0625 
Q 21.484375 6.890625 26.703125 6.890625 
Q 35.15625 6.890625 40.078125 11.328125 
Q 45.015625 15.765625 45.015625 23.390625 
Q 45.015625 31 40.078125 35.4375 
Q 35.15625 39.890625 26.703125 39.890625 
Q 22.75 39.890625 18.8125 39.015625 
Q 14.890625 38.140625 10.796875 36.28125 
z
" id="DejaVuSans-53"/>
       </defs>
       <use xlink:href="#DejaVuSans-53"/>
       <use x="63.623047" xlink:href="#DejaVuSans-48"/>
      </g>
     </g>
    </g>
    <g id="xtick_3">
     <g id="line2d_3">
      <path clip-path="url(#pb7a69014dc)" d="M 638.515269 659.52 
L 638.515269 7.2 
" style="fill:none;stroke:#ffffff;stroke-linecap:round;"/>
     </g>
     <g id="text_3">
      <!-- 100 -->
      <g style="fill:#262626;" transform="translate(611.792769 690.295625)scale(0.28 -0.28)">
       <defs>
        <path d="M 12.40625 8.296875 
L 28.515625 8.296875 
L 28.515625 63.921875 
L 10.984375 60.40625 
L 10.984375 69.390625 
L 28.421875 72.90625 
L 38.28125 72.90625 
L 38.28125 8.296875 
L 54.390625 8.296875 
L 54.390625 0 
L 12.40625 0 
z
" id="DejaVuSans-49"/>
       </defs>
       <use xlink:href="#DejaVuSans-49"/>
       <use x="63.623047" xlink:href="#DejaVuSans-48"/>
       <use x="127.246094" xlink:href="#DejaVuSans-48"/>
      </g>
     </g>
    </g>
    <g id="xtick_4">
     <g id="line2d_4">
      <path clip-path="url(#pb7a69014dc)" d="M 882.374267 659.52 
L 882.374267 7.2 
" style="fill:none;stroke:#ffffff;stroke-linecap:round;"/>
     </g>
     <g id="text_4">
      <!-- 150 -->
      <g style="fill:#262626;" transform="translate(855.651767 690.295625)scale(0.28 -0.28)">
       <use xlink:href="#DejaVuSans-49"/>
       <use x="63.623047" xlink:href="#DejaVuSans-53"/>
       <use x="127.246094" xlink:href="#DejaVuSans-48"/>
      </g>
     </g>
    </g>
    <g id="xtick_5">
     <g id="line2d_5">
      <path clip-path="url(#pb7a69014dc)" d="M 1126.233265 659.52 
L 1126.233265 7.2 
" style="fill:none;stroke:#ffffff;stroke-linecap:round;"/>
     </g>
     <g id="text_5">
      <!-- 200 -->
      <g style="fill:#262626;" transform="translate(1099.510765 690.295625)scale(0.28 -0.28)">
       <defs>
        <path d="M 19.1875 8.296875 
L 53.609375 8.296875 
L 53.609375 0 
L 7.328125 0 
L 7.328125 8.296875 
Q 12.9375 14.109375 22.625 23.890625 
Q 32.328125 33.6875 34.8125 36.53125 
Q 39.546875 41.84375 41.421875 45.53125 
Q 43.3125 49.21875 43.3125 52.78125 
Q 43.3125 58.59375 39.234375 62.25 
Q 35.15625 65.921875 28.609375 65.921875 
Q 23.96875 65.921875 18.8125 64.3125 
Q 13.671875 62.703125 7.8125 59.421875 
L 7.8125 69.390625 
Q 13.765625 71.78125 18.9375 73 
Q 24.125 74.21875 28.421875 74.21875 
Q 39.75 74.21875 46.484375 68.546875 
Q 53.21875 62.890625 53.21875 53.421875 
Q 53.21875 48.921875 51.53125 44.890625 
Q 49.859375 40.875 45.40625 35.40625 
Q 44.1875 33.984375 37.640625 27.21875 
Q 31.109375 20.453125 19.1875 8.296875 
z
" id="DejaVuSans-50"/>
       </defs>
       <use xlink:href="#DejaVuSans-50"/>
       <use x="63.623047" xlink:href="#DejaVuSans-48"/>
       <use x="127.246094" xlink:href="#DejaVuSans-48"/>
      </g>
     </g>
    </g>
    <g id="text_6">
     <!-- Epochs (n.u.) -->
     <g style="fill:#262626;" transform="translate(539.55125 727.473125)scale(0.36 -0.36)">
      <defs>
       <path d="M 9.8125 72.90625 
L 55.90625 72.90625 
L 55.90625 64.59375 
L 19.671875 64.59375 
L 19.671875 43.015625 
L 54.390625 43.015625 
L 54.390625 34.71875 
L 19.671875 34.71875 
L 19.671875 8.296875 
L 56.78125 8.296875 
L 56.78125 0 
L 9.8125 0 
z
" id="DejaVuSans-69"/>
       <path d="M 18.109375 8.203125 
L 18.109375 -20.796875 
L 9.078125 -20.796875 
L 9.078125 54.6875 
L 18.109375 54.6875 
L 18.109375 46.390625 
Q 20.953125 51.265625 25.265625 53.625 
Q 29.59375 56 35.59375 56 
Q 45.5625 56 51.78125 48.09375 
Q 58.015625 40.1875 58.015625 27.296875 
Q 58.015625 14.40625 51.78125 6.484375 
Q 45.5625 -1.421875 35.59375 -1.421875 
Q 29.59375 -1.421875 25.265625 0.953125 
Q 20.953125 3.328125 18.109375 8.203125 
z
M 48.6875 27.296875 
Q 48.6875 37.203125 44.609375 42.84375 
Q 40.53125 48.484375 33.40625 48.484375 
Q 26.265625 48.484375 22.1875 42.84375 
Q 18.109375 37.203125 18.109375 27.296875 
Q 18.109375 17.390625 22.1875 11.75 
Q 26.265625 6.109375 33.40625 6.109375 
Q 40.53125 6.109375 44.609375 11.75 
Q 48.6875 17.390625 48.6875 27.296875 
z
" id="DejaVuSans-112"/>
       <path d="M 30.609375 48.390625 
Q 23.390625 48.390625 19.1875 42.75 
Q 14.984375 37.109375 14.984375 27.296875 
Q 14.984375 17.484375 19.15625 11.84375 
Q 23.34375 6.203125 30.609375 6.203125 
Q 37.796875 6.203125 41.984375 11.859375 
Q 46.1875 17.53125 46.1875 27.296875 
Q 46.1875 37.015625 41.984375 42.703125 
Q 37.796875 48.390625 30.609375 48.390625 
z
M 30.609375 56 
Q 42.328125 56 49.015625 48.375 
Q 55.71875 40.765625 55.71875 27.296875 
Q 55.71875 13.875 49.015625 6.21875 
Q 42.328125 -1.421875 30.609375 -1.421875 
Q 18.84375 -1.421875 12.171875 6.21875 
Q 5.515625 13.875 5.515625 27.296875 
Q 5.515625 40.765625 12.171875 48.375 
Q 18.84375 56 30.609375 56 
z
" id="DejaVuSans-111"/>
       <path d="M 48.78125 52.59375 
L 48.78125 44.1875 
Q 44.96875 46.296875 41.140625 47.34375 
Q 37.3125 48.390625 33.40625 48.390625 
Q 24.65625 48.390625 19.8125 42.84375 
Q 14.984375 37.3125 14.984375 27.296875 
Q 14.984375 17.28125 19.8125 11.734375 
Q 24.65625 6.203125 33.40625 6.203125 
Q 37.3125 6.203125 41.140625 7.25 
Q 44.96875 8.296875 48.78125 10.40625 
L 48.78125 2.09375 
Q 45.015625 0.34375 40.984375 -0.53125 
Q 36.96875 -1.421875 32.421875 -1.421875 
Q 20.0625 -1.421875 12.78125 6.34375 
Q 5.515625 14.109375 5.515625 27.296875 
Q 5.515625 40.671875 12.859375 48.328125 
Q 20.21875 56 33.015625 56 
Q 37.15625 56 41.109375 55.140625 
Q 45.0625 54.296875 48.78125 52.59375 
z
" id="DejaVuSans-99"/>
       <path d="M 54.890625 33.015625 
L 54.890625 0 
L 45.90625 0 
L 45.90625 32.71875 
Q 45.90625 40.484375 42.875 44.328125 
Q 39.84375 48.1875 33.796875 48.1875 
Q 26.515625 48.1875 22.3125 43.546875 
Q 18.109375 38.921875 18.109375 30.90625 
L 18.109375 0 
L 9.078125 0 
L 9.078125 75.984375 
L 18.109375 75.984375 
L 18.109375 46.1875 
Q 21.34375 51.125 25.703125 53.5625 
Q 30.078125 56 35.796875 56 
Q 45.21875 56 50.046875 50.171875 
Q 54.890625 44.34375 54.890625 33.015625 
z
" id="DejaVuSans-104"/>
       <path d="M 44.28125 53.078125 
L 44.28125 44.578125 
Q 40.484375 46.53125 36.375 47.5 
Q 32.28125 48.484375 27.875 48.484375 
Q 21.1875 48.484375 17.84375 46.4375 
Q 14.5 44.390625 14.5 40.28125 
Q 14.5 37.15625 16.890625 35.375 
Q 19.28125 33.59375 26.515625 31.984375 
L 29.59375 31.296875 
Q 39.15625 29.25 43.1875 25.515625 
Q 47.21875 21.78125 47.21875 15.09375 
Q 47.21875 7.46875 41.1875 3.015625 
Q 35.15625 -1.421875 24.609375 -1.421875 
Q 20.21875 -1.421875 15.453125 -0.5625 
Q 10.6875 0.296875 5.421875 2 
L 5.421875 11.28125 
Q 10.40625 8.6875 15.234375 7.390625 
Q 20.0625 6.109375 24.8125 6.109375 
Q 31.15625 6.109375 34.5625 8.28125 
Q 37.984375 10.453125 37.984375 14.40625 
Q 37.984375 18.0625 35.515625 20.015625 
Q 33.0625 21.96875 24.703125 23.78125 
L 21.578125 24.515625 
Q 13.234375 26.265625 9.515625 29.90625 
Q 5.8125 33.546875 5.8125 39.890625 
Q 5.8125 47.609375 11.28125 51.796875 
Q 16.75 56 26.8125 56 
Q 31.78125 56 36.171875 55.265625 
Q 40.578125 54.546875 44.28125 53.078125 
z
" id="DejaVuSans-115"/>
       <path id="DejaVuSans-32"/>
       <path d="M 31 75.875 
Q 24.46875 64.65625 21.28125 53.65625 
Q 18.109375 42.671875 18.109375 31.390625 
Q 18.109375 20.125 21.3125 9.0625 
Q 24.515625 -2 31 -13.1875 
L 23.1875 -13.1875 
Q 15.875 -1.703125 12.234375 9.375 
Q 8.59375 20.453125 8.59375 31.390625 
Q 8.59375 42.28125 12.203125 53.3125 
Q 15.828125 64.359375 23.1875 75.875 
z
" id="DejaVuSans-40"/>
       <path d="M 54.890625 33.015625 
L 54.890625 0 
L 45.90625 0 
L 45.90625 32.71875 
Q 45.90625 40.484375 42.875 44.328125 
Q 39.84375 48.1875 33.796875 48.1875 
Q 26.515625 48.1875 22.3125 43.546875 
Q 18.109375 38.921875 18.109375 30.90625 
L 18.109375 0 
L 9.078125 0 
L 9.078125 54.6875 
L 18.109375 54.6875 
L 18.109375 46.1875 
Q 21.34375 51.125 25.703125 53.5625 
Q 30.078125 56 35.796875 56 
Q 45.21875 56 50.046875 50.171875 
Q 54.890625 44.34375 54.890625 33.015625 
z
" id="DejaVuSans-110"/>
       <path d="M 10.6875 12.40625 
L 21 12.40625 
L 21 0 
L 10.6875 0 
z
" id="DejaVuSans-46"/>
       <path d="M 8.5 21.578125 
L 8.5 54.6875 
L 17.484375 54.6875 
L 17.484375 21.921875 
Q 17.484375 14.15625 20.5 10.265625 
Q 23.53125 6.390625 29.59375 6.390625 
Q 36.859375 6.390625 41.078125 11.03125 
Q 45.3125 15.671875 45.3125 23.6875 
L 45.3125 54.6875 
L 54.296875 54.6875 
L 54.296875 0 
L 45.3125 0 
L 45.3125 8.40625 
Q 42.046875 3.421875 37.71875 1 
Q 33.40625 -1.421875 27.6875 -1.421875 
Q 18.265625 -1.421875 13.375 4.4375 
Q 8.5 10.296875 8.5 21.578125 
z
M 31.109375 56 
z
" id="DejaVuSans-117"/>
       <path d="M 8.015625 75.875 
L 15.828125 75.875 
Q 23.140625 64.359375 26.78125 53.3125 
Q 30.421875 42.28125 30.421875 31.390625 
Q 30.421875 20.453125 26.78125 9.375 
Q 23.140625 -1.703125 15.828125 -13.1875 
L 8.015625 -13.1875 
Q 14.5 -2 17.703125 9.0625 
Q 20.90625 20.125 20.90625 31.390625 
Q 20.90625 42.671875 17.703125 53.65625 
Q 14.5 64.65625 8.015625 75.875 
z
" id="DejaVuSans-41"/>
      </defs>
      <use xlink:href="#DejaVuSans-69"/>
      <use x="63.183594" xlink:href="#DejaVuSans-112"/>
      <use x="126.660156" xlink:href="#DejaVuSans-111"/>
      <use x="187.841797" xlink:href="#DejaVuSans-99"/>
      <use x="242.822266" xlink:href="#DejaVuSans-104"/>
      <use x="306.201172" xlink:href="#DejaVuSans-115"/>
      <use x="358.300781" xlink:href="#DejaVuSans-32"/>
      <use x="390.087891" xlink:href="#DejaVuSans-40"/>
      <use x="429.101562" xlink:href="#DejaVuSans-110"/>
      <use x="492.480469" xlink:href="#DejaVuSans-46"/>
      <use x="524.267578" xlink:href="#DejaVuSans-117"/>
      <use x="587.646484" xlink:href="#DejaVuSans-46"/>
      <use x="619.433594" xlink:href="#DejaVuSans-41"/>
     </g>
    </g>
   </g>
   <g id="matplotlib.axis_2">
    <g id="ytick_1">
     <g id="line2d_6">
      <path clip-path="url(#pb7a69014dc)" d="M 100.07 605.16 
L 1216.07 605.16 
" style="fill:none;stroke:#ffffff;stroke-linecap:round;"/>
     </g>
     <g id="line2d_7">
      <defs>
       <path d="M 0 0 
L -6 0 
" id="m90f028a6db" style="stroke:#262626;stroke-width:1.25;"/>
      </defs>
      <g>
       <use style="fill:#262626;stroke:#262626;stroke-width:1.25;" x="100.07" xlink:href="#m90f028a6db" y="605.16"/>
      </g>
     </g>
     <g id="text_7">
      <!-- 0.0 -->
      <g style="fill:#262626;" transform="translate(46.04125 615.797812)scale(0.28 -0.28)">
       <use xlink:href="#DejaVuSans-48"/>
       <use x="63.623047" xlink:href="#DejaVuSans-46"/>
       <use x="95.410156" xlink:href="#DejaVuSans-48"/>
      </g>
     </g>
    </g>
    <g id="ytick_2">
     <g id="line2d_8">
      <path clip-path="url(#pb7a69014dc)" d="M 100.07 496.44 
L 1216.07 496.44 
" style="fill:none;stroke:#ffffff;stroke-linecap:round;"/>
     </g>
     <g id="line2d_9">
      <g>
       <use style="fill:#262626;stroke:#262626;stroke-width:1.25;" x="100.07" xlink:href="#m90f028a6db" y="496.44"/>
      </g>
     </g>
     <g id="text_8">
      <!-- 0.2 -->
      <g style="fill:#262626;" transform="translate(46.04125 507.077812)scale(0.28 -0.28)">
       <use xlink:href="#DejaVuSans-48"/>
       <use x="63.623047" xlink:href="#DejaVuSans-46"/>
       <use x="95.410156" xlink:href="#DejaVuSans-50"/>
      </g>
     </g>
    </g>
    <g id="ytick_3">
     <g id="line2d_10">
      <path clip-path="url(#pb7a69014dc)" d="M 100.07 387.72 
L 1216.07 387.72 
" style="fill:none;stroke:#ffffff;stroke-linecap:round;"/>
     </g>
     <g id="line2d_11">
      <g>
       <use style="fill:#262626;stroke:#262626;stroke-width:1.25;" x="100.07" xlink:href="#m90f028a6db" y="387.72"/>
      </g>
     </g>
     <g id="text_9">
      <!-- 0.4 -->
      <g style="fill:#262626;" transform="translate(46.04125 398.357812)scale(0.28 -0.28)">
       <defs>
        <path d="M 37.796875 64.3125 
L 12.890625 25.390625 
L 37.796875 25.390625 
z
M 35.203125 72.90625 
L 47.609375 72.90625 
L 47.609375 25.390625 
L 58.015625 25.390625 
L 58.015625 17.1875 
L 47.609375 17.1875 
L 47.609375 0 
L 37.796875 0 
L 37.796875 17.1875 
L 4.890625 17.1875 
L 4.890625 26.703125 
z
" id="DejaVuSans-52"/>
       </defs>
       <use xlink:href="#DejaVuSans-48"/>
       <use x="63.623047" xlink:href="#DejaVuSans-46"/>
       <use x="95.410156" xlink:href="#DejaVuSans-52"/>
      </g>
     </g>
    </g>
    <g id="ytick_4">
     <g id="line2d_12">
      <path clip-path="url(#pb7a69014dc)" d="M 100.07 279 
L 1216.07 279 
" style="fill:none;stroke:#ffffff;stroke-linecap:round;"/>
     </g>
     <g id="line2d_13">
      <g>
       <use style="fill:#262626;stroke:#262626;stroke-width:1.25;" x="100.07" xlink:href="#m90f028a6db" y="279"/>
      </g>
     </g>
     <g id="text_10">
      <!-- 0.6 -->
      <g style="fill:#262626;" transform="translate(46.04125 289.637812)scale(0.28 -0.28)">
       <defs>
        <path d="M 33.015625 40.375 
Q 26.375 40.375 22.484375 35.828125 
Q 18.609375 31.296875 18.609375 23.390625 
Q 18.609375 15.53125 22.484375 10.953125 
Q 26.375 6.390625 33.015625 6.390625 
Q 39.65625 6.390625 43.53125 10.953125 
Q 47.40625 15.53125 47.40625 23.390625 
Q 47.40625 31.296875 43.53125 35.828125 
Q 39.65625 40.375 33.015625 40.375 
z
M 52.59375 71.296875 
L 52.59375 62.3125 
Q 48.875 64.0625 45.09375 64.984375 
Q 41.3125 65.921875 37.59375 65.921875 
Q 27.828125 65.921875 22.671875 59.328125 
Q 17.53125 52.734375 16.796875 39.40625 
Q 19.671875 43.65625 24.015625 45.921875 
Q 28.375 48.1875 33.59375 48.1875 
Q 44.578125 48.1875 50.953125 41.515625 
Q 57.328125 34.859375 57.328125 23.390625 
Q 57.328125 12.15625 50.6875 5.359375 
Q 44.046875 -1.421875 33.015625 -1.421875 
Q 20.359375 -1.421875 13.671875 8.265625 
Q 6.984375 17.96875 6.984375 36.375 
Q 6.984375 53.65625 15.1875 63.9375 
Q 23.390625 74.21875 37.203125 74.21875 
Q 40.921875 74.21875 44.703125 73.484375 
Q 48.484375 72.75 52.59375 71.296875 
z
" id="DejaVuSans-54"/>
       </defs>
       <use xlink:href="#DejaVuSans-48"/>
       <use x="63.623047" xlink:href="#DejaVuSans-46"/>
       <use x="95.410156" xlink:href="#DejaVuSans-54"/>
      </g>
     </g>
    </g>
    <g id="ytick_5">
     <g id="line2d_14">
      <path clip-path="url(#pb7a69014dc)" d="M 100.07 170.28 
L 1216.07 170.28 
" style="fill:none;stroke:#ffffff;stroke-linecap:round;"/>
     </g>
     <g id="line2d_15">
      <g>
       <use style="fill:#262626;stroke:#262626;stroke-width:1.25;" x="100.07" xlink:href="#m90f028a6db" y="170.28"/>
      </g>
     </g>
     <g id="text_11">
      <!-- 0.8 -->
      <g style="fill:#262626;" transform="translate(46.04125 180.917812)scale(0.28 -0.28)">
       <defs>
        <path d="M 31.78125 34.625 
Q 24.75 34.625 20.71875 30.859375 
Q 16.703125 27.09375 16.703125 20.515625 
Q 16.703125 13.921875 20.71875 10.15625 
Q 24.75 6.390625 31.78125 6.390625 
Q 38.8125 6.390625 42.859375 10.171875 
Q 46.921875 13.96875 46.921875 20.515625 
Q 46.921875 27.09375 42.890625 30.859375 
Q 38.875 34.625 31.78125 34.625 
z
M 21.921875 38.8125 
Q 15.578125 40.375 12.03125 44.71875 
Q 8.5 49.078125 8.5 55.328125 
Q 8.5 64.0625 14.71875 69.140625 
Q 20.953125 74.21875 31.78125 74.21875 
Q 42.671875 74.21875 48.875 69.140625 
Q 55.078125 64.0625 55.078125 55.328125 
Q 55.078125 49.078125 51.53125 44.71875 
Q 48 40.375 41.703125 38.8125 
Q 48.828125 37.15625 52.796875 32.3125 
Q 56.78125 27.484375 56.78125 20.515625 
Q 56.78125 9.90625 50.3125 4.234375 
Q 43.84375 -1.421875 31.78125 -1.421875 
Q 19.734375 -1.421875 13.25 4.234375 
Q 6.78125 9.90625 6.78125 20.515625 
Q 6.78125 27.484375 10.78125 32.3125 
Q 14.796875 37.15625 21.921875 38.8125 
z
M 18.3125 54.390625 
Q 18.3125 48.734375 21.84375 45.5625 
Q 25.390625 42.390625 31.78125 42.390625 
Q 38.140625 42.390625 41.71875 45.5625 
Q 45.3125 48.734375 45.3125 54.390625 
Q 45.3125 60.0625 41.71875 63.234375 
Q 38.140625 66.40625 31.78125 66.40625 
Q 25.390625 66.40625 21.84375 63.234375 
Q 18.3125 60.0625 18.3125 54.390625 
z
" id="DejaVuSans-56"/>
       </defs>
       <use xlink:href="#DejaVuSans-48"/>
       <use x="63.623047" xlink:href="#DejaVuSans-46"/>
       <use x="95.410156" xlink:href="#DejaVuSans-56"/>
      </g>
     </g>
    </g>
    <g id="ytick_6">
     <g id="line2d_16">
      <path clip-path="url(#pb7a69014dc)" d="M 100.07 61.56 
L 1216.07 61.56 
" style="fill:none;stroke:#ffffff;stroke-linecap:round;"/>
     </g>
     <g id="line2d_17">
      <g>
       <use style="fill:#262626;stroke:#262626;stroke-width:1.25;" x="100.07" xlink:href="#m90f028a6db" y="61.56"/>
      </g>
     </g>
     <g id="text_12">
      <!-- 1.0 -->
      <g style="fill:#262626;" transform="translate(46.04125 72.197812)scale(0.28 -0.28)">
       <use xlink:href="#DejaVuSans-49"/>
       <use x="63.623047" xlink:href="#DejaVuSans-46"/>
       <use x="95.410156" xlink:href="#DejaVuSans-48"/>
      </g>
     </g>
    </g>
    <g id="text_13">
     <!-- f1 score (n.u.) -->
     <g style="fill:#262626;" transform="translate(34.554375 459.250312)rotate(-90)scale(0.36 -0.36)">
      <defs>
       <path d="M 37.109375 75.984375 
L 37.109375 68.5 
L 28.515625 68.5 
Q 23.6875 68.5 21.796875 66.546875 
Q 19.921875 64.59375 19.921875 59.515625 
L 19.921875 54.6875 
L 34.71875 54.6875 
L 34.71875 47.703125 
L 19.921875 47.703125 
L 19.921875 0 
L 10.890625 0 
L 10.890625 47.703125 
L 2.296875 47.703125 
L 2.296875 54.6875 
L 10.890625 54.6875 
L 10.890625 58.5 
Q 10.890625 67.625 15.140625 71.796875 
Q 19.390625 75.984375 28.609375 75.984375 
z
" id="DejaVuSans-102"/>
       <path d="M 41.109375 46.296875 
Q 39.59375 47.171875 37.8125 47.578125 
Q 36.03125 48 33.890625 48 
Q 26.265625 48 22.1875 43.046875 
Q 18.109375 38.09375 18.109375 28.8125 
L 18.109375 0 
L 9.078125 0 
L 9.078125 54.6875 
L 18.109375 54.6875 
L 18.109375 46.1875 
Q 20.953125 51.171875 25.484375 53.578125 
Q 30.03125 56 36.53125 56 
Q 37.453125 56 38.578125 55.875 
Q 39.703125 55.765625 41.0625 55.515625 
z
" id="DejaVuSans-114"/>
       <path d="M 56.203125 29.59375 
L 56.203125 25.203125 
L 14.890625 25.203125 
Q 15.484375 15.921875 20.484375 11.0625 
Q 25.484375 6.203125 34.421875 6.203125 
Q 39.59375 6.203125 44.453125 7.46875 
Q 49.3125 8.734375 54.109375 11.28125 
L 54.109375 2.78125 
Q 49.265625 0.734375 44.1875 -0.34375 
Q 39.109375 -1.421875 33.890625 -1.421875 
Q 20.796875 -1.421875 13.15625 6.1875 
Q 5.515625 13.8125 5.515625 26.8125 
Q 5.515625 40.234375 12.765625 48.109375 
Q 20.015625 56 32.328125 56 
Q 43.359375 56 49.78125 48.890625 
Q 56.203125 41.796875 56.203125 29.59375 
z
M 47.21875 32.234375 
Q 47.125 39.59375 43.09375 43.984375 
Q 39.0625 48.390625 32.421875 48.390625 
Q 24.90625 48.390625 20.390625 44.140625 
Q 15.875 39.890625 15.1875 32.171875 
z
" id="DejaVuSans-101"/>
      </defs>
      <use xlink:href="#DejaVuSans-102"/>
      <use x="35.205078" xlink:href="#DejaVuSans-49"/>
      <use x="98.828125" xlink:href="#DejaVuSans-32"/>
      <use x="130.615234" xlink:href="#DejaVuSans-115"/>
      <use x="182.714844" xlink:href="#DejaVuSans-99"/>
      <use x="237.695312" xlink:href="#DejaVuSans-111"/>
      <use x="298.876953" xlink:href="#DejaVuSans-114"/>
      <use x="337.740234" xlink:href="#DejaVuSans-101"/>
      <use x="399.263672" xlink:href="#DejaVuSans-32"/>
      <use x="431.050781" xlink:href="#DejaVuSans-40"/>
      <use x="470.064453" xlink:href="#DejaVuSans-110"/>
      <use x="533.443359" xlink:href="#DejaVuSans-46"/>
      <use x="565.230469" xlink:href="#DejaVuSans-117"/>
      <use x="628.609375" xlink:href="#DejaVuSans-46"/>
      <use x="660.396484" xlink:href="#DejaVuSans-41"/>
     </g>
    </g>
   </g>
   <g id="patch_3">
    <path clip-path="url(#pb7a69014dc)" d="M 272.726772 523.62 
L 443.428071 523.62 
L 443.428071 88.74 
L 272.726772 88.74 
z
" style="fill:#c44e52;opacity:0.3;stroke:#4c72b0;stroke-dasharray:3,4.95;stroke-dashoffset:0;stroke-linejoin:miter;stroke-width:3;"/>
   </g>
   <g id="line2d_18">
    <path clip-path="url(#pb7a69014dc)" d="M 150.797273 525.404115 
L 170.305993 506.753371 
L 189.814712 509.26598 
L 209.323432 501.917409 
L 228.832152 499.501266 
L 248.340872 492.023051 
L 267.849592 470.7399 
L 287.358312 457.330608 
L 306.867032 456.394555 
L 326.375751 417.004261 
L 345.884471 303.788765 
L 365.393191 282.916155 
L 384.901911 163.590461 
L 404.410631 127.568425 
L 423.919351 144.533425 
L 443.428071 133.149056 
L 462.93679 120.546958 
L 482.44551 114.862819 
L 501.95423 107.478958 
L 521.46295 97.572885 
L 540.97167 97.599983 
L 560.48039 91.847335 
L 579.989109 84.938798 
L 599.497829 78.460079 
L 619.006549 79.833312 
L 638.515269 86.159842 
L 658.023989 86.972773 
L 677.532709 82.605031 
L 697.041429 83.259954 
L 716.550148 83.191219 
L 736.058868 79.996454 
L 755.567588 77.686881 
L 775.076308 82.447386 
L 794.585028 75.624767 
L 814.093748 78.307139 
L 833.602468 82.732761 
L 853.111187 77.767536 
L 872.619907 76.17116 
L 892.128627 78.923605 
L 911.637347 76.293077 
L 931.146067 80.130643 
L 950.654787 81.765295 
L 970.163506 79.98099 
L 989.672226 80.804937 
L 1009.180946 81.716335 
L 1028.689666 74.235136 
L 1048.198386 75.220538 
L 1067.707106 81.250481 
L 1087.215826 78.334729 
L 1106.724545 77.447061 
L 1126.233265 76.172031 
L 1145.741985 77.719 
L 1165.250705 76.370533 
" style="fill:none;stroke:#4c72b0;stroke-linecap:round;stroke-width:4;"/>
    <defs>
     <path d="M 0 -6 
L -5.706339 -1.854102 
L -3.526712 4.854102 
L 3.526712 4.854102 
L 5.706339 -1.854102 
z
" id="m4d1e3fb670" style="stroke:#4c72b0;stroke-linejoin:miter;"/>
    </defs>
    <g clip-path="url(#pb7a69014dc)">
     <use style="fill:#4c72b0;stroke:#4c72b0;stroke-linejoin:miter;" x="150.797273" xlink:href="#m4d1e3fb670" y="525.404115"/>
     <use style="fill:#4c72b0;stroke:#4c72b0;stroke-linejoin:miter;" x="170.305993" xlink:href="#m4d1e3fb670" y="506.753371"/>
     <use style="fill:#4c72b0;stroke:#4c72b0;stroke-linejoin:miter;" x="189.814712" xlink:href="#m4d1e3fb670" y="509.26598"/>
     <use style="fill:#4c72b0;stroke:#4c72b0;stroke-linejoin:miter;" x="209.323432" xlink:href="#m4d1e3fb670" y="501.917409"/>
     <use style="fill:#4c72b0;stroke:#4c72b0;stroke-linejoin:miter;" x="228.832152" xlink:href="#m4d1e3fb670" y="499.501266"/>
     <use style="fill:#4c72b0;stroke:#4c72b0;stroke-linejoin:miter;" x="248.340872" xlink:href="#m4d1e3fb670" y="492.023051"/>
     <use style="fill:#4c72b0;stroke:#4c72b0;stroke-linejoin:miter;" x="267.849592" xlink:href="#m4d1e3fb670" y="470.7399"/>
     <use style="fill:#4c72b0;stroke:#4c72b0;stroke-linejoin:miter;" x="287.358312" xlink:href="#m4d1e3fb670" y="457.330608"/>
     <use style="fill:#4c72b0;stroke:#4c72b0;stroke-linejoin:miter;" x="306.867032" xlink:href="#m4d1e3fb670" y="456.394555"/>
     <use style="fill:#4c72b0;stroke:#4c72b0;stroke-linejoin:miter;" x="326.375751" xlink:href="#m4d1e3fb670" y="417.004261"/>
     <use style="fill:#4c72b0;stroke:#4c72b0;stroke-linejoin:miter;" x="345.884471" xlink:href="#m4d1e3fb670" y="303.788765"/>
     <use style="fill:#4c72b0;stroke:#4c72b0;stroke-linejoin:miter;" x="365.393191" xlink:href="#m4d1e3fb670" y="282.916155"/>
     <use style="fill:#4c72b0;stroke:#4c72b0;stroke-linejoin:miter;" x="384.901911" xlink:href="#m4d1e3fb670" y="163.590461"/>
     <use style="fill:#4c72b0;stroke:#4c72b0;stroke-linejoin:miter;" x="404.410631" xlink:href="#m4d1e3fb670" y="127.568425"/>
     <use style="fill:#4c72b0;stroke:#4c72b0;stroke-linejoin:miter;" x="423.919351" xlink:href="#m4d1e3fb670" y="144.533425"/>
     <use style="fill:#4c72b0;stroke:#4c72b0;stroke-linejoin:miter;" x="443.428071" xlink:href="#m4d1e3fb670" y="133.149056"/>
     <use style="fill:#4c72b0;stroke:#4c72b0;stroke-linejoin:miter;" x="462.93679" xlink:href="#m4d1e3fb670" y="120.546958"/>
     <use style="fill:#4c72b0;stroke:#4c72b0;stroke-linejoin:miter;" x="482.44551" xlink:href="#m4d1e3fb670" y="114.862819"/>
     <use style="fill:#4c72b0;stroke:#4c72b0;stroke-linejoin:miter;" x="501.95423" xlink:href="#m4d1e3fb670" y="107.478958"/>
     <use style="fill:#4c72b0;stroke:#4c72b0;stroke-linejoin:miter;" x="521.46295" xlink:href="#m4d1e3fb670" y="97.572885"/>
     <use style="fill:#4c72b0;stroke:#4c72b0;stroke-linejoin:miter;" x="540.97167" xlink:href="#m4d1e3fb670" y="97.599983"/>
     <use style="fill:#4c72b0;stroke:#4c72b0;stroke-linejoin:miter;" x="560.48039" xlink:href="#m4d1e3fb670" y="91.847335"/>
     <use style="fill:#4c72b0;stroke:#4c72b0;stroke-linejoin:miter;" x="579.989109" xlink:href="#m4d1e3fb670" y="84.938798"/>
     <use style="fill:#4c72b0;stroke:#4c72b0;stroke-linejoin:miter;" x="599.497829" xlink:href="#m4d1e3fb670" y="78.460079"/>
     <use style="fill:#4c72b0;stroke:#4c72b0;stroke-linejoin:miter;" x="619.006549" xlink:href="#m4d1e3fb670" y="79.833312"/>
     <use style="fill:#4c72b0;stroke:#4c72b0;stroke-linejoin:miter;" x="638.515269" xlink:href="#m4d1e3fb670" y="86.159842"/>
     <use style="fill:#4c72b0;stroke:#4c72b0;stroke-linejoin:miter;" x="658.023989" xlink:href="#m4d1e3fb670" y="86.972773"/>
     <use style="fill:#4c72b0;stroke:#4c72b0;stroke-linejoin:miter;" x="677.532709" xlink:href="#m4d1e3fb670" y="82.605031"/>
     <use style="fill:#4c72b0;stroke:#4c72b0;stroke-linejoin:miter;" x="697.041429" xlink:href="#m4d1e3fb670" y="83.259954"/>
     <use style="fill:#4c72b0;stroke:#4c72b0;stroke-linejoin:miter;" x="716.550148" xlink:href="#m4d1e3fb670" y="83.191219"/>
     <use style="fill:#4c72b0;stroke:#4c72b0;stroke-linejoin:miter;" x="736.058868" xlink:href="#m4d1e3fb670" y="79.996454"/>
     <use style="fill:#4c72b0;stroke:#4c72b0;stroke-linejoin:miter;" x="755.567588" xlink:href="#m4d1e3fb670" y="77.686881"/>
     <use style="fill:#4c72b0;stroke:#4c72b0;stroke-linejoin:miter;" x="775.076308" xlink:href="#m4d1e3fb670" y="82.447386"/>
     <use style="fill:#4c72b0;stroke:#4c72b0;stroke-linejoin:miter;" x="794.585028" xlink:href="#m4d1e3fb670" y="75.624767"/>
     <use style="fill:#4c72b0;stroke:#4c72b0;stroke-linejoin:miter;" x="814.093748" xlink:href="#m4d1e3fb670" y="78.307139"/>
     <use style="fill:#4c72b0;stroke:#4c72b0;stroke-linejoin:miter;" x="833.602468" xlink:href="#m4d1e3fb670" y="82.732761"/>
     <use style="fill:#4c72b0;stroke:#4c72b0;stroke-linejoin:miter;" x="853.111187" xlink:href="#m4d1e3fb670" y="77.767536"/>
     <use style="fill:#4c72b0;stroke:#4c72b0;stroke-linejoin:miter;" x="872.619907" xlink:href="#m4d1e3fb670" y="76.17116"/>
     <use style="fill:#4c72b0;stroke:#4c72b0;stroke-linejoin:miter;" x="892.128627" xlink:href="#m4d1e3fb670" y="78.923605"/>
     <use style="fill:#4c72b0;stroke:#4c72b0;stroke-linejoin:miter;" x="911.637347" xlink:href="#m4d1e3fb670" y="76.293077"/>
     <use style="fill:#4c72b0;stroke:#4c72b0;stroke-linejoin:miter;" x="931.146067" xlink:href="#m4d1e3fb670" y="80.130643"/>
     <use style="fill:#4c72b0;stroke:#4c72b0;stroke-linejoin:miter;" x="950.654787" xlink:href="#m4d1e3fb670" y="81.765295"/>
     <use style="fill:#4c72b0;stroke:#4c72b0;stroke-linejoin:miter;" x="970.163506" xlink:href="#m4d1e3fb670" y="79.98099"/>
     <use style="fill:#4c72b0;stroke:#4c72b0;stroke-linejoin:miter;" x="989.672226" xlink:href="#m4d1e3fb670" y="80.804937"/>
     <use style="fill:#4c72b0;stroke:#4c72b0;stroke-linejoin:miter;" x="1009.180946" xlink:href="#m4d1e3fb670" y="81.716335"/>
     <use style="fill:#4c72b0;stroke:#4c72b0;stroke-linejoin:miter;" x="1028.689666" xlink:href="#m4d1e3fb670" y="74.235136"/>
     <use style="fill:#4c72b0;stroke:#4c72b0;stroke-linejoin:miter;" x="1048.198386" xlink:href="#m4d1e3fb670" y="75.220538"/>
     <use style="fill:#4c72b0;stroke:#4c72b0;stroke-linejoin:miter;" x="1067.707106" xlink:href="#m4d1e3fb670" y="81.250481"/>
     <use style="fill:#4c72b0;stroke:#4c72b0;stroke-linejoin:miter;" x="1087.215826" xlink:href="#m4d1e3fb670" y="78.334729"/>
     <use style="fill:#4c72b0;stroke:#4c72b0;stroke-linejoin:miter;" x="1106.724545" xlink:href="#m4d1e3fb670" y="77.447061"/>
     <use style="fill:#4c72b0;stroke:#4c72b0;stroke-linejoin:miter;" x="1126.233265" xlink:href="#m4d1e3fb670" y="76.172031"/>
     <use style="fill:#4c72b0;stroke:#4c72b0;stroke-linejoin:miter;" x="1145.741985" xlink:href="#m4d1e3fb670" y="77.719"/>
     <use style="fill:#4c72b0;stroke:#4c72b0;stroke-linejoin:miter;" x="1165.250705" xlink:href="#m4d1e3fb670" y="76.370533"/>
    </g>
   </g>
   <g id="line2d_19">
    <path clip-path="url(#pb7a69014dc)" d="M 160.45961 582.34185 
L 199.108961 569.145429 
L 237.758312 535.835758 
L 276.407662 485.004989 
L 315.057013 420.608766 
L 353.706364 347.658392 
L 392.355714 271.830853 
L 431.005065 199.027038 
L 469.654416 134.912527 
L 508.303766 84.476701 
L 546.953117 51.644468 
L 585.602468 38.970828 
L 624.251818 40.505297 
L 662.901169 46.153203 
L 701.550519 55.747573 
L 740.19987 69.151147 
L 778.849221 86.172172 
L 817.498571 106.567143 
L 856.147922 130.044286 
L 894.797273 156.267734 
L 933.446623 184.862331 
L 972.095974 215.418997 
L 1010.745325 247.500585 
L 1049.394675 280.648131 
L 1088.044026 314.387421 
L 1126.693377 348.235776 
L 1165.342727 381.708956 
" style="fill:none;stroke:#55a868;stroke-dasharray:6,9.9;stroke-dashoffset:0;stroke-width:6;"/>
   </g>
   <g id="patch_4">
    <path d="M 100.07 659.52 
L 100.07 7.2 
" style="fill:none;stroke:#ffffff;stroke-linecap:square;stroke-linejoin:miter;stroke-width:1.25;"/>
   </g>
   <g id="patch_5">
    <path d="M 1216.07 659.52 
L 1216.07 7.2 
" style="fill:none;stroke:#ffffff;stroke-linecap:square;stroke-linejoin:miter;stroke-width:1.25;"/>
   </g>
   <g id="patch_6">
    <path d="M 100.07 659.52 
L 1216.07 659.52 
" style="fill:none;stroke:#ffffff;stroke-linecap:square;stroke-linejoin:miter;stroke-width:1.25;"/>
   </g>
   <g id="patch_7">
    <path d="M 100.07 7.2 
L 1216.07 7.2 
" style="fill:none;stroke:#ffffff;stroke-linecap:square;stroke-linejoin:miter;stroke-width:1.25;"/>
   </g>
   <g id="text_14">
    <!-- max lr = 0.02 -->
    <g style="fill:#262626;" transform="translate(687.287069 45.252)scale(0.3 -0.3)">
     <defs>
      <path d="M 52 44.1875 
Q 55.375 50.25 60.0625 53.125 
Q 64.75 56 71.09375 56 
Q 79.640625 56 84.28125 50.015625 
Q 88.921875 44.046875 88.921875 33.015625 
L 88.921875 0 
L 79.890625 0 
L 79.890625 32.71875 
Q 79.890625 40.578125 77.09375 44.375 
Q 74.3125 48.1875 68.609375 48.1875 
Q 61.625 48.1875 57.5625 43.546875 
Q 53.515625 38.921875 53.515625 30.90625 
L 53.515625 0 
L 44.484375 0 
L 44.484375 32.71875 
Q 44.484375 40.625 41.703125 44.40625 
Q 38.921875 48.1875 33.109375 48.1875 
Q 26.21875 48.1875 22.15625 43.53125 
Q 18.109375 38.875 18.109375 30.90625 
L 18.109375 0 
L 9.078125 0 
L 9.078125 54.6875 
L 18.109375 54.6875 
L 18.109375 46.1875 
Q 21.1875 51.21875 25.484375 53.609375 
Q 29.78125 56 35.6875 56 
Q 41.65625 56 45.828125 52.96875 
Q 50 49.953125 52 44.1875 
z
" id="DejaVuSans-109"/>
      <path d="M 34.28125 27.484375 
Q 23.390625 27.484375 19.1875 25 
Q 14.984375 22.515625 14.984375 16.5 
Q 14.984375 11.71875 18.140625 8.90625 
Q 21.296875 6.109375 26.703125 6.109375 
Q 34.1875 6.109375 38.703125 11.40625 
Q 43.21875 16.703125 43.21875 25.484375 
L 43.21875 27.484375 
z
M 52.203125 31.203125 
L 52.203125 0 
L 43.21875 0 
L 43.21875 8.296875 
Q 40.140625 3.328125 35.546875 0.953125 
Q 30.953125 -1.421875 24.3125 -1.421875 
Q 15.921875 -1.421875 10.953125 3.296875 
Q 6 8.015625 6 15.921875 
Q 6 25.140625 12.171875 29.828125 
Q 18.359375 34.515625 30.609375 34.515625 
L 43.21875 34.515625 
L 43.21875 35.40625 
Q 43.21875 41.609375 39.140625 45 
Q 35.0625 48.390625 27.6875 48.390625 
Q 23 48.390625 18.546875 47.265625 
Q 14.109375 46.140625 10.015625 43.890625 
L 10.015625 52.203125 
Q 14.9375 54.109375 19.578125 55.046875 
Q 24.21875 56 28.609375 56 
Q 40.484375 56 46.34375 49.84375 
Q 52.203125 43.703125 52.203125 31.203125 
z
" id="DejaVuSans-97"/>
      <path d="M 54.890625 54.6875 
L 35.109375 28.078125 
L 55.90625 0 
L 45.3125 0 
L 29.390625 21.484375 
L 13.484375 0 
L 2.875 0 
L 24.125 28.609375 
L 4.6875 54.6875 
L 15.28125 54.6875 
L 29.78125 35.203125 
L 44.28125 54.6875 
z
" id="DejaVuSans-120"/>
      <path d="M 9.421875 75.984375 
L 18.40625 75.984375 
L 18.40625 0 
L 9.421875 0 
z
" id="DejaVuSans-108"/>
      <path d="M 10.59375 45.40625 
L 73.1875 45.40625 
L 73.1875 37.203125 
L 10.59375 37.203125 
z
M 10.59375 25.484375 
L 73.1875 25.484375 
L 73.1875 17.1875 
L 10.59375 17.1875 
z
" id="DejaVuSans-61"/>
     </defs>
     <use xlink:href="#DejaVuSans-109"/>
     <use x="97.412109" xlink:href="#DejaVuSans-97"/>
     <use x="158.691406" xlink:href="#DejaVuSans-120"/>
     <use x="217.871094" xlink:href="#DejaVuSans-32"/>
     <use x="249.658203" xlink:href="#DejaVuSans-108"/>
     <use x="277.441406" xlink:href="#DejaVuSans-114"/>
     <use x="318.554688" xlink:href="#DejaVuSans-32"/>
     <use x="350.341797" xlink:href="#DejaVuSans-61"/>
     <use x="434.130859" xlink:href="#DejaVuSans-32"/>
     <use x="465.917969" xlink:href="#DejaVuSans-48"/>
     <use x="529.541016" xlink:href="#DejaVuSans-46"/>
     <use x="561.328125" xlink:href="#DejaVuSans-48"/>
     <use x="624.951172" xlink:href="#DejaVuSans-50"/>
    </g>
   </g>
   <g id="text_15">
    <!-- start lr = 0.00008 -->
    <g style="fill:#262626;" transform="translate(150.797273 632.34)scale(0.3 -0.3)">
     <defs>
      <path d="M 18.3125 70.21875 
L 18.3125 54.6875 
L 36.8125 54.6875 
L 36.8125 47.703125 
L 18.3125 47.703125 
L 18.3125 18.015625 
Q 18.3125 11.328125 20.140625 9.421875 
Q 21.96875 7.515625 27.59375 7.515625 
L 36.8125 7.515625 
L 36.8125 0 
L 27.59375 0 
Q 17.1875 0 13.234375 3.875 
Q 9.28125 7.765625 9.28125 18.015625 
L 9.28125 47.703125 
L 2.6875 47.703125 
L 2.6875 54.6875 
L 9.28125 54.6875 
L 9.28125 70.21875 
z
" id="DejaVuSans-116"/>
     </defs>
     <use xlink:href="#DejaVuSans-115"/>
     <use x="52.099609" xlink:href="#DejaVuSans-116"/>
     <use x="91.308594" xlink:href="#DejaVuSans-97"/>
     <use x="152.587891" xlink:href="#DejaVuSans-114"/>
     <use x="193.701172" xlink:href="#DejaVuSans-116"/>
     <use x="232.910156" xlink:href="#DejaVuSans-32"/>
     <use x="264.697266" xlink:href="#DejaVuSans-108"/>
     <use x="292.480469" xlink:href="#DejaVuSans-114"/>
     <use x="333.59375" xlink:href="#DejaVuSans-32"/>
     <use x="365.380859" xlink:href="#DejaVuSans-61"/>
     <use x="449.169922" xlink:href="#DejaVuSans-32"/>
     <use x="480.957031" xlink:href="#DejaVuSans-48"/>
     <use x="544.580078" xlink:href="#DejaVuSans-46"/>
     <use x="576.367188" xlink:href="#DejaVuSans-48"/>
     <use x="639.990234" xlink:href="#DejaVuSans-48"/>
     <use x="703.613281" xlink:href="#DejaVuSans-48"/>
     <use x="767.236328" xlink:href="#DejaVuSans-48"/>
     <use x="830.859375" xlink:href="#DejaVuSans-56"/>
    </g>
   </g>
   <g id="legend_1">
    <g id="patch_8">
     <path d="M 866.902812 507.5328 
L 1139.27 507.5328 
Q 1145.27 507.5328 1145.27 501.5328 
L 1145.27 416.46405 
Q 1145.27 410.46405 1139.27 410.46405 
L 866.902812 410.46405 
Q 860.902812 410.46405 860.902812 416.46405 
L 860.902812 501.5328 
Q 860.902812 507.5328 866.902812 507.5328 
z
" style="fill:#eaeaf2;opacity:0.8;stroke:#cccccc;stroke-linejoin:miter;"/>
    </g>
    <g id="line2d_20">
     <path d="M 872.902812 434.759362 
L 932.902812 434.759362 
" style="fill:none;stroke:#4c72b0;stroke-linecap:round;stroke-width:4;"/>
    </g>
    <g id="line2d_21">
     <g>
      <use style="fill:#4c72b0;stroke:#4c72b0;stroke-linejoin:miter;" x="902.902812" xlink:href="#m4d1e3fb670" y="434.759362"/>
     </g>
    </g>
    <g id="text_16">
     <!-- val-f1-score -->
     <g style="fill:#262626;" transform="translate(956.902812 445.259362)scale(0.3 -0.3)">
      <defs>
       <path d="M 2.984375 54.6875 
L 12.5 54.6875 
L 29.59375 8.796875 
L 46.6875 54.6875 
L 56.203125 54.6875 
L 35.6875 0 
L 23.484375 0 
z
" id="DejaVuSans-118"/>
       <path d="M 4.890625 31.390625 
L 31.203125 31.390625 
L 31.203125 23.390625 
L 4.890625 23.390625 
z
" id="DejaVuSans-45"/>
      </defs>
      <use xlink:href="#DejaVuSans-118"/>
      <use x="59.179688" xlink:href="#DejaVuSans-97"/>
      <use x="120.458984" xlink:href="#DejaVuSans-108"/>
      <use x="148.242188" xlink:href="#DejaVuSans-45"/>
      <use x="184.326172" xlink:href="#DejaVuSans-102"/>
      <use x="219.53125" xlink:href="#DejaVuSans-49"/>
      <use x="283.154297" xlink:href="#DejaVuSans-45"/>
      <use x="319.238281" xlink:href="#DejaVuSans-115"/>
      <use x="371.337891" xlink:href="#DejaVuSans-99"/>
      <use x="426.318359" xlink:href="#DejaVuSans-111"/>
      <use x="487.5" xlink:href="#DejaVuSans-114"/>
      <use x="526.363281" xlink:href="#DejaVuSans-101"/>
     </g>
    </g>
    <g id="line2d_22">
     <path d="M 872.902812 478.793737 
L 932.902812 478.793737 
" style="fill:none;stroke:#dd8452;stroke-linecap:round;stroke-width:4;"/>
    </g>
    <g id="line2d_23">
     <defs>
      <path d="M -0 6 
L 6 -6 
L -6 -6 
z
" id="m618cb058b4" style="stroke:#dd8452;stroke-linejoin:miter;"/>
     </defs>
     <g>
      <use style="fill:#dd8452;stroke:#dd8452;stroke-linejoin:miter;" x="902.902812" xlink:href="#m618cb058b4" y="478.793737"/>
     </g>
    </g>
    <g id="text_17">
     <!-- train-loss -->
     <g style="fill:#262626;" transform="translate(956.902812 489.293737)scale(0.3 -0.3)">
      <defs>
       <path d="M 9.421875 54.6875 
L 18.40625 54.6875 
L 18.40625 0 
L 9.421875 0 
z
M 9.421875 75.984375 
L 18.40625 75.984375 
L 18.40625 64.59375 
L 9.421875 64.59375 
z
" id="DejaVuSans-105"/>
      </defs>
      <use xlink:href="#DejaVuSans-116"/>
      <use x="39.208984" xlink:href="#DejaVuSans-114"/>
      <use x="80.322266" xlink:href="#DejaVuSans-97"/>
      <use x="141.601562" xlink:href="#DejaVuSans-105"/>
      <use x="169.384766" xlink:href="#DejaVuSans-110"/>
      <use x="232.763672" xlink:href="#DejaVuSans-45"/>
      <use x="268.847656" xlink:href="#DejaVuSans-108"/>
      <use x="296.630859" xlink:href="#DejaVuSans-111"/>
      <use x="357.8125" xlink:href="#DejaVuSans-115"/>
      <use x="409.912109" xlink:href="#DejaVuSans-115"/>
     </g>
    </g>
   </g>
  </g>
  <g id="axes_2">
   <g id="matplotlib.axis_3">
    <g id="ytick_7">
     <g id="line2d_24">
      <path clip-path="url(#pb7a69014dc)" d="M 100.07 605.16 
L 1216.07 605.16 
" style="fill:none;stroke:#ffffff;stroke-linecap:round;"/>
     </g>
     <g id="line2d_25">
      <defs>
       <path d="M 0 0 
L 6 0 
" id="me8b776a71d" style="stroke:#262626;stroke-width:1.25;"/>
      </defs>
      <g>
       <use style="fill:#262626;stroke:#262626;stroke-width:1.25;" x="1216.07" xlink:href="#me8b776a71d" y="605.16"/>
      </g>
     </g>
     <g id="text_18">
      <!-- 0.00 -->
      <g style="fill:#262626;" transform="translate(1225.57 615.797812)scale(0.28 -0.28)">
       <use xlink:href="#DejaVuSans-48"/>
       <use x="63.623047" xlink:href="#DejaVuSans-46"/>
       <use x="95.410156" xlink:href="#DejaVuSans-48"/>
       <use x="159.033203" xlink:href="#DejaVuSans-48"/>
      </g>
     </g>
    </g>
    <g id="ytick_8">
     <g id="line2d_26">
      <path clip-path="url(#pb7a69014dc)" d="M 100.07 496.44 
L 1216.07 496.44 
" style="fill:none;stroke:#ffffff;stroke-linecap:round;"/>
     </g>
     <g id="line2d_27">
      <g>
       <use style="fill:#262626;stroke:#262626;stroke-width:1.25;" x="1216.07" xlink:href="#me8b776a71d" y="496.44"/>
      </g>
     </g>
     <g id="text_19">
      <!-- 0.06 -->
      <g style="fill:#262626;" transform="translate(1225.57 507.077812)scale(0.28 -0.28)">
       <use xlink:href="#DejaVuSans-48"/>
       <use x="63.623047" xlink:href="#DejaVuSans-46"/>
       <use x="95.410156" xlink:href="#DejaVuSans-48"/>
       <use x="159.033203" xlink:href="#DejaVuSans-54"/>
      </g>
     </g>
    </g>
    <g id="ytick_9">
     <g id="line2d_28">
      <path clip-path="url(#pb7a69014dc)" d="M 100.07 387.72 
L 1216.07 387.72 
" style="fill:none;stroke:#ffffff;stroke-linecap:round;"/>
     </g>
     <g id="line2d_29">
      <g>
       <use style="fill:#262626;stroke:#262626;stroke-width:1.25;" x="1216.07" xlink:href="#me8b776a71d" y="387.72"/>
      </g>
     </g>
     <g id="text_20">
      <!-- 0.12 -->
      <g style="fill:#262626;" transform="translate(1225.57 398.357812)scale(0.28 -0.28)">
       <use xlink:href="#DejaVuSans-48"/>
       <use x="63.623047" xlink:href="#DejaVuSans-46"/>
       <use x="95.410156" xlink:href="#DejaVuSans-49"/>
       <use x="159.033203" xlink:href="#DejaVuSans-50"/>
      </g>
     </g>
    </g>
    <g id="ytick_10">
     <g id="line2d_30">
      <path clip-path="url(#pb7a69014dc)" d="M 100.07 279 
L 1216.07 279 
" style="fill:none;stroke:#ffffff;stroke-linecap:round;"/>
     </g>
     <g id="line2d_31">
      <g>
       <use style="fill:#262626;stroke:#262626;stroke-width:1.25;" x="1216.07" xlink:href="#me8b776a71d" y="279"/>
      </g>
     </g>
     <g id="text_21">
      <!-- 0.18 -->
      <g style="fill:#262626;" transform="translate(1225.57 289.637812)scale(0.28 -0.28)">
       <use xlink:href="#DejaVuSans-48"/>
       <use x="63.623047" xlink:href="#DejaVuSans-46"/>
       <use x="95.410156" xlink:href="#DejaVuSans-49"/>
       <use x="159.033203" xlink:href="#DejaVuSans-56"/>
      </g>
     </g>
    </g>
    <g id="ytick_11">
     <g id="line2d_32">
      <path clip-path="url(#pb7a69014dc)" d="M 100.07 170.28 
L 1216.07 170.28 
" style="fill:none;stroke:#ffffff;stroke-linecap:round;"/>
     </g>
     <g id="line2d_33">
      <g>
       <use style="fill:#262626;stroke:#262626;stroke-width:1.25;" x="1216.07" xlink:href="#me8b776a71d" y="170.28"/>
      </g>
     </g>
     <g id="text_22">
      <!-- 0.24 -->
      <g style="fill:#262626;" transform="translate(1225.57 180.917812)scale(0.28 -0.28)">
       <use xlink:href="#DejaVuSans-48"/>
       <use x="63.623047" xlink:href="#DejaVuSans-46"/>
       <use x="95.410156" xlink:href="#DejaVuSans-50"/>
       <use x="159.033203" xlink:href="#DejaVuSans-52"/>
      </g>
     </g>
    </g>
    <g id="ytick_12">
     <g id="line2d_34">
      <path clip-path="url(#pb7a69014dc)" d="M 100.07 61.56 
L 1216.07 61.56 
" style="fill:none;stroke:#ffffff;stroke-linecap:round;"/>
     </g>
     <g id="line2d_35">
      <g>
       <use style="fill:#262626;stroke:#262626;stroke-width:1.25;" x="1216.07" xlink:href="#me8b776a71d" y="61.56"/>
      </g>
     </g>
     <g id="text_23">
      <!-- 0.30 -->
      <g style="fill:#262626;" transform="translate(1225.57 72.197812)scale(0.28 -0.28)">
       <defs>
        <path d="M 40.578125 39.3125 
Q 47.65625 37.796875 51.625 33 
Q 55.609375 28.21875 55.609375 21.1875 
Q 55.609375 10.40625 48.1875 4.484375 
Q 40.765625 -1.421875 27.09375 -1.421875 
Q 22.515625 -1.421875 17.65625 -0.515625 
Q 12.796875 0.390625 7.625 2.203125 
L 7.625 11.71875 
Q 11.71875 9.328125 16.59375 8.109375 
Q 21.484375 6.890625 26.8125 6.890625 
Q 36.078125 6.890625 40.9375 10.546875 
Q 45.796875 14.203125 45.796875 21.1875 
Q 45.796875 27.640625 41.28125 31.265625 
Q 36.765625 34.90625 28.71875 34.90625 
L 20.21875 34.90625 
L 20.21875 43.015625 
L 29.109375 43.015625 
Q 36.375 43.015625 40.234375 45.921875 
Q 44.09375 48.828125 44.09375 54.296875 
Q 44.09375 59.90625 40.109375 62.90625 
Q 36.140625 65.921875 28.71875 65.921875 
Q 24.65625 65.921875 20.015625 65.03125 
Q 15.375 64.15625 9.8125 62.3125 
L 9.8125 71.09375 
Q 15.4375 72.65625 20.34375 73.4375 
Q 25.25 74.21875 29.59375 74.21875 
Q 40.828125 74.21875 47.359375 69.109375 
Q 53.90625 64.015625 53.90625 55.328125 
Q 53.90625 49.265625 50.4375 45.09375 
Q 46.96875 40.921875 40.578125 39.3125 
z
" id="DejaVuSans-51"/>
       </defs>
       <use xlink:href="#DejaVuSans-48"/>
       <use x="63.623047" xlink:href="#DejaVuSans-46"/>
       <use x="95.410156" xlink:href="#DejaVuSans-51"/>
       <use x="159.033203" xlink:href="#DejaVuSans-48"/>
      </g>
     </g>
    </g>
    <g id="text_24">
     <!-- Loss (n.u.) -->
     <g style="fill:#262626;" transform="translate(1319.268125 426.864375)rotate(-90)scale(0.36 -0.36)">
      <defs>
       <path d="M 9.8125 72.90625 
L 19.671875 72.90625 
L 19.671875 8.296875 
L 55.171875 8.296875 
L 55.171875 0 
L 9.8125 0 
z
" id="DejaVuSans-76"/>
      </defs>
      <use xlink:href="#DejaVuSans-76"/>
      <use x="53.962891" xlink:href="#DejaVuSans-111"/>
      <use x="115.144531" xlink:href="#DejaVuSans-115"/>
      <use x="167.244141" xlink:href="#DejaVuSans-115"/>
      <use x="219.34375" xlink:href="#DejaVuSans-32"/>
      <use x="251.130859" xlink:href="#DejaVuSans-40"/>
      <use x="290.144531" xlink:href="#DejaVuSans-110"/>
      <use x="353.523438" xlink:href="#DejaVuSans-46"/>
      <use x="385.310547" xlink:href="#DejaVuSans-117"/>
      <use x="448.689453" xlink:href="#DejaVuSans-46"/>
      <use x="480.476562" xlink:href="#DejaVuSans-41"/>
     </g>
    </g>
   </g>
   <g id="line2d_36">
    <path clip-path="url(#pb7a69014dc)" d="M 150.797273 120.417629 
L 189.814712 251.568365 
L 228.832152 294.985953 
L 267.849592 327.646058 
L 306.867032 347.754954 
L 345.884471 380.534997 
L 384.901911 441.580585 
L 423.919351 467.241151 
L 462.93679 483.641473 
L 501.95423 493.8935 
L 540.97167 509.906582 
L 579.989109 514.459947 
L 619.006549 519.876153 
L 658.023989 531.264202 
L 697.041429 532.469908 
L 736.058868 535.939139 
L 775.076308 540.458922 
L 814.093748 545.450525 
L 853.111187 544.899713 
L 892.128627 552.662871 
L 931.146067 552.263798 
L 970.163506 554.646202 
L 1009.180946 555.993659 
L 1048.198386 558.611643 
L 1087.215826 558.991664 
L 1126.233265 562.397396 
L 1165.250705 563.934999 
" style="fill:none;stroke:#dd8452;stroke-linecap:round;stroke-width:4;"/>
    <g clip-path="url(#pb7a69014dc)">
     <use style="fill:#dd8452;stroke:#dd8452;stroke-linejoin:miter;" x="150.797273" xlink:href="#m618cb058b4" y="120.417629"/>
     <use style="fill:#dd8452;stroke:#dd8452;stroke-linejoin:miter;" x="189.814712" xlink:href="#m618cb058b4" y="251.568365"/>
     <use style="fill:#dd8452;stroke:#dd8452;stroke-linejoin:miter;" x="228.832152" xlink:href="#m618cb058b4" y="294.985953"/>
     <use style="fill:#dd8452;stroke:#dd8452;stroke-linejoin:miter;" x="267.849592" xlink:href="#m618cb058b4" y="327.646058"/>
     <use style="fill:#dd8452;stroke:#dd8452;stroke-linejoin:miter;" x="306.867032" xlink:href="#m618cb058b4" y="347.754954"/>
     <use style="fill:#dd8452;stroke:#dd8452;stroke-linejoin:miter;" x="345.884471" xlink:href="#m618cb058b4" y="380.534997"/>
     <use style="fill:#dd8452;stroke:#dd8452;stroke-linejoin:miter;" x="384.901911" xlink:href="#m618cb058b4" y="441.580585"/>
     <use style="fill:#dd8452;stroke:#dd8452;stroke-linejoin:miter;" x="423.919351" xlink:href="#m618cb058b4" y="467.241151"/>
     <use style="fill:#dd8452;stroke:#dd8452;stroke-linejoin:miter;" x="462.93679" xlink:href="#m618cb058b4" y="483.641473"/>
     <use style="fill:#dd8452;stroke:#dd8452;stroke-linejoin:miter;" x="501.95423" xlink:href="#m618cb058b4" y="493.8935"/>
     <use style="fill:#dd8452;stroke:#dd8452;stroke-linejoin:miter;" x="540.97167" xlink:href="#m618cb058b4" y="509.906582"/>
     <use style="fill:#dd8452;stroke:#dd8452;stroke-linejoin:miter;" x="579.989109" xlink:href="#m618cb058b4" y="514.459947"/>
     <use style="fill:#dd8452;stroke:#dd8452;stroke-linejoin:miter;" x="619.006549" xlink:href="#m618cb058b4" y="519.876153"/>
     <use style="fill:#dd8452;stroke:#dd8452;stroke-linejoin:miter;" x="658.023989" xlink:href="#m618cb058b4" y="531.264202"/>
     <use style="fill:#dd8452;stroke:#dd8452;stroke-linejoin:miter;" x="697.041429" xlink:href="#m618cb058b4" y="532.469908"/>
     <use style="fill:#dd8452;stroke:#dd8452;stroke-linejoin:miter;" x="736.058868" xlink:href="#m618cb058b4" y="535.939139"/>
     <use style="fill:#dd8452;stroke:#dd8452;stroke-linejoin:miter;" x="775.076308" xlink:href="#m618cb058b4" y="540.458922"/>
     <use style="fill:#dd8452;stroke:#dd8452;stroke-linejoin:miter;" x="814.093748" xlink:href="#m618cb058b4" y="545.450525"/>
     <use style="fill:#dd8452;stroke:#dd8452;stroke-linejoin:miter;" x="853.111187" xlink:href="#m618cb058b4" y="544.899713"/>
     <use style="fill:#dd8452;stroke:#dd8452;stroke-linejoin:miter;" x="892.128627" xlink:href="#m618cb058b4" y="552.662871"/>
     <use style="fill:#dd8452;stroke:#dd8452;stroke-linejoin:miter;" x="931.146067" xlink:href="#m618cb058b4" y="552.263798"/>
     <use style="fill:#dd8452;stroke:#dd8452;stroke-linejoin:miter;" x="970.163506" xlink:href="#m618cb058b4" y="554.646202"/>
     <use style="fill:#dd8452;stroke:#dd8452;stroke-linejoin:miter;" x="1009.180946" xlink:href="#m618cb058b4" y="555.993659"/>
     <use style="fill:#dd8452;stroke:#dd8452;stroke-linejoin:miter;" x="1048.198386" xlink:href="#m618cb058b4" y="558.611643"/>
     <use style="fill:#dd8452;stroke:#dd8452;stroke-linejoin:miter;" x="1087.215826" xlink:href="#m618cb058b4" y="558.991664"/>
     <use style="fill:#dd8452;stroke:#dd8452;stroke-linejoin:miter;" x="1126.233265" xlink:href="#m618cb058b4" y="562.397396"/>
     <use style="fill:#dd8452;stroke:#dd8452;stroke-linejoin:miter;" x="1165.250705" xlink:href="#m618cb058b4" y="563.934999"/>
    </g>
   </g>
   <g id="patch_9">
    <path d="M 100.07 659.52 
L 100.07 7.2 
" style="fill:none;stroke:#ffffff;stroke-linecap:square;stroke-linejoin:miter;stroke-width:1.25;"/>
   </g>
   <g id="patch_10">
    <path d="M 1216.07 659.52 
L 1216.07 7.2 
" style="fill:none;stroke:#ffffff;stroke-linecap:square;stroke-linejoin:miter;stroke-width:1.25;"/>
   </g>
   <g id="patch_11">
    <path d="M 100.07 659.52 
L 1216.07 659.52 
" style="fill:none;stroke:#ffffff;stroke-linecap:square;stroke-linejoin:miter;stroke-width:1.25;"/>
   </g>
   <g id="patch_12">
    <path d="M 100.07 7.2 
L 1216.07 7.2 
" style="fill:none;stroke:#ffffff;stroke-linecap:square;stroke-linejoin:miter;stroke-width:1.25;"/>
   </g>
   <g id="legend_2">
    <g id="patch_13">
     <path d="M 121.07 75.234375 
L 409.9325 75.234375 
Q 415.9325 75.234375 415.9325 69.234375 
L 415.9325 28.2 
Q 415.9325 22.2 409.9325 22.2 
L 121.07 22.2 
Q 115.07 22.2 115.07 28.2 
L 115.07 69.234375 
Q 115.07 75.234375 121.07 75.234375 
z
" style="fill:#eaeaf2;opacity:0.8;stroke:#cccccc;stroke-linejoin:miter;"/>
    </g>
    <g id="line2d_37">
     <path d="M 127.07 46.495312 
L 187.07 46.495312 
" style="fill:none;stroke:#55a868;stroke-dasharray:6,9.9;stroke-dashoffset:0;stroke-width:6;"/>
    </g>
    <g id="line2d_38"/>
    <g id="text_25">
     <!-- learning rate -->
     <g style="fill:#262626;" transform="translate(211.07 56.995312)scale(0.3 -0.3)">
      <defs>
       <path d="M 45.40625 27.984375 
Q 45.40625 37.75 41.375 43.109375 
Q 37.359375 48.484375 30.078125 48.484375 
Q 22.859375 48.484375 18.828125 43.109375 
Q 14.796875 37.75 14.796875 27.984375 
Q 14.796875 18.265625 18.828125 12.890625 
Q 22.859375 7.515625 30.078125 7.515625 
Q 37.359375 7.515625 41.375 12.890625 
Q 45.40625 18.265625 45.40625 27.984375 
z
M 54.390625 6.78125 
Q 54.390625 -7.171875 48.1875 -13.984375 
Q 42 -20.796875 29.203125 -20.796875 
Q 24.46875 -20.796875 20.265625 -20.09375 
Q 16.0625 -19.390625 12.109375 -17.921875 
L 12.109375 -9.1875 
Q 16.0625 -11.328125 19.921875 -12.34375 
Q 23.78125 -13.375 27.78125 -13.375 
Q 36.625 -13.375 41.015625 -8.765625 
Q 45.40625 -4.15625 45.40625 5.171875 
L 45.40625 9.625 
Q 42.625 4.78125 38.28125 2.390625 
Q 33.9375 0 27.875 0 
Q 17.828125 0 11.671875 7.65625 
Q 5.515625 15.328125 5.515625 27.984375 
Q 5.515625 40.671875 11.671875 48.328125 
Q 17.828125 56 27.875 56 
Q 33.9375 56 38.28125 53.609375 
Q 42.625 51.21875 45.40625 46.390625 
L 45.40625 54.6875 
L 54.390625 54.6875 
z
" id="DejaVuSans-103"/>
      </defs>
      <use xlink:href="#DejaVuSans-108"/>
      <use x="27.783203" xlink:href="#DejaVuSans-101"/>
      <use x="89.306641" xlink:href="#DejaVuSans-97"/>
      <use x="150.585938" xlink:href="#DejaVuSans-114"/>
      <use x="189.949219" xlink:href="#DejaVuSans-110"/>
      <use x="253.328125" xlink:href="#DejaVuSans-105"/>
      <use x="281.111328" xlink:href="#DejaVuSans-110"/>
      <use x="344.490234" xlink:href="#DejaVuSans-103"/>
      <use x="407.966797" xlink:href="#DejaVuSans-32"/>
      <use x="439.753906" xlink:href="#DejaVuSans-114"/>
      <use x="480.867188" xlink:href="#DejaVuSans-97"/>
      <use x="542.146484" xlink:href="#DejaVuSans-116"/>
      <use x="581.355469" xlink:href="#DejaVuSans-101"/>
     </g>
    </g>
   </g>
  </g>
 </g>
 <defs>
  <clipPath id="pb7a69014dc">
   <rect height="652.32" width="1116" x="100.07" y="7.2"/>
  </clipPath>
 </defs>
</svg>
