<?xml version="1.0" encoding="utf-8" standalone="no"?>
<!DOCTYPE svg PUBLIC "-//W3C//DTD SVG 1.1//EN"
  "http://www.w3.org/Graphics/SVG/1.1/DTD/svg11.dtd">
<!-- Created with matplotlib (https://matplotlib.org/) -->
<svg height="959.6pt" version="1.1" viewBox="0 0 1549.29875 959.6" width="1549.29875pt" xmlns="http://www.w3.org/2000/svg" xmlns:xlink="http://www.w3.org/1999/xlink">
 <metadata>
  <rdf:RDF xmlns:cc="http://creativecommons.org/ns#" xmlns:dc="http://purl.org/dc/elements/1.1/" xmlns:rdf="http://www.w3.org/1999/02/22-rdf-syntax-ns#">
   <cc:Work>
    <dc:type rdf:resource="http://purl.org/dc/dcmitype/StillImage"/>
    <dc:date>2022-07-27T01:18:59.404519</dc:date>
    <dc:format>image/svg+xml</dc:format>
    <dc:creator>
     <cc:Agent>
      <dc:title>Matplotlib v3.3.4, https://matplotlib.org/</dc:title>
     </cc:Agent>
    </dc:creator>
   </cc:Work>
  </rdf:RDF>
 </metadata>
 <defs>
  <style type="text/css">*{stroke-linecap:butt;stroke-linejoin:round;}</style>
 </defs>
 <g id="figure_1">
  <g id="patch_1">
   <path d="M 0 959.6 
L 1549.29875 959.6 
L 1549.29875 0 
L 0 0 
z
" style="fill:#ffffff;"/>
  </g>
  <g id="axes_1">
   <g id="patch_2">
    <path d="M 100.07 876.96 
L 1439.27 876.96 
L 1439.27 7.2 
L 100.07 7.2 
z
" style="fill:#eaeaf2;"/>
   </g>
   <g id="matplotlib.axis_1">
    <g id="xtick_1">
     <g id="line2d_1">
      <path clip-path="url(#p09acdf1e24)" d="M 160.942727 876.96 
L 160.942727 7.2 
" style="fill:none;stroke:#ffffff;stroke-linecap:round;"/>
     </g>
     <g id="text_1">
      <!-- 0 -->
      <g style="fill:#262626;" transform="translate(152.035227 907.735625)scale(0.28 -0.28)">
       <defs>
        <path d="M 31.78125 66.40625 
Q 24.171875 66.40625 20.328125 58.90625 
Q 16.5 51.421875 16.5 36.375 
Q 16.5 21.390625 20.328125 13.890625 
Q 24.171875 6.390625 31.78125 6.390625 
Q 39.453125 6.390625 43.28125 13.890625 
Q 47.125 21.390625 47.125 36.375 
Q 47.125 51.421875 43.28125 58.90625 
Q 39.453125 66.40625 31.78125 66.40625 
z
M 31.78125 74.21875 
Q 44.046875 74.21875 50.515625 64.515625 
Q 56.984375 54.828125 56.984375 36.375 
Q 56.984375 17.96875 50.515625 8.265625 
Q 44.046875 -1.421875 31.78125 -1.421875 
Q 19.53125 -1.421875 13.0625 8.265625 
Q 6.59375 17.96875 6.59375 36.375 
Q 6.59375 54.828125 13.0625 64.515625 
Q 19.53125 74.21875 31.78125 74.21875 
z
" id="DejaVuSans-48"/>
       </defs>
       <use xlink:href="#DejaVuSans-48"/>
      </g>
     </g>
    </g>
    <g id="xtick_2">
     <g id="line2d_2">
      <path clip-path="url(#p09acdf1e24)" d="M 404.433636 876.96 
L 404.433636 7.2 
" style="fill:none;stroke:#ffffff;stroke-linecap:round;"/>
     </g>
     <g id="text_2">
      <!-- 20 -->
      <g style="fill:#262626;" transform="translate(386.618636 907.735625)scale(0.28 -0.28)">
       <defs>
        <path d="M 19.1875 8.296875 
L 53.609375 8.296875 
L 53.609375 0 
L 7.328125 0 
L 7.328125 8.296875 
Q 12.9375 14.109375 22.625 23.890625 
Q 32.328125 33.6875 34.8125 36.53125 
Q 39.546875 41.84375 41.421875 45.53125 
Q 43.3125 49.21875 43.3125 52.78125 
Q 43.3125 58.59375 39.234375 62.25 
Q 35.15625 65.921875 28.609375 65.921875 
Q 23.96875 65.921875 18.8125 64.3125 
Q 13.671875 62.703125 7.8125 59.421875 
L 7.8125 69.390625 
Q 13.765625 71.78125 18.9375 73 
Q 24.125 74.21875 28.421875 74.21875 
Q 39.75 74.21875 46.484375 68.546875 
Q 53.21875 62.890625 53.21875 53.421875 
Q 53.21875 48.921875 51.53125 44.890625 
Q 49.859375 40.875 45.40625 35.40625 
Q 44.1875 33.984375 37.640625 27.21875 
Q 31.109375 20.453125 19.1875 8.296875 
z
" id="DejaVuSans-50"/>
       </defs>
       <use xlink:href="#DejaVuSans-50"/>
       <use x="63.623047" xlink:href="#DejaVuSans-48"/>
      </g>
     </g>
    </g>
    <g id="xtick_3">
     <g id="line2d_3">
      <path clip-path="url(#p09acdf1e24)" d="M 647.924545 876.96 
L 647.924545 7.2 
" style="fill:none;stroke:#ffffff;stroke-linecap:round;"/>
     </g>
     <g id="text_3">
      <!-- 40 -->
      <g style="fill:#262626;" transform="translate(630.109545 907.735625)scale(0.28 -0.28)">
       <defs>
        <path d="M 37.796875 64.3125 
L 12.890625 25.390625 
L 37.796875 25.390625 
z
M 35.203125 72.90625 
L 47.609375 72.90625 
L 47.609375 25.390625 
L 58.015625 25.390625 
L 58.015625 17.1875 
L 47.609375 17.1875 
L 47.609375 0 
L 37.796875 0 
L 37.796875 17.1875 
L 4.890625 17.1875 
L 4.890625 26.703125 
z
" id="DejaVuSans-52"/>
       </defs>
       <use xlink:href="#DejaVuSans-52"/>
       <use x="63.623047" xlink:href="#DejaVuSans-48"/>
      </g>
     </g>
    </g>
    <g id="xtick_4">
     <g id="line2d_4">
      <path clip-path="url(#p09acdf1e24)" d="M 891.415455 876.96 
L 891.415455 7.2 
" style="fill:none;stroke:#ffffff;stroke-linecap:round;"/>
     </g>
     <g id="text_4">
      <!-- 60 -->
      <g style="fill:#262626;" transform="translate(873.600455 907.735625)scale(0.28 -0.28)">
       <defs>
        <path d="M 33.015625 40.375 
Q 26.375 40.375 22.484375 35.828125 
Q 18.609375 31.296875 18.609375 23.390625 
Q 18.609375 15.53125 22.484375 10.953125 
Q 26.375 6.390625 33.015625 6.390625 
Q 39.65625 6.390625 43.53125 10.953125 
Q 47.40625 15.53125 47.40625 23.390625 
Q 47.40625 31.296875 43.53125 35.828125 
Q 39.65625 40.375 33.015625 40.375 
z
M 52.59375 71.296875 
L 52.59375 62.3125 
Q 48.875 64.0625 45.09375 64.984375 
Q 41.3125 65.921875 37.59375 65.921875 
Q 27.828125 65.921875 22.671875 59.328125 
Q 17.53125 52.734375 16.796875 39.40625 
Q 19.671875 43.65625 24.015625 45.921875 
Q 28.375 48.1875 33.59375 48.1875 
Q 44.578125 48.1875 50.953125 41.515625 
Q 57.328125 34.859375 57.328125 23.390625 
Q 57.328125 12.15625 50.6875 5.359375 
Q 44.046875 -1.421875 33.015625 -1.421875 
Q 20.359375 -1.421875 13.671875 8.265625 
Q 6.984375 17.96875 6.984375 36.375 
Q 6.984375 53.65625 15.1875 63.9375 
Q 23.390625 74.21875 37.203125 74.21875 
Q 40.921875 74.21875 44.703125 73.484375 
Q 48.484375 72.75 52.59375 71.296875 
z
" id="DejaVuSans-54"/>
       </defs>
       <use xlink:href="#DejaVuSans-54"/>
       <use x="63.623047" xlink:href="#DejaVuSans-48"/>
      </g>
     </g>
    </g>
    <g id="xtick_5">
     <g id="line2d_5">
      <path clip-path="url(#p09acdf1e24)" d="M 1134.906364 876.96 
L 1134.906364 7.2 
" style="fill:none;stroke:#ffffff;stroke-linecap:round;"/>
     </g>
     <g id="text_5">
      <!-- 80 -->
      <g style="fill:#262626;" transform="translate(1117.091364 907.735625)scale(0.28 -0.28)">
       <defs>
        <path d="M 31.78125 34.625 
Q 24.75 34.625 20.71875 30.859375 
Q 16.703125 27.09375 16.703125 20.515625 
Q 16.703125 13.921875 20.71875 10.15625 
Q 24.75 6.390625 31.78125 6.390625 
Q 38.8125 6.390625 42.859375 10.171875 
Q 46.921875 13.96875 46.921875 20.515625 
Q 46.921875 27.09375 42.890625 30.859375 
Q 38.875 34.625 31.78125 34.625 
z
M 21.921875 38.8125 
Q 15.578125 40.375 12.03125 44.71875 
Q 8.5 49.078125 8.5 55.328125 
Q 8.5 64.0625 14.71875 69.140625 
Q 20.953125 74.21875 31.78125 74.21875 
Q 42.671875 74.21875 48.875 69.140625 
Q 55.078125 64.0625 55.078125 55.328125 
Q 55.078125 49.078125 51.53125 44.71875 
Q 48 40.375 41.703125 38.8125 
Q 48.828125 37.15625 52.796875 32.3125 
Q 56.78125 27.484375 56.78125 20.515625 
Q 56.78125 9.90625 50.3125 4.234375 
Q 43.84375 -1.421875 31.78125 -1.421875 
Q 19.734375 -1.421875 13.25 4.234375 
Q 6.78125 9.90625 6.78125 20.515625 
Q 6.78125 27.484375 10.78125 32.3125 
Q 14.796875 37.15625 21.921875 38.8125 
z
M 18.3125 54.390625 
Q 18.3125 48.734375 21.84375 45.5625 
Q 25.390625 42.390625 31.78125 42.390625 
Q 38.140625 42.390625 41.71875 45.5625 
Q 45.3125 48.734375 45.3125 54.390625 
Q 45.3125 60.0625 41.71875 63.234375 
Q 38.140625 66.40625 31.78125 66.40625 
Q 25.390625 66.40625 21.84375 63.234375 
Q 18.3125 60.0625 18.3125 54.390625 
z
" id="DejaVuSans-56"/>
       </defs>
       <use xlink:href="#DejaVuSans-56"/>
       <use x="63.623047" xlink:href="#DejaVuSans-48"/>
      </g>
     </g>
    </g>
    <g id="xtick_6">
     <g id="line2d_6">
      <path clip-path="url(#p09acdf1e24)" d="M 1378.397273 876.96 
L 1378.397273 7.2 
" style="fill:none;stroke:#ffffff;stroke-linecap:round;"/>
     </g>
     <g id="text_6">
      <!-- 100 -->
      <g style="fill:#262626;" transform="translate(1351.674773 907.735625)scale(0.28 -0.28)">
       <defs>
        <path d="M 12.40625 8.296875 
L 28.515625 8.296875 
L 28.515625 63.921875 
L 10.984375 60.40625 
L 10.984375 69.390625 
L 28.421875 72.90625 
L 38.28125 72.90625 
L 38.28125 8.296875 
L 54.390625 8.296875 
L 54.390625 0 
L 12.40625 0 
z
" id="DejaVuSans-49"/>
       </defs>
       <use xlink:href="#DejaVuSans-49"/>
       <use x="63.623047" xlink:href="#DejaVuSans-48"/>
       <use x="127.246094" xlink:href="#DejaVuSans-48"/>
      </g>
     </g>
    </g>
    <g id="text_7">
     <!-- Epochs (n.u.) -->
     <g style="fill:#262626;" transform="translate(651.15125 944.913125)scale(0.36 -0.36)">
      <defs>
       <path d="M 9.8125 72.90625 
L 55.90625 72.90625 
L 55.90625 64.59375 
L 19.671875 64.59375 
L 19.671875 43.015625 
L 54.390625 43.015625 
L 54.390625 34.71875 
L 19.671875 34.71875 
L 19.671875 8.296875 
L 56.78125 8.296875 
L 56.78125 0 
L 9.8125 0 
z
" id="DejaVuSans-69"/>
       <path d="M 18.109375 8.203125 
L 18.109375 -20.796875 
L 9.078125 -20.796875 
L 9.078125 54.6875 
L 18.109375 54.6875 
L 18.109375 46.390625 
Q 20.953125 51.265625 25.265625 53.625 
Q 29.59375 56 35.59375 56 
Q 45.5625 56 51.78125 48.09375 
Q 58.015625 40.1875 58.015625 27.296875 
Q 58.015625 14.40625 51.78125 6.484375 
Q 45.5625 -1.421875 35.59375 -1.421875 
Q 29.59375 -1.421875 25.265625 0.953125 
Q 20.953125 3.328125 18.109375 8.203125 
z
M 48.6875 27.296875 
Q 48.6875 37.203125 44.609375 42.84375 
Q 40.53125 48.484375 33.40625 48.484375 
Q 26.265625 48.484375 22.1875 42.84375 
Q 18.109375 37.203125 18.109375 27.296875 
Q 18.109375 17.390625 22.1875 11.75 
Q 26.265625 6.109375 33.40625 6.109375 
Q 40.53125 6.109375 44.609375 11.75 
Q 48.6875 17.390625 48.6875 27.296875 
z
" id="DejaVuSans-112"/>
       <path d="M 30.609375 48.390625 
Q 23.390625 48.390625 19.1875 42.75 
Q 14.984375 37.109375 14.984375 27.296875 
Q 14.984375 17.484375 19.15625 11.84375 
Q 23.34375 6.203125 30.609375 6.203125 
Q 37.796875 6.203125 41.984375 11.859375 
Q 46.1875 17.53125 46.1875 27.296875 
Q 46.1875 37.015625 41.984375 42.703125 
Q 37.796875 48.390625 30.609375 48.390625 
z
M 30.609375 56 
Q 42.328125 56 49.015625 48.375 
Q 55.71875 40.765625 55.71875 27.296875 
Q 55.71875 13.875 49.015625 6.21875 
Q 42.328125 -1.421875 30.609375 -1.421875 
Q 18.84375 -1.421875 12.171875 6.21875 
Q 5.515625 13.875 5.515625 27.296875 
Q 5.515625 40.765625 12.171875 48.375 
Q 18.84375 56 30.609375 56 
z
" id="DejaVuSans-111"/>
       <path d="M 48.78125 52.59375 
L 48.78125 44.1875 
Q 44.96875 46.296875 41.140625 47.34375 
Q 37.3125 48.390625 33.40625 48.390625 
Q 24.65625 48.390625 19.8125 42.84375 
Q 14.984375 37.3125 14.984375 27.296875 
Q 14.984375 17.28125 19.8125 11.734375 
Q 24.65625 6.203125 33.40625 6.203125 
Q 37.3125 6.203125 41.140625 7.25 
Q 44.96875 8.296875 48.78125 10.40625 
L 48.78125 2.09375 
Q 45.015625 0.34375 40.984375 -0.53125 
Q 36.96875 -1.421875 32.421875 -1.421875 
Q 20.0625 -1.421875 12.78125 6.34375 
Q 5.515625 14.109375 5.515625 27.296875 
Q 5.515625 40.671875 12.859375 48.328125 
Q 20.21875 56 33.015625 56 
Q 37.15625 56 41.109375 55.140625 
Q 45.0625 54.296875 48.78125 52.59375 
z
" id="DejaVuSans-99"/>
       <path d="M 54.890625 33.015625 
L 54.890625 0 
L 45.90625 0 
L 45.90625 32.71875 
Q 45.90625 40.484375 42.875 44.328125 
Q 39.84375 48.1875 33.796875 48.1875 
Q 26.515625 48.1875 22.3125 43.546875 
Q 18.109375 38.921875 18.109375 30.90625 
L 18.109375 0 
L 9.078125 0 
L 9.078125 75.984375 
L 18.109375 75.984375 
L 18.109375 46.1875 
Q 21.34375 51.125 25.703125 53.5625 
Q 30.078125 56 35.796875 56 
Q 45.21875 56 50.046875 50.171875 
Q 54.890625 44.34375 54.890625 33.015625 
z
" id="DejaVuSans-104"/>
       <path d="M 44.28125 53.078125 
L 44.28125 44.578125 
Q 40.484375 46.53125 36.375 47.5 
Q 32.28125 48.484375 27.875 48.484375 
Q 21.1875 48.484375 17.84375 46.4375 
Q 14.5 44.390625 14.5 40.28125 
Q 14.5 37.15625 16.890625 35.375 
Q 19.28125 33.59375 26.515625 31.984375 
L 29.59375 31.296875 
Q 39.15625 29.25 43.1875 25.515625 
Q 47.21875 21.78125 47.21875 15.09375 
Q 47.21875 7.46875 41.1875 3.015625 
Q 35.15625 -1.421875 24.609375 -1.421875 
Q 20.21875 -1.421875 15.453125 -0.5625 
Q 10.6875 0.296875 5.421875 2 
L 5.421875 11.28125 
Q 10.40625 8.6875 15.234375 7.390625 
Q 20.0625 6.109375 24.8125 6.109375 
Q 31.15625 6.109375 34.5625 8.28125 
Q 37.984375 10.453125 37.984375 14.40625 
Q 37.984375 18.0625 35.515625 20.015625 
Q 33.0625 21.96875 24.703125 23.78125 
L 21.578125 24.515625 
Q 13.234375 26.265625 9.515625 29.90625 
Q 5.8125 33.546875 5.8125 39.890625 
Q 5.8125 47.609375 11.28125 51.796875 
Q 16.75 56 26.8125 56 
Q 31.78125 56 36.171875 55.265625 
Q 40.578125 54.546875 44.28125 53.078125 
z
" id="DejaVuSans-115"/>
       <path id="DejaVuSans-32"/>
       <path d="M 31 75.875 
Q 24.46875 64.65625 21.28125 53.65625 
Q 18.109375 42.671875 18.109375 31.390625 
Q 18.109375 20.125 21.3125 9.0625 
Q 24.515625 -2 31 -13.1875 
L 23.1875 -13.1875 
Q 15.875 -1.703125 12.234375 9.375 
Q 8.59375 20.453125 8.59375 31.390625 
Q 8.59375 42.28125 12.203125 53.3125 
Q 15.828125 64.359375 23.1875 75.875 
z
" id="DejaVuSans-40"/>
       <path d="M 54.890625 33.015625 
L 54.890625 0 
L 45.90625 0 
L 45.90625 32.71875 
Q 45.90625 40.484375 42.875 44.328125 
Q 39.84375 48.1875 33.796875 48.1875 
Q 26.515625 48.1875 22.3125 43.546875 
Q 18.109375 38.921875 18.109375 30.90625 
L 18.109375 0 
L 9.078125 0 
L 9.078125 54.6875 
L 18.109375 54.6875 
L 18.109375 46.1875 
Q 21.34375 51.125 25.703125 53.5625 
Q 30.078125 56 35.796875 56 
Q 45.21875 56 50.046875 50.171875 
Q 54.890625 44.34375 54.890625 33.015625 
z
" id="DejaVuSans-110"/>
       <path d="M 10.6875 12.40625 
L 21 12.40625 
L 21 0 
L 10.6875 0 
z
" id="DejaVuSans-46"/>
       <path d="M 8.5 21.578125 
L 8.5 54.6875 
L 17.484375 54.6875 
L 17.484375 21.921875 
Q 17.484375 14.15625 20.5 10.265625 
Q 23.53125 6.390625 29.59375 6.390625 
Q 36.859375 6.390625 41.078125 11.03125 
Q 45.3125 15.671875 45.3125 23.6875 
L 45.3125 54.6875 
L 54.296875 54.6875 
L 54.296875 0 
L 45.3125 0 
L 45.3125 8.40625 
Q 42.046875 3.421875 37.71875 1 
Q 33.40625 -1.421875 27.6875 -1.421875 
Q 18.265625 -1.421875 13.375 4.4375 
Q 8.5 10.296875 8.5 21.578125 
z
M 31.109375 56 
z
" id="DejaVuSans-117"/>
       <path d="M 8.015625 75.875 
L 15.828125 75.875 
Q 23.140625 64.359375 26.78125 53.3125 
Q 30.421875 42.28125 30.421875 31.390625 
Q 30.421875 20.453125 26.78125 9.375 
Q 23.140625 -1.703125 15.828125 -13.1875 
L 8.015625 -13.1875 
Q 14.5 -2 17.703125 9.0625 
Q 20.90625 20.125 20.90625 31.390625 
Q 20.90625 42.671875 17.703125 53.65625 
Q 14.5 64.65625 8.015625 75.875 
z
" id="DejaVuSans-41"/>
      </defs>
      <use xlink:href="#DejaVuSans-69"/>
      <use x="63.183594" xlink:href="#DejaVuSans-112"/>
      <use x="126.660156" xlink:href="#DejaVuSans-111"/>
      <use x="187.841797" xlink:href="#DejaVuSans-99"/>
      <use x="242.822266" xlink:href="#DejaVuSans-104"/>
      <use x="306.201172" xlink:href="#DejaVuSans-115"/>
      <use x="358.300781" xlink:href="#DejaVuSans-32"/>
      <use x="390.087891" xlink:href="#DejaVuSans-40"/>
      <use x="429.101562" xlink:href="#DejaVuSans-110"/>
      <use x="492.480469" xlink:href="#DejaVuSans-46"/>
      <use x="524.267578" xlink:href="#DejaVuSans-117"/>
      <use x="587.646484" xlink:href="#DejaVuSans-46"/>
      <use x="619.433594" xlink:href="#DejaVuSans-41"/>
     </g>
    </g>
   </g>
   <g id="matplotlib.axis_2">
    <g id="ytick_1">
     <g id="line2d_7">
      <path clip-path="url(#p09acdf1e24)" d="M 100.07 789.984 
L 1439.27 789.984 
" style="fill:none;stroke:#ffffff;stroke-linecap:round;"/>
     </g>
     <g id="line2d_8">
      <defs>
       <path d="M 0 0 
L -6 0 
" id="m3496493a83" style="stroke:#262626;stroke-width:1.25;"/>
      </defs>
      <g>
       <use style="fill:#262626;stroke:#262626;stroke-width:1.25;" x="100.07" xlink:href="#m3496493a83" y="789.984"/>
      </g>
     </g>
     <g id="text_8">
      <!-- 0.6 -->
      <g style="fill:#262626;" transform="translate(46.04125 800.621813)scale(0.28 -0.28)">
       <use xlink:href="#DejaVuSans-48"/>
       <use x="63.623047" xlink:href="#DejaVuSans-46"/>
       <use x="95.410156" xlink:href="#DejaVuSans-54"/>
      </g>
     </g>
    </g>
    <g id="ytick_2">
     <g id="line2d_9">
      <path clip-path="url(#p09acdf1e24)" d="M 100.07 616.032 
L 1439.27 616.032 
" style="fill:none;stroke:#ffffff;stroke-linecap:round;"/>
     </g>
     <g id="line2d_10">
      <g>
       <use style="fill:#262626;stroke:#262626;stroke-width:1.25;" x="100.07" xlink:href="#m3496493a83" y="616.032"/>
      </g>
     </g>
     <g id="text_9">
      <!-- 0.7 -->
      <g style="fill:#262626;" transform="translate(46.04125 626.669813)scale(0.28 -0.28)">
       <defs>
        <path d="M 8.203125 72.90625 
L 55.078125 72.90625 
L 55.078125 68.703125 
L 28.609375 0 
L 18.3125 0 
L 43.21875 64.59375 
L 8.203125 64.59375 
z
" id="DejaVuSans-55"/>
       </defs>
       <use xlink:href="#DejaVuSans-48"/>
       <use x="63.623047" xlink:href="#DejaVuSans-46"/>
       <use x="95.410156" xlink:href="#DejaVuSans-55"/>
      </g>
     </g>
    </g>
    <g id="ytick_3">
     <g id="line2d_11">
      <path clip-path="url(#p09acdf1e24)" d="M 100.07 442.08 
L 1439.27 442.08 
" style="fill:none;stroke:#ffffff;stroke-linecap:round;"/>
     </g>
     <g id="line2d_12">
      <g>
       <use style="fill:#262626;stroke:#262626;stroke-width:1.25;" x="100.07" xlink:href="#m3496493a83" y="442.08"/>
      </g>
     </g>
     <g id="text_10">
      <!-- 0.8 -->
      <g style="fill:#262626;" transform="translate(46.04125 452.717813)scale(0.28 -0.28)">
       <use xlink:href="#DejaVuSans-48"/>
       <use x="63.623047" xlink:href="#DejaVuSans-46"/>
       <use x="95.410156" xlink:href="#DejaVuSans-56"/>
      </g>
     </g>
    </g>
    <g id="ytick_4">
     <g id="line2d_13">
      <path clip-path="url(#p09acdf1e24)" d="M 100.07 268.128 
L 1439.27 268.128 
" style="fill:none;stroke:#ffffff;stroke-linecap:round;"/>
     </g>
     <g id="line2d_14">
      <g>
       <use style="fill:#262626;stroke:#262626;stroke-width:1.25;" x="100.07" xlink:href="#m3496493a83" y="268.128"/>
      </g>
     </g>
     <g id="text_11">
      <!-- 0.9 -->
      <g style="fill:#262626;" transform="translate(46.04125 278.765813)scale(0.28 -0.28)">
       <defs>
        <path d="M 10.984375 1.515625 
L 10.984375 10.5 
Q 14.703125 8.734375 18.5 7.8125 
Q 22.3125 6.890625 25.984375 6.890625 
Q 35.75 6.890625 40.890625 13.453125 
Q 46.046875 20.015625 46.78125 33.40625 
Q 43.953125 29.203125 39.59375 26.953125 
Q 35.25 24.703125 29.984375 24.703125 
Q 19.046875 24.703125 12.671875 31.3125 
Q 6.296875 37.9375 6.296875 49.421875 
Q 6.296875 60.640625 12.9375 67.421875 
Q 19.578125 74.21875 30.609375 74.21875 
Q 43.265625 74.21875 49.921875 64.515625 
Q 56.59375 54.828125 56.59375 36.375 
Q 56.59375 19.140625 48.40625 8.859375 
Q 40.234375 -1.421875 26.421875 -1.421875 
Q 22.703125 -1.421875 18.890625 -0.6875 
Q 15.09375 0.046875 10.984375 1.515625 
z
M 30.609375 32.421875 
Q 37.25 32.421875 41.125 36.953125 
Q 45.015625 41.5 45.015625 49.421875 
Q 45.015625 57.28125 41.125 61.84375 
Q 37.25 66.40625 30.609375 66.40625 
Q 23.96875 66.40625 20.09375 61.84375 
Q 16.21875 57.28125 16.21875 49.421875 
Q 16.21875 41.5 20.09375 36.953125 
Q 23.96875 32.421875 30.609375 32.421875 
z
" id="DejaVuSans-57"/>
       </defs>
       <use xlink:href="#DejaVuSans-48"/>
       <use x="63.623047" xlink:href="#DejaVuSans-46"/>
       <use x="95.410156" xlink:href="#DejaVuSans-57"/>
      </g>
     </g>
    </g>
    <g id="ytick_5">
     <g id="line2d_15">
      <path clip-path="url(#p09acdf1e24)" d="M 100.07 94.176 
L 1439.27 94.176 
" style="fill:none;stroke:#ffffff;stroke-linecap:round;"/>
     </g>
     <g id="line2d_16">
      <g>
       <use style="fill:#262626;stroke:#262626;stroke-width:1.25;" x="100.07" xlink:href="#m3496493a83" y="94.176"/>
      </g>
     </g>
     <g id="text_12">
      <!-- 1.0 -->
      <g style="fill:#262626;" transform="translate(46.04125 104.813813)scale(0.28 -0.28)">
       <use xlink:href="#DejaVuSans-49"/>
       <use x="63.623047" xlink:href="#DejaVuSans-46"/>
       <use x="95.410156" xlink:href="#DejaVuSans-48"/>
      </g>
     </g>
    </g>
    <g id="text_13">
     <!-- QRS score (n.u.) -->
     <g style="fill:#262626;" transform="translate(34.554375 588.285)rotate(-90)scale(0.36 -0.36)">
      <defs>
       <path d="M 39.40625 66.21875 
Q 28.65625 66.21875 22.328125 58.203125 
Q 16.015625 50.203125 16.015625 36.375 
Q 16.015625 22.609375 22.328125 14.59375 
Q 28.65625 6.59375 39.40625 6.59375 
Q 50.140625 6.59375 56.421875 14.59375 
Q 62.703125 22.609375 62.703125 36.375 
Q 62.703125 50.203125 56.421875 58.203125 
Q 50.140625 66.21875 39.40625 66.21875 
z
M 53.21875 1.3125 
L 66.21875 -12.890625 
L 54.296875 -12.890625 
L 43.5 -1.21875 
Q 41.890625 -1.3125 41.03125 -1.359375 
Q 40.1875 -1.421875 39.40625 -1.421875 
Q 24.03125 -1.421875 14.8125 8.859375 
Q 5.609375 19.140625 5.609375 36.375 
Q 5.609375 53.65625 14.8125 63.9375 
Q 24.03125 74.21875 39.40625 74.21875 
Q 54.734375 74.21875 63.90625 63.9375 
Q 73.09375 53.65625 73.09375 36.375 
Q 73.09375 23.6875 67.984375 14.640625 
Q 62.890625 5.609375 53.21875 1.3125 
z
" id="DejaVuSans-81"/>
       <path d="M 44.390625 34.1875 
Q 47.5625 33.109375 50.5625 29.59375 
Q 53.5625 26.078125 56.59375 19.921875 
L 66.609375 0 
L 56 0 
L 46.6875 18.703125 
Q 43.0625 26.03125 39.671875 28.421875 
Q 36.28125 30.8125 30.421875 30.8125 
L 19.671875 30.8125 
L 19.671875 0 
L 9.8125 0 
L 9.8125 72.90625 
L 32.078125 72.90625 
Q 44.578125 72.90625 50.734375 67.671875 
Q 56.890625 62.453125 56.890625 51.90625 
Q 56.890625 45.015625 53.6875 40.46875 
Q 50.484375 35.9375 44.390625 34.1875 
z
M 19.671875 64.796875 
L 19.671875 38.921875 
L 32.078125 38.921875 
Q 39.203125 38.921875 42.84375 42.21875 
Q 46.484375 45.515625 46.484375 51.90625 
Q 46.484375 58.296875 42.84375 61.546875 
Q 39.203125 64.796875 32.078125 64.796875 
z
" id="DejaVuSans-82"/>
       <path d="M 53.515625 70.515625 
L 53.515625 60.890625 
Q 47.90625 63.578125 42.921875 64.890625 
Q 37.9375 66.21875 33.296875 66.21875 
Q 25.25 66.21875 20.875 63.09375 
Q 16.5 59.96875 16.5 54.203125 
Q 16.5 49.359375 19.40625 46.890625 
Q 22.3125 44.4375 30.421875 42.921875 
L 36.375 41.703125 
Q 47.40625 39.59375 52.65625 34.296875 
Q 57.90625 29 57.90625 20.125 
Q 57.90625 9.515625 50.796875 4.046875 
Q 43.703125 -1.421875 29.984375 -1.421875 
Q 24.8125 -1.421875 18.96875 -0.25 
Q 13.140625 0.921875 6.890625 3.21875 
L 6.890625 13.375 
Q 12.890625 10.015625 18.65625 8.296875 
Q 24.421875 6.59375 29.984375 6.59375 
Q 38.421875 6.59375 43.015625 9.90625 
Q 47.609375 13.234375 47.609375 19.390625 
Q 47.609375 24.75 44.3125 27.78125 
Q 41.015625 30.8125 33.5 32.328125 
L 27.484375 33.5 
Q 16.453125 35.6875 11.515625 40.375 
Q 6.59375 45.0625 6.59375 53.421875 
Q 6.59375 63.09375 13.40625 68.65625 
Q 20.21875 74.21875 32.171875 74.21875 
Q 37.3125 74.21875 42.625 73.28125 
Q 47.953125 72.359375 53.515625 70.515625 
z
" id="DejaVuSans-83"/>
       <path d="M 41.109375 46.296875 
Q 39.59375 47.171875 37.8125 47.578125 
Q 36.03125 48 33.890625 48 
Q 26.265625 48 22.1875 43.046875 
Q 18.109375 38.09375 18.109375 28.8125 
L 18.109375 0 
L 9.078125 0 
L 9.078125 54.6875 
L 18.109375 54.6875 
L 18.109375 46.1875 
Q 20.953125 51.171875 25.484375 53.578125 
Q 30.03125 56 36.53125 56 
Q 37.453125 56 38.578125 55.875 
Q 39.703125 55.765625 41.0625 55.515625 
z
" id="DejaVuSans-114"/>
       <path d="M 56.203125 29.59375 
L 56.203125 25.203125 
L 14.890625 25.203125 
Q 15.484375 15.921875 20.484375 11.0625 
Q 25.484375 6.203125 34.421875 6.203125 
Q 39.59375 6.203125 44.453125 7.46875 
Q 49.3125 8.734375 54.109375 11.28125 
L 54.109375 2.78125 
Q 49.265625 0.734375 44.1875 -0.34375 
Q 39.109375 -1.421875 33.890625 -1.421875 
Q 20.796875 -1.421875 13.15625 6.1875 
Q 5.515625 13.8125 5.515625 26.8125 
Q 5.515625 40.234375 12.765625 48.109375 
Q 20.015625 56 32.328125 56 
Q 43.359375 56 49.78125 48.890625 
Q 56.203125 41.796875 56.203125 29.59375 
z
M 47.21875 32.234375 
Q 47.125 39.59375 43.09375 43.984375 
Q 39.0625 48.390625 32.421875 48.390625 
Q 24.90625 48.390625 20.390625 44.140625 
Q 15.875 39.890625 15.1875 32.171875 
z
" id="DejaVuSans-101"/>
      </defs>
      <use xlink:href="#DejaVuSans-81"/>
      <use x="78.710938" xlink:href="#DejaVuSans-82"/>
      <use x="148.193359" xlink:href="#DejaVuSans-83"/>
      <use x="211.669922" xlink:href="#DejaVuSans-32"/>
      <use x="243.457031" xlink:href="#DejaVuSans-115"/>
      <use x="295.556641" xlink:href="#DejaVuSans-99"/>
      <use x="350.537109" xlink:href="#DejaVuSans-111"/>
      <use x="411.71875" xlink:href="#DejaVuSans-114"/>
      <use x="450.582031" xlink:href="#DejaVuSans-101"/>
      <use x="512.105469" xlink:href="#DejaVuSans-32"/>
      <use x="543.892578" xlink:href="#DejaVuSans-40"/>
      <use x="582.90625" xlink:href="#DejaVuSans-110"/>
      <use x="646.285156" xlink:href="#DejaVuSans-46"/>
      <use x="678.072266" xlink:href="#DejaVuSans-117"/>
      <use x="741.451172" xlink:href="#DejaVuSans-46"/>
      <use x="773.238281" xlink:href="#DejaVuSans-41"/>
     </g>
    </g>
   </g>
   <g id="line2d_17">
    <path clip-path="url(#p09acdf1e24)" d="M 179.673899 960.6 
L 185.291818 734.841216 
L 209.640909 526.620672 
L 233.99 484.002432 
L 258.339091 390.416256 
L 282.688182 368.846208 
L 307.037273 335.273472 
L 331.386364 312.48576 
L 355.735455 262.90944 
L 380.084545 323.270784 
L 404.433636 233.163648 
L 428.782727 225.50976 
L 453.131818 192.980736 
L 477.480909 269.171712 
L 501.83 227.075328 
L 526.179091 323.270784 
L 550.528182 216.986112 
L 574.877273 169.497216 
L 599.226364 149.666688 
L 623.575455 137.316096 
L 647.924545 159.755904 
L 672.273636 135.228672 
L 696.622727 159.234048 
L 720.971818 121.834368 
L 745.320909 125.835264 
L 769.67 123.573888 
L 794.019091 111.223296 
L 818.368182 116.78976 
L 842.717273 134.18496 
L 867.066364 123.225984 
L 891.415455 105.308928 
L 915.764545 119.225088 
L 940.113636 127.052928 
L 964.462727 106.35264 
L 988.811818 103.569408 
L 1013.160909 108.614016 
L 1037.51 103.917312 
L 1061.859091 111.223296 
L 1086.208182 111.223296 
L 1110.557273 118.181376 
L 1134.906364 103.221504 
L 1159.255455 102.699648 
" style="fill:none;stroke:#4c72b0;stroke-linecap:round;stroke-width:4;"/>
    <defs>
     <path d="M 0 -6 
L -5.706339 -1.854102 
L -3.526712 4.854102 
L 3.526712 4.854102 
L 5.706339 -1.854102 
z
" id="m3b501ce3db" style="stroke:#4c72b0;stroke-linejoin:miter;"/>
    </defs>
    <g clip-path="url(#p09acdf1e24)">
     <use style="fill:#4c72b0;stroke:#4c72b0;stroke-linejoin:miter;" x="160.942727" xlink:href="#m3b501ce3db" y="1713.321216"/>
     <use style="fill:#4c72b0;stroke:#4c72b0;stroke-linejoin:miter;" x="185.291818" xlink:href="#m3b501ce3db" y="734.841216"/>
     <use style="fill:#4c72b0;stroke:#4c72b0;stroke-linejoin:miter;" x="209.640909" xlink:href="#m3b501ce3db" y="526.620672"/>
     <use style="fill:#4c72b0;stroke:#4c72b0;stroke-linejoin:miter;" x="233.99" xlink:href="#m3b501ce3db" y="484.002432"/>
     <use style="fill:#4c72b0;stroke:#4c72b0;stroke-linejoin:miter;" x="258.339091" xlink:href="#m3b501ce3db" y="390.416256"/>
     <use style="fill:#4c72b0;stroke:#4c72b0;stroke-linejoin:miter;" x="282.688182" xlink:href="#m3b501ce3db" y="368.846208"/>
     <use style="fill:#4c72b0;stroke:#4c72b0;stroke-linejoin:miter;" x="307.037273" xlink:href="#m3b501ce3db" y="335.273472"/>
     <use style="fill:#4c72b0;stroke:#4c72b0;stroke-linejoin:miter;" x="331.386364" xlink:href="#m3b501ce3db" y="312.48576"/>
     <use style="fill:#4c72b0;stroke:#4c72b0;stroke-linejoin:miter;" x="355.735455" xlink:href="#m3b501ce3db" y="262.90944"/>
     <use style="fill:#4c72b0;stroke:#4c72b0;stroke-linejoin:miter;" x="380.084545" xlink:href="#m3b501ce3db" y="323.270784"/>
     <use style="fill:#4c72b0;stroke:#4c72b0;stroke-linejoin:miter;" x="404.433636" xlink:href="#m3b501ce3db" y="233.163648"/>
     <use style="fill:#4c72b0;stroke:#4c72b0;stroke-linejoin:miter;" x="428.782727" xlink:href="#m3b501ce3db" y="225.50976"/>
     <use style="fill:#4c72b0;stroke:#4c72b0;stroke-linejoin:miter;" x="453.131818" xlink:href="#m3b501ce3db" y="192.980736"/>
     <use style="fill:#4c72b0;stroke:#4c72b0;stroke-linejoin:miter;" x="477.480909" xlink:href="#m3b501ce3db" y="269.171712"/>
     <use style="fill:#4c72b0;stroke:#4c72b0;stroke-linejoin:miter;" x="501.83" xlink:href="#m3b501ce3db" y="227.075328"/>
     <use style="fill:#4c72b0;stroke:#4c72b0;stroke-linejoin:miter;" x="526.179091" xlink:href="#m3b501ce3db" y="323.270784"/>
     <use style="fill:#4c72b0;stroke:#4c72b0;stroke-linejoin:miter;" x="550.528182" xlink:href="#m3b501ce3db" y="216.986112"/>
     <use style="fill:#4c72b0;stroke:#4c72b0;stroke-linejoin:miter;" x="574.877273" xlink:href="#m3b501ce3db" y="169.497216"/>
     <use style="fill:#4c72b0;stroke:#4c72b0;stroke-linejoin:miter;" x="599.226364" xlink:href="#m3b501ce3db" y="149.666688"/>
     <use style="fill:#4c72b0;stroke:#4c72b0;stroke-linejoin:miter;" x="623.575455" xlink:href="#m3b501ce3db" y="137.316096"/>
     <use style="fill:#4c72b0;stroke:#4c72b0;stroke-linejoin:miter;" x="647.924545" xlink:href="#m3b501ce3db" y="159.755904"/>
     <use style="fill:#4c72b0;stroke:#4c72b0;stroke-linejoin:miter;" x="672.273636" xlink:href="#m3b501ce3db" y="135.228672"/>
     <use style="fill:#4c72b0;stroke:#4c72b0;stroke-linejoin:miter;" x="696.622727" xlink:href="#m3b501ce3db" y="159.234048"/>
     <use style="fill:#4c72b0;stroke:#4c72b0;stroke-linejoin:miter;" x="720.971818" xlink:href="#m3b501ce3db" y="121.834368"/>
     <use style="fill:#4c72b0;stroke:#4c72b0;stroke-linejoin:miter;" x="745.320909" xlink:href="#m3b501ce3db" y="125.835264"/>
     <use style="fill:#4c72b0;stroke:#4c72b0;stroke-linejoin:miter;" x="769.67" xlink:href="#m3b501ce3db" y="123.573888"/>
     <use style="fill:#4c72b0;stroke:#4c72b0;stroke-linejoin:miter;" x="794.019091" xlink:href="#m3b501ce3db" y="111.223296"/>
     <use style="fill:#4c72b0;stroke:#4c72b0;stroke-linejoin:miter;" x="818.368182" xlink:href="#m3b501ce3db" y="116.78976"/>
     <use style="fill:#4c72b0;stroke:#4c72b0;stroke-linejoin:miter;" x="842.717273" xlink:href="#m3b501ce3db" y="134.18496"/>
     <use style="fill:#4c72b0;stroke:#4c72b0;stroke-linejoin:miter;" x="867.066364" xlink:href="#m3b501ce3db" y="123.225984"/>
     <use style="fill:#4c72b0;stroke:#4c72b0;stroke-linejoin:miter;" x="891.415455" xlink:href="#m3b501ce3db" y="105.308928"/>
     <use style="fill:#4c72b0;stroke:#4c72b0;stroke-linejoin:miter;" x="915.764545" xlink:href="#m3b501ce3db" y="119.225088"/>
     <use style="fill:#4c72b0;stroke:#4c72b0;stroke-linejoin:miter;" x="940.113636" xlink:href="#m3b501ce3db" y="127.052928"/>
     <use style="fill:#4c72b0;stroke:#4c72b0;stroke-linejoin:miter;" x="964.462727" xlink:href="#m3b501ce3db" y="106.35264"/>
     <use style="fill:#4c72b0;stroke:#4c72b0;stroke-linejoin:miter;" x="988.811818" xlink:href="#m3b501ce3db" y="103.569408"/>
     <use style="fill:#4c72b0;stroke:#4c72b0;stroke-linejoin:miter;" x="1013.160909" xlink:href="#m3b501ce3db" y="108.614016"/>
     <use style="fill:#4c72b0;stroke:#4c72b0;stroke-linejoin:miter;" x="1037.51" xlink:href="#m3b501ce3db" y="103.917312"/>
     <use style="fill:#4c72b0;stroke:#4c72b0;stroke-linejoin:miter;" x="1061.859091" xlink:href="#m3b501ce3db" y="111.223296"/>
     <use style="fill:#4c72b0;stroke:#4c72b0;stroke-linejoin:miter;" x="1086.208182" xlink:href="#m3b501ce3db" y="111.223296"/>
     <use style="fill:#4c72b0;stroke:#4c72b0;stroke-linejoin:miter;" x="1110.557273" xlink:href="#m3b501ce3db" y="118.181376"/>
     <use style="fill:#4c72b0;stroke:#4c72b0;stroke-linejoin:miter;" x="1134.906364" xlink:href="#m3b501ce3db" y="103.221504"/>
     <use style="fill:#4c72b0;stroke:#4c72b0;stroke-linejoin:miter;" x="1159.255455" xlink:href="#m3b501ce3db" y="102.699648"/>
    </g>
   </g>
   <g id="line2d_18">
    <path clip-path="url(#p09acdf1e24)" d="M 177.767069 960.6 
L 185.291818 786.157056 
L 209.640909 585.5904 
L 233.99 475.826688 
L 258.339091 443.297664 
L 282.688182 409.550976 
L 307.037273 404.506368 
L 331.386364 386.589312 
L 355.735455 362.583936 
L 380.084545 318.748032 
L 404.433636 320.139648 
L 428.782727 283.609728 
L 453.131818 268.649856 
L 477.480909 271.954944 
L 501.83 232.641792 
L 526.179091 269.519616 
L 550.528182 212.46336 
L 574.877273 190.71936 
L 599.226364 198.721152 
L 623.575455 166.540032 
L 647.924545 178.716672 
L 672.273636 179.238528 
L 696.622727 162.713088 
L 720.971818 135.228672 
L 745.320909 164.452608 
L 769.67 133.489152 
L 794.019091 128.270592 
L 818.368182 138.707712 
L 842.717273 123.74784 
L 867.066364 126.878976 
L 891.415455 112.614912 
L 915.764545 115.398144 
L 940.113636 117.137664 
L 964.462727 120.442752 
L 988.811818 115.746048 
L 1013.160909 116.963712 
L 1037.51 111.397248 
" style="fill:none;stroke:#dd8452;stroke-linecap:round;stroke-width:4;"/>
    <defs>
     <path d="M -0 6 
L 6 -6 
L -6 -6 
z
" id="m953c8fa79e" style="stroke:#dd8452;stroke-linejoin:miter;"/>
    </defs>
    <g clip-path="url(#p09acdf1e24)">
     <use style="fill:#dd8452;stroke:#dd8452;stroke-linejoin:miter;" x="160.942727" xlink:href="#m953c8fa79e" y="1350.631296"/>
     <use style="fill:#dd8452;stroke:#dd8452;stroke-linejoin:miter;" x="185.291818" xlink:href="#m953c8fa79e" y="786.157056"/>
     <use style="fill:#dd8452;stroke:#dd8452;stroke-linejoin:miter;" x="209.640909" xlink:href="#m953c8fa79e" y="585.5904"/>
     <use style="fill:#dd8452;stroke:#dd8452;stroke-linejoin:miter;" x="233.99" xlink:href="#m953c8fa79e" y="475.826688"/>
     <use style="fill:#dd8452;stroke:#dd8452;stroke-linejoin:miter;" x="258.339091" xlink:href="#m953c8fa79e" y="443.297664"/>
     <use style="fill:#dd8452;stroke:#dd8452;stroke-linejoin:miter;" x="282.688182" xlink:href="#m953c8fa79e" y="409.550976"/>
     <use style="fill:#dd8452;stroke:#dd8452;stroke-linejoin:miter;" x="307.037273" xlink:href="#m953c8fa79e" y="404.506368"/>
     <use style="fill:#dd8452;stroke:#dd8452;stroke-linejoin:miter;" x="331.386364" xlink:href="#m953c8fa79e" y="386.589312"/>
     <use style="fill:#dd8452;stroke:#dd8452;stroke-linejoin:miter;" x="355.735455" xlink:href="#m953c8fa79e" y="362.583936"/>
     <use style="fill:#dd8452;stroke:#dd8452;stroke-linejoin:miter;" x="380.084545" xlink:href="#m953c8fa79e" y="318.748032"/>
     <use style="fill:#dd8452;stroke:#dd8452;stroke-linejoin:miter;" x="404.433636" xlink:href="#m953c8fa79e" y="320.139648"/>
     <use style="fill:#dd8452;stroke:#dd8452;stroke-linejoin:miter;" x="428.782727" xlink:href="#m953c8fa79e" y="283.609728"/>
     <use style="fill:#dd8452;stroke:#dd8452;stroke-linejoin:miter;" x="453.131818" xlink:href="#m953c8fa79e" y="268.649856"/>
     <use style="fill:#dd8452;stroke:#dd8452;stroke-linejoin:miter;" x="477.480909" xlink:href="#m953c8fa79e" y="271.954944"/>
     <use style="fill:#dd8452;stroke:#dd8452;stroke-linejoin:miter;" x="501.83" xlink:href="#m953c8fa79e" y="232.641792"/>
     <use style="fill:#dd8452;stroke:#dd8452;stroke-linejoin:miter;" x="526.179091" xlink:href="#m953c8fa79e" y="269.519616"/>
     <use style="fill:#dd8452;stroke:#dd8452;stroke-linejoin:miter;" x="550.528182" xlink:href="#m953c8fa79e" y="212.46336"/>
     <use style="fill:#dd8452;stroke:#dd8452;stroke-linejoin:miter;" x="574.877273" xlink:href="#m953c8fa79e" y="190.71936"/>
     <use style="fill:#dd8452;stroke:#dd8452;stroke-linejoin:miter;" x="599.226364" xlink:href="#m953c8fa79e" y="198.721152"/>
     <use style="fill:#dd8452;stroke:#dd8452;stroke-linejoin:miter;" x="623.575455" xlink:href="#m953c8fa79e" y="166.540032"/>
     <use style="fill:#dd8452;stroke:#dd8452;stroke-linejoin:miter;" x="647.924545" xlink:href="#m953c8fa79e" y="178.716672"/>
     <use style="fill:#dd8452;stroke:#dd8452;stroke-linejoin:miter;" x="672.273636" xlink:href="#m953c8fa79e" y="179.238528"/>
     <use style="fill:#dd8452;stroke:#dd8452;stroke-linejoin:miter;" x="696.622727" xlink:href="#m953c8fa79e" y="162.713088"/>
     <use style="fill:#dd8452;stroke:#dd8452;stroke-linejoin:miter;" x="720.971818" xlink:href="#m953c8fa79e" y="135.228672"/>
     <use style="fill:#dd8452;stroke:#dd8452;stroke-linejoin:miter;" x="745.320909" xlink:href="#m953c8fa79e" y="164.452608"/>
     <use style="fill:#dd8452;stroke:#dd8452;stroke-linejoin:miter;" x="769.67" xlink:href="#m953c8fa79e" y="133.489152"/>
     <use style="fill:#dd8452;stroke:#dd8452;stroke-linejoin:miter;" x="794.019091" xlink:href="#m953c8fa79e" y="128.270592"/>
     <use style="fill:#dd8452;stroke:#dd8452;stroke-linejoin:miter;" x="818.368182" xlink:href="#m953c8fa79e" y="138.707712"/>
     <use style="fill:#dd8452;stroke:#dd8452;stroke-linejoin:miter;" x="842.717273" xlink:href="#m953c8fa79e" y="123.74784"/>
     <use style="fill:#dd8452;stroke:#dd8452;stroke-linejoin:miter;" x="867.066364" xlink:href="#m953c8fa79e" y="126.878976"/>
     <use style="fill:#dd8452;stroke:#dd8452;stroke-linejoin:miter;" x="891.415455" xlink:href="#m953c8fa79e" y="112.614912"/>
     <use style="fill:#dd8452;stroke:#dd8452;stroke-linejoin:miter;" x="915.764545" xlink:href="#m953c8fa79e" y="115.398144"/>
     <use style="fill:#dd8452;stroke:#dd8452;stroke-linejoin:miter;" x="940.113636" xlink:href="#m953c8fa79e" y="117.137664"/>
     <use style="fill:#dd8452;stroke:#dd8452;stroke-linejoin:miter;" x="964.462727" xlink:href="#m953c8fa79e" y="120.442752"/>
     <use style="fill:#dd8452;stroke:#dd8452;stroke-linejoin:miter;" x="988.811818" xlink:href="#m953c8fa79e" y="115.746048"/>
     <use style="fill:#dd8452;stroke:#dd8452;stroke-linejoin:miter;" x="1013.160909" xlink:href="#m953c8fa79e" y="116.963712"/>
     <use style="fill:#dd8452;stroke:#dd8452;stroke-linejoin:miter;" x="1037.51" xlink:href="#m953c8fa79e" y="111.397248"/>
    </g>
   </g>
   <g id="line2d_19">
    <path clip-path="url(#p09acdf1e24)" d="M 183.172295 960.6 
L 185.291818 881.482752 
L 209.640909 671.000832 
L 233.99 585.242496 
L 258.339091 508.007808 
L 282.688182 482.08896 
L 307.037273 463.128192 
L 331.386364 438.948864 
L 355.735455 413.37792 
L 380.084545 410.246784 
L 404.433636 363.627648 
L 428.782727 330.576768 
L 453.131818 314.747136 
L 477.480909 298.221696 
L 501.83 300.483072 
L 526.179091 296.308224 
L 550.528182 269.519616 
L 574.877273 258.56064 
L 599.226364 258.038784 
L 623.575455 231.772032 
L 647.924545 221.856768 
L 672.273636 249.86304 
L 696.622727 232.293888 
L 720.971818 201.504384 
L 745.320909 184.978944 
L 769.67 161.14752 
L 794.019091 156.972672 
L 818.368182 151.232256 
L 842.717273 145.665792 
L 867.066364 147.579264 
L 891.415455 129.488256 
L 915.764545 153.31968 
L 940.113636 134.532864 
L 964.462727 126.35712 
L 988.811818 136.098432 
L 1013.160909 120.094848 
L 1037.51 117.137664 
L 1061.859091 130.358016 
L 1086.208182 122.356224 
L 1110.557273 113.484672 
L 1134.906364 108.440064 
L 1159.255455 112.093056 
L 1183.604545 107.570304 
L 1207.953636 111.5712 
L 1232.302727 106.700544 
L 1256.651818 102.699648 
" style="fill:none;stroke:#c44e52;stroke-linecap:round;stroke-width:4;"/>
    <defs>
     <path d="M -6 6 
L 6 6 
L 6 -6 
L -6 -6 
z
" id="m50fcc723fd" style="stroke:#c44e52;stroke-linejoin:miter;"/>
    </defs>
    <g clip-path="url(#p09acdf1e24)">
     <use style="fill:#c44e52;stroke:#c44e52;stroke-linejoin:miter;" x="160.942727" xlink:href="#m50fcc723fd" y="1790.381952"/>
     <use style="fill:#c44e52;stroke:#c44e52;stroke-linejoin:miter;" x="185.291818" xlink:href="#m50fcc723fd" y="881.482752"/>
     <use style="fill:#c44e52;stroke:#c44e52;stroke-linejoin:miter;" x="209.640909" xlink:href="#m50fcc723fd" y="671.000832"/>
     <use style="fill:#c44e52;stroke:#c44e52;stroke-linejoin:miter;" x="233.99" xlink:href="#m50fcc723fd" y="585.242496"/>
     <use style="fill:#c44e52;stroke:#c44e52;stroke-linejoin:miter;" x="258.339091" xlink:href="#m50fcc723fd" y="508.007808"/>
     <use style="fill:#c44e52;stroke:#c44e52;stroke-linejoin:miter;" x="282.688182" xlink:href="#m50fcc723fd" y="482.08896"/>
     <use style="fill:#c44e52;stroke:#c44e52;stroke-linejoin:miter;" x="307.037273" xlink:href="#m50fcc723fd" y="463.128192"/>
     <use style="fill:#c44e52;stroke:#c44e52;stroke-linejoin:miter;" x="331.386364" xlink:href="#m50fcc723fd" y="438.948864"/>
     <use style="fill:#c44e52;stroke:#c44e52;stroke-linejoin:miter;" x="355.735455" xlink:href="#m50fcc723fd" y="413.37792"/>
     <use style="fill:#c44e52;stroke:#c44e52;stroke-linejoin:miter;" x="380.084545" xlink:href="#m50fcc723fd" y="410.246784"/>
     <use style="fill:#c44e52;stroke:#c44e52;stroke-linejoin:miter;" x="404.433636" xlink:href="#m50fcc723fd" y="363.627648"/>
     <use style="fill:#c44e52;stroke:#c44e52;stroke-linejoin:miter;" x="428.782727" xlink:href="#m50fcc723fd" y="330.576768"/>
     <use style="fill:#c44e52;stroke:#c44e52;stroke-linejoin:miter;" x="453.131818" xlink:href="#m50fcc723fd" y="314.747136"/>
     <use style="fill:#c44e52;stroke:#c44e52;stroke-linejoin:miter;" x="477.480909" xlink:href="#m50fcc723fd" y="298.221696"/>
     <use style="fill:#c44e52;stroke:#c44e52;stroke-linejoin:miter;" x="501.83" xlink:href="#m50fcc723fd" y="300.483072"/>
     <use style="fill:#c44e52;stroke:#c44e52;stroke-linejoin:miter;" x="526.179091" xlink:href="#m50fcc723fd" y="296.308224"/>
     <use style="fill:#c44e52;stroke:#c44e52;stroke-linejoin:miter;" x="550.528182" xlink:href="#m50fcc723fd" y="269.519616"/>
     <use style="fill:#c44e52;stroke:#c44e52;stroke-linejoin:miter;" x="574.877273" xlink:href="#m50fcc723fd" y="258.56064"/>
     <use style="fill:#c44e52;stroke:#c44e52;stroke-linejoin:miter;" x="599.226364" xlink:href="#m50fcc723fd" y="258.038784"/>
     <use style="fill:#c44e52;stroke:#c44e52;stroke-linejoin:miter;" x="623.575455" xlink:href="#m50fcc723fd" y="231.772032"/>
     <use style="fill:#c44e52;stroke:#c44e52;stroke-linejoin:miter;" x="647.924545" xlink:href="#m50fcc723fd" y="221.856768"/>
     <use style="fill:#c44e52;stroke:#c44e52;stroke-linejoin:miter;" x="672.273636" xlink:href="#m50fcc723fd" y="249.86304"/>
     <use style="fill:#c44e52;stroke:#c44e52;stroke-linejoin:miter;" x="696.622727" xlink:href="#m50fcc723fd" y="232.293888"/>
     <use style="fill:#c44e52;stroke:#c44e52;stroke-linejoin:miter;" x="720.971818" xlink:href="#m50fcc723fd" y="201.504384"/>
     <use style="fill:#c44e52;stroke:#c44e52;stroke-linejoin:miter;" x="745.320909" xlink:href="#m50fcc723fd" y="184.978944"/>
     <use style="fill:#c44e52;stroke:#c44e52;stroke-linejoin:miter;" x="769.67" xlink:href="#m50fcc723fd" y="161.14752"/>
     <use style="fill:#c44e52;stroke:#c44e52;stroke-linejoin:miter;" x="794.019091" xlink:href="#m50fcc723fd" y="156.972672"/>
     <use style="fill:#c44e52;stroke:#c44e52;stroke-linejoin:miter;" x="818.368182" xlink:href="#m50fcc723fd" y="151.232256"/>
     <use style="fill:#c44e52;stroke:#c44e52;stroke-linejoin:miter;" x="842.717273" xlink:href="#m50fcc723fd" y="145.665792"/>
     <use style="fill:#c44e52;stroke:#c44e52;stroke-linejoin:miter;" x="867.066364" xlink:href="#m50fcc723fd" y="147.579264"/>
     <use style="fill:#c44e52;stroke:#c44e52;stroke-linejoin:miter;" x="891.415455" xlink:href="#m50fcc723fd" y="129.488256"/>
     <use style="fill:#c44e52;stroke:#c44e52;stroke-linejoin:miter;" x="915.764545" xlink:href="#m50fcc723fd" y="153.31968"/>
     <use style="fill:#c44e52;stroke:#c44e52;stroke-linejoin:miter;" x="940.113636" xlink:href="#m50fcc723fd" y="134.532864"/>
     <use style="fill:#c44e52;stroke:#c44e52;stroke-linejoin:miter;" x="964.462727" xlink:href="#m50fcc723fd" y="126.35712"/>
     <use style="fill:#c44e52;stroke:#c44e52;stroke-linejoin:miter;" x="988.811818" xlink:href="#m50fcc723fd" y="136.098432"/>
     <use style="fill:#c44e52;stroke:#c44e52;stroke-linejoin:miter;" x="1013.160909" xlink:href="#m50fcc723fd" y="120.094848"/>
     <use style="fill:#c44e52;stroke:#c44e52;stroke-linejoin:miter;" x="1037.51" xlink:href="#m50fcc723fd" y="117.137664"/>
     <use style="fill:#c44e52;stroke:#c44e52;stroke-linejoin:miter;" x="1061.859091" xlink:href="#m50fcc723fd" y="130.358016"/>
     <use style="fill:#c44e52;stroke:#c44e52;stroke-linejoin:miter;" x="1086.208182" xlink:href="#m50fcc723fd" y="122.356224"/>
     <use style="fill:#c44e52;stroke:#c44e52;stroke-linejoin:miter;" x="1110.557273" xlink:href="#m50fcc723fd" y="113.484672"/>
     <use style="fill:#c44e52;stroke:#c44e52;stroke-linejoin:miter;" x="1134.906364" xlink:href="#m50fcc723fd" y="108.440064"/>
     <use style="fill:#c44e52;stroke:#c44e52;stroke-linejoin:miter;" x="1159.255455" xlink:href="#m50fcc723fd" y="112.093056"/>
     <use style="fill:#c44e52;stroke:#c44e52;stroke-linejoin:miter;" x="1183.604545" xlink:href="#m50fcc723fd" y="107.570304"/>
     <use style="fill:#c44e52;stroke:#c44e52;stroke-linejoin:miter;" x="1207.953636" xlink:href="#m50fcc723fd" y="111.5712"/>
     <use style="fill:#c44e52;stroke:#c44e52;stroke-linejoin:miter;" x="1232.302727" xlink:href="#m50fcc723fd" y="106.700544"/>
     <use style="fill:#c44e52;stroke:#c44e52;stroke-linejoin:miter;" x="1256.651818" xlink:href="#m50fcc723fd" y="102.699648"/>
    </g>
   </g>
   <g id="line2d_20">
    <path clip-path="url(#p09acdf1e24)" d="M 179.674528 960.6 
L 185.291818 729.97056 
L 209.640909 555.1488 
L 233.99 513.748224 
L 258.339091 439.47072 
L 282.688182 419.118336 
L 307.037273 366.41088 
L 331.386364 359.974656 
L 355.735455 322.401024 
L 380.084545 358.235136 
L 404.433636 316.83456 
L 428.782727 313.007616 
L 453.131818 276.8256 
L 477.480909 340.31808 
L 501.83 293.698944 
L 526.179091 382.414464 
L 550.528182 267.606144 
L 574.877273 268.475904 
L 599.226364 235.07712 
L 623.575455 241.16544 
L 647.924545 272.4768 
L 672.273636 276.303744 
L 696.622727 294.568704 
L 720.971818 257.342976 
L 745.320909 266.38848 
L 769.67 260.648064 
L 794.019091 238.55616 
L 818.368182 250.7328 
L 842.717273 303.266304 
L 867.066364 273.694464 
L 891.415455 232.989696 
L 915.764545 263.257344 
L 940.113636 228.11904 
L 964.462727 238.55616 
L 988.811818 203.417856 
L 1013.160909 248.645376 
L 1037.51 248.12352 
L 1061.859091 245.862144 
L 1086.208182 229.85856 
L 1110.557273 246.384 
L 1134.906364 246.384 
L 1159.255455 251.080704 
" style="fill:none;stroke:#4c72b0;stroke-dasharray:14.8,6.4;stroke-dashoffset:0;stroke-width:4;"/>
    <g clip-path="url(#p09acdf1e24)">
     <use style="fill:#4c72b0;stroke:#4c72b0;stroke-linejoin:miter;" x="160.942727" xlink:href="#m3b501ce3db" y="1729.672704"/>
     <use style="fill:#4c72b0;stroke:#4c72b0;stroke-linejoin:miter;" x="185.291818" xlink:href="#m3b501ce3db" y="729.97056"/>
     <use style="fill:#4c72b0;stroke:#4c72b0;stroke-linejoin:miter;" x="209.640909" xlink:href="#m3b501ce3db" y="555.1488"/>
     <use style="fill:#4c72b0;stroke:#4c72b0;stroke-linejoin:miter;" x="233.99" xlink:href="#m3b501ce3db" y="513.748224"/>
     <use style="fill:#4c72b0;stroke:#4c72b0;stroke-linejoin:miter;" x="258.339091" xlink:href="#m3b501ce3db" y="439.47072"/>
     <use style="fill:#4c72b0;stroke:#4c72b0;stroke-linejoin:miter;" x="282.688182" xlink:href="#m3b501ce3db" y="419.118336"/>
     <use style="fill:#4c72b0;stroke:#4c72b0;stroke-linejoin:miter;" x="307.037273" xlink:href="#m3b501ce3db" y="366.41088"/>
     <use style="fill:#4c72b0;stroke:#4c72b0;stroke-linejoin:miter;" x="331.386364" xlink:href="#m3b501ce3db" y="359.974656"/>
     <use style="fill:#4c72b0;stroke:#4c72b0;stroke-linejoin:miter;" x="355.735455" xlink:href="#m3b501ce3db" y="322.401024"/>
     <use style="fill:#4c72b0;stroke:#4c72b0;stroke-linejoin:miter;" x="380.084545" xlink:href="#m3b501ce3db" y="358.235136"/>
     <use style="fill:#4c72b0;stroke:#4c72b0;stroke-linejoin:miter;" x="404.433636" xlink:href="#m3b501ce3db" y="316.83456"/>
     <use style="fill:#4c72b0;stroke:#4c72b0;stroke-linejoin:miter;" x="428.782727" xlink:href="#m3b501ce3db" y="313.007616"/>
     <use style="fill:#4c72b0;stroke:#4c72b0;stroke-linejoin:miter;" x="453.131818" xlink:href="#m3b501ce3db" y="276.8256"/>
     <use style="fill:#4c72b0;stroke:#4c72b0;stroke-linejoin:miter;" x="477.480909" xlink:href="#m3b501ce3db" y="340.31808"/>
     <use style="fill:#4c72b0;stroke:#4c72b0;stroke-linejoin:miter;" x="501.83" xlink:href="#m3b501ce3db" y="293.698944"/>
     <use style="fill:#4c72b0;stroke:#4c72b0;stroke-linejoin:miter;" x="526.179091" xlink:href="#m3b501ce3db" y="382.414464"/>
     <use style="fill:#4c72b0;stroke:#4c72b0;stroke-linejoin:miter;" x="550.528182" xlink:href="#m3b501ce3db" y="267.606144"/>
     <use style="fill:#4c72b0;stroke:#4c72b0;stroke-linejoin:miter;" x="574.877273" xlink:href="#m3b501ce3db" y="268.475904"/>
     <use style="fill:#4c72b0;stroke:#4c72b0;stroke-linejoin:miter;" x="599.226364" xlink:href="#m3b501ce3db" y="235.07712"/>
     <use style="fill:#4c72b0;stroke:#4c72b0;stroke-linejoin:miter;" x="623.575455" xlink:href="#m3b501ce3db" y="241.16544"/>
     <use style="fill:#4c72b0;stroke:#4c72b0;stroke-linejoin:miter;" x="647.924545" xlink:href="#m3b501ce3db" y="272.4768"/>
     <use style="fill:#4c72b0;stroke:#4c72b0;stroke-linejoin:miter;" x="672.273636" xlink:href="#m3b501ce3db" y="276.303744"/>
     <use style="fill:#4c72b0;stroke:#4c72b0;stroke-linejoin:miter;" x="696.622727" xlink:href="#m3b501ce3db" y="294.568704"/>
     <use style="fill:#4c72b0;stroke:#4c72b0;stroke-linejoin:miter;" x="720.971818" xlink:href="#m3b501ce3db" y="257.342976"/>
     <use style="fill:#4c72b0;stroke:#4c72b0;stroke-linejoin:miter;" x="745.320909" xlink:href="#m3b501ce3db" y="266.38848"/>
     <use style="fill:#4c72b0;stroke:#4c72b0;stroke-linejoin:miter;" x="769.67" xlink:href="#m3b501ce3db" y="260.648064"/>
     <use style="fill:#4c72b0;stroke:#4c72b0;stroke-linejoin:miter;" x="794.019091" xlink:href="#m3b501ce3db" y="238.55616"/>
     <use style="fill:#4c72b0;stroke:#4c72b0;stroke-linejoin:miter;" x="818.368182" xlink:href="#m3b501ce3db" y="250.7328"/>
     <use style="fill:#4c72b0;stroke:#4c72b0;stroke-linejoin:miter;" x="842.717273" xlink:href="#m3b501ce3db" y="303.266304"/>
     <use style="fill:#4c72b0;stroke:#4c72b0;stroke-linejoin:miter;" x="867.066364" xlink:href="#m3b501ce3db" y="273.694464"/>
     <use style="fill:#4c72b0;stroke:#4c72b0;stroke-linejoin:miter;" x="891.415455" xlink:href="#m3b501ce3db" y="232.989696"/>
     <use style="fill:#4c72b0;stroke:#4c72b0;stroke-linejoin:miter;" x="915.764545" xlink:href="#m3b501ce3db" y="263.257344"/>
     <use style="fill:#4c72b0;stroke:#4c72b0;stroke-linejoin:miter;" x="940.113636" xlink:href="#m3b501ce3db" y="228.11904"/>
     <use style="fill:#4c72b0;stroke:#4c72b0;stroke-linejoin:miter;" x="964.462727" xlink:href="#m3b501ce3db" y="238.55616"/>
     <use style="fill:#4c72b0;stroke:#4c72b0;stroke-linejoin:miter;" x="988.811818" xlink:href="#m3b501ce3db" y="203.417856"/>
     <use style="fill:#4c72b0;stroke:#4c72b0;stroke-linejoin:miter;" x="1013.160909" xlink:href="#m3b501ce3db" y="248.645376"/>
     <use style="fill:#4c72b0;stroke:#4c72b0;stroke-linejoin:miter;" x="1037.51" xlink:href="#m3b501ce3db" y="248.12352"/>
     <use style="fill:#4c72b0;stroke:#4c72b0;stroke-linejoin:miter;" x="1061.859091" xlink:href="#m3b501ce3db" y="245.862144"/>
     <use style="fill:#4c72b0;stroke:#4c72b0;stroke-linejoin:miter;" x="1086.208182" xlink:href="#m3b501ce3db" y="229.85856"/>
     <use style="fill:#4c72b0;stroke:#4c72b0;stroke-linejoin:miter;" x="1110.557273" xlink:href="#m3b501ce3db" y="246.384"/>
     <use style="fill:#4c72b0;stroke:#4c72b0;stroke-linejoin:miter;" x="1134.906364" xlink:href="#m3b501ce3db" y="246.384"/>
     <use style="fill:#4c72b0;stroke:#4c72b0;stroke-linejoin:miter;" x="1159.255455" xlink:href="#m3b501ce3db" y="251.080704"/>
    </g>
   </g>
   <g id="line2d_21">
    <path clip-path="url(#p09acdf1e24)" d="M 175.787445 960.6 
L 185.291818 719.011584 
L 209.640909 561.23712 
L 233.99 478.60992 
L 258.339091 435.99168 
L 282.688182 417.72672 
L 307.037273 393.895296 
L 331.386364 380.32704 
L 355.735455 393.721344 
L 380.084545 343.275264 
L 404.433636 352.49472 
L 428.782727 307.789056 
L 453.131818 309.87648 
L 477.480909 339.100416 
L 501.83 309.87648 
L 526.179091 328.14144 
L 550.528182 277.69536 
L 574.877273 281.696256 
L 599.226364 294.568704 
L 623.575455 267.25824 
L 647.924545 289.00224 
L 672.273636 309.87648 
L 696.622727 308.484864 
L 720.971818 260.648064 
L 745.320909 315.442944 
L 769.67 250.384896 
L 794.019091 241.687296 
L 818.368182 283.78368 
L 842.717273 271.60704 
L 867.066364 284.131584 
L 891.415455 260.30016 
L 915.764545 282.392064 
L 940.113636 289.872 
L 964.462727 258.038784 
L 988.811818 255.95136 
L 1013.160909 256.299264 
L 1037.51 256.299264 
" style="fill:none;stroke:#dd8452;stroke-dasharray:14.8,6.4;stroke-dashoffset:0;stroke-width:4;"/>
    <g clip-path="url(#p09acdf1e24)">
     <use style="fill:#dd8452;stroke:#dd8452;stroke-linejoin:miter;" x="160.942727" xlink:href="#m953c8fa79e" y="1337.9328"/>
     <use style="fill:#dd8452;stroke:#dd8452;stroke-linejoin:miter;" x="185.291818" xlink:href="#m953c8fa79e" y="719.011584"/>
     <use style="fill:#dd8452;stroke:#dd8452;stroke-linejoin:miter;" x="209.640909" xlink:href="#m953c8fa79e" y="561.23712"/>
     <use style="fill:#dd8452;stroke:#dd8452;stroke-linejoin:miter;" x="233.99" xlink:href="#m953c8fa79e" y="478.60992"/>
     <use style="fill:#dd8452;stroke:#dd8452;stroke-linejoin:miter;" x="258.339091" xlink:href="#m953c8fa79e" y="435.99168"/>
     <use style="fill:#dd8452;stroke:#dd8452;stroke-linejoin:miter;" x="282.688182" xlink:href="#m953c8fa79e" y="417.72672"/>
     <use style="fill:#dd8452;stroke:#dd8452;stroke-linejoin:miter;" x="307.037273" xlink:href="#m953c8fa79e" y="393.895296"/>
     <use style="fill:#dd8452;stroke:#dd8452;stroke-linejoin:miter;" x="331.386364" xlink:href="#m953c8fa79e" y="380.32704"/>
     <use style="fill:#dd8452;stroke:#dd8452;stroke-linejoin:miter;" x="355.735455" xlink:href="#m953c8fa79e" y="393.721344"/>
     <use style="fill:#dd8452;stroke:#dd8452;stroke-linejoin:miter;" x="380.084545" xlink:href="#m953c8fa79e" y="343.275264"/>
     <use style="fill:#dd8452;stroke:#dd8452;stroke-linejoin:miter;" x="404.433636" xlink:href="#m953c8fa79e" y="352.49472"/>
     <use style="fill:#dd8452;stroke:#dd8452;stroke-linejoin:miter;" x="428.782727" xlink:href="#m953c8fa79e" y="307.789056"/>
     <use style="fill:#dd8452;stroke:#dd8452;stroke-linejoin:miter;" x="453.131818" xlink:href="#m953c8fa79e" y="309.87648"/>
     <use style="fill:#dd8452;stroke:#dd8452;stroke-linejoin:miter;" x="477.480909" xlink:href="#m953c8fa79e" y="339.100416"/>
     <use style="fill:#dd8452;stroke:#dd8452;stroke-linejoin:miter;" x="501.83" xlink:href="#m953c8fa79e" y="309.87648"/>
     <use style="fill:#dd8452;stroke:#dd8452;stroke-linejoin:miter;" x="526.179091" xlink:href="#m953c8fa79e" y="328.14144"/>
     <use style="fill:#dd8452;stroke:#dd8452;stroke-linejoin:miter;" x="550.528182" xlink:href="#m953c8fa79e" y="277.69536"/>
     <use style="fill:#dd8452;stroke:#dd8452;stroke-linejoin:miter;" x="574.877273" xlink:href="#m953c8fa79e" y="281.696256"/>
     <use style="fill:#dd8452;stroke:#dd8452;stroke-linejoin:miter;" x="599.226364" xlink:href="#m953c8fa79e" y="294.568704"/>
     <use style="fill:#dd8452;stroke:#dd8452;stroke-linejoin:miter;" x="623.575455" xlink:href="#m953c8fa79e" y="267.25824"/>
     <use style="fill:#dd8452;stroke:#dd8452;stroke-linejoin:miter;" x="647.924545" xlink:href="#m953c8fa79e" y="289.00224"/>
     <use style="fill:#dd8452;stroke:#dd8452;stroke-linejoin:miter;" x="672.273636" xlink:href="#m953c8fa79e" y="309.87648"/>
     <use style="fill:#dd8452;stroke:#dd8452;stroke-linejoin:miter;" x="696.622727" xlink:href="#m953c8fa79e" y="308.484864"/>
     <use style="fill:#dd8452;stroke:#dd8452;stroke-linejoin:miter;" x="720.971818" xlink:href="#m953c8fa79e" y="260.648064"/>
     <use style="fill:#dd8452;stroke:#dd8452;stroke-linejoin:miter;" x="745.320909" xlink:href="#m953c8fa79e" y="315.442944"/>
     <use style="fill:#dd8452;stroke:#dd8452;stroke-linejoin:miter;" x="769.67" xlink:href="#m953c8fa79e" y="250.384896"/>
     <use style="fill:#dd8452;stroke:#dd8452;stroke-linejoin:miter;" x="794.019091" xlink:href="#m953c8fa79e" y="241.687296"/>
     <use style="fill:#dd8452;stroke:#dd8452;stroke-linejoin:miter;" x="818.368182" xlink:href="#m953c8fa79e" y="283.78368"/>
     <use style="fill:#dd8452;stroke:#dd8452;stroke-linejoin:miter;" x="842.717273" xlink:href="#m953c8fa79e" y="271.60704"/>
     <use style="fill:#dd8452;stroke:#dd8452;stroke-linejoin:miter;" x="867.066364" xlink:href="#m953c8fa79e" y="284.131584"/>
     <use style="fill:#dd8452;stroke:#dd8452;stroke-linejoin:miter;" x="891.415455" xlink:href="#m953c8fa79e" y="260.30016"/>
     <use style="fill:#dd8452;stroke:#dd8452;stroke-linejoin:miter;" x="915.764545" xlink:href="#m953c8fa79e" y="282.392064"/>
     <use style="fill:#dd8452;stroke:#dd8452;stroke-linejoin:miter;" x="940.113636" xlink:href="#m953c8fa79e" y="289.872"/>
     <use style="fill:#dd8452;stroke:#dd8452;stroke-linejoin:miter;" x="964.462727" xlink:href="#m953c8fa79e" y="258.038784"/>
     <use style="fill:#dd8452;stroke:#dd8452;stroke-linejoin:miter;" x="988.811818" xlink:href="#m953c8fa79e" y="255.95136"/>
     <use style="fill:#dd8452;stroke:#dd8452;stroke-linejoin:miter;" x="1013.160909" xlink:href="#m953c8fa79e" y="256.299264"/>
     <use style="fill:#dd8452;stroke:#dd8452;stroke-linejoin:miter;" x="1037.51" xlink:href="#m953c8fa79e" y="256.299264"/>
    </g>
   </g>
   <g id="line2d_22">
    <path clip-path="url(#p09acdf1e24)" d="M 182.993991 960.6 
L 185.291818 873.48096 
L 209.640909 629.0784 
L 233.99 562.97664 
L 258.339091 501.745536 
L 282.688182 452.51712 
L 307.037273 465.56352 
L 331.386364 437.7312 
L 355.735455 464.345856 
L 380.084545 431.294976 
L 404.433636 402.07104 
L 428.782727 375.630336 
L 453.131818 365.54112 
L 477.480909 360.670464 
L 501.83 369.368064 
L 526.179091 356.84352 
L 550.528182 350.7552 
L 574.877273 330.75072 
L 599.226364 315.9648 
L 623.575455 305.52768 
L 647.924545 305.52768 
L 672.273636 318.921984 
L 696.622727 324.140544 
L 720.971818 295.96032 
L 745.320909 309.87648 
L 769.67 299.43936 
L 794.019091 292.829184 
L 818.368182 281.522304 
L 842.717273 298.5696 
L 867.066364 283.78368 
L 891.415455 290.393856 
L 915.764545 323.79264 
L 940.113636 278.56512 
L 964.462727 291.089664 
L 988.811818 278.217216 
L 1013.160909 279.956736 
L 1037.51 280.30464 
L 1061.859091 289.350144 
L 1086.208182 268.475904 
L 1110.557273 292.48128 
L 1134.906364 277.173504 
L 1159.255455 298.5696 
L 1183.604545 280.652544 
L 1207.953636 318.921984 
L 1232.302727 293.698944 
L 1256.651818 275.95584 
" style="fill:none;stroke:#c44e52;stroke-dasharray:14.8,6.4;stroke-dashoffset:0;stroke-width:4;"/>
    <g clip-path="url(#p09acdf1e24)">
     <use style="fill:#c44e52;stroke:#c44e52;stroke-linejoin:miter;" x="160.942727" xlink:href="#m50fcc723fd" y="1796.644224"/>
     <use style="fill:#c44e52;stroke:#c44e52;stroke-linejoin:miter;" x="185.291818" xlink:href="#m50fcc723fd" y="873.48096"/>
     <use style="fill:#c44e52;stroke:#c44e52;stroke-linejoin:miter;" x="209.640909" xlink:href="#m50fcc723fd" y="629.0784"/>
     <use style="fill:#c44e52;stroke:#c44e52;stroke-linejoin:miter;" x="233.99" xlink:href="#m50fcc723fd" y="562.97664"/>
     <use style="fill:#c44e52;stroke:#c44e52;stroke-linejoin:miter;" x="258.339091" xlink:href="#m50fcc723fd" y="501.745536"/>
     <use style="fill:#c44e52;stroke:#c44e52;stroke-linejoin:miter;" x="282.688182" xlink:href="#m50fcc723fd" y="452.51712"/>
     <use style="fill:#c44e52;stroke:#c44e52;stroke-linejoin:miter;" x="307.037273" xlink:href="#m50fcc723fd" y="465.56352"/>
     <use style="fill:#c44e52;stroke:#c44e52;stroke-linejoin:miter;" x="331.386364" xlink:href="#m50fcc723fd" y="437.7312"/>
     <use style="fill:#c44e52;stroke:#c44e52;stroke-linejoin:miter;" x="355.735455" xlink:href="#m50fcc723fd" y="464.345856"/>
     <use style="fill:#c44e52;stroke:#c44e52;stroke-linejoin:miter;" x="380.084545" xlink:href="#m50fcc723fd" y="431.294976"/>
     <use style="fill:#c44e52;stroke:#c44e52;stroke-linejoin:miter;" x="404.433636" xlink:href="#m50fcc723fd" y="402.07104"/>
     <use style="fill:#c44e52;stroke:#c44e52;stroke-linejoin:miter;" x="428.782727" xlink:href="#m50fcc723fd" y="375.630336"/>
     <use style="fill:#c44e52;stroke:#c44e52;stroke-linejoin:miter;" x="453.131818" xlink:href="#m50fcc723fd" y="365.54112"/>
     <use style="fill:#c44e52;stroke:#c44e52;stroke-linejoin:miter;" x="477.480909" xlink:href="#m50fcc723fd" y="360.670464"/>
     <use style="fill:#c44e52;stroke:#c44e52;stroke-linejoin:miter;" x="501.83" xlink:href="#m50fcc723fd" y="369.368064"/>
     <use style="fill:#c44e52;stroke:#c44e52;stroke-linejoin:miter;" x="526.179091" xlink:href="#m50fcc723fd" y="356.84352"/>
     <use style="fill:#c44e52;stroke:#c44e52;stroke-linejoin:miter;" x="550.528182" xlink:href="#m50fcc723fd" y="350.7552"/>
     <use style="fill:#c44e52;stroke:#c44e52;stroke-linejoin:miter;" x="574.877273" xlink:href="#m50fcc723fd" y="330.75072"/>
     <use style="fill:#c44e52;stroke:#c44e52;stroke-linejoin:miter;" x="599.226364" xlink:href="#m50fcc723fd" y="315.9648"/>
     <use style="fill:#c44e52;stroke:#c44e52;stroke-linejoin:miter;" x="623.575455" xlink:href="#m50fcc723fd" y="305.52768"/>
     <use style="fill:#c44e52;stroke:#c44e52;stroke-linejoin:miter;" x="647.924545" xlink:href="#m50fcc723fd" y="305.52768"/>
     <use style="fill:#c44e52;stroke:#c44e52;stroke-linejoin:miter;" x="672.273636" xlink:href="#m50fcc723fd" y="318.921984"/>
     <use style="fill:#c44e52;stroke:#c44e52;stroke-linejoin:miter;" x="696.622727" xlink:href="#m50fcc723fd" y="324.140544"/>
     <use style="fill:#c44e52;stroke:#c44e52;stroke-linejoin:miter;" x="720.971818" xlink:href="#m50fcc723fd" y="295.96032"/>
     <use style="fill:#c44e52;stroke:#c44e52;stroke-linejoin:miter;" x="745.320909" xlink:href="#m50fcc723fd" y="309.87648"/>
     <use style="fill:#c44e52;stroke:#c44e52;stroke-linejoin:miter;" x="769.67" xlink:href="#m50fcc723fd" y="299.43936"/>
     <use style="fill:#c44e52;stroke:#c44e52;stroke-linejoin:miter;" x="794.019091" xlink:href="#m50fcc723fd" y="292.829184"/>
     <use style="fill:#c44e52;stroke:#c44e52;stroke-linejoin:miter;" x="818.368182" xlink:href="#m50fcc723fd" y="281.522304"/>
     <use style="fill:#c44e52;stroke:#c44e52;stroke-linejoin:miter;" x="842.717273" xlink:href="#m50fcc723fd" y="298.5696"/>
     <use style="fill:#c44e52;stroke:#c44e52;stroke-linejoin:miter;" x="867.066364" xlink:href="#m50fcc723fd" y="283.78368"/>
     <use style="fill:#c44e52;stroke:#c44e52;stroke-linejoin:miter;" x="891.415455" xlink:href="#m50fcc723fd" y="290.393856"/>
     <use style="fill:#c44e52;stroke:#c44e52;stroke-linejoin:miter;" x="915.764545" xlink:href="#m50fcc723fd" y="323.79264"/>
     <use style="fill:#c44e52;stroke:#c44e52;stroke-linejoin:miter;" x="940.113636" xlink:href="#m50fcc723fd" y="278.56512"/>
     <use style="fill:#c44e52;stroke:#c44e52;stroke-linejoin:miter;" x="964.462727" xlink:href="#m50fcc723fd" y="291.089664"/>
     <use style="fill:#c44e52;stroke:#c44e52;stroke-linejoin:miter;" x="988.811818" xlink:href="#m50fcc723fd" y="278.217216"/>
     <use style="fill:#c44e52;stroke:#c44e52;stroke-linejoin:miter;" x="1013.160909" xlink:href="#m50fcc723fd" y="279.956736"/>
     <use style="fill:#c44e52;stroke:#c44e52;stroke-linejoin:miter;" x="1037.51" xlink:href="#m50fcc723fd" y="280.30464"/>
     <use style="fill:#c44e52;stroke:#c44e52;stroke-linejoin:miter;" x="1061.859091" xlink:href="#m50fcc723fd" y="289.350144"/>
     <use style="fill:#c44e52;stroke:#c44e52;stroke-linejoin:miter;" x="1086.208182" xlink:href="#m50fcc723fd" y="268.475904"/>
     <use style="fill:#c44e52;stroke:#c44e52;stroke-linejoin:miter;" x="1110.557273" xlink:href="#m50fcc723fd" y="292.48128"/>
     <use style="fill:#c44e52;stroke:#c44e52;stroke-linejoin:miter;" x="1134.906364" xlink:href="#m50fcc723fd" y="277.173504"/>
     <use style="fill:#c44e52;stroke:#c44e52;stroke-linejoin:miter;" x="1159.255455" xlink:href="#m50fcc723fd" y="298.5696"/>
     <use style="fill:#c44e52;stroke:#c44e52;stroke-linejoin:miter;" x="1183.604545" xlink:href="#m50fcc723fd" y="280.652544"/>
     <use style="fill:#c44e52;stroke:#c44e52;stroke-linejoin:miter;" x="1207.953636" xlink:href="#m50fcc723fd" y="318.921984"/>
     <use style="fill:#c44e52;stroke:#c44e52;stroke-linejoin:miter;" x="1232.302727" xlink:href="#m50fcc723fd" y="293.698944"/>
     <use style="fill:#c44e52;stroke:#c44e52;stroke-linejoin:miter;" x="1256.651818" xlink:href="#m50fcc723fd" y="275.95584"/>
    </g>
   </g>
   <g id="patch_3">
    <path d="M 100.07 876.96 
L 100.07 7.2 
" style="fill:none;stroke:#ffffff;stroke-linecap:square;stroke-linejoin:miter;stroke-width:1.25;"/>
   </g>
   <g id="patch_4">
    <path d="M 1439.27 876.96 
L 1439.27 7.2 
" style="fill:none;stroke:#ffffff;stroke-linecap:square;stroke-linejoin:miter;stroke-width:1.25;"/>
   </g>
   <g id="patch_5">
    <path d="M 100.07 876.96 
L 1439.27 876.96 
" style="fill:none;stroke:#ffffff;stroke-linecap:square;stroke-linejoin:miter;stroke-width:1.25;"/>
   </g>
   <g id="patch_6">
    <path d="M 100.07 7.2 
L 1439.27 7.2 
" style="fill:none;stroke:#ffffff;stroke-linecap:square;stroke-linejoin:miter;stroke-width:1.25;"/>
   </g>
   <g id="legend_1">
    <g id="patch_7">
     <path d="M 839.66 774.984 
L 1351.31 774.984 
Q 1357.31 774.984 1357.31 768.984 
L 1357.31 639.880875 
Q 1357.31 633.880875 1351.31 633.880875 
L 839.66 633.880875 
Q 833.66 633.880875 833.66 639.880875 
L 833.66 768.984 
Q 833.66 774.984 839.66 774.984 
z
" style="fill:#eaeaf2;opacity:0.8;stroke:#cccccc;stroke-linejoin:miter;"/>
    </g>
    <g id="line2d_23">
     <path d="M 845.66 658.176188 
L 905.66 658.176188 
" style="fill:none;stroke:#4c72b0;stroke-linecap:round;stroke-width:4;"/>
    </g>
    <g id="line2d_24">
     <g>
      <use style="fill:#4c72b0;stroke:#4c72b0;stroke-linejoin:miter;" x="875.66" xlink:href="#m3b501ce3db" y="658.176188"/>
     </g>
    </g>
    <g id="text_14">
     <!-- crnn-train -->
     <g style="fill:#262626;" transform="translate(929.66 668.676188)scale(0.3 -0.3)">
      <defs>
       <path d="M 4.890625 31.390625 
L 31.203125 31.390625 
L 31.203125 23.390625 
L 4.890625 23.390625 
z
" id="DejaVuSans-45"/>
       <path d="M 18.3125 70.21875 
L 18.3125 54.6875 
L 36.8125 54.6875 
L 36.8125 47.703125 
L 18.3125 47.703125 
L 18.3125 18.015625 
Q 18.3125 11.328125 20.140625 9.421875 
Q 21.96875 7.515625 27.59375 7.515625 
L 36.8125 7.515625 
L 36.8125 0 
L 27.59375 0 
Q 17.1875 0 13.234375 3.875 
Q 9.28125 7.765625 9.28125 18.015625 
L 9.28125 47.703125 
L 2.6875 47.703125 
L 2.6875 54.6875 
L 9.28125 54.6875 
L 9.28125 70.21875 
z
" id="DejaVuSans-116"/>
       <path d="M 34.28125 27.484375 
Q 23.390625 27.484375 19.1875 25 
Q 14.984375 22.515625 14.984375 16.5 
Q 14.984375 11.71875 18.140625 8.90625 
Q 21.296875 6.109375 26.703125 6.109375 
Q 34.1875 6.109375 38.703125 11.40625 
Q 43.21875 16.703125 43.21875 25.484375 
L 43.21875 27.484375 
z
M 52.203125 31.203125 
L 52.203125 0 
L 43.21875 0 
L 43.21875 8.296875 
Q 40.140625 3.328125 35.546875 0.953125 
Q 30.953125 -1.421875 24.3125 -1.421875 
Q 15.921875 -1.421875 10.953125 3.296875 
Q 6 8.015625 6 15.921875 
Q 6 25.140625 12.171875 29.828125 
Q 18.359375 34.515625 30.609375 34.515625 
L 43.21875 34.515625 
L 43.21875 35.40625 
Q 43.21875 41.609375 39.140625 45 
Q 35.0625 48.390625 27.6875 48.390625 
Q 23 48.390625 18.546875 47.265625 
Q 14.109375 46.140625 10.015625 43.890625 
L 10.015625 52.203125 
Q 14.9375 54.109375 19.578125 55.046875 
Q 24.21875 56 28.609375 56 
Q 40.484375 56 46.34375 49.84375 
Q 52.203125 43.703125 52.203125 31.203125 
z
" id="DejaVuSans-97"/>
       <path d="M 9.421875 54.6875 
L 18.40625 54.6875 
L 18.40625 0 
L 9.421875 0 
z
M 9.421875 75.984375 
L 18.40625 75.984375 
L 18.40625 64.59375 
L 9.421875 64.59375 
z
" id="DejaVuSans-105"/>
      </defs>
      <use xlink:href="#DejaVuSans-99"/>
      <use x="54.980469" xlink:href="#DejaVuSans-114"/>
      <use x="94.34375" xlink:href="#DejaVuSans-110"/>
      <use x="157.722656" xlink:href="#DejaVuSans-110"/>
      <use x="221.101562" xlink:href="#DejaVuSans-45"/>
      <use x="257.185547" xlink:href="#DejaVuSans-116"/>
      <use x="296.394531" xlink:href="#DejaVuSans-114"/>
      <use x="337.507812" xlink:href="#DejaVuSans-97"/>
      <use x="398.787109" xlink:href="#DejaVuSans-105"/>
      <use x="426.570312" xlink:href="#DejaVuSans-110"/>
     </g>
    </g>
    <g id="line2d_25">
     <path d="M 845.66 702.210563 
L 905.66 702.210563 
" style="fill:none;stroke:#dd8452;stroke-linecap:round;stroke-width:4;"/>
    </g>
    <g id="line2d_26">
     <g>
      <use style="fill:#dd8452;stroke:#dd8452;stroke-linejoin:miter;" x="875.66" xlink:href="#m953c8fa79e" y="702.210563"/>
     </g>
    </g>
    <g id="text_15">
     <!-- cnn-train -->
     <g style="fill:#262626;" transform="translate(929.66 712.710563)scale(0.3 -0.3)">
      <use xlink:href="#DejaVuSans-99"/>
      <use x="54.980469" xlink:href="#DejaVuSans-110"/>
      <use x="118.359375" xlink:href="#DejaVuSans-110"/>
      <use x="181.738281" xlink:href="#DejaVuSans-45"/>
      <use x="217.822266" xlink:href="#DejaVuSans-116"/>
      <use x="257.03125" xlink:href="#DejaVuSans-114"/>
      <use x="298.144531" xlink:href="#DejaVuSans-97"/>
      <use x="359.423828" xlink:href="#DejaVuSans-105"/>
      <use x="387.207031" xlink:href="#DejaVuSans-110"/>
     </g>
    </g>
    <g id="line2d_27">
     <path d="M 845.66 746.244938 
L 905.66 746.244938 
" style="fill:none;stroke:#c44e52;stroke-linecap:round;stroke-width:4;"/>
    </g>
    <g id="line2d_28">
     <g>
      <use style="fill:#c44e52;stroke:#c44e52;stroke-linejoin:miter;" x="875.66" xlink:href="#m50fcc723fd" y="746.244938"/>
     </g>
    </g>
    <g id="text_16">
     <!-- unet-train -->
     <g style="fill:#262626;" transform="translate(929.66 756.744938)scale(0.3 -0.3)">
      <use xlink:href="#DejaVuSans-117"/>
      <use x="63.378906" xlink:href="#DejaVuSans-110"/>
      <use x="126.757812" xlink:href="#DejaVuSans-101"/>
      <use x="188.28125" xlink:href="#DejaVuSans-116"/>
      <use x="227.490234" xlink:href="#DejaVuSans-45"/>
      <use x="263.574219" xlink:href="#DejaVuSans-116"/>
      <use x="302.783203" xlink:href="#DejaVuSans-114"/>
      <use x="343.896484" xlink:href="#DejaVuSans-97"/>
      <use x="405.175781" xlink:href="#DejaVuSans-105"/>
      <use x="432.958984" xlink:href="#DejaVuSans-110"/>
     </g>
    </g>
    <g id="line2d_29">
     <path d="M 1138.55375 658.176188 
L 1198.55375 658.176188 
" style="fill:none;stroke:#4c72b0;stroke-dasharray:14.8,6.4;stroke-dashoffset:0;stroke-width:4;"/>
    </g>
    <g id="line2d_30">
     <g>
      <use style="fill:#4c72b0;stroke:#4c72b0;stroke-linejoin:miter;" x="1168.55375" xlink:href="#m3b501ce3db" y="658.176188"/>
     </g>
    </g>
    <g id="text_17">
     <!-- crnn-val -->
     <g style="fill:#262626;" transform="translate(1222.55375 668.676188)scale(0.3 -0.3)">
      <defs>
       <path d="M 2.984375 54.6875 
L 12.5 54.6875 
L 29.59375 8.796875 
L 46.6875 54.6875 
L 56.203125 54.6875 
L 35.6875 0 
L 23.484375 0 
z
" id="DejaVuSans-118"/>
       <path d="M 9.421875 75.984375 
L 18.40625 75.984375 
L 18.40625 0 
L 9.421875 0 
z
" id="DejaVuSans-108"/>
      </defs>
      <use xlink:href="#DejaVuSans-99"/>
      <use x="54.980469" xlink:href="#DejaVuSans-114"/>
      <use x="94.34375" xlink:href="#DejaVuSans-110"/>
      <use x="157.722656" xlink:href="#DejaVuSans-110"/>
      <use x="221.101562" xlink:href="#DejaVuSans-45"/>
      <use x="254.560547" xlink:href="#DejaVuSans-118"/>
      <use x="313.740234" xlink:href="#DejaVuSans-97"/>
      <use x="375.019531" xlink:href="#DejaVuSans-108"/>
     </g>
    </g>
    <g id="line2d_31">
     <path d="M 1138.55375 702.210563 
L 1198.55375 702.210563 
" style="fill:none;stroke:#dd8452;stroke-dasharray:14.8,6.4;stroke-dashoffset:0;stroke-width:4;"/>
    </g>
    <g id="line2d_32">
     <g>
      <use style="fill:#dd8452;stroke:#dd8452;stroke-linejoin:miter;" x="1168.55375" xlink:href="#m953c8fa79e" y="702.210563"/>
     </g>
    </g>
    <g id="text_18">
     <!-- cnn-val -->
     <g style="fill:#262626;" transform="translate(1222.55375 712.710563)scale(0.3 -0.3)">
      <use xlink:href="#DejaVuSans-99"/>
      <use x="54.980469" xlink:href="#DejaVuSans-110"/>
      <use x="118.359375" xlink:href="#DejaVuSans-110"/>
      <use x="181.738281" xlink:href="#DejaVuSans-45"/>
      <use x="215.197266" xlink:href="#DejaVuSans-118"/>
      <use x="274.376953" xlink:href="#DejaVuSans-97"/>
      <use x="335.65625" xlink:href="#DejaVuSans-108"/>
     </g>
    </g>
    <g id="line2d_33">
     <path d="M 1138.55375 746.244938 
L 1198.55375 746.244938 
" style="fill:none;stroke:#c44e52;stroke-dasharray:14.8,6.4;stroke-dashoffset:0;stroke-width:4;"/>
    </g>
    <g id="line2d_34">
     <g>
      <use style="fill:#c44e52;stroke:#c44e52;stroke-linejoin:miter;" x="1168.55375" xlink:href="#m50fcc723fd" y="746.244938"/>
     </g>
    </g>
    <g id="text_19">
     <!-- unet-val -->
     <g style="fill:#262626;" transform="translate(1222.55375 756.744938)scale(0.3 -0.3)">
      <use xlink:href="#DejaVuSans-117"/>
      <use x="63.378906" xlink:href="#DejaVuSans-110"/>
      <use x="126.757812" xlink:href="#DejaVuSans-101"/>
      <use x="188.28125" xlink:href="#DejaVuSans-116"/>
      <use x="227.490234" xlink:href="#DejaVuSans-45"/>
      <use x="260.949219" xlink:href="#DejaVuSans-118"/>
      <use x="320.128906" xlink:href="#DejaVuSans-97"/>
      <use x="381.408203" xlink:href="#DejaVuSans-108"/>
     </g>
    </g>
   </g>
  </g>
  <g id="axes_2">
   <g id="matplotlib.axis_3">
    <g id="ytick_6">
     <g id="line2d_35">
      <path clip-path="url(#p09acdf1e24)" d="M 100.07 789.984 
L 1439.27 789.984 
" style="fill:none;stroke:#ffffff;stroke-linecap:round;"/>
     </g>
     <g id="line2d_36">
      <defs>
       <path d="M 0 0 
L 6 0 
" id="mbfd170d9b0" style="stroke:#262626;stroke-width:1.25;"/>
      </defs>
      <g>
       <use style="fill:#262626;stroke:#262626;stroke-width:1.25;" x="1439.27" xlink:href="#mbfd170d9b0" y="789.984"/>
      </g>
     </g>
     <g id="text_20">
      <!-- 0.0 -->
      <g style="fill:#262626;" transform="translate(1448.77 800.621813)scale(0.28 -0.28)">
       <use xlink:href="#DejaVuSans-48"/>
       <use x="63.623047" xlink:href="#DejaVuSans-46"/>
       <use x="95.410156" xlink:href="#DejaVuSans-48"/>
      </g>
     </g>
    </g>
    <g id="ytick_7">
     <g id="line2d_37">
      <path clip-path="url(#p09acdf1e24)" d="M 100.07 616.032 
L 1439.27 616.032 
" style="fill:none;stroke:#ffffff;stroke-linecap:round;"/>
     </g>
     <g id="line2d_38">
      <g>
       <use style="fill:#262626;stroke:#262626;stroke-width:1.25;" x="1439.27" xlink:href="#mbfd170d9b0" y="616.032"/>
      </g>
     </g>
     <g id="text_21">
      <!-- 0.5 -->
      <g style="fill:#262626;" transform="translate(1448.77 626.669813)scale(0.28 -0.28)">
       <defs>
        <path d="M 10.796875 72.90625 
L 49.515625 72.90625 
L 49.515625 64.59375 
L 19.828125 64.59375 
L 19.828125 46.734375 
Q 21.96875 47.46875 24.109375 47.828125 
Q 26.265625 48.1875 28.421875 48.1875 
Q 40.625 48.1875 47.75 41.5 
Q 54.890625 34.8125 54.890625 23.390625 
Q 54.890625 11.625 47.5625 5.09375 
Q 40.234375 -1.421875 26.90625 -1.421875 
Q 22.3125 -1.421875 17.546875 -0.640625 
Q 12.796875 0.140625 7.71875 1.703125 
L 7.71875 11.625 
Q 12.109375 9.234375 16.796875 8.0625 
Q 21.484375 6.890625 26.703125 6.890625 
Q 35.15625 6.890625 40.078125 11.328125 
Q 45.015625 15.765625 45.015625 23.390625 
Q 45.015625 31 40.078125 35.4375 
Q 35.15625 39.890625 26.703125 39.890625 
Q 22.75 39.890625 18.8125 39.015625 
Q 14.890625 38.140625 10.796875 36.28125 
z
" id="DejaVuSans-53"/>
       </defs>
       <use xlink:href="#DejaVuSans-48"/>
       <use x="63.623047" xlink:href="#DejaVuSans-46"/>
       <use x="95.410156" xlink:href="#DejaVuSans-53"/>
      </g>
     </g>
    </g>
    <g id="ytick_8">
     <g id="line2d_39">
      <path clip-path="url(#p09acdf1e24)" d="M 100.07 442.08 
L 1439.27 442.08 
" style="fill:none;stroke:#ffffff;stroke-linecap:round;"/>
     </g>
     <g id="line2d_40">
      <g>
       <use style="fill:#262626;stroke:#262626;stroke-width:1.25;" x="1439.27" xlink:href="#mbfd170d9b0" y="442.08"/>
      </g>
     </g>
     <g id="text_22">
      <!-- 1.0 -->
      <g style="fill:#262626;" transform="translate(1448.77 452.717812)scale(0.28 -0.28)">
       <use xlink:href="#DejaVuSans-49"/>
       <use x="63.623047" xlink:href="#DejaVuSans-46"/>
       <use x="95.410156" xlink:href="#DejaVuSans-48"/>
      </g>
     </g>
    </g>
    <g id="ytick_9">
     <g id="line2d_41">
      <path clip-path="url(#p09acdf1e24)" d="M 100.07 268.128 
L 1439.27 268.128 
" style="fill:none;stroke:#ffffff;stroke-linecap:round;"/>
     </g>
     <g id="line2d_42">
      <g>
       <use style="fill:#262626;stroke:#262626;stroke-width:1.25;" x="1439.27" xlink:href="#mbfd170d9b0" y="268.128"/>
      </g>
     </g>
     <g id="text_23">
      <!-- 1.5 -->
      <g style="fill:#262626;" transform="translate(1448.77 278.765812)scale(0.28 -0.28)">
       <use xlink:href="#DejaVuSans-49"/>
       <use x="63.623047" xlink:href="#DejaVuSans-46"/>
       <use x="95.410156" xlink:href="#DejaVuSans-53"/>
      </g>
     </g>
    </g>
    <g id="ytick_10">
     <g id="line2d_43">
      <path clip-path="url(#p09acdf1e24)" d="M 100.07 94.176 
L 1439.27 94.176 
" style="fill:none;stroke:#ffffff;stroke-linecap:round;"/>
     </g>
     <g id="line2d_44">
      <g>
       <use style="fill:#262626;stroke:#262626;stroke-width:1.25;" x="1439.27" xlink:href="#mbfd170d9b0" y="94.176"/>
      </g>
     </g>
     <g id="text_24">
      <!-- 2.0 -->
      <g style="fill:#262626;" transform="translate(1448.77 104.813812)scale(0.28 -0.28)">
       <use xlink:href="#DejaVuSans-50"/>
       <use x="63.623047" xlink:href="#DejaVuSans-46"/>
       <use x="95.410156" xlink:href="#DejaVuSans-48"/>
      </g>
     </g>
    </g>
    <g id="text_25">
     <!-- $10^3\times$Learning Rate (n.u.) -->
     <g style="fill:#262626;" transform="translate(1533.69875 702.08)rotate(-90)scale(0.4 -0.4)">
      <defs>
       <path d="M 40.578125 39.3125 
Q 47.65625 37.796875 51.625 33 
Q 55.609375 28.21875 55.609375 21.1875 
Q 55.609375 10.40625 48.1875 4.484375 
Q 40.765625 -1.421875 27.09375 -1.421875 
Q 22.515625 -1.421875 17.65625 -0.515625 
Q 12.796875 0.390625 7.625 2.203125 
L 7.625 11.71875 
Q 11.71875 9.328125 16.59375 8.109375 
Q 21.484375 6.890625 26.8125 6.890625 
Q 36.078125 6.890625 40.9375 10.546875 
Q 45.796875 14.203125 45.796875 21.1875 
Q 45.796875 27.640625 41.28125 31.265625 
Q 36.765625 34.90625 28.71875 34.90625 
L 20.21875 34.90625 
L 20.21875 43.015625 
L 29.109375 43.015625 
Q 36.375 43.015625 40.234375 45.921875 
Q 44.09375 48.828125 44.09375 54.296875 
Q 44.09375 59.90625 40.109375 62.90625 
Q 36.140625 65.921875 28.71875 65.921875 
Q 24.65625 65.921875 20.015625 65.03125 
Q 15.375 64.15625 9.8125 62.3125 
L 9.8125 71.09375 
Q 15.4375 72.65625 20.34375 73.4375 
Q 25.25 74.21875 29.59375 74.21875 
Q 40.828125 74.21875 47.359375 69.109375 
Q 53.90625 64.015625 53.90625 55.328125 
Q 53.90625 49.265625 50.4375 45.09375 
Q 46.96875 40.921875 40.578125 39.3125 
z
" id="DejaVuSans-51"/>
       <path d="M 70.125 53.71875 
L 47.796875 31.296875 
L 70.125 8.984375 
L 64.3125 3.078125 
L 41.890625 25.484375 
L 19.484375 3.078125 
L 13.71875 8.984375 
L 35.984375 31.296875 
L 13.71875 53.71875 
L 19.484375 59.625 
L 41.890625 37.203125 
L 64.3125 59.625 
z
" id="DejaVuSans-215"/>
       <path d="M 9.8125 72.90625 
L 19.671875 72.90625 
L 19.671875 8.296875 
L 55.171875 8.296875 
L 55.171875 0 
L 9.8125 0 
z
" id="DejaVuSans-76"/>
       <path d="M 45.40625 27.984375 
Q 45.40625 37.75 41.375 43.109375 
Q 37.359375 48.484375 30.078125 48.484375 
Q 22.859375 48.484375 18.828125 43.109375 
Q 14.796875 37.75 14.796875 27.984375 
Q 14.796875 18.265625 18.828125 12.890625 
Q 22.859375 7.515625 30.078125 7.515625 
Q 37.359375 7.515625 41.375 12.890625 
Q 45.40625 18.265625 45.40625 27.984375 
z
M 54.390625 6.78125 
Q 54.390625 -7.171875 48.1875 -13.984375 
Q 42 -20.796875 29.203125 -20.796875 
Q 24.46875 -20.796875 20.265625 -20.09375 
Q 16.0625 -19.390625 12.109375 -17.921875 
L 12.109375 -9.1875 
Q 16.0625 -11.328125 19.921875 -12.34375 
Q 23.78125 -13.375 27.78125 -13.375 
Q 36.625 -13.375 41.015625 -8.765625 
Q 45.40625 -4.15625 45.40625 5.171875 
L 45.40625 9.625 
Q 42.625 4.78125 38.28125 2.390625 
Q 33.9375 0 27.875 0 
Q 17.828125 0 11.671875 7.65625 
Q 5.515625 15.328125 5.515625 27.984375 
Q 5.515625 40.671875 11.671875 48.328125 
Q 17.828125 56 27.875 56 
Q 33.9375 56 38.28125 53.609375 
Q 42.625 51.21875 45.40625 46.390625 
L 45.40625 54.6875 
L 54.390625 54.6875 
z
" id="DejaVuSans-103"/>
      </defs>
      <use transform="translate(0 0.765625)" xlink:href="#DejaVuSans-49"/>
      <use transform="translate(63.623047 0.765625)" xlink:href="#DejaVuSans-48"/>
      <use transform="translate(128.203125 39.046875)scale(0.7)" xlink:href="#DejaVuSans-51"/>
      <use transform="translate(194.956055 0.765625)" xlink:href="#DejaVuSans-215"/>
      <use transform="translate(298.227539 0.765625)" xlink:href="#DejaVuSans-76"/>
      <use transform="translate(353.94043 0.765625)" xlink:href="#DejaVuSans-101"/>
      <use transform="translate(415.463867 0.765625)" xlink:href="#DejaVuSans-97"/>
      <use transform="translate(476.743164 0.765625)" xlink:href="#DejaVuSans-114"/>
      <use transform="translate(517.856445 0.765625)" xlink:href="#DejaVuSans-110"/>
      <use transform="translate(581.235352 0.765625)" xlink:href="#DejaVuSans-105"/>
      <use transform="translate(609.018555 0.765625)" xlink:href="#DejaVuSans-110"/>
      <use transform="translate(672.397461 0.765625)" xlink:href="#DejaVuSans-103"/>
      <use transform="translate(735.874023 0.765625)" xlink:href="#DejaVuSans-32"/>
      <use transform="translate(767.661133 0.765625)" xlink:href="#DejaVuSans-82"/>
      <use transform="translate(837.143555 0.765625)" xlink:href="#DejaVuSans-97"/>
      <use transform="translate(898.422852 0.765625)" xlink:href="#DejaVuSans-116"/>
      <use transform="translate(937.631836 0.765625)" xlink:href="#DejaVuSans-101"/>
      <use transform="translate(999.155273 0.765625)" xlink:href="#DejaVuSans-32"/>
      <use transform="translate(1030.942383 0.765625)" xlink:href="#DejaVuSans-40"/>
      <use transform="translate(1069.956055 0.765625)" xlink:href="#DejaVuSans-110"/>
      <use transform="translate(1133.334961 0.765625)" xlink:href="#DejaVuSans-46"/>
      <use transform="translate(1165.12207 0.765625)" xlink:href="#DejaVuSans-117"/>
      <use transform="translate(1228.500977 0.765625)" xlink:href="#DejaVuSans-46"/>
      <use transform="translate(1260.288086 0.765625)" xlink:href="#DejaVuSans-41"/>
     </g>
    </g>
   </g>
   <g id="line2d_45">
    <path clip-path="url(#p09acdf1e24)" d="M 161.429709 762.150377 
L 165.812545 762.021347 
L 170.195382 761.681259 
L 174.578218 761.130327 
L 178.961055 760.368898 
L 183.343891 759.397455 
L 187.726727 758.216612 
L 192.596545 756.659884 
L 197.466364 754.846776 
L 202.336182 752.778705 
L 207.206 750.457283 
L 212.075818 747.884323 
L 216.945636 745.061833 
L 221.815455 741.992015 
L 226.685273 738.677266 
L 232.042073 734.75124 
L 237.398873 730.535689 
L 242.755673 726.034593 
L 248.112473 721.252204 
L 253.956255 715.719551 
L 259.800036 709.863734 
L 265.643818 703.691332 
L 271.4876 697.209283 
L 277.818364 689.846091 
L 284.149127 682.137761 
L 290.479891 674.094458 
L 297.297636 665.070003 
L 304.115382 655.683174 
L 311.420109 645.240055 
L 318.724836 634.415772 
L 326.516545 622.471169 
L 334.795236 609.355253 
L 343.560909 595.023063 
L 352.326582 580.268997 
L 362.066218 563.426202 
L 372.292836 545.28785 
L 383.493418 524.961913 
L 396.154945 501.508126 
L 411.251382 473.048955 
L 433.165564 431.196324 
L 462.871455 374.511674 
L 477.967891 346.198476 
L 490.629418 322.917009 
L 501.83 302.780685 
L 512.056618 284.845254 
L 521.796255 268.221501 
L 530.561927 253.685508 
L 538.840618 240.361518 
L 547.119309 227.461072 
L 554.911018 215.732449 
L 562.215745 205.121868 
L 569.520473 194.902926 
L 576.338218 185.734432 
L 583.155964 176.936762 
L 589.486727 169.111306 
L 595.817491 161.627521 
L 602.148255 154.495277 
L 607.992036 148.231829 
L 613.835818 142.282979 
L 619.6796 136.655411 
L 625.523382 131.355451 
L 630.880182 126.790042 
L 636.236982 122.509235 
L 641.593782 118.517072 
L 646.950582 114.817324 
L 651.8204 111.710609 
L 656.690218 108.850875 
L 661.560036 106.240352 
L 666.429855 103.88108 
L 671.299673 101.774898 
L 676.169491 99.92345 
L 681.039309 98.328183 
L 685.422145 97.112509 
L 689.804982 96.10612 
L 694.187818 95.309652 
L 698.570655 94.723609 
L 702.953491 94.348361 
L 707.336327 94.184146 
L 714.641055 94.21493 
L 724.867673 94.455576 
L 735.094291 94.915789 
L 745.320909 95.595277 
L 755.547527 96.493612 
L 765.774145 97.610225 
L 776.000764 98.944412 
L 786.227382 100.49533 
L 796.454 102.261999 
L 807.1676 104.342985 
L 817.8812 106.65809 
L 828.5948 109.20571 
L 839.3084 111.98408 
L 850.022 114.991272 
L 860.7356 118.225203 
L 871.4492 121.683631 
L 882.649782 125.536691 
L 893.850364 129.629579 
L 905.050945 133.959194 
L 916.251527 138.522257 
L 927.939091 143.528865 
L 939.626655 148.781765 
L 951.314218 154.276624 
L 963.488764 160.252836 
L 975.663309 166.481321 
L 987.837855 172.956503 
L 1000.499382 179.946155 
L 1013.160909 187.189597 
L 1026.309418 194.972731 
L 1039.457927 203.013862 
L 1053.093418 211.616339 
L 1066.728909 220.477588 
L 1080.851382 229.917493 
L 1095.460836 239.951681 
L 1110.557273 250.593891 
L 1126.140691 261.855661 
L 1142.211091 273.745996 
L 1158.768473 286.27103 
L 1176.299818 299.813532 
L 1194.805127 314.394338 
L 1214.2844 330.027227 
L 1235.224618 347.117918 
L 1258.599745 366.490792 
L 1268.826364 375.048642 
L 1268.826364 375.048642 
" style="fill:none;stroke:#55a868;stroke-dasharray:8,13.2;stroke-dashoffset:0;stroke-width:8;"/>
   </g>
   <g id="patch_8">
    <path d="M 100.07 876.96 
L 100.07 7.2 
" style="fill:none;stroke:#ffffff;stroke-linecap:square;stroke-linejoin:miter;stroke-width:1.25;"/>
   </g>
   <g id="patch_9">
    <path d="M 1439.27 876.96 
L 1439.27 7.2 
" style="fill:none;stroke:#ffffff;stroke-linecap:square;stroke-linejoin:miter;stroke-width:1.25;"/>
   </g>
   <g id="patch_10">
    <path d="M 100.07 876.96 
L 1439.27 876.96 
" style="fill:none;stroke:#ffffff;stroke-linecap:square;stroke-linejoin:miter;stroke-width:1.25;"/>
   </g>
   <g id="patch_11">
    <path d="M 100.07 7.2 
L 1439.27 7.2 
" style="fill:none;stroke:#ffffff;stroke-linecap:square;stroke-linejoin:miter;stroke-width:1.25;"/>
   </g>
   <g id="legend_2">
    <g id="patch_12">
     <path d="M 121.07 75.234375 
L 409.9325 75.234375 
Q 415.9325 75.234375 415.9325 69.234375 
L 415.9325 28.2 
Q 415.9325 22.2 409.9325 22.2 
L 121.07 22.2 
Q 115.07 22.2 115.07 28.2 
L 115.07 69.234375 
Q 115.07 75.234375 121.07 75.234375 
z
" style="fill:#eaeaf2;opacity:0.8;stroke:#cccccc;stroke-linejoin:miter;"/>
    </g>
    <g id="line2d_46">
     <path d="M 127.07 46.495312 
L 187.07 46.495312 
" style="fill:none;stroke:#55a868;stroke-dasharray:8,13.2;stroke-dashoffset:0;stroke-width:8;"/>
    </g>
    <g id="line2d_47"/>
    <g id="text_26">
     <!-- learning rate -->
     <g style="fill:#262626;" transform="translate(211.07 56.995312)scale(0.3 -0.3)">
      <use xlink:href="#DejaVuSans-108"/>
      <use x="27.783203" xlink:href="#DejaVuSans-101"/>
      <use x="89.306641" xlink:href="#DejaVuSans-97"/>
      <use x="150.585938" xlink:href="#DejaVuSans-114"/>
      <use x="189.949219" xlink:href="#DejaVuSans-110"/>
      <use x="253.328125" xlink:href="#DejaVuSans-105"/>
      <use x="281.111328" xlink:href="#DejaVuSans-110"/>
      <use x="344.490234" xlink:href="#DejaVuSans-103"/>
      <use x="407.966797" xlink:href="#DejaVuSans-32"/>
      <use x="439.753906" xlink:href="#DejaVuSans-114"/>
      <use x="480.867188" xlink:href="#DejaVuSans-97"/>
      <use x="542.146484" xlink:href="#DejaVuSans-116"/>
      <use x="581.355469" xlink:href="#DejaVuSans-101"/>
     </g>
    </g>
   </g>
  </g>
 </g>
 <defs>
  <clipPath id="p09acdf1e24">
   <rect height="869.76" width="1339.2" x="100.07" y="7.2"/>
  </clipPath>
 </defs>
</svg>
