<?xml version="1.0" encoding="utf-8" standalone="no"?>
<!DOCTYPE svg PUBLIC "-//W3C//DTD SVG 1.1//EN"
  "http://www.w3.org/Graphics/SVG/1.1/DTD/svg11.dtd">
<!-- Created with matplotlib (https://matplotlib.org/) -->
<svg height="746.03125pt" version="1.1" viewBox="0 0 1244.95625 746.03125" width="1244.95625pt" xmlns="http://www.w3.org/2000/svg" xmlns:xlink="http://www.w3.org/1999/xlink">
 <metadata>
  <rdf:RDF xmlns:cc="http://creativecommons.org/ns#" xmlns:dc="http://purl.org/dc/elements/1.1/" xmlns:rdf="http://www.w3.org/1999/02/22-rdf-syntax-ns#">
   <cc:Work>
    <dc:type rdf:resource="http://purl.org/dc/dcmitype/StillImage"/>
    <dc:date>2022-08-18T17:26:29.200232</dc:date>
    <dc:format>image/svg+xml</dc:format>
    <dc:creator>
     <cc:Agent>
      <dc:title>Matplotlib v3.3.4, https://matplotlib.org/</dc:title>
     </cc:Agent>
    </dc:creator>
   </cc:Work>
  </rdf:RDF>
 </metadata>
 <defs>
  <style type="text/css">*{stroke-linecap:butt;stroke-linejoin:round;}</style>
 </defs>
 <g id="figure_1">
  <g id="patch_1">
   <path d="M 0 746.03125 
L 1244.95625 746.03125 
L 1244.95625 0 
L 0 0 
z
" style="fill:#ffffff;"/>
  </g>
  <g id="axes_1">
   <g id="patch_2">
    <path d="M 121.75625 659.52 
L 1237.75625 659.52 
L 1237.75625 7.2 
L 121.75625 7.2 
z
" style="fill:#eaeaf2;"/>
   </g>
   <g id="matplotlib.axis_1">
    <g id="xtick_1">
     <g id="line2d_1">
      <path clip-path="url(#p2c8674fbb5)" d="M 158.773449 659.52 
L 158.773449 7.2 
" style="fill:none;stroke:#ffffff;stroke-linecap:round;"/>
     </g>
     <g id="text_1">
      <!-- 0 -->
      <g style="fill:#262626;" transform="translate(149.865949 690.295625)scale(0.28 -0.28)">
       <defs>
        <path d="M 31.78125 66.40625 
Q 24.171875 66.40625 20.328125 58.90625 
Q 16.5 51.421875 16.5 36.375 
Q 16.5 21.390625 20.328125 13.890625 
Q 24.171875 6.390625 31.78125 6.390625 
Q 39.453125 6.390625 43.28125 13.890625 
Q 47.125 21.390625 47.125 36.375 
Q 47.125 51.421875 43.28125 58.90625 
Q 39.453125 66.40625 31.78125 66.40625 
z
M 31.78125 74.21875 
Q 44.046875 74.21875 50.515625 64.515625 
Q 56.984375 54.828125 56.984375 36.375 
Q 56.984375 17.96875 50.515625 8.265625 
Q 44.046875 -1.421875 31.78125 -1.421875 
Q 19.53125 -1.421875 13.0625 8.265625 
Q 6.59375 17.96875 6.59375 36.375 
Q 6.59375 54.828125 13.0625 64.515625 
Q 19.53125 74.21875 31.78125 74.21875 
z
" id="DejaVuSans-48"/>
       </defs>
       <use xlink:href="#DejaVuSans-48"/>
      </g>
     </g>
    </g>
    <g id="xtick_2">
     <g id="line2d_2">
      <path clip-path="url(#p2c8674fbb5)" d="M 286.904979 659.52 
L 286.904979 7.2 
" style="fill:none;stroke:#ffffff;stroke-linecap:round;"/>
     </g>
     <g id="text_2">
      <!-- 1000 -->
      <g style="fill:#262626;" transform="translate(251.274979 690.295625)scale(0.28 -0.28)">
       <defs>
        <path d="M 12.40625 8.296875 
L 28.515625 8.296875 
L 28.515625 63.921875 
L 10.984375 60.40625 
L 10.984375 69.390625 
L 28.421875 72.90625 
L 38.28125 72.90625 
L 38.28125 8.296875 
L 54.390625 8.296875 
L 54.390625 0 
L 12.40625 0 
z
" id="DejaVuSans-49"/>
       </defs>
       <use xlink:href="#DejaVuSans-49"/>
       <use x="63.623047" xlink:href="#DejaVuSans-48"/>
       <use x="127.246094" xlink:href="#DejaVuSans-48"/>
       <use x="190.869141" xlink:href="#DejaVuSans-48"/>
      </g>
     </g>
    </g>
    <g id="xtick_3">
     <g id="line2d_3">
      <path clip-path="url(#p2c8674fbb5)" d="M 415.036509 659.52 
L 415.036509 7.2 
" style="fill:none;stroke:#ffffff;stroke-linecap:round;"/>
     </g>
     <g id="text_3">
      <!-- 2000 -->
      <g style="fill:#262626;" transform="translate(379.406509 690.295625)scale(0.28 -0.28)">
       <defs>
        <path d="M 19.1875 8.296875 
L 53.609375 8.296875 
L 53.609375 0 
L 7.328125 0 
L 7.328125 8.296875 
Q 12.9375 14.109375 22.625 23.890625 
Q 32.328125 33.6875 34.8125 36.53125 
Q 39.546875 41.84375 41.421875 45.53125 
Q 43.3125 49.21875 43.3125 52.78125 
Q 43.3125 58.59375 39.234375 62.25 
Q 35.15625 65.921875 28.609375 65.921875 
Q 23.96875 65.921875 18.8125 64.3125 
Q 13.671875 62.703125 7.8125 59.421875 
L 7.8125 69.390625 
Q 13.765625 71.78125 18.9375 73 
Q 24.125 74.21875 28.421875 74.21875 
Q 39.75 74.21875 46.484375 68.546875 
Q 53.21875 62.890625 53.21875 53.421875 
Q 53.21875 48.921875 51.53125 44.890625 
Q 49.859375 40.875 45.40625 35.40625 
Q 44.1875 33.984375 37.640625 27.21875 
Q 31.109375 20.453125 19.1875 8.296875 
z
" id="DejaVuSans-50"/>
       </defs>
       <use xlink:href="#DejaVuSans-50"/>
       <use x="63.623047" xlink:href="#DejaVuSans-48"/>
       <use x="127.246094" xlink:href="#DejaVuSans-48"/>
       <use x="190.869141" xlink:href="#DejaVuSans-48"/>
      </g>
     </g>
    </g>
    <g id="xtick_4">
     <g id="line2d_4">
      <path clip-path="url(#p2c8674fbb5)" d="M 543.168039 659.52 
L 543.168039 7.2 
" style="fill:none;stroke:#ffffff;stroke-linecap:round;"/>
     </g>
     <g id="text_4">
      <!-- 3000 -->
      <g style="fill:#262626;" transform="translate(507.538039 690.295625)scale(0.28 -0.28)">
       <defs>
        <path d="M 40.578125 39.3125 
Q 47.65625 37.796875 51.625 33 
Q 55.609375 28.21875 55.609375 21.1875 
Q 55.609375 10.40625 48.1875 4.484375 
Q 40.765625 -1.421875 27.09375 -1.421875 
Q 22.515625 -1.421875 17.65625 -0.515625 
Q 12.796875 0.390625 7.625 2.203125 
L 7.625 11.71875 
Q 11.71875 9.328125 16.59375 8.109375 
Q 21.484375 6.890625 26.8125 6.890625 
Q 36.078125 6.890625 40.9375 10.546875 
Q 45.796875 14.203125 45.796875 21.1875 
Q 45.796875 27.640625 41.28125 31.265625 
Q 36.765625 34.90625 28.71875 34.90625 
L 20.21875 34.90625 
L 20.21875 43.015625 
L 29.109375 43.015625 
Q 36.375 43.015625 40.234375 45.921875 
Q 44.09375 48.828125 44.09375 54.296875 
Q 44.09375 59.90625 40.109375 62.90625 
Q 36.140625 65.921875 28.71875 65.921875 
Q 24.65625 65.921875 20.015625 65.03125 
Q 15.375 64.15625 9.8125 62.3125 
L 9.8125 71.09375 
Q 15.4375 72.65625 20.34375 73.4375 
Q 25.25 74.21875 29.59375 74.21875 
Q 40.828125 74.21875 47.359375 69.109375 
Q 53.90625 64.015625 53.90625 55.328125 
Q 53.90625 49.265625 50.4375 45.09375 
Q 46.96875 40.921875 40.578125 39.3125 
z
" id="DejaVuSans-51"/>
       </defs>
       <use xlink:href="#DejaVuSans-51"/>
       <use x="63.623047" xlink:href="#DejaVuSans-48"/>
       <use x="127.246094" xlink:href="#DejaVuSans-48"/>
       <use x="190.869141" xlink:href="#DejaVuSans-48"/>
      </g>
     </g>
    </g>
    <g id="xtick_5">
     <g id="line2d_5">
      <path clip-path="url(#p2c8674fbb5)" d="M 671.299569 659.52 
L 671.299569 7.2 
" style="fill:none;stroke:#ffffff;stroke-linecap:round;"/>
     </g>
     <g id="text_5">
      <!-- 4000 -->
      <g style="fill:#262626;" transform="translate(635.669569 690.295625)scale(0.28 -0.28)">
       <defs>
        <path d="M 37.796875 64.3125 
L 12.890625 25.390625 
L 37.796875 25.390625 
z
M 35.203125 72.90625 
L 47.609375 72.90625 
L 47.609375 25.390625 
L 58.015625 25.390625 
L 58.015625 17.1875 
L 47.609375 17.1875 
L 47.609375 0 
L 37.796875 0 
L 37.796875 17.1875 
L 4.890625 17.1875 
L 4.890625 26.703125 
z
" id="DejaVuSans-52"/>
       </defs>
       <use xlink:href="#DejaVuSans-52"/>
       <use x="63.623047" xlink:href="#DejaVuSans-48"/>
       <use x="127.246094" xlink:href="#DejaVuSans-48"/>
       <use x="190.869141" xlink:href="#DejaVuSans-48"/>
      </g>
     </g>
    </g>
    <g id="xtick_6">
     <g id="line2d_6">
      <path clip-path="url(#p2c8674fbb5)" d="M 799.431099 659.52 
L 799.431099 7.2 
" style="fill:none;stroke:#ffffff;stroke-linecap:round;"/>
     </g>
     <g id="text_6">
      <!-- 5000 -->
      <g style="fill:#262626;" transform="translate(763.801099 690.295625)scale(0.28 -0.28)">
       <defs>
        <path d="M 10.796875 72.90625 
L 49.515625 72.90625 
L 49.515625 64.59375 
L 19.828125 64.59375 
L 19.828125 46.734375 
Q 21.96875 47.46875 24.109375 47.828125 
Q 26.265625 48.1875 28.421875 48.1875 
Q 40.625 48.1875 47.75 41.5 
Q 54.890625 34.8125 54.890625 23.390625 
Q 54.890625 11.625 47.5625 5.09375 
Q 40.234375 -1.421875 26.90625 -1.421875 
Q 22.3125 -1.421875 17.546875 -0.640625 
Q 12.796875 0.140625 7.71875 1.703125 
L 7.71875 11.625 
Q 12.109375 9.234375 16.796875 8.0625 
Q 21.484375 6.890625 26.703125 6.890625 
Q 35.15625 6.890625 40.078125 11.328125 
Q 45.015625 15.765625 45.015625 23.390625 
Q 45.015625 31 40.078125 35.4375 
Q 35.15625 39.890625 26.703125 39.890625 
Q 22.75 39.890625 18.8125 39.015625 
Q 14.890625 38.140625 10.796875 36.28125 
z
" id="DejaVuSans-53"/>
       </defs>
       <use xlink:href="#DejaVuSans-53"/>
       <use x="63.623047" xlink:href="#DejaVuSans-48"/>
       <use x="127.246094" xlink:href="#DejaVuSans-48"/>
       <use x="190.869141" xlink:href="#DejaVuSans-48"/>
      </g>
     </g>
    </g>
    <g id="xtick_7">
     <g id="line2d_7">
      <path clip-path="url(#p2c8674fbb5)" d="M 927.562629 659.52 
L 927.562629 7.2 
" style="fill:none;stroke:#ffffff;stroke-linecap:round;"/>
     </g>
     <g id="text_7">
      <!-- 6000 -->
      <g style="fill:#262626;" transform="translate(891.932629 690.295625)scale(0.28 -0.28)">
       <defs>
        <path d="M 33.015625 40.375 
Q 26.375 40.375 22.484375 35.828125 
Q 18.609375 31.296875 18.609375 23.390625 
Q 18.609375 15.53125 22.484375 10.953125 
Q 26.375 6.390625 33.015625 6.390625 
Q 39.65625 6.390625 43.53125 10.953125 
Q 47.40625 15.53125 47.40625 23.390625 
Q 47.40625 31.296875 43.53125 35.828125 
Q 39.65625 40.375 33.015625 40.375 
z
M 52.59375 71.296875 
L 52.59375 62.3125 
Q 48.875 64.0625 45.09375 64.984375 
Q 41.3125 65.921875 37.59375 65.921875 
Q 27.828125 65.921875 22.671875 59.328125 
Q 17.53125 52.734375 16.796875 39.40625 
Q 19.671875 43.65625 24.015625 45.921875 
Q 28.375 48.1875 33.59375 48.1875 
Q 44.578125 48.1875 50.953125 41.515625 
Q 57.328125 34.859375 57.328125 23.390625 
Q 57.328125 12.15625 50.6875 5.359375 
Q 44.046875 -1.421875 33.015625 -1.421875 
Q 20.359375 -1.421875 13.671875 8.265625 
Q 6.984375 17.96875 6.984375 36.375 
Q 6.984375 53.65625 15.1875 63.9375 
Q 23.390625 74.21875 37.203125 74.21875 
Q 40.921875 74.21875 44.703125 73.484375 
Q 48.484375 72.75 52.59375 71.296875 
z
" id="DejaVuSans-54"/>
       </defs>
       <use xlink:href="#DejaVuSans-54"/>
       <use x="63.623047" xlink:href="#DejaVuSans-48"/>
       <use x="127.246094" xlink:href="#DejaVuSans-48"/>
       <use x="190.869141" xlink:href="#DejaVuSans-48"/>
      </g>
     </g>
    </g>
    <g id="xtick_8">
     <g id="line2d_8">
      <path clip-path="url(#p2c8674fbb5)" d="M 1055.694159 659.52 
L 1055.694159 7.2 
" style="fill:none;stroke:#ffffff;stroke-linecap:round;"/>
     </g>
     <g id="text_8">
      <!-- 7000 -->
      <g style="fill:#262626;" transform="translate(1020.064159 690.295625)scale(0.28 -0.28)">
       <defs>
        <path d="M 8.203125 72.90625 
L 55.078125 72.90625 
L 55.078125 68.703125 
L 28.609375 0 
L 18.3125 0 
L 43.21875 64.59375 
L 8.203125 64.59375 
z
" id="DejaVuSans-55"/>
       </defs>
       <use xlink:href="#DejaVuSans-55"/>
       <use x="63.623047" xlink:href="#DejaVuSans-48"/>
       <use x="127.246094" xlink:href="#DejaVuSans-48"/>
       <use x="190.869141" xlink:href="#DejaVuSans-48"/>
      </g>
     </g>
    </g>
    <g id="xtick_9">
     <g id="line2d_9">
      <path clip-path="url(#p2c8674fbb5)" d="M 1183.825689 659.52 
L 1183.825689 7.2 
" style="fill:none;stroke:#ffffff;stroke-linecap:round;"/>
     </g>
     <g id="text_9">
      <!-- 8000 -->
      <g style="fill:#262626;" transform="translate(1148.195689 690.295625)scale(0.28 -0.28)">
       <defs>
        <path d="M 31.78125 34.625 
Q 24.75 34.625 20.71875 30.859375 
Q 16.703125 27.09375 16.703125 20.515625 
Q 16.703125 13.921875 20.71875 10.15625 
Q 24.75 6.390625 31.78125 6.390625 
Q 38.8125 6.390625 42.859375 10.171875 
Q 46.921875 13.96875 46.921875 20.515625 
Q 46.921875 27.09375 42.890625 30.859375 
Q 38.875 34.625 31.78125 34.625 
z
M 21.921875 38.8125 
Q 15.578125 40.375 12.03125 44.71875 
Q 8.5 49.078125 8.5 55.328125 
Q 8.5 64.0625 14.71875 69.140625 
Q 20.953125 74.21875 31.78125 74.21875 
Q 42.671875 74.21875 48.875 69.140625 
Q 55.078125 64.0625 55.078125 55.328125 
Q 55.078125 49.078125 51.53125 44.71875 
Q 48 40.375 41.703125 38.8125 
Q 48.828125 37.15625 52.796875 32.3125 
Q 56.78125 27.484375 56.78125 20.515625 
Q 56.78125 9.90625 50.3125 4.234375 
Q 43.84375 -1.421875 31.78125 -1.421875 
Q 19.734375 -1.421875 13.25 4.234375 
Q 6.78125 9.90625 6.78125 20.515625 
Q 6.78125 27.484375 10.78125 32.3125 
Q 14.796875 37.15625 21.921875 38.8125 
z
M 18.3125 54.390625 
Q 18.3125 48.734375 21.84375 45.5625 
Q 25.390625 42.390625 31.78125 42.390625 
Q 38.140625 42.390625 41.71875 45.5625 
Q 45.3125 48.734375 45.3125 54.390625 
Q 45.3125 60.0625 41.71875 63.234375 
Q 38.140625 66.40625 31.78125 66.40625 
Q 25.390625 66.40625 21.84375 63.234375 
Q 18.3125 60.0625 18.3125 54.390625 
z
" id="DejaVuSans-56"/>
       </defs>
       <use xlink:href="#DejaVuSans-56"/>
       <use x="63.623047" xlink:href="#DejaVuSans-48"/>
       <use x="127.246094" xlink:href="#DejaVuSans-48"/>
       <use x="190.869141" xlink:href="#DejaVuSans-48"/>
      </g>
     </g>
    </g>
    <g id="text_10">
     <!-- Step (n.u.) -->
     <g style="fill:#262626;" transform="translate(574.190625 730.5125)scale(0.4 -0.4)">
      <defs>
       <path d="M 53.515625 70.515625 
L 53.515625 60.890625 
Q 47.90625 63.578125 42.921875 64.890625 
Q 37.9375 66.21875 33.296875 66.21875 
Q 25.25 66.21875 20.875 63.09375 
Q 16.5 59.96875 16.5 54.203125 
Q 16.5 49.359375 19.40625 46.890625 
Q 22.3125 44.4375 30.421875 42.921875 
L 36.375 41.703125 
Q 47.40625 39.59375 52.65625 34.296875 
Q 57.90625 29 57.90625 20.125 
Q 57.90625 9.515625 50.796875 4.046875 
Q 43.703125 -1.421875 29.984375 -1.421875 
Q 24.8125 -1.421875 18.96875 -0.25 
Q 13.140625 0.921875 6.890625 3.21875 
L 6.890625 13.375 
Q 12.890625 10.015625 18.65625 8.296875 
Q 24.421875 6.59375 29.984375 6.59375 
Q 38.421875 6.59375 43.015625 9.90625 
Q 47.609375 13.234375 47.609375 19.390625 
Q 47.609375 24.75 44.3125 27.78125 
Q 41.015625 30.8125 33.5 32.328125 
L 27.484375 33.5 
Q 16.453125 35.6875 11.515625 40.375 
Q 6.59375 45.0625 6.59375 53.421875 
Q 6.59375 63.09375 13.40625 68.65625 
Q 20.21875 74.21875 32.171875 74.21875 
Q 37.3125 74.21875 42.625 73.28125 
Q 47.953125 72.359375 53.515625 70.515625 
z
" id="DejaVuSans-83"/>
       <path d="M 18.3125 70.21875 
L 18.3125 54.6875 
L 36.8125 54.6875 
L 36.8125 47.703125 
L 18.3125 47.703125 
L 18.3125 18.015625 
Q 18.3125 11.328125 20.140625 9.421875 
Q 21.96875 7.515625 27.59375 7.515625 
L 36.8125 7.515625 
L 36.8125 0 
L 27.59375 0 
Q 17.1875 0 13.234375 3.875 
Q 9.28125 7.765625 9.28125 18.015625 
L 9.28125 47.703125 
L 2.6875 47.703125 
L 2.6875 54.6875 
L 9.28125 54.6875 
L 9.28125 70.21875 
z
" id="DejaVuSans-116"/>
       <path d="M 56.203125 29.59375 
L 56.203125 25.203125 
L 14.890625 25.203125 
Q 15.484375 15.921875 20.484375 11.0625 
Q 25.484375 6.203125 34.421875 6.203125 
Q 39.59375 6.203125 44.453125 7.46875 
Q 49.3125 8.734375 54.109375 11.28125 
L 54.109375 2.78125 
Q 49.265625 0.734375 44.1875 -0.34375 
Q 39.109375 -1.421875 33.890625 -1.421875 
Q 20.796875 -1.421875 13.15625 6.1875 
Q 5.515625 13.8125 5.515625 26.8125 
Q 5.515625 40.234375 12.765625 48.109375 
Q 20.015625 56 32.328125 56 
Q 43.359375 56 49.78125 48.890625 
Q 56.203125 41.796875 56.203125 29.59375 
z
M 47.21875 32.234375 
Q 47.125 39.59375 43.09375 43.984375 
Q 39.0625 48.390625 32.421875 48.390625 
Q 24.90625 48.390625 20.390625 44.140625 
Q 15.875 39.890625 15.1875 32.171875 
z
" id="DejaVuSans-101"/>
       <path d="M 18.109375 8.203125 
L 18.109375 -20.796875 
L 9.078125 -20.796875 
L 9.078125 54.6875 
L 18.109375 54.6875 
L 18.109375 46.390625 
Q 20.953125 51.265625 25.265625 53.625 
Q 29.59375 56 35.59375 56 
Q 45.5625 56 51.78125 48.09375 
Q 58.015625 40.1875 58.015625 27.296875 
Q 58.015625 14.40625 51.78125 6.484375 
Q 45.5625 -1.421875 35.59375 -1.421875 
Q 29.59375 -1.421875 25.265625 0.953125 
Q 20.953125 3.328125 18.109375 8.203125 
z
M 48.6875 27.296875 
Q 48.6875 37.203125 44.609375 42.84375 
Q 40.53125 48.484375 33.40625 48.484375 
Q 26.265625 48.484375 22.1875 42.84375 
Q 18.109375 37.203125 18.109375 27.296875 
Q 18.109375 17.390625 22.1875 11.75 
Q 26.265625 6.109375 33.40625 6.109375 
Q 40.53125 6.109375 44.609375 11.75 
Q 48.6875 17.390625 48.6875 27.296875 
z
" id="DejaVuSans-112"/>
       <path id="DejaVuSans-32"/>
       <path d="M 31 75.875 
Q 24.46875 64.65625 21.28125 53.65625 
Q 18.109375 42.671875 18.109375 31.390625 
Q 18.109375 20.125 21.3125 9.0625 
Q 24.515625 -2 31 -13.1875 
L 23.1875 -13.1875 
Q 15.875 -1.703125 12.234375 9.375 
Q 8.59375 20.453125 8.59375 31.390625 
Q 8.59375 42.28125 12.203125 53.3125 
Q 15.828125 64.359375 23.1875 75.875 
z
" id="DejaVuSans-40"/>
       <path d="M 54.890625 33.015625 
L 54.890625 0 
L 45.90625 0 
L 45.90625 32.71875 
Q 45.90625 40.484375 42.875 44.328125 
Q 39.84375 48.1875 33.796875 48.1875 
Q 26.515625 48.1875 22.3125 43.546875 
Q 18.109375 38.921875 18.109375 30.90625 
L 18.109375 0 
L 9.078125 0 
L 9.078125 54.6875 
L 18.109375 54.6875 
L 18.109375 46.1875 
Q 21.34375 51.125 25.703125 53.5625 
Q 30.078125 56 35.796875 56 
Q 45.21875 56 50.046875 50.171875 
Q 54.890625 44.34375 54.890625 33.015625 
z
" id="DejaVuSans-110"/>
       <path d="M 10.6875 12.40625 
L 21 12.40625 
L 21 0 
L 10.6875 0 
z
" id="DejaVuSans-46"/>
       <path d="M 8.5 21.578125 
L 8.5 54.6875 
L 17.484375 54.6875 
L 17.484375 21.921875 
Q 17.484375 14.15625 20.5 10.265625 
Q 23.53125 6.390625 29.59375 6.390625 
Q 36.859375 6.390625 41.078125 11.03125 
Q 45.3125 15.671875 45.3125 23.6875 
L 45.3125 54.6875 
L 54.296875 54.6875 
L 54.296875 0 
L 45.3125 0 
L 45.3125 8.40625 
Q 42.046875 3.421875 37.71875 1 
Q 33.40625 -1.421875 27.6875 -1.421875 
Q 18.265625 -1.421875 13.375 4.4375 
Q 8.5 10.296875 8.5 21.578125 
z
M 31.109375 56 
z
" id="DejaVuSans-117"/>
       <path d="M 8.015625 75.875 
L 15.828125 75.875 
Q 23.140625 64.359375 26.78125 53.3125 
Q 30.421875 42.28125 30.421875 31.390625 
Q 30.421875 20.453125 26.78125 9.375 
Q 23.140625 -1.703125 15.828125 -13.1875 
L 8.015625 -13.1875 
Q 14.5 -2 17.703125 9.0625 
Q 20.90625 20.125 20.90625 31.390625 
Q 20.90625 42.671875 17.703125 53.65625 
Q 14.5 64.65625 8.015625 75.875 
z
" id="DejaVuSans-41"/>
      </defs>
      <use xlink:href="#DejaVuSans-83"/>
      <use x="63.476562" xlink:href="#DejaVuSans-116"/>
      <use x="102.685547" xlink:href="#DejaVuSans-101"/>
      <use x="164.208984" xlink:href="#DejaVuSans-112"/>
      <use x="227.685547" xlink:href="#DejaVuSans-32"/>
      <use x="259.472656" xlink:href="#DejaVuSans-40"/>
      <use x="298.486328" xlink:href="#DejaVuSans-110"/>
      <use x="361.865234" xlink:href="#DejaVuSans-46"/>
      <use x="393.652344" xlink:href="#DejaVuSans-117"/>
      <use x="457.03125" xlink:href="#DejaVuSans-46"/>
      <use x="488.818359" xlink:href="#DejaVuSans-41"/>
     </g>
    </g>
   </g>
   <g id="matplotlib.axis_2">
    <g id="ytick_1">
     <g id="line2d_10">
      <path clip-path="url(#p2c8674fbb5)" d="M 121.75625 636.860561 
L 1237.75625 636.860561 
" style="fill:none;stroke:#ffffff;stroke-linecap:round;"/>
     </g>
     <g id="text_11">
      <!-- 0.50 -->
      <g style="fill:#262626;" transform="translate(49.9125 647.498373)scale(0.28 -0.28)">
       <use xlink:href="#DejaVuSans-48"/>
       <use x="63.623047" xlink:href="#DejaVuSans-46"/>
       <use x="95.410156" xlink:href="#DejaVuSans-53"/>
       <use x="159.033203" xlink:href="#DejaVuSans-48"/>
      </g>
     </g>
    </g>
    <g id="ytick_2">
     <g id="line2d_11">
      <path clip-path="url(#p2c8674fbb5)" d="M 121.75625 553.610282 
L 1237.75625 553.610282 
" style="fill:none;stroke:#ffffff;stroke-linecap:round;"/>
     </g>
     <g id="text_12">
      <!-- 0.55 -->
      <g style="fill:#262626;" transform="translate(49.9125 564.248094)scale(0.28 -0.28)">
       <use xlink:href="#DejaVuSans-48"/>
       <use x="63.623047" xlink:href="#DejaVuSans-46"/>
       <use x="95.410156" xlink:href="#DejaVuSans-53"/>
       <use x="159.033203" xlink:href="#DejaVuSans-53"/>
      </g>
     </g>
    </g>
    <g id="ytick_3">
     <g id="line2d_12">
      <path clip-path="url(#p2c8674fbb5)" d="M 121.75625 470.360003 
L 1237.75625 470.360003 
" style="fill:none;stroke:#ffffff;stroke-linecap:round;"/>
     </g>
     <g id="text_13">
      <!-- 0.60 -->
      <g style="fill:#262626;" transform="translate(49.9125 480.997815)scale(0.28 -0.28)">
       <use xlink:href="#DejaVuSans-48"/>
       <use x="63.623047" xlink:href="#DejaVuSans-46"/>
       <use x="95.410156" xlink:href="#DejaVuSans-54"/>
       <use x="159.033203" xlink:href="#DejaVuSans-48"/>
      </g>
     </g>
    </g>
    <g id="ytick_4">
     <g id="line2d_13">
      <path clip-path="url(#p2c8674fbb5)" d="M 121.75625 387.109724 
L 1237.75625 387.109724 
" style="fill:none;stroke:#ffffff;stroke-linecap:round;"/>
     </g>
     <g id="text_14">
      <!-- 0.65 -->
      <g style="fill:#262626;" transform="translate(49.9125 397.747536)scale(0.28 -0.28)">
       <use xlink:href="#DejaVuSans-48"/>
       <use x="63.623047" xlink:href="#DejaVuSans-46"/>
       <use x="95.410156" xlink:href="#DejaVuSans-54"/>
       <use x="159.033203" xlink:href="#DejaVuSans-53"/>
      </g>
     </g>
    </g>
    <g id="ytick_5">
     <g id="line2d_14">
      <path clip-path="url(#p2c8674fbb5)" d="M 121.75625 303.859445 
L 1237.75625 303.859445 
" style="fill:none;stroke:#ffffff;stroke-linecap:round;"/>
     </g>
     <g id="text_15">
      <!-- 0.70 -->
      <g style="fill:#262626;" transform="translate(49.9125 314.497257)scale(0.28 -0.28)">
       <use xlink:href="#DejaVuSans-48"/>
       <use x="63.623047" xlink:href="#DejaVuSans-46"/>
       <use x="95.410156" xlink:href="#DejaVuSans-55"/>
       <use x="159.033203" xlink:href="#DejaVuSans-48"/>
      </g>
     </g>
    </g>
    <g id="ytick_6">
     <g id="line2d_15">
      <path clip-path="url(#p2c8674fbb5)" d="M 121.75625 220.609166 
L 1237.75625 220.609166 
" style="fill:none;stroke:#ffffff;stroke-linecap:round;"/>
     </g>
     <g id="text_16">
      <!-- 0.75 -->
      <g style="fill:#262626;" transform="translate(49.9125 231.246978)scale(0.28 -0.28)">
       <use xlink:href="#DejaVuSans-48"/>
       <use x="63.623047" xlink:href="#DejaVuSans-46"/>
       <use x="95.410156" xlink:href="#DejaVuSans-55"/>
       <use x="159.033203" xlink:href="#DejaVuSans-53"/>
      </g>
     </g>
    </g>
    <g id="ytick_7">
     <g id="line2d_16">
      <path clip-path="url(#p2c8674fbb5)" d="M 121.75625 137.358887 
L 1237.75625 137.358887 
" style="fill:none;stroke:#ffffff;stroke-linecap:round;"/>
     </g>
     <g id="text_17">
      <!-- 0.80 -->
      <g style="fill:#262626;" transform="translate(49.9125 147.996699)scale(0.28 -0.28)">
       <use xlink:href="#DejaVuSans-48"/>
       <use x="63.623047" xlink:href="#DejaVuSans-46"/>
       <use x="95.410156" xlink:href="#DejaVuSans-56"/>
       <use x="159.033203" xlink:href="#DejaVuSans-48"/>
      </g>
     </g>
    </g>
    <g id="ytick_8">
     <g id="line2d_17">
      <path clip-path="url(#p2c8674fbb5)" d="M 121.75625 54.108608 
L 1237.75625 54.108608 
" style="fill:none;stroke:#ffffff;stroke-linecap:round;"/>
     </g>
     <g id="text_18">
      <!-- 0.85 -->
      <g style="fill:#262626;" transform="translate(49.9125 64.746421)scale(0.28 -0.28)">
       <use xlink:href="#DejaVuSans-48"/>
       <use x="63.623047" xlink:href="#DejaVuSans-46"/>
       <use x="95.410156" xlink:href="#DejaVuSans-56"/>
       <use x="159.033203" xlink:href="#DejaVuSans-53"/>
      </g>
     </g>
    </g>
    <g id="text_19">
     <!-- Weighted Accuracy (n.u.) -->
     <g style="fill:#262626;" transform="translate(37.59375 585.731875)rotate(-90)scale(0.4 -0.4)">
      <defs>
       <path d="M 3.328125 72.90625 
L 13.28125 72.90625 
L 28.609375 11.28125 
L 43.890625 72.90625 
L 54.984375 72.90625 
L 70.3125 11.28125 
L 85.59375 72.90625 
L 95.609375 72.90625 
L 77.296875 0 
L 64.890625 0 
L 49.515625 63.28125 
L 33.984375 0 
L 21.578125 0 
z
" id="DejaVuSans-87"/>
       <path d="M 9.421875 54.6875 
L 18.40625 54.6875 
L 18.40625 0 
L 9.421875 0 
z
M 9.421875 75.984375 
L 18.40625 75.984375 
L 18.40625 64.59375 
L 9.421875 64.59375 
z
" id="DejaVuSans-105"/>
       <path d="M 45.40625 27.984375 
Q 45.40625 37.75 41.375 43.109375 
Q 37.359375 48.484375 30.078125 48.484375 
Q 22.859375 48.484375 18.828125 43.109375 
Q 14.796875 37.75 14.796875 27.984375 
Q 14.796875 18.265625 18.828125 12.890625 
Q 22.859375 7.515625 30.078125 7.515625 
Q 37.359375 7.515625 41.375 12.890625 
Q 45.40625 18.265625 45.40625 27.984375 
z
M 54.390625 6.78125 
Q 54.390625 -7.171875 48.1875 -13.984375 
Q 42 -20.796875 29.203125 -20.796875 
Q 24.46875 -20.796875 20.265625 -20.09375 
Q 16.0625 -19.390625 12.109375 -17.921875 
L 12.109375 -9.1875 
Q 16.0625 -11.328125 19.921875 -12.34375 
Q 23.78125 -13.375 27.78125 -13.375 
Q 36.625 -13.375 41.015625 -8.765625 
Q 45.40625 -4.15625 45.40625 5.171875 
L 45.40625 9.625 
Q 42.625 4.78125 38.28125 2.390625 
Q 33.9375 0 27.875 0 
Q 17.828125 0 11.671875 7.65625 
Q 5.515625 15.328125 5.515625 27.984375 
Q 5.515625 40.671875 11.671875 48.328125 
Q 17.828125 56 27.875 56 
Q 33.9375 56 38.28125 53.609375 
Q 42.625 51.21875 45.40625 46.390625 
L 45.40625 54.6875 
L 54.390625 54.6875 
z
" id="DejaVuSans-103"/>
       <path d="M 54.890625 33.015625 
L 54.890625 0 
L 45.90625 0 
L 45.90625 32.71875 
Q 45.90625 40.484375 42.875 44.328125 
Q 39.84375 48.1875 33.796875 48.1875 
Q 26.515625 48.1875 22.3125 43.546875 
Q 18.109375 38.921875 18.109375 30.90625 
L 18.109375 0 
L 9.078125 0 
L 9.078125 75.984375 
L 18.109375 75.984375 
L 18.109375 46.1875 
Q 21.34375 51.125 25.703125 53.5625 
Q 30.078125 56 35.796875 56 
Q 45.21875 56 50.046875 50.171875 
Q 54.890625 44.34375 54.890625 33.015625 
z
" id="DejaVuSans-104"/>
       <path d="M 45.40625 46.390625 
L 45.40625 75.984375 
L 54.390625 75.984375 
L 54.390625 0 
L 45.40625 0 
L 45.40625 8.203125 
Q 42.578125 3.328125 38.25 0.953125 
Q 33.9375 -1.421875 27.875 -1.421875 
Q 17.96875 -1.421875 11.734375 6.484375 
Q 5.515625 14.40625 5.515625 27.296875 
Q 5.515625 40.1875 11.734375 48.09375 
Q 17.96875 56 27.875 56 
Q 33.9375 56 38.25 53.625 
Q 42.578125 51.265625 45.40625 46.390625 
z
M 14.796875 27.296875 
Q 14.796875 17.390625 18.875 11.75 
Q 22.953125 6.109375 30.078125 6.109375 
Q 37.203125 6.109375 41.296875 11.75 
Q 45.40625 17.390625 45.40625 27.296875 
Q 45.40625 37.203125 41.296875 42.84375 
Q 37.203125 48.484375 30.078125 48.484375 
Q 22.953125 48.484375 18.875 42.84375 
Q 14.796875 37.203125 14.796875 27.296875 
z
" id="DejaVuSans-100"/>
       <path d="M 34.1875 63.1875 
L 20.796875 26.90625 
L 47.609375 26.90625 
z
M 28.609375 72.90625 
L 39.796875 72.90625 
L 67.578125 0 
L 57.328125 0 
L 50.6875 18.703125 
L 17.828125 18.703125 
L 11.1875 0 
L 0.78125 0 
z
" id="DejaVuSans-65"/>
       <path d="M 48.78125 52.59375 
L 48.78125 44.1875 
Q 44.96875 46.296875 41.140625 47.34375 
Q 37.3125 48.390625 33.40625 48.390625 
Q 24.65625 48.390625 19.8125 42.84375 
Q 14.984375 37.3125 14.984375 27.296875 
Q 14.984375 17.28125 19.8125 11.734375 
Q 24.65625 6.203125 33.40625 6.203125 
Q 37.3125 6.203125 41.140625 7.25 
Q 44.96875 8.296875 48.78125 10.40625 
L 48.78125 2.09375 
Q 45.015625 0.34375 40.984375 -0.53125 
Q 36.96875 -1.421875 32.421875 -1.421875 
Q 20.0625 -1.421875 12.78125 6.34375 
Q 5.515625 14.109375 5.515625 27.296875 
Q 5.515625 40.671875 12.859375 48.328125 
Q 20.21875 56 33.015625 56 
Q 37.15625 56 41.109375 55.140625 
Q 45.0625 54.296875 48.78125 52.59375 
z
" id="DejaVuSans-99"/>
       <path d="M 41.109375 46.296875 
Q 39.59375 47.171875 37.8125 47.578125 
Q 36.03125 48 33.890625 48 
Q 26.265625 48 22.1875 43.046875 
Q 18.109375 38.09375 18.109375 28.8125 
L 18.109375 0 
L 9.078125 0 
L 9.078125 54.6875 
L 18.109375 54.6875 
L 18.109375 46.1875 
Q 20.953125 51.171875 25.484375 53.578125 
Q 30.03125 56 36.53125 56 
Q 37.453125 56 38.578125 55.875 
Q 39.703125 55.765625 41.0625 55.515625 
z
" id="DejaVuSans-114"/>
       <path d="M 34.28125 27.484375 
Q 23.390625 27.484375 19.1875 25 
Q 14.984375 22.515625 14.984375 16.5 
Q 14.984375 11.71875 18.140625 8.90625 
Q 21.296875 6.109375 26.703125 6.109375 
Q 34.1875 6.109375 38.703125 11.40625 
Q 43.21875 16.703125 43.21875 25.484375 
L 43.21875 27.484375 
z
M 52.203125 31.203125 
L 52.203125 0 
L 43.21875 0 
L 43.21875 8.296875 
Q 40.140625 3.328125 35.546875 0.953125 
Q 30.953125 -1.421875 24.3125 -1.421875 
Q 15.921875 -1.421875 10.953125 3.296875 
Q 6 8.015625 6 15.921875 
Q 6 25.140625 12.171875 29.828125 
Q 18.359375 34.515625 30.609375 34.515625 
L 43.21875 34.515625 
L 43.21875 35.40625 
Q 43.21875 41.609375 39.140625 45 
Q 35.0625 48.390625 27.6875 48.390625 
Q 23 48.390625 18.546875 47.265625 
Q 14.109375 46.140625 10.015625 43.890625 
L 10.015625 52.203125 
Q 14.9375 54.109375 19.578125 55.046875 
Q 24.21875 56 28.609375 56 
Q 40.484375 56 46.34375 49.84375 
Q 52.203125 43.703125 52.203125 31.203125 
z
" id="DejaVuSans-97"/>
       <path d="M 32.171875 -5.078125 
Q 28.375 -14.84375 24.75 -17.8125 
Q 21.140625 -20.796875 15.09375 -20.796875 
L 7.90625 -20.796875 
L 7.90625 -13.28125 
L 13.1875 -13.28125 
Q 16.890625 -13.28125 18.9375 -11.515625 
Q 21 -9.765625 23.484375 -3.21875 
L 25.09375 0.875 
L 2.984375 54.6875 
L 12.5 54.6875 
L 29.59375 11.921875 
L 46.6875 54.6875 
L 56.203125 54.6875 
z
" id="DejaVuSans-121"/>
      </defs>
      <use xlink:href="#DejaVuSans-87"/>
      <use x="93.001953" xlink:href="#DejaVuSans-101"/>
      <use x="154.525391" xlink:href="#DejaVuSans-105"/>
      <use x="182.308594" xlink:href="#DejaVuSans-103"/>
      <use x="245.785156" xlink:href="#DejaVuSans-104"/>
      <use x="309.164062" xlink:href="#DejaVuSans-116"/>
      <use x="348.373047" xlink:href="#DejaVuSans-101"/>
      <use x="409.896484" xlink:href="#DejaVuSans-100"/>
      <use x="473.373047" xlink:href="#DejaVuSans-32"/>
      <use x="505.160156" xlink:href="#DejaVuSans-65"/>
      <use x="571.818359" xlink:href="#DejaVuSans-99"/>
      <use x="626.798828" xlink:href="#DejaVuSans-99"/>
      <use x="681.779297" xlink:href="#DejaVuSans-117"/>
      <use x="745.158203" xlink:href="#DejaVuSans-114"/>
      <use x="786.271484" xlink:href="#DejaVuSans-97"/>
      <use x="847.550781" xlink:href="#DejaVuSans-99"/>
      <use x="902.53125" xlink:href="#DejaVuSans-121"/>
      <use x="961.710938" xlink:href="#DejaVuSans-32"/>
      <use x="993.498047" xlink:href="#DejaVuSans-40"/>
      <use x="1032.511719" xlink:href="#DejaVuSans-110"/>
      <use x="1095.890625" xlink:href="#DejaVuSans-46"/>
      <use x="1127.677734" xlink:href="#DejaVuSans-117"/>
      <use x="1191.056641" xlink:href="#DejaVuSans-46"/>
      <use x="1222.84375" xlink:href="#DejaVuSans-41"/>
     </g>
    </g>
   </g>
   <g id="line2d_18">
    <path clip-path="url(#p2c8674fbb5)" d="M 172.483523 626.679435 
L 199.90367 626.679435 
L 227.323818 626.679435 
L 254.743965 623.546781 
L 282.164112 462.528368 
L 309.58426 280.007418 
L 337.004407 225.326817 
L 364.424555 197.87282 
L 391.844702 150.773451 
L 419.26485 108.00461 
L 446.684997 108.145791 
L 474.105144 135.889277 
L 501.525292 122.945905 
L 528.945439 90.969549 
L 556.365587 70.811935 
L 583.785734 134.603786 
L 611.205881 128.121906 
L 638.626029 91.579847 
L 666.046176 102.859407 
L 693.466324 100.780047 
L 720.886471 152.910676 
L 748.306619 103.26054 
L 775.726766 125.609768 
L 803.146913 135.033858 
L 830.567061 106.47346 
L 857.987208 106.968046 
L 885.407356 141.104066 
L 912.827503 140.235887 
L 940.24765 129.648237 
L 967.667798 121.325661 
L 995.087945 150.658523 
L 1022.508093 145.179165 
L 1049.92824 149.847822 
L 1077.348388 144.6367 
L 1104.768535 132.360285 
L 1132.188682 132.451798 
L 1159.60883 124.339842 
L 1187.028977 119.289333 
" style="fill:none;stroke:#4c72b0;stroke-linecap:round;stroke-width:4;"/>
    <defs>
     <path d="M 0 -7 
L -6.657396 -2.163119 
L -4.114497 5.663119 
L 4.114497 5.663119 
L 6.657396 -2.163119 
z
" id="m6e680192fa" style="stroke:#4c72b0;stroke-linejoin:miter;"/>
    </defs>
    <g clip-path="url(#p2c8674fbb5)">
     <use style="fill:#4c72b0;stroke:#4c72b0;stroke-linejoin:miter;" x="172.483523" xlink:href="#m6e680192fa" y="626.679435"/>
     <use style="fill:#4c72b0;stroke:#4c72b0;stroke-linejoin:miter;" x="199.90367" xlink:href="#m6e680192fa" y="626.679435"/>
     <use style="fill:#4c72b0;stroke:#4c72b0;stroke-linejoin:miter;" x="227.323818" xlink:href="#m6e680192fa" y="626.679435"/>
     <use style="fill:#4c72b0;stroke:#4c72b0;stroke-linejoin:miter;" x="254.743965" xlink:href="#m6e680192fa" y="623.546781"/>
     <use style="fill:#4c72b0;stroke:#4c72b0;stroke-linejoin:miter;" x="282.164112" xlink:href="#m6e680192fa" y="462.528368"/>
     <use style="fill:#4c72b0;stroke:#4c72b0;stroke-linejoin:miter;" x="309.58426" xlink:href="#m6e680192fa" y="280.007418"/>
     <use style="fill:#4c72b0;stroke:#4c72b0;stroke-linejoin:miter;" x="337.004407" xlink:href="#m6e680192fa" y="225.326817"/>
     <use style="fill:#4c72b0;stroke:#4c72b0;stroke-linejoin:miter;" x="364.424555" xlink:href="#m6e680192fa" y="197.87282"/>
     <use style="fill:#4c72b0;stroke:#4c72b0;stroke-linejoin:miter;" x="391.844702" xlink:href="#m6e680192fa" y="150.773451"/>
     <use style="fill:#4c72b0;stroke:#4c72b0;stroke-linejoin:miter;" x="419.26485" xlink:href="#m6e680192fa" y="108.00461"/>
     <use style="fill:#4c72b0;stroke:#4c72b0;stroke-linejoin:miter;" x="446.684997" xlink:href="#m6e680192fa" y="108.145791"/>
     <use style="fill:#4c72b0;stroke:#4c72b0;stroke-linejoin:miter;" x="474.105144" xlink:href="#m6e680192fa" y="135.889277"/>
     <use style="fill:#4c72b0;stroke:#4c72b0;stroke-linejoin:miter;" x="501.525292" xlink:href="#m6e680192fa" y="122.945905"/>
     <use style="fill:#4c72b0;stroke:#4c72b0;stroke-linejoin:miter;" x="528.945439" xlink:href="#m6e680192fa" y="90.969549"/>
     <use style="fill:#4c72b0;stroke:#4c72b0;stroke-linejoin:miter;" x="556.365587" xlink:href="#m6e680192fa" y="70.811935"/>
     <use style="fill:#4c72b0;stroke:#4c72b0;stroke-linejoin:miter;" x="583.785734" xlink:href="#m6e680192fa" y="134.603786"/>
     <use style="fill:#4c72b0;stroke:#4c72b0;stroke-linejoin:miter;" x="611.205881" xlink:href="#m6e680192fa" y="128.121906"/>
     <use style="fill:#4c72b0;stroke:#4c72b0;stroke-linejoin:miter;" x="638.626029" xlink:href="#m6e680192fa" y="91.579847"/>
     <use style="fill:#4c72b0;stroke:#4c72b0;stroke-linejoin:miter;" x="666.046176" xlink:href="#m6e680192fa" y="102.859407"/>
     <use style="fill:#4c72b0;stroke:#4c72b0;stroke-linejoin:miter;" x="693.466324" xlink:href="#m6e680192fa" y="100.780047"/>
     <use style="fill:#4c72b0;stroke:#4c72b0;stroke-linejoin:miter;" x="720.886471" xlink:href="#m6e680192fa" y="152.910676"/>
     <use style="fill:#4c72b0;stroke:#4c72b0;stroke-linejoin:miter;" x="748.306619" xlink:href="#m6e680192fa" y="103.26054"/>
     <use style="fill:#4c72b0;stroke:#4c72b0;stroke-linejoin:miter;" x="775.726766" xlink:href="#m6e680192fa" y="125.609768"/>
     <use style="fill:#4c72b0;stroke:#4c72b0;stroke-linejoin:miter;" x="803.146913" xlink:href="#m6e680192fa" y="135.033858"/>
     <use style="fill:#4c72b0;stroke:#4c72b0;stroke-linejoin:miter;" x="830.567061" xlink:href="#m6e680192fa" y="106.47346"/>
     <use style="fill:#4c72b0;stroke:#4c72b0;stroke-linejoin:miter;" x="857.987208" xlink:href="#m6e680192fa" y="106.968046"/>
     <use style="fill:#4c72b0;stroke:#4c72b0;stroke-linejoin:miter;" x="885.407356" xlink:href="#m6e680192fa" y="141.104066"/>
     <use style="fill:#4c72b0;stroke:#4c72b0;stroke-linejoin:miter;" x="912.827503" xlink:href="#m6e680192fa" y="140.235887"/>
     <use style="fill:#4c72b0;stroke:#4c72b0;stroke-linejoin:miter;" x="940.24765" xlink:href="#m6e680192fa" y="129.648237"/>
     <use style="fill:#4c72b0;stroke:#4c72b0;stroke-linejoin:miter;" x="967.667798" xlink:href="#m6e680192fa" y="121.325661"/>
     <use style="fill:#4c72b0;stroke:#4c72b0;stroke-linejoin:miter;" x="995.087945" xlink:href="#m6e680192fa" y="150.658523"/>
     <use style="fill:#4c72b0;stroke:#4c72b0;stroke-linejoin:miter;" x="1022.508093" xlink:href="#m6e680192fa" y="145.179165"/>
     <use style="fill:#4c72b0;stroke:#4c72b0;stroke-linejoin:miter;" x="1049.92824" xlink:href="#m6e680192fa" y="149.847822"/>
     <use style="fill:#4c72b0;stroke:#4c72b0;stroke-linejoin:miter;" x="1077.348388" xlink:href="#m6e680192fa" y="144.6367"/>
     <use style="fill:#4c72b0;stroke:#4c72b0;stroke-linejoin:miter;" x="1104.768535" xlink:href="#m6e680192fa" y="132.360285"/>
     <use style="fill:#4c72b0;stroke:#4c72b0;stroke-linejoin:miter;" x="1132.188682" xlink:href="#m6e680192fa" y="132.451798"/>
     <use style="fill:#4c72b0;stroke:#4c72b0;stroke-linejoin:miter;" x="1159.60883" xlink:href="#m6e680192fa" y="124.339842"/>
     <use style="fill:#4c72b0;stroke:#4c72b0;stroke-linejoin:miter;" x="1187.028977" xlink:href="#m6e680192fa" y="119.289333"/>
    </g>
   </g>
   <g id="line2d_19">
    <path clip-path="url(#p2c8674fbb5)" d="M 172.483523 601.903212 
L 199.90367 619.925667 
L 227.323818 604.248203 
L 254.743965 561.93794 
L 282.164112 513.354346 
L 309.58426 505.600521 
L 337.004407 466.557078 
L 364.424555 495.589608 
L 391.844702 428.979786 
L 419.26485 404.171631 
L 446.684997 417.820553 
L 474.105144 423.769938 
L 501.525292 472.935825 
L 528.945439 438.846879 
L 556.365587 412.074032 
L 583.785734 419.42249 
L 611.205881 413.367438 
L 638.626029 451.375624 
L 666.046176 434.606836 
L 693.466324 482.430284 
L 720.886471 439.986183 
L 748.306619 433.199648 
L 775.726766 462.451158 
L 803.146913 443.151431 
L 830.567061 444.904025 
L 857.987208 453.406835 
L 885.407356 426.016112 
L 912.827503 438.113846 
L 940.24765 445.57635 
L 967.667798 463.799451 
L 995.087945 455.651786 
L 1022.508093 456.447411 
L 1049.92824 449.690577 
L 1077.348388 452.022675 
L 1104.768535 447.476208 
L 1132.188682 465.312019 
L 1159.60883 451.017444 
L 1187.028977 456.22913 
" style="fill:none;stroke:#4c72b0;stroke-dasharray:14.8,6.4;stroke-dashoffset:0;stroke-width:4;"/>
    <g clip-path="url(#p2c8674fbb5)">
     <use style="fill:#4c72b0;stroke:#4c72b0;stroke-linejoin:miter;" x="172.483523" xlink:href="#m6e680192fa" y="601.903212"/>
     <use style="fill:#4c72b0;stroke:#4c72b0;stroke-linejoin:miter;" x="199.90367" xlink:href="#m6e680192fa" y="619.925667"/>
     <use style="fill:#4c72b0;stroke:#4c72b0;stroke-linejoin:miter;" x="227.323818" xlink:href="#m6e680192fa" y="604.248203"/>
     <use style="fill:#4c72b0;stroke:#4c72b0;stroke-linejoin:miter;" x="254.743965" xlink:href="#m6e680192fa" y="561.93794"/>
     <use style="fill:#4c72b0;stroke:#4c72b0;stroke-linejoin:miter;" x="282.164112" xlink:href="#m6e680192fa" y="513.354346"/>
     <use style="fill:#4c72b0;stroke:#4c72b0;stroke-linejoin:miter;" x="309.58426" xlink:href="#m6e680192fa" y="505.600521"/>
     <use style="fill:#4c72b0;stroke:#4c72b0;stroke-linejoin:miter;" x="337.004407" xlink:href="#m6e680192fa" y="466.557078"/>
     <use style="fill:#4c72b0;stroke:#4c72b0;stroke-linejoin:miter;" x="364.424555" xlink:href="#m6e680192fa" y="495.589608"/>
     <use style="fill:#4c72b0;stroke:#4c72b0;stroke-linejoin:miter;" x="391.844702" xlink:href="#m6e680192fa" y="428.979786"/>
     <use style="fill:#4c72b0;stroke:#4c72b0;stroke-linejoin:miter;" x="419.26485" xlink:href="#m6e680192fa" y="404.171631"/>
     <use style="fill:#4c72b0;stroke:#4c72b0;stroke-linejoin:miter;" x="446.684997" xlink:href="#m6e680192fa" y="417.820553"/>
     <use style="fill:#4c72b0;stroke:#4c72b0;stroke-linejoin:miter;" x="474.105144" xlink:href="#m6e680192fa" y="423.769938"/>
     <use style="fill:#4c72b0;stroke:#4c72b0;stroke-linejoin:miter;" x="501.525292" xlink:href="#m6e680192fa" y="472.935825"/>
     <use style="fill:#4c72b0;stroke:#4c72b0;stroke-linejoin:miter;" x="528.945439" xlink:href="#m6e680192fa" y="438.846879"/>
     <use style="fill:#4c72b0;stroke:#4c72b0;stroke-linejoin:miter;" x="556.365587" xlink:href="#m6e680192fa" y="412.074032"/>
     <use style="fill:#4c72b0;stroke:#4c72b0;stroke-linejoin:miter;" x="583.785734" xlink:href="#m6e680192fa" y="419.42249"/>
     <use style="fill:#4c72b0;stroke:#4c72b0;stroke-linejoin:miter;" x="611.205881" xlink:href="#m6e680192fa" y="413.367438"/>
     <use style="fill:#4c72b0;stroke:#4c72b0;stroke-linejoin:miter;" x="638.626029" xlink:href="#m6e680192fa" y="451.375624"/>
     <use style="fill:#4c72b0;stroke:#4c72b0;stroke-linejoin:miter;" x="666.046176" xlink:href="#m6e680192fa" y="434.606836"/>
     <use style="fill:#4c72b0;stroke:#4c72b0;stroke-linejoin:miter;" x="693.466324" xlink:href="#m6e680192fa" y="482.430284"/>
     <use style="fill:#4c72b0;stroke:#4c72b0;stroke-linejoin:miter;" x="720.886471" xlink:href="#m6e680192fa" y="439.986183"/>
     <use style="fill:#4c72b0;stroke:#4c72b0;stroke-linejoin:miter;" x="748.306619" xlink:href="#m6e680192fa" y="433.199648"/>
     <use style="fill:#4c72b0;stroke:#4c72b0;stroke-linejoin:miter;" x="775.726766" xlink:href="#m6e680192fa" y="462.451158"/>
     <use style="fill:#4c72b0;stroke:#4c72b0;stroke-linejoin:miter;" x="803.146913" xlink:href="#m6e680192fa" y="443.151431"/>
     <use style="fill:#4c72b0;stroke:#4c72b0;stroke-linejoin:miter;" x="830.567061" xlink:href="#m6e680192fa" y="444.904025"/>
     <use style="fill:#4c72b0;stroke:#4c72b0;stroke-linejoin:miter;" x="857.987208" xlink:href="#m6e680192fa" y="453.406835"/>
     <use style="fill:#4c72b0;stroke:#4c72b0;stroke-linejoin:miter;" x="885.407356" xlink:href="#m6e680192fa" y="426.016112"/>
     <use style="fill:#4c72b0;stroke:#4c72b0;stroke-linejoin:miter;" x="912.827503" xlink:href="#m6e680192fa" y="438.113846"/>
     <use style="fill:#4c72b0;stroke:#4c72b0;stroke-linejoin:miter;" x="940.24765" xlink:href="#m6e680192fa" y="445.57635"/>
     <use style="fill:#4c72b0;stroke:#4c72b0;stroke-linejoin:miter;" x="967.667798" xlink:href="#m6e680192fa" y="463.799451"/>
     <use style="fill:#4c72b0;stroke:#4c72b0;stroke-linejoin:miter;" x="995.087945" xlink:href="#m6e680192fa" y="455.651786"/>
     <use style="fill:#4c72b0;stroke:#4c72b0;stroke-linejoin:miter;" x="1022.508093" xlink:href="#m6e680192fa" y="456.447411"/>
     <use style="fill:#4c72b0;stroke:#4c72b0;stroke-linejoin:miter;" x="1049.92824" xlink:href="#m6e680192fa" y="449.690577"/>
     <use style="fill:#4c72b0;stroke:#4c72b0;stroke-linejoin:miter;" x="1077.348388" xlink:href="#m6e680192fa" y="452.022675"/>
     <use style="fill:#4c72b0;stroke:#4c72b0;stroke-linejoin:miter;" x="1104.768535" xlink:href="#m6e680192fa" y="447.476208"/>
     <use style="fill:#4c72b0;stroke:#4c72b0;stroke-linejoin:miter;" x="1132.188682" xlink:href="#m6e680192fa" y="465.312019"/>
     <use style="fill:#4c72b0;stroke:#4c72b0;stroke-linejoin:miter;" x="1159.60883" xlink:href="#m6e680192fa" y="451.017444"/>
     <use style="fill:#4c72b0;stroke:#4c72b0;stroke-linejoin:miter;" x="1187.028977" xlink:href="#m6e680192fa" y="456.22913"/>
    </g>
   </g>
   <g id="line2d_20">
    <path clip-path="url(#p2c8674fbb5)" d="M 172.483523 626.679435 
L 199.90367 626.679435 
L 227.323818 543.35084 
L 254.743965 310.105957 
L 282.164112 234.658618 
L 309.58426 156.247357 
L 337.004407 117.618892 
L 364.424555 86.671007 
L 391.844702 97.834264 
L 419.26485 98.720383 
L 446.684997 95.906732 
L 474.105144 86.498305 
L 501.525292 67.448001 
L 528.945439 43.673561 
L 556.365587 69.072731 
L 583.785734 66.312347 
L 611.205881 47.274522 
L 638.626029 42.927029 
L 666.046176 36.850909 
L 693.466324 51.203919 
L 720.886471 47.098347 
L 748.306619 51.133812 
L 775.726766 61.232704 
L 803.146913 62.487488 
L 830.567061 64.317578 
L 857.987208 77.381721 
" style="fill:none;stroke:#dd8452;stroke-linecap:round;stroke-width:4;"/>
    <defs>
     <path d="M -0 7 
L 7 -7 
L -7 -7 
z
" id="mbb99021d9d" style="stroke:#dd8452;stroke-linejoin:miter;"/>
    </defs>
    <g clip-path="url(#p2c8674fbb5)">
     <use style="fill:#dd8452;stroke:#dd8452;stroke-linejoin:miter;" x="172.483523" xlink:href="#mbb99021d9d" y="626.679435"/>
     <use style="fill:#dd8452;stroke:#dd8452;stroke-linejoin:miter;" x="199.90367" xlink:href="#mbb99021d9d" y="626.679435"/>
     <use style="fill:#dd8452;stroke:#dd8452;stroke-linejoin:miter;" x="227.323818" xlink:href="#mbb99021d9d" y="543.35084"/>
     <use style="fill:#dd8452;stroke:#dd8452;stroke-linejoin:miter;" x="254.743965" xlink:href="#mbb99021d9d" y="310.105957"/>
     <use style="fill:#dd8452;stroke:#dd8452;stroke-linejoin:miter;" x="282.164112" xlink:href="#mbb99021d9d" y="234.658618"/>
     <use style="fill:#dd8452;stroke:#dd8452;stroke-linejoin:miter;" x="309.58426" xlink:href="#mbb99021d9d" y="156.247357"/>
     <use style="fill:#dd8452;stroke:#dd8452;stroke-linejoin:miter;" x="337.004407" xlink:href="#mbb99021d9d" y="117.618892"/>
     <use style="fill:#dd8452;stroke:#dd8452;stroke-linejoin:miter;" x="364.424555" xlink:href="#mbb99021d9d" y="86.671007"/>
     <use style="fill:#dd8452;stroke:#dd8452;stroke-linejoin:miter;" x="391.844702" xlink:href="#mbb99021d9d" y="97.834264"/>
     <use style="fill:#dd8452;stroke:#dd8452;stroke-linejoin:miter;" x="419.26485" xlink:href="#mbb99021d9d" y="98.720383"/>
     <use style="fill:#dd8452;stroke:#dd8452;stroke-linejoin:miter;" x="446.684997" xlink:href="#mbb99021d9d" y="95.906732"/>
     <use style="fill:#dd8452;stroke:#dd8452;stroke-linejoin:miter;" x="474.105144" xlink:href="#mbb99021d9d" y="86.498305"/>
     <use style="fill:#dd8452;stroke:#dd8452;stroke-linejoin:miter;" x="501.525292" xlink:href="#mbb99021d9d" y="67.448001"/>
     <use style="fill:#dd8452;stroke:#dd8452;stroke-linejoin:miter;" x="528.945439" xlink:href="#mbb99021d9d" y="43.673561"/>
     <use style="fill:#dd8452;stroke:#dd8452;stroke-linejoin:miter;" x="556.365587" xlink:href="#mbb99021d9d" y="69.072731"/>
     <use style="fill:#dd8452;stroke:#dd8452;stroke-linejoin:miter;" x="583.785734" xlink:href="#mbb99021d9d" y="66.312347"/>
     <use style="fill:#dd8452;stroke:#dd8452;stroke-linejoin:miter;" x="611.205881" xlink:href="#mbb99021d9d" y="47.274522"/>
     <use style="fill:#dd8452;stroke:#dd8452;stroke-linejoin:miter;" x="638.626029" xlink:href="#mbb99021d9d" y="42.927029"/>
     <use style="fill:#dd8452;stroke:#dd8452;stroke-linejoin:miter;" x="666.046176" xlink:href="#mbb99021d9d" y="36.850909"/>
     <use style="fill:#dd8452;stroke:#dd8452;stroke-linejoin:miter;" x="693.466324" xlink:href="#mbb99021d9d" y="51.203919"/>
     <use style="fill:#dd8452;stroke:#dd8452;stroke-linejoin:miter;" x="720.886471" xlink:href="#mbb99021d9d" y="47.098347"/>
     <use style="fill:#dd8452;stroke:#dd8452;stroke-linejoin:miter;" x="748.306619" xlink:href="#mbb99021d9d" y="51.133812"/>
     <use style="fill:#dd8452;stroke:#dd8452;stroke-linejoin:miter;" x="775.726766" xlink:href="#mbb99021d9d" y="61.232704"/>
     <use style="fill:#dd8452;stroke:#dd8452;stroke-linejoin:miter;" x="803.146913" xlink:href="#mbb99021d9d" y="62.487488"/>
     <use style="fill:#dd8452;stroke:#dd8452;stroke-linejoin:miter;" x="830.567061" xlink:href="#mbb99021d9d" y="64.317578"/>
     <use style="fill:#dd8452;stroke:#dd8452;stroke-linejoin:miter;" x="857.987208" xlink:href="#mbb99021d9d" y="77.381721"/>
    </g>
   </g>
   <g id="line2d_21">
    <path clip-path="url(#p2c8674fbb5)" d="M 172.483523 601.903212 
L 199.90367 629.869091 
L 227.323818 574.475935 
L 254.743965 471.46538 
L 282.164112 424.852466 
L 309.58426 417.600931 
L 337.004407 532.86138 
L 364.424555 550.118047 
L 391.844702 496.877059 
L 419.26485 449.122961 
L 446.684997 395.67942 
L 474.105144 433.614431 
L 501.525292 389.889194 
L 528.945439 449.552405 
L 556.365587 410.334846 
L 583.785734 413.617516 
L 611.205881 457.473137 
L 638.626029 433.694621 
L 666.046176 441.292418 
L 693.466324 422.690695 
L 720.886471 429.873437 
L 748.306619 430.387678 
L 775.726766 425.186783 
L 803.146913 432.222112 
L 830.567061 426.882953 
L 857.987208 410.252875 
" style="fill:none;stroke:#dd8452;stroke-dasharray:14.8,6.4;stroke-dashoffset:0;stroke-width:4;"/>
    <g clip-path="url(#p2c8674fbb5)">
     <use style="fill:#dd8452;stroke:#dd8452;stroke-linejoin:miter;" x="172.483523" xlink:href="#mbb99021d9d" y="601.903212"/>
     <use style="fill:#dd8452;stroke:#dd8452;stroke-linejoin:miter;" x="199.90367" xlink:href="#mbb99021d9d" y="629.869091"/>
     <use style="fill:#dd8452;stroke:#dd8452;stroke-linejoin:miter;" x="227.323818" xlink:href="#mbb99021d9d" y="574.475935"/>
     <use style="fill:#dd8452;stroke:#dd8452;stroke-linejoin:miter;" x="254.743965" xlink:href="#mbb99021d9d" y="471.46538"/>
     <use style="fill:#dd8452;stroke:#dd8452;stroke-linejoin:miter;" x="282.164112" xlink:href="#mbb99021d9d" y="424.852466"/>
     <use style="fill:#dd8452;stroke:#dd8452;stroke-linejoin:miter;" x="309.58426" xlink:href="#mbb99021d9d" y="417.600931"/>
     <use style="fill:#dd8452;stroke:#dd8452;stroke-linejoin:miter;" x="337.004407" xlink:href="#mbb99021d9d" y="532.86138"/>
     <use style="fill:#dd8452;stroke:#dd8452;stroke-linejoin:miter;" x="364.424555" xlink:href="#mbb99021d9d" y="550.118047"/>
     <use style="fill:#dd8452;stroke:#dd8452;stroke-linejoin:miter;" x="391.844702" xlink:href="#mbb99021d9d" y="496.877059"/>
     <use style="fill:#dd8452;stroke:#dd8452;stroke-linejoin:miter;" x="419.26485" xlink:href="#mbb99021d9d" y="449.122961"/>
     <use style="fill:#dd8452;stroke:#dd8452;stroke-linejoin:miter;" x="446.684997" xlink:href="#mbb99021d9d" y="395.67942"/>
     <use style="fill:#dd8452;stroke:#dd8452;stroke-linejoin:miter;" x="474.105144" xlink:href="#mbb99021d9d" y="433.614431"/>
     <use style="fill:#dd8452;stroke:#dd8452;stroke-linejoin:miter;" x="501.525292" xlink:href="#mbb99021d9d" y="389.889194"/>
     <use style="fill:#dd8452;stroke:#dd8452;stroke-linejoin:miter;" x="528.945439" xlink:href="#mbb99021d9d" y="449.552405"/>
     <use style="fill:#dd8452;stroke:#dd8452;stroke-linejoin:miter;" x="556.365587" xlink:href="#mbb99021d9d" y="410.334846"/>
     <use style="fill:#dd8452;stroke:#dd8452;stroke-linejoin:miter;" x="583.785734" xlink:href="#mbb99021d9d" y="413.617516"/>
     <use style="fill:#dd8452;stroke:#dd8452;stroke-linejoin:miter;" x="611.205881" xlink:href="#mbb99021d9d" y="457.473137"/>
     <use style="fill:#dd8452;stroke:#dd8452;stroke-linejoin:miter;" x="638.626029" xlink:href="#mbb99021d9d" y="433.694621"/>
     <use style="fill:#dd8452;stroke:#dd8452;stroke-linejoin:miter;" x="666.046176" xlink:href="#mbb99021d9d" y="441.292418"/>
     <use style="fill:#dd8452;stroke:#dd8452;stroke-linejoin:miter;" x="693.466324" xlink:href="#mbb99021d9d" y="422.690695"/>
     <use style="fill:#dd8452;stroke:#dd8452;stroke-linejoin:miter;" x="720.886471" xlink:href="#mbb99021d9d" y="429.873437"/>
     <use style="fill:#dd8452;stroke:#dd8452;stroke-linejoin:miter;" x="748.306619" xlink:href="#mbb99021d9d" y="430.387678"/>
     <use style="fill:#dd8452;stroke:#dd8452;stroke-linejoin:miter;" x="775.726766" xlink:href="#mbb99021d9d" y="425.186783"/>
     <use style="fill:#dd8452;stroke:#dd8452;stroke-linejoin:miter;" x="803.146913" xlink:href="#mbb99021d9d" y="432.222112"/>
     <use style="fill:#dd8452;stroke:#dd8452;stroke-linejoin:miter;" x="830.567061" xlink:href="#mbb99021d9d" y="426.882953"/>
     <use style="fill:#dd8452;stroke:#dd8452;stroke-linejoin:miter;" x="857.987208" xlink:href="#mbb99021d9d" y="410.252875"/>
    </g>
   </g>
   <g id="patch_3">
    <path d="M 121.75625 659.52 
L 121.75625 7.2 
" style="fill:none;stroke:#ffffff;stroke-linecap:square;stroke-linejoin:miter;stroke-width:1.25;"/>
   </g>
   <g id="patch_4">
    <path d="M 1237.75625 659.52 
L 1237.75625 7.2 
" style="fill:none;stroke:#ffffff;stroke-linecap:square;stroke-linejoin:miter;stroke-width:1.25;"/>
   </g>
   <g id="patch_5">
    <path d="M 121.75625 659.52 
L 1237.75625 659.52 
" style="fill:none;stroke:#ffffff;stroke-linecap:square;stroke-linejoin:miter;stroke-width:1.25;"/>
   </g>
   <g id="patch_6">
    <path d="M 121.75625 7.2 
L 1237.75625 7.2 
" style="fill:none;stroke:#ffffff;stroke-linecap:square;stroke-linejoin:miter;stroke-width:1.25;"/>
   </g>
   <g id="legend_1">
    <g id="patch_7">
     <path d="M 743.01875 367.0224 
L 1220.95625 367.0224 
Q 1225.75625 367.0224 1225.75625 362.2224 
L 1225.75625 223.7124 
Q 1225.75625 218.9124 1220.95625 218.9124 
L 743.01875 218.9124 
Q 738.21875 218.9124 738.21875 223.7124 
L 738.21875 362.2224 
Q 738.21875 367.0224 743.01875 367.0224 
z
" style="fill:#eaeaf2;opacity:0.8;stroke:#cccccc;stroke-linejoin:miter;"/>
    </g>
    <g id="line2d_22">
     <path d="M 747.81875 238.34865 
L 795.81875 238.34865 
" style="fill:none;stroke:#4c72b0;stroke-linecap:round;stroke-width:4;"/>
    </g>
    <g id="line2d_23">
     <g>
      <use style="fill:#4c72b0;stroke:#4c72b0;stroke-linejoin:miter;" x="771.81875" xlink:href="#m6e680192fa" y="238.34865"/>
     </g>
    </g>
    <g id="text_20">
     <!-- Loss-A-MTL3-SE-ResNet-Murmur -->
     <g style="fill:#262626;" transform="translate(815.01875 246.74865)scale(0.24 -0.24)">
      <defs>
       <path d="M 9.8125 72.90625 
L 19.671875 72.90625 
L 19.671875 8.296875 
L 55.171875 8.296875 
L 55.171875 0 
L 9.8125 0 
z
" id="DejaVuSans-76"/>
       <path d="M 30.609375 48.390625 
Q 23.390625 48.390625 19.1875 42.75 
Q 14.984375 37.109375 14.984375 27.296875 
Q 14.984375 17.484375 19.15625 11.84375 
Q 23.34375 6.203125 30.609375 6.203125 
Q 37.796875 6.203125 41.984375 11.859375 
Q 46.1875 17.53125 46.1875 27.296875 
Q 46.1875 37.015625 41.984375 42.703125 
Q 37.796875 48.390625 30.609375 48.390625 
z
M 30.609375 56 
Q 42.328125 56 49.015625 48.375 
Q 55.71875 40.765625 55.71875 27.296875 
Q 55.71875 13.875 49.015625 6.21875 
Q 42.328125 -1.421875 30.609375 -1.421875 
Q 18.84375 -1.421875 12.171875 6.21875 
Q 5.515625 13.875 5.515625 27.296875 
Q 5.515625 40.765625 12.171875 48.375 
Q 18.84375 56 30.609375 56 
z
" id="DejaVuSans-111"/>
       <path d="M 44.28125 53.078125 
L 44.28125 44.578125 
Q 40.484375 46.53125 36.375 47.5 
Q 32.28125 48.484375 27.875 48.484375 
Q 21.1875 48.484375 17.84375 46.4375 
Q 14.5 44.390625 14.5 40.28125 
Q 14.5 37.15625 16.890625 35.375 
Q 19.28125 33.59375 26.515625 31.984375 
L 29.59375 31.296875 
Q 39.15625 29.25 43.1875 25.515625 
Q 47.21875 21.78125 47.21875 15.09375 
Q 47.21875 7.46875 41.1875 3.015625 
Q 35.15625 -1.421875 24.609375 -1.421875 
Q 20.21875 -1.421875 15.453125 -0.5625 
Q 10.6875 0.296875 5.421875 2 
L 5.421875 11.28125 
Q 10.40625 8.6875 15.234375 7.390625 
Q 20.0625 6.109375 24.8125 6.109375 
Q 31.15625 6.109375 34.5625 8.28125 
Q 37.984375 10.453125 37.984375 14.40625 
Q 37.984375 18.0625 35.515625 20.015625 
Q 33.0625 21.96875 24.703125 23.78125 
L 21.578125 24.515625 
Q 13.234375 26.265625 9.515625 29.90625 
Q 5.8125 33.546875 5.8125 39.890625 
Q 5.8125 47.609375 11.28125 51.796875 
Q 16.75 56 26.8125 56 
Q 31.78125 56 36.171875 55.265625 
Q 40.578125 54.546875 44.28125 53.078125 
z
" id="DejaVuSans-115"/>
       <path d="M 4.890625 31.390625 
L 31.203125 31.390625 
L 31.203125 23.390625 
L 4.890625 23.390625 
z
" id="DejaVuSans-45"/>
       <path d="M 9.8125 72.90625 
L 24.515625 72.90625 
L 43.109375 23.296875 
L 61.8125 72.90625 
L 76.515625 72.90625 
L 76.515625 0 
L 66.890625 0 
L 66.890625 64.015625 
L 48.09375 14.015625 
L 38.1875 14.015625 
L 19.390625 64.015625 
L 19.390625 0 
L 9.8125 0 
z
" id="DejaVuSans-77"/>
       <path d="M -0.296875 72.90625 
L 61.375 72.90625 
L 61.375 64.59375 
L 35.5 64.59375 
L 35.5 0 
L 25.59375 0 
L 25.59375 64.59375 
L -0.296875 64.59375 
z
" id="DejaVuSans-84"/>
       <path d="M 9.8125 72.90625 
L 55.90625 72.90625 
L 55.90625 64.59375 
L 19.671875 64.59375 
L 19.671875 43.015625 
L 54.390625 43.015625 
L 54.390625 34.71875 
L 19.671875 34.71875 
L 19.671875 8.296875 
L 56.78125 8.296875 
L 56.78125 0 
L 9.8125 0 
z
" id="DejaVuSans-69"/>
       <path d="M 44.390625 34.1875 
Q 47.5625 33.109375 50.5625 29.59375 
Q 53.5625 26.078125 56.59375 19.921875 
L 66.609375 0 
L 56 0 
L 46.6875 18.703125 
Q 43.0625 26.03125 39.671875 28.421875 
Q 36.28125 30.8125 30.421875 30.8125 
L 19.671875 30.8125 
L 19.671875 0 
L 9.8125 0 
L 9.8125 72.90625 
L 32.078125 72.90625 
Q 44.578125 72.90625 50.734375 67.671875 
Q 56.890625 62.453125 56.890625 51.90625 
Q 56.890625 45.015625 53.6875 40.46875 
Q 50.484375 35.9375 44.390625 34.1875 
z
M 19.671875 64.796875 
L 19.671875 38.921875 
L 32.078125 38.921875 
Q 39.203125 38.921875 42.84375 42.21875 
Q 46.484375 45.515625 46.484375 51.90625 
Q 46.484375 58.296875 42.84375 61.546875 
Q 39.203125 64.796875 32.078125 64.796875 
z
" id="DejaVuSans-82"/>
       <path d="M 9.8125 72.90625 
L 23.09375 72.90625 
L 55.421875 11.921875 
L 55.421875 72.90625 
L 64.984375 72.90625 
L 64.984375 0 
L 51.703125 0 
L 19.390625 60.984375 
L 19.390625 0 
L 9.8125 0 
z
" id="DejaVuSans-78"/>
       <path d="M 52 44.1875 
Q 55.375 50.25 60.0625 53.125 
Q 64.75 56 71.09375 56 
Q 79.640625 56 84.28125 50.015625 
Q 88.921875 44.046875 88.921875 33.015625 
L 88.921875 0 
L 79.890625 0 
L 79.890625 32.71875 
Q 79.890625 40.578125 77.09375 44.375 
Q 74.3125 48.1875 68.609375 48.1875 
Q 61.625 48.1875 57.5625 43.546875 
Q 53.515625 38.921875 53.515625 30.90625 
L 53.515625 0 
L 44.484375 0 
L 44.484375 32.71875 
Q 44.484375 40.625 41.703125 44.40625 
Q 38.921875 48.1875 33.109375 48.1875 
Q 26.21875 48.1875 22.15625 43.53125 
Q 18.109375 38.875 18.109375 30.90625 
L 18.109375 0 
L 9.078125 0 
L 9.078125 54.6875 
L 18.109375 54.6875 
L 18.109375 46.1875 
Q 21.1875 51.21875 25.484375 53.609375 
Q 29.78125 56 35.6875 56 
Q 41.65625 56 45.828125 52.96875 
Q 50 49.953125 52 44.1875 
z
" id="DejaVuSans-109"/>
      </defs>
      <use xlink:href="#DejaVuSans-76"/>
      <use x="53.962891" xlink:href="#DejaVuSans-111"/>
      <use x="115.144531" xlink:href="#DejaVuSans-115"/>
      <use x="167.244141" xlink:href="#DejaVuSans-115"/>
      <use x="219.34375" xlink:href="#DejaVuSans-45"/>
      <use x="253.177734" xlink:href="#DejaVuSans-65"/>
      <use x="319.335938" xlink:href="#DejaVuSans-45"/>
      <use x="355.419922" xlink:href="#DejaVuSans-77"/>
      <use x="441.699219" xlink:href="#DejaVuSans-84"/>
      <use x="502.783203" xlink:href="#DejaVuSans-76"/>
      <use x="558.496094" xlink:href="#DejaVuSans-51"/>
      <use x="622.119141" xlink:href="#DejaVuSans-45"/>
      <use x="658.203125" xlink:href="#DejaVuSans-83"/>
      <use x="721.679688" xlink:href="#DejaVuSans-69"/>
      <use x="784.863281" xlink:href="#DejaVuSans-45"/>
      <use x="820.947266" xlink:href="#DejaVuSans-82"/>
      <use x="885.929688" xlink:href="#DejaVuSans-101"/>
      <use x="947.453125" xlink:href="#DejaVuSans-115"/>
      <use x="999.552734" xlink:href="#DejaVuSans-78"/>
      <use x="1074.357422" xlink:href="#DejaVuSans-101"/>
      <use x="1135.880859" xlink:href="#DejaVuSans-116"/>
      <use x="1175.089844" xlink:href="#DejaVuSans-45"/>
      <use x="1211.173828" xlink:href="#DejaVuSans-77"/>
      <use x="1297.453125" xlink:href="#DejaVuSans-117"/>
      <use x="1360.832031" xlink:href="#DejaVuSans-114"/>
      <use x="1400.195312" xlink:href="#DejaVuSans-109"/>
      <use x="1497.607422" xlink:href="#DejaVuSans-117"/>
      <use x="1560.986328" xlink:href="#DejaVuSans-114"/>
     </g>
    </g>
    <g id="line2d_24">
     <path d="M 747.81875 273.57615 
L 795.81875 273.57615 
" style="fill:none;stroke:#4c72b0;stroke-dasharray:14.8,6.4;stroke-dashoffset:0;stroke-width:4;"/>
    </g>
    <g id="line2d_25">
     <g>
      <use style="fill:#4c72b0;stroke:#4c72b0;stroke-linejoin:miter;" x="771.81875" xlink:href="#m6e680192fa" y="273.57615"/>
     </g>
    </g>
    <g id="text_21">
     <!-- Loss-A-MTL3-SE-ResNet-Outcome -->
     <g style="fill:#262626;" transform="translate(815.01875 281.97615)scale(0.24 -0.24)">
      <defs>
       <path d="M 39.40625 66.21875 
Q 28.65625 66.21875 22.328125 58.203125 
Q 16.015625 50.203125 16.015625 36.375 
Q 16.015625 22.609375 22.328125 14.59375 
Q 28.65625 6.59375 39.40625 6.59375 
Q 50.140625 6.59375 56.421875 14.59375 
Q 62.703125 22.609375 62.703125 36.375 
Q 62.703125 50.203125 56.421875 58.203125 
Q 50.140625 66.21875 39.40625 66.21875 
z
M 39.40625 74.21875 
Q 54.734375 74.21875 63.90625 63.9375 
Q 73.09375 53.65625 73.09375 36.375 
Q 73.09375 19.140625 63.90625 8.859375 
Q 54.734375 -1.421875 39.40625 -1.421875 
Q 24.03125 -1.421875 14.8125 8.828125 
Q 5.609375 19.09375 5.609375 36.375 
Q 5.609375 53.65625 14.8125 63.9375 
Q 24.03125 74.21875 39.40625 74.21875 
z
" id="DejaVuSans-79"/>
      </defs>
      <use xlink:href="#DejaVuSans-76"/>
      <use x="53.962891" xlink:href="#DejaVuSans-111"/>
      <use x="115.144531" xlink:href="#DejaVuSans-115"/>
      <use x="167.244141" xlink:href="#DejaVuSans-115"/>
      <use x="219.34375" xlink:href="#DejaVuSans-45"/>
      <use x="253.177734" xlink:href="#DejaVuSans-65"/>
      <use x="319.335938" xlink:href="#DejaVuSans-45"/>
      <use x="355.419922" xlink:href="#DejaVuSans-77"/>
      <use x="441.699219" xlink:href="#DejaVuSans-84"/>
      <use x="502.783203" xlink:href="#DejaVuSans-76"/>
      <use x="558.496094" xlink:href="#DejaVuSans-51"/>
      <use x="622.119141" xlink:href="#DejaVuSans-45"/>
      <use x="658.203125" xlink:href="#DejaVuSans-83"/>
      <use x="721.679688" xlink:href="#DejaVuSans-69"/>
      <use x="784.863281" xlink:href="#DejaVuSans-45"/>
      <use x="820.947266" xlink:href="#DejaVuSans-82"/>
      <use x="885.929688" xlink:href="#DejaVuSans-101"/>
      <use x="947.453125" xlink:href="#DejaVuSans-115"/>
      <use x="999.552734" xlink:href="#DejaVuSans-78"/>
      <use x="1074.357422" xlink:href="#DejaVuSans-101"/>
      <use x="1135.880859" xlink:href="#DejaVuSans-116"/>
      <use x="1175.089844" xlink:href="#DejaVuSans-45"/>
      <use x="1213.923828" xlink:href="#DejaVuSans-79"/>
      <use x="1292.634766" xlink:href="#DejaVuSans-117"/>
      <use x="1356.013672" xlink:href="#DejaVuSans-116"/>
      <use x="1395.222656" xlink:href="#DejaVuSans-99"/>
      <use x="1450.203125" xlink:href="#DejaVuSans-111"/>
      <use x="1511.384766" xlink:href="#DejaVuSans-109"/>
      <use x="1608.796875" xlink:href="#DejaVuSans-101"/>
     </g>
    </g>
    <g id="line2d_26">
     <path d="M 747.81875 308.80365 
L 795.81875 308.80365 
" style="fill:none;stroke:#dd8452;stroke-linecap:round;stroke-width:4;"/>
    </g>
    <g id="line2d_27">
     <g>
      <use style="fill:#dd8452;stroke:#dd8452;stroke-linejoin:miter;" x="771.81875" xlink:href="#mbb99021d9d" y="308.80365"/>
     </g>
    </g>
    <g id="text_22">
     <!-- Loss-B-MTL3-SE-ResNet-Murmur -->
     <g style="fill:#262626;" transform="translate(815.01875 317.20365)scale(0.24 -0.24)">
      <defs>
       <path d="M 19.671875 34.8125 
L 19.671875 8.109375 
L 35.5 8.109375 
Q 43.453125 8.109375 47.28125 11.40625 
Q 51.125 14.703125 51.125 21.484375 
Q 51.125 28.328125 47.28125 31.5625 
Q 43.453125 34.8125 35.5 34.8125 
z
M 19.671875 64.796875 
L 19.671875 42.828125 
L 34.28125 42.828125 
Q 41.5 42.828125 45.03125 45.53125 
Q 48.578125 48.25 48.578125 53.8125 
Q 48.578125 59.328125 45.03125 62.0625 
Q 41.5 64.796875 34.28125 64.796875 
z
M 9.8125 72.90625 
L 35.015625 72.90625 
Q 46.296875 72.90625 52.390625 68.21875 
Q 58.5 63.53125 58.5 54.890625 
Q 58.5 48.1875 55.375 44.234375 
Q 52.25 40.28125 46.1875 39.3125 
Q 53.46875 37.75 57.5 32.78125 
Q 61.53125 27.828125 61.53125 20.40625 
Q 61.53125 10.640625 54.890625 5.3125 
Q 48.25 0 35.984375 0 
L 9.8125 0 
z
" id="DejaVuSans-66"/>
      </defs>
      <use xlink:href="#DejaVuSans-76"/>
      <use x="53.962891" xlink:href="#DejaVuSans-111"/>
      <use x="115.144531" xlink:href="#DejaVuSans-115"/>
      <use x="167.244141" xlink:href="#DejaVuSans-115"/>
      <use x="219.34375" xlink:href="#DejaVuSans-45"/>
      <use x="251.802734" xlink:href="#DejaVuSans-66"/>
      <use x="320.40625" xlink:href="#DejaVuSans-45"/>
      <use x="356.490234" xlink:href="#DejaVuSans-77"/>
      <use x="442.769531" xlink:href="#DejaVuSans-84"/>
      <use x="503.853516" xlink:href="#DejaVuSans-76"/>
      <use x="559.566406" xlink:href="#DejaVuSans-51"/>
      <use x="623.189453" xlink:href="#DejaVuSans-45"/>
      <use x="659.273438" xlink:href="#DejaVuSans-83"/>
      <use x="722.75" xlink:href="#DejaVuSans-69"/>
      <use x="785.933594" xlink:href="#DejaVuSans-45"/>
      <use x="822.017578" xlink:href="#DejaVuSans-82"/>
      <use x="887" xlink:href="#DejaVuSans-101"/>
      <use x="948.523438" xlink:href="#DejaVuSans-115"/>
      <use x="1000.623047" xlink:href="#DejaVuSans-78"/>
      <use x="1075.427734" xlink:href="#DejaVuSans-101"/>
      <use x="1136.951172" xlink:href="#DejaVuSans-116"/>
      <use x="1176.160156" xlink:href="#DejaVuSans-45"/>
      <use x="1212.244141" xlink:href="#DejaVuSans-77"/>
      <use x="1298.523438" xlink:href="#DejaVuSans-117"/>
      <use x="1361.902344" xlink:href="#DejaVuSans-114"/>
      <use x="1401.265625" xlink:href="#DejaVuSans-109"/>
      <use x="1498.677734" xlink:href="#DejaVuSans-117"/>
      <use x="1562.056641" xlink:href="#DejaVuSans-114"/>
     </g>
    </g>
    <g id="line2d_28">
     <path d="M 747.81875 344.03115 
L 795.81875 344.03115 
" style="fill:none;stroke:#dd8452;stroke-dasharray:14.8,6.4;stroke-dashoffset:0;stroke-width:4;"/>
    </g>
    <g id="line2d_29">
     <g>
      <use style="fill:#dd8452;stroke:#dd8452;stroke-linejoin:miter;" x="771.81875" xlink:href="#mbb99021d9d" y="344.03115"/>
     </g>
    </g>
    <g id="text_23">
     <!-- Loss-B-MTL3-SE-ResNet-Outcome -->
     <g style="fill:#262626;" transform="translate(815.01875 352.43115)scale(0.24 -0.24)">
      <use xlink:href="#DejaVuSans-76"/>
      <use x="53.962891" xlink:href="#DejaVuSans-111"/>
      <use x="115.144531" xlink:href="#DejaVuSans-115"/>
      <use x="167.244141" xlink:href="#DejaVuSans-115"/>
      <use x="219.34375" xlink:href="#DejaVuSans-45"/>
      <use x="251.802734" xlink:href="#DejaVuSans-66"/>
      <use x="320.40625" xlink:href="#DejaVuSans-45"/>
      <use x="356.490234" xlink:href="#DejaVuSans-77"/>
      <use x="442.769531" xlink:href="#DejaVuSans-84"/>
      <use x="503.853516" xlink:href="#DejaVuSans-76"/>
      <use x="559.566406" xlink:href="#DejaVuSans-51"/>
      <use x="623.189453" xlink:href="#DejaVuSans-45"/>
      <use x="659.273438" xlink:href="#DejaVuSans-83"/>
      <use x="722.75" xlink:href="#DejaVuSans-69"/>
      <use x="785.933594" xlink:href="#DejaVuSans-45"/>
      <use x="822.017578" xlink:href="#DejaVuSans-82"/>
      <use x="887" xlink:href="#DejaVuSans-101"/>
      <use x="948.523438" xlink:href="#DejaVuSans-115"/>
      <use x="1000.623047" xlink:href="#DejaVuSans-78"/>
      <use x="1075.427734" xlink:href="#DejaVuSans-101"/>
      <use x="1136.951172" xlink:href="#DejaVuSans-116"/>
      <use x="1176.160156" xlink:href="#DejaVuSans-45"/>
      <use x="1214.994141" xlink:href="#DejaVuSans-79"/>
      <use x="1293.705078" xlink:href="#DejaVuSans-117"/>
      <use x="1357.083984" xlink:href="#DejaVuSans-116"/>
      <use x="1396.292969" xlink:href="#DejaVuSans-99"/>
      <use x="1451.273438" xlink:href="#DejaVuSans-111"/>
      <use x="1512.455078" xlink:href="#DejaVuSans-109"/>
      <use x="1609.867188" xlink:href="#DejaVuSans-101"/>
     </g>
    </g>
   </g>
  </g>
 </g>
 <defs>
  <clipPath id="p2c8674fbb5">
   <rect height="652.32" width="1116" x="121.75625" y="7.2"/>
  </clipPath>
 </defs>
</svg>
