<?xml version="1.0" encoding="utf-8" standalone="no"?>
<!DOCTYPE svg PUBLIC "-//W3C//DTD SVG 1.1//EN"
  "http://www.w3.org/Graphics/SVG/1.1/DTD/svg11.dtd">
<!-- Created with matplotlib (https://matplotlib.org/) -->
<svg height="564.06375pt" version="1.1" viewBox="0 0 563.3825 564.06375" width="563.3825pt" xmlns="http://www.w3.org/2000/svg" xmlns:xlink="http://www.w3.org/1999/xlink">
 <metadata>
  <rdf:RDF xmlns:cc="http://creativecommons.org/ns#" xmlns:dc="http://purl.org/dc/elements/1.1/" xmlns:rdf="http://www.w3.org/1999/02/22-rdf-syntax-ns#">
   <cc:Work>
    <dc:type rdf:resource="http://purl.org/dc/dcmitype/StillImage"/>
    <dc:date>2022-08-14T21:29:09.196308</dc:date>
    <dc:format>image/svg+xml</dc:format>
    <dc:creator>
     <cc:Agent>
      <dc:title>Matplotlib v3.3.4, https://matplotlib.org/</dc:title>
     </cc:Agent>
    </dc:creator>
   </cc:Work>
  </rdf:RDF>
 </metadata>
 <defs>
  <style type="text/css">*{stroke-linecap:butt;stroke-linejoin:round;}</style>
 </defs>
 <g id="figure_1">
  <g id="patch_1">
   <path d="M 0 564.06375 
L 563.3825 564.06375 
L 563.3825 0 
L 0 0 
z
" style="fill:#ffffff;"/>
  </g>
  <g id="axes_1">
   <g id="patch_2">
    <path d="M 82.1025 500.78 
L 556.1825 500.78 
L 556.1825 7.2 
L 82.1025 7.2 
z
" style="fill:#ffffff;"/>
   </g>
   <g id="matplotlib.axis_1">
    <g id="xtick_1">
     <g id="text_1">
      <!-- Abnormal -->
      <g style="fill:#262626;" transform="translate(139.225486 525.476875)scale(0.2 -0.2)">
       <defs>
        <path d="M 34.1875 63.1875 
L 20.796875 26.90625 
L 47.609375 26.90625 
z
M 28.609375 72.90625 
L 39.796875 72.90625 
L 67.578125 0 
L 57.328125 0 
L 50.6875 18.703125 
L 17.828125 18.703125 
L 11.1875 0 
L 0.78125 0 
z
" id="DejaVuSans-65"/>
        <path d="M 48.6875 27.296875 
Q 48.6875 37.203125 44.609375 42.84375 
Q 40.53125 48.484375 33.40625 48.484375 
Q 26.265625 48.484375 22.1875 42.84375 
Q 18.109375 37.203125 18.109375 27.296875 
Q 18.109375 17.390625 22.1875 11.75 
Q 26.265625 6.109375 33.40625 6.109375 
Q 40.53125 6.109375 44.609375 11.75 
Q 48.6875 17.390625 48.6875 27.296875 
z
M 18.109375 46.390625 
Q 20.953125 51.265625 25.265625 53.625 
Q 29.59375 56 35.59375 56 
Q 45.5625 56 51.78125 48.09375 
Q 58.015625 40.1875 58.015625 27.296875 
Q 58.015625 14.40625 51.78125 6.484375 
Q 45.5625 -1.421875 35.59375 -1.421875 
Q 29.59375 -1.421875 25.265625 0.953125 
Q 20.953125 3.328125 18.109375 8.203125 
L 18.109375 0 
L 9.078125 0 
L 9.078125 75.984375 
L 18.109375 75.984375 
z
" id="DejaVuSans-98"/>
        <path d="M 54.890625 33.015625 
L 54.890625 0 
L 45.90625 0 
L 45.90625 32.71875 
Q 45.90625 40.484375 42.875 44.328125 
Q 39.84375 48.1875 33.796875 48.1875 
Q 26.515625 48.1875 22.3125 43.546875 
Q 18.109375 38.921875 18.109375 30.90625 
L 18.109375 0 
L 9.078125 0 
L 9.078125 54.6875 
L 18.109375 54.6875 
L 18.109375 46.1875 
Q 21.34375 51.125 25.703125 53.5625 
Q 30.078125 56 35.796875 56 
Q 45.21875 56 50.046875 50.171875 
Q 54.890625 44.34375 54.890625 33.015625 
z
" id="DejaVuSans-110"/>
        <path d="M 30.609375 48.390625 
Q 23.390625 48.390625 19.1875 42.75 
Q 14.984375 37.109375 14.984375 27.296875 
Q 14.984375 17.484375 19.15625 11.84375 
Q 23.34375 6.203125 30.609375 6.203125 
Q 37.796875 6.203125 41.984375 11.859375 
Q 46.1875 17.53125 46.1875 27.296875 
Q 46.1875 37.015625 41.984375 42.703125 
Q 37.796875 48.390625 30.609375 48.390625 
z
M 30.609375 56 
Q 42.328125 56 49.015625 48.375 
Q 55.71875 40.765625 55.71875 27.296875 
Q 55.71875 13.875 49.015625 6.21875 
Q 42.328125 -1.421875 30.609375 -1.421875 
Q 18.84375 -1.421875 12.171875 6.21875 
Q 5.515625 13.875 5.515625 27.296875 
Q 5.515625 40.765625 12.171875 48.375 
Q 18.84375 56 30.609375 56 
z
" id="DejaVuSans-111"/>
        <path d="M 41.109375 46.296875 
Q 39.59375 47.171875 37.8125 47.578125 
Q 36.03125 48 33.890625 48 
Q 26.265625 48 22.1875 43.046875 
Q 18.109375 38.09375 18.109375 28.8125 
L 18.109375 0 
L 9.078125 0 
L 9.078125 54.6875 
L 18.109375 54.6875 
L 18.109375 46.1875 
Q 20.953125 51.171875 25.484375 53.578125 
Q 30.03125 56 36.53125 56 
Q 37.453125 56 38.578125 55.875 
Q 39.703125 55.765625 41.0625 55.515625 
z
" id="DejaVuSans-114"/>
        <path d="M 52 44.1875 
Q 55.375 50.25 60.0625 53.125 
Q 64.75 56 71.09375 56 
Q 79.640625 56 84.28125 50.015625 
Q 88.921875 44.046875 88.921875 33.015625 
L 88.921875 0 
L 79.890625 0 
L 79.890625 32.71875 
Q 79.890625 40.578125 77.09375 44.375 
Q 74.3125 48.1875 68.609375 48.1875 
Q 61.625 48.1875 57.5625 43.546875 
Q 53.515625 38.921875 53.515625 30.90625 
L 53.515625 0 
L 44.484375 0 
L 44.484375 32.71875 
Q 44.484375 40.625 41.703125 44.40625 
Q 38.921875 48.1875 33.109375 48.1875 
Q 26.21875 48.1875 22.15625 43.53125 
Q 18.109375 38.875 18.109375 30.90625 
L 18.109375 0 
L 9.078125 0 
L 9.078125 54.6875 
L 18.109375 54.6875 
L 18.109375 46.1875 
Q 21.1875 51.21875 25.484375 53.609375 
Q 29.78125 56 35.6875 56 
Q 41.65625 56 45.828125 52.96875 
Q 50 49.953125 52 44.1875 
z
" id="DejaVuSans-109"/>
        <path d="M 34.28125 27.484375 
Q 23.390625 27.484375 19.1875 25 
Q 14.984375 22.515625 14.984375 16.5 
Q 14.984375 11.71875 18.140625 8.90625 
Q 21.296875 6.109375 26.703125 6.109375 
Q 34.1875 6.109375 38.703125 11.40625 
Q 43.21875 16.703125 43.21875 25.484375 
L 43.21875 27.484375 
z
M 52.203125 31.203125 
L 52.203125 0 
L 43.21875 0 
L 43.21875 8.296875 
Q 40.140625 3.328125 35.546875 0.953125 
Q 30.953125 -1.421875 24.3125 -1.421875 
Q 15.921875 -1.421875 10.953125 3.296875 
Q 6 8.015625 6 15.921875 
Q 6 25.140625 12.171875 29.828125 
Q 18.359375 34.515625 30.609375 34.515625 
L 43.21875 34.515625 
L 43.21875 35.40625 
Q 43.21875 41.609375 39.140625 45 
Q 35.0625 48.390625 27.6875 48.390625 
Q 23 48.390625 18.546875 47.265625 
Q 14.109375 46.140625 10.015625 43.890625 
L 10.015625 52.203125 
Q 14.9375 54.109375 19.578125 55.046875 
Q 24.21875 56 28.609375 56 
Q 40.484375 56 46.34375 49.84375 
Q 52.203125 43.703125 52.203125 31.203125 
z
" id="DejaVuSans-97"/>
        <path d="M 9.421875 75.984375 
L 18.40625 75.984375 
L 18.40625 0 
L 9.421875 0 
z
" id="DejaVuSans-108"/>
       </defs>
       <use xlink:href="#DejaVuSans-65"/>
       <use x="68.408203" xlink:href="#DejaVuSans-98"/>
       <use x="131.884766" xlink:href="#DejaVuSans-110"/>
       <use x="195.263672" xlink:href="#DejaVuSans-111"/>
       <use x="256.445312" xlink:href="#DejaVuSans-114"/>
       <use x="295.808594" xlink:href="#DejaVuSans-109"/>
       <use x="393.220703" xlink:href="#DejaVuSans-97"/>
       <use x="454.5" xlink:href="#DejaVuSans-108"/>
      </g>
     </g>
    </g>
    <g id="xtick_2">
     <g id="text_2">
      <!-- Normal -->
      <g style="fill:#262626;" transform="translate(414.648576 525.476875)scale(0.2 -0.2)">
       <defs>
        <path d="M 9.8125 72.90625 
L 23.09375 72.90625 
L 55.421875 11.921875 
L 55.421875 72.90625 
L 64.984375 72.90625 
L 64.984375 0 
L 51.703125 0 
L 19.390625 60.984375 
L 19.390625 0 
L 9.8125 0 
z
" id="DejaVuSans-78"/>
       </defs>
       <use xlink:href="#DejaVuSans-78"/>
       <use x="74.804688" xlink:href="#DejaVuSans-111"/>
       <use x="135.986328" xlink:href="#DejaVuSans-114"/>
       <use x="175.349609" xlink:href="#DejaVuSans-109"/>
       <use x="272.761719" xlink:href="#DejaVuSans-97"/>
       <use x="334.041016" xlink:href="#DejaVuSans-108"/>
      </g>
     </g>
    </g>
    <g id="text_3">
     <!-- Outcome -->
     <g style="fill:#262626;" transform="translate(264.37375 551.8725)scale(0.24 -0.24)">
      <defs>
       <path d="M 39.40625 66.21875 
Q 28.65625 66.21875 22.328125 58.203125 
Q 16.015625 50.203125 16.015625 36.375 
Q 16.015625 22.609375 22.328125 14.59375 
Q 28.65625 6.59375 39.40625 6.59375 
Q 50.140625 6.59375 56.421875 14.59375 
Q 62.703125 22.609375 62.703125 36.375 
Q 62.703125 50.203125 56.421875 58.203125 
Q 50.140625 66.21875 39.40625 66.21875 
z
M 39.40625 74.21875 
Q 54.734375 74.21875 63.90625 63.9375 
Q 73.09375 53.65625 73.09375 36.375 
Q 73.09375 19.140625 63.90625 8.859375 
Q 54.734375 -1.421875 39.40625 -1.421875 
Q 24.03125 -1.421875 14.8125 8.828125 
Q 5.609375 19.09375 5.609375 36.375 
Q 5.609375 53.65625 14.8125 63.9375 
Q 24.03125 74.21875 39.40625 74.21875 
z
" id="DejaVuSans-79"/>
       <path d="M 8.5 21.578125 
L 8.5 54.6875 
L 17.484375 54.6875 
L 17.484375 21.921875 
Q 17.484375 14.15625 20.5 10.265625 
Q 23.53125 6.390625 29.59375 6.390625 
Q 36.859375 6.390625 41.078125 11.03125 
Q 45.3125 15.671875 45.3125 23.6875 
L 45.3125 54.6875 
L 54.296875 54.6875 
L 54.296875 0 
L 45.3125 0 
L 45.3125 8.40625 
Q 42.046875 3.421875 37.71875 1 
Q 33.40625 -1.421875 27.6875 -1.421875 
Q 18.265625 -1.421875 13.375 4.4375 
Q 8.5 10.296875 8.5 21.578125 
z
M 31.109375 56 
z
" id="DejaVuSans-117"/>
       <path d="M 18.3125 70.21875 
L 18.3125 54.6875 
L 36.8125 54.6875 
L 36.8125 47.703125 
L 18.3125 47.703125 
L 18.3125 18.015625 
Q 18.3125 11.328125 20.140625 9.421875 
Q 21.96875 7.515625 27.59375 7.515625 
L 36.8125 7.515625 
L 36.8125 0 
L 27.59375 0 
Q 17.1875 0 13.234375 3.875 
Q 9.28125 7.765625 9.28125 18.015625 
L 9.28125 47.703125 
L 2.6875 47.703125 
L 2.6875 54.6875 
L 9.28125 54.6875 
L 9.28125 70.21875 
z
" id="DejaVuSans-116"/>
       <path d="M 48.78125 52.59375 
L 48.78125 44.1875 
Q 44.96875 46.296875 41.140625 47.34375 
Q 37.3125 48.390625 33.40625 48.390625 
Q 24.65625 48.390625 19.8125 42.84375 
Q 14.984375 37.3125 14.984375 27.296875 
Q 14.984375 17.28125 19.8125 11.734375 
Q 24.65625 6.203125 33.40625 6.203125 
Q 37.3125 6.203125 41.140625 7.25 
Q 44.96875 8.296875 48.78125 10.40625 
L 48.78125 2.09375 
Q 45.015625 0.34375 40.984375 -0.53125 
Q 36.96875 -1.421875 32.421875 -1.421875 
Q 20.0625 -1.421875 12.78125 6.34375 
Q 5.515625 14.109375 5.515625 27.296875 
Q 5.515625 40.671875 12.859375 48.328125 
Q 20.21875 56 33.015625 56 
Q 37.15625 56 41.109375 55.140625 
Q 45.0625 54.296875 48.78125 52.59375 
z
" id="DejaVuSans-99"/>
       <path d="M 56.203125 29.59375 
L 56.203125 25.203125 
L 14.890625 25.203125 
Q 15.484375 15.921875 20.484375 11.0625 
Q 25.484375 6.203125 34.421875 6.203125 
Q 39.59375 6.203125 44.453125 7.46875 
Q 49.3125 8.734375 54.109375 11.28125 
L 54.109375 2.78125 
Q 49.265625 0.734375 44.1875 -0.34375 
Q 39.109375 -1.421875 33.890625 -1.421875 
Q 20.796875 -1.421875 13.15625 6.1875 
Q 5.515625 13.8125 5.515625 26.8125 
Q 5.515625 40.234375 12.765625 48.109375 
Q 20.015625 56 32.328125 56 
Q 43.359375 56 49.78125 48.890625 
Q 56.203125 41.796875 56.203125 29.59375 
z
M 47.21875 32.234375 
Q 47.125 39.59375 43.09375 43.984375 
Q 39.0625 48.390625 32.421875 48.390625 
Q 24.90625 48.390625 20.390625 44.140625 
Q 15.875 39.890625 15.1875 32.171875 
z
" id="DejaVuSans-101"/>
      </defs>
      <use xlink:href="#DejaVuSans-79"/>
      <use x="78.710938" xlink:href="#DejaVuSans-117"/>
      <use x="142.089844" xlink:href="#DejaVuSans-116"/>
      <use x="181.298828" xlink:href="#DejaVuSans-99"/>
      <use x="236.279297" xlink:href="#DejaVuSans-111"/>
      <use x="297.460938" xlink:href="#DejaVuSans-109"/>
      <use x="394.873047" xlink:href="#DejaVuSans-101"/>
     </g>
    </g>
   </g>
   <g id="matplotlib.axis_2">
    <g id="ytick_1">
     <g id="text_4">
      <!-- 0 -->
      <g style="fill:#262626;" transform="translate(59.8775 508.378438)scale(0.2 -0.2)">
       <defs>
        <path d="M 31.78125 66.40625 
Q 24.171875 66.40625 20.328125 58.90625 
Q 16.5 51.421875 16.5 36.375 
Q 16.5 21.390625 20.328125 13.890625 
Q 24.171875 6.390625 31.78125 6.390625 
Q 39.453125 6.390625 43.28125 13.890625 
Q 47.125 21.390625 47.125 36.375 
Q 47.125 51.421875 43.28125 58.90625 
Q 39.453125 66.40625 31.78125 66.40625 
z
M 31.78125 74.21875 
Q 44.046875 74.21875 50.515625 64.515625 
Q 56.984375 54.828125 56.984375 36.375 
Q 56.984375 17.96875 50.515625 8.265625 
Q 44.046875 -1.421875 31.78125 -1.421875 
Q 19.53125 -1.421875 13.0625 8.265625 
Q 6.59375 17.96875 6.59375 36.375 
Q 6.59375 54.828125 13.0625 64.515625 
Q 19.53125 74.21875 31.78125 74.21875 
z
" id="DejaVuSans-48"/>
       </defs>
       <use xlink:href="#DejaVuSans-48"/>
      </g>
     </g>
    </g>
    <g id="ytick_2">
     <g id="text_5">
      <!-- 100 -->
      <g style="fill:#262626;" transform="translate(34.4275 428.76876)scale(0.2 -0.2)">
       <defs>
        <path d="M 12.40625 8.296875 
L 28.515625 8.296875 
L 28.515625 63.921875 
L 10.984375 60.40625 
L 10.984375 69.390625 
L 28.421875 72.90625 
L 38.28125 72.90625 
L 38.28125 8.296875 
L 54.390625 8.296875 
L 54.390625 0 
L 12.40625 0 
z
" id="DejaVuSans-49"/>
       </defs>
       <use xlink:href="#DejaVuSans-49"/>
       <use x="63.623047" xlink:href="#DejaVuSans-48"/>
       <use x="127.246094" xlink:href="#DejaVuSans-48"/>
      </g>
     </g>
    </g>
    <g id="ytick_3">
     <g id="text_6">
      <!-- 200 -->
      <g style="fill:#262626;" transform="translate(34.4275 349.159083)scale(0.2 -0.2)">
       <defs>
        <path d="M 19.1875 8.296875 
L 53.609375 8.296875 
L 53.609375 0 
L 7.328125 0 
L 7.328125 8.296875 
Q 12.9375 14.109375 22.625 23.890625 
Q 32.328125 33.6875 34.8125 36.53125 
Q 39.546875 41.84375 41.421875 45.53125 
Q 43.3125 49.21875 43.3125 52.78125 
Q 43.3125 58.59375 39.234375 62.25 
Q 35.15625 65.921875 28.609375 65.921875 
Q 23.96875 65.921875 18.8125 64.3125 
Q 13.671875 62.703125 7.8125 59.421875 
L 7.8125 69.390625 
Q 13.765625 71.78125 18.9375 73 
Q 24.125 74.21875 28.421875 74.21875 
Q 39.75 74.21875 46.484375 68.546875 
Q 53.21875 62.890625 53.21875 53.421875 
Q 53.21875 48.921875 51.53125 44.890625 
Q 49.859375 40.875 45.40625 35.40625 
Q 44.1875 33.984375 37.640625 27.21875 
Q 31.109375 20.453125 19.1875 8.296875 
z
" id="DejaVuSans-50"/>
       </defs>
       <use xlink:href="#DejaVuSans-50"/>
       <use x="63.623047" xlink:href="#DejaVuSans-48"/>
       <use x="127.246094" xlink:href="#DejaVuSans-48"/>
      </g>
     </g>
    </g>
    <g id="ytick_4">
     <g id="text_7">
      <!-- 300 -->
      <g style="fill:#262626;" transform="translate(34.4275 269.549405)scale(0.2 -0.2)">
       <defs>
        <path d="M 40.578125 39.3125 
Q 47.65625 37.796875 51.625 33 
Q 55.609375 28.21875 55.609375 21.1875 
Q 55.609375 10.40625 48.1875 4.484375 
Q 40.765625 -1.421875 27.09375 -1.421875 
Q 22.515625 -1.421875 17.65625 -0.515625 
Q 12.796875 0.390625 7.625 2.203125 
L 7.625 11.71875 
Q 11.71875 9.328125 16.59375 8.109375 
Q 21.484375 6.890625 26.8125 6.890625 
Q 36.078125 6.890625 40.9375 10.546875 
Q 45.796875 14.203125 45.796875 21.1875 
Q 45.796875 27.640625 41.28125 31.265625 
Q 36.765625 34.90625 28.71875 34.90625 
L 20.21875 34.90625 
L 20.21875 43.015625 
L 29.109375 43.015625 
Q 36.375 43.015625 40.234375 45.921875 
Q 44.09375 48.828125 44.09375 54.296875 
Q 44.09375 59.90625 40.109375 62.90625 
Q 36.140625 65.921875 28.71875 65.921875 
Q 24.65625 65.921875 20.015625 65.03125 
Q 15.375 64.15625 9.8125 62.3125 
L 9.8125 71.09375 
Q 15.4375 72.65625 20.34375 73.4375 
Q 25.25 74.21875 29.59375 74.21875 
Q 40.828125 74.21875 47.359375 69.109375 
Q 53.90625 64.015625 53.90625 55.328125 
Q 53.90625 49.265625 50.4375 45.09375 
Q 46.96875 40.921875 40.578125 39.3125 
z
" id="DejaVuSans-51"/>
       </defs>
       <use xlink:href="#DejaVuSans-51"/>
       <use x="63.623047" xlink:href="#DejaVuSans-48"/>
       <use x="127.246094" xlink:href="#DejaVuSans-48"/>
      </g>
     </g>
    </g>
    <g id="ytick_5">
     <g id="text_8">
      <!-- 400 -->
      <g style="fill:#262626;" transform="translate(34.4275 189.939728)scale(0.2 -0.2)">
       <defs>
        <path d="M 37.796875 64.3125 
L 12.890625 25.390625 
L 37.796875 25.390625 
z
M 35.203125 72.90625 
L 47.609375 72.90625 
L 47.609375 25.390625 
L 58.015625 25.390625 
L 58.015625 17.1875 
L 47.609375 17.1875 
L 47.609375 0 
L 37.796875 0 
L 37.796875 17.1875 
L 4.890625 17.1875 
L 4.890625 26.703125 
z
" id="DejaVuSans-52"/>
       </defs>
       <use xlink:href="#DejaVuSans-52"/>
       <use x="63.623047" xlink:href="#DejaVuSans-48"/>
       <use x="127.246094" xlink:href="#DejaVuSans-48"/>
      </g>
     </g>
    </g>
    <g id="ytick_6">
     <g id="text_9">
      <!-- 500 -->
      <g style="fill:#262626;" transform="translate(34.4275 110.33005)scale(0.2 -0.2)">
       <defs>
        <path d="M 10.796875 72.90625 
L 49.515625 72.90625 
L 49.515625 64.59375 
L 19.828125 64.59375 
L 19.828125 46.734375 
Q 21.96875 47.46875 24.109375 47.828125 
Q 26.265625 48.1875 28.421875 48.1875 
Q 40.625 48.1875 47.75 41.5 
Q 54.890625 34.8125 54.890625 23.390625 
Q 54.890625 11.625 47.5625 5.09375 
Q 40.234375 -1.421875 26.90625 -1.421875 
Q 22.3125 -1.421875 17.546875 -0.640625 
Q 12.796875 0.140625 7.71875 1.703125 
L 7.71875 11.625 
Q 12.109375 9.234375 16.796875 8.0625 
Q 21.484375 6.890625 26.703125 6.890625 
Q 35.15625 6.890625 40.078125 11.328125 
Q 45.015625 15.765625 45.015625 23.390625 
Q 45.015625 31 40.078125 35.4375 
Q 35.15625 39.890625 26.703125 39.890625 
Q 22.75 39.890625 18.8125 39.015625 
Q 14.890625 38.140625 10.796875 36.28125 
z
" id="DejaVuSans-53"/>
       </defs>
       <use xlink:href="#DejaVuSans-53"/>
       <use x="63.623047" xlink:href="#DejaVuSans-48"/>
       <use x="127.246094" xlink:href="#DejaVuSans-48"/>
      </g>
     </g>
    </g>
    <g id="ytick_7">
     <g id="text_10">
      <!-- 600 -->
      <g style="fill:#262626;" transform="translate(34.4275 30.720373)scale(0.2 -0.2)">
       <defs>
        <path d="M 33.015625 40.375 
Q 26.375 40.375 22.484375 35.828125 
Q 18.609375 31.296875 18.609375 23.390625 
Q 18.609375 15.53125 22.484375 10.953125 
Q 26.375 6.390625 33.015625 6.390625 
Q 39.65625 6.390625 43.53125 10.953125 
Q 47.40625 15.53125 47.40625 23.390625 
Q 47.40625 31.296875 43.53125 35.828125 
Q 39.65625 40.375 33.015625 40.375 
z
M 52.59375 71.296875 
L 52.59375 62.3125 
Q 48.875 64.0625 45.09375 64.984375 
Q 41.3125 65.921875 37.59375 65.921875 
Q 27.828125 65.921875 22.671875 59.328125 
Q 17.53125 52.734375 16.796875 39.40625 
Q 19.671875 43.65625 24.015625 45.921875 
Q 28.375 48.1875 33.59375 48.1875 
Q 44.578125 48.1875 50.953125 41.515625 
Q 57.328125 34.859375 57.328125 23.390625 
Q 57.328125 12.15625 50.6875 5.359375 
Q 44.046875 -1.421875 33.015625 -1.421875 
Q 20.359375 -1.421875 13.671875 8.265625 
Q 6.984375 17.96875 6.984375 36.375 
Q 6.984375 53.65625 15.1875 63.9375 
Q 23.390625 74.21875 37.203125 74.21875 
Q 40.921875 74.21875 44.703125 73.484375 
Q 48.484375 72.75 52.59375 71.296875 
z
" id="DejaVuSans-54"/>
       </defs>
       <use xlink:href="#DejaVuSans-54"/>
       <use x="63.623047" xlink:href="#DejaVuSans-48"/>
       <use x="127.246094" xlink:href="#DejaVuSans-48"/>
      </g>
     </g>
    </g>
    <g id="text_11">
     <!-- Number of Subjects (n.u.) -->
     <g style="fill:#262626;" transform="translate(25.43625 408.518125)rotate(-90)scale(0.24 -0.24)">
      <defs>
       <path id="DejaVuSans-32"/>
       <path d="M 37.109375 75.984375 
L 37.109375 68.5 
L 28.515625 68.5 
Q 23.6875 68.5 21.796875 66.546875 
Q 19.921875 64.59375 19.921875 59.515625 
L 19.921875 54.6875 
L 34.71875 54.6875 
L 34.71875 47.703125 
L 19.921875 47.703125 
L 19.921875 0 
L 10.890625 0 
L 10.890625 47.703125 
L 2.296875 47.703125 
L 2.296875 54.6875 
L 10.890625 54.6875 
L 10.890625 58.5 
Q 10.890625 67.625 15.140625 71.796875 
Q 19.390625 75.984375 28.609375 75.984375 
z
" id="DejaVuSans-102"/>
       <path d="M 53.515625 70.515625 
L 53.515625 60.890625 
Q 47.90625 63.578125 42.921875 64.890625 
Q 37.9375 66.21875 33.296875 66.21875 
Q 25.25 66.21875 20.875 63.09375 
Q 16.5 59.96875 16.5 54.203125 
Q 16.5 49.359375 19.40625 46.890625 
Q 22.3125 44.4375 30.421875 42.921875 
L 36.375 41.703125 
Q 47.40625 39.59375 52.65625 34.296875 
Q 57.90625 29 57.90625 20.125 
Q 57.90625 9.515625 50.796875 4.046875 
Q 43.703125 -1.421875 29.984375 -1.421875 
Q 24.8125 -1.421875 18.96875 -0.25 
Q 13.140625 0.921875 6.890625 3.21875 
L 6.890625 13.375 
Q 12.890625 10.015625 18.65625 8.296875 
Q 24.421875 6.59375 29.984375 6.59375 
Q 38.421875 6.59375 43.015625 9.90625 
Q 47.609375 13.234375 47.609375 19.390625 
Q 47.609375 24.75 44.3125 27.78125 
Q 41.015625 30.8125 33.5 32.328125 
L 27.484375 33.5 
Q 16.453125 35.6875 11.515625 40.375 
Q 6.59375 45.0625 6.59375 53.421875 
Q 6.59375 63.09375 13.40625 68.65625 
Q 20.21875 74.21875 32.171875 74.21875 
Q 37.3125 74.21875 42.625 73.28125 
Q 47.953125 72.359375 53.515625 70.515625 
z
" id="DejaVuSans-83"/>
       <path d="M 9.421875 54.6875 
L 18.40625 54.6875 
L 18.40625 -0.984375 
Q 18.40625 -11.421875 14.421875 -16.109375 
Q 10.453125 -20.796875 1.609375 -20.796875 
L -1.8125 -20.796875 
L -1.8125 -13.1875 
L 0.59375 -13.1875 
Q 5.71875 -13.1875 7.5625 -10.8125 
Q 9.421875 -8.453125 9.421875 -0.984375 
z
M 9.421875 75.984375 
L 18.40625 75.984375 
L 18.40625 64.59375 
L 9.421875 64.59375 
z
" id="DejaVuSans-106"/>
       <path d="M 44.28125 53.078125 
L 44.28125 44.578125 
Q 40.484375 46.53125 36.375 47.5 
Q 32.28125 48.484375 27.875 48.484375 
Q 21.1875 48.484375 17.84375 46.4375 
Q 14.5 44.390625 14.5 40.28125 
Q 14.5 37.15625 16.890625 35.375 
Q 19.28125 33.59375 26.515625 31.984375 
L 29.59375 31.296875 
Q 39.15625 29.25 43.1875 25.515625 
Q 47.21875 21.78125 47.21875 15.09375 
Q 47.21875 7.46875 41.1875 3.015625 
Q 35.15625 -1.421875 24.609375 -1.421875 
Q 20.21875 -1.421875 15.453125 -0.5625 
Q 10.6875 0.296875 5.421875 2 
L 5.421875 11.28125 
Q 10.40625 8.6875 15.234375 7.390625 
Q 20.0625 6.109375 24.8125 6.109375 
Q 31.15625 6.109375 34.5625 8.28125 
Q 37.984375 10.453125 37.984375 14.40625 
Q 37.984375 18.0625 35.515625 20.015625 
Q 33.0625 21.96875 24.703125 23.78125 
L 21.578125 24.515625 
Q 13.234375 26.265625 9.515625 29.90625 
Q 5.8125 33.546875 5.8125 39.890625 
Q 5.8125 47.609375 11.28125 51.796875 
Q 16.75 56 26.8125 56 
Q 31.78125 56 36.171875 55.265625 
Q 40.578125 54.546875 44.28125 53.078125 
z
" id="DejaVuSans-115"/>
       <path d="M 31 75.875 
Q 24.46875 64.65625 21.28125 53.65625 
Q 18.109375 42.671875 18.109375 31.390625 
Q 18.109375 20.125 21.3125 9.0625 
Q 24.515625 -2 31 -13.1875 
L 23.1875 -13.1875 
Q 15.875 -1.703125 12.234375 9.375 
Q 8.59375 20.453125 8.59375 31.390625 
Q 8.59375 42.28125 12.203125 53.3125 
Q 15.828125 64.359375 23.1875 75.875 
z
" id="DejaVuSans-40"/>
       <path d="M 10.6875 12.40625 
L 21 12.40625 
L 21 0 
L 10.6875 0 
z
" id="DejaVuSans-46"/>
       <path d="M 8.015625 75.875 
L 15.828125 75.875 
Q 23.140625 64.359375 26.78125 53.3125 
Q 30.421875 42.28125 30.421875 31.390625 
Q 30.421875 20.453125 26.78125 9.375 
Q 23.140625 -1.703125 15.828125 -13.1875 
L 8.015625 -13.1875 
Q 14.5 -2 17.703125 9.0625 
Q 20.90625 20.125 20.90625 31.390625 
Q 20.90625 42.671875 17.703125 53.65625 
Q 14.5 64.65625 8.015625 75.875 
z
" id="DejaVuSans-41"/>
      </defs>
      <use xlink:href="#DejaVuSans-78"/>
      <use x="74.804688" xlink:href="#DejaVuSans-117"/>
      <use x="138.183594" xlink:href="#DejaVuSans-109"/>
      <use x="235.595703" xlink:href="#DejaVuSans-98"/>
      <use x="299.072266" xlink:href="#DejaVuSans-101"/>
      <use x="360.595703" xlink:href="#DejaVuSans-114"/>
      <use x="401.708984" xlink:href="#DejaVuSans-32"/>
      <use x="433.496094" xlink:href="#DejaVuSans-111"/>
      <use x="494.677734" xlink:href="#DejaVuSans-102"/>
      <use x="529.882812" xlink:href="#DejaVuSans-32"/>
      <use x="561.669922" xlink:href="#DejaVuSans-83"/>
      <use x="625.146484" xlink:href="#DejaVuSans-117"/>
      <use x="688.525391" xlink:href="#DejaVuSans-98"/>
      <use x="752.001953" xlink:href="#DejaVuSans-106"/>
      <use x="779.785156" xlink:href="#DejaVuSans-101"/>
      <use x="841.308594" xlink:href="#DejaVuSans-99"/>
      <use x="896.289062" xlink:href="#DejaVuSans-116"/>
      <use x="935.498047" xlink:href="#DejaVuSans-115"/>
      <use x="987.597656" xlink:href="#DejaVuSans-32"/>
      <use x="1019.384766" xlink:href="#DejaVuSans-40"/>
      <use x="1058.398438" xlink:href="#DejaVuSans-110"/>
      <use x="1121.777344" xlink:href="#DejaVuSans-46"/>
      <use x="1153.564453" xlink:href="#DejaVuSans-117"/>
      <use x="1216.943359" xlink:href="#DejaVuSans-46"/>
      <use x="1248.730469" xlink:href="#DejaVuSans-41"/>
     </g>
    </g>
   </g>
   <g id="patch_3">
    <path clip-path="url(#p11656a196d)" d="M 147.946944 500.78 
L 226.960278 500.78 
L 226.960278 468.936129 
L 147.946944 468.936129 
z
" style="fill:url(#h29b13a50c7);stroke:#ffffff;stroke-linejoin:miter;"/>
   </g>
   <g id="patch_4">
    <path clip-path="url(#p11656a196d)" d="M 411.324722 500.78 
L 490.338056 500.78 
L 490.338056 475.304903 
L 411.324722 475.304903 
z
" style="fill:url(#h29b13a50c7);stroke:#ffffff;stroke-linejoin:miter;"/>
   </g>
   <g id="patch_5">
    <path clip-path="url(#p11656a196d)" d="M 147.946944 468.936129 
L 226.960278 468.936129 
L 226.960278 213.389065 
L 147.946944 213.389065 
z
" style="fill:url(#hf002bec821);stroke:#ffffff;stroke-linejoin:miter;"/>
   </g>
   <g id="patch_6">
    <path clip-path="url(#p11656a196d)" d="M 411.324722 475.304903 
L 490.338056 475.304903 
L 490.338056 202.24371 
L 411.324722 202.24371 
z
" style="fill:url(#hf002bec821);stroke:#ffffff;stroke-linejoin:miter;"/>
   </g>
   <g id="patch_7">
    <path clip-path="url(#p11656a196d)" d="M 147.946944 213.389065 
L 226.960278 213.389065 
L 226.960278 150.497419 
L 147.946944 150.497419 
z
" style="fill:url(#hac5f2ce68b);stroke:#ffffff;stroke-linejoin:miter;"/>
   </g>
   <g id="patch_8">
    <path clip-path="url(#p11656a196d)" d="M 411.324722 202.24371 
L 490.338056 202.24371 
L 490.338056 164.827161 
L 411.324722 164.827161 
z
" style="fill:url(#hac5f2ce68b);stroke:#ffffff;stroke-linejoin:miter;"/>
   </g>
   <g id="patch_9">
    <path clip-path="url(#p11656a196d)" d="M 147.946944 150.497419 
L 226.960278 150.497419 
L 226.960278 140.148161 
L 147.946944 140.148161 
z
" style="fill:url(#h6c1bd60b77);stroke:#ffffff;stroke-linejoin:miter;"/>
   </g>
   <g id="patch_10">
    <path clip-path="url(#p11656a196d)" d="M 411.324722 164.827161 
L 490.338056 164.827161 
L 490.338056 116.265258 
L 411.324722 116.265258 
z
" style="fill:url(#h6c1bd60b77);stroke:#ffffff;stroke-linejoin:miter;"/>
   </g>
   <g id="patch_11">
    <path clip-path="url(#p11656a196d)" d="M 147.946944 140.148161 
L 226.960278 140.148161 
L 226.960278 137.759871 
L 147.946944 137.759871 
z
" style="fill:url(#h1be1f5adc6);stroke:#ffffff;stroke-linejoin:miter;"/>
   </g>
   <g id="patch_12">
    <path clip-path="url(#p11656a196d)" d="M 411.324722 116.265258 
L 490.338056 116.265258 
L 490.338056 113.876968 
L 411.324722 113.876968 
z
" style="fill:url(#h1be1f5adc6);stroke:#ffffff;stroke-linejoin:miter;"/>
   </g>
   <g id="patch_13">
    <path d="M 82.1025 500.78 
L 82.1025 7.2 
" style="fill:none;stroke:#262626;stroke-linecap:square;stroke-linejoin:miter;stroke-width:1.25;"/>
   </g>
   <g id="patch_14">
    <path d="M 556.1825 500.78 
L 556.1825 7.2 
" style="fill:none;stroke:#262626;stroke-linecap:square;stroke-linejoin:miter;stroke-width:1.25;"/>
   </g>
   <g id="patch_15">
    <path d="M 82.1025 500.78 
L 556.1825 500.78 
" style="fill:none;stroke:#262626;stroke-linecap:square;stroke-linejoin:miter;stroke-width:1.25;"/>
   </g>
   <g id="patch_16">
    <path d="M 82.1025 7.2 
L 556.1825 7.2 
" style="fill:none;stroke:#262626;stroke-linecap:square;stroke-linejoin:miter;stroke-width:1.25;"/>
   </g>
   <g id="legend_1">
    <g id="patch_17">
     <path d="M 94.7025 100.861875 
L 519.66 100.861875 
Q 523.26 100.861875 523.26 97.261875 
L 523.26 19.8 
Q 523.26 16.2 519.66 16.2 
L 94.7025 16.2 
Q 91.1025 16.2 91.1025 19.8 
L 91.1025 97.261875 
Q 91.1025 100.861875 94.7025 100.861875 
z
" style="fill:#ffffff;opacity:0.8;stroke:#cccccc;stroke-linejoin:miter;"/>
    </g>
    <g id="patch_18">
     <path d="M 98.3025 37.077188 
L 134.3025 37.077188 
L 134.3025 24.477188 
L 98.3025 24.477188 
z
" style="fill:url(#h29b13a50c7);stroke:#ffffff;stroke-linejoin:miter;"/>
    </g>
    <g id="text_12">
     <!-- Age - Adolescent -->
     <g style="fill:#262626;" transform="translate(148.7025 37.077188)scale(0.18 -0.18)">
      <defs>
       <path d="M 45.40625 27.984375 
Q 45.40625 37.75 41.375 43.109375 
Q 37.359375 48.484375 30.078125 48.484375 
Q 22.859375 48.484375 18.828125 43.109375 
Q 14.796875 37.75 14.796875 27.984375 
Q 14.796875 18.265625 18.828125 12.890625 
Q 22.859375 7.515625 30.078125 7.515625 
Q 37.359375 7.515625 41.375 12.890625 
Q 45.40625 18.265625 45.40625 27.984375 
z
M 54.390625 6.78125 
Q 54.390625 -7.171875 48.1875 -13.984375 
Q 42 -20.796875 29.203125 -20.796875 
Q 24.46875 -20.796875 20.265625 -20.09375 
Q 16.0625 -19.390625 12.109375 -17.921875 
L 12.109375 -9.1875 
Q 16.0625 -11.328125 19.921875 -12.34375 
Q 23.78125 -13.375 27.78125 -13.375 
Q 36.625 -13.375 41.015625 -8.765625 
Q 45.40625 -4.15625 45.40625 5.171875 
L 45.40625 9.625 
Q 42.625 4.78125 38.28125 2.390625 
Q 33.9375 0 27.875 0 
Q 17.828125 0 11.671875 7.65625 
Q 5.515625 15.328125 5.515625 27.984375 
Q 5.515625 40.671875 11.671875 48.328125 
Q 17.828125 56 27.875 56 
Q 33.9375 56 38.28125 53.609375 
Q 42.625 51.21875 45.40625 46.390625 
L 45.40625 54.6875 
L 54.390625 54.6875 
z
" id="DejaVuSans-103"/>
       <path d="M 4.890625 31.390625 
L 31.203125 31.390625 
L 31.203125 23.390625 
L 4.890625 23.390625 
z
" id="DejaVuSans-45"/>
       <path d="M 45.40625 46.390625 
L 45.40625 75.984375 
L 54.390625 75.984375 
L 54.390625 0 
L 45.40625 0 
L 45.40625 8.203125 
Q 42.578125 3.328125 38.25 0.953125 
Q 33.9375 -1.421875 27.875 -1.421875 
Q 17.96875 -1.421875 11.734375 6.484375 
Q 5.515625 14.40625 5.515625 27.296875 
Q 5.515625 40.1875 11.734375 48.09375 
Q 17.96875 56 27.875 56 
Q 33.9375 56 38.25 53.625 
Q 42.578125 51.265625 45.40625 46.390625 
z
M 14.796875 27.296875 
Q 14.796875 17.390625 18.875 11.75 
Q 22.953125 6.109375 30.078125 6.109375 
Q 37.203125 6.109375 41.296875 11.75 
Q 45.40625 17.390625 45.40625 27.296875 
Q 45.40625 37.203125 41.296875 42.84375 
Q 37.203125 48.484375 30.078125 48.484375 
Q 22.953125 48.484375 18.875 42.84375 
Q 14.796875 37.203125 14.796875 27.296875 
z
" id="DejaVuSans-100"/>
      </defs>
      <use xlink:href="#DejaVuSans-65"/>
      <use x="68.408203" xlink:href="#DejaVuSans-103"/>
      <use x="131.884766" xlink:href="#DejaVuSans-101"/>
      <use x="193.408203" xlink:href="#DejaVuSans-32"/>
      <use x="225.195312" xlink:href="#DejaVuSans-45"/>
      <use x="261.279297" xlink:href="#DejaVuSans-32"/>
      <use x="293.066406" xlink:href="#DejaVuSans-65"/>
      <use x="359.724609" xlink:href="#DejaVuSans-100"/>
      <use x="423.201172" xlink:href="#DejaVuSans-111"/>
      <use x="484.382812" xlink:href="#DejaVuSans-108"/>
      <use x="512.166016" xlink:href="#DejaVuSans-101"/>
      <use x="573.689453" xlink:href="#DejaVuSans-115"/>
      <use x="625.789062" xlink:href="#DejaVuSans-99"/>
      <use x="680.769531" xlink:href="#DejaVuSans-101"/>
      <use x="742.292969" xlink:href="#DejaVuSans-110"/>
      <use x="805.671875" xlink:href="#DejaVuSans-116"/>
     </g>
    </g>
    <g id="patch_19">
     <path d="M 98.3025 63.497813 
L 134.3025 63.497813 
L 134.3025 50.897813 
L 98.3025 50.897813 
z
" style="fill:url(#hf002bec821);stroke:#ffffff;stroke-linejoin:miter;"/>
    </g>
    <g id="text_13">
     <!-- Age - Child -->
     <g style="fill:#262626;" transform="translate(148.7025 63.497813)scale(0.18 -0.18)">
      <defs>
       <path d="M 64.40625 67.28125 
L 64.40625 56.890625 
Q 59.421875 61.53125 53.78125 63.8125 
Q 48.140625 66.109375 41.796875 66.109375 
Q 29.296875 66.109375 22.65625 58.46875 
Q 16.015625 50.828125 16.015625 36.375 
Q 16.015625 21.96875 22.65625 14.328125 
Q 29.296875 6.6875 41.796875 6.6875 
Q 48.140625 6.6875 53.78125 8.984375 
Q 59.421875 11.28125 64.40625 15.921875 
L 64.40625 5.609375 
Q 59.234375 2.09375 53.4375 0.328125 
Q 47.65625 -1.421875 41.21875 -1.421875 
Q 24.65625 -1.421875 15.125 8.703125 
Q 5.609375 18.84375 5.609375 36.375 
Q 5.609375 53.953125 15.125 64.078125 
Q 24.65625 74.21875 41.21875 74.21875 
Q 47.75 74.21875 53.53125 72.484375 
Q 59.328125 70.75 64.40625 67.28125 
z
" id="DejaVuSans-67"/>
       <path d="M 54.890625 33.015625 
L 54.890625 0 
L 45.90625 0 
L 45.90625 32.71875 
Q 45.90625 40.484375 42.875 44.328125 
Q 39.84375 48.1875 33.796875 48.1875 
Q 26.515625 48.1875 22.3125 43.546875 
Q 18.109375 38.921875 18.109375 30.90625 
L 18.109375 0 
L 9.078125 0 
L 9.078125 75.984375 
L 18.109375 75.984375 
L 18.109375 46.1875 
Q 21.34375 51.125 25.703125 53.5625 
Q 30.078125 56 35.796875 56 
Q 45.21875 56 50.046875 50.171875 
Q 54.890625 44.34375 54.890625 33.015625 
z
" id="DejaVuSans-104"/>
       <path d="M 9.421875 54.6875 
L 18.40625 54.6875 
L 18.40625 0 
L 9.421875 0 
z
M 9.421875 75.984375 
L 18.40625 75.984375 
L 18.40625 64.59375 
L 9.421875 64.59375 
z
" id="DejaVuSans-105"/>
      </defs>
      <use xlink:href="#DejaVuSans-65"/>
      <use x="68.408203" xlink:href="#DejaVuSans-103"/>
      <use x="131.884766" xlink:href="#DejaVuSans-101"/>
      <use x="193.408203" xlink:href="#DejaVuSans-32"/>
      <use x="225.195312" xlink:href="#DejaVuSans-45"/>
      <use x="261.279297" xlink:href="#DejaVuSans-32"/>
      <use x="293.066406" xlink:href="#DejaVuSans-67"/>
      <use x="362.890625" xlink:href="#DejaVuSans-104"/>
      <use x="426.269531" xlink:href="#DejaVuSans-105"/>
      <use x="454.052734" xlink:href="#DejaVuSans-108"/>
      <use x="481.835938" xlink:href="#DejaVuSans-100"/>
     </g>
    </g>
    <g id="patch_20">
     <path d="M 98.3025 89.918438 
L 134.3025 89.918438 
L 134.3025 77.318438 
L 98.3025 77.318438 
z
" style="fill:url(#hac5f2ce68b);stroke:#ffffff;stroke-linejoin:miter;"/>
    </g>
    <g id="text_14">
     <!-- Age - Infant -->
     <g style="fill:#262626;" transform="translate(148.7025 89.918438)scale(0.18 -0.18)">
      <defs>
       <path d="M 9.8125 72.90625 
L 19.671875 72.90625 
L 19.671875 0 
L 9.8125 0 
z
" id="DejaVuSans-73"/>
      </defs>
      <use xlink:href="#DejaVuSans-65"/>
      <use x="68.408203" xlink:href="#DejaVuSans-103"/>
      <use x="131.884766" xlink:href="#DejaVuSans-101"/>
      <use x="193.408203" xlink:href="#DejaVuSans-32"/>
      <use x="225.195312" xlink:href="#DejaVuSans-45"/>
      <use x="261.279297" xlink:href="#DejaVuSans-32"/>
      <use x="293.066406" xlink:href="#DejaVuSans-73"/>
      <use x="322.558594" xlink:href="#DejaVuSans-110"/>
      <use x="385.9375" xlink:href="#DejaVuSans-102"/>
      <use x="421.142578" xlink:href="#DejaVuSans-97"/>
      <use x="482.421875" xlink:href="#DejaVuSans-110"/>
      <use x="545.800781" xlink:href="#DejaVuSans-116"/>
     </g>
    </g>
    <g id="patch_21">
     <path d="M 336.782813 37.077188 
L 372.782813 37.077188 
L 372.782813 24.477188 
L 336.782813 24.477188 
z
" style="fill:url(#h6c1bd60b77);stroke:#ffffff;stroke-linejoin:miter;"/>
    </g>
    <g id="text_15">
     <!-- Age - NA -->
     <g style="fill:#262626;" transform="translate(387.182813 37.077188)scale(0.18 -0.18)">
      <use xlink:href="#DejaVuSans-65"/>
      <use x="68.408203" xlink:href="#DejaVuSans-103"/>
      <use x="131.884766" xlink:href="#DejaVuSans-101"/>
      <use x="193.408203" xlink:href="#DejaVuSans-32"/>
      <use x="225.195312" xlink:href="#DejaVuSans-45"/>
      <use x="261.279297" xlink:href="#DejaVuSans-32"/>
      <use x="293.066406" xlink:href="#DejaVuSans-78"/>
      <use x="367.871094" xlink:href="#DejaVuSans-65"/>
     </g>
    </g>
    <g id="patch_22">
     <path d="M 336.782813 63.497813 
L 372.782813 63.497813 
L 372.782813 50.897813 
L 336.782813 50.897813 
z
" style="fill:url(#h1be1f5adc6);stroke:#ffffff;stroke-linejoin:miter;"/>
    </g>
    <g id="text_16">
     <!-- Age - Neonate -->
     <g style="fill:#262626;" transform="translate(387.182813 63.497813)scale(0.18 -0.18)">
      <use xlink:href="#DejaVuSans-65"/>
      <use x="68.408203" xlink:href="#DejaVuSans-103"/>
      <use x="131.884766" xlink:href="#DejaVuSans-101"/>
      <use x="193.408203" xlink:href="#DejaVuSans-32"/>
      <use x="225.195312" xlink:href="#DejaVuSans-45"/>
      <use x="261.279297" xlink:href="#DejaVuSans-32"/>
      <use x="293.066406" xlink:href="#DejaVuSans-78"/>
      <use x="367.871094" xlink:href="#DejaVuSans-101"/>
      <use x="429.394531" xlink:href="#DejaVuSans-111"/>
      <use x="490.576172" xlink:href="#DejaVuSans-110"/>
      <use x="553.955078" xlink:href="#DejaVuSans-97"/>
      <use x="615.234375" xlink:href="#DejaVuSans-116"/>
      <use x="654.443359" xlink:href="#DejaVuSans-101"/>
     </g>
    </g>
   </g>
  </g>
 </g>
 <defs>
  <clipPath id="p11656a196d">
   <rect height="493.58" width="474.08" x="82.1025" y="7.2"/>
  </clipPath>
 </defs>
 <defs>
  <pattern height="72" id="h29b13a50c7" patternUnits="userSpaceOnUse" width="72" x="0" y="0">
   <rect fill="#4c72b0" height="73" width="73" x="0" y="0"/>
   <path d="M -36 36 
L 36 -36 
M -24 48 
L 48 -24 
M -12 60 
L 60 -12 
M 0 72 
L 72 0 
M 12 84 
L 84 12 
M 24 96 
L 96 24 
M 36 108 
L 108 36 
" style="fill:#ffffff;stroke:#ffffff;stroke-linecap:butt;stroke-linejoin:miter;stroke-width:2.5;"/>
  </pattern>
  <pattern height="72" id="hf002bec821" patternUnits="userSpaceOnUse" width="72" x="0" y="0">
   <rect fill="#dd8452" height="73" width="73" x="0" y="0"/>
   <path d="M -36 36 
L 36 108 
M -24 24 
L 48 96 
M -12 12 
L 60 84 
M 0 0 
L 72 72 
M 12 -12 
L 84 60 
M 24 -24 
L 96 48 
M 36 -36 
L 108 36 
" style="fill:#ffffff;stroke:#ffffff;stroke-linecap:butt;stroke-linejoin:miter;stroke-width:2.5;"/>
  </pattern>
  <pattern height="72" id="hac5f2ce68b" patternUnits="userSpaceOnUse" width="72" x="0" y="0">
   <rect fill="#55a868" height="73" width="73" x="0" y="0"/>
   <path d="M 6 72 
L 6 0 
M 18 72 
L 18 0 
M 30 72 
L 30 0 
M 42 72 
L 42 0 
M 54 72 
L 54 0 
M 66 72 
L 66 0 
" style="fill:#ffffff;stroke:#ffffff;stroke-linecap:butt;stroke-linejoin:miter;stroke-width:2.5;"/>
  </pattern>
  <pattern height="72" id="h6c1bd60b77" patternUnits="userSpaceOnUse" width="72" x="0" y="0">
   <rect fill="#c44e52" height="73" width="73" x="0" y="0"/>
   <path d="M 0 73.2 
C 0.318244 73.2 0.623496 73.07356 0.848528 72.848528 
C 1.07356 72.623496 1.2 72.318244 1.2 72 
C 1.2 71.681756 1.07356 71.376504 0.848528 71.151472 
C 0.623496 70.92644 0.318244 70.8 0 70.8 
C -0.318244 70.8 -0.623496 70.92644 -0.848528 71.151472 
C -1.07356 71.376504 -1.2 71.681756 -1.2 72 
C -1.2 72.318244 -1.07356 72.623496 -0.848528 72.848528 
C -0.623496 73.07356 -0.318244 73.2 0 73.2 
z
M 12 73.2 
C 12.318244 73.2 12.623496 73.07356 12.848528 72.848528 
C 13.07356 72.623496 13.2 72.318244 13.2 72 
C 13.2 71.681756 13.07356 71.376504 12.848528 71.151472 
C 12.623496 70.92644 12.318244 70.8 12 70.8 
C 11.681756 70.8 11.376504 70.92644 11.151472 71.151472 
C 10.92644 71.376504 10.8 71.681756 10.8 72 
C 10.8 72.318244 10.92644 72.623496 11.151472 72.848528 
C 11.376504 73.07356 11.681756 73.2 12 73.2 
z
M 24 73.2 
C 24.318244 73.2 24.623496 73.07356 24.848528 72.848528 
C 25.07356 72.623496 25.2 72.318244 25.2 72 
C 25.2 71.681756 25.07356 71.376504 24.848528 71.151472 
C 24.623496 70.92644 24.318244 70.8 24 70.8 
C 23.681756 70.8 23.376504 70.92644 23.151472 71.151472 
C 22.92644 71.376504 22.8 71.681756 22.8 72 
C 22.8 72.318244 22.92644 72.623496 23.151472 72.848528 
C 23.376504 73.07356 23.681756 73.2 24 73.2 
z
M 36 73.2 
C 36.318244 73.2 36.623496 73.07356 36.848528 72.848528 
C 37.07356 72.623496 37.2 72.318244 37.2 72 
C 37.2 71.681756 37.07356 71.376504 36.848528 71.151472 
C 36.623496 70.92644 36.318244 70.8 36 70.8 
C 35.681756 70.8 35.376504 70.92644 35.151472 71.151472 
C 34.92644 71.376504 34.8 71.681756 34.8 72 
C 34.8 72.318244 34.92644 72.623496 35.151472 72.848528 
C 35.376504 73.07356 35.681756 73.2 36 73.2 
z
M 48 73.2 
C 48.318244 73.2 48.623496 73.07356 48.848528 72.848528 
C 49.07356 72.623496 49.2 72.318244 49.2 72 
C 49.2 71.681756 49.07356 71.376504 48.848528 71.151472 
C 48.623496 70.92644 48.318244 70.8 48 70.8 
C 47.681756 70.8 47.376504 70.92644 47.151472 71.151472 
C 46.92644 71.376504 46.8 71.681756 46.8 72 
C 46.8 72.318244 46.92644 72.623496 47.151472 72.848528 
C 47.376504 73.07356 47.681756 73.2 48 73.2 
z
M 60 73.2 
C 60.318244 73.2 60.623496 73.07356 60.848528 72.848528 
C 61.07356 72.623496 61.2 72.318244 61.2 72 
C 61.2 71.681756 61.07356 71.376504 60.848528 71.151472 
C 60.623496 70.92644 60.318244 70.8 60 70.8 
C 59.681756 70.8 59.376504 70.92644 59.151472 71.151472 
C 58.92644 71.376504 58.8 71.681756 58.8 72 
C 58.8 72.318244 58.92644 72.623496 59.151472 72.848528 
C 59.376504 73.07356 59.681756 73.2 60 73.2 
z
M 72 73.2 
C 72.318244 73.2 72.623496 73.07356 72.848528 72.848528 
C 73.07356 72.623496 73.2 72.318244 73.2 72 
C 73.2 71.681756 73.07356 71.376504 72.848528 71.151472 
C 72.623496 70.92644 72.318244 70.8 72 70.8 
C 71.681756 70.8 71.376504 70.92644 71.151472 71.151472 
C 70.92644 71.376504 70.8 71.681756 70.8 72 
C 70.8 72.318244 70.92644 72.623496 71.151472 72.848528 
C 71.376504 73.07356 71.681756 73.2 72 73.2 
z
M 6 61.2 
C 6.318244 61.2 6.623496 61.07356 6.848528 60.848528 
C 7.07356 60.623496 7.2 60.318244 7.2 60 
C 7.2 59.681756 7.07356 59.376504 6.848528 59.151472 
C 6.623496 58.92644 6.318244 58.8 6 58.8 
C 5.681756 58.8 5.376504 58.92644 5.151472 59.151472 
C 4.92644 59.376504 4.8 59.681756 4.8 60 
C 4.8 60.318244 4.92644 60.623496 5.151472 60.848528 
C 5.376504 61.07356 5.681756 61.2 6 61.2 
z
M 18 61.2 
C 18.318244 61.2 18.623496 61.07356 18.848528 60.848528 
C 19.07356 60.623496 19.2 60.318244 19.2 60 
C 19.2 59.681756 19.07356 59.376504 18.848528 59.151472 
C 18.623496 58.92644 18.318244 58.8 18 58.8 
C 17.681756 58.8 17.376504 58.92644 17.151472 59.151472 
C 16.92644 59.376504 16.8 59.681756 16.8 60 
C 16.8 60.318244 16.92644 60.623496 17.151472 60.848528 
C 17.376504 61.07356 17.681756 61.2 18 61.2 
z
M 30 61.2 
C 30.318244 61.2 30.623496 61.07356 30.848528 60.848528 
C 31.07356 60.623496 31.2 60.318244 31.2 60 
C 31.2 59.681756 31.07356 59.376504 30.848528 59.151472 
C 30.623496 58.92644 30.318244 58.8 30 58.8 
C 29.681756 58.8 29.376504 58.92644 29.151472 59.151472 
C 28.92644 59.376504 28.8 59.681756 28.8 60 
C 28.8 60.318244 28.92644 60.623496 29.151472 60.848528 
C 29.376504 61.07356 29.681756 61.2 30 61.2 
z
M 42 61.2 
C 42.318244 61.2 42.623496 61.07356 42.848528 60.848528 
C 43.07356 60.623496 43.2 60.318244 43.2 60 
C 43.2 59.681756 43.07356 59.376504 42.848528 59.151472 
C 42.623496 58.92644 42.318244 58.8 42 58.8 
C 41.681756 58.8 41.376504 58.92644 41.151472 59.151472 
C 40.92644 59.376504 40.8 59.681756 40.8 60 
C 40.8 60.318244 40.92644 60.623496 41.151472 60.848528 
C 41.376504 61.07356 41.681756 61.2 42 61.2 
z
M 54 61.2 
C 54.318244 61.2 54.623496 61.07356 54.848528 60.848528 
C 55.07356 60.623496 55.2 60.318244 55.2 60 
C 55.2 59.681756 55.07356 59.376504 54.848528 59.151472 
C 54.623496 58.92644 54.318244 58.8 54 58.8 
C 53.681756 58.8 53.376504 58.92644 53.151472 59.151472 
C 52.92644 59.376504 52.8 59.681756 52.8 60 
C 52.8 60.318244 52.92644 60.623496 53.151472 60.848528 
C 53.376504 61.07356 53.681756 61.2 54 61.2 
z
M 66 61.2 
C 66.318244 61.2 66.623496 61.07356 66.848528 60.848528 
C 67.07356 60.623496 67.2 60.318244 67.2 60 
C 67.2 59.681756 67.07356 59.376504 66.848528 59.151472 
C 66.623496 58.92644 66.318244 58.8 66 58.8 
C 65.681756 58.8 65.376504 58.92644 65.151472 59.151472 
C 64.92644 59.376504 64.8 59.681756 64.8 60 
C 64.8 60.318244 64.92644 60.623496 65.151472 60.848528 
C 65.376504 61.07356 65.681756 61.2 66 61.2 
z
M 0 49.2 
C 0.318244 49.2 0.623496 49.07356 0.848528 48.848528 
C 1.07356 48.623496 1.2 48.318244 1.2 48 
C 1.2 47.681756 1.07356 47.376504 0.848528 47.151472 
C 0.623496 46.92644 0.318244 46.8 0 46.8 
C -0.318244 46.8 -0.623496 46.92644 -0.848528 47.151472 
C -1.07356 47.376504 -1.2 47.681756 -1.2 48 
C -1.2 48.318244 -1.07356 48.623496 -0.848528 48.848528 
C -0.623496 49.07356 -0.318244 49.2 0 49.2 
z
M 12 49.2 
C 12.318244 49.2 12.623496 49.07356 12.848528 48.848528 
C 13.07356 48.623496 13.2 48.318244 13.2 48 
C 13.2 47.681756 13.07356 47.376504 12.848528 47.151472 
C 12.623496 46.92644 12.318244 46.8 12 46.8 
C 11.681756 46.8 11.376504 46.92644 11.151472 47.151472 
C 10.92644 47.376504 10.8 47.681756 10.8 48 
C 10.8 48.318244 10.92644 48.623496 11.151472 48.848528 
C 11.376504 49.07356 11.681756 49.2 12 49.2 
z
M 24 49.2 
C 24.318244 49.2 24.623496 49.07356 24.848528 48.848528 
C 25.07356 48.623496 25.2 48.318244 25.2 48 
C 25.2 47.681756 25.07356 47.376504 24.848528 47.151472 
C 24.623496 46.92644 24.318244 46.8 24 46.8 
C 23.681756 46.8 23.376504 46.92644 23.151472 47.151472 
C 22.92644 47.376504 22.8 47.681756 22.8 48 
C 22.8 48.318244 22.92644 48.623496 23.151472 48.848528 
C 23.376504 49.07356 23.681756 49.2 24 49.2 
z
M 36 49.2 
C 36.318244 49.2 36.623496 49.07356 36.848528 48.848528 
C 37.07356 48.623496 37.2 48.318244 37.2 48 
C 37.2 47.681756 37.07356 47.376504 36.848528 47.151472 
C 36.623496 46.92644 36.318244 46.8 36 46.8 
C 35.681756 46.8 35.376504 46.92644 35.151472 47.151472 
C 34.92644 47.376504 34.8 47.681756 34.8 48 
C 34.8 48.318244 34.92644 48.623496 35.151472 48.848528 
C 35.376504 49.07356 35.681756 49.2 36 49.2 
z
M 48 49.2 
C 48.318244 49.2 48.623496 49.07356 48.848528 48.848528 
C 49.07356 48.623496 49.2 48.318244 49.2 48 
C 49.2 47.681756 49.07356 47.376504 48.848528 47.151472 
C 48.623496 46.92644 48.318244 46.8 48 46.8 
C 47.681756 46.8 47.376504 46.92644 47.151472 47.151472 
C 46.92644 47.376504 46.8 47.681756 46.8 48 
C 46.8 48.318244 46.92644 48.623496 47.151472 48.848528 
C 47.376504 49.07356 47.681756 49.2 48 49.2 
z
M 60 49.2 
C 60.318244 49.2 60.623496 49.07356 60.848528 48.848528 
C 61.07356 48.623496 61.2 48.318244 61.2 48 
C 61.2 47.681756 61.07356 47.376504 60.848528 47.151472 
C 60.623496 46.92644 60.318244 46.8 60 46.8 
C 59.681756 46.8 59.376504 46.92644 59.151472 47.151472 
C 58.92644 47.376504 58.8 47.681756 58.8 48 
C 58.8 48.318244 58.92644 48.623496 59.151472 48.848528 
C 59.376504 49.07356 59.681756 49.2 60 49.2 
z
M 72 49.2 
C 72.318244 49.2 72.623496 49.07356 72.848528 48.848528 
C 73.07356 48.623496 73.2 48.318244 73.2 48 
C 73.2 47.681756 73.07356 47.376504 72.848528 47.151472 
C 72.623496 46.92644 72.318244 46.8 72 46.8 
C 71.681756 46.8 71.376504 46.92644 71.151472 47.151472 
C 70.92644 47.376504 70.8 47.681756 70.8 48 
C 70.8 48.318244 70.92644 48.623496 71.151472 48.848528 
C 71.376504 49.07356 71.681756 49.2 72 49.2 
z
M 6 37.2 
C 6.318244 37.2 6.623496 37.07356 6.848528 36.848528 
C 7.07356 36.623496 7.2 36.318244 7.2 36 
C 7.2 35.681756 7.07356 35.376504 6.848528 35.151472 
C 6.623496 34.92644 6.318244 34.8 6 34.8 
C 5.681756 34.8 5.376504 34.92644 5.151472 35.151472 
C 4.92644 35.376504 4.8 35.681756 4.8 36 
C 4.8 36.318244 4.92644 36.623496 5.151472 36.848528 
C 5.376504 37.07356 5.681756 37.2 6 37.2 
z
M 18 37.2 
C 18.318244 37.2 18.623496 37.07356 18.848528 36.848528 
C 19.07356 36.623496 19.2 36.318244 19.2 36 
C 19.2 35.681756 19.07356 35.376504 18.848528 35.151472 
C 18.623496 34.92644 18.318244 34.8 18 34.8 
C 17.681756 34.8 17.376504 34.92644 17.151472 35.151472 
C 16.92644 35.376504 16.8 35.681756 16.8 36 
C 16.8 36.318244 16.92644 36.623496 17.151472 36.848528 
C 17.376504 37.07356 17.681756 37.2 18 37.2 
z
M 30 37.2 
C 30.318244 37.2 30.623496 37.07356 30.848528 36.848528 
C 31.07356 36.623496 31.2 36.318244 31.2 36 
C 31.2 35.681756 31.07356 35.376504 30.848528 35.151472 
C 30.623496 34.92644 30.318244 34.8 30 34.8 
C 29.681756 34.8 29.376504 34.92644 29.151472 35.151472 
C 28.92644 35.376504 28.8 35.681756 28.8 36 
C 28.8 36.318244 28.92644 36.623496 29.151472 36.848528 
C 29.376504 37.07356 29.681756 37.2 30 37.2 
z
M 42 37.2 
C 42.318244 37.2 42.623496 37.07356 42.848528 36.848528 
C 43.07356 36.623496 43.2 36.318244 43.2 36 
C 43.2 35.681756 43.07356 35.376504 42.848528 35.151472 
C 42.623496 34.92644 42.318244 34.8 42 34.8 
C 41.681756 34.8 41.376504 34.92644 41.151472 35.151472 
C 40.92644 35.376504 40.8 35.681756 40.8 36 
C 40.8 36.318244 40.92644 36.623496 41.151472 36.848528 
C 41.376504 37.07356 41.681756 37.2 42 37.2 
z
M 54 37.2 
C 54.318244 37.2 54.623496 37.07356 54.848528 36.848528 
C 55.07356 36.623496 55.2 36.318244 55.2 36 
C 55.2 35.681756 55.07356 35.376504 54.848528 35.151472 
C 54.623496 34.92644 54.318244 34.8 54 34.8 
C 53.681756 34.8 53.376504 34.92644 53.151472 35.151472 
C 52.92644 35.376504 52.8 35.681756 52.8 36 
C 52.8 36.318244 52.92644 36.623496 53.151472 36.848528 
C 53.376504 37.07356 53.681756 37.2 54 37.2 
z
M 66 37.2 
C 66.318244 37.2 66.623496 37.07356 66.848528 36.848528 
C 67.07356 36.623496 67.2 36.318244 67.2 36 
C 67.2 35.681756 67.07356 35.376504 66.848528 35.151472 
C 66.623496 34.92644 66.318244 34.8 66 34.8 
C 65.681756 34.8 65.376504 34.92644 65.151472 35.151472 
C 64.92644 35.376504 64.8 35.681756 64.8 36 
C 64.8 36.318244 64.92644 36.623496 65.151472 36.848528 
C 65.376504 37.07356 65.681756 37.2 66 37.2 
z
M 0 25.2 
C 0.318244 25.2 0.623496 25.07356 0.848528 24.848528 
C 1.07356 24.623496 1.2 24.318244 1.2 24 
C 1.2 23.681756 1.07356 23.376504 0.848528 23.151472 
C 0.623496 22.92644 0.318244 22.8 0 22.8 
C -0.318244 22.8 -0.623496 22.92644 -0.848528 23.151472 
C -1.07356 23.376504 -1.2 23.681756 -1.2 24 
C -1.2 24.318244 -1.07356 24.623496 -0.848528 24.848528 
C -0.623496 25.07356 -0.318244 25.2 0 25.2 
z
M 12 25.2 
C 12.318244 25.2 12.623496 25.07356 12.848528 24.848528 
C 13.07356 24.623496 13.2 24.318244 13.2 24 
C 13.2 23.681756 13.07356 23.376504 12.848528 23.151472 
C 12.623496 22.92644 12.318244 22.8 12 22.8 
C 11.681756 22.8 11.376504 22.92644 11.151472 23.151472 
C 10.92644 23.376504 10.8 23.681756 10.8 24 
C 10.8 24.318244 10.92644 24.623496 11.151472 24.848528 
C 11.376504 25.07356 11.681756 25.2 12 25.2 
z
M 24 25.2 
C 24.318244 25.2 24.623496 25.07356 24.848528 24.848528 
C 25.07356 24.623496 25.2 24.318244 25.2 24 
C 25.2 23.681756 25.07356 23.376504 24.848528 23.151472 
C 24.623496 22.92644 24.318244 22.8 24 22.8 
C 23.681756 22.8 23.376504 22.92644 23.151472 23.151472 
C 22.92644 23.376504 22.8 23.681756 22.8 24 
C 22.8 24.318244 22.92644 24.623496 23.151472 24.848528 
C 23.376504 25.07356 23.681756 25.2 24 25.2 
z
M 36 25.2 
C 36.318244 25.2 36.623496 25.07356 36.848528 24.848528 
C 37.07356 24.623496 37.2 24.318244 37.2 24 
C 37.2 23.681756 37.07356 23.376504 36.848528 23.151472 
C 36.623496 22.92644 36.318244 22.8 36 22.8 
C 35.681756 22.8 35.376504 22.92644 35.151472 23.151472 
C 34.92644 23.376504 34.8 23.681756 34.8 24 
C 34.8 24.318244 34.92644 24.623496 35.151472 24.848528 
C 35.376504 25.07356 35.681756 25.2 36 25.2 
z
M 48 25.2 
C 48.318244 25.2 48.623496 25.07356 48.848528 24.848528 
C 49.07356 24.623496 49.2 24.318244 49.2 24 
C 49.2 23.681756 49.07356 23.376504 48.848528 23.151472 
C 48.623496 22.92644 48.318244 22.8 48 22.8 
C 47.681756 22.8 47.376504 22.92644 47.151472 23.151472 
C 46.92644 23.376504 46.8 23.681756 46.8 24 
C 46.8 24.318244 46.92644 24.623496 47.151472 24.848528 
C 47.376504 25.07356 47.681756 25.2 48 25.2 
z
M 60 25.2 
C 60.318244 25.2 60.623496 25.07356 60.848528 24.848528 
C 61.07356 24.623496 61.2 24.318244 61.2 24 
C 61.2 23.681756 61.07356 23.376504 60.848528 23.151472 
C 60.623496 22.92644 60.318244 22.8 60 22.8 
C 59.681756 22.8 59.376504 22.92644 59.151472 23.151472 
C 58.92644 23.376504 58.8 23.681756 58.8 24 
C 58.8 24.318244 58.92644 24.623496 59.151472 24.848528 
C 59.376504 25.07356 59.681756 25.2 60 25.2 
z
M 72 25.2 
C 72.318244 25.2 72.623496 25.07356 72.848528 24.848528 
C 73.07356 24.623496 73.2 24.318244 73.2 24 
C 73.2 23.681756 73.07356 23.376504 72.848528 23.151472 
C 72.623496 22.92644 72.318244 22.8 72 22.8 
C 71.681756 22.8 71.376504 22.92644 71.151472 23.151472 
C 70.92644 23.376504 70.8 23.681756 70.8 24 
C 70.8 24.318244 70.92644 24.623496 71.151472 24.848528 
C 71.376504 25.07356 71.681756 25.2 72 25.2 
z
M 6 13.2 
C 6.318244 13.2 6.623496 13.07356 6.848528 12.848528 
C 7.07356 12.623496 7.2 12.318244 7.2 12 
C 7.2 11.681756 7.07356 11.376504 6.848528 11.151472 
C 6.623496 10.92644 6.318244 10.8 6 10.8 
C 5.681756 10.8 5.376504 10.92644 5.151472 11.151472 
C 4.92644 11.376504 4.8 11.681756 4.8 12 
C 4.8 12.318244 4.92644 12.623496 5.151472 12.848528 
C 5.376504 13.07356 5.681756 13.2 6 13.2 
z
M 18 13.2 
C 18.318244 13.2 18.623496 13.07356 18.848528 12.848528 
C 19.07356 12.623496 19.2 12.318244 19.2 12 
C 19.2 11.681756 19.07356 11.376504 18.848528 11.151472 
C 18.623496 10.92644 18.318244 10.8 18 10.8 
C 17.681756 10.8 17.376504 10.92644 17.151472 11.151472 
C 16.92644 11.376504 16.8 11.681756 16.8 12 
C 16.8 12.318244 16.92644 12.623496 17.151472 12.848528 
C 17.376504 13.07356 17.681756 13.2 18 13.2 
z
M 30 13.2 
C 30.318244 13.2 30.623496 13.07356 30.848528 12.848528 
C 31.07356 12.623496 31.2 12.318244 31.2 12 
C 31.2 11.681756 31.07356 11.376504 30.848528 11.151472 
C 30.623496 10.92644 30.318244 10.8 30 10.8 
C 29.681756 10.8 29.376504 10.92644 29.151472 11.151472 
C 28.92644 11.376504 28.8 11.681756 28.8 12 
C 28.8 12.318244 28.92644 12.623496 29.151472 12.848528 
C 29.376504 13.07356 29.681756 13.2 30 13.2 
z
M 42 13.2 
C 42.318244 13.2 42.623496 13.07356 42.848528 12.848528 
C 43.07356 12.623496 43.2 12.318244 43.2 12 
C 43.2 11.681756 43.07356 11.376504 42.848528 11.151472 
C 42.623496 10.92644 42.318244 10.8 42 10.8 
C 41.681756 10.8 41.376504 10.92644 41.151472 11.151472 
C 40.92644 11.376504 40.8 11.681756 40.8 12 
C 40.8 12.318244 40.92644 12.623496 41.151472 12.848528 
C 41.376504 13.07356 41.681756 13.2 42 13.2 
z
M 54 13.2 
C 54.318244 13.2 54.623496 13.07356 54.848528 12.848528 
C 55.07356 12.623496 55.2 12.318244 55.2 12 
C 55.2 11.681756 55.07356 11.376504 54.848528 11.151472 
C 54.623496 10.92644 54.318244 10.8 54 10.8 
C 53.681756 10.8 53.376504 10.92644 53.151472 11.151472 
C 52.92644 11.376504 52.8 11.681756 52.8 12 
C 52.8 12.318244 52.92644 12.623496 53.151472 12.848528 
C 53.376504 13.07356 53.681756 13.2 54 13.2 
z
M 66 13.2 
C 66.318244 13.2 66.623496 13.07356 66.848528 12.848528 
C 67.07356 12.623496 67.2 12.318244 67.2 12 
C 67.2 11.681756 67.07356 11.376504 66.848528 11.151472 
C 66.623496 10.92644 66.318244 10.8 66 10.8 
C 65.681756 10.8 65.376504 10.92644 65.151472 11.151472 
C 64.92644 11.376504 64.8 11.681756 64.8 12 
C 64.8 12.318244 64.92644 12.623496 65.151472 12.848528 
C 65.376504 13.07356 65.681756 13.2 66 13.2 
z
M 0 1.2 
C 0.318244 1.2 0.623496 1.07356 0.848528 0.848528 
C 1.07356 0.623496 1.2 0.318244 1.2 0 
C 1.2 -0.318244 1.07356 -0.623496 0.848528 -0.848528 
C 0.623496 -1.07356 0.318244 -1.2 0 -1.2 
C -0.318244 -1.2 -0.623496 -1.07356 -0.848528 -0.848528 
C -1.07356 -0.623496 -1.2 -0.318244 -1.2 0 
C -1.2 0.318244 -1.07356 0.623496 -0.848528 0.848528 
C -0.623496 1.07356 -0.318244 1.2 0 1.2 
z
M 12 1.2 
C 12.318244 1.2 12.623496 1.07356 12.848528 0.848528 
C 13.07356 0.623496 13.2 0.318244 13.2 0 
C 13.2 -0.318244 13.07356 -0.623496 12.848528 -0.848528 
C 12.623496 -1.07356 12.318244 -1.2 12 -1.2 
C 11.681756 -1.2 11.376504 -1.07356 11.151472 -0.848528 
C 10.92644 -0.623496 10.8 -0.318244 10.8 0 
C 10.8 0.318244 10.92644 0.623496 11.151472 0.848528 
C 11.376504 1.07356 11.681756 1.2 12 1.2 
z
M 24 1.2 
C 24.318244 1.2 24.623496 1.07356 24.848528 0.848528 
C 25.07356 0.623496 25.2 0.318244 25.2 0 
C 25.2 -0.318244 25.07356 -0.623496 24.848528 -0.848528 
C 24.623496 -1.07356 24.318244 -1.2 24 -1.2 
C 23.681756 -1.2 23.376504 -1.07356 23.151472 -0.848528 
C 22.92644 -0.623496 22.8 -0.318244 22.8 0 
C 22.8 0.318244 22.92644 0.623496 23.151472 0.848528 
C 23.376504 1.07356 23.681756 1.2 24 1.2 
z
M 36 1.2 
C 36.318244 1.2 36.623496 1.07356 36.848528 0.848528 
C 37.07356 0.623496 37.2 0.318244 37.2 0 
C 37.2 -0.318244 37.07356 -0.623496 36.848528 -0.848528 
C 36.623496 -1.07356 36.318244 -1.2 36 -1.2 
C 35.681756 -1.2 35.376504 -1.07356 35.151472 -0.848528 
C 34.92644 -0.623496 34.8 -0.318244 34.8 0 
C 34.8 0.318244 34.92644 0.623496 35.151472 0.848528 
C 35.376504 1.07356 35.681756 1.2 36 1.2 
z
M 48 1.2 
C 48.318244 1.2 48.623496 1.07356 48.848528 0.848528 
C 49.07356 0.623496 49.2 0.318244 49.2 0 
C 49.2 -0.318244 49.07356 -0.623496 48.848528 -0.848528 
C 48.623496 -1.07356 48.318244 -1.2 48 -1.2 
C 47.681756 -1.2 47.376504 -1.07356 47.151472 -0.848528 
C 46.92644 -0.623496 46.8 -0.318244 46.8 0 
C 46.8 0.318244 46.92644 0.623496 47.151472 0.848528 
C 47.376504 1.07356 47.681756 1.2 48 1.2 
z
M 60 1.2 
C 60.318244 1.2 60.623496 1.07356 60.848528 0.848528 
C 61.07356 0.623496 61.2 0.318244 61.2 0 
C 61.2 -0.318244 61.07356 -0.623496 60.848528 -0.848528 
C 60.623496 -1.07356 60.318244 -1.2 60 -1.2 
C 59.681756 -1.2 59.376504 -1.07356 59.151472 -0.848528 
C 58.92644 -0.623496 58.8 -0.318244 58.8 0 
C 58.8 0.318244 58.92644 0.623496 59.151472 0.848528 
C 59.376504 1.07356 59.681756 1.2 60 1.2 
z
M 72 1.2 
C 72.318244 1.2 72.623496 1.07356 72.848528 0.848528 
C 73.07356 0.623496 73.2 0.318244 73.2 0 
C 73.2 -0.318244 73.07356 -0.623496 72.848528 -0.848528 
C 72.623496 -1.07356 72.318244 -1.2 72 -1.2 
C 71.681756 -1.2 71.376504 -1.07356 71.151472 -0.848528 
C 70.92644 -0.623496 70.8 -0.318244 70.8 0 
C 70.8 0.318244 70.92644 0.623496 71.151472 0.848528 
C 71.376504 1.07356 71.681756 1.2 72 1.2 
z
" style="fill:#ffffff;stroke:#ffffff;stroke-linecap:butt;stroke-linejoin:miter;stroke-width:2.5;"/>
  </pattern>
  <pattern height="72" id="h1be1f5adc6" patternUnits="userSpaceOnUse" width="72" x="0" y="0">
   <rect fill="#8172b3" height="73" width="73" x="0" y="0"/>
   <path d="M -36 36 
L 36 -36 
M -24 48 
L 48 -24 
M -12 60 
L 60 -12 
M 0 72 
L 72 0 
M 12 84 
L 84 12 
M 24 96 
L 96 24 
M 36 108 
L 108 36 
M -36 36 
L 36 108 
M -24 24 
L 48 96 
M -12 12 
L 60 84 
M 0 0 
L 72 72 
M 12 -12 
L 84 60 
M 24 -24 
L 96 48 
M 36 -36 
L 108 36 
" style="fill:#ffffff;stroke:#ffffff;stroke-linecap:butt;stroke-linejoin:miter;stroke-width:2.5;"/>
  </pattern>
 </defs>
</svg>
