<?xml version="1.0" encoding="utf-8" standalone="no"?>
<!DOCTYPE svg PUBLIC "-//W3C//DTD SVG 1.1//EN"
  "http://www.w3.org/Graphics/SVG/1.1/DTD/svg11.dtd">
<!-- Created with matplotlib (https://matplotlib.org/) -->
<svg height="746.03125pt" version="1.1" viewBox="0 0 1244.95625 746.03125" width="1244.95625pt" xmlns="http://www.w3.org/2000/svg" xmlns:xlink="http://www.w3.org/1999/xlink">
 <metadata>
  <rdf:RDF xmlns:cc="http://creativecommons.org/ns#" xmlns:dc="http://purl.org/dc/elements/1.1/" xmlns:rdf="http://www.w3.org/1999/02/22-rdf-syntax-ns#">
   <cc:Work>
    <dc:type rdf:resource="http://purl.org/dc/dcmitype/StillImage"/>
    <dc:date>2022-08-18T17:26:37.540919</dc:date>
    <dc:format>image/svg+xml</dc:format>
    <dc:creator>
     <cc:Agent>
      <dc:title>Matplotlib v3.3.4, https://matplotlib.org/</dc:title>
     </cc:Agent>
    </dc:creator>
   </cc:Work>
  </rdf:RDF>
 </metadata>
 <defs>
  <style type="text/css">*{stroke-linecap:butt;stroke-linejoin:round;}</style>
 </defs>
 <g id="figure_1">
  <g id="patch_1">
   <path d="M 0 746.03125 
L 1244.95625 746.03125 
L 1244.95625 0 
L 0 0 
z
" style="fill:#ffffff;"/>
  </g>
  <g id="axes_1">
   <g id="patch_2">
    <path d="M 121.75625 659.52 
L 1237.75625 659.52 
L 1237.75625 7.2 
L 121.75625 7.2 
z
" style="fill:#eaeaf2;"/>
   </g>
   <g id="matplotlib.axis_1">
    <g id="xtick_1">
     <g id="line2d_1">
      <path clip-path="url(#p17d4523dce)" d="M 162.322875 659.52 
L 162.322875 7.2 
" style="fill:none;stroke:#ffffff;stroke-linecap:round;"/>
     </g>
     <g id="text_1">
      <!-- 0 -->
      <g style="fill:#262626;" transform="translate(153.415375 690.295625)scale(0.28 -0.28)">
       <defs>
        <path d="M 31.78125 66.40625 
Q 24.171875 66.40625 20.328125 58.90625 
Q 16.5 51.421875 16.5 36.375 
Q 16.5 21.390625 20.328125 13.890625 
Q 24.171875 6.390625 31.78125 6.390625 
Q 39.453125 6.390625 43.28125 13.890625 
Q 47.125 21.390625 47.125 36.375 
Q 47.125 51.421875 43.28125 58.90625 
Q 39.453125 66.40625 31.78125 66.40625 
z
M 31.78125 74.21875 
Q 44.046875 74.21875 50.515625 64.515625 
Q 56.984375 54.828125 56.984375 36.375 
Q 56.984375 17.96875 50.515625 8.265625 
Q 44.046875 -1.421875 31.78125 -1.421875 
Q 19.53125 -1.421875 13.0625 8.265625 
Q 6.59375 17.96875 6.59375 36.375 
Q 6.59375 54.828125 13.0625 64.515625 
Q 19.53125 74.21875 31.78125 74.21875 
z
" id="DejaVuSans-48"/>
       </defs>
       <use xlink:href="#DejaVuSans-48"/>
      </g>
     </g>
    </g>
    <g id="xtick_2">
     <g id="line2d_2">
      <path clip-path="url(#p17d4523dce)" d="M 352.24153 659.52 
L 352.24153 7.2 
" style="fill:none;stroke:#ffffff;stroke-linecap:round;"/>
     </g>
     <g id="text_2">
      <!-- 2000 -->
      <g style="fill:#262626;" transform="translate(316.61153 690.295625)scale(0.28 -0.28)">
       <defs>
        <path d="M 19.1875 8.296875 
L 53.609375 8.296875 
L 53.609375 0 
L 7.328125 0 
L 7.328125 8.296875 
Q 12.9375 14.109375 22.625 23.890625 
Q 32.328125 33.6875 34.8125 36.53125 
Q 39.546875 41.84375 41.421875 45.53125 
Q 43.3125 49.21875 43.3125 52.78125 
Q 43.3125 58.59375 39.234375 62.25 
Q 35.15625 65.921875 28.609375 65.921875 
Q 23.96875 65.921875 18.8125 64.3125 
Q 13.671875 62.703125 7.8125 59.421875 
L 7.8125 69.390625 
Q 13.765625 71.78125 18.9375 73 
Q 24.125 74.21875 28.421875 74.21875 
Q 39.75 74.21875 46.484375 68.546875 
Q 53.21875 62.890625 53.21875 53.421875 
Q 53.21875 48.921875 51.53125 44.890625 
Q 49.859375 40.875 45.40625 35.40625 
Q 44.1875 33.984375 37.640625 27.21875 
Q 31.109375 20.453125 19.1875 8.296875 
z
" id="DejaVuSans-50"/>
       </defs>
       <use xlink:href="#DejaVuSans-50"/>
       <use x="63.623047" xlink:href="#DejaVuSans-48"/>
       <use x="127.246094" xlink:href="#DejaVuSans-48"/>
       <use x="190.869141" xlink:href="#DejaVuSans-48"/>
      </g>
     </g>
    </g>
    <g id="xtick_3">
     <g id="line2d_3">
      <path clip-path="url(#p17d4523dce)" d="M 542.160185 659.52 
L 542.160185 7.2 
" style="fill:none;stroke:#ffffff;stroke-linecap:round;"/>
     </g>
     <g id="text_3">
      <!-- 4000 -->
      <g style="fill:#262626;" transform="translate(506.530185 690.295625)scale(0.28 -0.28)">
       <defs>
        <path d="M 37.796875 64.3125 
L 12.890625 25.390625 
L 37.796875 25.390625 
z
M 35.203125 72.90625 
L 47.609375 72.90625 
L 47.609375 25.390625 
L 58.015625 25.390625 
L 58.015625 17.1875 
L 47.609375 17.1875 
L 47.609375 0 
L 37.796875 0 
L 37.796875 17.1875 
L 4.890625 17.1875 
L 4.890625 26.703125 
z
" id="DejaVuSans-52"/>
       </defs>
       <use xlink:href="#DejaVuSans-52"/>
       <use x="63.623047" xlink:href="#DejaVuSans-48"/>
       <use x="127.246094" xlink:href="#DejaVuSans-48"/>
       <use x="190.869141" xlink:href="#DejaVuSans-48"/>
      </g>
     </g>
    </g>
    <g id="xtick_4">
     <g id="line2d_4">
      <path clip-path="url(#p17d4523dce)" d="M 732.078839 659.52 
L 732.078839 7.2 
" style="fill:none;stroke:#ffffff;stroke-linecap:round;"/>
     </g>
     <g id="text_4">
      <!-- 6000 -->
      <g style="fill:#262626;" transform="translate(696.448839 690.295625)scale(0.28 -0.28)">
       <defs>
        <path d="M 33.015625 40.375 
Q 26.375 40.375 22.484375 35.828125 
Q 18.609375 31.296875 18.609375 23.390625 
Q 18.609375 15.53125 22.484375 10.953125 
Q 26.375 6.390625 33.015625 6.390625 
Q 39.65625 6.390625 43.53125 10.953125 
Q 47.40625 15.53125 47.40625 23.390625 
Q 47.40625 31.296875 43.53125 35.828125 
Q 39.65625 40.375 33.015625 40.375 
z
M 52.59375 71.296875 
L 52.59375 62.3125 
Q 48.875 64.0625 45.09375 64.984375 
Q 41.3125 65.921875 37.59375 65.921875 
Q 27.828125 65.921875 22.671875 59.328125 
Q 17.53125 52.734375 16.796875 39.40625 
Q 19.671875 43.65625 24.015625 45.921875 
Q 28.375 48.1875 33.59375 48.1875 
Q 44.578125 48.1875 50.953125 41.515625 
Q 57.328125 34.859375 57.328125 23.390625 
Q 57.328125 12.15625 50.6875 5.359375 
Q 44.046875 -1.421875 33.015625 -1.421875 
Q 20.359375 -1.421875 13.671875 8.265625 
Q 6.984375 17.96875 6.984375 36.375 
Q 6.984375 53.65625 15.1875 63.9375 
Q 23.390625 74.21875 37.203125 74.21875 
Q 40.921875 74.21875 44.703125 73.484375 
Q 48.484375 72.75 52.59375 71.296875 
z
" id="DejaVuSans-54"/>
       </defs>
       <use xlink:href="#DejaVuSans-54"/>
       <use x="63.623047" xlink:href="#DejaVuSans-48"/>
       <use x="127.246094" xlink:href="#DejaVuSans-48"/>
       <use x="190.869141" xlink:href="#DejaVuSans-48"/>
      </g>
     </g>
    </g>
    <g id="xtick_5">
     <g id="line2d_5">
      <path clip-path="url(#p17d4523dce)" d="M 921.997494 659.52 
L 921.997494 7.2 
" style="fill:none;stroke:#ffffff;stroke-linecap:round;"/>
     </g>
     <g id="text_5">
      <!-- 8000 -->
      <g style="fill:#262626;" transform="translate(886.367494 690.295625)scale(0.28 -0.28)">
       <defs>
        <path d="M 31.78125 34.625 
Q 24.75 34.625 20.71875 30.859375 
Q 16.703125 27.09375 16.703125 20.515625 
Q 16.703125 13.921875 20.71875 10.15625 
Q 24.75 6.390625 31.78125 6.390625 
Q 38.8125 6.390625 42.859375 10.171875 
Q 46.921875 13.96875 46.921875 20.515625 
Q 46.921875 27.09375 42.890625 30.859375 
Q 38.875 34.625 31.78125 34.625 
z
M 21.921875 38.8125 
Q 15.578125 40.375 12.03125 44.71875 
Q 8.5 49.078125 8.5 55.328125 
Q 8.5 64.0625 14.71875 69.140625 
Q 20.953125 74.21875 31.78125 74.21875 
Q 42.671875 74.21875 48.875 69.140625 
Q 55.078125 64.0625 55.078125 55.328125 
Q 55.078125 49.078125 51.53125 44.71875 
Q 48 40.375 41.703125 38.8125 
Q 48.828125 37.15625 52.796875 32.3125 
Q 56.78125 27.484375 56.78125 20.515625 
Q 56.78125 9.90625 50.3125 4.234375 
Q 43.84375 -1.421875 31.78125 -1.421875 
Q 19.734375 -1.421875 13.25 4.234375 
Q 6.78125 9.90625 6.78125 20.515625 
Q 6.78125 27.484375 10.78125 32.3125 
Q 14.796875 37.15625 21.921875 38.8125 
z
M 18.3125 54.390625 
Q 18.3125 48.734375 21.84375 45.5625 
Q 25.390625 42.390625 31.78125 42.390625 
Q 38.140625 42.390625 41.71875 45.5625 
Q 45.3125 48.734375 45.3125 54.390625 
Q 45.3125 60.0625 41.71875 63.234375 
Q 38.140625 66.40625 31.78125 66.40625 
Q 25.390625 66.40625 21.84375 63.234375 
Q 18.3125 60.0625 18.3125 54.390625 
z
" id="DejaVuSans-56"/>
       </defs>
       <use xlink:href="#DejaVuSans-56"/>
       <use x="63.623047" xlink:href="#DejaVuSans-48"/>
       <use x="127.246094" xlink:href="#DejaVuSans-48"/>
       <use x="190.869141" xlink:href="#DejaVuSans-48"/>
      </g>
     </g>
    </g>
    <g id="xtick_6">
     <g id="line2d_6">
      <path clip-path="url(#p17d4523dce)" d="M 1111.916149 659.52 
L 1111.916149 7.2 
" style="fill:none;stroke:#ffffff;stroke-linecap:round;"/>
     </g>
     <g id="text_6">
      <!-- 10000 -->
      <g style="fill:#262626;" transform="translate(1067.378649 690.295625)scale(0.28 -0.28)">
       <defs>
        <path d="M 12.40625 8.296875 
L 28.515625 8.296875 
L 28.515625 63.921875 
L 10.984375 60.40625 
L 10.984375 69.390625 
L 28.421875 72.90625 
L 38.28125 72.90625 
L 38.28125 8.296875 
L 54.390625 8.296875 
L 54.390625 0 
L 12.40625 0 
z
" id="DejaVuSans-49"/>
       </defs>
       <use xlink:href="#DejaVuSans-49"/>
       <use x="63.623047" xlink:href="#DejaVuSans-48"/>
       <use x="127.246094" xlink:href="#DejaVuSans-48"/>
       <use x="190.869141" xlink:href="#DejaVuSans-48"/>
       <use x="254.492188" xlink:href="#DejaVuSans-48"/>
      </g>
     </g>
    </g>
    <g id="text_7">
     <!-- Step (n.u.) -->
     <g style="fill:#262626;" transform="translate(574.190625 730.5125)scale(0.4 -0.4)">
      <defs>
       <path d="M 53.515625 70.515625 
L 53.515625 60.890625 
Q 47.90625 63.578125 42.921875 64.890625 
Q 37.9375 66.21875 33.296875 66.21875 
Q 25.25 66.21875 20.875 63.09375 
Q 16.5 59.96875 16.5 54.203125 
Q 16.5 49.359375 19.40625 46.890625 
Q 22.3125 44.4375 30.421875 42.921875 
L 36.375 41.703125 
Q 47.40625 39.59375 52.65625 34.296875 
Q 57.90625 29 57.90625 20.125 
Q 57.90625 9.515625 50.796875 4.046875 
Q 43.703125 -1.421875 29.984375 -1.421875 
Q 24.8125 -1.421875 18.96875 -0.25 
Q 13.140625 0.921875 6.890625 3.21875 
L 6.890625 13.375 
Q 12.890625 10.015625 18.65625 8.296875 
Q 24.421875 6.59375 29.984375 6.59375 
Q 38.421875 6.59375 43.015625 9.90625 
Q 47.609375 13.234375 47.609375 19.390625 
Q 47.609375 24.75 44.3125 27.78125 
Q 41.015625 30.8125 33.5 32.328125 
L 27.484375 33.5 
Q 16.453125 35.6875 11.515625 40.375 
Q 6.59375 45.0625 6.59375 53.421875 
Q 6.59375 63.09375 13.40625 68.65625 
Q 20.21875 74.21875 32.171875 74.21875 
Q 37.3125 74.21875 42.625 73.28125 
Q 47.953125 72.359375 53.515625 70.515625 
z
" id="DejaVuSans-83"/>
       <path d="M 18.3125 70.21875 
L 18.3125 54.6875 
L 36.8125 54.6875 
L 36.8125 47.703125 
L 18.3125 47.703125 
L 18.3125 18.015625 
Q 18.3125 11.328125 20.140625 9.421875 
Q 21.96875 7.515625 27.59375 7.515625 
L 36.8125 7.515625 
L 36.8125 0 
L 27.59375 0 
Q 17.1875 0 13.234375 3.875 
Q 9.28125 7.765625 9.28125 18.015625 
L 9.28125 47.703125 
L 2.6875 47.703125 
L 2.6875 54.6875 
L 9.28125 54.6875 
L 9.28125 70.21875 
z
" id="DejaVuSans-116"/>
       <path d="M 56.203125 29.59375 
L 56.203125 25.203125 
L 14.890625 25.203125 
Q 15.484375 15.921875 20.484375 11.0625 
Q 25.484375 6.203125 34.421875 6.203125 
Q 39.59375 6.203125 44.453125 7.46875 
Q 49.3125 8.734375 54.109375 11.28125 
L 54.109375 2.78125 
Q 49.265625 0.734375 44.1875 -0.34375 
Q 39.109375 -1.421875 33.890625 -1.421875 
Q 20.796875 -1.421875 13.15625 6.1875 
Q 5.515625 13.8125 5.515625 26.8125 
Q 5.515625 40.234375 12.765625 48.109375 
Q 20.015625 56 32.328125 56 
Q 43.359375 56 49.78125 48.890625 
Q 56.203125 41.796875 56.203125 29.59375 
z
M 47.21875 32.234375 
Q 47.125 39.59375 43.09375 43.984375 
Q 39.0625 48.390625 32.421875 48.390625 
Q 24.90625 48.390625 20.390625 44.140625 
Q 15.875 39.890625 15.1875 32.171875 
z
" id="DejaVuSans-101"/>
       <path d="M 18.109375 8.203125 
L 18.109375 -20.796875 
L 9.078125 -20.796875 
L 9.078125 54.6875 
L 18.109375 54.6875 
L 18.109375 46.390625 
Q 20.953125 51.265625 25.265625 53.625 
Q 29.59375 56 35.59375 56 
Q 45.5625 56 51.78125 48.09375 
Q 58.015625 40.1875 58.015625 27.296875 
Q 58.015625 14.40625 51.78125 6.484375 
Q 45.5625 -1.421875 35.59375 -1.421875 
Q 29.59375 -1.421875 25.265625 0.953125 
Q 20.953125 3.328125 18.109375 8.203125 
z
M 48.6875 27.296875 
Q 48.6875 37.203125 44.609375 42.84375 
Q 40.53125 48.484375 33.40625 48.484375 
Q 26.265625 48.484375 22.1875 42.84375 
Q 18.109375 37.203125 18.109375 27.296875 
Q 18.109375 17.390625 22.1875 11.75 
Q 26.265625 6.109375 33.40625 6.109375 
Q 40.53125 6.109375 44.609375 11.75 
Q 48.6875 17.390625 48.6875 27.296875 
z
" id="DejaVuSans-112"/>
       <path id="DejaVuSans-32"/>
       <path d="M 31 75.875 
Q 24.46875 64.65625 21.28125 53.65625 
Q 18.109375 42.671875 18.109375 31.390625 
Q 18.109375 20.125 21.3125 9.0625 
Q 24.515625 -2 31 -13.1875 
L 23.1875 -13.1875 
Q 15.875 -1.703125 12.234375 9.375 
Q 8.59375 20.453125 8.59375 31.390625 
Q 8.59375 42.28125 12.203125 53.3125 
Q 15.828125 64.359375 23.1875 75.875 
z
" id="DejaVuSans-40"/>
       <path d="M 54.890625 33.015625 
L 54.890625 0 
L 45.90625 0 
L 45.90625 32.71875 
Q 45.90625 40.484375 42.875 44.328125 
Q 39.84375 48.1875 33.796875 48.1875 
Q 26.515625 48.1875 22.3125 43.546875 
Q 18.109375 38.921875 18.109375 30.90625 
L 18.109375 0 
L 9.078125 0 
L 9.078125 54.6875 
L 18.109375 54.6875 
L 18.109375 46.1875 
Q 21.34375 51.125 25.703125 53.5625 
Q 30.078125 56 35.796875 56 
Q 45.21875 56 50.046875 50.171875 
Q 54.890625 44.34375 54.890625 33.015625 
z
" id="DejaVuSans-110"/>
       <path d="M 10.6875 12.40625 
L 21 12.40625 
L 21 0 
L 10.6875 0 
z
" id="DejaVuSans-46"/>
       <path d="M 8.5 21.578125 
L 8.5 54.6875 
L 17.484375 54.6875 
L 17.484375 21.921875 
Q 17.484375 14.15625 20.5 10.265625 
Q 23.53125 6.390625 29.59375 6.390625 
Q 36.859375 6.390625 41.078125 11.03125 
Q 45.3125 15.671875 45.3125 23.6875 
L 45.3125 54.6875 
L 54.296875 54.6875 
L 54.296875 0 
L 45.3125 0 
L 45.3125 8.40625 
Q 42.046875 3.421875 37.71875 1 
Q 33.40625 -1.421875 27.6875 -1.421875 
Q 18.265625 -1.421875 13.375 4.4375 
Q 8.5 10.296875 8.5 21.578125 
z
M 31.109375 56 
z
" id="DejaVuSans-117"/>
       <path d="M 8.015625 75.875 
L 15.828125 75.875 
Q 23.140625 64.359375 26.78125 53.3125 
Q 30.421875 42.28125 30.421875 31.390625 
Q 30.421875 20.453125 26.78125 9.375 
Q 23.140625 -1.703125 15.828125 -13.1875 
L 8.015625 -13.1875 
Q 14.5 -2 17.703125 9.0625 
Q 20.90625 20.125 20.90625 31.390625 
Q 20.90625 42.671875 17.703125 53.65625 
Q 14.5 64.65625 8.015625 75.875 
z
" id="DejaVuSans-41"/>
      </defs>
      <use xlink:href="#DejaVuSans-83"/>
      <use x="63.476562" xlink:href="#DejaVuSans-116"/>
      <use x="102.685547" xlink:href="#DejaVuSans-101"/>
      <use x="164.208984" xlink:href="#DejaVuSans-112"/>
      <use x="227.685547" xlink:href="#DejaVuSans-32"/>
      <use x="259.472656" xlink:href="#DejaVuSans-40"/>
      <use x="298.486328" xlink:href="#DejaVuSans-110"/>
      <use x="361.865234" xlink:href="#DejaVuSans-46"/>
      <use x="393.652344" xlink:href="#DejaVuSans-117"/>
      <use x="457.03125" xlink:href="#DejaVuSans-46"/>
      <use x="488.818359" xlink:href="#DejaVuSans-41"/>
     </g>
    </g>
   </g>
   <g id="matplotlib.axis_2">
    <g id="ytick_1">
     <g id="line2d_7">
      <path clip-path="url(#p17d4523dce)" d="M 121.75625 629.099765 
L 1237.75625 629.099765 
" style="fill:none;stroke:#ffffff;stroke-linecap:round;"/>
     </g>
     <g id="text_8">
      <!-- 0.50 -->
      <g style="fill:#262626;" transform="translate(49.9125 639.737577)scale(0.28 -0.28)">
       <defs>
        <path d="M 10.796875 72.90625 
L 49.515625 72.90625 
L 49.515625 64.59375 
L 19.828125 64.59375 
L 19.828125 46.734375 
Q 21.96875 47.46875 24.109375 47.828125 
Q 26.265625 48.1875 28.421875 48.1875 
Q 40.625 48.1875 47.75 41.5 
Q 54.890625 34.8125 54.890625 23.390625 
Q 54.890625 11.625 47.5625 5.09375 
Q 40.234375 -1.421875 26.90625 -1.421875 
Q 22.3125 -1.421875 17.546875 -0.640625 
Q 12.796875 0.140625 7.71875 1.703125 
L 7.71875 11.625 
Q 12.109375 9.234375 16.796875 8.0625 
Q 21.484375 6.890625 26.703125 6.890625 
Q 35.15625 6.890625 40.078125 11.328125 
Q 45.015625 15.765625 45.015625 23.390625 
Q 45.015625 31 40.078125 35.4375 
Q 35.15625 39.890625 26.703125 39.890625 
Q 22.75 39.890625 18.8125 39.015625 
Q 14.890625 38.140625 10.796875 36.28125 
z
" id="DejaVuSans-53"/>
       </defs>
       <use xlink:href="#DejaVuSans-48"/>
       <use x="63.623047" xlink:href="#DejaVuSans-46"/>
       <use x="95.410156" xlink:href="#DejaVuSans-53"/>
       <use x="159.033203" xlink:href="#DejaVuSans-48"/>
      </g>
     </g>
    </g>
    <g id="ytick_2">
     <g id="line2d_8">
      <path clip-path="url(#p17d4523dce)" d="M 121.75625 544.550815 
L 1237.75625 544.550815 
" style="fill:none;stroke:#ffffff;stroke-linecap:round;"/>
     </g>
     <g id="text_9">
      <!-- 0.55 -->
      <g style="fill:#262626;" transform="translate(49.9125 555.188628)scale(0.28 -0.28)">
       <use xlink:href="#DejaVuSans-48"/>
       <use x="63.623047" xlink:href="#DejaVuSans-46"/>
       <use x="95.410156" xlink:href="#DejaVuSans-53"/>
       <use x="159.033203" xlink:href="#DejaVuSans-53"/>
      </g>
     </g>
    </g>
    <g id="ytick_3">
     <g id="line2d_9">
      <path clip-path="url(#p17d4523dce)" d="M 121.75625 460.001866 
L 1237.75625 460.001866 
" style="fill:none;stroke:#ffffff;stroke-linecap:round;"/>
     </g>
     <g id="text_10">
      <!-- 0.60 -->
      <g style="fill:#262626;" transform="translate(49.9125 470.639678)scale(0.28 -0.28)">
       <use xlink:href="#DejaVuSans-48"/>
       <use x="63.623047" xlink:href="#DejaVuSans-46"/>
       <use x="95.410156" xlink:href="#DejaVuSans-54"/>
       <use x="159.033203" xlink:href="#DejaVuSans-48"/>
      </g>
     </g>
    </g>
    <g id="ytick_4">
     <g id="line2d_10">
      <path clip-path="url(#p17d4523dce)" d="M 121.75625 375.452917 
L 1237.75625 375.452917 
" style="fill:none;stroke:#ffffff;stroke-linecap:round;"/>
     </g>
     <g id="text_11">
      <!-- 0.65 -->
      <g style="fill:#262626;" transform="translate(49.9125 386.090729)scale(0.28 -0.28)">
       <use xlink:href="#DejaVuSans-48"/>
       <use x="63.623047" xlink:href="#DejaVuSans-46"/>
       <use x="95.410156" xlink:href="#DejaVuSans-54"/>
       <use x="159.033203" xlink:href="#DejaVuSans-53"/>
      </g>
     </g>
    </g>
    <g id="ytick_5">
     <g id="line2d_11">
      <path clip-path="url(#p17d4523dce)" d="M 121.75625 290.903967 
L 1237.75625 290.903967 
" style="fill:none;stroke:#ffffff;stroke-linecap:round;"/>
     </g>
     <g id="text_12">
      <!-- 0.70 -->
      <g style="fill:#262626;" transform="translate(49.9125 301.54178)scale(0.28 -0.28)">
       <defs>
        <path d="M 8.203125 72.90625 
L 55.078125 72.90625 
L 55.078125 68.703125 
L 28.609375 0 
L 18.3125 0 
L 43.21875 64.59375 
L 8.203125 64.59375 
z
" id="DejaVuSans-55"/>
       </defs>
       <use xlink:href="#DejaVuSans-48"/>
       <use x="63.623047" xlink:href="#DejaVuSans-46"/>
       <use x="95.410156" xlink:href="#DejaVuSans-55"/>
       <use x="159.033203" xlink:href="#DejaVuSans-48"/>
      </g>
     </g>
    </g>
    <g id="ytick_6">
     <g id="line2d_12">
      <path clip-path="url(#p17d4523dce)" d="M 121.75625 206.355018 
L 1237.75625 206.355018 
" style="fill:none;stroke:#ffffff;stroke-linecap:round;"/>
     </g>
     <g id="text_13">
      <!-- 0.75 -->
      <g style="fill:#262626;" transform="translate(49.9125 216.99283)scale(0.28 -0.28)">
       <use xlink:href="#DejaVuSans-48"/>
       <use x="63.623047" xlink:href="#DejaVuSans-46"/>
       <use x="95.410156" xlink:href="#DejaVuSans-55"/>
       <use x="159.033203" xlink:href="#DejaVuSans-53"/>
      </g>
     </g>
    </g>
    <g id="ytick_7">
     <g id="line2d_13">
      <path clip-path="url(#p17d4523dce)" d="M 121.75625 121.806068 
L 1237.75625 121.806068 
" style="fill:none;stroke:#ffffff;stroke-linecap:round;"/>
     </g>
     <g id="text_14">
      <!-- 0.80 -->
      <g style="fill:#262626;" transform="translate(49.9125 132.443881)scale(0.28 -0.28)">
       <use xlink:href="#DejaVuSans-48"/>
       <use x="63.623047" xlink:href="#DejaVuSans-46"/>
       <use x="95.410156" xlink:href="#DejaVuSans-56"/>
       <use x="159.033203" xlink:href="#DejaVuSans-48"/>
      </g>
     </g>
    </g>
    <g id="ytick_8">
     <g id="line2d_14">
      <path clip-path="url(#p17d4523dce)" d="M 121.75625 37.257119 
L 1237.75625 37.257119 
" style="fill:none;stroke:#ffffff;stroke-linecap:round;"/>
     </g>
     <g id="text_15">
      <!-- 0.85 -->
      <g style="fill:#262626;" transform="translate(49.9125 47.894932)scale(0.28 -0.28)">
       <use xlink:href="#DejaVuSans-48"/>
       <use x="63.623047" xlink:href="#DejaVuSans-46"/>
       <use x="95.410156" xlink:href="#DejaVuSans-56"/>
       <use x="159.033203" xlink:href="#DejaVuSans-53"/>
      </g>
     </g>
    </g>
    <g id="text_16">
     <!-- Weighted Accuracy (n.u.) -->
     <g style="fill:#262626;" transform="translate(37.59375 585.731875)rotate(-90)scale(0.4 -0.4)">
      <defs>
       <path d="M 3.328125 72.90625 
L 13.28125 72.90625 
L 28.609375 11.28125 
L 43.890625 72.90625 
L 54.984375 72.90625 
L 70.3125 11.28125 
L 85.59375 72.90625 
L 95.609375 72.90625 
L 77.296875 0 
L 64.890625 0 
L 49.515625 63.28125 
L 33.984375 0 
L 21.578125 0 
z
" id="DejaVuSans-87"/>
       <path d="M 9.421875 54.6875 
L 18.40625 54.6875 
L 18.40625 0 
L 9.421875 0 
z
M 9.421875 75.984375 
L 18.40625 75.984375 
L 18.40625 64.59375 
L 9.421875 64.59375 
z
" id="DejaVuSans-105"/>
       <path d="M 45.40625 27.984375 
Q 45.40625 37.75 41.375 43.109375 
Q 37.359375 48.484375 30.078125 48.484375 
Q 22.859375 48.484375 18.828125 43.109375 
Q 14.796875 37.75 14.796875 27.984375 
Q 14.796875 18.265625 18.828125 12.890625 
Q 22.859375 7.515625 30.078125 7.515625 
Q 37.359375 7.515625 41.375 12.890625 
Q 45.40625 18.265625 45.40625 27.984375 
z
M 54.390625 6.78125 
Q 54.390625 -7.171875 48.1875 -13.984375 
Q 42 -20.796875 29.203125 -20.796875 
Q 24.46875 -20.796875 20.265625 -20.09375 
Q 16.0625 -19.390625 12.109375 -17.921875 
L 12.109375 -9.1875 
Q 16.0625 -11.328125 19.921875 -12.34375 
Q 23.78125 -13.375 27.78125 -13.375 
Q 36.625 -13.375 41.015625 -8.765625 
Q 45.40625 -4.15625 45.40625 5.171875 
L 45.40625 9.625 
Q 42.625 4.78125 38.28125 2.390625 
Q 33.9375 0 27.875 0 
Q 17.828125 0 11.671875 7.65625 
Q 5.515625 15.328125 5.515625 27.984375 
Q 5.515625 40.671875 11.671875 48.328125 
Q 17.828125 56 27.875 56 
Q 33.9375 56 38.28125 53.609375 
Q 42.625 51.21875 45.40625 46.390625 
L 45.40625 54.6875 
L 54.390625 54.6875 
z
" id="DejaVuSans-103"/>
       <path d="M 54.890625 33.015625 
L 54.890625 0 
L 45.90625 0 
L 45.90625 32.71875 
Q 45.90625 40.484375 42.875 44.328125 
Q 39.84375 48.1875 33.796875 48.1875 
Q 26.515625 48.1875 22.3125 43.546875 
Q 18.109375 38.921875 18.109375 30.90625 
L 18.109375 0 
L 9.078125 0 
L 9.078125 75.984375 
L 18.109375 75.984375 
L 18.109375 46.1875 
Q 21.34375 51.125 25.703125 53.5625 
Q 30.078125 56 35.796875 56 
Q 45.21875 56 50.046875 50.171875 
Q 54.890625 44.34375 54.890625 33.015625 
z
" id="DejaVuSans-104"/>
       <path d="M 45.40625 46.390625 
L 45.40625 75.984375 
L 54.390625 75.984375 
L 54.390625 0 
L 45.40625 0 
L 45.40625 8.203125 
Q 42.578125 3.328125 38.25 0.953125 
Q 33.9375 -1.421875 27.875 -1.421875 
Q 17.96875 -1.421875 11.734375 6.484375 
Q 5.515625 14.40625 5.515625 27.296875 
Q 5.515625 40.1875 11.734375 48.09375 
Q 17.96875 56 27.875 56 
Q 33.9375 56 38.25 53.625 
Q 42.578125 51.265625 45.40625 46.390625 
z
M 14.796875 27.296875 
Q 14.796875 17.390625 18.875 11.75 
Q 22.953125 6.109375 30.078125 6.109375 
Q 37.203125 6.109375 41.296875 11.75 
Q 45.40625 17.390625 45.40625 27.296875 
Q 45.40625 37.203125 41.296875 42.84375 
Q 37.203125 48.484375 30.078125 48.484375 
Q 22.953125 48.484375 18.875 42.84375 
Q 14.796875 37.203125 14.796875 27.296875 
z
" id="DejaVuSans-100"/>
       <path d="M 34.1875 63.1875 
L 20.796875 26.90625 
L 47.609375 26.90625 
z
M 28.609375 72.90625 
L 39.796875 72.90625 
L 67.578125 0 
L 57.328125 0 
L 50.6875 18.703125 
L 17.828125 18.703125 
L 11.1875 0 
L 0.78125 0 
z
" id="DejaVuSans-65"/>
       <path d="M 48.78125 52.59375 
L 48.78125 44.1875 
Q 44.96875 46.296875 41.140625 47.34375 
Q 37.3125 48.390625 33.40625 48.390625 
Q 24.65625 48.390625 19.8125 42.84375 
Q 14.984375 37.3125 14.984375 27.296875 
Q 14.984375 17.28125 19.8125 11.734375 
Q 24.65625 6.203125 33.40625 6.203125 
Q 37.3125 6.203125 41.140625 7.25 
Q 44.96875 8.296875 48.78125 10.40625 
L 48.78125 2.09375 
Q 45.015625 0.34375 40.984375 -0.53125 
Q 36.96875 -1.421875 32.421875 -1.421875 
Q 20.0625 -1.421875 12.78125 6.34375 
Q 5.515625 14.109375 5.515625 27.296875 
Q 5.515625 40.671875 12.859375 48.328125 
Q 20.21875 56 33.015625 56 
Q 37.15625 56 41.109375 55.140625 
Q 45.0625 54.296875 48.78125 52.59375 
z
" id="DejaVuSans-99"/>
       <path d="M 41.109375 46.296875 
Q 39.59375 47.171875 37.8125 47.578125 
Q 36.03125 48 33.890625 48 
Q 26.265625 48 22.1875 43.046875 
Q 18.109375 38.09375 18.109375 28.8125 
L 18.109375 0 
L 9.078125 0 
L 9.078125 54.6875 
L 18.109375 54.6875 
L 18.109375 46.1875 
Q 20.953125 51.171875 25.484375 53.578125 
Q 30.03125 56 36.53125 56 
Q 37.453125 56 38.578125 55.875 
Q 39.703125 55.765625 41.0625 55.515625 
z
" id="DejaVuSans-114"/>
       <path d="M 34.28125 27.484375 
Q 23.390625 27.484375 19.1875 25 
Q 14.984375 22.515625 14.984375 16.5 
Q 14.984375 11.71875 18.140625 8.90625 
Q 21.296875 6.109375 26.703125 6.109375 
Q 34.1875 6.109375 38.703125 11.40625 
Q 43.21875 16.703125 43.21875 25.484375 
L 43.21875 27.484375 
z
M 52.203125 31.203125 
L 52.203125 0 
L 43.21875 0 
L 43.21875 8.296875 
Q 40.140625 3.328125 35.546875 0.953125 
Q 30.953125 -1.421875 24.3125 -1.421875 
Q 15.921875 -1.421875 10.953125 3.296875 
Q 6 8.015625 6 15.921875 
Q 6 25.140625 12.171875 29.828125 
Q 18.359375 34.515625 30.609375 34.515625 
L 43.21875 34.515625 
L 43.21875 35.40625 
Q 43.21875 41.609375 39.140625 45 
Q 35.0625 48.390625 27.6875 48.390625 
Q 23 48.390625 18.546875 47.265625 
Q 14.109375 46.140625 10.015625 43.890625 
L 10.015625 52.203125 
Q 14.9375 54.109375 19.578125 55.046875 
Q 24.21875 56 28.609375 56 
Q 40.484375 56 46.34375 49.84375 
Q 52.203125 43.703125 52.203125 31.203125 
z
" id="DejaVuSans-97"/>
       <path d="M 32.171875 -5.078125 
Q 28.375 -14.84375 24.75 -17.8125 
Q 21.140625 -20.796875 15.09375 -20.796875 
L 7.90625 -20.796875 
L 7.90625 -13.28125 
L 13.1875 -13.28125 
Q 16.890625 -13.28125 18.9375 -11.515625 
Q 21 -9.765625 23.484375 -3.21875 
L 25.09375 0.875 
L 2.984375 54.6875 
L 12.5 54.6875 
L 29.59375 11.921875 
L 46.6875 54.6875 
L 56.203125 54.6875 
z
" id="DejaVuSans-121"/>
      </defs>
      <use xlink:href="#DejaVuSans-87"/>
      <use x="93.001953" xlink:href="#DejaVuSans-101"/>
      <use x="154.525391" xlink:href="#DejaVuSans-105"/>
      <use x="182.308594" xlink:href="#DejaVuSans-103"/>
      <use x="245.785156" xlink:href="#DejaVuSans-104"/>
      <use x="309.164062" xlink:href="#DejaVuSans-116"/>
      <use x="348.373047" xlink:href="#DejaVuSans-101"/>
      <use x="409.896484" xlink:href="#DejaVuSans-100"/>
      <use x="473.373047" xlink:href="#DejaVuSans-32"/>
      <use x="505.160156" xlink:href="#DejaVuSans-65"/>
      <use x="571.818359" xlink:href="#DejaVuSans-99"/>
      <use x="626.798828" xlink:href="#DejaVuSans-99"/>
      <use x="681.779297" xlink:href="#DejaVuSans-117"/>
      <use x="745.158203" xlink:href="#DejaVuSans-114"/>
      <use x="786.271484" xlink:href="#DejaVuSans-97"/>
      <use x="847.550781" xlink:href="#DejaVuSans-99"/>
      <use x="902.53125" xlink:href="#DejaVuSans-121"/>
      <use x="961.710938" xlink:href="#DejaVuSans-32"/>
      <use x="993.498047" xlink:href="#DejaVuSans-40"/>
      <use x="1032.511719" xlink:href="#DejaVuSans-110"/>
      <use x="1095.890625" xlink:href="#DejaVuSans-46"/>
      <use x="1127.677734" xlink:href="#DejaVuSans-117"/>
      <use x="1191.056641" xlink:href="#DejaVuSans-46"/>
      <use x="1222.84375" xlink:href="#DejaVuSans-41"/>
     </g>
    </g>
   </g>
   <g id="line2d_15">
    <path clip-path="url(#p17d4523dce)" d="M 172.673441 629.869091 
L 193.374575 629.869091 
L 214.075708 465.541015 
L 234.776842 450.696096 
L 255.477975 258.867255 
L 276.179108 256.771024 
L 296.880242 223.520043 
L 317.581375 154.065636 
L 338.282508 176.083266 
L 358.983642 143.38919 
L 379.684775 155.745392 
L 400.385909 153.915923 
L 421.087042 131.10072 
L 441.788175 152.183188 
L 462.489309 141.309048 
L 483.190442 119.422898 
L 503.891576 234.389891 
L 524.592709 215.709019 
L 545.293842 228.555564 
L 565.994976 245.858815 
L 586.696109 192.75755 
L 607.397242 210.076383 
L 628.098376 151.56467 
L 648.799509 141.701842 
L 669.500643 121.04141 
L 690.201776 127.143795 
L 710.902909 105.214584 
L 731.604043 108.767642 
L 752.305176 116.447537 
L 773.00631 131.767703 
L 793.707443 94.323788 
L 814.408576 74.320092 
L 835.10971 72.165541 
L 855.810843 61.296343 
L 876.511976 75.724169 
L 897.21311 70.086073 
L 917.914243 75.811167 
L 938.615377 79.718583 
L 959.31651 71.770247 
L 980.017643 71.124505 
L 1000.718777 74.338619 
L 1021.41991 71.802935 
L 1042.121044 83.568584 
L 1062.822177 76.972105 
L 1083.52331 75.58211 
L 1104.224444 70.896577 
L 1124.925577 74.625842 
L 1145.626711 71.167782 
L 1166.327844 77.677688 
L 1187.028977 81.129084 
" style="fill:none;stroke:#4c72b0;stroke-linecap:round;stroke-width:4;"/>
    <defs>
     <path d="M 0 -7 
L -6.657396 -2.163119 
L -4.114497 5.663119 
L 4.114497 5.663119 
L 6.657396 -2.163119 
z
" id="m789bac2506" style="stroke:#4c72b0;stroke-linejoin:miter;"/>
    </defs>
    <g clip-path="url(#p17d4523dce)">
     <use style="fill:#4c72b0;stroke:#4c72b0;stroke-linejoin:miter;" x="172.673441" xlink:href="#m789bac2506" y="629.869091"/>
     <use style="fill:#4c72b0;stroke:#4c72b0;stroke-linejoin:miter;" x="193.374575" xlink:href="#m789bac2506" y="629.869091"/>
     <use style="fill:#4c72b0;stroke:#4c72b0;stroke-linejoin:miter;" x="214.075708" xlink:href="#m789bac2506" y="465.541015"/>
     <use style="fill:#4c72b0;stroke:#4c72b0;stroke-linejoin:miter;" x="234.776842" xlink:href="#m789bac2506" y="450.696096"/>
     <use style="fill:#4c72b0;stroke:#4c72b0;stroke-linejoin:miter;" x="255.477975" xlink:href="#m789bac2506" y="258.867255"/>
     <use style="fill:#4c72b0;stroke:#4c72b0;stroke-linejoin:miter;" x="276.179108" xlink:href="#m789bac2506" y="256.771024"/>
     <use style="fill:#4c72b0;stroke:#4c72b0;stroke-linejoin:miter;" x="296.880242" xlink:href="#m789bac2506" y="223.520043"/>
     <use style="fill:#4c72b0;stroke:#4c72b0;stroke-linejoin:miter;" x="317.581375" xlink:href="#m789bac2506" y="154.065636"/>
     <use style="fill:#4c72b0;stroke:#4c72b0;stroke-linejoin:miter;" x="338.282508" xlink:href="#m789bac2506" y="176.083266"/>
     <use style="fill:#4c72b0;stroke:#4c72b0;stroke-linejoin:miter;" x="358.983642" xlink:href="#m789bac2506" y="143.38919"/>
     <use style="fill:#4c72b0;stroke:#4c72b0;stroke-linejoin:miter;" x="379.684775" xlink:href="#m789bac2506" y="155.745392"/>
     <use style="fill:#4c72b0;stroke:#4c72b0;stroke-linejoin:miter;" x="400.385909" xlink:href="#m789bac2506" y="153.915923"/>
     <use style="fill:#4c72b0;stroke:#4c72b0;stroke-linejoin:miter;" x="421.087042" xlink:href="#m789bac2506" y="131.10072"/>
     <use style="fill:#4c72b0;stroke:#4c72b0;stroke-linejoin:miter;" x="441.788175" xlink:href="#m789bac2506" y="152.183188"/>
     <use style="fill:#4c72b0;stroke:#4c72b0;stroke-linejoin:miter;" x="462.489309" xlink:href="#m789bac2506" y="141.309048"/>
     <use style="fill:#4c72b0;stroke:#4c72b0;stroke-linejoin:miter;" x="483.190442" xlink:href="#m789bac2506" y="119.422898"/>
     <use style="fill:#4c72b0;stroke:#4c72b0;stroke-linejoin:miter;" x="503.891576" xlink:href="#m789bac2506" y="234.389891"/>
     <use style="fill:#4c72b0;stroke:#4c72b0;stroke-linejoin:miter;" x="524.592709" xlink:href="#m789bac2506" y="215.709019"/>
     <use style="fill:#4c72b0;stroke:#4c72b0;stroke-linejoin:miter;" x="545.293842" xlink:href="#m789bac2506" y="228.555564"/>
     <use style="fill:#4c72b0;stroke:#4c72b0;stroke-linejoin:miter;" x="565.994976" xlink:href="#m789bac2506" y="245.858815"/>
     <use style="fill:#4c72b0;stroke:#4c72b0;stroke-linejoin:miter;" x="586.696109" xlink:href="#m789bac2506" y="192.75755"/>
     <use style="fill:#4c72b0;stroke:#4c72b0;stroke-linejoin:miter;" x="607.397242" xlink:href="#m789bac2506" y="210.076383"/>
     <use style="fill:#4c72b0;stroke:#4c72b0;stroke-linejoin:miter;" x="628.098376" xlink:href="#m789bac2506" y="151.56467"/>
     <use style="fill:#4c72b0;stroke:#4c72b0;stroke-linejoin:miter;" x="648.799509" xlink:href="#m789bac2506" y="141.701842"/>
     <use style="fill:#4c72b0;stroke:#4c72b0;stroke-linejoin:miter;" x="669.500643" xlink:href="#m789bac2506" y="121.04141"/>
     <use style="fill:#4c72b0;stroke:#4c72b0;stroke-linejoin:miter;" x="690.201776" xlink:href="#m789bac2506" y="127.143795"/>
     <use style="fill:#4c72b0;stroke:#4c72b0;stroke-linejoin:miter;" x="710.902909" xlink:href="#m789bac2506" y="105.214584"/>
     <use style="fill:#4c72b0;stroke:#4c72b0;stroke-linejoin:miter;" x="731.604043" xlink:href="#m789bac2506" y="108.767642"/>
     <use style="fill:#4c72b0;stroke:#4c72b0;stroke-linejoin:miter;" x="752.305176" xlink:href="#m789bac2506" y="116.447537"/>
     <use style="fill:#4c72b0;stroke:#4c72b0;stroke-linejoin:miter;" x="773.00631" xlink:href="#m789bac2506" y="131.767703"/>
     <use style="fill:#4c72b0;stroke:#4c72b0;stroke-linejoin:miter;" x="793.707443" xlink:href="#m789bac2506" y="94.323788"/>
     <use style="fill:#4c72b0;stroke:#4c72b0;stroke-linejoin:miter;" x="814.408576" xlink:href="#m789bac2506" y="74.320092"/>
     <use style="fill:#4c72b0;stroke:#4c72b0;stroke-linejoin:miter;" x="835.10971" xlink:href="#m789bac2506" y="72.165541"/>
     <use style="fill:#4c72b0;stroke:#4c72b0;stroke-linejoin:miter;" x="855.810843" xlink:href="#m789bac2506" y="61.296343"/>
     <use style="fill:#4c72b0;stroke:#4c72b0;stroke-linejoin:miter;" x="876.511976" xlink:href="#m789bac2506" y="75.724169"/>
     <use style="fill:#4c72b0;stroke:#4c72b0;stroke-linejoin:miter;" x="897.21311" xlink:href="#m789bac2506" y="70.086073"/>
     <use style="fill:#4c72b0;stroke:#4c72b0;stroke-linejoin:miter;" x="917.914243" xlink:href="#m789bac2506" y="75.811167"/>
     <use style="fill:#4c72b0;stroke:#4c72b0;stroke-linejoin:miter;" x="938.615377" xlink:href="#m789bac2506" y="79.718583"/>
     <use style="fill:#4c72b0;stroke:#4c72b0;stroke-linejoin:miter;" x="959.31651" xlink:href="#m789bac2506" y="71.770247"/>
     <use style="fill:#4c72b0;stroke:#4c72b0;stroke-linejoin:miter;" x="980.017643" xlink:href="#m789bac2506" y="71.124505"/>
     <use style="fill:#4c72b0;stroke:#4c72b0;stroke-linejoin:miter;" x="1000.718777" xlink:href="#m789bac2506" y="74.338619"/>
     <use style="fill:#4c72b0;stroke:#4c72b0;stroke-linejoin:miter;" x="1021.41991" xlink:href="#m789bac2506" y="71.802935"/>
     <use style="fill:#4c72b0;stroke:#4c72b0;stroke-linejoin:miter;" x="1042.121044" xlink:href="#m789bac2506" y="83.568584"/>
     <use style="fill:#4c72b0;stroke:#4c72b0;stroke-linejoin:miter;" x="1062.822177" xlink:href="#m789bac2506" y="76.972105"/>
     <use style="fill:#4c72b0;stroke:#4c72b0;stroke-linejoin:miter;" x="1083.52331" xlink:href="#m789bac2506" y="75.58211"/>
     <use style="fill:#4c72b0;stroke:#4c72b0;stroke-linejoin:miter;" x="1104.224444" xlink:href="#m789bac2506" y="70.896577"/>
     <use style="fill:#4c72b0;stroke:#4c72b0;stroke-linejoin:miter;" x="1124.925577" xlink:href="#m789bac2506" y="74.625842"/>
     <use style="fill:#4c72b0;stroke:#4c72b0;stroke-linejoin:miter;" x="1145.626711" xlink:href="#m789bac2506" y="71.167782"/>
     <use style="fill:#4c72b0;stroke:#4c72b0;stroke-linejoin:miter;" x="1166.327844" xlink:href="#m789bac2506" y="77.677688"/>
     <use style="fill:#4c72b0;stroke:#4c72b0;stroke-linejoin:miter;" x="1187.028977" xlink:href="#m789bac2506" y="81.129084"/>
    </g>
   </g>
   <g id="line2d_16">
    <path clip-path="url(#p17d4523dce)" d="M 172.673441 548.271482 
L 193.374575 582.142382 
L 214.075708 534.599956 
L 234.776842 522.20608 
L 255.477975 532.729592 
L 276.179108 545.345018 
L 296.880242 492.61396 
L 317.581375 522.897542 
L 338.282508 480.837861 
L 358.983642 483.966134 
L 379.684775 537.643526 
L 400.385909 492.099483 
L 421.087042 507.111188 
L 441.788175 494.245645 
L 462.489309 467.444006 
L 483.190442 455.126799 
L 503.891576 486.20573 
L 524.592709 474.608267 
L 545.293842 515.594379 
L 565.994976 459.528409 
L 586.696109 477.936957 
L 607.397242 497.496559 
L 628.098376 475.593793 
L 648.799509 588.412365 
L 669.500643 539.936323 
L 690.201776 555.94529 
L 710.902909 579.56772 
L 731.604043 532.441408 
L 752.305176 521.429003 
L 773.00631 519.722598 
L 793.707443 510.076052 
L 814.408576 515.635535 
L 835.10971 527.69558 
L 855.810843 526.084129 
L 876.511976 518.729826 
L 897.21311 529.630637 
L 917.914243 547.308567 
L 938.615377 532.118413 
L 959.31651 529.72913 
L 980.017643 544.880686 
L 1000.718777 527.138813 
L 1021.41991 541.074278 
L 1042.121044 563.950246 
L 1062.822177 556.789732 
L 1083.52331 532.247182 
L 1104.224444 528.33854 
L 1124.925577 539.248119 
L 1145.626711 550.770861 
L 1166.327844 551.018762 
L 1187.028977 555.21357 
" style="fill:none;stroke:#4c72b0;stroke-dasharray:14.8,6.4;stroke-dashoffset:0;stroke-width:4;"/>
    <g clip-path="url(#p17d4523dce)">
     <use style="fill:#4c72b0;stroke:#4c72b0;stroke-linejoin:miter;" x="172.673441" xlink:href="#m789bac2506" y="548.271482"/>
     <use style="fill:#4c72b0;stroke:#4c72b0;stroke-linejoin:miter;" x="193.374575" xlink:href="#m789bac2506" y="582.142382"/>
     <use style="fill:#4c72b0;stroke:#4c72b0;stroke-linejoin:miter;" x="214.075708" xlink:href="#m789bac2506" y="534.599956"/>
     <use style="fill:#4c72b0;stroke:#4c72b0;stroke-linejoin:miter;" x="234.776842" xlink:href="#m789bac2506" y="522.20608"/>
     <use style="fill:#4c72b0;stroke:#4c72b0;stroke-linejoin:miter;" x="255.477975" xlink:href="#m789bac2506" y="532.729592"/>
     <use style="fill:#4c72b0;stroke:#4c72b0;stroke-linejoin:miter;" x="276.179108" xlink:href="#m789bac2506" y="545.345018"/>
     <use style="fill:#4c72b0;stroke:#4c72b0;stroke-linejoin:miter;" x="296.880242" xlink:href="#m789bac2506" y="492.61396"/>
     <use style="fill:#4c72b0;stroke:#4c72b0;stroke-linejoin:miter;" x="317.581375" xlink:href="#m789bac2506" y="522.897542"/>
     <use style="fill:#4c72b0;stroke:#4c72b0;stroke-linejoin:miter;" x="338.282508" xlink:href="#m789bac2506" y="480.837861"/>
     <use style="fill:#4c72b0;stroke:#4c72b0;stroke-linejoin:miter;" x="358.983642" xlink:href="#m789bac2506" y="483.966134"/>
     <use style="fill:#4c72b0;stroke:#4c72b0;stroke-linejoin:miter;" x="379.684775" xlink:href="#m789bac2506" y="537.643526"/>
     <use style="fill:#4c72b0;stroke:#4c72b0;stroke-linejoin:miter;" x="400.385909" xlink:href="#m789bac2506" y="492.099483"/>
     <use style="fill:#4c72b0;stroke:#4c72b0;stroke-linejoin:miter;" x="421.087042" xlink:href="#m789bac2506" y="507.111188"/>
     <use style="fill:#4c72b0;stroke:#4c72b0;stroke-linejoin:miter;" x="441.788175" xlink:href="#m789bac2506" y="494.245645"/>
     <use style="fill:#4c72b0;stroke:#4c72b0;stroke-linejoin:miter;" x="462.489309" xlink:href="#m789bac2506" y="467.444006"/>
     <use style="fill:#4c72b0;stroke:#4c72b0;stroke-linejoin:miter;" x="483.190442" xlink:href="#m789bac2506" y="455.126799"/>
     <use style="fill:#4c72b0;stroke:#4c72b0;stroke-linejoin:miter;" x="503.891576" xlink:href="#m789bac2506" y="486.20573"/>
     <use style="fill:#4c72b0;stroke:#4c72b0;stroke-linejoin:miter;" x="524.592709" xlink:href="#m789bac2506" y="474.608267"/>
     <use style="fill:#4c72b0;stroke:#4c72b0;stroke-linejoin:miter;" x="545.293842" xlink:href="#m789bac2506" y="515.594379"/>
     <use style="fill:#4c72b0;stroke:#4c72b0;stroke-linejoin:miter;" x="565.994976" xlink:href="#m789bac2506" y="459.528409"/>
     <use style="fill:#4c72b0;stroke:#4c72b0;stroke-linejoin:miter;" x="586.696109" xlink:href="#m789bac2506" y="477.936957"/>
     <use style="fill:#4c72b0;stroke:#4c72b0;stroke-linejoin:miter;" x="607.397242" xlink:href="#m789bac2506" y="497.496559"/>
     <use style="fill:#4c72b0;stroke:#4c72b0;stroke-linejoin:miter;" x="628.098376" xlink:href="#m789bac2506" y="475.593793"/>
     <use style="fill:#4c72b0;stroke:#4c72b0;stroke-linejoin:miter;" x="648.799509" xlink:href="#m789bac2506" y="588.412365"/>
     <use style="fill:#4c72b0;stroke:#4c72b0;stroke-linejoin:miter;" x="669.500643" xlink:href="#m789bac2506" y="539.936323"/>
     <use style="fill:#4c72b0;stroke:#4c72b0;stroke-linejoin:miter;" x="690.201776" xlink:href="#m789bac2506" y="555.94529"/>
     <use style="fill:#4c72b0;stroke:#4c72b0;stroke-linejoin:miter;" x="710.902909" xlink:href="#m789bac2506" y="579.56772"/>
     <use style="fill:#4c72b0;stroke:#4c72b0;stroke-linejoin:miter;" x="731.604043" xlink:href="#m789bac2506" y="532.441408"/>
     <use style="fill:#4c72b0;stroke:#4c72b0;stroke-linejoin:miter;" x="752.305176" xlink:href="#m789bac2506" y="521.429003"/>
     <use style="fill:#4c72b0;stroke:#4c72b0;stroke-linejoin:miter;" x="773.00631" xlink:href="#m789bac2506" y="519.722598"/>
     <use style="fill:#4c72b0;stroke:#4c72b0;stroke-linejoin:miter;" x="793.707443" xlink:href="#m789bac2506" y="510.076052"/>
     <use style="fill:#4c72b0;stroke:#4c72b0;stroke-linejoin:miter;" x="814.408576" xlink:href="#m789bac2506" y="515.635535"/>
     <use style="fill:#4c72b0;stroke:#4c72b0;stroke-linejoin:miter;" x="835.10971" xlink:href="#m789bac2506" y="527.69558"/>
     <use style="fill:#4c72b0;stroke:#4c72b0;stroke-linejoin:miter;" x="855.810843" xlink:href="#m789bac2506" y="526.084129"/>
     <use style="fill:#4c72b0;stroke:#4c72b0;stroke-linejoin:miter;" x="876.511976" xlink:href="#m789bac2506" y="518.729826"/>
     <use style="fill:#4c72b0;stroke:#4c72b0;stroke-linejoin:miter;" x="897.21311" xlink:href="#m789bac2506" y="529.630637"/>
     <use style="fill:#4c72b0;stroke:#4c72b0;stroke-linejoin:miter;" x="917.914243" xlink:href="#m789bac2506" y="547.308567"/>
     <use style="fill:#4c72b0;stroke:#4c72b0;stroke-linejoin:miter;" x="938.615377" xlink:href="#m789bac2506" y="532.118413"/>
     <use style="fill:#4c72b0;stroke:#4c72b0;stroke-linejoin:miter;" x="959.31651" xlink:href="#m789bac2506" y="529.72913"/>
     <use style="fill:#4c72b0;stroke:#4c72b0;stroke-linejoin:miter;" x="980.017643" xlink:href="#m789bac2506" y="544.880686"/>
     <use style="fill:#4c72b0;stroke:#4c72b0;stroke-linejoin:miter;" x="1000.718777" xlink:href="#m789bac2506" y="527.138813"/>
     <use style="fill:#4c72b0;stroke:#4c72b0;stroke-linejoin:miter;" x="1021.41991" xlink:href="#m789bac2506" y="541.074278"/>
     <use style="fill:#4c72b0;stroke:#4c72b0;stroke-linejoin:miter;" x="1042.121044" xlink:href="#m789bac2506" y="563.950246"/>
     <use style="fill:#4c72b0;stroke:#4c72b0;stroke-linejoin:miter;" x="1062.822177" xlink:href="#m789bac2506" y="556.789732"/>
     <use style="fill:#4c72b0;stroke:#4c72b0;stroke-linejoin:miter;" x="1083.52331" xlink:href="#m789bac2506" y="532.247182"/>
     <use style="fill:#4c72b0;stroke:#4c72b0;stroke-linejoin:miter;" x="1104.224444" xlink:href="#m789bac2506" y="528.33854"/>
     <use style="fill:#4c72b0;stroke:#4c72b0;stroke-linejoin:miter;" x="1124.925577" xlink:href="#m789bac2506" y="539.248119"/>
     <use style="fill:#4c72b0;stroke:#4c72b0;stroke-linejoin:miter;" x="1145.626711" xlink:href="#m789bac2506" y="550.770861"/>
     <use style="fill:#4c72b0;stroke:#4c72b0;stroke-linejoin:miter;" x="1166.327844" xlink:href="#m789bac2506" y="551.018762"/>
     <use style="fill:#4c72b0;stroke:#4c72b0;stroke-linejoin:miter;" x="1187.028977" xlink:href="#m789bac2506" y="555.21357"/>
    </g>
   </g>
   <g id="line2d_17">
    <path clip-path="url(#p17d4523dce)" d="M 172.483523 618.759818 
L 192.804819 618.759818 
L 213.126115 468.337454 
L 233.447411 375.370833 
L 253.768707 451.856253 
L 274.090003 502.934268 
L 294.411299 395.334078 
L 314.732595 313.074788 
L 335.053891 218.431132 
L 355.375187 369.524001 
L 375.696483 213.427933 
L 396.01778 285.003276 
L 416.339076 207.434562 
L 436.660372 177.091868 
L 456.981668 157.005714 
L 477.302964 166.700397 
L 497.62426 112.032259 
L 517.945556 152.800648 
L 538.266852 106.519306 
L 558.588148 96.602849 
L 578.909444 116.83071 
L 599.23074 111.895695 
L 619.552036 132.898788 
L 639.873332 75.811372 
L 660.194629 85.547993 
L 680.515925 80.90848 
L 700.837221 60.785427 
L 721.158517 49.46878 
L 741.479813 93.37214 
L 761.801109 80.670912 
L 782.122405 66.172121 
L 802.443701 55.607599 
L 822.764997 50.786284 
L 843.086293 48.032523 
L 863.407589 49.459126 
L 883.728885 46.027616 
L 904.050181 38.301967 
L 924.371478 46.592431 
L 944.692774 36.850909 
L 965.01407 40.725093 
L 985.335366 43.137886 
L 1005.656662 42.988404 
L 1025.977958 43.189113 
L 1046.299254 44.406716 
L 1066.62055 48.662879 
L 1086.941846 42.177662 
L 1107.263142 45.060681 
L 1127.584438 41.644436 
L 1147.905734 47.413937 
L 1168.22703 43.255174 
" style="fill:none;stroke:#dd8452;stroke-linecap:round;stroke-width:4;"/>
    <defs>
     <path d="M -0 7 
L 7 -7 
L -7 -7 
z
" id="ma0437a5e7b" style="stroke:#dd8452;stroke-linejoin:miter;"/>
    </defs>
    <g clip-path="url(#p17d4523dce)">
     <use style="fill:#dd8452;stroke:#dd8452;stroke-linejoin:miter;" x="172.483523" xlink:href="#ma0437a5e7b" y="618.759818"/>
     <use style="fill:#dd8452;stroke:#dd8452;stroke-linejoin:miter;" x="192.804819" xlink:href="#ma0437a5e7b" y="618.759818"/>
     <use style="fill:#dd8452;stroke:#dd8452;stroke-linejoin:miter;" x="213.126115" xlink:href="#ma0437a5e7b" y="468.337454"/>
     <use style="fill:#dd8452;stroke:#dd8452;stroke-linejoin:miter;" x="233.447411" xlink:href="#ma0437a5e7b" y="375.370833"/>
     <use style="fill:#dd8452;stroke:#dd8452;stroke-linejoin:miter;" x="253.768707" xlink:href="#ma0437a5e7b" y="451.856253"/>
     <use style="fill:#dd8452;stroke:#dd8452;stroke-linejoin:miter;" x="274.090003" xlink:href="#ma0437a5e7b" y="502.934268"/>
     <use style="fill:#dd8452;stroke:#dd8452;stroke-linejoin:miter;" x="294.411299" xlink:href="#ma0437a5e7b" y="395.334078"/>
     <use style="fill:#dd8452;stroke:#dd8452;stroke-linejoin:miter;" x="314.732595" xlink:href="#ma0437a5e7b" y="313.074788"/>
     <use style="fill:#dd8452;stroke:#dd8452;stroke-linejoin:miter;" x="335.053891" xlink:href="#ma0437a5e7b" y="218.431132"/>
     <use style="fill:#dd8452;stroke:#dd8452;stroke-linejoin:miter;" x="355.375187" xlink:href="#ma0437a5e7b" y="369.524001"/>
     <use style="fill:#dd8452;stroke:#dd8452;stroke-linejoin:miter;" x="375.696483" xlink:href="#ma0437a5e7b" y="213.427933"/>
     <use style="fill:#dd8452;stroke:#dd8452;stroke-linejoin:miter;" x="396.01778" xlink:href="#ma0437a5e7b" y="285.003276"/>
     <use style="fill:#dd8452;stroke:#dd8452;stroke-linejoin:miter;" x="416.339076" xlink:href="#ma0437a5e7b" y="207.434562"/>
     <use style="fill:#dd8452;stroke:#dd8452;stroke-linejoin:miter;" x="436.660372" xlink:href="#ma0437a5e7b" y="177.091868"/>
     <use style="fill:#dd8452;stroke:#dd8452;stroke-linejoin:miter;" x="456.981668" xlink:href="#ma0437a5e7b" y="157.005714"/>
     <use style="fill:#dd8452;stroke:#dd8452;stroke-linejoin:miter;" x="477.302964" xlink:href="#ma0437a5e7b" y="166.700397"/>
     <use style="fill:#dd8452;stroke:#dd8452;stroke-linejoin:miter;" x="497.62426" xlink:href="#ma0437a5e7b" y="112.032259"/>
     <use style="fill:#dd8452;stroke:#dd8452;stroke-linejoin:miter;" x="517.945556" xlink:href="#ma0437a5e7b" y="152.800648"/>
     <use style="fill:#dd8452;stroke:#dd8452;stroke-linejoin:miter;" x="538.266852" xlink:href="#ma0437a5e7b" y="106.519306"/>
     <use style="fill:#dd8452;stroke:#dd8452;stroke-linejoin:miter;" x="558.588148" xlink:href="#ma0437a5e7b" y="96.602849"/>
     <use style="fill:#dd8452;stroke:#dd8452;stroke-linejoin:miter;" x="578.909444" xlink:href="#ma0437a5e7b" y="116.83071"/>
     <use style="fill:#dd8452;stroke:#dd8452;stroke-linejoin:miter;" x="599.23074" xlink:href="#ma0437a5e7b" y="111.895695"/>
     <use style="fill:#dd8452;stroke:#dd8452;stroke-linejoin:miter;" x="619.552036" xlink:href="#ma0437a5e7b" y="132.898788"/>
     <use style="fill:#dd8452;stroke:#dd8452;stroke-linejoin:miter;" x="639.873332" xlink:href="#ma0437a5e7b" y="75.811372"/>
     <use style="fill:#dd8452;stroke:#dd8452;stroke-linejoin:miter;" x="660.194629" xlink:href="#ma0437a5e7b" y="85.547993"/>
     <use style="fill:#dd8452;stroke:#dd8452;stroke-linejoin:miter;" x="680.515925" xlink:href="#ma0437a5e7b" y="80.90848"/>
     <use style="fill:#dd8452;stroke:#dd8452;stroke-linejoin:miter;" x="700.837221" xlink:href="#ma0437a5e7b" y="60.785427"/>
     <use style="fill:#dd8452;stroke:#dd8452;stroke-linejoin:miter;" x="721.158517" xlink:href="#ma0437a5e7b" y="49.46878"/>
     <use style="fill:#dd8452;stroke:#dd8452;stroke-linejoin:miter;" x="741.479813" xlink:href="#ma0437a5e7b" y="93.37214"/>
     <use style="fill:#dd8452;stroke:#dd8452;stroke-linejoin:miter;" x="761.801109" xlink:href="#ma0437a5e7b" y="80.670912"/>
     <use style="fill:#dd8452;stroke:#dd8452;stroke-linejoin:miter;" x="782.122405" xlink:href="#ma0437a5e7b" y="66.172121"/>
     <use style="fill:#dd8452;stroke:#dd8452;stroke-linejoin:miter;" x="802.443701" xlink:href="#ma0437a5e7b" y="55.607599"/>
     <use style="fill:#dd8452;stroke:#dd8452;stroke-linejoin:miter;" x="822.764997" xlink:href="#ma0437a5e7b" y="50.786284"/>
     <use style="fill:#dd8452;stroke:#dd8452;stroke-linejoin:miter;" x="843.086293" xlink:href="#ma0437a5e7b" y="48.032523"/>
     <use style="fill:#dd8452;stroke:#dd8452;stroke-linejoin:miter;" x="863.407589" xlink:href="#ma0437a5e7b" y="49.459126"/>
     <use style="fill:#dd8452;stroke:#dd8452;stroke-linejoin:miter;" x="883.728885" xlink:href="#ma0437a5e7b" y="46.027616"/>
     <use style="fill:#dd8452;stroke:#dd8452;stroke-linejoin:miter;" x="904.050181" xlink:href="#ma0437a5e7b" y="38.301967"/>
     <use style="fill:#dd8452;stroke:#dd8452;stroke-linejoin:miter;" x="924.371478" xlink:href="#ma0437a5e7b" y="46.592431"/>
     <use style="fill:#dd8452;stroke:#dd8452;stroke-linejoin:miter;" x="944.692774" xlink:href="#ma0437a5e7b" y="36.850909"/>
     <use style="fill:#dd8452;stroke:#dd8452;stroke-linejoin:miter;" x="965.01407" xlink:href="#ma0437a5e7b" y="40.725093"/>
     <use style="fill:#dd8452;stroke:#dd8452;stroke-linejoin:miter;" x="985.335366" xlink:href="#ma0437a5e7b" y="43.137886"/>
     <use style="fill:#dd8452;stroke:#dd8452;stroke-linejoin:miter;" x="1005.656662" xlink:href="#ma0437a5e7b" y="42.988404"/>
     <use style="fill:#dd8452;stroke:#dd8452;stroke-linejoin:miter;" x="1025.977958" xlink:href="#ma0437a5e7b" y="43.189113"/>
     <use style="fill:#dd8452;stroke:#dd8452;stroke-linejoin:miter;" x="1046.299254" xlink:href="#ma0437a5e7b" y="44.406716"/>
     <use style="fill:#dd8452;stroke:#dd8452;stroke-linejoin:miter;" x="1066.62055" xlink:href="#ma0437a5e7b" y="48.662879"/>
     <use style="fill:#dd8452;stroke:#dd8452;stroke-linejoin:miter;" x="1086.941846" xlink:href="#ma0437a5e7b" y="42.177662"/>
     <use style="fill:#dd8452;stroke:#dd8452;stroke-linejoin:miter;" x="1107.263142" xlink:href="#ma0437a5e7b" y="45.060681"/>
     <use style="fill:#dd8452;stroke:#dd8452;stroke-linejoin:miter;" x="1127.584438" xlink:href="#ma0437a5e7b" y="41.644436"/>
     <use style="fill:#dd8452;stroke:#dd8452;stroke-linejoin:miter;" x="1147.905734" xlink:href="#ma0437a5e7b" y="47.413937"/>
     <use style="fill:#dd8452;stroke:#dd8452;stroke-linejoin:miter;" x="1168.22703" xlink:href="#ma0437a5e7b" y="43.255174"/>
    </g>
   </g>
   <g id="line2d_18">
    <path clip-path="url(#p17d4523dce)" d="M 172.483523 514.702275 
L 192.804819 552.571789 
L 213.126115 561.365931 
L 233.447411 530.238874 
L 253.768707 533.339394 
L 274.090003 529.195927 
L 294.411299 502.037164 
L 314.732595 607.130868 
L 335.053891 522.309453 
L 355.375187 485.672545 
L 375.696483 495.415352 
L 396.01778 511.125162 
L 416.339076 460.397195 
L 436.660372 480.846185 
L 456.981668 473.691175 
L 477.302964 448.183277 
L 497.62426 507.796717 
L 517.945556 458.988568 
L 538.266852 438.472228 
L 558.588148 432.138277 
L 578.909444 445.00586 
L 599.23074 442.905832 
L 619.552036 508.842243 
L 639.873332 568.134617 
L 660.194629 490.80875 
L 680.515925 505.259061 
L 700.837221 490.895258 
L 721.158517 477.308841 
L 741.479813 483.357813 
L 761.801109 455.660604 
L 782.122405 467.990545 
L 802.443701 497.044507 
L 822.764997 517.181698 
L 843.086293 517.277957 
L 863.407589 517.102224 
L 883.728885 525.244021 
L 904.050181 513.237649 
L 924.371478 495.661025 
L 944.692774 460.300146 
L 965.01407 445.887141 
L 985.335366 472.466773 
L 1005.656662 465.625318 
L 1025.977958 475.785565 
L 1046.299254 480.495185 
L 1066.62055 463.88705 
L 1086.941846 487.572574 
L 1107.263142 480.110012 
L 1127.584438 498.041337 
L 1147.905734 471.465982 
L 1168.22703 466.948123 
" style="fill:none;stroke:#dd8452;stroke-dasharray:14.8,6.4;stroke-dashoffset:0;stroke-width:4;"/>
    <g clip-path="url(#p17d4523dce)">
     <use style="fill:#dd8452;stroke:#dd8452;stroke-linejoin:miter;" x="172.483523" xlink:href="#ma0437a5e7b" y="514.702275"/>
     <use style="fill:#dd8452;stroke:#dd8452;stroke-linejoin:miter;" x="192.804819" xlink:href="#ma0437a5e7b" y="552.571789"/>
     <use style="fill:#dd8452;stroke:#dd8452;stroke-linejoin:miter;" x="213.126115" xlink:href="#ma0437a5e7b" y="561.365931"/>
     <use style="fill:#dd8452;stroke:#dd8452;stroke-linejoin:miter;" x="233.447411" xlink:href="#ma0437a5e7b" y="530.238874"/>
     <use style="fill:#dd8452;stroke:#dd8452;stroke-linejoin:miter;" x="253.768707" xlink:href="#ma0437a5e7b" y="533.339394"/>
     <use style="fill:#dd8452;stroke:#dd8452;stroke-linejoin:miter;" x="274.090003" xlink:href="#ma0437a5e7b" y="529.195927"/>
     <use style="fill:#dd8452;stroke:#dd8452;stroke-linejoin:miter;" x="294.411299" xlink:href="#ma0437a5e7b" y="502.037164"/>
     <use style="fill:#dd8452;stroke:#dd8452;stroke-linejoin:miter;" x="314.732595" xlink:href="#ma0437a5e7b" y="607.130868"/>
     <use style="fill:#dd8452;stroke:#dd8452;stroke-linejoin:miter;" x="335.053891" xlink:href="#ma0437a5e7b" y="522.309453"/>
     <use style="fill:#dd8452;stroke:#dd8452;stroke-linejoin:miter;" x="355.375187" xlink:href="#ma0437a5e7b" y="485.672545"/>
     <use style="fill:#dd8452;stroke:#dd8452;stroke-linejoin:miter;" x="375.696483" xlink:href="#ma0437a5e7b" y="495.415352"/>
     <use style="fill:#dd8452;stroke:#dd8452;stroke-linejoin:miter;" x="396.01778" xlink:href="#ma0437a5e7b" y="511.125162"/>
     <use style="fill:#dd8452;stroke:#dd8452;stroke-linejoin:miter;" x="416.339076" xlink:href="#ma0437a5e7b" y="460.397195"/>
     <use style="fill:#dd8452;stroke:#dd8452;stroke-linejoin:miter;" x="436.660372" xlink:href="#ma0437a5e7b" y="480.846185"/>
     <use style="fill:#dd8452;stroke:#dd8452;stroke-linejoin:miter;" x="456.981668" xlink:href="#ma0437a5e7b" y="473.691175"/>
     <use style="fill:#dd8452;stroke:#dd8452;stroke-linejoin:miter;" x="477.302964" xlink:href="#ma0437a5e7b" y="448.183277"/>
     <use style="fill:#dd8452;stroke:#dd8452;stroke-linejoin:miter;" x="497.62426" xlink:href="#ma0437a5e7b" y="507.796717"/>
     <use style="fill:#dd8452;stroke:#dd8452;stroke-linejoin:miter;" x="517.945556" xlink:href="#ma0437a5e7b" y="458.988568"/>
     <use style="fill:#dd8452;stroke:#dd8452;stroke-linejoin:miter;" x="538.266852" xlink:href="#ma0437a5e7b" y="438.472228"/>
     <use style="fill:#dd8452;stroke:#dd8452;stroke-linejoin:miter;" x="558.588148" xlink:href="#ma0437a5e7b" y="432.138277"/>
     <use style="fill:#dd8452;stroke:#dd8452;stroke-linejoin:miter;" x="578.909444" xlink:href="#ma0437a5e7b" y="445.00586"/>
     <use style="fill:#dd8452;stroke:#dd8452;stroke-linejoin:miter;" x="599.23074" xlink:href="#ma0437a5e7b" y="442.905832"/>
     <use style="fill:#dd8452;stroke:#dd8452;stroke-linejoin:miter;" x="619.552036" xlink:href="#ma0437a5e7b" y="508.842243"/>
     <use style="fill:#dd8452;stroke:#dd8452;stroke-linejoin:miter;" x="639.873332" xlink:href="#ma0437a5e7b" y="568.134617"/>
     <use style="fill:#dd8452;stroke:#dd8452;stroke-linejoin:miter;" x="660.194629" xlink:href="#ma0437a5e7b" y="490.80875"/>
     <use style="fill:#dd8452;stroke:#dd8452;stroke-linejoin:miter;" x="680.515925" xlink:href="#ma0437a5e7b" y="505.259061"/>
     <use style="fill:#dd8452;stroke:#dd8452;stroke-linejoin:miter;" x="700.837221" xlink:href="#ma0437a5e7b" y="490.895258"/>
     <use style="fill:#dd8452;stroke:#dd8452;stroke-linejoin:miter;" x="721.158517" xlink:href="#ma0437a5e7b" y="477.308841"/>
     <use style="fill:#dd8452;stroke:#dd8452;stroke-linejoin:miter;" x="741.479813" xlink:href="#ma0437a5e7b" y="483.357813"/>
     <use style="fill:#dd8452;stroke:#dd8452;stroke-linejoin:miter;" x="761.801109" xlink:href="#ma0437a5e7b" y="455.660604"/>
     <use style="fill:#dd8452;stroke:#dd8452;stroke-linejoin:miter;" x="782.122405" xlink:href="#ma0437a5e7b" y="467.990545"/>
     <use style="fill:#dd8452;stroke:#dd8452;stroke-linejoin:miter;" x="802.443701" xlink:href="#ma0437a5e7b" y="497.044507"/>
     <use style="fill:#dd8452;stroke:#dd8452;stroke-linejoin:miter;" x="822.764997" xlink:href="#ma0437a5e7b" y="517.181698"/>
     <use style="fill:#dd8452;stroke:#dd8452;stroke-linejoin:miter;" x="843.086293" xlink:href="#ma0437a5e7b" y="517.277957"/>
     <use style="fill:#dd8452;stroke:#dd8452;stroke-linejoin:miter;" x="863.407589" xlink:href="#ma0437a5e7b" y="517.102224"/>
     <use style="fill:#dd8452;stroke:#dd8452;stroke-linejoin:miter;" x="883.728885" xlink:href="#ma0437a5e7b" y="525.244021"/>
     <use style="fill:#dd8452;stroke:#dd8452;stroke-linejoin:miter;" x="904.050181" xlink:href="#ma0437a5e7b" y="513.237649"/>
     <use style="fill:#dd8452;stroke:#dd8452;stroke-linejoin:miter;" x="924.371478" xlink:href="#ma0437a5e7b" y="495.661025"/>
     <use style="fill:#dd8452;stroke:#dd8452;stroke-linejoin:miter;" x="944.692774" xlink:href="#ma0437a5e7b" y="460.300146"/>
     <use style="fill:#dd8452;stroke:#dd8452;stroke-linejoin:miter;" x="965.01407" xlink:href="#ma0437a5e7b" y="445.887141"/>
     <use style="fill:#dd8452;stroke:#dd8452;stroke-linejoin:miter;" x="985.335366" xlink:href="#ma0437a5e7b" y="472.466773"/>
     <use style="fill:#dd8452;stroke:#dd8452;stroke-linejoin:miter;" x="1005.656662" xlink:href="#ma0437a5e7b" y="465.625318"/>
     <use style="fill:#dd8452;stroke:#dd8452;stroke-linejoin:miter;" x="1025.977958" xlink:href="#ma0437a5e7b" y="475.785565"/>
     <use style="fill:#dd8452;stroke:#dd8452;stroke-linejoin:miter;" x="1046.299254" xlink:href="#ma0437a5e7b" y="480.495185"/>
     <use style="fill:#dd8452;stroke:#dd8452;stroke-linejoin:miter;" x="1066.62055" xlink:href="#ma0437a5e7b" y="463.88705"/>
     <use style="fill:#dd8452;stroke:#dd8452;stroke-linejoin:miter;" x="1086.941846" xlink:href="#ma0437a5e7b" y="487.572574"/>
     <use style="fill:#dd8452;stroke:#dd8452;stroke-linejoin:miter;" x="1107.263142" xlink:href="#ma0437a5e7b" y="480.110012"/>
     <use style="fill:#dd8452;stroke:#dd8452;stroke-linejoin:miter;" x="1127.584438" xlink:href="#ma0437a5e7b" y="498.041337"/>
     <use style="fill:#dd8452;stroke:#dd8452;stroke-linejoin:miter;" x="1147.905734" xlink:href="#ma0437a5e7b" y="471.465982"/>
     <use style="fill:#dd8452;stroke:#dd8452;stroke-linejoin:miter;" x="1168.22703" xlink:href="#ma0437a5e7b" y="466.948123"/>
    </g>
   </g>
   <g id="patch_3">
    <path d="M 121.75625 659.52 
L 121.75625 7.2 
" style="fill:none;stroke:#ffffff;stroke-linecap:square;stroke-linejoin:miter;stroke-width:1.25;"/>
   </g>
   <g id="patch_4">
    <path d="M 1237.75625 659.52 
L 1237.75625 7.2 
" style="fill:none;stroke:#ffffff;stroke-linecap:square;stroke-linejoin:miter;stroke-width:1.25;"/>
   </g>
   <g id="patch_5">
    <path d="M 121.75625 659.52 
L 1237.75625 659.52 
" style="fill:none;stroke:#ffffff;stroke-linecap:square;stroke-linejoin:miter;stroke-width:1.25;"/>
   </g>
   <g id="patch_6">
    <path d="M 121.75625 7.2 
L 1237.75625 7.2 
" style="fill:none;stroke:#ffffff;stroke-linecap:square;stroke-linejoin:miter;stroke-width:1.25;"/>
   </g>
   <g id="legend_1">
    <g id="patch_7">
     <path d="M 839.93 367.0224 
L 1220.95625 367.0224 
Q 1225.75625 367.0224 1225.75625 362.2224 
L 1225.75625 223.7124 
Q 1225.75625 218.9124 1220.95625 218.9124 
L 839.93 218.9124 
Q 835.13 218.9124 835.13 223.7124 
L 835.13 362.2224 
Q 835.13 367.0224 839.93 367.0224 
z
" style="fill:#eaeaf2;opacity:0.8;stroke:#cccccc;stroke-linejoin:miter;"/>
    </g>
    <g id="line2d_19">
     <path d="M 844.73 238.34865 
L 892.73 238.34865 
" style="fill:none;stroke:#4c72b0;stroke-linecap:round;stroke-width:4;"/>
    </g>
    <g id="line2d_20">
     <g>
      <use style="fill:#4c72b0;stroke:#4c72b0;stroke-linejoin:miter;" x="868.73" xlink:href="#m789bac2506" y="238.34865"/>
     </g>
    </g>
    <g id="text_17">
     <!-- MTL2-TResNetS-Murmur -->
     <g style="fill:#262626;" transform="translate(911.93 246.74865)scale(0.24 -0.24)">
      <defs>
       <path d="M 9.8125 72.90625 
L 24.515625 72.90625 
L 43.109375 23.296875 
L 61.8125 72.90625 
L 76.515625 72.90625 
L 76.515625 0 
L 66.890625 0 
L 66.890625 64.015625 
L 48.09375 14.015625 
L 38.1875 14.015625 
L 19.390625 64.015625 
L 19.390625 0 
L 9.8125 0 
z
" id="DejaVuSans-77"/>
       <path d="M -0.296875 72.90625 
L 61.375 72.90625 
L 61.375 64.59375 
L 35.5 64.59375 
L 35.5 0 
L 25.59375 0 
L 25.59375 64.59375 
L -0.296875 64.59375 
z
" id="DejaVuSans-84"/>
       <path d="M 9.8125 72.90625 
L 19.671875 72.90625 
L 19.671875 8.296875 
L 55.171875 8.296875 
L 55.171875 0 
L 9.8125 0 
z
" id="DejaVuSans-76"/>
       <path d="M 4.890625 31.390625 
L 31.203125 31.390625 
L 31.203125 23.390625 
L 4.890625 23.390625 
z
" id="DejaVuSans-45"/>
       <path d="M 44.390625 34.1875 
Q 47.5625 33.109375 50.5625 29.59375 
Q 53.5625 26.078125 56.59375 19.921875 
L 66.609375 0 
L 56 0 
L 46.6875 18.703125 
Q 43.0625 26.03125 39.671875 28.421875 
Q 36.28125 30.8125 30.421875 30.8125 
L 19.671875 30.8125 
L 19.671875 0 
L 9.8125 0 
L 9.8125 72.90625 
L 32.078125 72.90625 
Q 44.578125 72.90625 50.734375 67.671875 
Q 56.890625 62.453125 56.890625 51.90625 
Q 56.890625 45.015625 53.6875 40.46875 
Q 50.484375 35.9375 44.390625 34.1875 
z
M 19.671875 64.796875 
L 19.671875 38.921875 
L 32.078125 38.921875 
Q 39.203125 38.921875 42.84375 42.21875 
Q 46.484375 45.515625 46.484375 51.90625 
Q 46.484375 58.296875 42.84375 61.546875 
Q 39.203125 64.796875 32.078125 64.796875 
z
" id="DejaVuSans-82"/>
       <path d="M 44.28125 53.078125 
L 44.28125 44.578125 
Q 40.484375 46.53125 36.375 47.5 
Q 32.28125 48.484375 27.875 48.484375 
Q 21.1875 48.484375 17.84375 46.4375 
Q 14.5 44.390625 14.5 40.28125 
Q 14.5 37.15625 16.890625 35.375 
Q 19.28125 33.59375 26.515625 31.984375 
L 29.59375 31.296875 
Q 39.15625 29.25 43.1875 25.515625 
Q 47.21875 21.78125 47.21875 15.09375 
Q 47.21875 7.46875 41.1875 3.015625 
Q 35.15625 -1.421875 24.609375 -1.421875 
Q 20.21875 -1.421875 15.453125 -0.5625 
Q 10.6875 0.296875 5.421875 2 
L 5.421875 11.28125 
Q 10.40625 8.6875 15.234375 7.390625 
Q 20.0625 6.109375 24.8125 6.109375 
Q 31.15625 6.109375 34.5625 8.28125 
Q 37.984375 10.453125 37.984375 14.40625 
Q 37.984375 18.0625 35.515625 20.015625 
Q 33.0625 21.96875 24.703125 23.78125 
L 21.578125 24.515625 
Q 13.234375 26.265625 9.515625 29.90625 
Q 5.8125 33.546875 5.8125 39.890625 
Q 5.8125 47.609375 11.28125 51.796875 
Q 16.75 56 26.8125 56 
Q 31.78125 56 36.171875 55.265625 
Q 40.578125 54.546875 44.28125 53.078125 
z
" id="DejaVuSans-115"/>
       <path d="M 9.8125 72.90625 
L 23.09375 72.90625 
L 55.421875 11.921875 
L 55.421875 72.90625 
L 64.984375 72.90625 
L 64.984375 0 
L 51.703125 0 
L 19.390625 60.984375 
L 19.390625 0 
L 9.8125 0 
z
" id="DejaVuSans-78"/>
       <path d="M 52 44.1875 
Q 55.375 50.25 60.0625 53.125 
Q 64.75 56 71.09375 56 
Q 79.640625 56 84.28125 50.015625 
Q 88.921875 44.046875 88.921875 33.015625 
L 88.921875 0 
L 79.890625 0 
L 79.890625 32.71875 
Q 79.890625 40.578125 77.09375 44.375 
Q 74.3125 48.1875 68.609375 48.1875 
Q 61.625 48.1875 57.5625 43.546875 
Q 53.515625 38.921875 53.515625 30.90625 
L 53.515625 0 
L 44.484375 0 
L 44.484375 32.71875 
Q 44.484375 40.625 41.703125 44.40625 
Q 38.921875 48.1875 33.109375 48.1875 
Q 26.21875 48.1875 22.15625 43.53125 
Q 18.109375 38.875 18.109375 30.90625 
L 18.109375 0 
L 9.078125 0 
L 9.078125 54.6875 
L 18.109375 54.6875 
L 18.109375 46.1875 
Q 21.1875 51.21875 25.484375 53.609375 
Q 29.78125 56 35.6875 56 
Q 41.65625 56 45.828125 52.96875 
Q 50 49.953125 52 44.1875 
z
" id="DejaVuSans-109"/>
      </defs>
      <use xlink:href="#DejaVuSans-77"/>
      <use x="86.279297" xlink:href="#DejaVuSans-84"/>
      <use x="147.363281" xlink:href="#DejaVuSans-76"/>
      <use x="203.076172" xlink:href="#DejaVuSans-50"/>
      <use x="266.699219" xlink:href="#DejaVuSans-45"/>
      <use x="293.658203" xlink:href="#DejaVuSans-84"/>
      <use x="354.742188" xlink:href="#DejaVuSans-82"/>
      <use x="419.724609" xlink:href="#DejaVuSans-101"/>
      <use x="481.248047" xlink:href="#DejaVuSans-115"/>
      <use x="533.347656" xlink:href="#DejaVuSans-78"/>
      <use x="608.152344" xlink:href="#DejaVuSans-101"/>
      <use x="669.675781" xlink:href="#DejaVuSans-116"/>
      <use x="708.884766" xlink:href="#DejaVuSans-83"/>
      <use x="772.361328" xlink:href="#DejaVuSans-45"/>
      <use x="808.445312" xlink:href="#DejaVuSans-77"/>
      <use x="894.724609" xlink:href="#DejaVuSans-117"/>
      <use x="958.103516" xlink:href="#DejaVuSans-114"/>
      <use x="997.466797" xlink:href="#DejaVuSans-109"/>
      <use x="1094.878906" xlink:href="#DejaVuSans-117"/>
      <use x="1158.257812" xlink:href="#DejaVuSans-114"/>
     </g>
    </g>
    <g id="line2d_21">
     <path d="M 844.73 273.57615 
L 892.73 273.57615 
" style="fill:none;stroke:#4c72b0;stroke-dasharray:14.8,6.4;stroke-dashoffset:0;stroke-width:4;"/>
    </g>
    <g id="line2d_22">
     <g>
      <use style="fill:#4c72b0;stroke:#4c72b0;stroke-linejoin:miter;" x="868.73" xlink:href="#m789bac2506" y="273.57615"/>
     </g>
    </g>
    <g id="text_18">
     <!-- MTL2-TResNetS-Outcome -->
     <g style="fill:#262626;" transform="translate(911.93 281.97615)scale(0.24 -0.24)">
      <defs>
       <path d="M 39.40625 66.21875 
Q 28.65625 66.21875 22.328125 58.203125 
Q 16.015625 50.203125 16.015625 36.375 
Q 16.015625 22.609375 22.328125 14.59375 
Q 28.65625 6.59375 39.40625 6.59375 
Q 50.140625 6.59375 56.421875 14.59375 
Q 62.703125 22.609375 62.703125 36.375 
Q 62.703125 50.203125 56.421875 58.203125 
Q 50.140625 66.21875 39.40625 66.21875 
z
M 39.40625 74.21875 
Q 54.734375 74.21875 63.90625 63.9375 
Q 73.09375 53.65625 73.09375 36.375 
Q 73.09375 19.140625 63.90625 8.859375 
Q 54.734375 -1.421875 39.40625 -1.421875 
Q 24.03125 -1.421875 14.8125 8.828125 
Q 5.609375 19.09375 5.609375 36.375 
Q 5.609375 53.65625 14.8125 63.9375 
Q 24.03125 74.21875 39.40625 74.21875 
z
" id="DejaVuSans-79"/>
       <path d="M 30.609375 48.390625 
Q 23.390625 48.390625 19.1875 42.75 
Q 14.984375 37.109375 14.984375 27.296875 
Q 14.984375 17.484375 19.15625 11.84375 
Q 23.34375 6.203125 30.609375 6.203125 
Q 37.796875 6.203125 41.984375 11.859375 
Q 46.1875 17.53125 46.1875 27.296875 
Q 46.1875 37.015625 41.984375 42.703125 
Q 37.796875 48.390625 30.609375 48.390625 
z
M 30.609375 56 
Q 42.328125 56 49.015625 48.375 
Q 55.71875 40.765625 55.71875 27.296875 
Q 55.71875 13.875 49.015625 6.21875 
Q 42.328125 -1.421875 30.609375 -1.421875 
Q 18.84375 -1.421875 12.171875 6.21875 
Q 5.515625 13.875 5.515625 27.296875 
Q 5.515625 40.765625 12.171875 48.375 
Q 18.84375 56 30.609375 56 
z
" id="DejaVuSans-111"/>
      </defs>
      <use xlink:href="#DejaVuSans-77"/>
      <use x="86.279297" xlink:href="#DejaVuSans-84"/>
      <use x="147.363281" xlink:href="#DejaVuSans-76"/>
      <use x="203.076172" xlink:href="#DejaVuSans-50"/>
      <use x="266.699219" xlink:href="#DejaVuSans-45"/>
      <use x="293.658203" xlink:href="#DejaVuSans-84"/>
      <use x="354.742188" xlink:href="#DejaVuSans-82"/>
      <use x="419.724609" xlink:href="#DejaVuSans-101"/>
      <use x="481.248047" xlink:href="#DejaVuSans-115"/>
      <use x="533.347656" xlink:href="#DejaVuSans-78"/>
      <use x="608.152344" xlink:href="#DejaVuSans-101"/>
      <use x="669.675781" xlink:href="#DejaVuSans-116"/>
      <use x="708.884766" xlink:href="#DejaVuSans-83"/>
      <use x="772.361328" xlink:href="#DejaVuSans-45"/>
      <use x="811.195312" xlink:href="#DejaVuSans-79"/>
      <use x="889.90625" xlink:href="#DejaVuSans-117"/>
      <use x="953.285156" xlink:href="#DejaVuSans-116"/>
      <use x="992.494141" xlink:href="#DejaVuSans-99"/>
      <use x="1047.474609" xlink:href="#DejaVuSans-111"/>
      <use x="1108.65625" xlink:href="#DejaVuSans-109"/>
      <use x="1206.068359" xlink:href="#DejaVuSans-101"/>
     </g>
    </g>
    <g id="line2d_23">
     <path d="M 844.73 308.80365 
L 892.73 308.80365 
" style="fill:none;stroke:#dd8452;stroke-linecap:round;stroke-width:4;"/>
    </g>
    <g id="line2d_24">
     <g>
      <use style="fill:#dd8452;stroke:#dd8452;stroke-linejoin:miter;" x="868.73" xlink:href="#ma0437a5e7b" y="308.80365"/>
     </g>
    </g>
    <g id="text_19">
     <!-- MTL3-TResNetS-Murmur -->
     <g style="fill:#262626;" transform="translate(911.93 317.20365)scale(0.24 -0.24)">
      <defs>
       <path d="M 40.578125 39.3125 
Q 47.65625 37.796875 51.625 33 
Q 55.609375 28.21875 55.609375 21.1875 
Q 55.609375 10.40625 48.1875 4.484375 
Q 40.765625 -1.421875 27.09375 -1.421875 
Q 22.515625 -1.421875 17.65625 -0.515625 
Q 12.796875 0.390625 7.625 2.203125 
L 7.625 11.71875 
Q 11.71875 9.328125 16.59375 8.109375 
Q 21.484375 6.890625 26.8125 6.890625 
Q 36.078125 6.890625 40.9375 10.546875 
Q 45.796875 14.203125 45.796875 21.1875 
Q 45.796875 27.640625 41.28125 31.265625 
Q 36.765625 34.90625 28.71875 34.90625 
L 20.21875 34.90625 
L 20.21875 43.015625 
L 29.109375 43.015625 
Q 36.375 43.015625 40.234375 45.921875 
Q 44.09375 48.828125 44.09375 54.296875 
Q 44.09375 59.90625 40.109375 62.90625 
Q 36.140625 65.921875 28.71875 65.921875 
Q 24.65625 65.921875 20.015625 65.03125 
Q 15.375 64.15625 9.8125 62.3125 
L 9.8125 71.09375 
Q 15.4375 72.65625 20.34375 73.4375 
Q 25.25 74.21875 29.59375 74.21875 
Q 40.828125 74.21875 47.359375 69.109375 
Q 53.90625 64.015625 53.90625 55.328125 
Q 53.90625 49.265625 50.4375 45.09375 
Q 46.96875 40.921875 40.578125 39.3125 
z
" id="DejaVuSans-51"/>
      </defs>
      <use xlink:href="#DejaVuSans-77"/>
      <use x="86.279297" xlink:href="#DejaVuSans-84"/>
      <use x="147.363281" xlink:href="#DejaVuSans-76"/>
      <use x="203.076172" xlink:href="#DejaVuSans-51"/>
      <use x="266.699219" xlink:href="#DejaVuSans-45"/>
      <use x="293.658203" xlink:href="#DejaVuSans-84"/>
      <use x="354.742188" xlink:href="#DejaVuSans-82"/>
      <use x="419.724609" xlink:href="#DejaVuSans-101"/>
      <use x="481.248047" xlink:href="#DejaVuSans-115"/>
      <use x="533.347656" xlink:href="#DejaVuSans-78"/>
      <use x="608.152344" xlink:href="#DejaVuSans-101"/>
      <use x="669.675781" xlink:href="#DejaVuSans-116"/>
      <use x="708.884766" xlink:href="#DejaVuSans-83"/>
      <use x="772.361328" xlink:href="#DejaVuSans-45"/>
      <use x="808.445312" xlink:href="#DejaVuSans-77"/>
      <use x="894.724609" xlink:href="#DejaVuSans-117"/>
      <use x="958.103516" xlink:href="#DejaVuSans-114"/>
      <use x="997.466797" xlink:href="#DejaVuSans-109"/>
      <use x="1094.878906" xlink:href="#DejaVuSans-117"/>
      <use x="1158.257812" xlink:href="#DejaVuSans-114"/>
     </g>
    </g>
    <g id="line2d_25">
     <path d="M 844.73 344.03115 
L 892.73 344.03115 
" style="fill:none;stroke:#dd8452;stroke-dasharray:14.8,6.4;stroke-dashoffset:0;stroke-width:4;"/>
    </g>
    <g id="line2d_26">
     <g>
      <use style="fill:#dd8452;stroke:#dd8452;stroke-linejoin:miter;" x="868.73" xlink:href="#ma0437a5e7b" y="344.03115"/>
     </g>
    </g>
    <g id="text_20">
     <!-- MTL3-TResNetS-Outcome -->
     <g style="fill:#262626;" transform="translate(911.93 352.43115)scale(0.24 -0.24)">
      <use xlink:href="#DejaVuSans-77"/>
      <use x="86.279297" xlink:href="#DejaVuSans-84"/>
      <use x="147.363281" xlink:href="#DejaVuSans-76"/>
      <use x="203.076172" xlink:href="#DejaVuSans-51"/>
      <use x="266.699219" xlink:href="#DejaVuSans-45"/>
      <use x="293.658203" xlink:href="#DejaVuSans-84"/>
      <use x="354.742188" xlink:href="#DejaVuSans-82"/>
      <use x="419.724609" xlink:href="#DejaVuSans-101"/>
      <use x="481.248047" xlink:href="#DejaVuSans-115"/>
      <use x="533.347656" xlink:href="#DejaVuSans-78"/>
      <use x="608.152344" xlink:href="#DejaVuSans-101"/>
      <use x="669.675781" xlink:href="#DejaVuSans-116"/>
      <use x="708.884766" xlink:href="#DejaVuSans-83"/>
      <use x="772.361328" xlink:href="#DejaVuSans-45"/>
      <use x="811.195312" xlink:href="#DejaVuSans-79"/>
      <use x="889.90625" xlink:href="#DejaVuSans-117"/>
      <use x="953.285156" xlink:href="#DejaVuSans-116"/>
      <use x="992.494141" xlink:href="#DejaVuSans-99"/>
      <use x="1047.474609" xlink:href="#DejaVuSans-111"/>
      <use x="1108.65625" xlink:href="#DejaVuSans-109"/>
      <use x="1206.068359" xlink:href="#DejaVuSans-101"/>
     </g>
    </g>
   </g>
  </g>
 </g>
 <defs>
  <clipPath id="p17d4523dce">
   <rect height="652.32" width="1116" x="121.75625" y="7.2"/>
  </clipPath>
 </defs>
</svg>
