<?xml version="1.0" encoding="utf-8" standalone="no"?>
<!DOCTYPE svg PUBLIC "-//W3C//DTD SVG 1.1//EN"
  "http://www.w3.org/Graphics/SVG/1.1/DTD/svg11.dtd">
<!-- Created with matplotlib (https://matplotlib.org/) -->
<svg height="747.406875pt" version="1.1" viewBox="0 0 1095.4875 747.406875" width="1095.4875pt" xmlns="http://www.w3.org/2000/svg" xmlns:xlink="http://www.w3.org/1999/xlink">
 <metadata>
  <rdf:RDF xmlns:cc="http://creativecommons.org/ns#" xmlns:dc="http://purl.org/dc/elements/1.1/" xmlns:rdf="http://www.w3.org/1999/02/22-rdf-syntax-ns#">
   <cc:Work>
    <dc:type rdf:resource="http://purl.org/dc/dcmitype/StillImage"/>
    <dc:date>2021-12-23T00:50:46.692212</dc:date>
    <dc:format>image/svg+xml</dc:format>
    <dc:creator>
     <cc:Agent>
      <dc:title>Matplotlib v3.3.4, https://matplotlib.org/</dc:title>
     </cc:Agent>
    </dc:creator>
   </cc:Work>
  </rdf:RDF>
 </metadata>
 <defs>
  <style type="text/css">*{stroke-linecap:butt;stroke-linejoin:round;}</style>
 </defs>
 <g id="figure_1">
  <g id="patch_1">
   <path d="M 0 747.406875 
L 1095.4875 747.406875 
L 1095.4875 0 
L 0 0 
z
" style="fill:#ffffff;"/>
  </g>
  <g id="axes_1">
   <g id="patch_2">
    <path d="M 93.70875 668.638125 
L 986.50875 668.638125 
L 986.50875 16.318125 
L 93.70875 16.318125 
z
" style="fill:#eaeaf2;"/>
   </g>
   <g id="matplotlib.axis_1">
    <g id="xtick_1">
     <g id="line2d_1">
      <path clip-path="url(#pdab85cd46e)" d="M 134.290568 668.638125 
L 134.290568 16.318125 
" style="fill:none;stroke:#ffffff;stroke-linecap:round;"/>
     </g>
     <g id="text_1">
      <!-- 0 -->
      <g style="fill:#262626;" transform="translate(126.655568 696.374375)scale(0.24 -0.24)">
       <defs>
        <path d="M 31.78125 66.40625 
Q 24.171875 66.40625 20.328125 58.90625 
Q 16.5 51.421875 16.5 36.375 
Q 16.5 21.390625 20.328125 13.890625 
Q 24.171875 6.390625 31.78125 6.390625 
Q 39.453125 6.390625 43.28125 13.890625 
Q 47.125 21.390625 47.125 36.375 
Q 47.125 51.421875 43.28125 58.90625 
Q 39.453125 66.40625 31.78125 66.40625 
z
M 31.78125 74.21875 
Q 44.046875 74.21875 50.515625 64.515625 
Q 56.984375 54.828125 56.984375 36.375 
Q 56.984375 17.96875 50.515625 8.265625 
Q 44.046875 -1.421875 31.78125 -1.421875 
Q 19.53125 -1.421875 13.0625 8.265625 
Q 6.59375 17.96875 6.59375 36.375 
Q 6.59375 54.828125 13.0625 64.515625 
Q 19.53125 74.21875 31.78125 74.21875 
z
" id="DejaVuSans-48"/>
       </defs>
       <use xlink:href="#DejaVuSans-48"/>
      </g>
     </g>
    </g>
    <g id="xtick_2">
     <g id="line2d_2">
      <path clip-path="url(#pdab85cd46e)" d="M 268.445339 668.638125 
L 268.445339 16.318125 
" style="fill:none;stroke:#ffffff;stroke-linecap:round;"/>
     </g>
     <g id="text_2">
      <!-- 20 -->
      <g style="fill:#262626;" transform="translate(253.175339 696.374375)scale(0.24 -0.24)">
       <defs>
        <path d="M 19.1875 8.296875 
L 53.609375 8.296875 
L 53.609375 0 
L 7.328125 0 
L 7.328125 8.296875 
Q 12.9375 14.109375 22.625 23.890625 
Q 32.328125 33.6875 34.8125 36.53125 
Q 39.546875 41.84375 41.421875 45.53125 
Q 43.3125 49.21875 43.3125 52.78125 
Q 43.3125 58.59375 39.234375 62.25 
Q 35.15625 65.921875 28.609375 65.921875 
Q 23.96875 65.921875 18.8125 64.3125 
Q 13.671875 62.703125 7.8125 59.421875 
L 7.8125 69.390625 
Q 13.765625 71.78125 18.9375 73 
Q 24.125 74.21875 28.421875 74.21875 
Q 39.75 74.21875 46.484375 68.546875 
Q 53.21875 62.890625 53.21875 53.421875 
Q 53.21875 48.921875 51.53125 44.890625 
Q 49.859375 40.875 45.40625 35.40625 
Q 44.1875 33.984375 37.640625 27.21875 
Q 31.109375 20.453125 19.1875 8.296875 
z
" id="DejaVuSans-50"/>
       </defs>
       <use xlink:href="#DejaVuSans-50"/>
       <use x="63.623047" xlink:href="#DejaVuSans-48"/>
      </g>
     </g>
    </g>
    <g id="xtick_3">
     <g id="line2d_3">
      <path clip-path="url(#pdab85cd46e)" d="M 402.60011 668.638125 
L 402.60011 16.318125 
" style="fill:none;stroke:#ffffff;stroke-linecap:round;"/>
     </g>
     <g id="text_3">
      <!-- 40 -->
      <g style="fill:#262626;" transform="translate(387.33011 696.374375)scale(0.24 -0.24)">
       <defs>
        <path d="M 37.796875 64.3125 
L 12.890625 25.390625 
L 37.796875 25.390625 
z
M 35.203125 72.90625 
L 47.609375 72.90625 
L 47.609375 25.390625 
L 58.015625 25.390625 
L 58.015625 17.1875 
L 47.609375 17.1875 
L 47.609375 0 
L 37.796875 0 
L 37.796875 17.1875 
L 4.890625 17.1875 
L 4.890625 26.703125 
z
" id="DejaVuSans-52"/>
       </defs>
       <use xlink:href="#DejaVuSans-52"/>
       <use x="63.623047" xlink:href="#DejaVuSans-48"/>
      </g>
     </g>
    </g>
    <g id="xtick_4">
     <g id="line2d_4">
      <path clip-path="url(#pdab85cd46e)" d="M 536.754881 668.638125 
L 536.754881 16.318125 
" style="fill:none;stroke:#ffffff;stroke-linecap:round;"/>
     </g>
     <g id="text_4">
      <!-- 60 -->
      <g style="fill:#262626;" transform="translate(521.484881 696.374375)scale(0.24 -0.24)">
       <defs>
        <path d="M 33.015625 40.375 
Q 26.375 40.375 22.484375 35.828125 
Q 18.609375 31.296875 18.609375 23.390625 
Q 18.609375 15.53125 22.484375 10.953125 
Q 26.375 6.390625 33.015625 6.390625 
Q 39.65625 6.390625 43.53125 10.953125 
Q 47.40625 15.53125 47.40625 23.390625 
Q 47.40625 31.296875 43.53125 35.828125 
Q 39.65625 40.375 33.015625 40.375 
z
M 52.59375 71.296875 
L 52.59375 62.3125 
Q 48.875 64.0625 45.09375 64.984375 
Q 41.3125 65.921875 37.59375 65.921875 
Q 27.828125 65.921875 22.671875 59.328125 
Q 17.53125 52.734375 16.796875 39.40625 
Q 19.671875 43.65625 24.015625 45.921875 
Q 28.375 48.1875 33.59375 48.1875 
Q 44.578125 48.1875 50.953125 41.515625 
Q 57.328125 34.859375 57.328125 23.390625 
Q 57.328125 12.15625 50.6875 5.359375 
Q 44.046875 -1.421875 33.015625 -1.421875 
Q 20.359375 -1.421875 13.671875 8.265625 
Q 6.984375 17.96875 6.984375 36.375 
Q 6.984375 53.65625 15.1875 63.9375 
Q 23.390625 74.21875 37.203125 74.21875 
Q 40.921875 74.21875 44.703125 73.484375 
Q 48.484375 72.75 52.59375 71.296875 
z
" id="DejaVuSans-54"/>
       </defs>
       <use xlink:href="#DejaVuSans-54"/>
       <use x="63.623047" xlink:href="#DejaVuSans-48"/>
      </g>
     </g>
    </g>
    <g id="xtick_5">
     <g id="line2d_5">
      <path clip-path="url(#pdab85cd46e)" d="M 670.909652 668.638125 
L 670.909652 16.318125 
" style="fill:none;stroke:#ffffff;stroke-linecap:round;"/>
     </g>
     <g id="text_5">
      <!-- 80 -->
      <g style="fill:#262626;" transform="translate(655.639652 696.374375)scale(0.24 -0.24)">
       <defs>
        <path d="M 31.78125 34.625 
Q 24.75 34.625 20.71875 30.859375 
Q 16.703125 27.09375 16.703125 20.515625 
Q 16.703125 13.921875 20.71875 10.15625 
Q 24.75 6.390625 31.78125 6.390625 
Q 38.8125 6.390625 42.859375 10.171875 
Q 46.921875 13.96875 46.921875 20.515625 
Q 46.921875 27.09375 42.890625 30.859375 
Q 38.875 34.625 31.78125 34.625 
z
M 21.921875 38.8125 
Q 15.578125 40.375 12.03125 44.71875 
Q 8.5 49.078125 8.5 55.328125 
Q 8.5 64.0625 14.71875 69.140625 
Q 20.953125 74.21875 31.78125 74.21875 
Q 42.671875 74.21875 48.875 69.140625 
Q 55.078125 64.0625 55.078125 55.328125 
Q 55.078125 49.078125 51.53125 44.71875 
Q 48 40.375 41.703125 38.8125 
Q 48.828125 37.15625 52.796875 32.3125 
Q 56.78125 27.484375 56.78125 20.515625 
Q 56.78125 9.90625 50.3125 4.234375 
Q 43.84375 -1.421875 31.78125 -1.421875 
Q 19.734375 -1.421875 13.25 4.234375 
Q 6.78125 9.90625 6.78125 20.515625 
Q 6.78125 27.484375 10.78125 32.3125 
Q 14.796875 37.15625 21.921875 38.8125 
z
M 18.3125 54.390625 
Q 18.3125 48.734375 21.84375 45.5625 
Q 25.390625 42.390625 31.78125 42.390625 
Q 38.140625 42.390625 41.71875 45.5625 
Q 45.3125 48.734375 45.3125 54.390625 
Q 45.3125 60.0625 41.71875 63.234375 
Q 38.140625 66.40625 31.78125 66.40625 
Q 25.390625 66.40625 21.84375 63.234375 
Q 18.3125 60.0625 18.3125 54.390625 
z
" id="DejaVuSans-56"/>
       </defs>
       <use xlink:href="#DejaVuSans-56"/>
       <use x="63.623047" xlink:href="#DejaVuSans-48"/>
      </g>
     </g>
    </g>
    <g id="xtick_6">
     <g id="line2d_6">
      <path clip-path="url(#pdab85cd46e)" d="M 805.064422 668.638125 
L 805.064422 16.318125 
" style="fill:none;stroke:#ffffff;stroke-linecap:round;"/>
     </g>
     <g id="text_6">
      <!-- 100 -->
      <g style="fill:#262626;" transform="translate(782.159422 696.374375)scale(0.24 -0.24)">
       <defs>
        <path d="M 12.40625 8.296875 
L 28.515625 8.296875 
L 28.515625 63.921875 
L 10.984375 60.40625 
L 10.984375 69.390625 
L 28.421875 72.90625 
L 38.28125 72.90625 
L 38.28125 8.296875 
L 54.390625 8.296875 
L 54.390625 0 
L 12.40625 0 
z
" id="DejaVuSans-49"/>
       </defs>
       <use xlink:href="#DejaVuSans-49"/>
       <use x="63.623047" xlink:href="#DejaVuSans-48"/>
       <use x="127.246094" xlink:href="#DejaVuSans-48"/>
      </g>
     </g>
    </g>
    <g id="xtick_7">
     <g id="line2d_7">
      <path clip-path="url(#pdab85cd46e)" d="M 939.219193 668.638125 
L 939.219193 16.318125 
" style="fill:none;stroke:#ffffff;stroke-linecap:round;"/>
     </g>
     <g id="text_7">
      <!-- 120 -->
      <g style="fill:#262626;" transform="translate(916.314193 696.374375)scale(0.24 -0.24)">
       <use xlink:href="#DejaVuSans-49"/>
       <use x="63.623047" xlink:href="#DejaVuSans-50"/>
       <use x="127.246094" xlink:href="#DejaVuSans-48"/>
      </g>
     </g>
    </g>
    <g id="text_8">
     <!-- Epochs (n.u.) -->
     <g style="fill:#262626;" transform="translate(421.59 732.72)scale(0.36 -0.36)">
      <defs>
       <path d="M 9.8125 72.90625 
L 55.90625 72.90625 
L 55.90625 64.59375 
L 19.671875 64.59375 
L 19.671875 43.015625 
L 54.390625 43.015625 
L 54.390625 34.71875 
L 19.671875 34.71875 
L 19.671875 8.296875 
L 56.78125 8.296875 
L 56.78125 0 
L 9.8125 0 
z
" id="DejaVuSans-69"/>
       <path d="M 18.109375 8.203125 
L 18.109375 -20.796875 
L 9.078125 -20.796875 
L 9.078125 54.6875 
L 18.109375 54.6875 
L 18.109375 46.390625 
Q 20.953125 51.265625 25.265625 53.625 
Q 29.59375 56 35.59375 56 
Q 45.5625 56 51.78125 48.09375 
Q 58.015625 40.1875 58.015625 27.296875 
Q 58.015625 14.40625 51.78125 6.484375 
Q 45.5625 -1.421875 35.59375 -1.421875 
Q 29.59375 -1.421875 25.265625 0.953125 
Q 20.953125 3.328125 18.109375 8.203125 
z
M 48.6875 27.296875 
Q 48.6875 37.203125 44.609375 42.84375 
Q 40.53125 48.484375 33.40625 48.484375 
Q 26.265625 48.484375 22.1875 42.84375 
Q 18.109375 37.203125 18.109375 27.296875 
Q 18.109375 17.390625 22.1875 11.75 
Q 26.265625 6.109375 33.40625 6.109375 
Q 40.53125 6.109375 44.609375 11.75 
Q 48.6875 17.390625 48.6875 27.296875 
z
" id="DejaVuSans-112"/>
       <path d="M 30.609375 48.390625 
Q 23.390625 48.390625 19.1875 42.75 
Q 14.984375 37.109375 14.984375 27.296875 
Q 14.984375 17.484375 19.15625 11.84375 
Q 23.34375 6.203125 30.609375 6.203125 
Q 37.796875 6.203125 41.984375 11.859375 
Q 46.1875 17.53125 46.1875 27.296875 
Q 46.1875 37.015625 41.984375 42.703125 
Q 37.796875 48.390625 30.609375 48.390625 
z
M 30.609375 56 
Q 42.328125 56 49.015625 48.375 
Q 55.71875 40.765625 55.71875 27.296875 
Q 55.71875 13.875 49.015625 6.21875 
Q 42.328125 -1.421875 30.609375 -1.421875 
Q 18.84375 -1.421875 12.171875 6.21875 
Q 5.515625 13.875 5.515625 27.296875 
Q 5.515625 40.765625 12.171875 48.375 
Q 18.84375 56 30.609375 56 
z
" id="DejaVuSans-111"/>
       <path d="M 48.78125 52.59375 
L 48.78125 44.1875 
Q 44.96875 46.296875 41.140625 47.34375 
Q 37.3125 48.390625 33.40625 48.390625 
Q 24.65625 48.390625 19.8125 42.84375 
Q 14.984375 37.3125 14.984375 27.296875 
Q 14.984375 17.28125 19.8125 11.734375 
Q 24.65625 6.203125 33.40625 6.203125 
Q 37.3125 6.203125 41.140625 7.25 
Q 44.96875 8.296875 48.78125 10.40625 
L 48.78125 2.09375 
Q 45.015625 0.34375 40.984375 -0.53125 
Q 36.96875 -1.421875 32.421875 -1.421875 
Q 20.0625 -1.421875 12.78125 6.34375 
Q 5.515625 14.109375 5.515625 27.296875 
Q 5.515625 40.671875 12.859375 48.328125 
Q 20.21875 56 33.015625 56 
Q 37.15625 56 41.109375 55.140625 
Q 45.0625 54.296875 48.78125 52.59375 
z
" id="DejaVuSans-99"/>
       <path d="M 54.890625 33.015625 
L 54.890625 0 
L 45.90625 0 
L 45.90625 32.71875 
Q 45.90625 40.484375 42.875 44.328125 
Q 39.84375 48.1875 33.796875 48.1875 
Q 26.515625 48.1875 22.3125 43.546875 
Q 18.109375 38.921875 18.109375 30.90625 
L 18.109375 0 
L 9.078125 0 
L 9.078125 75.984375 
L 18.109375 75.984375 
L 18.109375 46.1875 
Q 21.34375 51.125 25.703125 53.5625 
Q 30.078125 56 35.796875 56 
Q 45.21875 56 50.046875 50.171875 
Q 54.890625 44.34375 54.890625 33.015625 
z
" id="DejaVuSans-104"/>
       <path d="M 44.28125 53.078125 
L 44.28125 44.578125 
Q 40.484375 46.53125 36.375 47.5 
Q 32.28125 48.484375 27.875 48.484375 
Q 21.1875 48.484375 17.84375 46.4375 
Q 14.5 44.390625 14.5 40.28125 
Q 14.5 37.15625 16.890625 35.375 
Q 19.28125 33.59375 26.515625 31.984375 
L 29.59375 31.296875 
Q 39.15625 29.25 43.1875 25.515625 
Q 47.21875 21.78125 47.21875 15.09375 
Q 47.21875 7.46875 41.1875 3.015625 
Q 35.15625 -1.421875 24.609375 -1.421875 
Q 20.21875 -1.421875 15.453125 -0.5625 
Q 10.6875 0.296875 5.421875 2 
L 5.421875 11.28125 
Q 10.40625 8.6875 15.234375 7.390625 
Q 20.0625 6.109375 24.8125 6.109375 
Q 31.15625 6.109375 34.5625 8.28125 
Q 37.984375 10.453125 37.984375 14.40625 
Q 37.984375 18.0625 35.515625 20.015625 
Q 33.0625 21.96875 24.703125 23.78125 
L 21.578125 24.515625 
Q 13.234375 26.265625 9.515625 29.90625 
Q 5.8125 33.546875 5.8125 39.890625 
Q 5.8125 47.609375 11.28125 51.796875 
Q 16.75 56 26.8125 56 
Q 31.78125 56 36.171875 55.265625 
Q 40.578125 54.546875 44.28125 53.078125 
z
" id="DejaVuSans-115"/>
       <path id="DejaVuSans-32"/>
       <path d="M 31 75.875 
Q 24.46875 64.65625 21.28125 53.65625 
Q 18.109375 42.671875 18.109375 31.390625 
Q 18.109375 20.125 21.3125 9.0625 
Q 24.515625 -2 31 -13.1875 
L 23.1875 -13.1875 
Q 15.875 -1.703125 12.234375 9.375 
Q 8.59375 20.453125 8.59375 31.390625 
Q 8.59375 42.28125 12.203125 53.3125 
Q 15.828125 64.359375 23.1875 75.875 
z
" id="DejaVuSans-40"/>
       <path d="M 54.890625 33.015625 
L 54.890625 0 
L 45.90625 0 
L 45.90625 32.71875 
Q 45.90625 40.484375 42.875 44.328125 
Q 39.84375 48.1875 33.796875 48.1875 
Q 26.515625 48.1875 22.3125 43.546875 
Q 18.109375 38.921875 18.109375 30.90625 
L 18.109375 0 
L 9.078125 0 
L 9.078125 54.6875 
L 18.109375 54.6875 
L 18.109375 46.1875 
Q 21.34375 51.125 25.703125 53.5625 
Q 30.078125 56 35.796875 56 
Q 45.21875 56 50.046875 50.171875 
Q 54.890625 44.34375 54.890625 33.015625 
z
" id="DejaVuSans-110"/>
       <path d="M 10.6875 12.40625 
L 21 12.40625 
L 21 0 
L 10.6875 0 
z
" id="DejaVuSans-46"/>
       <path d="M 8.5 21.578125 
L 8.5 54.6875 
L 17.484375 54.6875 
L 17.484375 21.921875 
Q 17.484375 14.15625 20.5 10.265625 
Q 23.53125 6.390625 29.59375 6.390625 
Q 36.859375 6.390625 41.078125 11.03125 
Q 45.3125 15.671875 45.3125 23.6875 
L 45.3125 54.6875 
L 54.296875 54.6875 
L 54.296875 0 
L 45.3125 0 
L 45.3125 8.40625 
Q 42.046875 3.421875 37.71875 1 
Q 33.40625 -1.421875 27.6875 -1.421875 
Q 18.265625 -1.421875 13.375 4.4375 
Q 8.5 10.296875 8.5 21.578125 
z
M 31.109375 56 
z
" id="DejaVuSans-117"/>
       <path d="M 8.015625 75.875 
L 15.828125 75.875 
Q 23.140625 64.359375 26.78125 53.3125 
Q 30.421875 42.28125 30.421875 31.390625 
Q 30.421875 20.453125 26.78125 9.375 
Q 23.140625 -1.703125 15.828125 -13.1875 
L 8.015625 -13.1875 
Q 14.5 -2 17.703125 9.0625 
Q 20.90625 20.125 20.90625 31.390625 
Q 20.90625 42.671875 17.703125 53.65625 
Q 14.5 64.65625 8.015625 75.875 
z
" id="DejaVuSans-41"/>
      </defs>
      <use xlink:href="#DejaVuSans-69"/>
      <use x="63.183594" xlink:href="#DejaVuSans-112"/>
      <use x="126.660156" xlink:href="#DejaVuSans-111"/>
      <use x="187.841797" xlink:href="#DejaVuSans-99"/>
      <use x="242.822266" xlink:href="#DejaVuSans-104"/>
      <use x="306.201172" xlink:href="#DejaVuSans-115"/>
      <use x="358.300781" xlink:href="#DejaVuSans-32"/>
      <use x="390.087891" xlink:href="#DejaVuSans-40"/>
      <use x="429.101562" xlink:href="#DejaVuSans-110"/>
      <use x="492.480469" xlink:href="#DejaVuSans-46"/>
      <use x="524.267578" xlink:href="#DejaVuSans-117"/>
      <use x="587.646484" xlink:href="#DejaVuSans-46"/>
      <use x="619.433594" xlink:href="#DejaVuSans-41"/>
     </g>
    </g>
   </g>
   <g id="matplotlib.axis_2">
    <g id="ytick_1">
     <g id="line2d_8">
      <path clip-path="url(#pdab85cd46e)" d="M 93.70875 609.336307 
L 986.50875 609.336307 
" style="fill:none;stroke:#ffffff;stroke-linecap:round;"/>
     </g>
     <g id="line2d_9">
      <defs>
       <path d="M 0 0 
L -6 0 
" id="m90a6d4bf66" style="stroke:#262626;stroke-width:1.25;"/>
      </defs>
      <g>
       <use style="fill:#262626;stroke:#262626;stroke-width:1.25;" x="93.70875" xlink:href="#m90a6d4bf66" y="609.336307"/>
      </g>
     </g>
     <g id="text_9">
      <!-- 0.0 -->
      <g style="fill:#262626;" transform="translate(46.04125 618.454432)scale(0.24 -0.24)">
       <use xlink:href="#DejaVuSans-48"/>
       <use x="63.623047" xlink:href="#DejaVuSans-46"/>
       <use x="95.410156" xlink:href="#DejaVuSans-48"/>
      </g>
     </g>
    </g>
    <g id="ytick_2">
     <g id="line2d_10">
      <path clip-path="url(#pdab85cd46e)" d="M 93.70875 490.73267 
L 986.50875 490.73267 
" style="fill:none;stroke:#ffffff;stroke-linecap:round;"/>
     </g>
     <g id="line2d_11">
      <g>
       <use style="fill:#262626;stroke:#262626;stroke-width:1.25;" x="93.70875" xlink:href="#m90a6d4bf66" y="490.73267"/>
      </g>
     </g>
     <g id="text_10">
      <!-- 0.2 -->
      <g style="fill:#262626;" transform="translate(46.04125 499.850795)scale(0.24 -0.24)">
       <use xlink:href="#DejaVuSans-48"/>
       <use x="63.623047" xlink:href="#DejaVuSans-46"/>
       <use x="95.410156" xlink:href="#DejaVuSans-50"/>
      </g>
     </g>
    </g>
    <g id="ytick_3">
     <g id="line2d_12">
      <path clip-path="url(#pdab85cd46e)" d="M 93.70875 372.129034 
L 986.50875 372.129034 
" style="fill:none;stroke:#ffffff;stroke-linecap:round;"/>
     </g>
     <g id="line2d_13">
      <g>
       <use style="fill:#262626;stroke:#262626;stroke-width:1.25;" x="93.70875" xlink:href="#m90a6d4bf66" y="372.129034"/>
      </g>
     </g>
     <g id="text_11">
      <!-- 0.4 -->
      <g style="fill:#262626;" transform="translate(46.04125 381.247159)scale(0.24 -0.24)">
       <use xlink:href="#DejaVuSans-48"/>
       <use x="63.623047" xlink:href="#DejaVuSans-46"/>
       <use x="95.410156" xlink:href="#DejaVuSans-52"/>
      </g>
     </g>
    </g>
    <g id="ytick_4">
     <g id="line2d_14">
      <path clip-path="url(#pdab85cd46e)" d="M 93.70875 253.525398 
L 986.50875 253.525398 
" style="fill:none;stroke:#ffffff;stroke-linecap:round;"/>
     </g>
     <g id="line2d_15">
      <g>
       <use style="fill:#262626;stroke:#262626;stroke-width:1.25;" x="93.70875" xlink:href="#m90a6d4bf66" y="253.525398"/>
      </g>
     </g>
     <g id="text_12">
      <!-- 0.6 -->
      <g style="fill:#262626;" transform="translate(46.04125 262.643523)scale(0.24 -0.24)">
       <use xlink:href="#DejaVuSans-48"/>
       <use x="63.623047" xlink:href="#DejaVuSans-46"/>
       <use x="95.410156" xlink:href="#DejaVuSans-54"/>
      </g>
     </g>
    </g>
    <g id="ytick_5">
     <g id="line2d_16">
      <path clip-path="url(#pdab85cd46e)" d="M 93.70875 134.921761 
L 986.50875 134.921761 
" style="fill:none;stroke:#ffffff;stroke-linecap:round;"/>
     </g>
     <g id="line2d_17">
      <g>
       <use style="fill:#262626;stroke:#262626;stroke-width:1.25;" x="93.70875" xlink:href="#m90a6d4bf66" y="134.921761"/>
      </g>
     </g>
     <g id="text_13">
      <!-- 0.8 -->
      <g style="fill:#262626;" transform="translate(46.04125 144.039886)scale(0.24 -0.24)">
       <use xlink:href="#DejaVuSans-48"/>
       <use x="63.623047" xlink:href="#DejaVuSans-46"/>
       <use x="95.410156" xlink:href="#DejaVuSans-56"/>
      </g>
     </g>
    </g>
    <g id="ytick_6">
     <g id="line2d_18">
      <path clip-path="url(#pdab85cd46e)" d="M 93.70875 16.318125 
L 986.50875 16.318125 
" style="fill:none;stroke:#ffffff;stroke-linecap:round;"/>
     </g>
     <g id="line2d_19">
      <g>
       <use style="fill:#262626;stroke:#262626;stroke-width:1.25;" x="93.70875" xlink:href="#m90a6d4bf66" y="16.318125"/>
      </g>
     </g>
     <g id="text_14">
      <!-- 1.0 -->
      <g style="fill:#262626;" transform="translate(46.04125 25.43625)scale(0.24 -0.24)">
       <use xlink:href="#DejaVuSans-49"/>
       <use x="63.623047" xlink:href="#DejaVuSans-46"/>
       <use x="95.410156" xlink:href="#DejaVuSans-48"/>
      </g>
     </g>
    </g>
    <g id="text_15">
     <!-- f1 score (n.u.) -->
     <g style="fill:#262626;" transform="translate(34.554375 468.368437)rotate(-90)scale(0.36 -0.36)">
      <defs>
       <path d="M 37.109375 75.984375 
L 37.109375 68.5 
L 28.515625 68.5 
Q 23.6875 68.5 21.796875 66.546875 
Q 19.921875 64.59375 19.921875 59.515625 
L 19.921875 54.6875 
L 34.71875 54.6875 
L 34.71875 47.703125 
L 19.921875 47.703125 
L 19.921875 0 
L 10.890625 0 
L 10.890625 47.703125 
L 2.296875 47.703125 
L 2.296875 54.6875 
L 10.890625 54.6875 
L 10.890625 58.5 
Q 10.890625 67.625 15.140625 71.796875 
Q 19.390625 75.984375 28.609375 75.984375 
z
" id="DejaVuSans-102"/>
       <path d="M 41.109375 46.296875 
Q 39.59375 47.171875 37.8125 47.578125 
Q 36.03125 48 33.890625 48 
Q 26.265625 48 22.1875 43.046875 
Q 18.109375 38.09375 18.109375 28.8125 
L 18.109375 0 
L 9.078125 0 
L 9.078125 54.6875 
L 18.109375 54.6875 
L 18.109375 46.1875 
Q 20.953125 51.171875 25.484375 53.578125 
Q 30.03125 56 36.53125 56 
Q 37.453125 56 38.578125 55.875 
Q 39.703125 55.765625 41.0625 55.515625 
z
" id="DejaVuSans-114"/>
       <path d="M 56.203125 29.59375 
L 56.203125 25.203125 
L 14.890625 25.203125 
Q 15.484375 15.921875 20.484375 11.0625 
Q 25.484375 6.203125 34.421875 6.203125 
Q 39.59375 6.203125 44.453125 7.46875 
Q 49.3125 8.734375 54.109375 11.28125 
L 54.109375 2.78125 
Q 49.265625 0.734375 44.1875 -0.34375 
Q 39.109375 -1.421875 33.890625 -1.421875 
Q 20.796875 -1.421875 13.15625 6.1875 
Q 5.515625 13.8125 5.515625 26.8125 
Q 5.515625 40.234375 12.765625 48.109375 
Q 20.015625 56 32.328125 56 
Q 43.359375 56 49.78125 48.890625 
Q 56.203125 41.796875 56.203125 29.59375 
z
M 47.21875 32.234375 
Q 47.125 39.59375 43.09375 43.984375 
Q 39.0625 48.390625 32.421875 48.390625 
Q 24.90625 48.390625 20.390625 44.140625 
Q 15.875 39.890625 15.1875 32.171875 
z
" id="DejaVuSans-101"/>
      </defs>
      <use xlink:href="#DejaVuSans-102"/>
      <use x="35.205078" xlink:href="#DejaVuSans-49"/>
      <use x="98.828125" xlink:href="#DejaVuSans-32"/>
      <use x="130.615234" xlink:href="#DejaVuSans-115"/>
      <use x="182.714844" xlink:href="#DejaVuSans-99"/>
      <use x="237.695312" xlink:href="#DejaVuSans-111"/>
      <use x="298.876953" xlink:href="#DejaVuSans-114"/>
      <use x="337.740234" xlink:href="#DejaVuSans-101"/>
      <use x="399.263672" xlink:href="#DejaVuSans-32"/>
      <use x="431.050781" xlink:href="#DejaVuSans-40"/>
      <use x="470.064453" xlink:href="#DejaVuSans-110"/>
      <use x="533.443359" xlink:href="#DejaVuSans-46"/>
      <use x="565.230469" xlink:href="#DejaVuSans-117"/>
      <use x="628.609375" xlink:href="#DejaVuSans-46"/>
      <use x="660.396484" xlink:href="#DejaVuSans-41"/>
     </g>
    </g>
   </g>
   <g id="line2d_20">
    <path clip-path="url(#pdab85cd46e)" d="M 134.290568 609.336307 
L 140.998307 609.336307 
L 147.706045 609.336307 
L 154.413784 609.336307 
L 161.121522 609.336307 
L 167.829261 609.336307 
L 174.536999 609.336307 
L 181.244738 609.336307 
L 187.952477 609.336307 
L 194.660215 609.336307 
L 201.367954 609.336307 
L 208.075692 609.336307 
L 214.783431 609.336307 
L 221.491169 609.336307 
L 228.198908 609.336307 
L 234.906646 609.336307 
L 241.614385 609.336307 
L 248.322123 609.336307 
L 255.029862 609.336307 
L 261.7376 609.336307 
L 268.445339 609.336307 
L 275.153078 609.336307 
L 281.860816 609.336307 
L 288.568555 609.336307 
L 295.276293 609.336307 
L 301.984032 609.336307 
L 308.69177 609.336307 
L 315.399509 609.336307 
L 322.107247 609.336307 
L 328.814986 547.163577 
L 335.522724 556.038352 
L 342.230463 550.628361 
L 348.938202 549.396078 
L 355.64594 543.360164 
L 362.353679 538.434246 
L 369.061417 527.67322 
L 375.769156 523.331941 
L 382.476894 515.880728 
L 389.184633 511.869962 
L 395.892371 507.39701 
L 402.60011 506.756918 
L 409.307848 508.155021 
L 416.015587 499.774806 
L 422.723326 488.077912 
L 429.431064 483.890165 
L 436.138803 488.672569 
L 442.846541 474.524039 
L 449.55428 468.060947 
L 456.262018 463.561669 
L 462.969757 456.960499 
L 469.677495 460.972038 
L 476.385234 454.675021 
L 483.092972 448.421571 
L 489.800711 440.323683 
L 496.508449 418.221459 
L 503.216188 400.251563 
L 509.923927 408.532147 
L 516.631665 397.93917 
L 523.339404 386.875056 
L 530.047142 392.104401 
L 536.754881 397.374002 
L 543.462619 403.485411 
L 550.170358 379.608561 
L 556.878096 367.736326 
L 563.585835 362.720592 
L 570.293573 297.979287 
L 577.001312 274.522238 
L 583.709051 162.978563 
L 590.416789 87.837935 
L 597.124528 88.781723 
L 603.832266 106.080211 
L 610.540005 75.468306 
L 617.247743 79.800519 
L 623.955482 73.804611 
L 630.66322 89.34995 
L 637.370959 67.753405 
L 644.078697 74.829282 
L 650.786436 54.372797 
L 657.494174 52.689936 
L 664.201913 73.607117 
L 670.909652 52.689936 
L 677.61739 70.79489 
L 684.325129 61.456021 
L 691.032867 53.771934 
L 697.740606 49.350998 
L 704.448344 70.228898 
L 711.156083 45.482983 
L 717.863821 49.705237 
L 724.57156 49.527173 
L 731.279298 60.245427 
L 737.987037 69.099877 
L 744.694776 56.064682 
L 751.402514 53.686424 
L 758.110253 65.99507 
L 764.817991 61.439103 
L 771.52573 39.904105 
L 778.233468 50.293155 
L 784.941207 48.72352 
L 791.648945 60.014231 
L 798.356684 56.064682 
L 805.064422 61.934938 
L 811.772161 55.418254 
L 818.4799 40.958799 
L 825.187638 58.788953 
L 831.895377 48.200853 
L 838.603115 40.038882 
L 845.310854 44.40849 
L 852.018592 45.969064 
L 858.726331 37.55572 
L 865.434069 53.482782 
L 872.141808 45.969064 
L 878.849546 35.655704 
L 885.557285 53.686424 
L 892.265023 44.244219 
L 898.972762 54.100476 
L 905.680501 56.714489 
L 912.388239 55.642968 
L 919.095978 44.244219 
L 925.803716 52.558155 
L 932.511455 49.447662 
L 939.219193 39.252559 
L 945.926932 56.278949 
" style="fill:none;stroke:#4c72b0;stroke-linecap:round;stroke-width:2.5;"/>
    <defs>
     <path d="M 0 -4.5 
L -1.010313 -1.390576 
L -4.279754 -1.390576 
L -1.634721 0.531153 
L -2.645034 3.640576 
L -0 1.718847 
L 2.645034 3.640576 
L 1.634721 0.531153 
L 4.279754 -1.390576 
L 1.010313 -1.390576 
z
" id="m64c2c352e7" style="stroke:#4c72b0;stroke-linejoin:bevel;"/>
    </defs>
    <g clip-path="url(#pdab85cd46e)">
     <use style="fill:#4c72b0;stroke:#4c72b0;stroke-linejoin:bevel;" x="134.290568" xlink:href="#m64c2c352e7" y="609.336307"/>
     <use style="fill:#4c72b0;stroke:#4c72b0;stroke-linejoin:bevel;" x="140.998307" xlink:href="#m64c2c352e7" y="609.336307"/>
     <use style="fill:#4c72b0;stroke:#4c72b0;stroke-linejoin:bevel;" x="147.706045" xlink:href="#m64c2c352e7" y="609.336307"/>
     <use style="fill:#4c72b0;stroke:#4c72b0;stroke-linejoin:bevel;" x="154.413784" xlink:href="#m64c2c352e7" y="609.336307"/>
     <use style="fill:#4c72b0;stroke:#4c72b0;stroke-linejoin:bevel;" x="161.121522" xlink:href="#m64c2c352e7" y="609.336307"/>
     <use style="fill:#4c72b0;stroke:#4c72b0;stroke-linejoin:bevel;" x="167.829261" xlink:href="#m64c2c352e7" y="609.336307"/>
     <use style="fill:#4c72b0;stroke:#4c72b0;stroke-linejoin:bevel;" x="174.536999" xlink:href="#m64c2c352e7" y="609.336307"/>
     <use style="fill:#4c72b0;stroke:#4c72b0;stroke-linejoin:bevel;" x="181.244738" xlink:href="#m64c2c352e7" y="609.336307"/>
     <use style="fill:#4c72b0;stroke:#4c72b0;stroke-linejoin:bevel;" x="187.952477" xlink:href="#m64c2c352e7" y="609.336307"/>
     <use style="fill:#4c72b0;stroke:#4c72b0;stroke-linejoin:bevel;" x="194.660215" xlink:href="#m64c2c352e7" y="609.336307"/>
     <use style="fill:#4c72b0;stroke:#4c72b0;stroke-linejoin:bevel;" x="201.367954" xlink:href="#m64c2c352e7" y="609.336307"/>
     <use style="fill:#4c72b0;stroke:#4c72b0;stroke-linejoin:bevel;" x="208.075692" xlink:href="#m64c2c352e7" y="609.336307"/>
     <use style="fill:#4c72b0;stroke:#4c72b0;stroke-linejoin:bevel;" x="214.783431" xlink:href="#m64c2c352e7" y="609.336307"/>
     <use style="fill:#4c72b0;stroke:#4c72b0;stroke-linejoin:bevel;" x="221.491169" xlink:href="#m64c2c352e7" y="609.336307"/>
     <use style="fill:#4c72b0;stroke:#4c72b0;stroke-linejoin:bevel;" x="228.198908" xlink:href="#m64c2c352e7" y="609.336307"/>
     <use style="fill:#4c72b0;stroke:#4c72b0;stroke-linejoin:bevel;" x="234.906646" xlink:href="#m64c2c352e7" y="609.336307"/>
     <use style="fill:#4c72b0;stroke:#4c72b0;stroke-linejoin:bevel;" x="241.614385" xlink:href="#m64c2c352e7" y="609.336307"/>
     <use style="fill:#4c72b0;stroke:#4c72b0;stroke-linejoin:bevel;" x="248.322123" xlink:href="#m64c2c352e7" y="609.336307"/>
     <use style="fill:#4c72b0;stroke:#4c72b0;stroke-linejoin:bevel;" x="255.029862" xlink:href="#m64c2c352e7" y="609.336307"/>
     <use style="fill:#4c72b0;stroke:#4c72b0;stroke-linejoin:bevel;" x="261.7376" xlink:href="#m64c2c352e7" y="609.336307"/>
     <use style="fill:#4c72b0;stroke:#4c72b0;stroke-linejoin:bevel;" x="268.445339" xlink:href="#m64c2c352e7" y="609.336307"/>
     <use style="fill:#4c72b0;stroke:#4c72b0;stroke-linejoin:bevel;" x="275.153078" xlink:href="#m64c2c352e7" y="609.336307"/>
     <use style="fill:#4c72b0;stroke:#4c72b0;stroke-linejoin:bevel;" x="281.860816" xlink:href="#m64c2c352e7" y="609.336307"/>
     <use style="fill:#4c72b0;stroke:#4c72b0;stroke-linejoin:bevel;" x="288.568555" xlink:href="#m64c2c352e7" y="609.336307"/>
     <use style="fill:#4c72b0;stroke:#4c72b0;stroke-linejoin:bevel;" x="295.276293" xlink:href="#m64c2c352e7" y="609.336307"/>
     <use style="fill:#4c72b0;stroke:#4c72b0;stroke-linejoin:bevel;" x="301.984032" xlink:href="#m64c2c352e7" y="609.336307"/>
     <use style="fill:#4c72b0;stroke:#4c72b0;stroke-linejoin:bevel;" x="308.69177" xlink:href="#m64c2c352e7" y="609.336307"/>
     <use style="fill:#4c72b0;stroke:#4c72b0;stroke-linejoin:bevel;" x="315.399509" xlink:href="#m64c2c352e7" y="609.336307"/>
     <use style="fill:#4c72b0;stroke:#4c72b0;stroke-linejoin:bevel;" x="322.107247" xlink:href="#m64c2c352e7" y="609.336307"/>
     <use style="fill:#4c72b0;stroke:#4c72b0;stroke-linejoin:bevel;" x="328.814986" xlink:href="#m64c2c352e7" y="547.163577"/>
     <use style="fill:#4c72b0;stroke:#4c72b0;stroke-linejoin:bevel;" x="335.522724" xlink:href="#m64c2c352e7" y="556.038352"/>
     <use style="fill:#4c72b0;stroke:#4c72b0;stroke-linejoin:bevel;" x="342.230463" xlink:href="#m64c2c352e7" y="550.628361"/>
     <use style="fill:#4c72b0;stroke:#4c72b0;stroke-linejoin:bevel;" x="348.938202" xlink:href="#m64c2c352e7" y="549.396078"/>
     <use style="fill:#4c72b0;stroke:#4c72b0;stroke-linejoin:bevel;" x="355.64594" xlink:href="#m64c2c352e7" y="543.360164"/>
     <use style="fill:#4c72b0;stroke:#4c72b0;stroke-linejoin:bevel;" x="362.353679" xlink:href="#m64c2c352e7" y="538.434246"/>
     <use style="fill:#4c72b0;stroke:#4c72b0;stroke-linejoin:bevel;" x="369.061417" xlink:href="#m64c2c352e7" y="527.67322"/>
     <use style="fill:#4c72b0;stroke:#4c72b0;stroke-linejoin:bevel;" x="375.769156" xlink:href="#m64c2c352e7" y="523.331941"/>
     <use style="fill:#4c72b0;stroke:#4c72b0;stroke-linejoin:bevel;" x="382.476894" xlink:href="#m64c2c352e7" y="515.880728"/>
     <use style="fill:#4c72b0;stroke:#4c72b0;stroke-linejoin:bevel;" x="389.184633" xlink:href="#m64c2c352e7" y="511.869962"/>
     <use style="fill:#4c72b0;stroke:#4c72b0;stroke-linejoin:bevel;" x="395.892371" xlink:href="#m64c2c352e7" y="507.39701"/>
     <use style="fill:#4c72b0;stroke:#4c72b0;stroke-linejoin:bevel;" x="402.60011" xlink:href="#m64c2c352e7" y="506.756918"/>
     <use style="fill:#4c72b0;stroke:#4c72b0;stroke-linejoin:bevel;" x="409.307848" xlink:href="#m64c2c352e7" y="508.155021"/>
     <use style="fill:#4c72b0;stroke:#4c72b0;stroke-linejoin:bevel;" x="416.015587" xlink:href="#m64c2c352e7" y="499.774806"/>
     <use style="fill:#4c72b0;stroke:#4c72b0;stroke-linejoin:bevel;" x="422.723326" xlink:href="#m64c2c352e7" y="488.077912"/>
     <use style="fill:#4c72b0;stroke:#4c72b0;stroke-linejoin:bevel;" x="429.431064" xlink:href="#m64c2c352e7" y="483.890165"/>
     <use style="fill:#4c72b0;stroke:#4c72b0;stroke-linejoin:bevel;" x="436.138803" xlink:href="#m64c2c352e7" y="488.672569"/>
     <use style="fill:#4c72b0;stroke:#4c72b0;stroke-linejoin:bevel;" x="442.846541" xlink:href="#m64c2c352e7" y="474.524039"/>
     <use style="fill:#4c72b0;stroke:#4c72b0;stroke-linejoin:bevel;" x="449.55428" xlink:href="#m64c2c352e7" y="468.060947"/>
     <use style="fill:#4c72b0;stroke:#4c72b0;stroke-linejoin:bevel;" x="456.262018" xlink:href="#m64c2c352e7" y="463.561669"/>
     <use style="fill:#4c72b0;stroke:#4c72b0;stroke-linejoin:bevel;" x="462.969757" xlink:href="#m64c2c352e7" y="456.960499"/>
     <use style="fill:#4c72b0;stroke:#4c72b0;stroke-linejoin:bevel;" x="469.677495" xlink:href="#m64c2c352e7" y="460.972038"/>
     <use style="fill:#4c72b0;stroke:#4c72b0;stroke-linejoin:bevel;" x="476.385234" xlink:href="#m64c2c352e7" y="454.675021"/>
     <use style="fill:#4c72b0;stroke:#4c72b0;stroke-linejoin:bevel;" x="483.092972" xlink:href="#m64c2c352e7" y="448.421571"/>
     <use style="fill:#4c72b0;stroke:#4c72b0;stroke-linejoin:bevel;" x="489.800711" xlink:href="#m64c2c352e7" y="440.323683"/>
     <use style="fill:#4c72b0;stroke:#4c72b0;stroke-linejoin:bevel;" x="496.508449" xlink:href="#m64c2c352e7" y="418.221459"/>
     <use style="fill:#4c72b0;stroke:#4c72b0;stroke-linejoin:bevel;" x="503.216188" xlink:href="#m64c2c352e7" y="400.251563"/>
     <use style="fill:#4c72b0;stroke:#4c72b0;stroke-linejoin:bevel;" x="509.923927" xlink:href="#m64c2c352e7" y="408.532147"/>
     <use style="fill:#4c72b0;stroke:#4c72b0;stroke-linejoin:bevel;" x="516.631665" xlink:href="#m64c2c352e7" y="397.93917"/>
     <use style="fill:#4c72b0;stroke:#4c72b0;stroke-linejoin:bevel;" x="523.339404" xlink:href="#m64c2c352e7" y="386.875056"/>
     <use style="fill:#4c72b0;stroke:#4c72b0;stroke-linejoin:bevel;" x="530.047142" xlink:href="#m64c2c352e7" y="392.104401"/>
     <use style="fill:#4c72b0;stroke:#4c72b0;stroke-linejoin:bevel;" x="536.754881" xlink:href="#m64c2c352e7" y="397.374002"/>
     <use style="fill:#4c72b0;stroke:#4c72b0;stroke-linejoin:bevel;" x="543.462619" xlink:href="#m64c2c352e7" y="403.485411"/>
     <use style="fill:#4c72b0;stroke:#4c72b0;stroke-linejoin:bevel;" x="550.170358" xlink:href="#m64c2c352e7" y="379.608561"/>
     <use style="fill:#4c72b0;stroke:#4c72b0;stroke-linejoin:bevel;" x="556.878096" xlink:href="#m64c2c352e7" y="367.736326"/>
     <use style="fill:#4c72b0;stroke:#4c72b0;stroke-linejoin:bevel;" x="563.585835" xlink:href="#m64c2c352e7" y="362.720592"/>
     <use style="fill:#4c72b0;stroke:#4c72b0;stroke-linejoin:bevel;" x="570.293573" xlink:href="#m64c2c352e7" y="297.979287"/>
     <use style="fill:#4c72b0;stroke:#4c72b0;stroke-linejoin:bevel;" x="577.001312" xlink:href="#m64c2c352e7" y="274.522238"/>
     <use style="fill:#4c72b0;stroke:#4c72b0;stroke-linejoin:bevel;" x="583.709051" xlink:href="#m64c2c352e7" y="162.978563"/>
     <use style="fill:#4c72b0;stroke:#4c72b0;stroke-linejoin:bevel;" x="590.416789" xlink:href="#m64c2c352e7" y="87.837935"/>
     <use style="fill:#4c72b0;stroke:#4c72b0;stroke-linejoin:bevel;" x="597.124528" xlink:href="#m64c2c352e7" y="88.781723"/>
     <use style="fill:#4c72b0;stroke:#4c72b0;stroke-linejoin:bevel;" x="603.832266" xlink:href="#m64c2c352e7" y="106.080211"/>
     <use style="fill:#4c72b0;stroke:#4c72b0;stroke-linejoin:bevel;" x="610.540005" xlink:href="#m64c2c352e7" y="75.468306"/>
     <use style="fill:#4c72b0;stroke:#4c72b0;stroke-linejoin:bevel;" x="617.247743" xlink:href="#m64c2c352e7" y="79.800519"/>
     <use style="fill:#4c72b0;stroke:#4c72b0;stroke-linejoin:bevel;" x="623.955482" xlink:href="#m64c2c352e7" y="73.804611"/>
     <use style="fill:#4c72b0;stroke:#4c72b0;stroke-linejoin:bevel;" x="630.66322" xlink:href="#m64c2c352e7" y="89.34995"/>
     <use style="fill:#4c72b0;stroke:#4c72b0;stroke-linejoin:bevel;" x="637.370959" xlink:href="#m64c2c352e7" y="67.753405"/>
     <use style="fill:#4c72b0;stroke:#4c72b0;stroke-linejoin:bevel;" x="644.078697" xlink:href="#m64c2c352e7" y="74.829282"/>
     <use style="fill:#4c72b0;stroke:#4c72b0;stroke-linejoin:bevel;" x="650.786436" xlink:href="#m64c2c352e7" y="54.372797"/>
     <use style="fill:#4c72b0;stroke:#4c72b0;stroke-linejoin:bevel;" x="657.494174" xlink:href="#m64c2c352e7" y="52.689936"/>
     <use style="fill:#4c72b0;stroke:#4c72b0;stroke-linejoin:bevel;" x="664.201913" xlink:href="#m64c2c352e7" y="73.607117"/>
     <use style="fill:#4c72b0;stroke:#4c72b0;stroke-linejoin:bevel;" x="670.909652" xlink:href="#m64c2c352e7" y="52.689936"/>
     <use style="fill:#4c72b0;stroke:#4c72b0;stroke-linejoin:bevel;" x="677.61739" xlink:href="#m64c2c352e7" y="70.79489"/>
     <use style="fill:#4c72b0;stroke:#4c72b0;stroke-linejoin:bevel;" x="684.325129" xlink:href="#m64c2c352e7" y="61.456021"/>
     <use style="fill:#4c72b0;stroke:#4c72b0;stroke-linejoin:bevel;" x="691.032867" xlink:href="#m64c2c352e7" y="53.771934"/>
     <use style="fill:#4c72b0;stroke:#4c72b0;stroke-linejoin:bevel;" x="697.740606" xlink:href="#m64c2c352e7" y="49.350998"/>
     <use style="fill:#4c72b0;stroke:#4c72b0;stroke-linejoin:bevel;" x="704.448344" xlink:href="#m64c2c352e7" y="70.228898"/>
     <use style="fill:#4c72b0;stroke:#4c72b0;stroke-linejoin:bevel;" x="711.156083" xlink:href="#m64c2c352e7" y="45.482983"/>
     <use style="fill:#4c72b0;stroke:#4c72b0;stroke-linejoin:bevel;" x="717.863821" xlink:href="#m64c2c352e7" y="49.705237"/>
     <use style="fill:#4c72b0;stroke:#4c72b0;stroke-linejoin:bevel;" x="724.57156" xlink:href="#m64c2c352e7" y="49.527173"/>
     <use style="fill:#4c72b0;stroke:#4c72b0;stroke-linejoin:bevel;" x="731.279298" xlink:href="#m64c2c352e7" y="60.245427"/>
     <use style="fill:#4c72b0;stroke:#4c72b0;stroke-linejoin:bevel;" x="737.987037" xlink:href="#m64c2c352e7" y="69.099877"/>
     <use style="fill:#4c72b0;stroke:#4c72b0;stroke-linejoin:bevel;" x="744.694776" xlink:href="#m64c2c352e7" y="56.064682"/>
     <use style="fill:#4c72b0;stroke:#4c72b0;stroke-linejoin:bevel;" x="751.402514" xlink:href="#m64c2c352e7" y="53.686424"/>
     <use style="fill:#4c72b0;stroke:#4c72b0;stroke-linejoin:bevel;" x="758.110253" xlink:href="#m64c2c352e7" y="65.99507"/>
     <use style="fill:#4c72b0;stroke:#4c72b0;stroke-linejoin:bevel;" x="764.817991" xlink:href="#m64c2c352e7" y="61.439103"/>
     <use style="fill:#4c72b0;stroke:#4c72b0;stroke-linejoin:bevel;" x="771.52573" xlink:href="#m64c2c352e7" y="39.904105"/>
     <use style="fill:#4c72b0;stroke:#4c72b0;stroke-linejoin:bevel;" x="778.233468" xlink:href="#m64c2c352e7" y="50.293155"/>
     <use style="fill:#4c72b0;stroke:#4c72b0;stroke-linejoin:bevel;" x="784.941207" xlink:href="#m64c2c352e7" y="48.72352"/>
     <use style="fill:#4c72b0;stroke:#4c72b0;stroke-linejoin:bevel;" x="791.648945" xlink:href="#m64c2c352e7" y="60.014231"/>
     <use style="fill:#4c72b0;stroke:#4c72b0;stroke-linejoin:bevel;" x="798.356684" xlink:href="#m64c2c352e7" y="56.064682"/>
     <use style="fill:#4c72b0;stroke:#4c72b0;stroke-linejoin:bevel;" x="805.064422" xlink:href="#m64c2c352e7" y="61.934938"/>
     <use style="fill:#4c72b0;stroke:#4c72b0;stroke-linejoin:bevel;" x="811.772161" xlink:href="#m64c2c352e7" y="55.418254"/>
     <use style="fill:#4c72b0;stroke:#4c72b0;stroke-linejoin:bevel;" x="818.4799" xlink:href="#m64c2c352e7" y="40.958799"/>
     <use style="fill:#4c72b0;stroke:#4c72b0;stroke-linejoin:bevel;" x="825.187638" xlink:href="#m64c2c352e7" y="58.788953"/>
     <use style="fill:#4c72b0;stroke:#4c72b0;stroke-linejoin:bevel;" x="831.895377" xlink:href="#m64c2c352e7" y="48.200853"/>
     <use style="fill:#4c72b0;stroke:#4c72b0;stroke-linejoin:bevel;" x="838.603115" xlink:href="#m64c2c352e7" y="40.038882"/>
     <use style="fill:#4c72b0;stroke:#4c72b0;stroke-linejoin:bevel;" x="845.310854" xlink:href="#m64c2c352e7" y="44.40849"/>
     <use style="fill:#4c72b0;stroke:#4c72b0;stroke-linejoin:bevel;" x="852.018592" xlink:href="#m64c2c352e7" y="45.969064"/>
     <use style="fill:#4c72b0;stroke:#4c72b0;stroke-linejoin:bevel;" x="858.726331" xlink:href="#m64c2c352e7" y="37.55572"/>
     <use style="fill:#4c72b0;stroke:#4c72b0;stroke-linejoin:bevel;" x="865.434069" xlink:href="#m64c2c352e7" y="53.482782"/>
     <use style="fill:#4c72b0;stroke:#4c72b0;stroke-linejoin:bevel;" x="872.141808" xlink:href="#m64c2c352e7" y="45.969064"/>
     <use style="fill:#4c72b0;stroke:#4c72b0;stroke-linejoin:bevel;" x="878.849546" xlink:href="#m64c2c352e7" y="35.655704"/>
     <use style="fill:#4c72b0;stroke:#4c72b0;stroke-linejoin:bevel;" x="885.557285" xlink:href="#m64c2c352e7" y="53.686424"/>
     <use style="fill:#4c72b0;stroke:#4c72b0;stroke-linejoin:bevel;" x="892.265023" xlink:href="#m64c2c352e7" y="44.244219"/>
     <use style="fill:#4c72b0;stroke:#4c72b0;stroke-linejoin:bevel;" x="898.972762" xlink:href="#m64c2c352e7" y="54.100476"/>
     <use style="fill:#4c72b0;stroke:#4c72b0;stroke-linejoin:bevel;" x="905.680501" xlink:href="#m64c2c352e7" y="56.714489"/>
     <use style="fill:#4c72b0;stroke:#4c72b0;stroke-linejoin:bevel;" x="912.388239" xlink:href="#m64c2c352e7" y="55.642968"/>
     <use style="fill:#4c72b0;stroke:#4c72b0;stroke-linejoin:bevel;" x="919.095978" xlink:href="#m64c2c352e7" y="44.244219"/>
     <use style="fill:#4c72b0;stroke:#4c72b0;stroke-linejoin:bevel;" x="925.803716" xlink:href="#m64c2c352e7" y="52.558155"/>
     <use style="fill:#4c72b0;stroke:#4c72b0;stroke-linejoin:bevel;" x="932.511455" xlink:href="#m64c2c352e7" y="49.447662"/>
     <use style="fill:#4c72b0;stroke:#4c72b0;stroke-linejoin:bevel;" x="939.219193" xlink:href="#m64c2c352e7" y="39.252559"/>
     <use style="fill:#4c72b0;stroke:#4c72b0;stroke-linejoin:bevel;" x="945.926932" xlink:href="#m64c2c352e7" y="56.278949"/>
    </g>
   </g>
   <g id="patch_3">
    <path d="M 93.70875 668.638125 
L 93.70875 16.318125 
" style="fill:none;stroke:#ffffff;stroke-linecap:square;stroke-linejoin:miter;stroke-width:1.25;"/>
   </g>
   <g id="patch_4">
    <path d="M 986.50875 668.638125 
L 986.50875 16.318125 
" style="fill:none;stroke:#ffffff;stroke-linecap:square;stroke-linejoin:miter;stroke-width:1.25;"/>
   </g>
   <g id="patch_5">
    <path d="M 93.70875 668.638125 
L 986.50875 668.638125 
" style="fill:none;stroke:#ffffff;stroke-linecap:square;stroke-linejoin:miter;stroke-width:1.25;"/>
   </g>
   <g id="patch_6">
    <path d="M 93.70875 16.318125 
L 986.50875 16.318125 
" style="fill:none;stroke:#ffffff;stroke-linecap:square;stroke-linejoin:miter;stroke-width:1.25;"/>
   </g>
   <g id="legend_1">
    <g id="patch_7">
     <path d="M 781.299688 655.638125 
L 968.30875 655.638125 
Q 973.50875 655.638125 973.50875 650.438125 
L 973.50875 576.711875 
Q 973.50875 571.511875 968.30875 571.511875 
L 781.299688 571.511875 
Q 776.099687 571.511875 776.099687 576.711875 
L 776.099687 650.438125 
Q 776.099687 655.638125 781.299688 655.638125 
z
" style="fill:#eaeaf2;opacity:0.8;stroke:#cccccc;stroke-linejoin:miter;"/>
    </g>
    <g id="line2d_21">
     <path d="M 786.499687 592.567813 
L 838.499687 592.567813 
" style="fill:none;stroke:#4c72b0;stroke-linecap:round;stroke-width:2.5;"/>
    </g>
    <g id="line2d_22">
     <g>
      <use style="fill:#4c72b0;stroke:#4c72b0;stroke-linejoin:bevel;" x="812.499687" xlink:href="#m64c2c352e7" y="592.567813"/>
     </g>
    </g>
    <g id="text_16">
     <!-- f1 score -->
     <g style="fill:#262626;" transform="translate(859.299687 601.667813)scale(0.26 -0.26)">
      <use xlink:href="#DejaVuSans-102"/>
      <use x="35.205078" xlink:href="#DejaVuSans-49"/>
      <use x="98.828125" xlink:href="#DejaVuSans-32"/>
      <use x="130.615234" xlink:href="#DejaVuSans-115"/>
      <use x="182.714844" xlink:href="#DejaVuSans-99"/>
      <use x="237.695312" xlink:href="#DejaVuSans-111"/>
      <use x="298.876953" xlink:href="#DejaVuSans-114"/>
      <use x="337.740234" xlink:href="#DejaVuSans-101"/>
     </g>
    </g>
    <g id="line2d_23">
     <path d="M 786.499687 630.730937 
L 838.499687 630.730937 
" style="fill:none;stroke:#dd8452;stroke-linecap:round;stroke-width:2.5;"/>
    </g>
    <g id="line2d_24">
     <defs>
      <path d="M -0 4.5 
L 4.5 -4.5 
L -4.5 -4.5 
z
" id="m8c774713c5" style="stroke:#dd8452;stroke-linejoin:miter;"/>
     </defs>
     <g>
      <use style="fill:#dd8452;stroke:#dd8452;stroke-linejoin:miter;" x="812.499687" xlink:href="#m8c774713c5" y="630.730937"/>
     </g>
    </g>
    <g id="text_17">
     <!-- Loss -->
     <g style="fill:#262626;" transform="translate(859.299687 639.830938)scale(0.26 -0.26)">
      <defs>
       <path d="M 9.8125 72.90625 
L 19.671875 72.90625 
L 19.671875 8.296875 
L 55.171875 8.296875 
L 55.171875 0 
L 9.8125 0 
z
" id="DejaVuSans-76"/>
      </defs>
      <use xlink:href="#DejaVuSans-76"/>
      <use x="53.962891" xlink:href="#DejaVuSans-111"/>
      <use x="115.144531" xlink:href="#DejaVuSans-115"/>
      <use x="167.244141" xlink:href="#DejaVuSans-115"/>
     </g>
    </g>
   </g>
  </g>
  <g id="axes_2">
   <g id="matplotlib.axis_3">
    <g id="ytick_7">
     <g id="line2d_25">
      <path clip-path="url(#pdab85cd46e)" d="M 93.70875 609.336307 
L 986.50875 609.336307 
" style="fill:none;stroke:#ffffff;stroke-linecap:round;"/>
     </g>
     <g id="line2d_26">
      <defs>
       <path d="M 0 0 
L 6 0 
" id="m93aa2126ea" style="stroke:#262626;stroke-width:1.25;"/>
      </defs>
      <g>
       <use style="fill:#262626;stroke:#262626;stroke-width:1.25;" x="986.50875" xlink:href="#m93aa2126ea" y="609.336307"/>
      </g>
     </g>
     <g id="text_18">
      <!-- 0.00 -->
      <g style="fill:#262626;" transform="translate(996.00875 618.454432)scale(0.24 -0.24)">
       <use xlink:href="#DejaVuSans-48"/>
       <use x="63.623047" xlink:href="#DejaVuSans-46"/>
       <use x="95.410156" xlink:href="#DejaVuSans-48"/>
       <use x="159.033203" xlink:href="#DejaVuSans-48"/>
      </g>
     </g>
    </g>
    <g id="ytick_8">
     <g id="line2d_27">
      <path clip-path="url(#pdab85cd46e)" d="M 93.70875 490.73267 
L 986.50875 490.73267 
" style="fill:none;stroke:#ffffff;stroke-linecap:round;"/>
     </g>
     <g id="line2d_28">
      <g>
       <use style="fill:#262626;stroke:#262626;stroke-width:1.25;" x="986.50875" xlink:href="#m93aa2126ea" y="490.73267"/>
      </g>
     </g>
     <g id="text_19">
      <!-- 0.06 -->
      <g style="fill:#262626;" transform="translate(996.00875 499.850795)scale(0.24 -0.24)">
       <use xlink:href="#DejaVuSans-48"/>
       <use x="63.623047" xlink:href="#DejaVuSans-46"/>
       <use x="95.410156" xlink:href="#DejaVuSans-48"/>
       <use x="159.033203" xlink:href="#DejaVuSans-54"/>
      </g>
     </g>
    </g>
    <g id="ytick_9">
     <g id="line2d_29">
      <path clip-path="url(#pdab85cd46e)" d="M 93.70875 372.129034 
L 986.50875 372.129034 
" style="fill:none;stroke:#ffffff;stroke-linecap:round;"/>
     </g>
     <g id="line2d_30">
      <g>
       <use style="fill:#262626;stroke:#262626;stroke-width:1.25;" x="986.50875" xlink:href="#m93aa2126ea" y="372.129034"/>
      </g>
     </g>
     <g id="text_20">
      <!-- 0.12 -->
      <g style="fill:#262626;" transform="translate(996.00875 381.247159)scale(0.24 -0.24)">
       <use xlink:href="#DejaVuSans-48"/>
       <use x="63.623047" xlink:href="#DejaVuSans-46"/>
       <use x="95.410156" xlink:href="#DejaVuSans-49"/>
       <use x="159.033203" xlink:href="#DejaVuSans-50"/>
      </g>
     </g>
    </g>
    <g id="ytick_10">
     <g id="line2d_31">
      <path clip-path="url(#pdab85cd46e)" d="M 93.70875 253.525398 
L 986.50875 253.525398 
" style="fill:none;stroke:#ffffff;stroke-linecap:round;"/>
     </g>
     <g id="line2d_32">
      <g>
       <use style="fill:#262626;stroke:#262626;stroke-width:1.25;" x="986.50875" xlink:href="#m93aa2126ea" y="253.525398"/>
      </g>
     </g>
     <g id="text_21">
      <!-- 0.18 -->
      <g style="fill:#262626;" transform="translate(996.00875 262.643523)scale(0.24 -0.24)">
       <use xlink:href="#DejaVuSans-48"/>
       <use x="63.623047" xlink:href="#DejaVuSans-46"/>
       <use x="95.410156" xlink:href="#DejaVuSans-49"/>
       <use x="159.033203" xlink:href="#DejaVuSans-56"/>
      </g>
     </g>
    </g>
    <g id="ytick_11">
     <g id="line2d_33">
      <path clip-path="url(#pdab85cd46e)" d="M 93.70875 134.921761 
L 986.50875 134.921761 
" style="fill:none;stroke:#ffffff;stroke-linecap:round;"/>
     </g>
     <g id="line2d_34">
      <g>
       <use style="fill:#262626;stroke:#262626;stroke-width:1.25;" x="986.50875" xlink:href="#m93aa2126ea" y="134.921761"/>
      </g>
     </g>
     <g id="text_22">
      <!-- 0.24 -->
      <g style="fill:#262626;" transform="translate(996.00875 144.039886)scale(0.24 -0.24)">
       <use xlink:href="#DejaVuSans-48"/>
       <use x="63.623047" xlink:href="#DejaVuSans-46"/>
       <use x="95.410156" xlink:href="#DejaVuSans-50"/>
       <use x="159.033203" xlink:href="#DejaVuSans-52"/>
      </g>
     </g>
    </g>
    <g id="ytick_12">
     <g id="line2d_35">
      <path clip-path="url(#pdab85cd46e)" d="M 93.70875 16.318125 
L 986.50875 16.318125 
" style="fill:none;stroke:#ffffff;stroke-linecap:round;"/>
     </g>
     <g id="line2d_36">
      <g>
       <use style="fill:#262626;stroke:#262626;stroke-width:1.25;" x="986.50875" xlink:href="#m93aa2126ea" y="16.318125"/>
      </g>
     </g>
     <g id="text_23">
      <!-- 0.30 -->
      <g style="fill:#262626;" transform="translate(996.00875 25.43625)scale(0.24 -0.24)">
       <defs>
        <path d="M 40.578125 39.3125 
Q 47.65625 37.796875 51.625 33 
Q 55.609375 28.21875 55.609375 21.1875 
Q 55.609375 10.40625 48.1875 4.484375 
Q 40.765625 -1.421875 27.09375 -1.421875 
Q 22.515625 -1.421875 17.65625 -0.515625 
Q 12.796875 0.390625 7.625 2.203125 
L 7.625 11.71875 
Q 11.71875 9.328125 16.59375 8.109375 
Q 21.484375 6.890625 26.8125 6.890625 
Q 36.078125 6.890625 40.9375 10.546875 
Q 45.796875 14.203125 45.796875 21.1875 
Q 45.796875 27.640625 41.28125 31.265625 
Q 36.765625 34.90625 28.71875 34.90625 
L 20.21875 34.90625 
L 20.21875 43.015625 
L 29.109375 43.015625 
Q 36.375 43.015625 40.234375 45.921875 
Q 44.09375 48.828125 44.09375 54.296875 
Q 44.09375 59.90625 40.109375 62.90625 
Q 36.140625 65.921875 28.71875 65.921875 
Q 24.65625 65.921875 20.015625 65.03125 
Q 15.375 64.15625 9.8125 62.3125 
L 9.8125 71.09375 
Q 15.4375 72.65625 20.34375 73.4375 
Q 25.25 74.21875 29.59375 74.21875 
Q 40.828125 74.21875 47.359375 69.109375 
Q 53.90625 64.015625 53.90625 55.328125 
Q 53.90625 49.265625 50.4375 45.09375 
Q 46.96875 40.921875 40.578125 39.3125 
z
" id="DejaVuSans-51"/>
       </defs>
       <use xlink:href="#DejaVuSans-48"/>
       <use x="63.623047" xlink:href="#DejaVuSans-46"/>
       <use x="95.410156" xlink:href="#DejaVuSans-51"/>
       <use x="159.033203" xlink:href="#DejaVuSans-48"/>
      </g>
     </g>
    </g>
    <g id="text_24">
     <!-- Loss (n.u.) -->
     <g style="fill:#262626;" transform="translate(1080.800625 435.9825)rotate(-90)scale(0.36 -0.36)">
      <use xlink:href="#DejaVuSans-76"/>
      <use x="53.962891" xlink:href="#DejaVuSans-111"/>
      <use x="115.144531" xlink:href="#DejaVuSans-115"/>
      <use x="167.244141" xlink:href="#DejaVuSans-115"/>
      <use x="219.34375" xlink:href="#DejaVuSans-32"/>
      <use x="251.130859" xlink:href="#DejaVuSans-40"/>
      <use x="290.144531" xlink:href="#DejaVuSans-110"/>
      <use x="353.523438" xlink:href="#DejaVuSans-46"/>
      <use x="385.310547" xlink:href="#DejaVuSans-117"/>
      <use x="448.689453" xlink:href="#DejaVuSans-46"/>
      <use x="480.476562" xlink:href="#DejaVuSans-41"/>
     </g>
    </g>
   </g>
   <g id="line2d_37">
    <path clip-path="url(#pdab85cd46e)" d="M 140.998307 70.630685 
L 154.413784 102.419154 
L 167.829261 137.805439 
L 181.244738 140.393196 
L 194.660215 165.056813 
L 208.075692 186.537672 
L 221.491169 191.812127 
L 234.906646 217.605983 
L 248.322123 215.359056 
L 261.7376 236.103468 
L 275.153078 249.50058 
L 288.568555 258.57197 
L 301.984032 253.742677 
L 308.69177 268.000774 
L 322.107247 273.470726 
L 328.814986 281.621484 
L 335.522724 282.027528 
L 348.938202 286.432338 
L 362.353679 289.293678 
L 375.769156 293.635011 
L 389.184633 288.595699 
L 402.60011 302.609964 
L 416.015587 303.200488 
L 429.431064 321.592257 
L 442.846541 320.44738 
L 456.262018 320.283577 
L 469.677495 351.536633 
L 483.092972 353.473423 
L 496.508449 362.483089 
L 509.923927 371.534303 
L 523.339404 383.855404 
L 536.754881 401.24704 
L 550.170358 410.627169 
L 563.585835 421.539751 
L 577.001312 438.470909 
L 590.416789 447.889536 
L 603.832266 449.798902 
L 617.247743 452.387941 
L 630.66322 462.113215 
L 644.078697 459.127101 
L 657.494174 468.619131 
L 670.909652 476.761053 
L 684.325129 473.715056 
L 697.740606 476.892704 
L 711.156083 487.534841 
L 724.57156 489.900289 
L 737.987037 491.528046 
L 751.402514 490.93937 
L 764.817991 496.497143 
L 778.233468 500.599061 
L 791.648945 498.990907 
L 805.064422 503.381534 
L 818.4799 504.559608 
L 831.895377 513.018883 
L 845.310854 513.970289 
L 858.726331 519.782808 
L 872.141808 516.814766 
L 885.557285 519.991361 
L 898.972762 519.229957 
L 912.388239 516.922647 
L 925.803716 522.467503 
L 939.219193 529.810517 
" style="fill:none;stroke:#dd8452;stroke-linecap:round;stroke-width:2.5;"/>
    <g clip-path="url(#pdab85cd46e)">
     <use style="fill:#dd8452;stroke:#dd8452;stroke-linejoin:miter;" x="140.998307" xlink:href="#m8c774713c5" y="70.630685"/>
     <use style="fill:#dd8452;stroke:#dd8452;stroke-linejoin:miter;" x="154.413784" xlink:href="#m8c774713c5" y="102.419154"/>
     <use style="fill:#dd8452;stroke:#dd8452;stroke-linejoin:miter;" x="167.829261" xlink:href="#m8c774713c5" y="137.805439"/>
     <use style="fill:#dd8452;stroke:#dd8452;stroke-linejoin:miter;" x="181.244738" xlink:href="#m8c774713c5" y="140.393196"/>
     <use style="fill:#dd8452;stroke:#dd8452;stroke-linejoin:miter;" x="194.660215" xlink:href="#m8c774713c5" y="165.056813"/>
     <use style="fill:#dd8452;stroke:#dd8452;stroke-linejoin:miter;" x="208.075692" xlink:href="#m8c774713c5" y="186.537672"/>
     <use style="fill:#dd8452;stroke:#dd8452;stroke-linejoin:miter;" x="221.491169" xlink:href="#m8c774713c5" y="191.812127"/>
     <use style="fill:#dd8452;stroke:#dd8452;stroke-linejoin:miter;" x="234.906646" xlink:href="#m8c774713c5" y="217.605983"/>
     <use style="fill:#dd8452;stroke:#dd8452;stroke-linejoin:miter;" x="248.322123" xlink:href="#m8c774713c5" y="215.359056"/>
     <use style="fill:#dd8452;stroke:#dd8452;stroke-linejoin:miter;" x="261.7376" xlink:href="#m8c774713c5" y="236.103468"/>
     <use style="fill:#dd8452;stroke:#dd8452;stroke-linejoin:miter;" x="275.153078" xlink:href="#m8c774713c5" y="249.50058"/>
     <use style="fill:#dd8452;stroke:#dd8452;stroke-linejoin:miter;" x="288.568555" xlink:href="#m8c774713c5" y="258.57197"/>
     <use style="fill:#dd8452;stroke:#dd8452;stroke-linejoin:miter;" x="301.984032" xlink:href="#m8c774713c5" y="253.742677"/>
     <use style="fill:#dd8452;stroke:#dd8452;stroke-linejoin:miter;" x="308.69177" xlink:href="#m8c774713c5" y="268.000774"/>
     <use style="fill:#dd8452;stroke:#dd8452;stroke-linejoin:miter;" x="322.107247" xlink:href="#m8c774713c5" y="273.470726"/>
     <use style="fill:#dd8452;stroke:#dd8452;stroke-linejoin:miter;" x="328.814986" xlink:href="#m8c774713c5" y="281.621484"/>
     <use style="fill:#dd8452;stroke:#dd8452;stroke-linejoin:miter;" x="335.522724" xlink:href="#m8c774713c5" y="282.027528"/>
     <use style="fill:#dd8452;stroke:#dd8452;stroke-linejoin:miter;" x="348.938202" xlink:href="#m8c774713c5" y="286.432338"/>
     <use style="fill:#dd8452;stroke:#dd8452;stroke-linejoin:miter;" x="362.353679" xlink:href="#m8c774713c5" y="289.293678"/>
     <use style="fill:#dd8452;stroke:#dd8452;stroke-linejoin:miter;" x="375.769156" xlink:href="#m8c774713c5" y="293.635011"/>
     <use style="fill:#dd8452;stroke:#dd8452;stroke-linejoin:miter;" x="389.184633" xlink:href="#m8c774713c5" y="288.595699"/>
     <use style="fill:#dd8452;stroke:#dd8452;stroke-linejoin:miter;" x="402.60011" xlink:href="#m8c774713c5" y="302.609964"/>
     <use style="fill:#dd8452;stroke:#dd8452;stroke-linejoin:miter;" x="416.015587" xlink:href="#m8c774713c5" y="303.200488"/>
     <use style="fill:#dd8452;stroke:#dd8452;stroke-linejoin:miter;" x="429.431064" xlink:href="#m8c774713c5" y="321.592257"/>
     <use style="fill:#dd8452;stroke:#dd8452;stroke-linejoin:miter;" x="442.846541" xlink:href="#m8c774713c5" y="320.44738"/>
     <use style="fill:#dd8452;stroke:#dd8452;stroke-linejoin:miter;" x="456.262018" xlink:href="#m8c774713c5" y="320.283577"/>
     <use style="fill:#dd8452;stroke:#dd8452;stroke-linejoin:miter;" x="469.677495" xlink:href="#m8c774713c5" y="351.536633"/>
     <use style="fill:#dd8452;stroke:#dd8452;stroke-linejoin:miter;" x="483.092972" xlink:href="#m8c774713c5" y="353.473423"/>
     <use style="fill:#dd8452;stroke:#dd8452;stroke-linejoin:miter;" x="496.508449" xlink:href="#m8c774713c5" y="362.483089"/>
     <use style="fill:#dd8452;stroke:#dd8452;stroke-linejoin:miter;" x="509.923927" xlink:href="#m8c774713c5" y="371.534303"/>
     <use style="fill:#dd8452;stroke:#dd8452;stroke-linejoin:miter;" x="523.339404" xlink:href="#m8c774713c5" y="383.855404"/>
     <use style="fill:#dd8452;stroke:#dd8452;stroke-linejoin:miter;" x="536.754881" xlink:href="#m8c774713c5" y="401.24704"/>
     <use style="fill:#dd8452;stroke:#dd8452;stroke-linejoin:miter;" x="550.170358" xlink:href="#m8c774713c5" y="410.627169"/>
     <use style="fill:#dd8452;stroke:#dd8452;stroke-linejoin:miter;" x="563.585835" xlink:href="#m8c774713c5" y="421.539751"/>
     <use style="fill:#dd8452;stroke:#dd8452;stroke-linejoin:miter;" x="577.001312" xlink:href="#m8c774713c5" y="438.470909"/>
     <use style="fill:#dd8452;stroke:#dd8452;stroke-linejoin:miter;" x="590.416789" xlink:href="#m8c774713c5" y="447.889536"/>
     <use style="fill:#dd8452;stroke:#dd8452;stroke-linejoin:miter;" x="603.832266" xlink:href="#m8c774713c5" y="449.798902"/>
     <use style="fill:#dd8452;stroke:#dd8452;stroke-linejoin:miter;" x="617.247743" xlink:href="#m8c774713c5" y="452.387941"/>
     <use style="fill:#dd8452;stroke:#dd8452;stroke-linejoin:miter;" x="630.66322" xlink:href="#m8c774713c5" y="462.113215"/>
     <use style="fill:#dd8452;stroke:#dd8452;stroke-linejoin:miter;" x="644.078697" xlink:href="#m8c774713c5" y="459.127101"/>
     <use style="fill:#dd8452;stroke:#dd8452;stroke-linejoin:miter;" x="657.494174" xlink:href="#m8c774713c5" y="468.619131"/>
     <use style="fill:#dd8452;stroke:#dd8452;stroke-linejoin:miter;" x="670.909652" xlink:href="#m8c774713c5" y="476.761053"/>
     <use style="fill:#dd8452;stroke:#dd8452;stroke-linejoin:miter;" x="684.325129" xlink:href="#m8c774713c5" y="473.715056"/>
     <use style="fill:#dd8452;stroke:#dd8452;stroke-linejoin:miter;" x="697.740606" xlink:href="#m8c774713c5" y="476.892704"/>
     <use style="fill:#dd8452;stroke:#dd8452;stroke-linejoin:miter;" x="711.156083" xlink:href="#m8c774713c5" y="487.534841"/>
     <use style="fill:#dd8452;stroke:#dd8452;stroke-linejoin:miter;" x="724.57156" xlink:href="#m8c774713c5" y="489.900289"/>
     <use style="fill:#dd8452;stroke:#dd8452;stroke-linejoin:miter;" x="737.987037" xlink:href="#m8c774713c5" y="491.528046"/>
     <use style="fill:#dd8452;stroke:#dd8452;stroke-linejoin:miter;" x="751.402514" xlink:href="#m8c774713c5" y="490.93937"/>
     <use style="fill:#dd8452;stroke:#dd8452;stroke-linejoin:miter;" x="764.817991" xlink:href="#m8c774713c5" y="496.497143"/>
     <use style="fill:#dd8452;stroke:#dd8452;stroke-linejoin:miter;" x="778.233468" xlink:href="#m8c774713c5" y="500.599061"/>
     <use style="fill:#dd8452;stroke:#dd8452;stroke-linejoin:miter;" x="791.648945" xlink:href="#m8c774713c5" y="498.990907"/>
     <use style="fill:#dd8452;stroke:#dd8452;stroke-linejoin:miter;" x="805.064422" xlink:href="#m8c774713c5" y="503.381534"/>
     <use style="fill:#dd8452;stroke:#dd8452;stroke-linejoin:miter;" x="818.4799" xlink:href="#m8c774713c5" y="504.559608"/>
     <use style="fill:#dd8452;stroke:#dd8452;stroke-linejoin:miter;" x="831.895377" xlink:href="#m8c774713c5" y="513.018883"/>
     <use style="fill:#dd8452;stroke:#dd8452;stroke-linejoin:miter;" x="845.310854" xlink:href="#m8c774713c5" y="513.970289"/>
     <use style="fill:#dd8452;stroke:#dd8452;stroke-linejoin:miter;" x="858.726331" xlink:href="#m8c774713c5" y="519.782808"/>
     <use style="fill:#dd8452;stroke:#dd8452;stroke-linejoin:miter;" x="872.141808" xlink:href="#m8c774713c5" y="516.814766"/>
     <use style="fill:#dd8452;stroke:#dd8452;stroke-linejoin:miter;" x="885.557285" xlink:href="#m8c774713c5" y="519.991361"/>
     <use style="fill:#dd8452;stroke:#dd8452;stroke-linejoin:miter;" x="898.972762" xlink:href="#m8c774713c5" y="519.229957"/>
     <use style="fill:#dd8452;stroke:#dd8452;stroke-linejoin:miter;" x="912.388239" xlink:href="#m8c774713c5" y="516.922647"/>
     <use style="fill:#dd8452;stroke:#dd8452;stroke-linejoin:miter;" x="925.803716" xlink:href="#m8c774713c5" y="522.467503"/>
     <use style="fill:#dd8452;stroke:#dd8452;stroke-linejoin:miter;" x="939.219193" xlink:href="#m8c774713c5" y="529.810517"/>
    </g>
   </g>
   <g id="patch_8">
    <path d="M 93.70875 668.638125 
L 93.70875 16.318125 
" style="fill:none;stroke:#ffffff;stroke-linecap:square;stroke-linejoin:miter;stroke-width:1.25;"/>
   </g>
   <g id="patch_9">
    <path d="M 986.50875 668.638125 
L 986.50875 16.318125 
" style="fill:none;stroke:#ffffff;stroke-linecap:square;stroke-linejoin:miter;stroke-width:1.25;"/>
   </g>
   <g id="patch_10">
    <path d="M 93.70875 668.638125 
L 986.50875 668.638125 
" style="fill:none;stroke:#ffffff;stroke-linecap:square;stroke-linejoin:miter;stroke-width:1.25;"/>
   </g>
   <g id="patch_11">
    <path d="M 93.70875 16.318125 
L 986.50875 16.318125 
" style="fill:none;stroke:#ffffff;stroke-linecap:square;stroke-linejoin:miter;stroke-width:1.25;"/>
   </g>
  </g>
 </g>
 <defs>
  <clipPath id="pdab85cd46e">
   <rect height="652.32" width="892.8" x="93.70875" y="16.318125"/>
  </clipPath>
 </defs>
</svg>
