<?xml version="1.0" encoding="utf-8" standalone="no"?>
<!DOCTYPE svg PUBLIC "-//W3C//DTD SVG 1.1//EN"
  "http://www.w3.org/Graphics/SVG/1.1/DTD/svg11.dtd">
<!-- Created with matplotlib (https://matplotlib.org/) -->
<svg height="747.406875pt" version="1.1" viewBox="0 0 1095.4875 747.406875" width="1095.4875pt" xmlns="http://www.w3.org/2000/svg" xmlns:xlink="http://www.w3.org/1999/xlink">
 <metadata>
  <rdf:RDF xmlns:cc="http://creativecommons.org/ns#" xmlns:dc="http://purl.org/dc/elements/1.1/" xmlns:rdf="http://www.w3.org/1999/02/22-rdf-syntax-ns#">
   <cc:Work>
    <dc:type rdf:resource="http://purl.org/dc/dcmitype/StillImage"/>
    <dc:date>2022-03-30T15:45:23.128158</dc:date>
    <dc:format>image/svg+xml</dc:format>
    <dc:creator>
     <cc:Agent>
      <dc:title>Matplotlib v3.3.4, https://matplotlib.org/</dc:title>
     </cc:Agent>
    </dc:creator>
   </cc:Work>
  </rdf:RDF>
 </metadata>
 <defs>
  <style type="text/css">*{stroke-linecap:butt;stroke-linejoin:round;}</style>
 </defs>
 <g id="figure_1">
  <g id="patch_1">
   <path d="M 0 747.406875 
L 1095.4875 747.406875 
L 1095.4875 0 
L 0 0 
z
" style="fill:#ffffff;"/>
  </g>
  <g id="axes_1">
   <g id="patch_2">
    <path d="M 93.70875 668.638125 
L 986.50875 668.638125 
L 986.50875 16.318125 
L 93.70875 16.318125 
z
" style="fill:#eaeaf2;"/>
   </g>
   <g id="matplotlib.axis_1">
    <g id="xtick_1">
     <g id="line2d_1">
      <path clip-path="url(#pc3cc051011)" d="M 134.290568 668.638125 
L 134.290568 16.318125 
" style="fill:none;stroke:#ffffff;stroke-linecap:round;"/>
     </g>
     <g id="text_1">
      <!-- 0 -->
      <g style="fill:#262626;" transform="translate(126.655568 696.374375)scale(0.24 -0.24)">
       <defs>
        <path d="M 31.78125 66.40625 
Q 24.171875 66.40625 20.328125 58.90625 
Q 16.5 51.421875 16.5 36.375 
Q 16.5 21.390625 20.328125 13.890625 
Q 24.171875 6.390625 31.78125 6.390625 
Q 39.453125 6.390625 43.28125 13.890625 
Q 47.125 21.390625 47.125 36.375 
Q 47.125 51.421875 43.28125 58.90625 
Q 39.453125 66.40625 31.78125 66.40625 
z
M 31.78125 74.21875 
Q 44.046875 74.21875 50.515625 64.515625 
Q 56.984375 54.828125 56.984375 36.375 
Q 56.984375 17.96875 50.515625 8.265625 
Q 44.046875 -1.421875 31.78125 -1.421875 
Q 19.53125 -1.421875 13.0625 8.265625 
Q 6.59375 17.96875 6.59375 36.375 
Q 6.59375 54.828125 13.0625 64.515625 
Q 19.53125 74.21875 31.78125 74.21875 
z
" id="DejaVuSans-48"/>
       </defs>
       <use xlink:href="#DejaVuSans-48"/>
      </g>
     </g>
    </g>
    <g id="xtick_2">
     <g id="line2d_2">
      <path clip-path="url(#pc3cc051011)" d="M 259.157701 668.638125 
L 259.157701 16.318125 
" style="fill:none;stroke:#ffffff;stroke-linecap:round;"/>
     </g>
     <g id="text_2">
      <!-- 20 -->
      <g style="fill:#262626;" transform="translate(243.887701 696.374375)scale(0.24 -0.24)">
       <defs>
        <path d="M 19.1875 8.296875 
L 53.609375 8.296875 
L 53.609375 0 
L 7.328125 0 
L 7.328125 8.296875 
Q 12.9375 14.109375 22.625 23.890625 
Q 32.328125 33.6875 34.8125 36.53125 
Q 39.546875 41.84375 41.421875 45.53125 
Q 43.3125 49.21875 43.3125 52.78125 
Q 43.3125 58.59375 39.234375 62.25 
Q 35.15625 65.921875 28.609375 65.921875 
Q 23.96875 65.921875 18.8125 64.3125 
Q 13.671875 62.703125 7.8125 59.421875 
L 7.8125 69.390625 
Q 13.765625 71.78125 18.9375 73 
Q 24.125 74.21875 28.421875 74.21875 
Q 39.75 74.21875 46.484375 68.546875 
Q 53.21875 62.890625 53.21875 53.421875 
Q 53.21875 48.921875 51.53125 44.890625 
Q 49.859375 40.875 45.40625 35.40625 
Q 44.1875 33.984375 37.640625 27.21875 
Q 31.109375 20.453125 19.1875 8.296875 
z
" id="DejaVuSans-50"/>
       </defs>
       <use xlink:href="#DejaVuSans-50"/>
       <use x="63.623047" xlink:href="#DejaVuSans-48"/>
      </g>
     </g>
    </g>
    <g id="xtick_3">
     <g id="line2d_3">
      <path clip-path="url(#pc3cc051011)" d="M 384.024834 668.638125 
L 384.024834 16.318125 
" style="fill:none;stroke:#ffffff;stroke-linecap:round;"/>
     </g>
     <g id="text_3">
      <!-- 40 -->
      <g style="fill:#262626;" transform="translate(368.754834 696.374375)scale(0.24 -0.24)">
       <defs>
        <path d="M 37.796875 64.3125 
L 12.890625 25.390625 
L 37.796875 25.390625 
z
M 35.203125 72.90625 
L 47.609375 72.90625 
L 47.609375 25.390625 
L 58.015625 25.390625 
L 58.015625 17.1875 
L 47.609375 17.1875 
L 47.609375 0 
L 37.796875 0 
L 37.796875 17.1875 
L 4.890625 17.1875 
L 4.890625 26.703125 
z
" id="DejaVuSans-52"/>
       </defs>
       <use xlink:href="#DejaVuSans-52"/>
       <use x="63.623047" xlink:href="#DejaVuSans-48"/>
      </g>
     </g>
    </g>
    <g id="xtick_4">
     <g id="line2d_4">
      <path clip-path="url(#pc3cc051011)" d="M 508.891967 668.638125 
L 508.891967 16.318125 
" style="fill:none;stroke:#ffffff;stroke-linecap:round;"/>
     </g>
     <g id="text_4">
      <!-- 60 -->
      <g style="fill:#262626;" transform="translate(493.621967 696.374375)scale(0.24 -0.24)">
       <defs>
        <path d="M 33.015625 40.375 
Q 26.375 40.375 22.484375 35.828125 
Q 18.609375 31.296875 18.609375 23.390625 
Q 18.609375 15.53125 22.484375 10.953125 
Q 26.375 6.390625 33.015625 6.390625 
Q 39.65625 6.390625 43.53125 10.953125 
Q 47.40625 15.53125 47.40625 23.390625 
Q 47.40625 31.296875 43.53125 35.828125 
Q 39.65625 40.375 33.015625 40.375 
z
M 52.59375 71.296875 
L 52.59375 62.3125 
Q 48.875 64.0625 45.09375 64.984375 
Q 41.3125 65.921875 37.59375 65.921875 
Q 27.828125 65.921875 22.671875 59.328125 
Q 17.53125 52.734375 16.796875 39.40625 
Q 19.671875 43.65625 24.015625 45.921875 
Q 28.375 48.1875 33.59375 48.1875 
Q 44.578125 48.1875 50.953125 41.515625 
Q 57.328125 34.859375 57.328125 23.390625 
Q 57.328125 12.15625 50.6875 5.359375 
Q 44.046875 -1.421875 33.015625 -1.421875 
Q 20.359375 -1.421875 13.671875 8.265625 
Q 6.984375 17.96875 6.984375 36.375 
Q 6.984375 53.65625 15.1875 63.9375 
Q 23.390625 74.21875 37.203125 74.21875 
Q 40.921875 74.21875 44.703125 73.484375 
Q 48.484375 72.75 52.59375 71.296875 
z
" id="DejaVuSans-54"/>
       </defs>
       <use xlink:href="#DejaVuSans-54"/>
       <use x="63.623047" xlink:href="#DejaVuSans-48"/>
      </g>
     </g>
    </g>
    <g id="xtick_5">
     <g id="line2d_5">
      <path clip-path="url(#pc3cc051011)" d="M 633.7591 668.638125 
L 633.7591 16.318125 
" style="fill:none;stroke:#ffffff;stroke-linecap:round;"/>
     </g>
     <g id="text_5">
      <!-- 80 -->
      <g style="fill:#262626;" transform="translate(618.4891 696.374375)scale(0.24 -0.24)">
       <defs>
        <path d="M 31.78125 34.625 
Q 24.75 34.625 20.71875 30.859375 
Q 16.703125 27.09375 16.703125 20.515625 
Q 16.703125 13.921875 20.71875 10.15625 
Q 24.75 6.390625 31.78125 6.390625 
Q 38.8125 6.390625 42.859375 10.171875 
Q 46.921875 13.96875 46.921875 20.515625 
Q 46.921875 27.09375 42.890625 30.859375 
Q 38.875 34.625 31.78125 34.625 
z
M 21.921875 38.8125 
Q 15.578125 40.375 12.03125 44.71875 
Q 8.5 49.078125 8.5 55.328125 
Q 8.5 64.0625 14.71875 69.140625 
Q 20.953125 74.21875 31.78125 74.21875 
Q 42.671875 74.21875 48.875 69.140625 
Q 55.078125 64.0625 55.078125 55.328125 
Q 55.078125 49.078125 51.53125 44.71875 
Q 48 40.375 41.703125 38.8125 
Q 48.828125 37.15625 52.796875 32.3125 
Q 56.78125 27.484375 56.78125 20.515625 
Q 56.78125 9.90625 50.3125 4.234375 
Q 43.84375 -1.421875 31.78125 -1.421875 
Q 19.734375 -1.421875 13.25 4.234375 
Q 6.78125 9.90625 6.78125 20.515625 
Q 6.78125 27.484375 10.78125 32.3125 
Q 14.796875 37.15625 21.921875 38.8125 
z
M 18.3125 54.390625 
Q 18.3125 48.734375 21.84375 45.5625 
Q 25.390625 42.390625 31.78125 42.390625 
Q 38.140625 42.390625 41.71875 45.5625 
Q 45.3125 48.734375 45.3125 54.390625 
Q 45.3125 60.0625 41.71875 63.234375 
Q 38.140625 66.40625 31.78125 66.40625 
Q 25.390625 66.40625 21.84375 63.234375 
Q 18.3125 60.0625 18.3125 54.390625 
z
" id="DejaVuSans-56"/>
       </defs>
       <use xlink:href="#DejaVuSans-56"/>
       <use x="63.623047" xlink:href="#DejaVuSans-48"/>
      </g>
     </g>
    </g>
    <g id="xtick_6">
     <g id="line2d_6">
      <path clip-path="url(#pc3cc051011)" d="M 758.626233 668.638125 
L 758.626233 16.318125 
" style="fill:none;stroke:#ffffff;stroke-linecap:round;"/>
     </g>
     <g id="text_6">
      <!-- 100 -->
      <g style="fill:#262626;" transform="translate(735.721233 696.374375)scale(0.24 -0.24)">
       <defs>
        <path d="M 12.40625 8.296875 
L 28.515625 8.296875 
L 28.515625 63.921875 
L 10.984375 60.40625 
L 10.984375 69.390625 
L 28.421875 72.90625 
L 38.28125 72.90625 
L 38.28125 8.296875 
L 54.390625 8.296875 
L 54.390625 0 
L 12.40625 0 
z
" id="DejaVuSans-49"/>
       </defs>
       <use xlink:href="#DejaVuSans-49"/>
       <use x="63.623047" xlink:href="#DejaVuSans-48"/>
       <use x="127.246094" xlink:href="#DejaVuSans-48"/>
      </g>
     </g>
    </g>
    <g id="xtick_7">
     <g id="line2d_7">
      <path clip-path="url(#pc3cc051011)" d="M 883.493365 668.638125 
L 883.493365 16.318125 
" style="fill:none;stroke:#ffffff;stroke-linecap:round;"/>
     </g>
     <g id="text_7">
      <!-- 120 -->
      <g style="fill:#262626;" transform="translate(860.588365 696.374375)scale(0.24 -0.24)">
       <use xlink:href="#DejaVuSans-49"/>
       <use x="63.623047" xlink:href="#DejaVuSans-50"/>
       <use x="127.246094" xlink:href="#DejaVuSans-48"/>
      </g>
     </g>
    </g>
    <g id="text_8">
     <!-- Epochs (n.u.) -->
     <g style="fill:#262626;" transform="translate(421.59 732.72)scale(0.36 -0.36)">
      <defs>
       <path d="M 9.8125 72.90625 
L 55.90625 72.90625 
L 55.90625 64.59375 
L 19.671875 64.59375 
L 19.671875 43.015625 
L 54.390625 43.015625 
L 54.390625 34.71875 
L 19.671875 34.71875 
L 19.671875 8.296875 
L 56.78125 8.296875 
L 56.78125 0 
L 9.8125 0 
z
" id="DejaVuSans-69"/>
       <path d="M 18.109375 8.203125 
L 18.109375 -20.796875 
L 9.078125 -20.796875 
L 9.078125 54.6875 
L 18.109375 54.6875 
L 18.109375 46.390625 
Q 20.953125 51.265625 25.265625 53.625 
Q 29.59375 56 35.59375 56 
Q 45.5625 56 51.78125 48.09375 
Q 58.015625 40.1875 58.015625 27.296875 
Q 58.015625 14.40625 51.78125 6.484375 
Q 45.5625 -1.421875 35.59375 -1.421875 
Q 29.59375 -1.421875 25.265625 0.953125 
Q 20.953125 3.328125 18.109375 8.203125 
z
M 48.6875 27.296875 
Q 48.6875 37.203125 44.609375 42.84375 
Q 40.53125 48.484375 33.40625 48.484375 
Q 26.265625 48.484375 22.1875 42.84375 
Q 18.109375 37.203125 18.109375 27.296875 
Q 18.109375 17.390625 22.1875 11.75 
Q 26.265625 6.109375 33.40625 6.109375 
Q 40.53125 6.109375 44.609375 11.75 
Q 48.6875 17.390625 48.6875 27.296875 
z
" id="DejaVuSans-112"/>
       <path d="M 30.609375 48.390625 
Q 23.390625 48.390625 19.1875 42.75 
Q 14.984375 37.109375 14.984375 27.296875 
Q 14.984375 17.484375 19.15625 11.84375 
Q 23.34375 6.203125 30.609375 6.203125 
Q 37.796875 6.203125 41.984375 11.859375 
Q 46.1875 17.53125 46.1875 27.296875 
Q 46.1875 37.015625 41.984375 42.703125 
Q 37.796875 48.390625 30.609375 48.390625 
z
M 30.609375 56 
Q 42.328125 56 49.015625 48.375 
Q 55.71875 40.765625 55.71875 27.296875 
Q 55.71875 13.875 49.015625 6.21875 
Q 42.328125 -1.421875 30.609375 -1.421875 
Q 18.84375 -1.421875 12.171875 6.21875 
Q 5.515625 13.875 5.515625 27.296875 
Q 5.515625 40.765625 12.171875 48.375 
Q 18.84375 56 30.609375 56 
z
" id="DejaVuSans-111"/>
       <path d="M 48.78125 52.59375 
L 48.78125 44.1875 
Q 44.96875 46.296875 41.140625 47.34375 
Q 37.3125 48.390625 33.40625 48.390625 
Q 24.65625 48.390625 19.8125 42.84375 
Q 14.984375 37.3125 14.984375 27.296875 
Q 14.984375 17.28125 19.8125 11.734375 
Q 24.65625 6.203125 33.40625 6.203125 
Q 37.3125 6.203125 41.140625 7.25 
Q 44.96875 8.296875 48.78125 10.40625 
L 48.78125 2.09375 
Q 45.015625 0.34375 40.984375 -0.53125 
Q 36.96875 -1.421875 32.421875 -1.421875 
Q 20.0625 -1.421875 12.78125 6.34375 
Q 5.515625 14.109375 5.515625 27.296875 
Q 5.515625 40.671875 12.859375 48.328125 
Q 20.21875 56 33.015625 56 
Q 37.15625 56 41.109375 55.140625 
Q 45.0625 54.296875 48.78125 52.59375 
z
" id="DejaVuSans-99"/>
       <path d="M 54.890625 33.015625 
L 54.890625 0 
L 45.90625 0 
L 45.90625 32.71875 
Q 45.90625 40.484375 42.875 44.328125 
Q 39.84375 48.1875 33.796875 48.1875 
Q 26.515625 48.1875 22.3125 43.546875 
Q 18.109375 38.921875 18.109375 30.90625 
L 18.109375 0 
L 9.078125 0 
L 9.078125 75.984375 
L 18.109375 75.984375 
L 18.109375 46.1875 
Q 21.34375 51.125 25.703125 53.5625 
Q 30.078125 56 35.796875 56 
Q 45.21875 56 50.046875 50.171875 
Q 54.890625 44.34375 54.890625 33.015625 
z
" id="DejaVuSans-104"/>
       <path d="M 44.28125 53.078125 
L 44.28125 44.578125 
Q 40.484375 46.53125 36.375 47.5 
Q 32.28125 48.484375 27.875 48.484375 
Q 21.1875 48.484375 17.84375 46.4375 
Q 14.5 44.390625 14.5 40.28125 
Q 14.5 37.15625 16.890625 35.375 
Q 19.28125 33.59375 26.515625 31.984375 
L 29.59375 31.296875 
Q 39.15625 29.25 43.1875 25.515625 
Q 47.21875 21.78125 47.21875 15.09375 
Q 47.21875 7.46875 41.1875 3.015625 
Q 35.15625 -1.421875 24.609375 -1.421875 
Q 20.21875 -1.421875 15.453125 -0.5625 
Q 10.6875 0.296875 5.421875 2 
L 5.421875 11.28125 
Q 10.40625 8.6875 15.234375 7.390625 
Q 20.0625 6.109375 24.8125 6.109375 
Q 31.15625 6.109375 34.5625 8.28125 
Q 37.984375 10.453125 37.984375 14.40625 
Q 37.984375 18.0625 35.515625 20.015625 
Q 33.0625 21.96875 24.703125 23.78125 
L 21.578125 24.515625 
Q 13.234375 26.265625 9.515625 29.90625 
Q 5.8125 33.546875 5.8125 39.890625 
Q 5.8125 47.609375 11.28125 51.796875 
Q 16.75 56 26.8125 56 
Q 31.78125 56 36.171875 55.265625 
Q 40.578125 54.546875 44.28125 53.078125 
z
" id="DejaVuSans-115"/>
       <path id="DejaVuSans-32"/>
       <path d="M 31 75.875 
Q 24.46875 64.65625 21.28125 53.65625 
Q 18.109375 42.671875 18.109375 31.390625 
Q 18.109375 20.125 21.3125 9.0625 
Q 24.515625 -2 31 -13.1875 
L 23.1875 -13.1875 
Q 15.875 -1.703125 12.234375 9.375 
Q 8.59375 20.453125 8.59375 31.390625 
Q 8.59375 42.28125 12.203125 53.3125 
Q 15.828125 64.359375 23.1875 75.875 
z
" id="DejaVuSans-40"/>
       <path d="M 54.890625 33.015625 
L 54.890625 0 
L 45.90625 0 
L 45.90625 32.71875 
Q 45.90625 40.484375 42.875 44.328125 
Q 39.84375 48.1875 33.796875 48.1875 
Q 26.515625 48.1875 22.3125 43.546875 
Q 18.109375 38.921875 18.109375 30.90625 
L 18.109375 0 
L 9.078125 0 
L 9.078125 54.6875 
L 18.109375 54.6875 
L 18.109375 46.1875 
Q 21.34375 51.125 25.703125 53.5625 
Q 30.078125 56 35.796875 56 
Q 45.21875 56 50.046875 50.171875 
Q 54.890625 44.34375 54.890625 33.015625 
z
" id="DejaVuSans-110"/>
       <path d="M 10.6875 12.40625 
L 21 12.40625 
L 21 0 
L 10.6875 0 
z
" id="DejaVuSans-46"/>
       <path d="M 8.5 21.578125 
L 8.5 54.6875 
L 17.484375 54.6875 
L 17.484375 21.921875 
Q 17.484375 14.15625 20.5 10.265625 
Q 23.53125 6.390625 29.59375 6.390625 
Q 36.859375 6.390625 41.078125 11.03125 
Q 45.3125 15.671875 45.3125 23.6875 
L 45.3125 54.6875 
L 54.296875 54.6875 
L 54.296875 0 
L 45.3125 0 
L 45.3125 8.40625 
Q 42.046875 3.421875 37.71875 1 
Q 33.40625 -1.421875 27.6875 -1.421875 
Q 18.265625 -1.421875 13.375 4.4375 
Q 8.5 10.296875 8.5 21.578125 
z
M 31.109375 56 
z
" id="DejaVuSans-117"/>
       <path d="M 8.015625 75.875 
L 15.828125 75.875 
Q 23.140625 64.359375 26.78125 53.3125 
Q 30.421875 42.28125 30.421875 31.390625 
Q 30.421875 20.453125 26.78125 9.375 
Q 23.140625 -1.703125 15.828125 -13.1875 
L 8.015625 -13.1875 
Q 14.5 -2 17.703125 9.0625 
Q 20.90625 20.125 20.90625 31.390625 
Q 20.90625 42.671875 17.703125 53.65625 
Q 14.5 64.65625 8.015625 75.875 
z
" id="DejaVuSans-41"/>
      </defs>
      <use xlink:href="#DejaVuSans-69"/>
      <use x="63.183594" xlink:href="#DejaVuSans-112"/>
      <use x="126.660156" xlink:href="#DejaVuSans-111"/>
      <use x="187.841797" xlink:href="#DejaVuSans-99"/>
      <use x="242.822266" xlink:href="#DejaVuSans-104"/>
      <use x="306.201172" xlink:href="#DejaVuSans-115"/>
      <use x="358.300781" xlink:href="#DejaVuSans-32"/>
      <use x="390.087891" xlink:href="#DejaVuSans-40"/>
      <use x="429.101562" xlink:href="#DejaVuSans-110"/>
      <use x="492.480469" xlink:href="#DejaVuSans-46"/>
      <use x="524.267578" xlink:href="#DejaVuSans-117"/>
      <use x="587.646484" xlink:href="#DejaVuSans-46"/>
      <use x="619.433594" xlink:href="#DejaVuSans-41"/>
     </g>
    </g>
   </g>
   <g id="matplotlib.axis_2">
    <g id="ytick_1">
     <g id="line2d_8">
      <path clip-path="url(#pc3cc051011)" d="M 93.70875 609.336307 
L 986.50875 609.336307 
" style="fill:none;stroke:#ffffff;stroke-linecap:round;"/>
     </g>
     <g id="line2d_9">
      <defs>
       <path d="M 0 0 
L -6 0 
" id="mfccdae884f" style="stroke:#262626;stroke-width:1.25;"/>
      </defs>
      <g>
       <use style="fill:#262626;stroke:#262626;stroke-width:1.25;" x="93.70875" xlink:href="#mfccdae884f" y="609.336307"/>
      </g>
     </g>
     <g id="text_9">
      <!-- 0.0 -->
      <g style="fill:#262626;" transform="translate(46.04125 618.454432)scale(0.24 -0.24)">
       <use xlink:href="#DejaVuSans-48"/>
       <use x="63.623047" xlink:href="#DejaVuSans-46"/>
       <use x="95.410156" xlink:href="#DejaVuSans-48"/>
      </g>
     </g>
    </g>
    <g id="ytick_2">
     <g id="line2d_10">
      <path clip-path="url(#pc3cc051011)" d="M 93.70875 490.73267 
L 986.50875 490.73267 
" style="fill:none;stroke:#ffffff;stroke-linecap:round;"/>
     </g>
     <g id="line2d_11">
      <g>
       <use style="fill:#262626;stroke:#262626;stroke-width:1.25;" x="93.70875" xlink:href="#mfccdae884f" y="490.73267"/>
      </g>
     </g>
     <g id="text_10">
      <!-- 0.2 -->
      <g style="fill:#262626;" transform="translate(46.04125 499.850795)scale(0.24 -0.24)">
       <use xlink:href="#DejaVuSans-48"/>
       <use x="63.623047" xlink:href="#DejaVuSans-46"/>
       <use x="95.410156" xlink:href="#DejaVuSans-50"/>
      </g>
     </g>
    </g>
    <g id="ytick_3">
     <g id="line2d_12">
      <path clip-path="url(#pc3cc051011)" d="M 93.70875 372.129034 
L 986.50875 372.129034 
" style="fill:none;stroke:#ffffff;stroke-linecap:round;"/>
     </g>
     <g id="line2d_13">
      <g>
       <use style="fill:#262626;stroke:#262626;stroke-width:1.25;" x="93.70875" xlink:href="#mfccdae884f" y="372.129034"/>
      </g>
     </g>
     <g id="text_11">
      <!-- 0.4 -->
      <g style="fill:#262626;" transform="translate(46.04125 381.247159)scale(0.24 -0.24)">
       <use xlink:href="#DejaVuSans-48"/>
       <use x="63.623047" xlink:href="#DejaVuSans-46"/>
       <use x="95.410156" xlink:href="#DejaVuSans-52"/>
      </g>
     </g>
    </g>
    <g id="ytick_4">
     <g id="line2d_14">
      <path clip-path="url(#pc3cc051011)" d="M 93.70875 253.525398 
L 986.50875 253.525398 
" style="fill:none;stroke:#ffffff;stroke-linecap:round;"/>
     </g>
     <g id="line2d_15">
      <g>
       <use style="fill:#262626;stroke:#262626;stroke-width:1.25;" x="93.70875" xlink:href="#mfccdae884f" y="253.525398"/>
      </g>
     </g>
     <g id="text_12">
      <!-- 0.6 -->
      <g style="fill:#262626;" transform="translate(46.04125 262.643523)scale(0.24 -0.24)">
       <use xlink:href="#DejaVuSans-48"/>
       <use x="63.623047" xlink:href="#DejaVuSans-46"/>
       <use x="95.410156" xlink:href="#DejaVuSans-54"/>
      </g>
     </g>
    </g>
    <g id="ytick_5">
     <g id="line2d_16">
      <path clip-path="url(#pc3cc051011)" d="M 93.70875 134.921761 
L 986.50875 134.921761 
" style="fill:none;stroke:#ffffff;stroke-linecap:round;"/>
     </g>
     <g id="line2d_17">
      <g>
       <use style="fill:#262626;stroke:#262626;stroke-width:1.25;" x="93.70875" xlink:href="#mfccdae884f" y="134.921761"/>
      </g>
     </g>
     <g id="text_13">
      <!-- 0.8 -->
      <g style="fill:#262626;" transform="translate(46.04125 144.039886)scale(0.24 -0.24)">
       <use xlink:href="#DejaVuSans-48"/>
       <use x="63.623047" xlink:href="#DejaVuSans-46"/>
       <use x="95.410156" xlink:href="#DejaVuSans-56"/>
      </g>
     </g>
    </g>
    <g id="ytick_6">
     <g id="line2d_18">
      <path clip-path="url(#pc3cc051011)" d="M 93.70875 16.318125 
L 986.50875 16.318125 
" style="fill:none;stroke:#ffffff;stroke-linecap:round;"/>
     </g>
     <g id="line2d_19">
      <g>
       <use style="fill:#262626;stroke:#262626;stroke-width:1.25;" x="93.70875" xlink:href="#mfccdae884f" y="16.318125"/>
      </g>
     </g>
     <g id="text_14">
      <!-- 1.0 -->
      <g style="fill:#262626;" transform="translate(46.04125 25.43625)scale(0.24 -0.24)">
       <use xlink:href="#DejaVuSans-49"/>
       <use x="63.623047" xlink:href="#DejaVuSans-46"/>
       <use x="95.410156" xlink:href="#DejaVuSans-48"/>
      </g>
     </g>
    </g>
    <g id="text_15">
     <!-- f1 score (n.u.) -->
     <g style="fill:#262626;" transform="translate(34.554375 468.368437)rotate(-90)scale(0.36 -0.36)">
      <defs>
       <path d="M 37.109375 75.984375 
L 37.109375 68.5 
L 28.515625 68.5 
Q 23.6875 68.5 21.796875 66.546875 
Q 19.921875 64.59375 19.921875 59.515625 
L 19.921875 54.6875 
L 34.71875 54.6875 
L 34.71875 47.703125 
L 19.921875 47.703125 
L 19.921875 0 
L 10.890625 0 
L 10.890625 47.703125 
L 2.296875 47.703125 
L 2.296875 54.6875 
L 10.890625 54.6875 
L 10.890625 58.5 
Q 10.890625 67.625 15.140625 71.796875 
Q 19.390625 75.984375 28.609375 75.984375 
z
" id="DejaVuSans-102"/>
       <path d="M 41.109375 46.296875 
Q 39.59375 47.171875 37.8125 47.578125 
Q 36.03125 48 33.890625 48 
Q 26.265625 48 22.1875 43.046875 
Q 18.109375 38.09375 18.109375 28.8125 
L 18.109375 0 
L 9.078125 0 
L 9.078125 54.6875 
L 18.109375 54.6875 
L 18.109375 46.1875 
Q 20.953125 51.171875 25.484375 53.578125 
Q 30.03125 56 36.53125 56 
Q 37.453125 56 38.578125 55.875 
Q 39.703125 55.765625 41.0625 55.515625 
z
" id="DejaVuSans-114"/>
       <path d="M 56.203125 29.59375 
L 56.203125 25.203125 
L 14.890625 25.203125 
Q 15.484375 15.921875 20.484375 11.0625 
Q 25.484375 6.203125 34.421875 6.203125 
Q 39.59375 6.203125 44.453125 7.46875 
Q 49.3125 8.734375 54.109375 11.28125 
L 54.109375 2.78125 
Q 49.265625 0.734375 44.1875 -0.34375 
Q 39.109375 -1.421875 33.890625 -1.421875 
Q 20.796875 -1.421875 13.15625 6.1875 
Q 5.515625 13.8125 5.515625 26.8125 
Q 5.515625 40.234375 12.765625 48.109375 
Q 20.015625 56 32.328125 56 
Q 43.359375 56 49.78125 48.890625 
Q 56.203125 41.796875 56.203125 29.59375 
z
M 47.21875 32.234375 
Q 47.125 39.59375 43.09375 43.984375 
Q 39.0625 48.390625 32.421875 48.390625 
Q 24.90625 48.390625 20.390625 44.140625 
Q 15.875 39.890625 15.1875 32.171875 
z
" id="DejaVuSans-101"/>
      </defs>
      <use xlink:href="#DejaVuSans-102"/>
      <use x="35.205078" xlink:href="#DejaVuSans-49"/>
      <use x="98.828125" xlink:href="#DejaVuSans-32"/>
      <use x="130.615234" xlink:href="#DejaVuSans-115"/>
      <use x="182.714844" xlink:href="#DejaVuSans-99"/>
      <use x="237.695312" xlink:href="#DejaVuSans-111"/>
      <use x="298.876953" xlink:href="#DejaVuSans-114"/>
      <use x="337.740234" xlink:href="#DejaVuSans-101"/>
      <use x="399.263672" xlink:href="#DejaVuSans-32"/>
      <use x="431.050781" xlink:href="#DejaVuSans-40"/>
      <use x="470.064453" xlink:href="#DejaVuSans-110"/>
      <use x="533.443359" xlink:href="#DejaVuSans-46"/>
      <use x="565.230469" xlink:href="#DejaVuSans-117"/>
      <use x="628.609375" xlink:href="#DejaVuSans-46"/>
      <use x="660.396484" xlink:href="#DejaVuSans-41"/>
     </g>
    </g>
   </g>
   <g id="line2d_20">
    <path clip-path="url(#pc3cc051011)" d="M 134.290568 572.80776 
L 140.533925 574.548068 
L 146.777281 577.310449 
L 153.020638 583.181391 
L 159.263995 584.421384 
L 165.507351 584.071293 
L 171.750708 581.545942 
L 177.994065 580.093441 
L 184.237421 577.088141 
L 190.480778 576.737089 
L 196.724135 573.94173 
L 202.967491 572.364259 
L 209.210848 570.396035 
L 215.454205 567.278284 
L 221.697561 566.056022 
L 240.427631 556.745888 
L 246.670988 548.354016 
L 252.914344 536.887093 
L 259.157701 517.978734 
L 265.401058 510.70416 
L 271.644414 473.047599 
L 277.887771 468.56049 
L 284.131128 447.167919 
L 290.374484 439.441721 
L 296.617841 406.542542 
L 302.861198 349.792561 
L 309.104554 325.10868 
L 315.347911 344.083182 
L 321.591267 309.948511 
L 327.834624 271.737968 
L 334.077981 241.959869 
L 340.321337 258.071207 
L 346.564694 245.733944 
L 352.808051 253.098791 
L 359.051407 254.556759 
L 365.294764 223.386657 
L 371.538121 223.706362 
L 377.781477 267.90162 
L 384.024834 196.699428 
L 390.268191 89.305007 
L 396.511547 56.495538 
L 402.754904 37.792351 
L 408.99826 32.609863 
L 415.241617 45.167688 
L 421.484974 29.569958 
L 427.72833 36.195859 
L 433.971687 38.534974 
L 440.215044 29.719695 
L 446.4584 36.420466 
L 452.701757 37.67338 
L 458.945114 37.792351 
L 465.18847 41.687916 
L 471.431827 36.420466 
L 477.675184 34.092542 
L 483.91854 41.234885 
L 490.161897 36.085427 
L 496.405253 33.261531 
L 502.64861 28.011471 
L 508.891967 31.102541 
L 515.135323 37.55572 
L 521.37868 26.312843 
L 527.622037 32.520837 
L 533.865393 32.790882 
L 540.10875 34.189935 
L 546.352107 25.986929 
L 552.595463 29.423529 
L 558.83882 27.753767 
L 565.082177 33.261531 
L 571.325533 31.437598 
L 577.56889 29.496336 
L 583.812247 27.945962 
L 590.055603 31.437598 
L 596.29896 41.096073 
L 602.542316 26.426419 
L 608.785673 29.496336 
L 615.02903 28.144728 
L 621.272386 29.569958 
L 627.515743 42.674518 
L 633.7591 27.945962 
L 640.002456 54.310963 
L 646.245813 29.644406 
L 652.48917 34.387961 
L 658.732526 31.437598 
L 664.975883 33.457408 
L 671.21924 32.699872 
L 677.462596 28.011471 
L 683.705953 30.782013 
L 689.949309 34.90277 
L 696.192666 27.945962 
L 702.436023 39.379973 
L 708.679379 29.719696 
L 714.922736 31.102541 
L 721.166093 34.488628 
L 727.409449 31.523749 
L 733.652806 26.257007 
L 739.896163 43.787662 
L 746.139519 26.201791 
L 752.382876 24.962735 
L 758.626233 24.765707 
L 764.869589 29.795841 
L 771.112946 29.950757 
L 777.356302 28.144728 
L 783.599659 29.569958 
L 789.843016 42.528903 
L 796.086372 34.693366 
L 802.329729 31.102541 
L 808.573086 36.307532 
L 814.816442 53.482782 
L 821.059799 32.975969 
L 827.303156 29.644406 
L 833.546512 39.770851 
L 839.789869 38.636043 
L 846.033226 32.882908 
L 852.276582 29.719695 
L 858.519939 34.797475 
L 864.763295 27.753767 
L 871.006652 33.165262 
L 877.250009 36.085427 
L 883.493365 32.790882 
L 889.736722 27.629128 
L 895.980079 42.970657 
L 902.223435 29.719695 
L 908.466792 39.252559 
L 914.710149 34.693366 
L 920.953505 42.242447 
L 927.196862 29.423529 
L 933.440219 27.945962 
L 939.683575 42.528903 
L 945.926932 31.184906 
L 945.926932 31.184906 
" style="fill:none;stroke:#4c72b0;stroke-linecap:round;stroke-width:2.5;"/>
    <defs>
     <path d="M 0 -4.5 
L -1.010313 -1.390576 
L -4.279754 -1.390576 
L -1.634721 0.531153 
L -2.645034 3.640576 
L -0 1.718847 
L 2.645034 3.640576 
L 1.634721 0.531153 
L 4.279754 -1.390576 
L 1.010313 -1.390576 
z
" id="m0193261a9b" style="stroke:#4c72b0;stroke-linejoin:bevel;"/>
    </defs>
    <g clip-path="url(#pc3cc051011)">
     <use style="fill:#4c72b0;stroke:#4c72b0;stroke-linejoin:bevel;" x="134.290568" xlink:href="#m0193261a9b" y="572.80776"/>
     <use style="fill:#4c72b0;stroke:#4c72b0;stroke-linejoin:bevel;" x="140.533925" xlink:href="#m0193261a9b" y="574.548068"/>
     <use style="fill:#4c72b0;stroke:#4c72b0;stroke-linejoin:bevel;" x="146.777281" xlink:href="#m0193261a9b" y="577.310449"/>
     <use style="fill:#4c72b0;stroke:#4c72b0;stroke-linejoin:bevel;" x="153.020638" xlink:href="#m0193261a9b" y="583.181391"/>
     <use style="fill:#4c72b0;stroke:#4c72b0;stroke-linejoin:bevel;" x="159.263995" xlink:href="#m0193261a9b" y="584.421384"/>
     <use style="fill:#4c72b0;stroke:#4c72b0;stroke-linejoin:bevel;" x="165.507351" xlink:href="#m0193261a9b" y="584.071293"/>
     <use style="fill:#4c72b0;stroke:#4c72b0;stroke-linejoin:bevel;" x="171.750708" xlink:href="#m0193261a9b" y="581.545942"/>
     <use style="fill:#4c72b0;stroke:#4c72b0;stroke-linejoin:bevel;" x="177.994065" xlink:href="#m0193261a9b" y="580.093441"/>
     <use style="fill:#4c72b0;stroke:#4c72b0;stroke-linejoin:bevel;" x="184.237421" xlink:href="#m0193261a9b" y="577.088141"/>
     <use style="fill:#4c72b0;stroke:#4c72b0;stroke-linejoin:bevel;" x="190.480778" xlink:href="#m0193261a9b" y="576.737089"/>
     <use style="fill:#4c72b0;stroke:#4c72b0;stroke-linejoin:bevel;" x="196.724135" xlink:href="#m0193261a9b" y="573.94173"/>
     <use style="fill:#4c72b0;stroke:#4c72b0;stroke-linejoin:bevel;" x="202.967491" xlink:href="#m0193261a9b" y="572.364259"/>
     <use style="fill:#4c72b0;stroke:#4c72b0;stroke-linejoin:bevel;" x="209.210848" xlink:href="#m0193261a9b" y="570.396035"/>
     <use style="fill:#4c72b0;stroke:#4c72b0;stroke-linejoin:bevel;" x="215.454205" xlink:href="#m0193261a9b" y="567.278284"/>
     <use style="fill:#4c72b0;stroke:#4c72b0;stroke-linejoin:bevel;" x="221.697561" xlink:href="#m0193261a9b" y="566.056022"/>
     <use style="fill:#4c72b0;stroke:#4c72b0;stroke-linejoin:bevel;" x="227.940918" xlink:href="#m0193261a9b" y="562.967485"/>
     <use style="fill:#4c72b0;stroke:#4c72b0;stroke-linejoin:bevel;" x="234.184274" xlink:href="#m0193261a9b" y="559.979703"/>
     <use style="fill:#4c72b0;stroke:#4c72b0;stroke-linejoin:bevel;" x="240.427631" xlink:href="#m0193261a9b" y="556.745888"/>
     <use style="fill:#4c72b0;stroke:#4c72b0;stroke-linejoin:bevel;" x="246.670988" xlink:href="#m0193261a9b" y="548.354016"/>
     <use style="fill:#4c72b0;stroke:#4c72b0;stroke-linejoin:bevel;" x="252.914344" xlink:href="#m0193261a9b" y="536.887093"/>
     <use style="fill:#4c72b0;stroke:#4c72b0;stroke-linejoin:bevel;" x="259.157701" xlink:href="#m0193261a9b" y="517.978734"/>
     <use style="fill:#4c72b0;stroke:#4c72b0;stroke-linejoin:bevel;" x="265.401058" xlink:href="#m0193261a9b" y="510.70416"/>
     <use style="fill:#4c72b0;stroke:#4c72b0;stroke-linejoin:bevel;" x="271.644414" xlink:href="#m0193261a9b" y="473.047599"/>
     <use style="fill:#4c72b0;stroke:#4c72b0;stroke-linejoin:bevel;" x="277.887771" xlink:href="#m0193261a9b" y="468.56049"/>
     <use style="fill:#4c72b0;stroke:#4c72b0;stroke-linejoin:bevel;" x="284.131128" xlink:href="#m0193261a9b" y="447.167919"/>
     <use style="fill:#4c72b0;stroke:#4c72b0;stroke-linejoin:bevel;" x="290.374484" xlink:href="#m0193261a9b" y="439.441721"/>
     <use style="fill:#4c72b0;stroke:#4c72b0;stroke-linejoin:bevel;" x="296.617841" xlink:href="#m0193261a9b" y="406.542542"/>
     <use style="fill:#4c72b0;stroke:#4c72b0;stroke-linejoin:bevel;" x="302.861198" xlink:href="#m0193261a9b" y="349.792561"/>
     <use style="fill:#4c72b0;stroke:#4c72b0;stroke-linejoin:bevel;" x="309.104554" xlink:href="#m0193261a9b" y="325.10868"/>
     <use style="fill:#4c72b0;stroke:#4c72b0;stroke-linejoin:bevel;" x="315.347911" xlink:href="#m0193261a9b" y="344.083182"/>
     <use style="fill:#4c72b0;stroke:#4c72b0;stroke-linejoin:bevel;" x="321.591267" xlink:href="#m0193261a9b" y="309.948511"/>
     <use style="fill:#4c72b0;stroke:#4c72b0;stroke-linejoin:bevel;" x="327.834624" xlink:href="#m0193261a9b" y="271.737968"/>
     <use style="fill:#4c72b0;stroke:#4c72b0;stroke-linejoin:bevel;" x="334.077981" xlink:href="#m0193261a9b" y="241.959869"/>
     <use style="fill:#4c72b0;stroke:#4c72b0;stroke-linejoin:bevel;" x="340.321337" xlink:href="#m0193261a9b" y="258.071207"/>
     <use style="fill:#4c72b0;stroke:#4c72b0;stroke-linejoin:bevel;" x="346.564694" xlink:href="#m0193261a9b" y="245.733944"/>
     <use style="fill:#4c72b0;stroke:#4c72b0;stroke-linejoin:bevel;" x="352.808051" xlink:href="#m0193261a9b" y="253.098791"/>
     <use style="fill:#4c72b0;stroke:#4c72b0;stroke-linejoin:bevel;" x="359.051407" xlink:href="#m0193261a9b" y="254.556759"/>
     <use style="fill:#4c72b0;stroke:#4c72b0;stroke-linejoin:bevel;" x="365.294764" xlink:href="#m0193261a9b" y="223.386657"/>
     <use style="fill:#4c72b0;stroke:#4c72b0;stroke-linejoin:bevel;" x="371.538121" xlink:href="#m0193261a9b" y="223.706362"/>
     <use style="fill:#4c72b0;stroke:#4c72b0;stroke-linejoin:bevel;" x="377.781477" xlink:href="#m0193261a9b" y="267.90162"/>
     <use style="fill:#4c72b0;stroke:#4c72b0;stroke-linejoin:bevel;" x="384.024834" xlink:href="#m0193261a9b" y="196.699428"/>
     <use style="fill:#4c72b0;stroke:#4c72b0;stroke-linejoin:bevel;" x="390.268191" xlink:href="#m0193261a9b" y="89.305007"/>
     <use style="fill:#4c72b0;stroke:#4c72b0;stroke-linejoin:bevel;" x="396.511547" xlink:href="#m0193261a9b" y="56.495538"/>
     <use style="fill:#4c72b0;stroke:#4c72b0;stroke-linejoin:bevel;" x="402.754904" xlink:href="#m0193261a9b" y="37.792351"/>
     <use style="fill:#4c72b0;stroke:#4c72b0;stroke-linejoin:bevel;" x="408.99826" xlink:href="#m0193261a9b" y="32.609863"/>
     <use style="fill:#4c72b0;stroke:#4c72b0;stroke-linejoin:bevel;" x="415.241617" xlink:href="#m0193261a9b" y="45.167688"/>
     <use style="fill:#4c72b0;stroke:#4c72b0;stroke-linejoin:bevel;" x="421.484974" xlink:href="#m0193261a9b" y="29.569958"/>
     <use style="fill:#4c72b0;stroke:#4c72b0;stroke-linejoin:bevel;" x="427.72833" xlink:href="#m0193261a9b" y="36.195859"/>
     <use style="fill:#4c72b0;stroke:#4c72b0;stroke-linejoin:bevel;" x="433.971687" xlink:href="#m0193261a9b" y="38.534974"/>
     <use style="fill:#4c72b0;stroke:#4c72b0;stroke-linejoin:bevel;" x="440.215044" xlink:href="#m0193261a9b" y="29.719695"/>
     <use style="fill:#4c72b0;stroke:#4c72b0;stroke-linejoin:bevel;" x="446.4584" xlink:href="#m0193261a9b" y="36.420466"/>
     <use style="fill:#4c72b0;stroke:#4c72b0;stroke-linejoin:bevel;" x="452.701757" xlink:href="#m0193261a9b" y="37.67338"/>
     <use style="fill:#4c72b0;stroke:#4c72b0;stroke-linejoin:bevel;" x="458.945114" xlink:href="#m0193261a9b" y="37.792351"/>
     <use style="fill:#4c72b0;stroke:#4c72b0;stroke-linejoin:bevel;" x="465.18847" xlink:href="#m0193261a9b" y="41.687916"/>
     <use style="fill:#4c72b0;stroke:#4c72b0;stroke-linejoin:bevel;" x="471.431827" xlink:href="#m0193261a9b" y="36.420466"/>
     <use style="fill:#4c72b0;stroke:#4c72b0;stroke-linejoin:bevel;" x="477.675184" xlink:href="#m0193261a9b" y="34.092542"/>
     <use style="fill:#4c72b0;stroke:#4c72b0;stroke-linejoin:bevel;" x="483.91854" xlink:href="#m0193261a9b" y="41.234885"/>
     <use style="fill:#4c72b0;stroke:#4c72b0;stroke-linejoin:bevel;" x="490.161897" xlink:href="#m0193261a9b" y="36.085427"/>
     <use style="fill:#4c72b0;stroke:#4c72b0;stroke-linejoin:bevel;" x="496.405253" xlink:href="#m0193261a9b" y="33.261531"/>
     <use style="fill:#4c72b0;stroke:#4c72b0;stroke-linejoin:bevel;" x="502.64861" xlink:href="#m0193261a9b" y="28.011471"/>
     <use style="fill:#4c72b0;stroke:#4c72b0;stroke-linejoin:bevel;" x="508.891967" xlink:href="#m0193261a9b" y="31.102541"/>
     <use style="fill:#4c72b0;stroke:#4c72b0;stroke-linejoin:bevel;" x="515.135323" xlink:href="#m0193261a9b" y="37.55572"/>
     <use style="fill:#4c72b0;stroke:#4c72b0;stroke-linejoin:bevel;" x="521.37868" xlink:href="#m0193261a9b" y="26.312843"/>
     <use style="fill:#4c72b0;stroke:#4c72b0;stroke-linejoin:bevel;" x="527.622037" xlink:href="#m0193261a9b" y="32.520837"/>
     <use style="fill:#4c72b0;stroke:#4c72b0;stroke-linejoin:bevel;" x="533.865393" xlink:href="#m0193261a9b" y="32.790882"/>
     <use style="fill:#4c72b0;stroke:#4c72b0;stroke-linejoin:bevel;" x="540.10875" xlink:href="#m0193261a9b" y="34.189935"/>
     <use style="fill:#4c72b0;stroke:#4c72b0;stroke-linejoin:bevel;" x="546.352107" xlink:href="#m0193261a9b" y="25.986929"/>
     <use style="fill:#4c72b0;stroke:#4c72b0;stroke-linejoin:bevel;" x="552.595463" xlink:href="#m0193261a9b" y="29.423529"/>
     <use style="fill:#4c72b0;stroke:#4c72b0;stroke-linejoin:bevel;" x="558.83882" xlink:href="#m0193261a9b" y="27.753767"/>
     <use style="fill:#4c72b0;stroke:#4c72b0;stroke-linejoin:bevel;" x="565.082177" xlink:href="#m0193261a9b" y="33.261531"/>
     <use style="fill:#4c72b0;stroke:#4c72b0;stroke-linejoin:bevel;" x="571.325533" xlink:href="#m0193261a9b" y="31.437598"/>
     <use style="fill:#4c72b0;stroke:#4c72b0;stroke-linejoin:bevel;" x="577.56889" xlink:href="#m0193261a9b" y="29.496336"/>
     <use style="fill:#4c72b0;stroke:#4c72b0;stroke-linejoin:bevel;" x="583.812247" xlink:href="#m0193261a9b" y="27.945962"/>
     <use style="fill:#4c72b0;stroke:#4c72b0;stroke-linejoin:bevel;" x="590.055603" xlink:href="#m0193261a9b" y="31.437598"/>
     <use style="fill:#4c72b0;stroke:#4c72b0;stroke-linejoin:bevel;" x="596.29896" xlink:href="#m0193261a9b" y="41.096073"/>
     <use style="fill:#4c72b0;stroke:#4c72b0;stroke-linejoin:bevel;" x="602.542316" xlink:href="#m0193261a9b" y="26.426419"/>
     <use style="fill:#4c72b0;stroke:#4c72b0;stroke-linejoin:bevel;" x="608.785673" xlink:href="#m0193261a9b" y="29.496336"/>
     <use style="fill:#4c72b0;stroke:#4c72b0;stroke-linejoin:bevel;" x="615.02903" xlink:href="#m0193261a9b" y="28.144728"/>
     <use style="fill:#4c72b0;stroke:#4c72b0;stroke-linejoin:bevel;" x="621.272386" xlink:href="#m0193261a9b" y="29.569958"/>
     <use style="fill:#4c72b0;stroke:#4c72b0;stroke-linejoin:bevel;" x="627.515743" xlink:href="#m0193261a9b" y="42.674518"/>
     <use style="fill:#4c72b0;stroke:#4c72b0;stroke-linejoin:bevel;" x="633.7591" xlink:href="#m0193261a9b" y="27.945962"/>
     <use style="fill:#4c72b0;stroke:#4c72b0;stroke-linejoin:bevel;" x="640.002456" xlink:href="#m0193261a9b" y="54.310963"/>
     <use style="fill:#4c72b0;stroke:#4c72b0;stroke-linejoin:bevel;" x="646.245813" xlink:href="#m0193261a9b" y="29.644406"/>
     <use style="fill:#4c72b0;stroke:#4c72b0;stroke-linejoin:bevel;" x="652.48917" xlink:href="#m0193261a9b" y="34.387961"/>
     <use style="fill:#4c72b0;stroke:#4c72b0;stroke-linejoin:bevel;" x="658.732526" xlink:href="#m0193261a9b" y="31.437598"/>
     <use style="fill:#4c72b0;stroke:#4c72b0;stroke-linejoin:bevel;" x="664.975883" xlink:href="#m0193261a9b" y="33.457408"/>
     <use style="fill:#4c72b0;stroke:#4c72b0;stroke-linejoin:bevel;" x="671.21924" xlink:href="#m0193261a9b" y="32.699872"/>
     <use style="fill:#4c72b0;stroke:#4c72b0;stroke-linejoin:bevel;" x="677.462596" xlink:href="#m0193261a9b" y="28.011471"/>
     <use style="fill:#4c72b0;stroke:#4c72b0;stroke-linejoin:bevel;" x="683.705953" xlink:href="#m0193261a9b" y="30.782013"/>
     <use style="fill:#4c72b0;stroke:#4c72b0;stroke-linejoin:bevel;" x="689.949309" xlink:href="#m0193261a9b" y="34.90277"/>
     <use style="fill:#4c72b0;stroke:#4c72b0;stroke-linejoin:bevel;" x="696.192666" xlink:href="#m0193261a9b" y="27.945962"/>
     <use style="fill:#4c72b0;stroke:#4c72b0;stroke-linejoin:bevel;" x="702.436023" xlink:href="#m0193261a9b" y="39.379973"/>
     <use style="fill:#4c72b0;stroke:#4c72b0;stroke-linejoin:bevel;" x="708.679379" xlink:href="#m0193261a9b" y="29.719696"/>
     <use style="fill:#4c72b0;stroke:#4c72b0;stroke-linejoin:bevel;" x="714.922736" xlink:href="#m0193261a9b" y="31.102541"/>
     <use style="fill:#4c72b0;stroke:#4c72b0;stroke-linejoin:bevel;" x="721.166093" xlink:href="#m0193261a9b" y="34.488628"/>
     <use style="fill:#4c72b0;stroke:#4c72b0;stroke-linejoin:bevel;" x="727.409449" xlink:href="#m0193261a9b" y="31.523749"/>
     <use style="fill:#4c72b0;stroke:#4c72b0;stroke-linejoin:bevel;" x="733.652806" xlink:href="#m0193261a9b" y="26.257007"/>
     <use style="fill:#4c72b0;stroke:#4c72b0;stroke-linejoin:bevel;" x="739.896163" xlink:href="#m0193261a9b" y="43.787662"/>
     <use style="fill:#4c72b0;stroke:#4c72b0;stroke-linejoin:bevel;" x="746.139519" xlink:href="#m0193261a9b" y="26.201791"/>
     <use style="fill:#4c72b0;stroke:#4c72b0;stroke-linejoin:bevel;" x="752.382876" xlink:href="#m0193261a9b" y="24.962735"/>
     <use style="fill:#4c72b0;stroke:#4c72b0;stroke-linejoin:bevel;" x="758.626233" xlink:href="#m0193261a9b" y="24.765707"/>
     <use style="fill:#4c72b0;stroke:#4c72b0;stroke-linejoin:bevel;" x="764.869589" xlink:href="#m0193261a9b" y="29.795841"/>
     <use style="fill:#4c72b0;stroke:#4c72b0;stroke-linejoin:bevel;" x="771.112946" xlink:href="#m0193261a9b" y="29.950757"/>
     <use style="fill:#4c72b0;stroke:#4c72b0;stroke-linejoin:bevel;" x="777.356302" xlink:href="#m0193261a9b" y="28.144728"/>
     <use style="fill:#4c72b0;stroke:#4c72b0;stroke-linejoin:bevel;" x="783.599659" xlink:href="#m0193261a9b" y="29.569958"/>
     <use style="fill:#4c72b0;stroke:#4c72b0;stroke-linejoin:bevel;" x="789.843016" xlink:href="#m0193261a9b" y="42.528903"/>
     <use style="fill:#4c72b0;stroke:#4c72b0;stroke-linejoin:bevel;" x="796.086372" xlink:href="#m0193261a9b" y="34.693366"/>
     <use style="fill:#4c72b0;stroke:#4c72b0;stroke-linejoin:bevel;" x="802.329729" xlink:href="#m0193261a9b" y="31.102541"/>
     <use style="fill:#4c72b0;stroke:#4c72b0;stroke-linejoin:bevel;" x="808.573086" xlink:href="#m0193261a9b" y="36.307532"/>
     <use style="fill:#4c72b0;stroke:#4c72b0;stroke-linejoin:bevel;" x="814.816442" xlink:href="#m0193261a9b" y="53.482782"/>
     <use style="fill:#4c72b0;stroke:#4c72b0;stroke-linejoin:bevel;" x="821.059799" xlink:href="#m0193261a9b" y="32.975969"/>
     <use style="fill:#4c72b0;stroke:#4c72b0;stroke-linejoin:bevel;" x="827.303156" xlink:href="#m0193261a9b" y="29.644406"/>
     <use style="fill:#4c72b0;stroke:#4c72b0;stroke-linejoin:bevel;" x="833.546512" xlink:href="#m0193261a9b" y="39.770851"/>
     <use style="fill:#4c72b0;stroke:#4c72b0;stroke-linejoin:bevel;" x="839.789869" xlink:href="#m0193261a9b" y="38.636043"/>
     <use style="fill:#4c72b0;stroke:#4c72b0;stroke-linejoin:bevel;" x="846.033226" xlink:href="#m0193261a9b" y="32.882908"/>
     <use style="fill:#4c72b0;stroke:#4c72b0;stroke-linejoin:bevel;" x="852.276582" xlink:href="#m0193261a9b" y="29.719695"/>
     <use style="fill:#4c72b0;stroke:#4c72b0;stroke-linejoin:bevel;" x="858.519939" xlink:href="#m0193261a9b" y="34.797475"/>
     <use style="fill:#4c72b0;stroke:#4c72b0;stroke-linejoin:bevel;" x="864.763295" xlink:href="#m0193261a9b" y="27.753767"/>
     <use style="fill:#4c72b0;stroke:#4c72b0;stroke-linejoin:bevel;" x="871.006652" xlink:href="#m0193261a9b" y="33.165262"/>
     <use style="fill:#4c72b0;stroke:#4c72b0;stroke-linejoin:bevel;" x="877.250009" xlink:href="#m0193261a9b" y="36.085427"/>
     <use style="fill:#4c72b0;stroke:#4c72b0;stroke-linejoin:bevel;" x="883.493365" xlink:href="#m0193261a9b" y="32.790882"/>
     <use style="fill:#4c72b0;stroke:#4c72b0;stroke-linejoin:bevel;" x="889.736722" xlink:href="#m0193261a9b" y="27.629128"/>
     <use style="fill:#4c72b0;stroke:#4c72b0;stroke-linejoin:bevel;" x="895.980079" xlink:href="#m0193261a9b" y="42.970657"/>
     <use style="fill:#4c72b0;stroke:#4c72b0;stroke-linejoin:bevel;" x="902.223435" xlink:href="#m0193261a9b" y="29.719695"/>
     <use style="fill:#4c72b0;stroke:#4c72b0;stroke-linejoin:bevel;" x="908.466792" xlink:href="#m0193261a9b" y="39.252559"/>
     <use style="fill:#4c72b0;stroke:#4c72b0;stroke-linejoin:bevel;" x="914.710149" xlink:href="#m0193261a9b" y="34.693366"/>
     <use style="fill:#4c72b0;stroke:#4c72b0;stroke-linejoin:bevel;" x="920.953505" xlink:href="#m0193261a9b" y="42.242447"/>
     <use style="fill:#4c72b0;stroke:#4c72b0;stroke-linejoin:bevel;" x="927.196862" xlink:href="#m0193261a9b" y="29.423529"/>
     <use style="fill:#4c72b0;stroke:#4c72b0;stroke-linejoin:bevel;" x="933.440219" xlink:href="#m0193261a9b" y="27.945962"/>
     <use style="fill:#4c72b0;stroke:#4c72b0;stroke-linejoin:bevel;" x="939.683575" xlink:href="#m0193261a9b" y="42.528903"/>
     <use style="fill:#4c72b0;stroke:#4c72b0;stroke-linejoin:bevel;" x="945.926932" xlink:href="#m0193261a9b" y="31.184906"/>
    </g>
   </g>
   <g id="patch_3">
    <path d="M 93.70875 668.638125 
L 93.70875 16.318125 
" style="fill:none;stroke:#ffffff;stroke-linecap:square;stroke-linejoin:miter;stroke-width:1.25;"/>
   </g>
   <g id="patch_4">
    <path d="M 986.50875 668.638125 
L 986.50875 16.318125 
" style="fill:none;stroke:#ffffff;stroke-linecap:square;stroke-linejoin:miter;stroke-width:1.25;"/>
   </g>
   <g id="patch_5">
    <path d="M 93.70875 668.638125 
L 986.50875 668.638125 
" style="fill:none;stroke:#ffffff;stroke-linecap:square;stroke-linejoin:miter;stroke-width:1.25;"/>
   </g>
   <g id="patch_6">
    <path d="M 93.70875 16.318125 
L 986.50875 16.318125 
" style="fill:none;stroke:#ffffff;stroke-linecap:square;stroke-linejoin:miter;stroke-width:1.25;"/>
   </g>
   <g id="legend_1">
    <g id="patch_7">
     <path d="M 732.257187 655.638125 
L 968.30875 655.638125 
Q 973.50875 655.638125 973.50875 650.438125 
L 973.50875 576.711875 
Q 973.50875 571.511875 968.30875 571.511875 
L 732.257187 571.511875 
Q 727.057187 571.511875 727.057187 576.711875 
L 727.057187 650.438125 
Q 727.057187 655.638125 732.257187 655.638125 
z
" style="fill:#eaeaf2;opacity:0.8;stroke:#cccccc;stroke-linejoin:miter;"/>
    </g>
    <g id="line2d_21">
     <path d="M 737.457187 592.567813 
L 789.457187 592.567813 
" style="fill:none;stroke:#4c72b0;stroke-linecap:round;stroke-width:2.5;"/>
    </g>
    <g id="line2d_22">
     <g>
      <use style="fill:#4c72b0;stroke:#4c72b0;stroke-linejoin:bevel;" x="763.457187" xlink:href="#m0193261a9b" y="592.567813"/>
     </g>
    </g>
    <g id="text_16">
     <!-- val-f1-score -->
     <g style="fill:#262626;" transform="translate(810.257187 601.667813)scale(0.26 -0.26)">
      <defs>
       <path d="M 2.984375 54.6875 
L 12.5 54.6875 
L 29.59375 8.796875 
L 46.6875 54.6875 
L 56.203125 54.6875 
L 35.6875 0 
L 23.484375 0 
z
" id="DejaVuSans-118"/>
       <path d="M 34.28125 27.484375 
Q 23.390625 27.484375 19.1875 25 
Q 14.984375 22.515625 14.984375 16.5 
Q 14.984375 11.71875 18.140625 8.90625 
Q 21.296875 6.109375 26.703125 6.109375 
Q 34.1875 6.109375 38.703125 11.40625 
Q 43.21875 16.703125 43.21875 25.484375 
L 43.21875 27.484375 
z
M 52.203125 31.203125 
L 52.203125 0 
L 43.21875 0 
L 43.21875 8.296875 
Q 40.140625 3.328125 35.546875 0.953125 
Q 30.953125 -1.421875 24.3125 -1.421875 
Q 15.921875 -1.421875 10.953125 3.296875 
Q 6 8.015625 6 15.921875 
Q 6 25.140625 12.171875 29.828125 
Q 18.359375 34.515625 30.609375 34.515625 
L 43.21875 34.515625 
L 43.21875 35.40625 
Q 43.21875 41.609375 39.140625 45 
Q 35.0625 48.390625 27.6875 48.390625 
Q 23 48.390625 18.546875 47.265625 
Q 14.109375 46.140625 10.015625 43.890625 
L 10.015625 52.203125 
Q 14.9375 54.109375 19.578125 55.046875 
Q 24.21875 56 28.609375 56 
Q 40.484375 56 46.34375 49.84375 
Q 52.203125 43.703125 52.203125 31.203125 
z
" id="DejaVuSans-97"/>
       <path d="M 9.421875 75.984375 
L 18.40625 75.984375 
L 18.40625 0 
L 9.421875 0 
z
" id="DejaVuSans-108"/>
       <path d="M 4.890625 31.390625 
L 31.203125 31.390625 
L 31.203125 23.390625 
L 4.890625 23.390625 
z
" id="DejaVuSans-45"/>
      </defs>
      <use xlink:href="#DejaVuSans-118"/>
      <use x="59.179688" xlink:href="#DejaVuSans-97"/>
      <use x="120.458984" xlink:href="#DejaVuSans-108"/>
      <use x="148.242188" xlink:href="#DejaVuSans-45"/>
      <use x="184.326172" xlink:href="#DejaVuSans-102"/>
      <use x="219.53125" xlink:href="#DejaVuSans-49"/>
      <use x="283.154297" xlink:href="#DejaVuSans-45"/>
      <use x="319.238281" xlink:href="#DejaVuSans-115"/>
      <use x="371.337891" xlink:href="#DejaVuSans-99"/>
      <use x="426.318359" xlink:href="#DejaVuSans-111"/>
      <use x="487.5" xlink:href="#DejaVuSans-114"/>
      <use x="526.363281" xlink:href="#DejaVuSans-101"/>
     </g>
    </g>
    <g id="line2d_23">
     <path d="M 737.457187 630.730937 
L 789.457187 630.730937 
" style="fill:none;stroke:#dd8452;stroke-linecap:round;stroke-width:2.5;"/>
    </g>
    <g id="line2d_24">
     <defs>
      <path d="M -0 4.5 
L 4.5 -4.5 
L -4.5 -4.5 
z
" id="m11dd5ff16e" style="stroke:#dd8452;stroke-linejoin:miter;"/>
     </defs>
     <g>
      <use style="fill:#dd8452;stroke:#dd8452;stroke-linejoin:miter;" x="763.457187" xlink:href="#m11dd5ff16e" y="630.730937"/>
     </g>
    </g>
    <g id="text_17">
     <!-- train-loss -->
     <g style="fill:#262626;" transform="translate(810.257187 639.830938)scale(0.26 -0.26)">
      <defs>
       <path d="M 18.3125 70.21875 
L 18.3125 54.6875 
L 36.8125 54.6875 
L 36.8125 47.703125 
L 18.3125 47.703125 
L 18.3125 18.015625 
Q 18.3125 11.328125 20.140625 9.421875 
Q 21.96875 7.515625 27.59375 7.515625 
L 36.8125 7.515625 
L 36.8125 0 
L 27.59375 0 
Q 17.1875 0 13.234375 3.875 
Q 9.28125 7.765625 9.28125 18.015625 
L 9.28125 47.703125 
L 2.6875 47.703125 
L 2.6875 54.6875 
L 9.28125 54.6875 
L 9.28125 70.21875 
z
" id="DejaVuSans-116"/>
       <path d="M 9.421875 54.6875 
L 18.40625 54.6875 
L 18.40625 0 
L 9.421875 0 
z
M 9.421875 75.984375 
L 18.40625 75.984375 
L 18.40625 64.59375 
L 9.421875 64.59375 
z
" id="DejaVuSans-105"/>
      </defs>
      <use xlink:href="#DejaVuSans-116"/>
      <use x="39.208984" xlink:href="#DejaVuSans-114"/>
      <use x="80.322266" xlink:href="#DejaVuSans-97"/>
      <use x="141.601562" xlink:href="#DejaVuSans-105"/>
      <use x="169.384766" xlink:href="#DejaVuSans-110"/>
      <use x="232.763672" xlink:href="#DejaVuSans-45"/>
      <use x="268.847656" xlink:href="#DejaVuSans-108"/>
      <use x="296.630859" xlink:href="#DejaVuSans-111"/>
      <use x="357.8125" xlink:href="#DejaVuSans-115"/>
      <use x="409.912109" xlink:href="#DejaVuSans-115"/>
     </g>
    </g>
   </g>
  </g>
  <g id="axes_2">
   <g id="matplotlib.axis_3">
    <g id="ytick_7">
     <g id="line2d_25">
      <path clip-path="url(#pc3cc051011)" d="M 93.70875 609.336307 
L 986.50875 609.336307 
" style="fill:none;stroke:#ffffff;stroke-linecap:round;"/>
     </g>
     <g id="line2d_26">
      <defs>
       <path d="M 0 0 
L 6 0 
" id="me3c576bf66" style="stroke:#262626;stroke-width:1.25;"/>
      </defs>
      <g>
       <use style="fill:#262626;stroke:#262626;stroke-width:1.25;" x="986.50875" xlink:href="#me3c576bf66" y="609.336307"/>
      </g>
     </g>
     <g id="text_18">
      <!-- 0.00 -->
      <g style="fill:#262626;" transform="translate(996.00875 618.454432)scale(0.24 -0.24)">
       <use xlink:href="#DejaVuSans-48"/>
       <use x="63.623047" xlink:href="#DejaVuSans-46"/>
       <use x="95.410156" xlink:href="#DejaVuSans-48"/>
       <use x="159.033203" xlink:href="#DejaVuSans-48"/>
      </g>
     </g>
    </g>
    <g id="ytick_8">
     <g id="line2d_27">
      <path clip-path="url(#pc3cc051011)" d="M 93.70875 490.73267 
L 986.50875 490.73267 
" style="fill:none;stroke:#ffffff;stroke-linecap:round;"/>
     </g>
     <g id="line2d_28">
      <g>
       <use style="fill:#262626;stroke:#262626;stroke-width:1.25;" x="986.50875" xlink:href="#me3c576bf66" y="490.73267"/>
      </g>
     </g>
     <g id="text_19">
      <!-- 0.06 -->
      <g style="fill:#262626;" transform="translate(996.00875 499.850795)scale(0.24 -0.24)">
       <use xlink:href="#DejaVuSans-48"/>
       <use x="63.623047" xlink:href="#DejaVuSans-46"/>
       <use x="95.410156" xlink:href="#DejaVuSans-48"/>
       <use x="159.033203" xlink:href="#DejaVuSans-54"/>
      </g>
     </g>
    </g>
    <g id="ytick_9">
     <g id="line2d_29">
      <path clip-path="url(#pc3cc051011)" d="M 93.70875 372.129034 
L 986.50875 372.129034 
" style="fill:none;stroke:#ffffff;stroke-linecap:round;"/>
     </g>
     <g id="line2d_30">
      <g>
       <use style="fill:#262626;stroke:#262626;stroke-width:1.25;" x="986.50875" xlink:href="#me3c576bf66" y="372.129034"/>
      </g>
     </g>
     <g id="text_20">
      <!-- 0.12 -->
      <g style="fill:#262626;" transform="translate(996.00875 381.247159)scale(0.24 -0.24)">
       <use xlink:href="#DejaVuSans-48"/>
       <use x="63.623047" xlink:href="#DejaVuSans-46"/>
       <use x="95.410156" xlink:href="#DejaVuSans-49"/>
       <use x="159.033203" xlink:href="#DejaVuSans-50"/>
      </g>
     </g>
    </g>
    <g id="ytick_10">
     <g id="line2d_31">
      <path clip-path="url(#pc3cc051011)" d="M 93.70875 253.525398 
L 986.50875 253.525398 
" style="fill:none;stroke:#ffffff;stroke-linecap:round;"/>
     </g>
     <g id="line2d_32">
      <g>
       <use style="fill:#262626;stroke:#262626;stroke-width:1.25;" x="986.50875" xlink:href="#me3c576bf66" y="253.525398"/>
      </g>
     </g>
     <g id="text_21">
      <!-- 0.18 -->
      <g style="fill:#262626;" transform="translate(996.00875 262.643523)scale(0.24 -0.24)">
       <use xlink:href="#DejaVuSans-48"/>
       <use x="63.623047" xlink:href="#DejaVuSans-46"/>
       <use x="95.410156" xlink:href="#DejaVuSans-49"/>
       <use x="159.033203" xlink:href="#DejaVuSans-56"/>
      </g>
     </g>
    </g>
    <g id="ytick_11">
     <g id="line2d_33">
      <path clip-path="url(#pc3cc051011)" d="M 93.70875 134.921761 
L 986.50875 134.921761 
" style="fill:none;stroke:#ffffff;stroke-linecap:round;"/>
     </g>
     <g id="line2d_34">
      <g>
       <use style="fill:#262626;stroke:#262626;stroke-width:1.25;" x="986.50875" xlink:href="#me3c576bf66" y="134.921761"/>
      </g>
     </g>
     <g id="text_22">
      <!-- 0.24 -->
      <g style="fill:#262626;" transform="translate(996.00875 144.039886)scale(0.24 -0.24)">
       <use xlink:href="#DejaVuSans-48"/>
       <use x="63.623047" xlink:href="#DejaVuSans-46"/>
       <use x="95.410156" xlink:href="#DejaVuSans-50"/>
       <use x="159.033203" xlink:href="#DejaVuSans-52"/>
      </g>
     </g>
    </g>
    <g id="ytick_12">
     <g id="line2d_35">
      <path clip-path="url(#pc3cc051011)" d="M 93.70875 16.318125 
L 986.50875 16.318125 
" style="fill:none;stroke:#ffffff;stroke-linecap:round;"/>
     </g>
     <g id="line2d_36">
      <g>
       <use style="fill:#262626;stroke:#262626;stroke-width:1.25;" x="986.50875" xlink:href="#me3c576bf66" y="16.318125"/>
      </g>
     </g>
     <g id="text_23">
      <!-- 0.30 -->
      <g style="fill:#262626;" transform="translate(996.00875 25.43625)scale(0.24 -0.24)">
       <defs>
        <path d="M 40.578125 39.3125 
Q 47.65625 37.796875 51.625 33 
Q 55.609375 28.21875 55.609375 21.1875 
Q 55.609375 10.40625 48.1875 4.484375 
Q 40.765625 -1.421875 27.09375 -1.421875 
Q 22.515625 -1.421875 17.65625 -0.515625 
Q 12.796875 0.390625 7.625 2.203125 
L 7.625 11.71875 
Q 11.71875 9.328125 16.59375 8.109375 
Q 21.484375 6.890625 26.8125 6.890625 
Q 36.078125 6.890625 40.9375 10.546875 
Q 45.796875 14.203125 45.796875 21.1875 
Q 45.796875 27.640625 41.28125 31.265625 
Q 36.765625 34.90625 28.71875 34.90625 
L 20.21875 34.90625 
L 20.21875 43.015625 
L 29.109375 43.015625 
Q 36.375 43.015625 40.234375 45.921875 
Q 44.09375 48.828125 44.09375 54.296875 
Q 44.09375 59.90625 40.109375 62.90625 
Q 36.140625 65.921875 28.71875 65.921875 
Q 24.65625 65.921875 20.015625 65.03125 
Q 15.375 64.15625 9.8125 62.3125 
L 9.8125 71.09375 
Q 15.4375 72.65625 20.34375 73.4375 
Q 25.25 74.21875 29.59375 74.21875 
Q 40.828125 74.21875 47.359375 69.109375 
Q 53.90625 64.015625 53.90625 55.328125 
Q 53.90625 49.265625 50.4375 45.09375 
Q 46.96875 40.921875 40.578125 39.3125 
z
" id="DejaVuSans-51"/>
       </defs>
       <use xlink:href="#DejaVuSans-48"/>
       <use x="63.623047" xlink:href="#DejaVuSans-46"/>
       <use x="95.410156" xlink:href="#DejaVuSans-51"/>
       <use x="159.033203" xlink:href="#DejaVuSans-48"/>
      </g>
     </g>
    </g>
    <g id="text_24">
     <!-- Loss (n.u.) -->
     <g style="fill:#262626;" transform="translate(1080.800625 435.9825)rotate(-90)scale(0.36 -0.36)">
      <defs>
       <path d="M 9.8125 72.90625 
L 19.671875 72.90625 
L 19.671875 8.296875 
L 55.171875 8.296875 
L 55.171875 0 
L 9.8125 0 
z
" id="DejaVuSans-76"/>
      </defs>
      <use xlink:href="#DejaVuSans-76"/>
      <use x="53.962891" xlink:href="#DejaVuSans-111"/>
      <use x="115.144531" xlink:href="#DejaVuSans-115"/>
      <use x="167.244141" xlink:href="#DejaVuSans-115"/>
      <use x="219.34375" xlink:href="#DejaVuSans-32"/>
      <use x="251.130859" xlink:href="#DejaVuSans-40"/>
      <use x="290.144531" xlink:href="#DejaVuSans-110"/>
      <use x="353.523438" xlink:href="#DejaVuSans-46"/>
      <use x="385.310547" xlink:href="#DejaVuSans-117"/>
      <use x="448.689453" xlink:href="#DejaVuSans-46"/>
      <use x="480.476562" xlink:href="#DejaVuSans-41"/>
     </g>
    </g>
   </g>
   <g id="line2d_37">
    <path clip-path="url(#pc3cc051011)" d="M 140.533925 85.146548 
L 153.020638 156.808646 
L 165.507351 192.36 
L 177.994065 215.034809 
L 190.480778 233.172524 
L 202.967491 242.788518 
L 215.454205 253.848305 
L 227.940918 261.239787 
L 240.427631 274.048407 
L 252.914344 289.041686 
L 265.401058 304.609612 
L 277.887771 324.955784 
L 290.374484 332.839145 
L 302.861198 348.689049 
L 315.347911 355.609508 
L 327.834624 386.273659 
L 340.321337 388.208299 
L 352.808051 412.212201 
L 365.294764 427.597002 
L 377.781477 432.613912 
L 390.268191 437.901725 
L 402.754904 440.391233 
L 415.241617 455.28797 
L 427.72833 454.271136 
L 440.215044 461.723194 
L 452.701757 465.914701 
L 465.18847 463.839647 
L 477.675184 474.154768 
L 490.161897 475.864161 
L 502.64861 475.920981 
L 515.135323 484.170651 
L 527.622037 488.568295 
L 540.10875 487.934707 
L 552.595463 490.46205 
L 565.082177 496.457407 
L 577.56889 494.462355 
L 590.055603 502.561241 
L 602.542316 505.373479 
L 615.02903 505.810385 
L 627.515743 506.516486 
L 640.002456 506.69939 
L 652.48917 511.274254 
L 664.975883 517.047347 
L 677.462596 516.866151 
L 689.949309 519.93756 
L 702.436023 520.828671 
L 714.922736 526.363388 
L 727.409449 522.757316 
L 739.896163 527.149968 
L 752.382876 529.302026 
L 764.869589 529.487655 
L 777.356302 531.81202 
L 789.843016 533.643477 
L 802.329729 532.665804 
L 814.816442 537.024486 
L 827.303156 536.103007 
L 839.789869 537.484869 
L 852.276582 538.64823 
L 864.763295 538.656205 
L 877.250009 539.729748 
L 889.736722 542.013561 
L 902.223435 541.381114 
L 914.710149 544.792595 
L 927.196862 544.90904 
L 939.683575 547.43142 
" style="fill:none;stroke:#dd8452;stroke-linecap:round;stroke-width:2.5;"/>
    <g clip-path="url(#pc3cc051011)">
     <use style="fill:#dd8452;stroke:#dd8452;stroke-linejoin:miter;" x="140.533925" xlink:href="#m11dd5ff16e" y="85.146548"/>
     <use style="fill:#dd8452;stroke:#dd8452;stroke-linejoin:miter;" x="153.020638" xlink:href="#m11dd5ff16e" y="156.808646"/>
     <use style="fill:#dd8452;stroke:#dd8452;stroke-linejoin:miter;" x="165.507351" xlink:href="#m11dd5ff16e" y="192.36"/>
     <use style="fill:#dd8452;stroke:#dd8452;stroke-linejoin:miter;" x="177.994065" xlink:href="#m11dd5ff16e" y="215.034809"/>
     <use style="fill:#dd8452;stroke:#dd8452;stroke-linejoin:miter;" x="190.480778" xlink:href="#m11dd5ff16e" y="233.172524"/>
     <use style="fill:#dd8452;stroke:#dd8452;stroke-linejoin:miter;" x="202.967491" xlink:href="#m11dd5ff16e" y="242.788518"/>
     <use style="fill:#dd8452;stroke:#dd8452;stroke-linejoin:miter;" x="215.454205" xlink:href="#m11dd5ff16e" y="253.848305"/>
     <use style="fill:#dd8452;stroke:#dd8452;stroke-linejoin:miter;" x="227.940918" xlink:href="#m11dd5ff16e" y="261.239787"/>
     <use style="fill:#dd8452;stroke:#dd8452;stroke-linejoin:miter;" x="240.427631" xlink:href="#m11dd5ff16e" y="274.048407"/>
     <use style="fill:#dd8452;stroke:#dd8452;stroke-linejoin:miter;" x="252.914344" xlink:href="#m11dd5ff16e" y="289.041686"/>
     <use style="fill:#dd8452;stroke:#dd8452;stroke-linejoin:miter;" x="265.401058" xlink:href="#m11dd5ff16e" y="304.609612"/>
     <use style="fill:#dd8452;stroke:#dd8452;stroke-linejoin:miter;" x="277.887771" xlink:href="#m11dd5ff16e" y="324.955784"/>
     <use style="fill:#dd8452;stroke:#dd8452;stroke-linejoin:miter;" x="290.374484" xlink:href="#m11dd5ff16e" y="332.839145"/>
     <use style="fill:#dd8452;stroke:#dd8452;stroke-linejoin:miter;" x="302.861198" xlink:href="#m11dd5ff16e" y="348.689049"/>
     <use style="fill:#dd8452;stroke:#dd8452;stroke-linejoin:miter;" x="315.347911" xlink:href="#m11dd5ff16e" y="355.609508"/>
     <use style="fill:#dd8452;stroke:#dd8452;stroke-linejoin:miter;" x="327.834624" xlink:href="#m11dd5ff16e" y="386.273659"/>
     <use style="fill:#dd8452;stroke:#dd8452;stroke-linejoin:miter;" x="340.321337" xlink:href="#m11dd5ff16e" y="388.208299"/>
     <use style="fill:#dd8452;stroke:#dd8452;stroke-linejoin:miter;" x="352.808051" xlink:href="#m11dd5ff16e" y="412.212201"/>
     <use style="fill:#dd8452;stroke:#dd8452;stroke-linejoin:miter;" x="365.294764" xlink:href="#m11dd5ff16e" y="427.597002"/>
     <use style="fill:#dd8452;stroke:#dd8452;stroke-linejoin:miter;" x="377.781477" xlink:href="#m11dd5ff16e" y="432.613912"/>
     <use style="fill:#dd8452;stroke:#dd8452;stroke-linejoin:miter;" x="390.268191" xlink:href="#m11dd5ff16e" y="437.901725"/>
     <use style="fill:#dd8452;stroke:#dd8452;stroke-linejoin:miter;" x="402.754904" xlink:href="#m11dd5ff16e" y="440.391233"/>
     <use style="fill:#dd8452;stroke:#dd8452;stroke-linejoin:miter;" x="415.241617" xlink:href="#m11dd5ff16e" y="455.28797"/>
     <use style="fill:#dd8452;stroke:#dd8452;stroke-linejoin:miter;" x="427.72833" xlink:href="#m11dd5ff16e" y="454.271136"/>
     <use style="fill:#dd8452;stroke:#dd8452;stroke-linejoin:miter;" x="440.215044" xlink:href="#m11dd5ff16e" y="461.723194"/>
     <use style="fill:#dd8452;stroke:#dd8452;stroke-linejoin:miter;" x="452.701757" xlink:href="#m11dd5ff16e" y="465.914701"/>
     <use style="fill:#dd8452;stroke:#dd8452;stroke-linejoin:miter;" x="465.18847" xlink:href="#m11dd5ff16e" y="463.839647"/>
     <use style="fill:#dd8452;stroke:#dd8452;stroke-linejoin:miter;" x="477.675184" xlink:href="#m11dd5ff16e" y="474.154768"/>
     <use style="fill:#dd8452;stroke:#dd8452;stroke-linejoin:miter;" x="490.161897" xlink:href="#m11dd5ff16e" y="475.864161"/>
     <use style="fill:#dd8452;stroke:#dd8452;stroke-linejoin:miter;" x="502.64861" xlink:href="#m11dd5ff16e" y="475.920981"/>
     <use style="fill:#dd8452;stroke:#dd8452;stroke-linejoin:miter;" x="515.135323" xlink:href="#m11dd5ff16e" y="484.170651"/>
     <use style="fill:#dd8452;stroke:#dd8452;stroke-linejoin:miter;" x="527.622037" xlink:href="#m11dd5ff16e" y="488.568295"/>
     <use style="fill:#dd8452;stroke:#dd8452;stroke-linejoin:miter;" x="540.10875" xlink:href="#m11dd5ff16e" y="487.934707"/>
     <use style="fill:#dd8452;stroke:#dd8452;stroke-linejoin:miter;" x="552.595463" xlink:href="#m11dd5ff16e" y="490.46205"/>
     <use style="fill:#dd8452;stroke:#dd8452;stroke-linejoin:miter;" x="565.082177" xlink:href="#m11dd5ff16e" y="496.457407"/>
     <use style="fill:#dd8452;stroke:#dd8452;stroke-linejoin:miter;" x="577.56889" xlink:href="#m11dd5ff16e" y="494.462355"/>
     <use style="fill:#dd8452;stroke:#dd8452;stroke-linejoin:miter;" x="590.055603" xlink:href="#m11dd5ff16e" y="502.561241"/>
     <use style="fill:#dd8452;stroke:#dd8452;stroke-linejoin:miter;" x="602.542316" xlink:href="#m11dd5ff16e" y="505.373479"/>
     <use style="fill:#dd8452;stroke:#dd8452;stroke-linejoin:miter;" x="615.02903" xlink:href="#m11dd5ff16e" y="505.810385"/>
     <use style="fill:#dd8452;stroke:#dd8452;stroke-linejoin:miter;" x="627.515743" xlink:href="#m11dd5ff16e" y="506.516486"/>
     <use style="fill:#dd8452;stroke:#dd8452;stroke-linejoin:miter;" x="640.002456" xlink:href="#m11dd5ff16e" y="506.69939"/>
     <use style="fill:#dd8452;stroke:#dd8452;stroke-linejoin:miter;" x="652.48917" xlink:href="#m11dd5ff16e" y="511.274254"/>
     <use style="fill:#dd8452;stroke:#dd8452;stroke-linejoin:miter;" x="664.975883" xlink:href="#m11dd5ff16e" y="517.047347"/>
     <use style="fill:#dd8452;stroke:#dd8452;stroke-linejoin:miter;" x="677.462596" xlink:href="#m11dd5ff16e" y="516.866151"/>
     <use style="fill:#dd8452;stroke:#dd8452;stroke-linejoin:miter;" x="689.949309" xlink:href="#m11dd5ff16e" y="519.93756"/>
     <use style="fill:#dd8452;stroke:#dd8452;stroke-linejoin:miter;" x="702.436023" xlink:href="#m11dd5ff16e" y="520.828671"/>
     <use style="fill:#dd8452;stroke:#dd8452;stroke-linejoin:miter;" x="714.922736" xlink:href="#m11dd5ff16e" y="526.363388"/>
     <use style="fill:#dd8452;stroke:#dd8452;stroke-linejoin:miter;" x="727.409449" xlink:href="#m11dd5ff16e" y="522.757316"/>
     <use style="fill:#dd8452;stroke:#dd8452;stroke-linejoin:miter;" x="739.896163" xlink:href="#m11dd5ff16e" y="527.149968"/>
     <use style="fill:#dd8452;stroke:#dd8452;stroke-linejoin:miter;" x="752.382876" xlink:href="#m11dd5ff16e" y="529.302026"/>
     <use style="fill:#dd8452;stroke:#dd8452;stroke-linejoin:miter;" x="764.869589" xlink:href="#m11dd5ff16e" y="529.487655"/>
     <use style="fill:#dd8452;stroke:#dd8452;stroke-linejoin:miter;" x="777.356302" xlink:href="#m11dd5ff16e" y="531.81202"/>
     <use style="fill:#dd8452;stroke:#dd8452;stroke-linejoin:miter;" x="789.843016" xlink:href="#m11dd5ff16e" y="533.643477"/>
     <use style="fill:#dd8452;stroke:#dd8452;stroke-linejoin:miter;" x="802.329729" xlink:href="#m11dd5ff16e" y="532.665804"/>
     <use style="fill:#dd8452;stroke:#dd8452;stroke-linejoin:miter;" x="814.816442" xlink:href="#m11dd5ff16e" y="537.024486"/>
     <use style="fill:#dd8452;stroke:#dd8452;stroke-linejoin:miter;" x="827.303156" xlink:href="#m11dd5ff16e" y="536.103007"/>
     <use style="fill:#dd8452;stroke:#dd8452;stroke-linejoin:miter;" x="839.789869" xlink:href="#m11dd5ff16e" y="537.484869"/>
     <use style="fill:#dd8452;stroke:#dd8452;stroke-linejoin:miter;" x="852.276582" xlink:href="#m11dd5ff16e" y="538.64823"/>
     <use style="fill:#dd8452;stroke:#dd8452;stroke-linejoin:miter;" x="864.763295" xlink:href="#m11dd5ff16e" y="538.656205"/>
     <use style="fill:#dd8452;stroke:#dd8452;stroke-linejoin:miter;" x="877.250009" xlink:href="#m11dd5ff16e" y="539.729748"/>
     <use style="fill:#dd8452;stroke:#dd8452;stroke-linejoin:miter;" x="889.736722" xlink:href="#m11dd5ff16e" y="542.013561"/>
     <use style="fill:#dd8452;stroke:#dd8452;stroke-linejoin:miter;" x="902.223435" xlink:href="#m11dd5ff16e" y="541.381114"/>
     <use style="fill:#dd8452;stroke:#dd8452;stroke-linejoin:miter;" x="914.710149" xlink:href="#m11dd5ff16e" y="544.792595"/>
     <use style="fill:#dd8452;stroke:#dd8452;stroke-linejoin:miter;" x="927.196862" xlink:href="#m11dd5ff16e" y="544.90904"/>
     <use style="fill:#dd8452;stroke:#dd8452;stroke-linejoin:miter;" x="939.683575" xlink:href="#m11dd5ff16e" y="547.43142"/>
    </g>
   </g>
   <g id="patch_8">
    <path d="M 93.70875 668.638125 
L 93.70875 16.318125 
" style="fill:none;stroke:#ffffff;stroke-linecap:square;stroke-linejoin:miter;stroke-width:1.25;"/>
   </g>
   <g id="patch_9">
    <path d="M 986.50875 668.638125 
L 986.50875 16.318125 
" style="fill:none;stroke:#ffffff;stroke-linecap:square;stroke-linejoin:miter;stroke-width:1.25;"/>
   </g>
   <g id="patch_10">
    <path d="M 93.70875 668.638125 
L 986.50875 668.638125 
" style="fill:none;stroke:#ffffff;stroke-linecap:square;stroke-linejoin:miter;stroke-width:1.25;"/>
   </g>
   <g id="patch_11">
    <path d="M 93.70875 16.318125 
L 986.50875 16.318125 
" style="fill:none;stroke:#ffffff;stroke-linecap:square;stroke-linejoin:miter;stroke-width:1.25;"/>
   </g>
  </g>
 </g>
 <defs>
  <clipPath id="pc3cc051011">
   <rect height="652.32" width="892.8" x="93.70875" y="16.318125"/>
  </clipPath>
 </defs>
</svg>
