<?xml version="1.0" encoding="utf-8" standalone="no"?>
<!DOCTYPE svg PUBLIC "-//W3C//DTD SVG 1.1//EN"
  "http://www.w3.org/Graphics/SVG/1.1/DTD/svg11.dtd">
<!-- Created with matplotlib (https://matplotlib.org/) -->
<svg height="742.16pt" version="1.1" viewBox="0 0 1321.805625 742.16" width="1321.805625pt" xmlns="http://www.w3.org/2000/svg" xmlns:xlink="http://www.w3.org/1999/xlink">
 <metadata>
  <rdf:RDF xmlns:cc="http://creativecommons.org/ns#" xmlns:dc="http://purl.org/dc/elements/1.1/" xmlns:rdf="http://www.w3.org/1999/02/22-rdf-syntax-ns#">
   <cc:Work>
    <dc:type rdf:resource="http://purl.org/dc/dcmitype/StillImage"/>
    <dc:date>2022-07-27T01:23:17.954236</dc:date>
    <dc:format>image/svg+xml</dc:format>
    <dc:creator>
     <cc:Agent>
      <dc:title>Matplotlib v3.3.4, https://matplotlib.org/</dc:title>
     </cc:Agent>
    </dc:creator>
   </cc:Work>
  </rdf:RDF>
 </metadata>
 <defs>
  <style type="text/css">*{stroke-linecap:butt;stroke-linejoin:round;}</style>
 </defs>
 <g id="figure_1">
  <g id="patch_1">
   <path d="M 0 742.16 
L 1321.805625 742.16 
L 1321.805625 0 
L 0 0 
z
" style="fill:#ffffff;"/>
  </g>
  <g id="axes_1">
   <g id="patch_2">
    <path d="M 91.17125 659.52 
L 1207.17125 659.52 
L 1207.17125 7.2 
L 91.17125 7.2 
z
" style="fill:#eaeaf2;"/>
   </g>
   <g id="matplotlib.axis_1">
    <g id="xtick_1">
     <g id="line2d_1">
      <path clip-path="url(#p96123630a2)" d="M 141.898523 659.52 
L 141.898523 7.2 
" style="fill:none;stroke:#ffffff;stroke-linecap:round;"/>
     </g>
     <g id="text_1">
      <!-- 0 -->
      <g style="fill:#262626;" transform="translate(132.991023 690.295625)scale(0.28 -0.28)">
       <defs>
        <path d="M 31.78125 66.40625 
Q 24.171875 66.40625 20.328125 58.90625 
Q 16.5 51.421875 16.5 36.375 
Q 16.5 21.390625 20.328125 13.890625 
Q 24.171875 6.390625 31.78125 6.390625 
Q 39.453125 6.390625 43.28125 13.890625 
Q 47.125 21.390625 47.125 36.375 
Q 47.125 51.421875 43.28125 58.90625 
Q 39.453125 66.40625 31.78125 66.40625 
z
M 31.78125 74.21875 
Q 44.046875 74.21875 50.515625 64.515625 
Q 56.984375 54.828125 56.984375 36.375 
Q 56.984375 17.96875 50.515625 8.265625 
Q 44.046875 -1.421875 31.78125 -1.421875 
Q 19.53125 -1.421875 13.0625 8.265625 
Q 6.59375 17.96875 6.59375 36.375 
Q 6.59375 54.828125 13.0625 64.515625 
Q 19.53125 74.21875 31.78125 74.21875 
z
" id="DejaVuSans-48"/>
       </defs>
       <use xlink:href="#DejaVuSans-48"/>
      </g>
     </g>
    </g>
    <g id="xtick_2">
     <g id="line2d_2">
      <path clip-path="url(#p96123630a2)" d="M 383.456964 659.52 
L 383.456964 7.2 
" style="fill:none;stroke:#ffffff;stroke-linecap:round;"/>
     </g>
     <g id="text_2">
      <!-- 50 -->
      <g style="fill:#262626;" transform="translate(365.641964 690.295625)scale(0.28 -0.28)">
       <defs>
        <path d="M 10.796875 72.90625 
L 49.515625 72.90625 
L 49.515625 64.59375 
L 19.828125 64.59375 
L 19.828125 46.734375 
Q 21.96875 47.46875 24.109375 47.828125 
Q 26.265625 48.1875 28.421875 48.1875 
Q 40.625 48.1875 47.75 41.5 
Q 54.890625 34.8125 54.890625 23.390625 
Q 54.890625 11.625 47.5625 5.09375 
Q 40.234375 -1.421875 26.90625 -1.421875 
Q 22.3125 -1.421875 17.546875 -0.640625 
Q 12.796875 0.140625 7.71875 1.703125 
L 7.71875 11.625 
Q 12.109375 9.234375 16.796875 8.0625 
Q 21.484375 6.890625 26.703125 6.890625 
Q 35.15625 6.890625 40.078125 11.328125 
Q 45.015625 15.765625 45.015625 23.390625 
Q 45.015625 31 40.078125 35.4375 
Q 35.15625 39.890625 26.703125 39.890625 
Q 22.75 39.890625 18.8125 39.015625 
Q 14.890625 38.140625 10.796875 36.28125 
z
" id="DejaVuSans-53"/>
       </defs>
       <use xlink:href="#DejaVuSans-53"/>
       <use x="63.623047" xlink:href="#DejaVuSans-48"/>
      </g>
     </g>
    </g>
    <g id="xtick_3">
     <g id="line2d_3">
      <path clip-path="url(#p96123630a2)" d="M 625.015406 659.52 
L 625.015406 7.2 
" style="fill:none;stroke:#ffffff;stroke-linecap:round;"/>
     </g>
     <g id="text_3">
      <!-- 100 -->
      <g style="fill:#262626;" transform="translate(598.292906 690.295625)scale(0.28 -0.28)">
       <defs>
        <path d="M 12.40625 8.296875 
L 28.515625 8.296875 
L 28.515625 63.921875 
L 10.984375 60.40625 
L 10.984375 69.390625 
L 28.421875 72.90625 
L 38.28125 72.90625 
L 38.28125 8.296875 
L 54.390625 8.296875 
L 54.390625 0 
L 12.40625 0 
z
" id="DejaVuSans-49"/>
       </defs>
       <use xlink:href="#DejaVuSans-49"/>
       <use x="63.623047" xlink:href="#DejaVuSans-48"/>
       <use x="127.246094" xlink:href="#DejaVuSans-48"/>
      </g>
     </g>
    </g>
    <g id="xtick_4">
     <g id="line2d_4">
      <path clip-path="url(#p96123630a2)" d="M 866.573847 659.52 
L 866.573847 7.2 
" style="fill:none;stroke:#ffffff;stroke-linecap:round;"/>
     </g>
     <g id="text_4">
      <!-- 150 -->
      <g style="fill:#262626;" transform="translate(839.851347 690.295625)scale(0.28 -0.28)">
       <use xlink:href="#DejaVuSans-49"/>
       <use x="63.623047" xlink:href="#DejaVuSans-53"/>
       <use x="127.246094" xlink:href="#DejaVuSans-48"/>
      </g>
     </g>
    </g>
    <g id="xtick_5">
     <g id="line2d_5">
      <path clip-path="url(#p96123630a2)" d="M 1108.132289 659.52 
L 1108.132289 7.2 
" style="fill:none;stroke:#ffffff;stroke-linecap:round;"/>
     </g>
     <g id="text_5">
      <!-- 200 -->
      <g style="fill:#262626;" transform="translate(1081.409789 690.295625)scale(0.28 -0.28)">
       <defs>
        <path d="M 19.1875 8.296875 
L 53.609375 8.296875 
L 53.609375 0 
L 7.328125 0 
L 7.328125 8.296875 
Q 12.9375 14.109375 22.625 23.890625 
Q 32.328125 33.6875 34.8125 36.53125 
Q 39.546875 41.84375 41.421875 45.53125 
Q 43.3125 49.21875 43.3125 52.78125 
Q 43.3125 58.59375 39.234375 62.25 
Q 35.15625 65.921875 28.609375 65.921875 
Q 23.96875 65.921875 18.8125 64.3125 
Q 13.671875 62.703125 7.8125 59.421875 
L 7.8125 69.390625 
Q 13.765625 71.78125 18.9375 73 
Q 24.125 74.21875 28.421875 74.21875 
Q 39.75 74.21875 46.484375 68.546875 
Q 53.21875 62.890625 53.21875 53.421875 
Q 53.21875 48.921875 51.53125 44.890625 
Q 49.859375 40.875 45.40625 35.40625 
Q 44.1875 33.984375 37.640625 27.21875 
Q 31.109375 20.453125 19.1875 8.296875 
z
" id="DejaVuSans-50"/>
       </defs>
       <use xlink:href="#DejaVuSans-50"/>
       <use x="63.623047" xlink:href="#DejaVuSans-48"/>
       <use x="127.246094" xlink:href="#DejaVuSans-48"/>
      </g>
     </g>
    </g>
    <g id="text_6">
     <!-- Epochs (n.u.) -->
     <g style="fill:#262626;" transform="translate(530.6525 727.473125)scale(0.36 -0.36)">
      <defs>
       <path d="M 9.8125 72.90625 
L 55.90625 72.90625 
L 55.90625 64.59375 
L 19.671875 64.59375 
L 19.671875 43.015625 
L 54.390625 43.015625 
L 54.390625 34.71875 
L 19.671875 34.71875 
L 19.671875 8.296875 
L 56.78125 8.296875 
L 56.78125 0 
L 9.8125 0 
z
" id="DejaVuSans-69"/>
       <path d="M 18.109375 8.203125 
L 18.109375 -20.796875 
L 9.078125 -20.796875 
L 9.078125 54.6875 
L 18.109375 54.6875 
L 18.109375 46.390625 
Q 20.953125 51.265625 25.265625 53.625 
Q 29.59375 56 35.59375 56 
Q 45.5625 56 51.78125 48.09375 
Q 58.015625 40.1875 58.015625 27.296875 
Q 58.015625 14.40625 51.78125 6.484375 
Q 45.5625 -1.421875 35.59375 -1.421875 
Q 29.59375 -1.421875 25.265625 0.953125 
Q 20.953125 3.328125 18.109375 8.203125 
z
M 48.6875 27.296875 
Q 48.6875 37.203125 44.609375 42.84375 
Q 40.53125 48.484375 33.40625 48.484375 
Q 26.265625 48.484375 22.1875 42.84375 
Q 18.109375 37.203125 18.109375 27.296875 
Q 18.109375 17.390625 22.1875 11.75 
Q 26.265625 6.109375 33.40625 6.109375 
Q 40.53125 6.109375 44.609375 11.75 
Q 48.6875 17.390625 48.6875 27.296875 
z
" id="DejaVuSans-112"/>
       <path d="M 30.609375 48.390625 
Q 23.390625 48.390625 19.1875 42.75 
Q 14.984375 37.109375 14.984375 27.296875 
Q 14.984375 17.484375 19.15625 11.84375 
Q 23.34375 6.203125 30.609375 6.203125 
Q 37.796875 6.203125 41.984375 11.859375 
Q 46.1875 17.53125 46.1875 27.296875 
Q 46.1875 37.015625 41.984375 42.703125 
Q 37.796875 48.390625 30.609375 48.390625 
z
M 30.609375 56 
Q 42.328125 56 49.015625 48.375 
Q 55.71875 40.765625 55.71875 27.296875 
Q 55.71875 13.875 49.015625 6.21875 
Q 42.328125 -1.421875 30.609375 -1.421875 
Q 18.84375 -1.421875 12.171875 6.21875 
Q 5.515625 13.875 5.515625 27.296875 
Q 5.515625 40.765625 12.171875 48.375 
Q 18.84375 56 30.609375 56 
z
" id="DejaVuSans-111"/>
       <path d="M 48.78125 52.59375 
L 48.78125 44.1875 
Q 44.96875 46.296875 41.140625 47.34375 
Q 37.3125 48.390625 33.40625 48.390625 
Q 24.65625 48.390625 19.8125 42.84375 
Q 14.984375 37.3125 14.984375 27.296875 
Q 14.984375 17.28125 19.8125 11.734375 
Q 24.65625 6.203125 33.40625 6.203125 
Q 37.3125 6.203125 41.140625 7.25 
Q 44.96875 8.296875 48.78125 10.40625 
L 48.78125 2.09375 
Q 45.015625 0.34375 40.984375 -0.53125 
Q 36.96875 -1.421875 32.421875 -1.421875 
Q 20.0625 -1.421875 12.78125 6.34375 
Q 5.515625 14.109375 5.515625 27.296875 
Q 5.515625 40.671875 12.859375 48.328125 
Q 20.21875 56 33.015625 56 
Q 37.15625 56 41.109375 55.140625 
Q 45.0625 54.296875 48.78125 52.59375 
z
" id="DejaVuSans-99"/>
       <path d="M 54.890625 33.015625 
L 54.890625 0 
L 45.90625 0 
L 45.90625 32.71875 
Q 45.90625 40.484375 42.875 44.328125 
Q 39.84375 48.1875 33.796875 48.1875 
Q 26.515625 48.1875 22.3125 43.546875 
Q 18.109375 38.921875 18.109375 30.90625 
L 18.109375 0 
L 9.078125 0 
L 9.078125 75.984375 
L 18.109375 75.984375 
L 18.109375 46.1875 
Q 21.34375 51.125 25.703125 53.5625 
Q 30.078125 56 35.796875 56 
Q 45.21875 56 50.046875 50.171875 
Q 54.890625 44.34375 54.890625 33.015625 
z
" id="DejaVuSans-104"/>
       <path d="M 44.28125 53.078125 
L 44.28125 44.578125 
Q 40.484375 46.53125 36.375 47.5 
Q 32.28125 48.484375 27.875 48.484375 
Q 21.1875 48.484375 17.84375 46.4375 
Q 14.5 44.390625 14.5 40.28125 
Q 14.5 37.15625 16.890625 35.375 
Q 19.28125 33.59375 26.515625 31.984375 
L 29.59375 31.296875 
Q 39.15625 29.25 43.1875 25.515625 
Q 47.21875 21.78125 47.21875 15.09375 
Q 47.21875 7.46875 41.1875 3.015625 
Q 35.15625 -1.421875 24.609375 -1.421875 
Q 20.21875 -1.421875 15.453125 -0.5625 
Q 10.6875 0.296875 5.421875 2 
L 5.421875 11.28125 
Q 10.40625 8.6875 15.234375 7.390625 
Q 20.0625 6.109375 24.8125 6.109375 
Q 31.15625 6.109375 34.5625 8.28125 
Q 37.984375 10.453125 37.984375 14.40625 
Q 37.984375 18.0625 35.515625 20.015625 
Q 33.0625 21.96875 24.703125 23.78125 
L 21.578125 24.515625 
Q 13.234375 26.265625 9.515625 29.90625 
Q 5.8125 33.546875 5.8125 39.890625 
Q 5.8125 47.609375 11.28125 51.796875 
Q 16.75 56 26.8125 56 
Q 31.78125 56 36.171875 55.265625 
Q 40.578125 54.546875 44.28125 53.078125 
z
" id="DejaVuSans-115"/>
       <path id="DejaVuSans-32"/>
       <path d="M 31 75.875 
Q 24.46875 64.65625 21.28125 53.65625 
Q 18.109375 42.671875 18.109375 31.390625 
Q 18.109375 20.125 21.3125 9.0625 
Q 24.515625 -2 31 -13.1875 
L 23.1875 -13.1875 
Q 15.875 -1.703125 12.234375 9.375 
Q 8.59375 20.453125 8.59375 31.390625 
Q 8.59375 42.28125 12.203125 53.3125 
Q 15.828125 64.359375 23.1875 75.875 
z
" id="DejaVuSans-40"/>
       <path d="M 54.890625 33.015625 
L 54.890625 0 
L 45.90625 0 
L 45.90625 32.71875 
Q 45.90625 40.484375 42.875 44.328125 
Q 39.84375 48.1875 33.796875 48.1875 
Q 26.515625 48.1875 22.3125 43.546875 
Q 18.109375 38.921875 18.109375 30.90625 
L 18.109375 0 
L 9.078125 0 
L 9.078125 54.6875 
L 18.109375 54.6875 
L 18.109375 46.1875 
Q 21.34375 51.125 25.703125 53.5625 
Q 30.078125 56 35.796875 56 
Q 45.21875 56 50.046875 50.171875 
Q 54.890625 44.34375 54.890625 33.015625 
z
" id="DejaVuSans-110"/>
       <path d="M 10.6875 12.40625 
L 21 12.40625 
L 21 0 
L 10.6875 0 
z
" id="DejaVuSans-46"/>
       <path d="M 8.5 21.578125 
L 8.5 54.6875 
L 17.484375 54.6875 
L 17.484375 21.921875 
Q 17.484375 14.15625 20.5 10.265625 
Q 23.53125 6.390625 29.59375 6.390625 
Q 36.859375 6.390625 41.078125 11.03125 
Q 45.3125 15.671875 45.3125 23.6875 
L 45.3125 54.6875 
L 54.296875 54.6875 
L 54.296875 0 
L 45.3125 0 
L 45.3125 8.40625 
Q 42.046875 3.421875 37.71875 1 
Q 33.40625 -1.421875 27.6875 -1.421875 
Q 18.265625 -1.421875 13.375 4.4375 
Q 8.5 10.296875 8.5 21.578125 
z
M 31.109375 56 
z
" id="DejaVuSans-117"/>
       <path d="M 8.015625 75.875 
L 15.828125 75.875 
Q 23.140625 64.359375 26.78125 53.3125 
Q 30.421875 42.28125 30.421875 31.390625 
Q 30.421875 20.453125 26.78125 9.375 
Q 23.140625 -1.703125 15.828125 -13.1875 
L 8.015625 -13.1875 
Q 14.5 -2 17.703125 9.0625 
Q 20.90625 20.125 20.90625 31.390625 
Q 20.90625 42.671875 17.703125 53.65625 
Q 14.5 64.65625 8.015625 75.875 
z
" id="DejaVuSans-41"/>
      </defs>
      <use xlink:href="#DejaVuSans-69"/>
      <use x="63.183594" xlink:href="#DejaVuSans-112"/>
      <use x="126.660156" xlink:href="#DejaVuSans-111"/>
      <use x="187.841797" xlink:href="#DejaVuSans-99"/>
      <use x="242.822266" xlink:href="#DejaVuSans-104"/>
      <use x="306.201172" xlink:href="#DejaVuSans-115"/>
      <use x="358.300781" xlink:href="#DejaVuSans-32"/>
      <use x="390.087891" xlink:href="#DejaVuSans-40"/>
      <use x="429.101562" xlink:href="#DejaVuSans-110"/>
      <use x="492.480469" xlink:href="#DejaVuSans-46"/>
      <use x="524.267578" xlink:href="#DejaVuSans-117"/>
      <use x="587.646484" xlink:href="#DejaVuSans-46"/>
      <use x="619.433594" xlink:href="#DejaVuSans-41"/>
     </g>
    </g>
   </g>
   <g id="matplotlib.axis_2">
    <g id="ytick_1">
     <g id="line2d_6">
      <path clip-path="url(#p96123630a2)" d="M 91.17125 594.288 
L 1207.17125 594.288 
" style="fill:none;stroke:#ffffff;stroke-linecap:round;"/>
     </g>
     <g id="line2d_7">
      <defs>
       <path d="M 0 0 
L -6 0 
" id="m3620ed3130" style="stroke:#262626;stroke-width:1.25;"/>
      </defs>
      <g>
       <use style="fill:#262626;stroke:#262626;stroke-width:1.25;" x="91.17125" xlink:href="#m3620ed3130" y="594.288"/>
      </g>
     </g>
     <g id="text_7">
      <!-- 15 -->
      <g style="fill:#262626;" transform="translate(46.04125 604.925813)scale(0.28 -0.28)">
       <use xlink:href="#DejaVuSans-49"/>
       <use x="63.623047" xlink:href="#DejaVuSans-53"/>
      </g>
     </g>
    </g>
    <g id="ytick_2">
     <g id="line2d_8">
      <path clip-path="url(#p96123630a2)" d="M 91.17125 463.824 
L 1207.17125 463.824 
" style="fill:none;stroke:#ffffff;stroke-linecap:round;"/>
     </g>
     <g id="line2d_9">
      <g>
       <use style="fill:#262626;stroke:#262626;stroke-width:1.25;" x="91.17125" xlink:href="#m3620ed3130" y="463.824"/>
      </g>
     </g>
     <g id="text_8">
      <!-- 25 -->
      <g style="fill:#262626;" transform="translate(46.04125 474.461812)scale(0.28 -0.28)">
       <use xlink:href="#DejaVuSans-50"/>
       <use x="63.623047" xlink:href="#DejaVuSans-53"/>
      </g>
     </g>
    </g>
    <g id="ytick_3">
     <g id="line2d_10">
      <path clip-path="url(#p96123630a2)" d="M 91.17125 333.36 
L 1207.17125 333.36 
" style="fill:none;stroke:#ffffff;stroke-linecap:round;"/>
     </g>
     <g id="line2d_11">
      <g>
       <use style="fill:#262626;stroke:#262626;stroke-width:1.25;" x="91.17125" xlink:href="#m3620ed3130" y="333.36"/>
      </g>
     </g>
     <g id="text_9">
      <!-- 35 -->
      <g style="fill:#262626;" transform="translate(46.04125 343.997812)scale(0.28 -0.28)">
       <defs>
        <path d="M 40.578125 39.3125 
Q 47.65625 37.796875 51.625 33 
Q 55.609375 28.21875 55.609375 21.1875 
Q 55.609375 10.40625 48.1875 4.484375 
Q 40.765625 -1.421875 27.09375 -1.421875 
Q 22.515625 -1.421875 17.65625 -0.515625 
Q 12.796875 0.390625 7.625 2.203125 
L 7.625 11.71875 
Q 11.71875 9.328125 16.59375 8.109375 
Q 21.484375 6.890625 26.8125 6.890625 
Q 36.078125 6.890625 40.9375 10.546875 
Q 45.796875 14.203125 45.796875 21.1875 
Q 45.796875 27.640625 41.28125 31.265625 
Q 36.765625 34.90625 28.71875 34.90625 
L 20.21875 34.90625 
L 20.21875 43.015625 
L 29.109375 43.015625 
Q 36.375 43.015625 40.234375 45.921875 
Q 44.09375 48.828125 44.09375 54.296875 
Q 44.09375 59.90625 40.109375 62.90625 
Q 36.140625 65.921875 28.71875 65.921875 
Q 24.65625 65.921875 20.015625 65.03125 
Q 15.375 64.15625 9.8125 62.3125 
L 9.8125 71.09375 
Q 15.4375 72.65625 20.34375 73.4375 
Q 25.25 74.21875 29.59375 74.21875 
Q 40.828125 74.21875 47.359375 69.109375 
Q 53.90625 64.015625 53.90625 55.328125 
Q 53.90625 49.265625 50.4375 45.09375 
Q 46.96875 40.921875 40.578125 39.3125 
z
" id="DejaVuSans-51"/>
       </defs>
       <use xlink:href="#DejaVuSans-51"/>
       <use x="63.623047" xlink:href="#DejaVuSans-53"/>
      </g>
     </g>
    </g>
    <g id="ytick_4">
     <g id="line2d_12">
      <path clip-path="url(#p96123630a2)" d="M 91.17125 202.896 
L 1207.17125 202.896 
" style="fill:none;stroke:#ffffff;stroke-linecap:round;"/>
     </g>
     <g id="line2d_13">
      <g>
       <use style="fill:#262626;stroke:#262626;stroke-width:1.25;" x="91.17125" xlink:href="#m3620ed3130" y="202.896"/>
      </g>
     </g>
     <g id="text_10">
      <!-- 45 -->
      <g style="fill:#262626;" transform="translate(46.04125 213.533812)scale(0.28 -0.28)">
       <defs>
        <path d="M 37.796875 64.3125 
L 12.890625 25.390625 
L 37.796875 25.390625 
z
M 35.203125 72.90625 
L 47.609375 72.90625 
L 47.609375 25.390625 
L 58.015625 25.390625 
L 58.015625 17.1875 
L 47.609375 17.1875 
L 47.609375 0 
L 37.796875 0 
L 37.796875 17.1875 
L 4.890625 17.1875 
L 4.890625 26.703125 
z
" id="DejaVuSans-52"/>
       </defs>
       <use xlink:href="#DejaVuSans-52"/>
       <use x="63.623047" xlink:href="#DejaVuSans-53"/>
      </g>
     </g>
    </g>
    <g id="ytick_5">
     <g id="line2d_14">
      <path clip-path="url(#p96123630a2)" d="M 91.17125 72.432 
L 1207.17125 72.432 
" style="fill:none;stroke:#ffffff;stroke-linecap:round;"/>
     </g>
     <g id="line2d_15">
      <g>
       <use style="fill:#262626;stroke:#262626;stroke-width:1.25;" x="91.17125" xlink:href="#m3620ed3130" y="72.432"/>
      </g>
     </g>
     <g id="text_11">
      <!-- 55 -->
      <g style="fill:#262626;" transform="translate(46.04125 83.069812)scale(0.28 -0.28)">
       <use xlink:href="#DejaVuSans-53"/>
       <use x="63.623047" xlink:href="#DejaVuSans-53"/>
      </g>
     </g>
    </g>
    <g id="text_12">
     <!-- Standard Deviation (ms) -->
     <g style="fill:#262626;" transform="translate(34.554375 553.7475)rotate(-90)scale(0.36 -0.36)">
      <defs>
       <path d="M 53.515625 70.515625 
L 53.515625 60.890625 
Q 47.90625 63.578125 42.921875 64.890625 
Q 37.9375 66.21875 33.296875 66.21875 
Q 25.25 66.21875 20.875 63.09375 
Q 16.5 59.96875 16.5 54.203125 
Q 16.5 49.359375 19.40625 46.890625 
Q 22.3125 44.4375 30.421875 42.921875 
L 36.375 41.703125 
Q 47.40625 39.59375 52.65625 34.296875 
Q 57.90625 29 57.90625 20.125 
Q 57.90625 9.515625 50.796875 4.046875 
Q 43.703125 -1.421875 29.984375 -1.421875 
Q 24.8125 -1.421875 18.96875 -0.25 
Q 13.140625 0.921875 6.890625 3.21875 
L 6.890625 13.375 
Q 12.890625 10.015625 18.65625 8.296875 
Q 24.421875 6.59375 29.984375 6.59375 
Q 38.421875 6.59375 43.015625 9.90625 
Q 47.609375 13.234375 47.609375 19.390625 
Q 47.609375 24.75 44.3125 27.78125 
Q 41.015625 30.8125 33.5 32.328125 
L 27.484375 33.5 
Q 16.453125 35.6875 11.515625 40.375 
Q 6.59375 45.0625 6.59375 53.421875 
Q 6.59375 63.09375 13.40625 68.65625 
Q 20.21875 74.21875 32.171875 74.21875 
Q 37.3125 74.21875 42.625 73.28125 
Q 47.953125 72.359375 53.515625 70.515625 
z
" id="DejaVuSans-83"/>
       <path d="M 18.3125 70.21875 
L 18.3125 54.6875 
L 36.8125 54.6875 
L 36.8125 47.703125 
L 18.3125 47.703125 
L 18.3125 18.015625 
Q 18.3125 11.328125 20.140625 9.421875 
Q 21.96875 7.515625 27.59375 7.515625 
L 36.8125 7.515625 
L 36.8125 0 
L 27.59375 0 
Q 17.1875 0 13.234375 3.875 
Q 9.28125 7.765625 9.28125 18.015625 
L 9.28125 47.703125 
L 2.6875 47.703125 
L 2.6875 54.6875 
L 9.28125 54.6875 
L 9.28125 70.21875 
z
" id="DejaVuSans-116"/>
       <path d="M 34.28125 27.484375 
Q 23.390625 27.484375 19.1875 25 
Q 14.984375 22.515625 14.984375 16.5 
Q 14.984375 11.71875 18.140625 8.90625 
Q 21.296875 6.109375 26.703125 6.109375 
Q 34.1875 6.109375 38.703125 11.40625 
Q 43.21875 16.703125 43.21875 25.484375 
L 43.21875 27.484375 
z
M 52.203125 31.203125 
L 52.203125 0 
L 43.21875 0 
L 43.21875 8.296875 
Q 40.140625 3.328125 35.546875 0.953125 
Q 30.953125 -1.421875 24.3125 -1.421875 
Q 15.921875 -1.421875 10.953125 3.296875 
Q 6 8.015625 6 15.921875 
Q 6 25.140625 12.171875 29.828125 
Q 18.359375 34.515625 30.609375 34.515625 
L 43.21875 34.515625 
L 43.21875 35.40625 
Q 43.21875 41.609375 39.140625 45 
Q 35.0625 48.390625 27.6875 48.390625 
Q 23 48.390625 18.546875 47.265625 
Q 14.109375 46.140625 10.015625 43.890625 
L 10.015625 52.203125 
Q 14.9375 54.109375 19.578125 55.046875 
Q 24.21875 56 28.609375 56 
Q 40.484375 56 46.34375 49.84375 
Q 52.203125 43.703125 52.203125 31.203125 
z
" id="DejaVuSans-97"/>
       <path d="M 45.40625 46.390625 
L 45.40625 75.984375 
L 54.390625 75.984375 
L 54.390625 0 
L 45.40625 0 
L 45.40625 8.203125 
Q 42.578125 3.328125 38.25 0.953125 
Q 33.9375 -1.421875 27.875 -1.421875 
Q 17.96875 -1.421875 11.734375 6.484375 
Q 5.515625 14.40625 5.515625 27.296875 
Q 5.515625 40.1875 11.734375 48.09375 
Q 17.96875 56 27.875 56 
Q 33.9375 56 38.25 53.625 
Q 42.578125 51.265625 45.40625 46.390625 
z
M 14.796875 27.296875 
Q 14.796875 17.390625 18.875 11.75 
Q 22.953125 6.109375 30.078125 6.109375 
Q 37.203125 6.109375 41.296875 11.75 
Q 45.40625 17.390625 45.40625 27.296875 
Q 45.40625 37.203125 41.296875 42.84375 
Q 37.203125 48.484375 30.078125 48.484375 
Q 22.953125 48.484375 18.875 42.84375 
Q 14.796875 37.203125 14.796875 27.296875 
z
" id="DejaVuSans-100"/>
       <path d="M 41.109375 46.296875 
Q 39.59375 47.171875 37.8125 47.578125 
Q 36.03125 48 33.890625 48 
Q 26.265625 48 22.1875 43.046875 
Q 18.109375 38.09375 18.109375 28.8125 
L 18.109375 0 
L 9.078125 0 
L 9.078125 54.6875 
L 18.109375 54.6875 
L 18.109375 46.1875 
Q 20.953125 51.171875 25.484375 53.578125 
Q 30.03125 56 36.53125 56 
Q 37.453125 56 38.578125 55.875 
Q 39.703125 55.765625 41.0625 55.515625 
z
" id="DejaVuSans-114"/>
       <path d="M 19.671875 64.796875 
L 19.671875 8.109375 
L 31.59375 8.109375 
Q 46.6875 8.109375 53.6875 14.9375 
Q 60.6875 21.78125 60.6875 36.53125 
Q 60.6875 51.171875 53.6875 57.984375 
Q 46.6875 64.796875 31.59375 64.796875 
z
M 9.8125 72.90625 
L 30.078125 72.90625 
Q 51.265625 72.90625 61.171875 64.09375 
Q 71.09375 55.28125 71.09375 36.53125 
Q 71.09375 17.671875 61.125 8.828125 
Q 51.171875 0 30.078125 0 
L 9.8125 0 
z
" id="DejaVuSans-68"/>
       <path d="M 56.203125 29.59375 
L 56.203125 25.203125 
L 14.890625 25.203125 
Q 15.484375 15.921875 20.484375 11.0625 
Q 25.484375 6.203125 34.421875 6.203125 
Q 39.59375 6.203125 44.453125 7.46875 
Q 49.3125 8.734375 54.109375 11.28125 
L 54.109375 2.78125 
Q 49.265625 0.734375 44.1875 -0.34375 
Q 39.109375 -1.421875 33.890625 -1.421875 
Q 20.796875 -1.421875 13.15625 6.1875 
Q 5.515625 13.8125 5.515625 26.8125 
Q 5.515625 40.234375 12.765625 48.109375 
Q 20.015625 56 32.328125 56 
Q 43.359375 56 49.78125 48.890625 
Q 56.203125 41.796875 56.203125 29.59375 
z
M 47.21875 32.234375 
Q 47.125 39.59375 43.09375 43.984375 
Q 39.0625 48.390625 32.421875 48.390625 
Q 24.90625 48.390625 20.390625 44.140625 
Q 15.875 39.890625 15.1875 32.171875 
z
" id="DejaVuSans-101"/>
       <path d="M 2.984375 54.6875 
L 12.5 54.6875 
L 29.59375 8.796875 
L 46.6875 54.6875 
L 56.203125 54.6875 
L 35.6875 0 
L 23.484375 0 
z
" id="DejaVuSans-118"/>
       <path d="M 9.421875 54.6875 
L 18.40625 54.6875 
L 18.40625 0 
L 9.421875 0 
z
M 9.421875 75.984375 
L 18.40625 75.984375 
L 18.40625 64.59375 
L 9.421875 64.59375 
z
" id="DejaVuSans-105"/>
       <path d="M 52 44.1875 
Q 55.375 50.25 60.0625 53.125 
Q 64.75 56 71.09375 56 
Q 79.640625 56 84.28125 50.015625 
Q 88.921875 44.046875 88.921875 33.015625 
L 88.921875 0 
L 79.890625 0 
L 79.890625 32.71875 
Q 79.890625 40.578125 77.09375 44.375 
Q 74.3125 48.1875 68.609375 48.1875 
Q 61.625 48.1875 57.5625 43.546875 
Q 53.515625 38.921875 53.515625 30.90625 
L 53.515625 0 
L 44.484375 0 
L 44.484375 32.71875 
Q 44.484375 40.625 41.703125 44.40625 
Q 38.921875 48.1875 33.109375 48.1875 
Q 26.21875 48.1875 22.15625 43.53125 
Q 18.109375 38.875 18.109375 30.90625 
L 18.109375 0 
L 9.078125 0 
L 9.078125 54.6875 
L 18.109375 54.6875 
L 18.109375 46.1875 
Q 21.1875 51.21875 25.484375 53.609375 
Q 29.78125 56 35.6875 56 
Q 41.65625 56 45.828125 52.96875 
Q 50 49.953125 52 44.1875 
z
" id="DejaVuSans-109"/>
      </defs>
      <use xlink:href="#DejaVuSans-83"/>
      <use x="63.476562" xlink:href="#DejaVuSans-116"/>
      <use x="102.685547" xlink:href="#DejaVuSans-97"/>
      <use x="163.964844" xlink:href="#DejaVuSans-110"/>
      <use x="227.34375" xlink:href="#DejaVuSans-100"/>
      <use x="290.820312" xlink:href="#DejaVuSans-97"/>
      <use x="352.099609" xlink:href="#DejaVuSans-114"/>
      <use x="391.462891" xlink:href="#DejaVuSans-100"/>
      <use x="454.939453" xlink:href="#DejaVuSans-32"/>
      <use x="486.726562" xlink:href="#DejaVuSans-68"/>
      <use x="563.728516" xlink:href="#DejaVuSans-101"/>
      <use x="625.251953" xlink:href="#DejaVuSans-118"/>
      <use x="684.431641" xlink:href="#DejaVuSans-105"/>
      <use x="712.214844" xlink:href="#DejaVuSans-97"/>
      <use x="773.494141" xlink:href="#DejaVuSans-116"/>
      <use x="812.703125" xlink:href="#DejaVuSans-105"/>
      <use x="840.486328" xlink:href="#DejaVuSans-111"/>
      <use x="901.667969" xlink:href="#DejaVuSans-110"/>
      <use x="965.046875" xlink:href="#DejaVuSans-32"/>
      <use x="996.833984" xlink:href="#DejaVuSans-40"/>
      <use x="1035.847656" xlink:href="#DejaVuSans-109"/>
      <use x="1133.259766" xlink:href="#DejaVuSans-115"/>
      <use x="1185.359375" xlink:href="#DejaVuSans-41"/>
     </g>
    </g>
   </g>
   <g id="patch_3">
    <path clip-path="url(#p96123630a2)" d="M 262.677744 607.3344 
L 431.768653 607.3344 
L 431.768653 137.664 
L 262.677744 137.664 
z
" style="fill:#c44e52;opacity:0.3;stroke:#4c72b0;stroke-dasharray:3,4.95;stroke-dashoffset:0;stroke-linejoin:miter;stroke-width:3;"/>
   </g>
   <g id="line2d_16">
    <path clip-path="url(#p96123630a2)" d="M 141.898523 145.726228 
L 151.56086 209.874962 
L 161.223198 492.94444 
L 170.885536 523.731727 
L 180.547873 497.412997 
L 190.210211 426.577247 
L 199.872549 394.107037 
L 209.534886 341.739058 
L 219.197224 331.083829 
L 228.859562 295.64408 
L 238.521899 305.191793 
L 248.184237 245.315199 
L 257.846575 226.548732 
L 267.508912 235.080775 
L 277.17125 227.898314 
L 286.833588 306.286284 
L 296.495925 315.922724 
L 306.158263 343.186024 
L 315.820601 359.700541 
L 325.482938 369.282126 
L 335.145276 421.848511 
L 344.807614 461.869064 
L 354.469951 458.040357 
L 364.132289 475.11213 
L 373.794627 498.544001 
L 383.456964 504.965687 
L 393.119302 526.42111 
L 402.78164 532.790451 
L 412.443977 528.250756 
L 422.106315 542.346926 
L 431.768653 538.575734 
L 441.43099 537.164721 
L 451.093328 528.392422 
L 460.755666 539.997311 
L 470.418003 538.822896 
L 480.080341 559.68373 
L 489.742679 559.989476 
L 499.405016 549.059362 
L 509.067354 548.354059 
L 518.729692 560.917934 
L 528.392029 559.54764 
L 538.054367 562.096423 
L 547.716705 567.012819 
L 557.379042 570.098968 
L 567.04138 558.043424 
L 576.703718 567.794604 
L 586.366055 563.262142 
L 596.028393 571.717949 
L 605.690731 564.124887 
L 615.353068 579.309284 
L 625.015406 571.429913 
L 634.677744 578.49442 
L 644.340081 574.32118 
L 654.002419 571.37157 
L 663.664756 571.488058 
L 673.327094 575.486797 
L 682.989432 573.263629 
L 692.651769 565.759571 
L 702.314107 573.992618 
L 711.976445 566.74211 
L 721.638782 565.400803 
L 731.30112 568.3033 
L 740.963458 580.763198 
L 750.625795 572.942317 
L 760.288133 576.507165 
L 769.950471 575.158577 
L 779.612808 564.606723 
L 789.275146 562.530741 
L 798.937484 568.624061 
L 808.599821 567.1582 
L 818.262159 568.227851 
L 827.924497 567.345251 
L 837.586834 572.784227 
L 847.249172 578.272535 
L 856.91151 573.506932 
L 866.573847 568.75057 
L 876.236185 571.653317 
L 885.898523 563.825482 
L 895.56086 578.636521 
L 905.223198 558.800041 
L 914.885536 564.704755 
L 924.547873 569.64908 
L 934.210211 563.605345 
L 943.872549 567.265487 
L 953.534886 561.88433 
L 963.197224 568.053415 
L 972.859562 566.453281 
L 982.521899 555.735292 
L 992.184237 569.960481 
L 1001.846575 570.448379 
L 1011.508912 571.368001 
L 1021.17125 557.689791 
L 1030.833588 567.973287 
L 1040.495925 562.839145 
L 1050.158263 563.147016 
L 1059.820601 554.063784 
L 1069.482938 560.259748 
L 1079.145276 552.419365 
L 1088.807614 566.694802 
L 1098.469951 561.018074 
L 1108.132289 561.123584 
L 1117.794627 563.05247 
L 1127.456964 555.855983 
L 1137.119302 539.98212 
L 1146.78164 564.233675 
L 1156.443977 561.501564 
" style="fill:none;stroke:#4c72b0;stroke-linecap:round;stroke-width:4;"/>
    <defs>
     <path d="M 0 -6 
L -5.706339 -1.854102 
L -3.526712 4.854102 
L 3.526712 4.854102 
L 5.706339 -1.854102 
z
" id="m9085a50942" style="stroke:#4c72b0;stroke-linejoin:miter;"/>
    </defs>
    <g clip-path="url(#p96123630a2)">
     <use style="fill:#4c72b0;stroke:#4c72b0;stroke-linejoin:miter;" x="141.898523" xlink:href="#m9085a50942" y="145.726228"/>
     <use style="fill:#4c72b0;stroke:#4c72b0;stroke-linejoin:miter;" x="151.56086" xlink:href="#m9085a50942" y="209.874962"/>
     <use style="fill:#4c72b0;stroke:#4c72b0;stroke-linejoin:miter;" x="161.223198" xlink:href="#m9085a50942" y="492.94444"/>
     <use style="fill:#4c72b0;stroke:#4c72b0;stroke-linejoin:miter;" x="170.885536" xlink:href="#m9085a50942" y="523.731727"/>
     <use style="fill:#4c72b0;stroke:#4c72b0;stroke-linejoin:miter;" x="180.547873" xlink:href="#m9085a50942" y="497.412997"/>
     <use style="fill:#4c72b0;stroke:#4c72b0;stroke-linejoin:miter;" x="190.210211" xlink:href="#m9085a50942" y="426.577247"/>
     <use style="fill:#4c72b0;stroke:#4c72b0;stroke-linejoin:miter;" x="199.872549" xlink:href="#m9085a50942" y="394.107037"/>
     <use style="fill:#4c72b0;stroke:#4c72b0;stroke-linejoin:miter;" x="209.534886" xlink:href="#m9085a50942" y="341.739058"/>
     <use style="fill:#4c72b0;stroke:#4c72b0;stroke-linejoin:miter;" x="219.197224" xlink:href="#m9085a50942" y="331.083829"/>
     <use style="fill:#4c72b0;stroke:#4c72b0;stroke-linejoin:miter;" x="228.859562" xlink:href="#m9085a50942" y="295.64408"/>
     <use style="fill:#4c72b0;stroke:#4c72b0;stroke-linejoin:miter;" x="238.521899" xlink:href="#m9085a50942" y="305.191793"/>
     <use style="fill:#4c72b0;stroke:#4c72b0;stroke-linejoin:miter;" x="248.184237" xlink:href="#m9085a50942" y="245.315199"/>
     <use style="fill:#4c72b0;stroke:#4c72b0;stroke-linejoin:miter;" x="257.846575" xlink:href="#m9085a50942" y="226.548732"/>
     <use style="fill:#4c72b0;stroke:#4c72b0;stroke-linejoin:miter;" x="267.508912" xlink:href="#m9085a50942" y="235.080775"/>
     <use style="fill:#4c72b0;stroke:#4c72b0;stroke-linejoin:miter;" x="277.17125" xlink:href="#m9085a50942" y="227.898314"/>
     <use style="fill:#4c72b0;stroke:#4c72b0;stroke-linejoin:miter;" x="286.833588" xlink:href="#m9085a50942" y="306.286284"/>
     <use style="fill:#4c72b0;stroke:#4c72b0;stroke-linejoin:miter;" x="296.495925" xlink:href="#m9085a50942" y="315.922724"/>
     <use style="fill:#4c72b0;stroke:#4c72b0;stroke-linejoin:miter;" x="306.158263" xlink:href="#m9085a50942" y="343.186024"/>
     <use style="fill:#4c72b0;stroke:#4c72b0;stroke-linejoin:miter;" x="315.820601" xlink:href="#m9085a50942" y="359.700541"/>
     <use style="fill:#4c72b0;stroke:#4c72b0;stroke-linejoin:miter;" x="325.482938" xlink:href="#m9085a50942" y="369.282126"/>
     <use style="fill:#4c72b0;stroke:#4c72b0;stroke-linejoin:miter;" x="335.145276" xlink:href="#m9085a50942" y="421.848511"/>
     <use style="fill:#4c72b0;stroke:#4c72b0;stroke-linejoin:miter;" x="344.807614" xlink:href="#m9085a50942" y="461.869064"/>
     <use style="fill:#4c72b0;stroke:#4c72b0;stroke-linejoin:miter;" x="354.469951" xlink:href="#m9085a50942" y="458.040357"/>
     <use style="fill:#4c72b0;stroke:#4c72b0;stroke-linejoin:miter;" x="364.132289" xlink:href="#m9085a50942" y="475.11213"/>
     <use style="fill:#4c72b0;stroke:#4c72b0;stroke-linejoin:miter;" x="373.794627" xlink:href="#m9085a50942" y="498.544001"/>
     <use style="fill:#4c72b0;stroke:#4c72b0;stroke-linejoin:miter;" x="383.456964" xlink:href="#m9085a50942" y="504.965687"/>
     <use style="fill:#4c72b0;stroke:#4c72b0;stroke-linejoin:miter;" x="393.119302" xlink:href="#m9085a50942" y="526.42111"/>
     <use style="fill:#4c72b0;stroke:#4c72b0;stroke-linejoin:miter;" x="402.78164" xlink:href="#m9085a50942" y="532.790451"/>
     <use style="fill:#4c72b0;stroke:#4c72b0;stroke-linejoin:miter;" x="412.443977" xlink:href="#m9085a50942" y="528.250756"/>
     <use style="fill:#4c72b0;stroke:#4c72b0;stroke-linejoin:miter;" x="422.106315" xlink:href="#m9085a50942" y="542.346926"/>
     <use style="fill:#4c72b0;stroke:#4c72b0;stroke-linejoin:miter;" x="431.768653" xlink:href="#m9085a50942" y="538.575734"/>
     <use style="fill:#4c72b0;stroke:#4c72b0;stroke-linejoin:miter;" x="441.43099" xlink:href="#m9085a50942" y="537.164721"/>
     <use style="fill:#4c72b0;stroke:#4c72b0;stroke-linejoin:miter;" x="451.093328" xlink:href="#m9085a50942" y="528.392422"/>
     <use style="fill:#4c72b0;stroke:#4c72b0;stroke-linejoin:miter;" x="460.755666" xlink:href="#m9085a50942" y="539.997311"/>
     <use style="fill:#4c72b0;stroke:#4c72b0;stroke-linejoin:miter;" x="470.418003" xlink:href="#m9085a50942" y="538.822896"/>
     <use style="fill:#4c72b0;stroke:#4c72b0;stroke-linejoin:miter;" x="480.080341" xlink:href="#m9085a50942" y="559.68373"/>
     <use style="fill:#4c72b0;stroke:#4c72b0;stroke-linejoin:miter;" x="489.742679" xlink:href="#m9085a50942" y="559.989476"/>
     <use style="fill:#4c72b0;stroke:#4c72b0;stroke-linejoin:miter;" x="499.405016" xlink:href="#m9085a50942" y="549.059362"/>
     <use style="fill:#4c72b0;stroke:#4c72b0;stroke-linejoin:miter;" x="509.067354" xlink:href="#m9085a50942" y="548.354059"/>
     <use style="fill:#4c72b0;stroke:#4c72b0;stroke-linejoin:miter;" x="518.729692" xlink:href="#m9085a50942" y="560.917934"/>
     <use style="fill:#4c72b0;stroke:#4c72b0;stroke-linejoin:miter;" x="528.392029" xlink:href="#m9085a50942" y="559.54764"/>
     <use style="fill:#4c72b0;stroke:#4c72b0;stroke-linejoin:miter;" x="538.054367" xlink:href="#m9085a50942" y="562.096423"/>
     <use style="fill:#4c72b0;stroke:#4c72b0;stroke-linejoin:miter;" x="547.716705" xlink:href="#m9085a50942" y="567.012819"/>
     <use style="fill:#4c72b0;stroke:#4c72b0;stroke-linejoin:miter;" x="557.379042" xlink:href="#m9085a50942" y="570.098968"/>
     <use style="fill:#4c72b0;stroke:#4c72b0;stroke-linejoin:miter;" x="567.04138" xlink:href="#m9085a50942" y="558.043424"/>
     <use style="fill:#4c72b0;stroke:#4c72b0;stroke-linejoin:miter;" x="576.703718" xlink:href="#m9085a50942" y="567.794604"/>
     <use style="fill:#4c72b0;stroke:#4c72b0;stroke-linejoin:miter;" x="586.366055" xlink:href="#m9085a50942" y="563.262142"/>
     <use style="fill:#4c72b0;stroke:#4c72b0;stroke-linejoin:miter;" x="596.028393" xlink:href="#m9085a50942" y="571.717949"/>
     <use style="fill:#4c72b0;stroke:#4c72b0;stroke-linejoin:miter;" x="605.690731" xlink:href="#m9085a50942" y="564.124887"/>
     <use style="fill:#4c72b0;stroke:#4c72b0;stroke-linejoin:miter;" x="615.353068" xlink:href="#m9085a50942" y="579.309284"/>
     <use style="fill:#4c72b0;stroke:#4c72b0;stroke-linejoin:miter;" x="625.015406" xlink:href="#m9085a50942" y="571.429913"/>
     <use style="fill:#4c72b0;stroke:#4c72b0;stroke-linejoin:miter;" x="634.677744" xlink:href="#m9085a50942" y="578.49442"/>
     <use style="fill:#4c72b0;stroke:#4c72b0;stroke-linejoin:miter;" x="644.340081" xlink:href="#m9085a50942" y="574.32118"/>
     <use style="fill:#4c72b0;stroke:#4c72b0;stroke-linejoin:miter;" x="654.002419" xlink:href="#m9085a50942" y="571.37157"/>
     <use style="fill:#4c72b0;stroke:#4c72b0;stroke-linejoin:miter;" x="663.664756" xlink:href="#m9085a50942" y="571.488058"/>
     <use style="fill:#4c72b0;stroke:#4c72b0;stroke-linejoin:miter;" x="673.327094" xlink:href="#m9085a50942" y="575.486797"/>
     <use style="fill:#4c72b0;stroke:#4c72b0;stroke-linejoin:miter;" x="682.989432" xlink:href="#m9085a50942" y="573.263629"/>
     <use style="fill:#4c72b0;stroke:#4c72b0;stroke-linejoin:miter;" x="692.651769" xlink:href="#m9085a50942" y="565.759571"/>
     <use style="fill:#4c72b0;stroke:#4c72b0;stroke-linejoin:miter;" x="702.314107" xlink:href="#m9085a50942" y="573.992618"/>
     <use style="fill:#4c72b0;stroke:#4c72b0;stroke-linejoin:miter;" x="711.976445" xlink:href="#m9085a50942" y="566.74211"/>
     <use style="fill:#4c72b0;stroke:#4c72b0;stroke-linejoin:miter;" x="721.638782" xlink:href="#m9085a50942" y="565.400803"/>
     <use style="fill:#4c72b0;stroke:#4c72b0;stroke-linejoin:miter;" x="731.30112" xlink:href="#m9085a50942" y="568.3033"/>
     <use style="fill:#4c72b0;stroke:#4c72b0;stroke-linejoin:miter;" x="740.963458" xlink:href="#m9085a50942" y="580.763198"/>
     <use style="fill:#4c72b0;stroke:#4c72b0;stroke-linejoin:miter;" x="750.625795" xlink:href="#m9085a50942" y="572.942317"/>
     <use style="fill:#4c72b0;stroke:#4c72b0;stroke-linejoin:miter;" x="760.288133" xlink:href="#m9085a50942" y="576.507165"/>
     <use style="fill:#4c72b0;stroke:#4c72b0;stroke-linejoin:miter;" x="769.950471" xlink:href="#m9085a50942" y="575.158577"/>
     <use style="fill:#4c72b0;stroke:#4c72b0;stroke-linejoin:miter;" x="779.612808" xlink:href="#m9085a50942" y="564.606723"/>
     <use style="fill:#4c72b0;stroke:#4c72b0;stroke-linejoin:miter;" x="789.275146" xlink:href="#m9085a50942" y="562.530741"/>
     <use style="fill:#4c72b0;stroke:#4c72b0;stroke-linejoin:miter;" x="798.937484" xlink:href="#m9085a50942" y="568.624061"/>
     <use style="fill:#4c72b0;stroke:#4c72b0;stroke-linejoin:miter;" x="808.599821" xlink:href="#m9085a50942" y="567.1582"/>
     <use style="fill:#4c72b0;stroke:#4c72b0;stroke-linejoin:miter;" x="818.262159" xlink:href="#m9085a50942" y="568.227851"/>
     <use style="fill:#4c72b0;stroke:#4c72b0;stroke-linejoin:miter;" x="827.924497" xlink:href="#m9085a50942" y="567.345251"/>
     <use style="fill:#4c72b0;stroke:#4c72b0;stroke-linejoin:miter;" x="837.586834" xlink:href="#m9085a50942" y="572.784227"/>
     <use style="fill:#4c72b0;stroke:#4c72b0;stroke-linejoin:miter;" x="847.249172" xlink:href="#m9085a50942" y="578.272535"/>
     <use style="fill:#4c72b0;stroke:#4c72b0;stroke-linejoin:miter;" x="856.91151" xlink:href="#m9085a50942" y="573.506932"/>
     <use style="fill:#4c72b0;stroke:#4c72b0;stroke-linejoin:miter;" x="866.573847" xlink:href="#m9085a50942" y="568.75057"/>
     <use style="fill:#4c72b0;stroke:#4c72b0;stroke-linejoin:miter;" x="876.236185" xlink:href="#m9085a50942" y="571.653317"/>
     <use style="fill:#4c72b0;stroke:#4c72b0;stroke-linejoin:miter;" x="885.898523" xlink:href="#m9085a50942" y="563.825482"/>
     <use style="fill:#4c72b0;stroke:#4c72b0;stroke-linejoin:miter;" x="895.56086" xlink:href="#m9085a50942" y="578.636521"/>
     <use style="fill:#4c72b0;stroke:#4c72b0;stroke-linejoin:miter;" x="905.223198" xlink:href="#m9085a50942" y="558.800041"/>
     <use style="fill:#4c72b0;stroke:#4c72b0;stroke-linejoin:miter;" x="914.885536" xlink:href="#m9085a50942" y="564.704755"/>
     <use style="fill:#4c72b0;stroke:#4c72b0;stroke-linejoin:miter;" x="924.547873" xlink:href="#m9085a50942" y="569.64908"/>
     <use style="fill:#4c72b0;stroke:#4c72b0;stroke-linejoin:miter;" x="934.210211" xlink:href="#m9085a50942" y="563.605345"/>
     <use style="fill:#4c72b0;stroke:#4c72b0;stroke-linejoin:miter;" x="943.872549" xlink:href="#m9085a50942" y="567.265487"/>
     <use style="fill:#4c72b0;stroke:#4c72b0;stroke-linejoin:miter;" x="953.534886" xlink:href="#m9085a50942" y="561.88433"/>
     <use style="fill:#4c72b0;stroke:#4c72b0;stroke-linejoin:miter;" x="963.197224" xlink:href="#m9085a50942" y="568.053415"/>
     <use style="fill:#4c72b0;stroke:#4c72b0;stroke-linejoin:miter;" x="972.859562" xlink:href="#m9085a50942" y="566.453281"/>
     <use style="fill:#4c72b0;stroke:#4c72b0;stroke-linejoin:miter;" x="982.521899" xlink:href="#m9085a50942" y="555.735292"/>
     <use style="fill:#4c72b0;stroke:#4c72b0;stroke-linejoin:miter;" x="992.184237" xlink:href="#m9085a50942" y="569.960481"/>
     <use style="fill:#4c72b0;stroke:#4c72b0;stroke-linejoin:miter;" x="1001.846575" xlink:href="#m9085a50942" y="570.448379"/>
     <use style="fill:#4c72b0;stroke:#4c72b0;stroke-linejoin:miter;" x="1011.508912" xlink:href="#m9085a50942" y="571.368001"/>
     <use style="fill:#4c72b0;stroke:#4c72b0;stroke-linejoin:miter;" x="1021.17125" xlink:href="#m9085a50942" y="557.689791"/>
     <use style="fill:#4c72b0;stroke:#4c72b0;stroke-linejoin:miter;" x="1030.833588" xlink:href="#m9085a50942" y="567.973287"/>
     <use style="fill:#4c72b0;stroke:#4c72b0;stroke-linejoin:miter;" x="1040.495925" xlink:href="#m9085a50942" y="562.839145"/>
     <use style="fill:#4c72b0;stroke:#4c72b0;stroke-linejoin:miter;" x="1050.158263" xlink:href="#m9085a50942" y="563.147016"/>
     <use style="fill:#4c72b0;stroke:#4c72b0;stroke-linejoin:miter;" x="1059.820601" xlink:href="#m9085a50942" y="554.063784"/>
     <use style="fill:#4c72b0;stroke:#4c72b0;stroke-linejoin:miter;" x="1069.482938" xlink:href="#m9085a50942" y="560.259748"/>
     <use style="fill:#4c72b0;stroke:#4c72b0;stroke-linejoin:miter;" x="1079.145276" xlink:href="#m9085a50942" y="552.419365"/>
     <use style="fill:#4c72b0;stroke:#4c72b0;stroke-linejoin:miter;" x="1088.807614" xlink:href="#m9085a50942" y="566.694802"/>
     <use style="fill:#4c72b0;stroke:#4c72b0;stroke-linejoin:miter;" x="1098.469951" xlink:href="#m9085a50942" y="561.018074"/>
     <use style="fill:#4c72b0;stroke:#4c72b0;stroke-linejoin:miter;" x="1108.132289" xlink:href="#m9085a50942" y="561.123584"/>
     <use style="fill:#4c72b0;stroke:#4c72b0;stroke-linejoin:miter;" x="1117.794627" xlink:href="#m9085a50942" y="563.05247"/>
     <use style="fill:#4c72b0;stroke:#4c72b0;stroke-linejoin:miter;" x="1127.456964" xlink:href="#m9085a50942" y="555.855983"/>
     <use style="fill:#4c72b0;stroke:#4c72b0;stroke-linejoin:miter;" x="1137.119302" xlink:href="#m9085a50942" y="539.98212"/>
     <use style="fill:#4c72b0;stroke:#4c72b0;stroke-linejoin:miter;" x="1146.78164" xlink:href="#m9085a50942" y="564.233675"/>
     <use style="fill:#4c72b0;stroke:#4c72b0;stroke-linejoin:miter;" x="1156.443977" xlink:href="#m9085a50942" y="561.501564"/>
    </g>
   </g>
   <g id="line2d_17">
    <path clip-path="url(#p96123630a2)" d="M 151.469706 573.258793 
L 170.612073 569.589324 
L 189.75444 561.096971 
L 208.896807 547.947765 
L 228.039175 530.398778 
L 247.181542 508.793103 
L 266.323909 483.553142 
L 285.466276 455.172349 
L 304.608643 424.205583 
L 323.75101 391.25826 
L 342.893377 356.974518 
L 362.035744 322.024621 
L 381.178111 287.091859 
L 400.320478 252.859183 
L 419.462845 219.995862 
L 438.605212 189.14439 
L 457.747579 160.907929 
L 476.889946 135.838516 
L 496.032313 114.426271 
L 515.174681 97.089816 
L 534.317048 84.168086 
L 553.459415 75.913708 
L 572.601782 72.488059 
L 591.744149 72.688905 
L 610.886516 73.902226 
L 630.028883 76.044259 
L 649.17125 79.107336 
L 668.313617 83.080493 
L 687.455984 87.949507 
L 706.598351 93.696948 
L 725.740718 100.302241 
L 744.883085 107.741741 
L 764.025452 115.988818 
L 783.167819 125.013947 
L 802.310187 134.784823 
L 821.452554 145.266467 
L 840.594921 156.421358 
L 859.737288 168.209565 
L 878.879655 180.588888 
L 898.022022 193.515013 
L 917.164389 206.941668 
L 936.306756 220.820789 
L 955.449123 235.102692 
L 974.59149 249.736251 
L 993.733857 264.669083 
L 1012.876224 279.847732 
L 1032.018591 295.217861 
L 1051.160958 310.724451 
L 1070.303325 326.311991 
L 1089.445693 341.924682 
L 1108.58806 357.506635 
L 1127.730427 373.00207 
L 1146.872794 388.355518 
" style="fill:none;stroke:#55a868;stroke-dasharray:6,9.9;stroke-dashoffset:0;stroke-width:6;"/>
   </g>
   <g id="patch_4">
    <path d="M 91.17125 659.52 
L 91.17125 7.2 
" style="fill:none;stroke:#ffffff;stroke-linecap:square;stroke-linejoin:miter;stroke-width:1.25;"/>
   </g>
   <g id="patch_5">
    <path d="M 1207.17125 659.52 
L 1207.17125 7.2 
" style="fill:none;stroke:#ffffff;stroke-linecap:square;stroke-linejoin:miter;stroke-width:1.25;"/>
   </g>
   <g id="patch_6">
    <path d="M 91.17125 659.52 
L 1207.17125 659.52 
" style="fill:none;stroke:#ffffff;stroke-linecap:square;stroke-linejoin:miter;stroke-width:1.25;"/>
   </g>
   <g id="patch_7">
    <path d="M 91.17125 7.2 
L 1207.17125 7.2 
" style="fill:none;stroke:#ffffff;stroke-linecap:square;stroke-linejoin:miter;stroke-width:1.25;"/>
   </g>
   <g id="text_13">
    <!-- max lr = 0.02 -->
    <g style="fill:#262626;" transform="translate(576.703718 59.3856)scale(0.3 -0.3)">
     <defs>
      <path d="M 54.890625 54.6875 
L 35.109375 28.078125 
L 55.90625 0 
L 45.3125 0 
L 29.390625 21.484375 
L 13.484375 0 
L 2.875 0 
L 24.125 28.609375 
L 4.6875 54.6875 
L 15.28125 54.6875 
L 29.78125 35.203125 
L 44.28125 54.6875 
z
" id="DejaVuSans-120"/>
      <path d="M 9.421875 75.984375 
L 18.40625 75.984375 
L 18.40625 0 
L 9.421875 0 
z
" id="DejaVuSans-108"/>
      <path d="M 10.59375 45.40625 
L 73.1875 45.40625 
L 73.1875 37.203125 
L 10.59375 37.203125 
z
M 10.59375 25.484375 
L 73.1875 25.484375 
L 73.1875 17.1875 
L 10.59375 17.1875 
z
" id="DejaVuSans-61"/>
     </defs>
     <use xlink:href="#DejaVuSans-109"/>
     <use x="97.412109" xlink:href="#DejaVuSans-97"/>
     <use x="158.691406" xlink:href="#DejaVuSans-120"/>
     <use x="217.871094" xlink:href="#DejaVuSans-32"/>
     <use x="249.658203" xlink:href="#DejaVuSans-108"/>
     <use x="277.441406" xlink:href="#DejaVuSans-114"/>
     <use x="318.554688" xlink:href="#DejaVuSans-32"/>
     <use x="350.341797" xlink:href="#DejaVuSans-61"/>
     <use x="434.130859" xlink:href="#DejaVuSans-32"/>
     <use x="465.917969" xlink:href="#DejaVuSans-48"/>
     <use x="529.541016" xlink:href="#DejaVuSans-46"/>
     <use x="561.328125" xlink:href="#DejaVuSans-48"/>
     <use x="624.951172" xlink:href="#DejaVuSans-50"/>
    </g>
   </g>
   <g id="text_14">
    <!-- start lr = 0.00008 -->
    <g style="fill:#262626;" transform="translate(141.898523 633.4272)scale(0.3 -0.3)">
     <defs>
      <path d="M 31.78125 34.625 
Q 24.75 34.625 20.71875 30.859375 
Q 16.703125 27.09375 16.703125 20.515625 
Q 16.703125 13.921875 20.71875 10.15625 
Q 24.75 6.390625 31.78125 6.390625 
Q 38.8125 6.390625 42.859375 10.171875 
Q 46.921875 13.96875 46.921875 20.515625 
Q 46.921875 27.09375 42.890625 30.859375 
Q 38.875 34.625 31.78125 34.625 
z
M 21.921875 38.8125 
Q 15.578125 40.375 12.03125 44.71875 
Q 8.5 49.078125 8.5 55.328125 
Q 8.5 64.0625 14.71875 69.140625 
Q 20.953125 74.21875 31.78125 74.21875 
Q 42.671875 74.21875 48.875 69.140625 
Q 55.078125 64.0625 55.078125 55.328125 
Q 55.078125 49.078125 51.53125 44.71875 
Q 48 40.375 41.703125 38.8125 
Q 48.828125 37.15625 52.796875 32.3125 
Q 56.78125 27.484375 56.78125 20.515625 
Q 56.78125 9.90625 50.3125 4.234375 
Q 43.84375 -1.421875 31.78125 -1.421875 
Q 19.734375 -1.421875 13.25 4.234375 
Q 6.78125 9.90625 6.78125 20.515625 
Q 6.78125 27.484375 10.78125 32.3125 
Q 14.796875 37.15625 21.921875 38.8125 
z
M 18.3125 54.390625 
Q 18.3125 48.734375 21.84375 45.5625 
Q 25.390625 42.390625 31.78125 42.390625 
Q 38.140625 42.390625 41.71875 45.5625 
Q 45.3125 48.734375 45.3125 54.390625 
Q 45.3125 60.0625 41.71875 63.234375 
Q 38.140625 66.40625 31.78125 66.40625 
Q 25.390625 66.40625 21.84375 63.234375 
Q 18.3125 60.0625 18.3125 54.390625 
z
" id="DejaVuSans-56"/>
     </defs>
     <use xlink:href="#DejaVuSans-115"/>
     <use x="52.099609" xlink:href="#DejaVuSans-116"/>
     <use x="91.308594" xlink:href="#DejaVuSans-97"/>
     <use x="152.587891" xlink:href="#DejaVuSans-114"/>
     <use x="193.701172" xlink:href="#DejaVuSans-116"/>
     <use x="232.910156" xlink:href="#DejaVuSans-32"/>
     <use x="264.697266" xlink:href="#DejaVuSans-108"/>
     <use x="292.480469" xlink:href="#DejaVuSans-114"/>
     <use x="333.59375" xlink:href="#DejaVuSans-32"/>
     <use x="365.380859" xlink:href="#DejaVuSans-61"/>
     <use x="449.169922" xlink:href="#DejaVuSans-32"/>
     <use x="480.957031" xlink:href="#DejaVuSans-48"/>
     <use x="544.580078" xlink:href="#DejaVuSans-46"/>
     <use x="576.367188" xlink:href="#DejaVuSans-48"/>
     <use x="639.990234" xlink:href="#DejaVuSans-48"/>
     <use x="703.613281" xlink:href="#DejaVuSans-48"/>
     <use x="767.236328" xlink:href="#DejaVuSans-48"/>
     <use x="830.859375" xlink:href="#DejaVuSans-56"/>
    </g>
   </g>
   <g id="legend_1">
    <g id="patch_8">
     <path d="M 866.357188 119.26875 
L 1186.17125 119.26875 
Q 1192.17125 119.26875 1192.17125 113.26875 
L 1192.17125 28.2 
Q 1192.17125 22.2 1186.17125 22.2 
L 866.357188 22.2 
Q 860.357188 22.2 860.357188 28.2 
L 860.357188 113.26875 
Q 860.357188 119.26875 866.357188 119.26875 
z
" style="fill:#eaeaf2;opacity:0.8;stroke:#cccccc;stroke-linejoin:miter;"/>
    </g>
    <g id="line2d_18">
     <path d="M 872.357188 46.495312 
L 932.357188 46.495312 
" style="fill:none;stroke:#4c72b0;stroke-linecap:round;stroke-width:4;"/>
    </g>
    <g id="line2d_19">
     <g>
      <use style="fill:#4c72b0;stroke:#4c72b0;stroke-linejoin:miter;" x="902.357188" xlink:href="#m9085a50942" y="46.495312"/>
     </g>
    </g>
    <g id="text_15">
     <!-- val-std -->
     <g style="fill:#262626;" transform="translate(956.357188 56.995312)scale(0.3 -0.3)">
      <defs>
       <path d="M 4.890625 31.390625 
L 31.203125 31.390625 
L 31.203125 23.390625 
L 4.890625 23.390625 
z
" id="DejaVuSans-45"/>
      </defs>
      <use xlink:href="#DejaVuSans-118"/>
      <use x="59.179688" xlink:href="#DejaVuSans-97"/>
      <use x="120.458984" xlink:href="#DejaVuSans-108"/>
      <use x="148.242188" xlink:href="#DejaVuSans-45"/>
      <use x="184.326172" xlink:href="#DejaVuSans-115"/>
      <use x="236.425781" xlink:href="#DejaVuSans-116"/>
      <use x="275.634766" xlink:href="#DejaVuSans-100"/>
     </g>
    </g>
    <g id="line2d_20">
     <path d="M 872.357188 90.529687 
L 932.357188 90.529687 
" style="fill:none;stroke:#dd8452;stroke-linecap:round;stroke-width:4;"/>
    </g>
    <g id="line2d_21">
     <defs>
      <path d="M -0 6 
L 6 -6 
L -6 -6 
z
" id="mc49bf73372" style="stroke:#dd8452;stroke-linejoin:miter;"/>
     </defs>
     <g>
      <use style="fill:#dd8452;stroke:#dd8452;stroke-linejoin:miter;" x="902.357188" xlink:href="#mc49bf73372" y="90.529687"/>
     </g>
    </g>
    <g id="text_16">
     <!-- val-mean-error -->
     <g style="fill:#262626;" transform="translate(956.357188 101.029687)scale(0.3 -0.3)">
      <use xlink:href="#DejaVuSans-118"/>
      <use x="59.179688" xlink:href="#DejaVuSans-97"/>
      <use x="120.458984" xlink:href="#DejaVuSans-108"/>
      <use x="148.242188" xlink:href="#DejaVuSans-45"/>
      <use x="184.326172" xlink:href="#DejaVuSans-109"/>
      <use x="281.738281" xlink:href="#DejaVuSans-101"/>
      <use x="343.261719" xlink:href="#DejaVuSans-97"/>
      <use x="404.541016" xlink:href="#DejaVuSans-110"/>
      <use x="467.919922" xlink:href="#DejaVuSans-45"/>
      <use x="504.003906" xlink:href="#DejaVuSans-101"/>
      <use x="565.527344" xlink:href="#DejaVuSans-114"/>
      <use x="604.890625" xlink:href="#DejaVuSans-114"/>
      <use x="643.753906" xlink:href="#DejaVuSans-111"/>
      <use x="704.935547" xlink:href="#DejaVuSans-114"/>
     </g>
    </g>
   </g>
  </g>
  <g id="axes_2">
   <g id="matplotlib.axis_3">
    <g id="ytick_6">
     <g id="line2d_22">
      <path clip-path="url(#p96123630a2)" d="M 91.17125 594.288 
L 1207.17125 594.288 
" style="fill:none;stroke:#ffffff;stroke-linecap:round;"/>
     </g>
     <g id="line2d_23">
      <defs>
       <path d="M 0 0 
L 6 0 
" id="md39c07fe9c" style="stroke:#262626;stroke-width:1.25;"/>
      </defs>
      <g>
       <use style="fill:#262626;stroke:#262626;stroke-width:1.25;" x="1207.17125" xlink:href="#md39c07fe9c" y="594.288"/>
      </g>
     </g>
     <g id="text_17">
      <!-- 10 -->
      <g style="fill:#262626;" transform="translate(1216.67125 604.925813)scale(0.28 -0.28)">
       <defs>
        <path d="M 10.59375 35.5 
L 73.1875 35.5 
L 73.1875 27.203125 
L 10.59375 27.203125 
z
" id="DejaVuSans-8722"/>
       </defs>
       <use xlink:href="#DejaVuSans-8722"/>
       <use x="83.789062" xlink:href="#DejaVuSans-49"/>
       <use x="147.412109" xlink:href="#DejaVuSans-48"/>
      </g>
     </g>
    </g>
    <g id="ytick_7">
     <g id="line2d_24">
      <path clip-path="url(#p96123630a2)" d="M 91.17125 463.824 
L 1207.17125 463.824 
" style="fill:none;stroke:#ffffff;stroke-linecap:round;"/>
     </g>
     <g id="line2d_25">
      <g>
       <use style="fill:#262626;stroke:#262626;stroke-width:1.25;" x="1207.17125" xlink:href="#md39c07fe9c" y="463.824"/>
      </g>
     </g>
     <g id="text_18">
      <!-- 5 -->
      <g style="fill:#262626;" transform="translate(1216.67125 474.461812)scale(0.28 -0.28)">
       <use xlink:href="#DejaVuSans-8722"/>
       <use x="83.789062" xlink:href="#DejaVuSans-53"/>
      </g>
     </g>
    </g>
    <g id="ytick_8">
     <g id="line2d_26">
      <path clip-path="url(#p96123630a2)" d="M 91.17125 333.36 
L 1207.17125 333.36 
" style="fill:none;stroke:#ffffff;stroke-linecap:round;"/>
     </g>
     <g id="line2d_27">
      <g>
       <use style="fill:#262626;stroke:#262626;stroke-width:1.25;" x="1207.17125" xlink:href="#md39c07fe9c" y="333.36"/>
      </g>
     </g>
     <g id="text_19">
      <!-- 0 -->
      <g style="fill:#262626;" transform="translate(1216.67125 343.997812)scale(0.28 -0.28)">
       <use xlink:href="#DejaVuSans-48"/>
      </g>
     </g>
    </g>
    <g id="ytick_9">
     <g id="line2d_28">
      <path clip-path="url(#p96123630a2)" d="M 91.17125 202.896 
L 1207.17125 202.896 
" style="fill:none;stroke:#ffffff;stroke-linecap:round;"/>
     </g>
     <g id="line2d_29">
      <g>
       <use style="fill:#262626;stroke:#262626;stroke-width:1.25;" x="1207.17125" xlink:href="#md39c07fe9c" y="202.896"/>
      </g>
     </g>
     <g id="text_20">
      <!-- 5 -->
      <g style="fill:#262626;" transform="translate(1216.67125 213.533812)scale(0.28 -0.28)">
       <use xlink:href="#DejaVuSans-53"/>
      </g>
     </g>
    </g>
    <g id="ytick_10">
     <g id="line2d_30">
      <path clip-path="url(#p96123630a2)" d="M 91.17125 72.432 
L 1207.17125 72.432 
" style="fill:none;stroke:#ffffff;stroke-linecap:round;"/>
     </g>
     <g id="line2d_31">
      <g>
       <use style="fill:#262626;stroke:#262626;stroke-width:1.25;" x="1207.17125" xlink:href="#md39c07fe9c" y="72.432"/>
      </g>
     </g>
     <g id="text_21">
      <!-- 10 -->
      <g style="fill:#262626;" transform="translate(1216.67125 83.069812)scale(0.28 -0.28)">
       <use xlink:href="#DejaVuSans-49"/>
       <use x="63.623047" xlink:href="#DejaVuSans-48"/>
      </g>
     </g>
    </g>
    <g id="text_22">
     <!-- Mean Error (ms) -->
     <g style="fill:#262626;" transform="translate(1307.11875 478.667812)rotate(-90)scale(0.36 -0.36)">
      <defs>
       <path d="M 9.8125 72.90625 
L 24.515625 72.90625 
L 43.109375 23.296875 
L 61.8125 72.90625 
L 76.515625 72.90625 
L 76.515625 0 
L 66.890625 0 
L 66.890625 64.015625 
L 48.09375 14.015625 
L 38.1875 14.015625 
L 19.390625 64.015625 
L 19.390625 0 
L 9.8125 0 
z
" id="DejaVuSans-77"/>
      </defs>
      <use xlink:href="#DejaVuSans-77"/>
      <use x="86.279297" xlink:href="#DejaVuSans-101"/>
      <use x="147.802734" xlink:href="#DejaVuSans-97"/>
      <use x="209.082031" xlink:href="#DejaVuSans-110"/>
      <use x="272.460938" xlink:href="#DejaVuSans-32"/>
      <use x="304.248047" xlink:href="#DejaVuSans-69"/>
      <use x="367.431641" xlink:href="#DejaVuSans-114"/>
      <use x="406.794922" xlink:href="#DejaVuSans-114"/>
      <use x="445.658203" xlink:href="#DejaVuSans-111"/>
      <use x="506.839844" xlink:href="#DejaVuSans-114"/>
      <use x="547.953125" xlink:href="#DejaVuSans-32"/>
      <use x="579.740234" xlink:href="#DejaVuSans-40"/>
      <use x="618.753906" xlink:href="#DejaVuSans-109"/>
      <use x="716.166016" xlink:href="#DejaVuSans-115"/>
      <use x="768.265625" xlink:href="#DejaVuSans-41"/>
     </g>
    </g>
   </g>
   <g id="line2d_32">
    <path clip-path="url(#p96123630a2)" d="M 141.898523 195.390232 
L 151.56086 150.016771 
L 161.223198 475.87573 
L 170.885536 453.556201 
L 180.547873 413.607349 
L 190.210211 316.269014 
L 199.872549 279.324592 
L 209.534886 342.537069 
L 219.197224 341.738944 
L 228.859562 334.457846 
L 238.521899 371.687518 
L 248.184237 396.688753 
L 257.846575 391.058891 
L 267.508912 414.398434 
L 277.17125 449.776555 
L 286.833588 357.382658 
L 296.495925 391.048558 
L 306.158263 386.817927 
L 315.820601 348.321815 
L 325.482938 342.00564 
L 335.145276 435.667459 
L 344.807614 402.952231 
L 354.469951 376.988083 
L 364.132289 400.796596 
L 373.794627 443.67742 
L 383.456964 598.868517 
L 393.119302 496.618231 
L 402.78164 312.390614 
L 412.443977 474.397702 
L 422.106315 426.693198 
L 431.768653 404.330141 
L 441.43099 406.122391 
L 451.093328 489.765189 
L 460.755666 387.284306 
L 470.418003 366.091281 
L 480.080341 392.601598 
L 489.742679 393.449766 
L 499.405016 401.261144 
L 509.067354 356.01281 
L 518.729692 293.802669 
L 528.392029 412.138898 
L 538.054367 417.404821 
L 547.716705 407.574062 
L 557.379042 346.722395 
L 567.04138 375.803134 
L 576.703718 385.002931 
L 586.366055 404.840265 
L 596.028393 345.562573 
L 605.690731 417.586117 
L 615.353068 455.689253 
L 625.015406 371.031435 
L 634.677744 432.145531 
L 644.340081 462.56075 
L 654.002419 400.458304 
L 663.664756 362.768753 
L 673.327094 370.092187 
L 682.989432 402.696477 
L 692.651769 423.978066 
L 702.314107 418.688605 
L 711.976445 359.117071 
L 721.638782 367.405931 
L 731.30112 393.391731 
L 740.963458 396.802484 
L 750.625795 402.331342 
L 760.288133 392.798571 
L 769.950471 345.732343 
L 779.612808 390.959826 
L 789.275146 371.065221 
L 798.937484 404.763726 
L 808.599821 418.788503 
L 818.262159 422.018951 
L 827.924497 423.29484 
L 837.586834 388.803305 
L 847.249172 426.978489 
L 856.91151 387.395569 
L 866.573847 342.090808 
L 876.236185 384.768202 
L 885.898523 381.432883 
L 895.56086 383.63319 
L 905.223198 404.000005 
L 914.885536 409.833226 
L 924.547873 425.924915 
L 934.210211 388.20155 
L 943.872549 384.387896 
L 953.534886 402.468645 
L 963.197224 405.846595 
L 972.859562 354.222369 
L 982.521899 412.613105 
L 992.184237 361.345906 
L 1001.846575 371.433184 
L 1011.508912 427.198672 
L 1021.17125 378.949888 
L 1030.833588 431.810776 
L 1040.495925 374.994974 
L 1050.158263 394.287566 
L 1059.820601 400.194208 
L 1069.482938 368.92093 
L 1079.145276 414.88918 
L 1088.807614 445.416045 
L 1098.469951 400.475242 
L 1108.132289 427.759975 
L 1117.794627 402.412876 
L 1127.456964 391.768995 
L 1137.119302 412.026516 
L 1146.78164 380.332324 
L 1156.443977 355.431014 
" style="fill:none;stroke:#dd8452;stroke-linecap:round;stroke-width:4;"/>
    <g clip-path="url(#p96123630a2)">
     <use style="fill:#dd8452;stroke:#dd8452;stroke-linejoin:miter;" x="141.898523" xlink:href="#mc49bf73372" y="195.390232"/>
     <use style="fill:#dd8452;stroke:#dd8452;stroke-linejoin:miter;" x="151.56086" xlink:href="#mc49bf73372" y="150.016771"/>
     <use style="fill:#dd8452;stroke:#dd8452;stroke-linejoin:miter;" x="161.223198" xlink:href="#mc49bf73372" y="475.87573"/>
     <use style="fill:#dd8452;stroke:#dd8452;stroke-linejoin:miter;" x="170.885536" xlink:href="#mc49bf73372" y="453.556201"/>
     <use style="fill:#dd8452;stroke:#dd8452;stroke-linejoin:miter;" x="180.547873" xlink:href="#mc49bf73372" y="413.607349"/>
     <use style="fill:#dd8452;stroke:#dd8452;stroke-linejoin:miter;" x="190.210211" xlink:href="#mc49bf73372" y="316.269014"/>
     <use style="fill:#dd8452;stroke:#dd8452;stroke-linejoin:miter;" x="199.872549" xlink:href="#mc49bf73372" y="279.324592"/>
     <use style="fill:#dd8452;stroke:#dd8452;stroke-linejoin:miter;" x="209.534886" xlink:href="#mc49bf73372" y="342.537069"/>
     <use style="fill:#dd8452;stroke:#dd8452;stroke-linejoin:miter;" x="219.197224" xlink:href="#mc49bf73372" y="341.738944"/>
     <use style="fill:#dd8452;stroke:#dd8452;stroke-linejoin:miter;" x="228.859562" xlink:href="#mc49bf73372" y="334.457846"/>
     <use style="fill:#dd8452;stroke:#dd8452;stroke-linejoin:miter;" x="238.521899" xlink:href="#mc49bf73372" y="371.687518"/>
     <use style="fill:#dd8452;stroke:#dd8452;stroke-linejoin:miter;" x="248.184237" xlink:href="#mc49bf73372" y="396.688753"/>
     <use style="fill:#dd8452;stroke:#dd8452;stroke-linejoin:miter;" x="257.846575" xlink:href="#mc49bf73372" y="391.058891"/>
     <use style="fill:#dd8452;stroke:#dd8452;stroke-linejoin:miter;" x="267.508912" xlink:href="#mc49bf73372" y="414.398434"/>
     <use style="fill:#dd8452;stroke:#dd8452;stroke-linejoin:miter;" x="277.17125" xlink:href="#mc49bf73372" y="449.776555"/>
     <use style="fill:#dd8452;stroke:#dd8452;stroke-linejoin:miter;" x="286.833588" xlink:href="#mc49bf73372" y="357.382658"/>
     <use style="fill:#dd8452;stroke:#dd8452;stroke-linejoin:miter;" x="296.495925" xlink:href="#mc49bf73372" y="391.048558"/>
     <use style="fill:#dd8452;stroke:#dd8452;stroke-linejoin:miter;" x="306.158263" xlink:href="#mc49bf73372" y="386.817927"/>
     <use style="fill:#dd8452;stroke:#dd8452;stroke-linejoin:miter;" x="315.820601" xlink:href="#mc49bf73372" y="348.321815"/>
     <use style="fill:#dd8452;stroke:#dd8452;stroke-linejoin:miter;" x="325.482938" xlink:href="#mc49bf73372" y="342.00564"/>
     <use style="fill:#dd8452;stroke:#dd8452;stroke-linejoin:miter;" x="335.145276" xlink:href="#mc49bf73372" y="435.667459"/>
     <use style="fill:#dd8452;stroke:#dd8452;stroke-linejoin:miter;" x="344.807614" xlink:href="#mc49bf73372" y="402.952231"/>
     <use style="fill:#dd8452;stroke:#dd8452;stroke-linejoin:miter;" x="354.469951" xlink:href="#mc49bf73372" y="376.988083"/>
     <use style="fill:#dd8452;stroke:#dd8452;stroke-linejoin:miter;" x="364.132289" xlink:href="#mc49bf73372" y="400.796596"/>
     <use style="fill:#dd8452;stroke:#dd8452;stroke-linejoin:miter;" x="373.794627" xlink:href="#mc49bf73372" y="443.67742"/>
     <use style="fill:#dd8452;stroke:#dd8452;stroke-linejoin:miter;" x="383.456964" xlink:href="#mc49bf73372" y="598.868517"/>
     <use style="fill:#dd8452;stroke:#dd8452;stroke-linejoin:miter;" x="393.119302" xlink:href="#mc49bf73372" y="496.618231"/>
     <use style="fill:#dd8452;stroke:#dd8452;stroke-linejoin:miter;" x="402.78164" xlink:href="#mc49bf73372" y="312.390614"/>
     <use style="fill:#dd8452;stroke:#dd8452;stroke-linejoin:miter;" x="412.443977" xlink:href="#mc49bf73372" y="474.397702"/>
     <use style="fill:#dd8452;stroke:#dd8452;stroke-linejoin:miter;" x="422.106315" xlink:href="#mc49bf73372" y="426.693198"/>
     <use style="fill:#dd8452;stroke:#dd8452;stroke-linejoin:miter;" x="431.768653" xlink:href="#mc49bf73372" y="404.330141"/>
     <use style="fill:#dd8452;stroke:#dd8452;stroke-linejoin:miter;" x="441.43099" xlink:href="#mc49bf73372" y="406.122391"/>
     <use style="fill:#dd8452;stroke:#dd8452;stroke-linejoin:miter;" x="451.093328" xlink:href="#mc49bf73372" y="489.765189"/>
     <use style="fill:#dd8452;stroke:#dd8452;stroke-linejoin:miter;" x="460.755666" xlink:href="#mc49bf73372" y="387.284306"/>
     <use style="fill:#dd8452;stroke:#dd8452;stroke-linejoin:miter;" x="470.418003" xlink:href="#mc49bf73372" y="366.091281"/>
     <use style="fill:#dd8452;stroke:#dd8452;stroke-linejoin:miter;" x="480.080341" xlink:href="#mc49bf73372" y="392.601598"/>
     <use style="fill:#dd8452;stroke:#dd8452;stroke-linejoin:miter;" x="489.742679" xlink:href="#mc49bf73372" y="393.449766"/>
     <use style="fill:#dd8452;stroke:#dd8452;stroke-linejoin:miter;" x="499.405016" xlink:href="#mc49bf73372" y="401.261144"/>
     <use style="fill:#dd8452;stroke:#dd8452;stroke-linejoin:miter;" x="509.067354" xlink:href="#mc49bf73372" y="356.01281"/>
     <use style="fill:#dd8452;stroke:#dd8452;stroke-linejoin:miter;" x="518.729692" xlink:href="#mc49bf73372" y="293.802669"/>
     <use style="fill:#dd8452;stroke:#dd8452;stroke-linejoin:miter;" x="528.392029" xlink:href="#mc49bf73372" y="412.138898"/>
     <use style="fill:#dd8452;stroke:#dd8452;stroke-linejoin:miter;" x="538.054367" xlink:href="#mc49bf73372" y="417.404821"/>
     <use style="fill:#dd8452;stroke:#dd8452;stroke-linejoin:miter;" x="547.716705" xlink:href="#mc49bf73372" y="407.574062"/>
     <use style="fill:#dd8452;stroke:#dd8452;stroke-linejoin:miter;" x="557.379042" xlink:href="#mc49bf73372" y="346.722395"/>
     <use style="fill:#dd8452;stroke:#dd8452;stroke-linejoin:miter;" x="567.04138" xlink:href="#mc49bf73372" y="375.803134"/>
     <use style="fill:#dd8452;stroke:#dd8452;stroke-linejoin:miter;" x="576.703718" xlink:href="#mc49bf73372" y="385.002931"/>
     <use style="fill:#dd8452;stroke:#dd8452;stroke-linejoin:miter;" x="586.366055" xlink:href="#mc49bf73372" y="404.840265"/>
     <use style="fill:#dd8452;stroke:#dd8452;stroke-linejoin:miter;" x="596.028393" xlink:href="#mc49bf73372" y="345.562573"/>
     <use style="fill:#dd8452;stroke:#dd8452;stroke-linejoin:miter;" x="605.690731" xlink:href="#mc49bf73372" y="417.586117"/>
     <use style="fill:#dd8452;stroke:#dd8452;stroke-linejoin:miter;" x="615.353068" xlink:href="#mc49bf73372" y="455.689253"/>
     <use style="fill:#dd8452;stroke:#dd8452;stroke-linejoin:miter;" x="625.015406" xlink:href="#mc49bf73372" y="371.031435"/>
     <use style="fill:#dd8452;stroke:#dd8452;stroke-linejoin:miter;" x="634.677744" xlink:href="#mc49bf73372" y="432.145531"/>
     <use style="fill:#dd8452;stroke:#dd8452;stroke-linejoin:miter;" x="644.340081" xlink:href="#mc49bf73372" y="462.56075"/>
     <use style="fill:#dd8452;stroke:#dd8452;stroke-linejoin:miter;" x="654.002419" xlink:href="#mc49bf73372" y="400.458304"/>
     <use style="fill:#dd8452;stroke:#dd8452;stroke-linejoin:miter;" x="663.664756" xlink:href="#mc49bf73372" y="362.768753"/>
     <use style="fill:#dd8452;stroke:#dd8452;stroke-linejoin:miter;" x="673.327094" xlink:href="#mc49bf73372" y="370.092187"/>
     <use style="fill:#dd8452;stroke:#dd8452;stroke-linejoin:miter;" x="682.989432" xlink:href="#mc49bf73372" y="402.696477"/>
     <use style="fill:#dd8452;stroke:#dd8452;stroke-linejoin:miter;" x="692.651769" xlink:href="#mc49bf73372" y="423.978066"/>
     <use style="fill:#dd8452;stroke:#dd8452;stroke-linejoin:miter;" x="702.314107" xlink:href="#mc49bf73372" y="418.688605"/>
     <use style="fill:#dd8452;stroke:#dd8452;stroke-linejoin:miter;" x="711.976445" xlink:href="#mc49bf73372" y="359.117071"/>
     <use style="fill:#dd8452;stroke:#dd8452;stroke-linejoin:miter;" x="721.638782" xlink:href="#mc49bf73372" y="367.405931"/>
     <use style="fill:#dd8452;stroke:#dd8452;stroke-linejoin:miter;" x="731.30112" xlink:href="#mc49bf73372" y="393.391731"/>
     <use style="fill:#dd8452;stroke:#dd8452;stroke-linejoin:miter;" x="740.963458" xlink:href="#mc49bf73372" y="396.802484"/>
     <use style="fill:#dd8452;stroke:#dd8452;stroke-linejoin:miter;" x="750.625795" xlink:href="#mc49bf73372" y="402.331342"/>
     <use style="fill:#dd8452;stroke:#dd8452;stroke-linejoin:miter;" x="760.288133" xlink:href="#mc49bf73372" y="392.798571"/>
     <use style="fill:#dd8452;stroke:#dd8452;stroke-linejoin:miter;" x="769.950471" xlink:href="#mc49bf73372" y="345.732343"/>
     <use style="fill:#dd8452;stroke:#dd8452;stroke-linejoin:miter;" x="779.612808" xlink:href="#mc49bf73372" y="390.959826"/>
     <use style="fill:#dd8452;stroke:#dd8452;stroke-linejoin:miter;" x="789.275146" xlink:href="#mc49bf73372" y="371.065221"/>
     <use style="fill:#dd8452;stroke:#dd8452;stroke-linejoin:miter;" x="798.937484" xlink:href="#mc49bf73372" y="404.763726"/>
     <use style="fill:#dd8452;stroke:#dd8452;stroke-linejoin:miter;" x="808.599821" xlink:href="#mc49bf73372" y="418.788503"/>
     <use style="fill:#dd8452;stroke:#dd8452;stroke-linejoin:miter;" x="818.262159" xlink:href="#mc49bf73372" y="422.018951"/>
     <use style="fill:#dd8452;stroke:#dd8452;stroke-linejoin:miter;" x="827.924497" xlink:href="#mc49bf73372" y="423.29484"/>
     <use style="fill:#dd8452;stroke:#dd8452;stroke-linejoin:miter;" x="837.586834" xlink:href="#mc49bf73372" y="388.803305"/>
     <use style="fill:#dd8452;stroke:#dd8452;stroke-linejoin:miter;" x="847.249172" xlink:href="#mc49bf73372" y="426.978489"/>
     <use style="fill:#dd8452;stroke:#dd8452;stroke-linejoin:miter;" x="856.91151" xlink:href="#mc49bf73372" y="387.395569"/>
     <use style="fill:#dd8452;stroke:#dd8452;stroke-linejoin:miter;" x="866.573847" xlink:href="#mc49bf73372" y="342.090808"/>
     <use style="fill:#dd8452;stroke:#dd8452;stroke-linejoin:miter;" x="876.236185" xlink:href="#mc49bf73372" y="384.768202"/>
     <use style="fill:#dd8452;stroke:#dd8452;stroke-linejoin:miter;" x="885.898523" xlink:href="#mc49bf73372" y="381.432883"/>
     <use style="fill:#dd8452;stroke:#dd8452;stroke-linejoin:miter;" x="895.56086" xlink:href="#mc49bf73372" y="383.63319"/>
     <use style="fill:#dd8452;stroke:#dd8452;stroke-linejoin:miter;" x="905.223198" xlink:href="#mc49bf73372" y="404.000005"/>
     <use style="fill:#dd8452;stroke:#dd8452;stroke-linejoin:miter;" x="914.885536" xlink:href="#mc49bf73372" y="409.833226"/>
     <use style="fill:#dd8452;stroke:#dd8452;stroke-linejoin:miter;" x="924.547873" xlink:href="#mc49bf73372" y="425.924915"/>
     <use style="fill:#dd8452;stroke:#dd8452;stroke-linejoin:miter;" x="934.210211" xlink:href="#mc49bf73372" y="388.20155"/>
     <use style="fill:#dd8452;stroke:#dd8452;stroke-linejoin:miter;" x="943.872549" xlink:href="#mc49bf73372" y="384.387896"/>
     <use style="fill:#dd8452;stroke:#dd8452;stroke-linejoin:miter;" x="953.534886" xlink:href="#mc49bf73372" y="402.468645"/>
     <use style="fill:#dd8452;stroke:#dd8452;stroke-linejoin:miter;" x="963.197224" xlink:href="#mc49bf73372" y="405.846595"/>
     <use style="fill:#dd8452;stroke:#dd8452;stroke-linejoin:miter;" x="972.859562" xlink:href="#mc49bf73372" y="354.222369"/>
     <use style="fill:#dd8452;stroke:#dd8452;stroke-linejoin:miter;" x="982.521899" xlink:href="#mc49bf73372" y="412.613105"/>
     <use style="fill:#dd8452;stroke:#dd8452;stroke-linejoin:miter;" x="992.184237" xlink:href="#mc49bf73372" y="361.345906"/>
     <use style="fill:#dd8452;stroke:#dd8452;stroke-linejoin:miter;" x="1001.846575" xlink:href="#mc49bf73372" y="371.433184"/>
     <use style="fill:#dd8452;stroke:#dd8452;stroke-linejoin:miter;" x="1011.508912" xlink:href="#mc49bf73372" y="427.198672"/>
     <use style="fill:#dd8452;stroke:#dd8452;stroke-linejoin:miter;" x="1021.17125" xlink:href="#mc49bf73372" y="378.949888"/>
     <use style="fill:#dd8452;stroke:#dd8452;stroke-linejoin:miter;" x="1030.833588" xlink:href="#mc49bf73372" y="431.810776"/>
     <use style="fill:#dd8452;stroke:#dd8452;stroke-linejoin:miter;" x="1040.495925" xlink:href="#mc49bf73372" y="374.994974"/>
     <use style="fill:#dd8452;stroke:#dd8452;stroke-linejoin:miter;" x="1050.158263" xlink:href="#mc49bf73372" y="394.287566"/>
     <use style="fill:#dd8452;stroke:#dd8452;stroke-linejoin:miter;" x="1059.820601" xlink:href="#mc49bf73372" y="400.194208"/>
     <use style="fill:#dd8452;stroke:#dd8452;stroke-linejoin:miter;" x="1069.482938" xlink:href="#mc49bf73372" y="368.92093"/>
     <use style="fill:#dd8452;stroke:#dd8452;stroke-linejoin:miter;" x="1079.145276" xlink:href="#mc49bf73372" y="414.88918"/>
     <use style="fill:#dd8452;stroke:#dd8452;stroke-linejoin:miter;" x="1088.807614" xlink:href="#mc49bf73372" y="445.416045"/>
     <use style="fill:#dd8452;stroke:#dd8452;stroke-linejoin:miter;" x="1098.469951" xlink:href="#mc49bf73372" y="400.475242"/>
     <use style="fill:#dd8452;stroke:#dd8452;stroke-linejoin:miter;" x="1108.132289" xlink:href="#mc49bf73372" y="427.759975"/>
     <use style="fill:#dd8452;stroke:#dd8452;stroke-linejoin:miter;" x="1117.794627" xlink:href="#mc49bf73372" y="402.412876"/>
     <use style="fill:#dd8452;stroke:#dd8452;stroke-linejoin:miter;" x="1127.456964" xlink:href="#mc49bf73372" y="391.768995"/>
     <use style="fill:#dd8452;stroke:#dd8452;stroke-linejoin:miter;" x="1137.119302" xlink:href="#mc49bf73372" y="412.026516"/>
     <use style="fill:#dd8452;stroke:#dd8452;stroke-linejoin:miter;" x="1146.78164" xlink:href="#mc49bf73372" y="380.332324"/>
     <use style="fill:#dd8452;stroke:#dd8452;stroke-linejoin:miter;" x="1156.443977" xlink:href="#mc49bf73372" y="355.431014"/>
    </g>
   </g>
   <g id="patch_9">
    <path d="M 91.17125 659.52 
L 91.17125 7.2 
" style="fill:none;stroke:#ffffff;stroke-linecap:square;stroke-linejoin:miter;stroke-width:1.25;"/>
   </g>
   <g id="patch_10">
    <path d="M 1207.17125 659.52 
L 1207.17125 7.2 
" style="fill:none;stroke:#ffffff;stroke-linecap:square;stroke-linejoin:miter;stroke-width:1.25;"/>
   </g>
   <g id="patch_11">
    <path d="M 91.17125 659.52 
L 1207.17125 659.52 
" style="fill:none;stroke:#ffffff;stroke-linecap:square;stroke-linejoin:miter;stroke-width:1.25;"/>
   </g>
   <g id="patch_12">
    <path d="M 91.17125 7.2 
L 1207.17125 7.2 
" style="fill:none;stroke:#ffffff;stroke-linecap:square;stroke-linejoin:miter;stroke-width:1.25;"/>
   </g>
   <g id="legend_2">
    <g id="patch_13">
     <path d="M 112.17125 75.234375 
L 401.03375 75.234375 
Q 407.03375 75.234375 407.03375 69.234375 
L 407.03375 28.2 
Q 407.03375 22.2 401.03375 22.2 
L 112.17125 22.2 
Q 106.17125 22.2 106.17125 28.2 
L 106.17125 69.234375 
Q 106.17125 75.234375 112.17125 75.234375 
z
" style="fill:#eaeaf2;opacity:0.8;stroke:#cccccc;stroke-linejoin:miter;"/>
    </g>
    <g id="line2d_33">
     <path d="M 118.17125 46.495312 
L 178.17125 46.495312 
" style="fill:none;stroke:#55a868;stroke-dasharray:6,9.9;stroke-dashoffset:0;stroke-width:6;"/>
    </g>
    <g id="line2d_34"/>
    <g id="text_23">
     <!-- learning rate -->
     <g style="fill:#262626;" transform="translate(202.17125 56.995312)scale(0.3 -0.3)">
      <defs>
       <path d="M 45.40625 27.984375 
Q 45.40625 37.75 41.375 43.109375 
Q 37.359375 48.484375 30.078125 48.484375 
Q 22.859375 48.484375 18.828125 43.109375 
Q 14.796875 37.75 14.796875 27.984375 
Q 14.796875 18.265625 18.828125 12.890625 
Q 22.859375 7.515625 30.078125 7.515625 
Q 37.359375 7.515625 41.375 12.890625 
Q 45.40625 18.265625 45.40625 27.984375 
z
M 54.390625 6.78125 
Q 54.390625 -7.171875 48.1875 -13.984375 
Q 42 -20.796875 29.203125 -20.796875 
Q 24.46875 -20.796875 20.265625 -20.09375 
Q 16.0625 -19.390625 12.109375 -17.921875 
L 12.109375 -9.1875 
Q 16.0625 -11.328125 19.921875 -12.34375 
Q 23.78125 -13.375 27.78125 -13.375 
Q 36.625 -13.375 41.015625 -8.765625 
Q 45.40625 -4.15625 45.40625 5.171875 
L 45.40625 9.625 
Q 42.625 4.78125 38.28125 2.390625 
Q 33.9375 0 27.875 0 
Q 17.828125 0 11.671875 7.65625 
Q 5.515625 15.328125 5.515625 27.984375 
Q 5.515625 40.671875 11.671875 48.328125 
Q 17.828125 56 27.875 56 
Q 33.9375 56 38.28125 53.609375 
Q 42.625 51.21875 45.40625 46.390625 
L 45.40625 54.6875 
L 54.390625 54.6875 
z
" id="DejaVuSans-103"/>
      </defs>
      <use xlink:href="#DejaVuSans-108"/>
      <use x="27.783203" xlink:href="#DejaVuSans-101"/>
      <use x="89.306641" xlink:href="#DejaVuSans-97"/>
      <use x="150.585938" xlink:href="#DejaVuSans-114"/>
      <use x="189.949219" xlink:href="#DejaVuSans-110"/>
      <use x="253.328125" xlink:href="#DejaVuSans-105"/>
      <use x="281.111328" xlink:href="#DejaVuSans-110"/>
      <use x="344.490234" xlink:href="#DejaVuSans-103"/>
      <use x="407.966797" xlink:href="#DejaVuSans-32"/>
      <use x="439.753906" xlink:href="#DejaVuSans-114"/>
      <use x="480.867188" xlink:href="#DejaVuSans-97"/>
      <use x="542.146484" xlink:href="#DejaVuSans-116"/>
      <use x="581.355469" xlink:href="#DejaVuSans-101"/>
     </g>
    </g>
   </g>
  </g>
 </g>
 <defs>
  <clipPath id="p96123630a2">
   <rect height="652.32" width="1116" x="91.17125" y="7.2"/>
  </clipPath>
 </defs>
</svg>
