<?xml version="1.0" encoding="utf-8" standalone="no"?>
<!DOCTYPE svg PUBLIC "-//W3C//DTD SVG 1.1//EN"
  "http://www.w3.org/Graphics/SVG/1.1/DTD/svg11.dtd">
<!-- Created with matplotlib (https://matplotlib.org/) -->
<svg height="407.549062pt" version="1.1" viewBox="0 0 581.209375 407.549062" width="581.209375pt" xmlns="http://www.w3.org/2000/svg" xmlns:xlink="http://www.w3.org/1999/xlink">
 <metadata>
  <rdf:RDF xmlns:cc="http://creativecommons.org/ns#" xmlns:dc="http://purl.org/dc/elements/1.1/" xmlns:rdf="http://www.w3.org/1999/02/22-rdf-syntax-ns#">
   <cc:Work>
    <dc:type rdf:resource="http://purl.org/dc/dcmitype/StillImage"/>
    <dc:date>2022-04-27T11:04:11.116121</dc:date>
    <dc:format>image/svg+xml</dc:format>
    <dc:creator>
     <cc:Agent>
      <dc:title>Matplotlib v3.3.4, https://matplotlib.org/</dc:title>
     </cc:Agent>
    </dc:creator>
   </cc:Work>
  </rdf:RDF>
 </metadata>
 <defs>
  <style type="text/css">*{stroke-linecap:butt;stroke-linejoin:round;}</style>
 </defs>
 <g id="figure_1">
  <g id="patch_1">
   <path d="M 0 407.549062 
L 581.209375 407.549062 
L 581.209375 0 
L 0 0 
z
" style="fill:none;"/>
  </g>
  <g id="axes_1">
   <g id="patch_2">
    <path d="M 82.434375 340.958438 
L 528.834375 340.958438 
L 528.834375 14.798437 
L 82.434375 14.798437 
z
" style="fill:#ffffff;"/>
   </g>
   <g id="patch_3">
    <path clip-path="url(#pd096dcbf47)" d="M 102.725284 104219.83477 
L 110.841648 104219.83477 
L 110.841648 36.879882 
L 102.725284 36.879882 
z
" style="fill:#1f77b4;"/>
   </g>
   <g id="patch_4">
    <path clip-path="url(#pd096dcbf47)" d="M 110.841648 104219.83477 
L 118.958011 104219.83477 
L 118.958011 158.920978 
L 110.841648 158.920978 
z
" style="fill:#1f77b4;"/>
   </g>
   <g id="patch_5">
    <path clip-path="url(#pd096dcbf47)" d="M 118.958011 104219.83477 
L 127.074375 104219.83477 
L 127.074375 232.653457 
L 118.958011 232.653457 
z
" style="fill:#1f77b4;"/>
   </g>
   <g id="patch_6">
    <path clip-path="url(#pd096dcbf47)" d="M 127.074375 104219.83477 
L 135.190739 104219.83477 
L 135.190739 295.20349 
L 127.074375 295.20349 
z
" style="fill:#1f77b4;"/>
   </g>
   <g id="patch_7">
    <path clip-path="url(#pd096dcbf47)" d="M 135.190739 104219.83477 
L 143.307102 104219.83477 
L 143.307102 104219.83477 
L 135.190739 104219.83477 
z
" style="fill:#1f77b4;"/>
   </g>
   <g id="patch_8">
    <path clip-path="url(#pd096dcbf47)" d="M 143.307102 104219.83477 
L 151.423466 104219.83477 
L 151.423466 295.20349 
L 143.307102 295.20349 
z
" style="fill:#1f77b4;"/>
   </g>
   <g id="patch_9">
    <path clip-path="url(#pd096dcbf47)" d="M 151.423466 104219.83477 
L 159.53983 104219.83477 
L 159.53983 104219.83477 
L 151.423466 104219.83477 
z
" style="fill:#1f77b4;"/>
   </g>
   <g id="patch_10">
    <path clip-path="url(#pd096dcbf47)" d="M 159.53983 104219.83477 
L 167.656193 104219.83477 
L 167.656193 326.478506 
L 159.53983 326.478506 
z
" style="fill:#1f77b4;"/>
   </g>
   <g id="patch_11">
    <path clip-path="url(#pd096dcbf47)" d="M 167.656193 104219.83477 
L 175.772557 104219.83477 
L 175.772557 104219.83477 
L 167.656193 104219.83477 
z
" style="fill:#1f77b4;"/>
   </g>
   <g id="patch_12">
    <path clip-path="url(#pd096dcbf47)" d="M 175.772557 104219.83477 
L 183.88892 104219.83477 
L 183.88892 326.478506 
L 175.772557 326.478506 
z
" style="fill:#1f77b4;"/>
   </g>
   <g id="patch_13">
    <path clip-path="url(#pd096dcbf47)" d="M 183.88892 104219.83477 
L 192.005284 104219.83477 
L 192.005284 104219.83477 
L 183.88892 104219.83477 
z
" style="fill:#1f77b4;"/>
   </g>
   <g id="patch_14">
    <path clip-path="url(#pd096dcbf47)" d="M 192.005284 104219.83477 
L 200.121648 104219.83477 
L 200.121648 104219.83477 
L 192.005284 104219.83477 
z
" style="fill:#1f77b4;"/>
   </g>
   <g id="patch_15">
    <path clip-path="url(#pd096dcbf47)" d="M 200.121648 104219.83477 
L 208.238011 104219.83477 
L 208.238011 104219.83477 
L 200.121648 104219.83477 
z
" style="fill:#1f77b4;"/>
   </g>
   <g id="patch_16">
    <path clip-path="url(#pd096dcbf47)" d="M 208.238011 104219.83477 
L 216.354375 104219.83477 
L 216.354375 104219.83477 
L 208.238011 104219.83477 
z
" style="fill:#1f77b4;"/>
   </g>
   <g id="patch_17">
    <path clip-path="url(#pd096dcbf47)" d="M 216.354375 104219.83477 
L 224.470739 104219.83477 
L 224.470739 104219.83477 
L 216.354375 104219.83477 
z
" style="fill:#1f77b4;"/>
   </g>
   <g id="patch_18">
    <path clip-path="url(#pd096dcbf47)" d="M 224.470739 104219.83477 
L 232.587102 104219.83477 
L 232.587102 104219.83477 
L 224.470739 104219.83477 
z
" style="fill:#1f77b4;"/>
   </g>
   <g id="patch_19">
    <path clip-path="url(#pd096dcbf47)" d="M 232.587102 104219.83477 
L 240.703466 104219.83477 
L 240.703466 104219.83477 
L 232.587102 104219.83477 
z
" style="fill:#1f77b4;"/>
   </g>
   <g id="patch_20">
    <path clip-path="url(#pd096dcbf47)" d="M 240.703466 104219.83477 
L 248.81983 104219.83477 
L 248.81983 104219.83477 
L 240.703466 104219.83477 
z
" style="fill:#1f77b4;"/>
   </g>
   <g id="patch_21">
    <path clip-path="url(#pd096dcbf47)" d="M 248.81983 104219.83477 
L 256.936193 104219.83477 
L 256.936193 326.478506 
L 248.81983 326.478506 
z
" style="fill:#1f77b4;"/>
   </g>
   <g id="patch_22">
    <path clip-path="url(#pd096dcbf47)" d="M 256.936193 104219.83477 
L 265.052557 104219.83477 
L 265.052557 326.478506 
L 256.936193 326.478506 
z
" style="fill:#1f77b4;"/>
   </g>
   <g id="patch_23">
    <path clip-path="url(#pd096dcbf47)" d="M 265.052557 104219.83477 
L 273.16892 104219.83477 
L 273.16892 104219.83477 
L 265.052557 104219.83477 
z
" style="fill:#1f77b4;"/>
   </g>
   <g id="patch_24">
    <path clip-path="url(#pd096dcbf47)" d="M 273.16892 104219.83477 
L 281.285284 104219.83477 
L 281.285284 104219.83477 
L 273.16892 104219.83477 
z
" style="fill:#1f77b4;"/>
   </g>
   <g id="patch_25">
    <path clip-path="url(#pd096dcbf47)" d="M 281.285284 104219.83477 
L 289.401648 104219.83477 
L 289.401648 326.478506 
L 281.285284 326.478506 
z
" style="fill:#1f77b4;"/>
   </g>
   <g id="patch_26">
    <path clip-path="url(#pd096dcbf47)" d="M 289.401648 104219.83477 
L 297.518011 104219.83477 
L 297.518011 104219.83477 
L 289.401648 104219.83477 
z
" style="fill:#1f77b4;"/>
   </g>
   <g id="patch_27">
    <path clip-path="url(#pd096dcbf47)" d="M 297.518011 104219.83477 
L 305.634375 104219.83477 
L 305.634375 104219.83477 
L 297.518011 104219.83477 
z
" style="fill:#1f77b4;"/>
   </g>
   <g id="patch_28">
    <path clip-path="url(#pd096dcbf47)" d="M 305.634375 104219.83477 
L 313.750739 104219.83477 
L 313.750739 326.478506 
L 305.634375 326.478506 
z
" style="fill:#1f77b4;"/>
   </g>
   <g id="patch_29">
    <path clip-path="url(#pd096dcbf47)" d="M 313.750739 104219.83477 
L 321.867102 104219.83477 
L 321.867102 104219.83477 
L 313.750739 104219.83477 
z
" style="fill:#1f77b4;"/>
   </g>
   <g id="patch_30">
    <path clip-path="url(#pd096dcbf47)" d="M 321.867102 104219.83477 
L 329.983466 104219.83477 
L 329.983466 104219.83477 
L 321.867102 104219.83477 
z
" style="fill:#1f77b4;"/>
   </g>
   <g id="patch_31">
    <path clip-path="url(#pd096dcbf47)" d="M 329.983466 104219.83477 
L 338.09983 104219.83477 
L 338.09983 104219.83477 
L 329.983466 104219.83477 
z
" style="fill:#1f77b4;"/>
   </g>
   <g id="patch_32">
    <path clip-path="url(#pd096dcbf47)" d="M 338.09983 104219.83477 
L 346.216193 104219.83477 
L 346.216193 326.478506 
L 338.09983 326.478506 
z
" style="fill:#1f77b4;"/>
   </g>
   <g id="patch_33">
    <path clip-path="url(#pd096dcbf47)" d="M 346.216193 104219.83477 
L 354.332557 104219.83477 
L 354.332557 295.20349 
L 346.216193 295.20349 
z
" style="fill:#1f77b4;"/>
   </g>
   <g id="patch_34">
    <path clip-path="url(#pd096dcbf47)" d="M 354.332557 104219.83477 
L 362.44892 104219.83477 
L 362.44892 104219.83477 
L 354.332557 104219.83477 
z
" style="fill:#1f77b4;"/>
   </g>
   <g id="patch_35">
    <path clip-path="url(#pd096dcbf47)" d="M 362.44892 104219.83477 
L 370.565284 104219.83477 
L 370.565284 104219.83477 
L 362.44892 104219.83477 
z
" style="fill:#1f77b4;"/>
   </g>
   <g id="patch_36">
    <path clip-path="url(#pd096dcbf47)" d="M 370.565284 104219.83477 
L 378.681648 104219.83477 
L 378.681648 104219.83477 
L 370.565284 104219.83477 
z
" style="fill:#1f77b4;"/>
   </g>
   <g id="patch_37">
    <path clip-path="url(#pd096dcbf47)" d="M 378.681648 104219.83477 
L 386.798011 104219.83477 
L 386.798011 104219.83477 
L 378.681648 104219.83477 
z
" style="fill:#1f77b4;"/>
   </g>
   <g id="patch_38">
    <path clip-path="url(#pd096dcbf47)" d="M 386.798011 104219.83477 
L 394.914375 104219.83477 
L 394.914375 104219.83477 
L 386.798011 104219.83477 
z
" style="fill:#1f77b4;"/>
   </g>
   <g id="patch_39">
    <path clip-path="url(#pd096dcbf47)" d="M 394.914375 104219.83477 
L 403.030739 104219.83477 
L 403.030739 104219.83477 
L 394.914375 104219.83477 
z
" style="fill:#1f77b4;"/>
   </g>
   <g id="patch_40">
    <path clip-path="url(#pd096dcbf47)" d="M 403.030739 104219.83477 
L 411.147102 104219.83477 
L 411.147102 104219.83477 
L 403.030739 104219.83477 
z
" style="fill:#1f77b4;"/>
   </g>
   <g id="patch_41">
    <path clip-path="url(#pd096dcbf47)" d="M 411.147102 104219.83477 
L 419.263466 104219.83477 
L 419.263466 104219.83477 
L 411.147102 104219.83477 
z
" style="fill:#1f77b4;"/>
   </g>
   <g id="patch_42">
    <path clip-path="url(#pd096dcbf47)" d="M 419.263466 104219.83477 
L 427.37983 104219.83477 
L 427.37983 104219.83477 
L 419.263466 104219.83477 
z
" style="fill:#1f77b4;"/>
   </g>
   <g id="patch_43">
    <path clip-path="url(#pd096dcbf47)" d="M 427.37983 104219.83477 
L 435.496193 104219.83477 
L 435.496193 104219.83477 
L 427.37983 104219.83477 
z
" style="fill:#1f77b4;"/>
   </g>
   <g id="patch_44">
    <path clip-path="url(#pd096dcbf47)" d="M 435.496193 104219.83477 
L 443.612557 104219.83477 
L 443.612557 104219.83477 
L 435.496193 104219.83477 
z
" style="fill:#1f77b4;"/>
   </g>
   <g id="patch_45">
    <path clip-path="url(#pd096dcbf47)" d="M 443.612557 104219.83477 
L 451.72892 104219.83477 
L 451.72892 104219.83477 
L 443.612557 104219.83477 
z
" style="fill:#1f77b4;"/>
   </g>
   <g id="patch_46">
    <path clip-path="url(#pd096dcbf47)" d="M 451.72892 104219.83477 
L 459.845284 104219.83477 
L 459.845284 104219.83477 
L 451.72892 104219.83477 
z
" style="fill:#1f77b4;"/>
   </g>
   <g id="patch_47">
    <path clip-path="url(#pd096dcbf47)" d="M 459.845284 104219.83477 
L 467.961648 104219.83477 
L 467.961648 104219.83477 
L 459.845284 104219.83477 
z
" style="fill:#1f77b4;"/>
   </g>
   <g id="patch_48">
    <path clip-path="url(#pd096dcbf47)" d="M 467.961648 104219.83477 
L 476.078011 104219.83477 
L 476.078011 104219.83477 
L 467.961648 104219.83477 
z
" style="fill:#1f77b4;"/>
   </g>
   <g id="patch_49">
    <path clip-path="url(#pd096dcbf47)" d="M 476.078011 104219.83477 
L 484.194375 104219.83477 
L 484.194375 104219.83477 
L 476.078011 104219.83477 
z
" style="fill:#1f77b4;"/>
   </g>
   <g id="patch_50">
    <path clip-path="url(#pd096dcbf47)" d="M 484.194375 104219.83477 
L 492.310739 104219.83477 
L 492.310739 104219.83477 
L 484.194375 104219.83477 
z
" style="fill:#1f77b4;"/>
   </g>
   <g id="patch_51">
    <path clip-path="url(#pd096dcbf47)" d="M 492.310739 104219.83477 
L 500.427102 104219.83477 
L 500.427102 326.478506 
L 492.310739 326.478506 
z
" style="fill:#1f77b4;"/>
   </g>
   <g id="patch_52">
    <path clip-path="url(#pd096dcbf47)" d="M 500.427102 104219.83477 
L 508.543466 104219.83477 
L 508.543466 326.478506 
L 500.427102 326.478506 
z
" style="fill:#1f77b4;"/>
   </g>
   <g id="matplotlib.axis_1">
    <g id="xtick_1">
     <g id="line2d_1">
      <defs>
       <path d="M 0 0 
L 0 3.5 
" id="me76dde59d2" style="stroke:#000000;stroke-width:0.8;"/>
      </defs>
      <g>
       <use style="stroke:#000000;stroke-width:0.8;" x="102.677925" xlink:href="#me76dde59d2" y="340.958438"/>
      </g>
     </g>
     <g id="text_1">
      <!-- 0 -->
      <g transform="translate(96.315425 363.155312)scale(0.2 -0.2)">
       <defs>
        <path d="M 31.78125 66.40625 
Q 24.171875 66.40625 20.328125 58.90625 
Q 16.5 51.421875 16.5 36.375 
Q 16.5 21.390625 20.328125 13.890625 
Q 24.171875 6.390625 31.78125 6.390625 
Q 39.453125 6.390625 43.28125 13.890625 
Q 47.125 21.390625 47.125 36.375 
Q 47.125 51.421875 43.28125 58.90625 
Q 39.453125 66.40625 31.78125 66.40625 
z
M 31.78125 74.21875 
Q 44.046875 74.21875 50.515625 64.515625 
Q 56.984375 54.828125 56.984375 36.375 
Q 56.984375 17.96875 50.515625 8.265625 
Q 44.046875 -1.421875 31.78125 -1.421875 
Q 19.53125 -1.421875 13.0625 8.265625 
Q 6.59375 17.96875 6.59375 36.375 
Q 6.59375 54.828125 13.0625 64.515625 
Q 19.53125 74.21875 31.78125 74.21875 
z
" id="DejaVuSans-48"/>
       </defs>
       <use xlink:href="#DejaVuSans-48"/>
      </g>
     </g>
    </g>
    <g id="xtick_2">
     <g id="line2d_2">
      <g>
       <use style="stroke:#000000;stroke-width:0.8;" x="226.491406" xlink:href="#me76dde59d2" y="340.958438"/>
      </g>
     </g>
     <g id="text_2">
      <!-- 2000 -->
      <g transform="translate(201.041406 363.155312)scale(0.2 -0.2)">
       <defs>
        <path d="M 19.1875 8.296875 
L 53.609375 8.296875 
L 53.609375 0 
L 7.328125 0 
L 7.328125 8.296875 
Q 12.9375 14.109375 22.625 23.890625 
Q 32.328125 33.6875 34.8125 36.53125 
Q 39.546875 41.84375 41.421875 45.53125 
Q 43.3125 49.21875 43.3125 52.78125 
Q 43.3125 58.59375 39.234375 62.25 
Q 35.15625 65.921875 28.609375 65.921875 
Q 23.96875 65.921875 18.8125 64.3125 
Q 13.671875 62.703125 7.8125 59.421875 
L 7.8125 69.390625 
Q 13.765625 71.78125 18.9375 73 
Q 24.125 74.21875 28.421875 74.21875 
Q 39.75 74.21875 46.484375 68.546875 
Q 53.21875 62.890625 53.21875 53.421875 
Q 53.21875 48.921875 51.53125 44.890625 
Q 49.859375 40.875 45.40625 35.40625 
Q 44.1875 33.984375 37.640625 27.21875 
Q 31.109375 20.453125 19.1875 8.296875 
z
" id="DejaVuSans-50"/>
       </defs>
       <use xlink:href="#DejaVuSans-50"/>
       <use x="63.623047" xlink:href="#DejaVuSans-48"/>
       <use x="127.246094" xlink:href="#DejaVuSans-48"/>
       <use x="190.869141" xlink:href="#DejaVuSans-48"/>
      </g>
     </g>
    </g>
    <g id="xtick_3">
     <g id="line2d_3">
      <g>
       <use style="stroke:#000000;stroke-width:0.8;" x="350.304886" xlink:href="#me76dde59d2" y="340.958438"/>
      </g>
     </g>
     <g id="text_3">
      <!-- 4000 -->
      <g transform="translate(324.854886 363.155312)scale(0.2 -0.2)">
       <defs>
        <path d="M 37.796875 64.3125 
L 12.890625 25.390625 
L 37.796875 25.390625 
z
M 35.203125 72.90625 
L 47.609375 72.90625 
L 47.609375 25.390625 
L 58.015625 25.390625 
L 58.015625 17.1875 
L 47.609375 17.1875 
L 47.609375 0 
L 37.796875 0 
L 37.796875 17.1875 
L 4.890625 17.1875 
L 4.890625 26.703125 
z
" id="DejaVuSans-52"/>
       </defs>
       <use xlink:href="#DejaVuSans-52"/>
       <use x="63.623047" xlink:href="#DejaVuSans-48"/>
       <use x="127.246094" xlink:href="#DejaVuSans-48"/>
       <use x="190.869141" xlink:href="#DejaVuSans-48"/>
      </g>
     </g>
    </g>
    <g id="xtick_4">
     <g id="line2d_4">
      <g>
       <use style="stroke:#000000;stroke-width:0.8;" x="474.118366" xlink:href="#me76dde59d2" y="340.958438"/>
      </g>
     </g>
     <g id="text_4">
      <!-- 6000 -->
      <g transform="translate(448.668366 363.155312)scale(0.2 -0.2)">
       <defs>
        <path d="M 33.015625 40.375 
Q 26.375 40.375 22.484375 35.828125 
Q 18.609375 31.296875 18.609375 23.390625 
Q 18.609375 15.53125 22.484375 10.953125 
Q 26.375 6.390625 33.015625 6.390625 
Q 39.65625 6.390625 43.53125 10.953125 
Q 47.40625 15.53125 47.40625 23.390625 
Q 47.40625 31.296875 43.53125 35.828125 
Q 39.65625 40.375 33.015625 40.375 
z
M 52.59375 71.296875 
L 52.59375 62.3125 
Q 48.875 64.0625 45.09375 64.984375 
Q 41.3125 65.921875 37.59375 65.921875 
Q 27.828125 65.921875 22.671875 59.328125 
Q 17.53125 52.734375 16.796875 39.40625 
Q 19.671875 43.65625 24.015625 45.921875 
Q 28.375 48.1875 33.59375 48.1875 
Q 44.578125 48.1875 50.953125 41.515625 
Q 57.328125 34.859375 57.328125 23.390625 
Q 57.328125 12.15625 50.6875 5.359375 
Q 44.046875 -1.421875 33.015625 -1.421875 
Q 20.359375 -1.421875 13.671875 8.265625 
Q 6.984375 17.96875 6.984375 36.375 
Q 6.984375 53.65625 15.1875 63.9375 
Q 23.390625 74.21875 37.203125 74.21875 
Q 40.921875 74.21875 44.703125 73.484375 
Q 48.484375 72.75 52.59375 71.296875 
z
" id="DejaVuSans-54"/>
       </defs>
       <use xlink:href="#DejaVuSans-54"/>
       <use x="63.623047" xlink:href="#DejaVuSans-48"/>
       <use x="127.246094" xlink:href="#DejaVuSans-48"/>
       <use x="190.869141" xlink:href="#DejaVuSans-48"/>
      </g>
     </g>
    </g>
    <g id="text_5">
     <!-- PAF Event Duration (s) -->
     <g transform="translate(136.717969 394.11)scale(0.3 -0.3)">
      <defs>
       <path d="M 19.671875 64.796875 
L 19.671875 37.40625 
L 32.078125 37.40625 
Q 38.96875 37.40625 42.71875 40.96875 
Q 46.484375 44.53125 46.484375 51.125 
Q 46.484375 57.671875 42.71875 61.234375 
Q 38.96875 64.796875 32.078125 64.796875 
z
M 9.8125 72.90625 
L 32.078125 72.90625 
Q 44.34375 72.90625 50.609375 67.359375 
Q 56.890625 61.8125 56.890625 51.125 
Q 56.890625 40.328125 50.609375 34.8125 
Q 44.34375 29.296875 32.078125 29.296875 
L 19.671875 29.296875 
L 19.671875 0 
L 9.8125 0 
z
" id="DejaVuSans-80"/>
       <path d="M 34.1875 63.1875 
L 20.796875 26.90625 
L 47.609375 26.90625 
z
M 28.609375 72.90625 
L 39.796875 72.90625 
L 67.578125 0 
L 57.328125 0 
L 50.6875 18.703125 
L 17.828125 18.703125 
L 11.1875 0 
L 0.78125 0 
z
" id="DejaVuSans-65"/>
       <path d="M 9.8125 72.90625 
L 51.703125 72.90625 
L 51.703125 64.59375 
L 19.671875 64.59375 
L 19.671875 43.109375 
L 48.578125 43.109375 
L 48.578125 34.8125 
L 19.671875 34.8125 
L 19.671875 0 
L 9.8125 0 
z
" id="DejaVuSans-70"/>
       <path id="DejaVuSans-32"/>
       <path d="M 9.8125 72.90625 
L 55.90625 72.90625 
L 55.90625 64.59375 
L 19.671875 64.59375 
L 19.671875 43.015625 
L 54.390625 43.015625 
L 54.390625 34.71875 
L 19.671875 34.71875 
L 19.671875 8.296875 
L 56.78125 8.296875 
L 56.78125 0 
L 9.8125 0 
z
" id="DejaVuSans-69"/>
       <path d="M 2.984375 54.6875 
L 12.5 54.6875 
L 29.59375 8.796875 
L 46.6875 54.6875 
L 56.203125 54.6875 
L 35.6875 0 
L 23.484375 0 
z
" id="DejaVuSans-118"/>
       <path d="M 56.203125 29.59375 
L 56.203125 25.203125 
L 14.890625 25.203125 
Q 15.484375 15.921875 20.484375 11.0625 
Q 25.484375 6.203125 34.421875 6.203125 
Q 39.59375 6.203125 44.453125 7.46875 
Q 49.3125 8.734375 54.109375 11.28125 
L 54.109375 2.78125 
Q 49.265625 0.734375 44.1875 -0.34375 
Q 39.109375 -1.421875 33.890625 -1.421875 
Q 20.796875 -1.421875 13.15625 6.1875 
Q 5.515625 13.8125 5.515625 26.8125 
Q 5.515625 40.234375 12.765625 48.109375 
Q 20.015625 56 32.328125 56 
Q 43.359375 56 49.78125 48.890625 
Q 56.203125 41.796875 56.203125 29.59375 
z
M 47.21875 32.234375 
Q 47.125 39.59375 43.09375 43.984375 
Q 39.0625 48.390625 32.421875 48.390625 
Q 24.90625 48.390625 20.390625 44.140625 
Q 15.875 39.890625 15.1875 32.171875 
z
" id="DejaVuSans-101"/>
       <path d="M 54.890625 33.015625 
L 54.890625 0 
L 45.90625 0 
L 45.90625 32.71875 
Q 45.90625 40.484375 42.875 44.328125 
Q 39.84375 48.1875 33.796875 48.1875 
Q 26.515625 48.1875 22.3125 43.546875 
Q 18.109375 38.921875 18.109375 30.90625 
L 18.109375 0 
L 9.078125 0 
L 9.078125 54.6875 
L 18.109375 54.6875 
L 18.109375 46.1875 
Q 21.34375 51.125 25.703125 53.5625 
Q 30.078125 56 35.796875 56 
Q 45.21875 56 50.046875 50.171875 
Q 54.890625 44.34375 54.890625 33.015625 
z
" id="DejaVuSans-110"/>
       <path d="M 18.3125 70.21875 
L 18.3125 54.6875 
L 36.8125 54.6875 
L 36.8125 47.703125 
L 18.3125 47.703125 
L 18.3125 18.015625 
Q 18.3125 11.328125 20.140625 9.421875 
Q 21.96875 7.515625 27.59375 7.515625 
L 36.8125 7.515625 
L 36.8125 0 
L 27.59375 0 
Q 17.1875 0 13.234375 3.875 
Q 9.28125 7.765625 9.28125 18.015625 
L 9.28125 47.703125 
L 2.6875 47.703125 
L 2.6875 54.6875 
L 9.28125 54.6875 
L 9.28125 70.21875 
z
" id="DejaVuSans-116"/>
       <path d="M 19.671875 64.796875 
L 19.671875 8.109375 
L 31.59375 8.109375 
Q 46.6875 8.109375 53.6875 14.9375 
Q 60.6875 21.78125 60.6875 36.53125 
Q 60.6875 51.171875 53.6875 57.984375 
Q 46.6875 64.796875 31.59375 64.796875 
z
M 9.8125 72.90625 
L 30.078125 72.90625 
Q 51.265625 72.90625 61.171875 64.09375 
Q 71.09375 55.28125 71.09375 36.53125 
Q 71.09375 17.671875 61.125 8.828125 
Q 51.171875 0 30.078125 0 
L 9.8125 0 
z
" id="DejaVuSans-68"/>
       <path d="M 8.5 21.578125 
L 8.5 54.6875 
L 17.484375 54.6875 
L 17.484375 21.921875 
Q 17.484375 14.15625 20.5 10.265625 
Q 23.53125 6.390625 29.59375 6.390625 
Q 36.859375 6.390625 41.078125 11.03125 
Q 45.3125 15.671875 45.3125 23.6875 
L 45.3125 54.6875 
L 54.296875 54.6875 
L 54.296875 0 
L 45.3125 0 
L 45.3125 8.40625 
Q 42.046875 3.421875 37.71875 1 
Q 33.40625 -1.421875 27.6875 -1.421875 
Q 18.265625 -1.421875 13.375 4.4375 
Q 8.5 10.296875 8.5 21.578125 
z
M 31.109375 56 
z
" id="DejaVuSans-117"/>
       <path d="M 41.109375 46.296875 
Q 39.59375 47.171875 37.8125 47.578125 
Q 36.03125 48 33.890625 48 
Q 26.265625 48 22.1875 43.046875 
Q 18.109375 38.09375 18.109375 28.8125 
L 18.109375 0 
L 9.078125 0 
L 9.078125 54.6875 
L 18.109375 54.6875 
L 18.109375 46.1875 
Q 20.953125 51.171875 25.484375 53.578125 
Q 30.03125 56 36.53125 56 
Q 37.453125 56 38.578125 55.875 
Q 39.703125 55.765625 41.0625 55.515625 
z
" id="DejaVuSans-114"/>
       <path d="M 34.28125 27.484375 
Q 23.390625 27.484375 19.1875 25 
Q 14.984375 22.515625 14.984375 16.5 
Q 14.984375 11.71875 18.140625 8.90625 
Q 21.296875 6.109375 26.703125 6.109375 
Q 34.1875 6.109375 38.703125 11.40625 
Q 43.21875 16.703125 43.21875 25.484375 
L 43.21875 27.484375 
z
M 52.203125 31.203125 
L 52.203125 0 
L 43.21875 0 
L 43.21875 8.296875 
Q 40.140625 3.328125 35.546875 0.953125 
Q 30.953125 -1.421875 24.3125 -1.421875 
Q 15.921875 -1.421875 10.953125 3.296875 
Q 6 8.015625 6 15.921875 
Q 6 25.140625 12.171875 29.828125 
Q 18.359375 34.515625 30.609375 34.515625 
L 43.21875 34.515625 
L 43.21875 35.40625 
Q 43.21875 41.609375 39.140625 45 
Q 35.0625 48.390625 27.6875 48.390625 
Q 23 48.390625 18.546875 47.265625 
Q 14.109375 46.140625 10.015625 43.890625 
L 10.015625 52.203125 
Q 14.9375 54.109375 19.578125 55.046875 
Q 24.21875 56 28.609375 56 
Q 40.484375 56 46.34375 49.84375 
Q 52.203125 43.703125 52.203125 31.203125 
z
" id="DejaVuSans-97"/>
       <path d="M 9.421875 54.6875 
L 18.40625 54.6875 
L 18.40625 0 
L 9.421875 0 
z
M 9.421875 75.984375 
L 18.40625 75.984375 
L 18.40625 64.59375 
L 9.421875 64.59375 
z
" id="DejaVuSans-105"/>
       <path d="M 30.609375 48.390625 
Q 23.390625 48.390625 19.1875 42.75 
Q 14.984375 37.109375 14.984375 27.296875 
Q 14.984375 17.484375 19.15625 11.84375 
Q 23.34375 6.203125 30.609375 6.203125 
Q 37.796875 6.203125 41.984375 11.859375 
Q 46.1875 17.53125 46.1875 27.296875 
Q 46.1875 37.015625 41.984375 42.703125 
Q 37.796875 48.390625 30.609375 48.390625 
z
M 30.609375 56 
Q 42.328125 56 49.015625 48.375 
Q 55.71875 40.765625 55.71875 27.296875 
Q 55.71875 13.875 49.015625 6.21875 
Q 42.328125 -1.421875 30.609375 -1.421875 
Q 18.84375 -1.421875 12.171875 6.21875 
Q 5.515625 13.875 5.515625 27.296875 
Q 5.515625 40.765625 12.171875 48.375 
Q 18.84375 56 30.609375 56 
z
" id="DejaVuSans-111"/>
       <path d="M 31 75.875 
Q 24.46875 64.65625 21.28125 53.65625 
Q 18.109375 42.671875 18.109375 31.390625 
Q 18.109375 20.125 21.3125 9.0625 
Q 24.515625 -2 31 -13.1875 
L 23.1875 -13.1875 
Q 15.875 -1.703125 12.234375 9.375 
Q 8.59375 20.453125 8.59375 31.390625 
Q 8.59375 42.28125 12.203125 53.3125 
Q 15.828125 64.359375 23.1875 75.875 
z
" id="DejaVuSans-40"/>
       <path d="M 44.28125 53.078125 
L 44.28125 44.578125 
Q 40.484375 46.53125 36.375 47.5 
Q 32.28125 48.484375 27.875 48.484375 
Q 21.1875 48.484375 17.84375 46.4375 
Q 14.5 44.390625 14.5 40.28125 
Q 14.5 37.15625 16.890625 35.375 
Q 19.28125 33.59375 26.515625 31.984375 
L 29.59375 31.296875 
Q 39.15625 29.25 43.1875 25.515625 
Q 47.21875 21.78125 47.21875 15.09375 
Q 47.21875 7.46875 41.1875 3.015625 
Q 35.15625 -1.421875 24.609375 -1.421875 
Q 20.21875 -1.421875 15.453125 -0.5625 
Q 10.6875 0.296875 5.421875 2 
L 5.421875 11.28125 
Q 10.40625 8.6875 15.234375 7.390625 
Q 20.0625 6.109375 24.8125 6.109375 
Q 31.15625 6.109375 34.5625 8.28125 
Q 37.984375 10.453125 37.984375 14.40625 
Q 37.984375 18.0625 35.515625 20.015625 
Q 33.0625 21.96875 24.703125 23.78125 
L 21.578125 24.515625 
Q 13.234375 26.265625 9.515625 29.90625 
Q 5.8125 33.546875 5.8125 39.890625 
Q 5.8125 47.609375 11.28125 51.796875 
Q 16.75 56 26.8125 56 
Q 31.78125 56 36.171875 55.265625 
Q 40.578125 54.546875 44.28125 53.078125 
z
" id="DejaVuSans-115"/>
       <path d="M 8.015625 75.875 
L 15.828125 75.875 
Q 23.140625 64.359375 26.78125 53.3125 
Q 30.421875 42.28125 30.421875 31.390625 
Q 30.421875 20.453125 26.78125 9.375 
Q 23.140625 -1.703125 15.828125 -13.1875 
L 8.015625 -13.1875 
Q 14.5 -2 17.703125 9.0625 
Q 20.90625 20.125 20.90625 31.390625 
Q 20.90625 42.671875 17.703125 53.65625 
Q 14.5 64.65625 8.015625 75.875 
z
" id="DejaVuSans-41"/>
      </defs>
      <use xlink:href="#DejaVuSans-80"/>
      <use x="53.927734" xlink:href="#DejaVuSans-65"/>
      <use x="122.335938" xlink:href="#DejaVuSans-70"/>
      <use x="179.855469" xlink:href="#DejaVuSans-32"/>
      <use x="211.642578" xlink:href="#DejaVuSans-69"/>
      <use x="274.826172" xlink:href="#DejaVuSans-118"/>
      <use x="334.005859" xlink:href="#DejaVuSans-101"/>
      <use x="395.529297" xlink:href="#DejaVuSans-110"/>
      <use x="458.908203" xlink:href="#DejaVuSans-116"/>
      <use x="498.117188" xlink:href="#DejaVuSans-32"/>
      <use x="529.904297" xlink:href="#DejaVuSans-68"/>
      <use x="606.90625" xlink:href="#DejaVuSans-117"/>
      <use x="670.285156" xlink:href="#DejaVuSans-114"/>
      <use x="711.398438" xlink:href="#DejaVuSans-97"/>
      <use x="772.677734" xlink:href="#DejaVuSans-116"/>
      <use x="811.886719" xlink:href="#DejaVuSans-105"/>
      <use x="839.669922" xlink:href="#DejaVuSans-111"/>
      <use x="900.851562" xlink:href="#DejaVuSans-110"/>
      <use x="964.230469" xlink:href="#DejaVuSans-32"/>
      <use x="996.017578" xlink:href="#DejaVuSans-40"/>
      <use x="1035.03125" xlink:href="#DejaVuSans-115"/>
      <use x="1087.130859" xlink:href="#DejaVuSans-41"/>
     </g>
    </g>
   </g>
   <g id="matplotlib.axis_2">
    <g id="ytick_1">
     <g id="line2d_5">
      <defs>
       <path d="M 0 0 
L -3.5 0 
" id="m625dccdd58" style="stroke:#000000;stroke-width:0.8;"/>
      </defs>
      <g>
       <use style="stroke:#000000;stroke-width:0.8;" x="82.434375" xlink:href="#m625dccdd58" y="326.478506"/>
      </g>
     </g>
     <g id="text_6">
      <!-- $\mathdefault{10^{0}}$ -->
      <g transform="translate(40.234375 334.076944)scale(0.2 -0.2)">
       <defs>
        <path d="M 12.40625 8.296875 
L 28.515625 8.296875 
L 28.515625 63.921875 
L 10.984375 60.40625 
L 10.984375 69.390625 
L 28.421875 72.90625 
L 38.28125 72.90625 
L 38.28125 8.296875 
L 54.390625 8.296875 
L 54.390625 0 
L 12.40625 0 
z
" id="DejaVuSans-49"/>
       </defs>
       <use transform="translate(0 0.765625)" xlink:href="#DejaVuSans-49"/>
       <use transform="translate(63.623047 0.765625)" xlink:href="#DejaVuSans-48"/>
       <use transform="translate(128.203125 39.046875)scale(0.7)" xlink:href="#DejaVuSans-48"/>
      </g>
     </g>
    </g>
    <g id="ytick_2">
     <g id="line2d_6">
      <g>
       <use style="stroke:#000000;stroke-width:0.8;" x="82.434375" xlink:href="#m625dccdd58" y="222.58515"/>
      </g>
     </g>
     <g id="text_7">
      <!-- $\mathdefault{10^{1}}$ -->
      <g transform="translate(40.234375 230.183588)scale(0.2 -0.2)">
       <use transform="translate(0 0.684375)" xlink:href="#DejaVuSans-49"/>
       <use transform="translate(63.623047 0.684375)" xlink:href="#DejaVuSans-48"/>
       <use transform="translate(128.203125 38.965625)scale(0.7)" xlink:href="#DejaVuSans-49"/>
      </g>
     </g>
    </g>
    <g id="ytick_3">
     <g id="line2d_7">
      <g>
       <use style="stroke:#000000;stroke-width:0.8;" x="82.434375" xlink:href="#m625dccdd58" y="118.691794"/>
      </g>
     </g>
     <g id="text_8">
      <!-- $\mathdefault{10^{2}}$ -->
      <g transform="translate(40.234375 126.290231)scale(0.2 -0.2)">
       <use transform="translate(0 0.765625)" xlink:href="#DejaVuSans-49"/>
       <use transform="translate(63.623047 0.765625)" xlink:href="#DejaVuSans-48"/>
       <use transform="translate(128.203125 39.046875)scale(0.7)" xlink:href="#DejaVuSans-50"/>
      </g>
     </g>
    </g>
    <g id="ytick_4">
     <g id="line2d_8">
      <g>
       <use style="stroke:#000000;stroke-width:0.8;" x="82.434375" xlink:href="#m625dccdd58" y="14.798437"/>
      </g>
     </g>
     <g id="text_9">
      <!-- $\mathdefault{10^{3}}$ -->
      <g transform="translate(40.234375 22.396875)scale(0.2 -0.2)">
       <defs>
        <path d="M 40.578125 39.3125 
Q 47.65625 37.796875 51.625 33 
Q 55.609375 28.21875 55.609375 21.1875 
Q 55.609375 10.40625 48.1875 4.484375 
Q 40.765625 -1.421875 27.09375 -1.421875 
Q 22.515625 -1.421875 17.65625 -0.515625 
Q 12.796875 0.390625 7.625 2.203125 
L 7.625 11.71875 
Q 11.71875 9.328125 16.59375 8.109375 
Q 21.484375 6.890625 26.8125 6.890625 
Q 36.078125 6.890625 40.9375 10.546875 
Q 45.796875 14.203125 45.796875 21.1875 
Q 45.796875 27.640625 41.28125 31.265625 
Q 36.765625 34.90625 28.71875 34.90625 
L 20.21875 34.90625 
L 20.21875 43.015625 
L 29.109375 43.015625 
Q 36.375 43.015625 40.234375 45.921875 
Q 44.09375 48.828125 44.09375 54.296875 
Q 44.09375 59.90625 40.109375 62.90625 
Q 36.140625 65.921875 28.71875 65.921875 
Q 24.65625 65.921875 20.015625 65.03125 
Q 15.375 64.15625 9.8125 62.3125 
L 9.8125 71.09375 
Q 15.4375 72.65625 20.34375 73.4375 
Q 25.25 74.21875 29.59375 74.21875 
Q 40.828125 74.21875 47.359375 69.109375 
Q 53.90625 64.015625 53.90625 55.328125 
Q 53.90625 49.265625 50.4375 45.09375 
Q 46.96875 40.921875 40.578125 39.3125 
z
" id="DejaVuSans-51"/>
       </defs>
       <use transform="translate(0 0.765625)" xlink:href="#DejaVuSans-49"/>
       <use transform="translate(63.623047 0.765625)" xlink:href="#DejaVuSans-48"/>
       <use transform="translate(128.203125 39.046875)scale(0.7)" xlink:href="#DejaVuSans-51"/>
      </g>
     </g>
    </g>
    <g id="ytick_5">
     <g id="line2d_9">
      <defs>
       <path d="M 0 0 
L -2 0 
" id="m22a75b8559" style="stroke:#000000;stroke-width:0.6;"/>
      </defs>
      <g>
       <use style="stroke:#000000;stroke-width:0.6;" x="82.434375" xlink:href="#m22a75b8559" y="336.546813"/>
      </g>
     </g>
    </g>
    <g id="ytick_6">
     <g id="line2d_10">
      <g>
       <use style="stroke:#000000;stroke-width:0.6;" x="82.434375" xlink:href="#m22a75b8559" y="331.232406"/>
      </g>
     </g>
    </g>
    <g id="ytick_7">
     <g id="line2d_11">
      <g>
       <use style="stroke:#000000;stroke-width:0.6;" x="82.434375" xlink:href="#m22a75b8559" y="295.20349"/>
      </g>
     </g>
    </g>
    <g id="ytick_8">
     <g id="line2d_12">
      <g>
       <use style="stroke:#000000;stroke-width:0.6;" x="82.434375" xlink:href="#m22a75b8559" y="276.908778"/>
      </g>
     </g>
    </g>
    <g id="ytick_9">
     <g id="line2d_13">
      <g>
       <use style="stroke:#000000;stroke-width:0.6;" x="82.434375" xlink:href="#m22a75b8559" y="263.928473"/>
      </g>
     </g>
    </g>
    <g id="ytick_10">
     <g id="line2d_14">
      <g>
       <use style="stroke:#000000;stroke-width:0.6;" x="82.434375" xlink:href="#m22a75b8559" y="253.860167"/>
      </g>
     </g>
    </g>
    <g id="ytick_11">
     <g id="line2d_15">
      <g>
       <use style="stroke:#000000;stroke-width:0.6;" x="82.434375" xlink:href="#m22a75b8559" y="245.633761"/>
      </g>
     </g>
    </g>
    <g id="ytick_12">
     <g id="line2d_16">
      <g>
       <use style="stroke:#000000;stroke-width:0.6;" x="82.434375" xlink:href="#m22a75b8559" y="238.678435"/>
      </g>
     </g>
    </g>
    <g id="ytick_13">
     <g id="line2d_17">
      <g>
       <use style="stroke:#000000;stroke-width:0.6;" x="82.434375" xlink:href="#m22a75b8559" y="232.653457"/>
      </g>
     </g>
    </g>
    <g id="ytick_14">
     <g id="line2d_18">
      <g>
       <use style="stroke:#000000;stroke-width:0.6;" x="82.434375" xlink:href="#m22a75b8559" y="227.339049"/>
      </g>
     </g>
    </g>
    <g id="ytick_15">
     <g id="line2d_19">
      <g>
       <use style="stroke:#000000;stroke-width:0.6;" x="82.434375" xlink:href="#m22a75b8559" y="191.310133"/>
      </g>
     </g>
    </g>
    <g id="ytick_16">
     <g id="line2d_20">
      <g>
       <use style="stroke:#000000;stroke-width:0.6;" x="82.434375" xlink:href="#m22a75b8559" y="173.015422"/>
      </g>
     </g>
    </g>
    <g id="ytick_17">
     <g id="line2d_21">
      <g>
       <use style="stroke:#000000;stroke-width:0.6;" x="82.434375" xlink:href="#m22a75b8559" y="160.035117"/>
      </g>
     </g>
    </g>
    <g id="ytick_18">
     <g id="line2d_22">
      <g>
       <use style="stroke:#000000;stroke-width:0.6;" x="82.434375" xlink:href="#m22a75b8559" y="149.96681"/>
      </g>
     </g>
    </g>
    <g id="ytick_19">
     <g id="line2d_23">
      <g>
       <use style="stroke:#000000;stroke-width:0.6;" x="82.434375" xlink:href="#m22a75b8559" y="141.740405"/>
      </g>
     </g>
    </g>
    <g id="ytick_20">
     <g id="line2d_24">
      <g>
       <use style="stroke:#000000;stroke-width:0.6;" x="82.434375" xlink:href="#m22a75b8559" y="134.785078"/>
      </g>
     </g>
    </g>
    <g id="ytick_21">
     <g id="line2d_25">
      <g>
       <use style="stroke:#000000;stroke-width:0.6;" x="82.434375" xlink:href="#m22a75b8559" y="128.7601"/>
      </g>
     </g>
    </g>
    <g id="ytick_22">
     <g id="line2d_26">
      <g>
       <use style="stroke:#000000;stroke-width:0.6;" x="82.434375" xlink:href="#m22a75b8559" y="123.445693"/>
      </g>
     </g>
    </g>
    <g id="ytick_23">
     <g id="line2d_27">
      <g>
       <use style="stroke:#000000;stroke-width:0.6;" x="82.434375" xlink:href="#m22a75b8559" y="87.416777"/>
      </g>
     </g>
    </g>
    <g id="ytick_24">
     <g id="line2d_28">
      <g>
       <use style="stroke:#000000;stroke-width:0.6;" x="82.434375" xlink:href="#m22a75b8559" y="69.122065"/>
      </g>
     </g>
    </g>
    <g id="ytick_25">
     <g id="line2d_29">
      <g>
       <use style="stroke:#000000;stroke-width:0.6;" x="82.434375" xlink:href="#m22a75b8559" y="56.141761"/>
      </g>
     </g>
    </g>
    <g id="ytick_26">
     <g id="line2d_30">
      <g>
       <use style="stroke:#000000;stroke-width:0.6;" x="82.434375" xlink:href="#m22a75b8559" y="46.073454"/>
      </g>
     </g>
    </g>
    <g id="ytick_27">
     <g id="line2d_31">
      <g>
       <use style="stroke:#000000;stroke-width:0.6;" x="82.434375" xlink:href="#m22a75b8559" y="37.847049"/>
      </g>
     </g>
    </g>
    <g id="ytick_28">
     <g id="line2d_32">
      <g>
       <use style="stroke:#000000;stroke-width:0.6;" x="82.434375" xlink:href="#m22a75b8559" y="30.891722"/>
      </g>
     </g>
    </g>
    <g id="ytick_29">
     <g id="line2d_33">
      <g>
       <use style="stroke:#000000;stroke-width:0.6;" x="82.434375" xlink:href="#m22a75b8559" y="24.866744"/>
      </g>
     </g>
    </g>
    <g id="ytick_30">
     <g id="line2d_34">
      <g>
       <use style="stroke:#000000;stroke-width:0.6;" x="82.434375" xlink:href="#m22a75b8559" y="19.552337"/>
      </g>
     </g>
    </g>
    <g id="text_10">
     <!-- Log Count (n.u.) -->
     <g transform="translate(29.995312 299.005781)rotate(-90)scale(0.3 -0.3)">
      <defs>
       <path d="M 9.8125 72.90625 
L 19.671875 72.90625 
L 19.671875 8.296875 
L 55.171875 8.296875 
L 55.171875 0 
L 9.8125 0 
z
" id="DejaVuSans-76"/>
       <path d="M 45.40625 27.984375 
Q 45.40625 37.75 41.375 43.109375 
Q 37.359375 48.484375 30.078125 48.484375 
Q 22.859375 48.484375 18.828125 43.109375 
Q 14.796875 37.75 14.796875 27.984375 
Q 14.796875 18.265625 18.828125 12.890625 
Q 22.859375 7.515625 30.078125 7.515625 
Q 37.359375 7.515625 41.375 12.890625 
Q 45.40625 18.265625 45.40625 27.984375 
z
M 54.390625 6.78125 
Q 54.390625 -7.171875 48.1875 -13.984375 
Q 42 -20.796875 29.203125 -20.796875 
Q 24.46875 -20.796875 20.265625 -20.09375 
Q 16.0625 -19.390625 12.109375 -17.921875 
L 12.109375 -9.1875 
Q 16.0625 -11.328125 19.921875 -12.34375 
Q 23.78125 -13.375 27.78125 -13.375 
Q 36.625 -13.375 41.015625 -8.765625 
Q 45.40625 -4.15625 45.40625 5.171875 
L 45.40625 9.625 
Q 42.625 4.78125 38.28125 2.390625 
Q 33.9375 0 27.875 0 
Q 17.828125 0 11.671875 7.65625 
Q 5.515625 15.328125 5.515625 27.984375 
Q 5.515625 40.671875 11.671875 48.328125 
Q 17.828125 56 27.875 56 
Q 33.9375 56 38.28125 53.609375 
Q 42.625 51.21875 45.40625 46.390625 
L 45.40625 54.6875 
L 54.390625 54.6875 
z
" id="DejaVuSans-103"/>
       <path d="M 64.40625 67.28125 
L 64.40625 56.890625 
Q 59.421875 61.53125 53.78125 63.8125 
Q 48.140625 66.109375 41.796875 66.109375 
Q 29.296875 66.109375 22.65625 58.46875 
Q 16.015625 50.828125 16.015625 36.375 
Q 16.015625 21.96875 22.65625 14.328125 
Q 29.296875 6.6875 41.796875 6.6875 
Q 48.140625 6.6875 53.78125 8.984375 
Q 59.421875 11.28125 64.40625 15.921875 
L 64.40625 5.609375 
Q 59.234375 2.09375 53.4375 0.328125 
Q 47.65625 -1.421875 41.21875 -1.421875 
Q 24.65625 -1.421875 15.125 8.703125 
Q 5.609375 18.84375 5.609375 36.375 
Q 5.609375 53.953125 15.125 64.078125 
Q 24.65625 74.21875 41.21875 74.21875 
Q 47.75 74.21875 53.53125 72.484375 
Q 59.328125 70.75 64.40625 67.28125 
z
" id="DejaVuSans-67"/>
       <path d="M 10.6875 12.40625 
L 21 12.40625 
L 21 0 
L 10.6875 0 
z
" id="DejaVuSans-46"/>
      </defs>
      <use xlink:href="#DejaVuSans-76"/>
      <use x="53.962891" xlink:href="#DejaVuSans-111"/>
      <use x="115.144531" xlink:href="#DejaVuSans-103"/>
      <use x="178.621094" xlink:href="#DejaVuSans-32"/>
      <use x="210.408203" xlink:href="#DejaVuSans-67"/>
      <use x="280.232422" xlink:href="#DejaVuSans-111"/>
      <use x="341.414062" xlink:href="#DejaVuSans-117"/>
      <use x="404.792969" xlink:href="#DejaVuSans-110"/>
      <use x="468.171875" xlink:href="#DejaVuSans-116"/>
      <use x="507.380859" xlink:href="#DejaVuSans-32"/>
      <use x="539.167969" xlink:href="#DejaVuSans-40"/>
      <use x="578.181641" xlink:href="#DejaVuSans-110"/>
      <use x="641.560547" xlink:href="#DejaVuSans-46"/>
      <use x="673.347656" xlink:href="#DejaVuSans-117"/>
      <use x="736.726562" xlink:href="#DejaVuSans-46"/>
      <use x="768.513672" xlink:href="#DejaVuSans-41"/>
     </g>
    </g>
   </g>
   <g id="patch_53">
    <path d="M 82.434375 340.958438 
L 82.434375 14.798437 
" style="fill:none;stroke:#000000;stroke-linecap:square;stroke-linejoin:miter;stroke-width:0.8;"/>
   </g>
   <g id="patch_54">
    <path d="M 528.834375 340.958438 
L 528.834375 14.798437 
" style="fill:none;stroke:#000000;stroke-linecap:square;stroke-linejoin:miter;stroke-width:0.8;"/>
   </g>
   <g id="patch_55">
    <path d="M 82.434375 340.958438 
L 528.834375 340.958438 
" style="fill:none;stroke:#000000;stroke-linecap:square;stroke-linejoin:miter;stroke-width:0.8;"/>
   </g>
   <g id="patch_56">
    <path d="M 82.434375 14.798437 
L 528.834375 14.798437 
" style="fill:none;stroke:#000000;stroke-linecap:square;stroke-linejoin:miter;stroke-width:0.8;"/>
   </g>
   <g id="patch_57">
    <path d="M 226.626813 246.852258 
L 228.500308 248.243846 
Q 183.506786 265.792791 138.665531 283.71162 
L 139.936153 284.702538 
Q 137.85932 284.908644 135.477952 284.374981 
Q 136.793443 282.319453 138.413471 281.003694 
L 138.208727 282.601967 
Q 182.669311 263.758427 226.977627 244.545002 
L 226.626813 246.852258 
z
" style="stroke:#000000;stroke-linecap:round;"/>
   </g>
  </g>
  <g id="axes_2">
   <g id="patch_58">
    <path d="M 226.386375 235.663238 
L 480.834375 235.663238 
L 480.834375 62.798437 
L 226.386375 62.798437 
z
" style="fill:#ffffff;"/>
   </g>
   <g id="matplotlib.axis_3">
    <g id="ytick_31">
     <g id="line2d_35">
      <defs>
       <path d="M 0 0 
L 3.5 0 
" id="m932b847d74" style="stroke:#000000;stroke-width:0.8;"/>
      </defs>
      <g>
       <use style="stroke:#000000;stroke-width:0.8;" x="480.834375" xlink:href="#m932b847d74" y="228.862216"/>
      </g>
     </g>
     <g id="text_11">
      <!-- 0 -->
      <g transform="translate(487.834375 236.460653)scale(0.2 -0.2)">
       <use xlink:href="#DejaVuSans-48"/>
      </g>
     </g>
    </g>
    <g id="ytick_32">
     <g id="line2d_36">
      <g>
       <use style="stroke:#000000;stroke-width:0.8;" x="480.834375" xlink:href="#m932b847d74" y="176.038748"/>
      </g>
     </g>
     <g id="text_12">
      <!-- 200 -->
      <g transform="translate(487.834375 183.637185)scale(0.2 -0.2)">
       <use xlink:href="#DejaVuSans-50"/>
       <use x="63.623047" xlink:href="#DejaVuSans-48"/>
       <use x="127.246094" xlink:href="#DejaVuSans-48"/>
      </g>
     </g>
    </g>
    <g id="ytick_33">
     <g id="line2d_37">
      <g>
       <use style="stroke:#000000;stroke-width:0.8;" x="480.834375" xlink:href="#m932b847d74" y="123.215279"/>
      </g>
     </g>
     <g id="text_13">
      <!-- 400 -->
      <g transform="translate(487.834375 130.813717)scale(0.2 -0.2)">
       <use xlink:href="#DejaVuSans-52"/>
       <use x="63.623047" xlink:href="#DejaVuSans-48"/>
       <use x="127.246094" xlink:href="#DejaVuSans-48"/>
      </g>
     </g>
    </g>
    <g id="ytick_34">
     <g id="line2d_38">
      <g>
       <use style="stroke:#000000;stroke-width:0.8;" x="480.834375" xlink:href="#m932b847d74" y="70.391811"/>
      </g>
     </g>
     <g id="text_14">
      <!-- 600 -->
      <g transform="translate(487.834375 77.990249)scale(0.2 -0.2)">
       <use xlink:href="#DejaVuSans-54"/>
       <use x="63.623047" xlink:href="#DejaVuSans-48"/>
       <use x="127.246094" xlink:href="#DejaVuSans-48"/>
      </g>
     </g>
    </g>
   </g>
   <g id="matplotlib.axis_4">
    <g id="xtick_5"/>
    <g id="xtick_6"/>
    <g id="xtick_7"/>
   </g>
   <g id="patch_59">
    <path clip-path="url(#p6932ca0f7a)" d="M 237.952193 235.663238 
L 240.265357 235.663238 
L 240.265357 226.642243 
L 237.952193 226.642243 
z
" style="fill:#1f77b4;"/>
   </g>
   <g id="patch_60">
    <path clip-path="url(#p6932ca0f7a)" d="M 240.265357 235.663238 
L 242.57852 235.663238 
L 242.57852 71.030095 
L 240.265357 71.030095 
z
" style="fill:#1f77b4;"/>
   </g>
   <g id="patch_61">
    <path clip-path="url(#p6932ca0f7a)" d="M 242.57852 235.663238 
L 244.891684 235.663238 
L 244.891684 84.561586 
L 242.57852 84.561586 
z
" style="fill:#1f77b4;"/>
   </g>
   <g id="patch_62">
    <path clip-path="url(#p6932ca0f7a)" d="M 244.891684 235.663238 
L 247.204848 235.663238 
L 247.204848 172.516279 
L 244.891684 172.516279 
z
" style="fill:#1f77b4;"/>
   </g>
   <g id="patch_63">
    <path clip-path="url(#p6932ca0f7a)" d="M 247.204848 235.663238 
L 249.518011 235.663238 
L 249.518011 145.453296 
L 247.204848 145.453296 
z
" style="fill:#1f77b4;"/>
   </g>
   <g id="patch_64">
    <path clip-path="url(#p6932ca0f7a)" d="M 249.518011 235.663238 
L 251.831175 235.663238 
L 251.831175 156.729539 
L 249.518011 156.729539 
z
" style="fill:#1f77b4;"/>
   </g>
   <g id="patch_65">
    <path clip-path="url(#p6932ca0f7a)" d="M 251.831175 235.663238 
L 254.144339 235.663238 
L 254.144339 158.984787 
L 251.831175 158.984787 
z
" style="fill:#1f77b4;"/>
   </g>
   <g id="patch_66">
    <path clip-path="url(#p6932ca0f7a)" d="M 254.144339 235.663238 
L 256.457502 235.663238 
L 256.457502 177.026776 
L 254.144339 177.026776 
z
" style="fill:#1f77b4;"/>
   </g>
   <g id="patch_67">
    <path clip-path="url(#p6932ca0f7a)" d="M 256.457502 235.663238 
L 258.770666 235.663238 
L 258.770666 183.792521 
L 256.457502 183.792521 
z
" style="fill:#1f77b4;"/>
   </g>
   <g id="patch_68">
    <path clip-path="url(#p6932ca0f7a)" d="M 258.770666 235.663238 
L 261.08383 235.663238 
L 261.08383 188.303018 
L 258.770666 188.303018 
z
" style="fill:#1f77b4;"/>
   </g>
   <g id="patch_69">
    <path clip-path="url(#p6932ca0f7a)" d="M 261.08383 235.663238 
L 263.396993 235.663238 
L 263.396993 204.089758 
L 261.08383 204.089758 
z
" style="fill:#1f77b4;"/>
   </g>
   <g id="patch_70">
    <path clip-path="url(#p6932ca0f7a)" d="M 263.396993 235.663238 
L 265.710157 235.663238 
L 265.710157 204.089758 
L 263.396993 204.089758 
z
" style="fill:#1f77b4;"/>
   </g>
   <g id="patch_71">
    <path clip-path="url(#p6932ca0f7a)" d="M 265.710157 235.663238 
L 268.02332 235.663238 
L 268.02332 208.600255 
L 265.710157 208.600255 
z
" style="fill:#1f77b4;"/>
   </g>
   <g id="patch_72">
    <path clip-path="url(#p6932ca0f7a)" d="M 268.02332 235.663238 
L 270.336484 235.663238 
L 270.336484 210.855504 
L 268.02332 210.855504 
z
" style="fill:#1f77b4;"/>
   </g>
   <g id="patch_73">
    <path clip-path="url(#p6932ca0f7a)" d="M 270.336484 235.663238 
L 272.649648 235.663238 
L 272.649648 201.83451 
L 270.336484 201.83451 
z
" style="fill:#1f77b4;"/>
   </g>
   <g id="patch_74">
    <path clip-path="url(#p6932ca0f7a)" d="M 272.649648 235.663238 
L 274.962811 235.663238 
L 274.962811 219.876498 
L 272.649648 219.876498 
z
" style="fill:#1f77b4;"/>
   </g>
   <g id="patch_75">
    <path clip-path="url(#p6932ca0f7a)" d="M 274.962811 235.663238 
L 277.275975 235.663238 
L 277.275975 222.131746 
L 274.962811 222.131746 
z
" style="fill:#1f77b4;"/>
   </g>
   <g id="patch_76">
    <path clip-path="url(#p6932ca0f7a)" d="M 277.275975 235.663238 
L 279.589139 235.663238 
L 279.589139 219.876498 
L 277.275975 219.876498 
z
" style="fill:#1f77b4;"/>
   </g>
   <g id="patch_77">
    <path clip-path="url(#p6932ca0f7a)" d="M 279.589139 235.663238 
L 281.902302 235.663238 
L 281.902302 226.642243 
L 279.589139 226.642243 
z
" style="fill:#1f77b4;"/>
   </g>
   <g id="patch_78">
    <path clip-path="url(#p6932ca0f7a)" d="M 281.902302 235.663238 
L 284.215466 235.663238 
L 284.215466 226.642243 
L 281.902302 226.642243 
z
" style="fill:#1f77b4;"/>
   </g>
   <g id="patch_79">
    <path clip-path="url(#p6932ca0f7a)" d="M 284.215466 235.663238 
L 286.52863 235.663238 
L 286.52863 217.621249 
L 284.215466 217.621249 
z
" style="fill:#1f77b4;"/>
   </g>
   <g id="patch_80">
    <path clip-path="url(#p6932ca0f7a)" d="M 286.52863 235.663238 
L 288.841793 235.663238 
L 288.841793 226.642243 
L 286.52863 226.642243 
z
" style="fill:#1f77b4;"/>
   </g>
   <g id="patch_81">
    <path clip-path="url(#p6932ca0f7a)" d="M 288.841793 235.663238 
L 291.154957 235.663238 
L 291.154957 222.131746 
L 288.841793 222.131746 
z
" style="fill:#1f77b4;"/>
   </g>
   <g id="patch_82">
    <path clip-path="url(#p6932ca0f7a)" d="M 291.154957 235.663238 
L 293.46812 235.663238 
L 293.46812 231.15274 
L 291.154957 231.15274 
z
" style="fill:#1f77b4;"/>
   </g>
   <g id="patch_83">
    <path clip-path="url(#p6932ca0f7a)" d="M 293.46812 235.663238 
L 295.781284 235.663238 
L 295.781284 226.642243 
L 293.46812 226.642243 
z
" style="fill:#1f77b4;"/>
   </g>
   <g id="patch_84">
    <path clip-path="url(#p6932ca0f7a)" d="M 295.781284 235.663238 
L 298.094448 235.663238 
L 298.094448 217.621249 
L 295.781284 217.621249 
z
" style="fill:#1f77b4;"/>
   </g>
   <g id="patch_85">
    <path clip-path="url(#p6932ca0f7a)" d="M 298.094448 235.663238 
L 300.407611 235.663238 
L 300.407611 228.897492 
L 298.094448 228.897492 
z
" style="fill:#1f77b4;"/>
   </g>
   <g id="patch_86">
    <path clip-path="url(#p6932ca0f7a)" d="M 300.407611 235.663238 
L 302.720775 235.663238 
L 302.720775 226.642243 
L 300.407611 226.642243 
z
" style="fill:#1f77b4;"/>
   </g>
   <g id="patch_87">
    <path clip-path="url(#p6932ca0f7a)" d="M 302.720775 235.663238 
L 305.033939 235.663238 
L 305.033939 228.897492 
L 302.720775 228.897492 
z
" style="fill:#1f77b4;"/>
   </g>
   <g id="patch_88">
    <path clip-path="url(#p6932ca0f7a)" d="M 305.033939 235.663238 
L 307.347102 235.663238 
L 307.347102 226.642243 
L 305.033939 226.642243 
z
" style="fill:#1f77b4;"/>
   </g>
   <g id="patch_89">
    <path clip-path="url(#p6932ca0f7a)" d="M 307.347102 235.663238 
L 309.660266 235.663238 
L 309.660266 226.642243 
L 307.347102 226.642243 
z
" style="fill:#1f77b4;"/>
   </g>
   <g id="patch_90">
    <path clip-path="url(#p6932ca0f7a)" d="M 309.660266 235.663238 
L 311.97343 235.663238 
L 311.97343 231.15274 
L 309.660266 231.15274 
z
" style="fill:#1f77b4;"/>
   </g>
   <g id="patch_91">
    <path clip-path="url(#p6932ca0f7a)" d="M 311.97343 235.663238 
L 314.286593 235.663238 
L 314.286593 231.15274 
L 311.97343 231.15274 
z
" style="fill:#1f77b4;"/>
   </g>
   <g id="patch_92">
    <path clip-path="url(#p6932ca0f7a)" d="M 314.286593 235.663238 
L 316.599757 235.663238 
L 316.599757 222.131746 
L 314.286593 222.131746 
z
" style="fill:#1f77b4;"/>
   </g>
   <g id="patch_93">
    <path clip-path="url(#p6932ca0f7a)" d="M 316.599757 235.663238 
L 318.91292 235.663238 
L 318.91292 228.897492 
L 316.599757 228.897492 
z
" style="fill:#1f77b4;"/>
   </g>
   <g id="patch_94">
    <path clip-path="url(#p6932ca0f7a)" d="M 318.91292 235.663238 
L 321.226084 235.663238 
L 321.226084 231.15274 
L 318.91292 231.15274 
z
" style="fill:#1f77b4;"/>
   </g>
   <g id="patch_95">
    <path clip-path="url(#p6932ca0f7a)" d="M 321.226084 235.663238 
L 323.539248 235.663238 
L 323.539248 226.642243 
L 321.226084 226.642243 
z
" style="fill:#1f77b4;"/>
   </g>
   <g id="patch_96">
    <path clip-path="url(#p6932ca0f7a)" d="M 323.539248 235.663238 
L 325.852411 235.663238 
L 325.852411 233.407989 
L 323.539248 233.407989 
z
" style="fill:#1f77b4;"/>
   </g>
   <g id="patch_97">
    <path clip-path="url(#p6932ca0f7a)" d="M 325.852411 235.663238 
L 328.165575 235.663238 
L 328.165575 228.897492 
L 325.852411 228.897492 
z
" style="fill:#1f77b4;"/>
   </g>
   <g id="patch_98">
    <path clip-path="url(#p6932ca0f7a)" d="M 328.165575 235.663238 
L 330.478739 235.663238 
L 330.478739 233.407989 
L 328.165575 233.407989 
z
" style="fill:#1f77b4;"/>
   </g>
   <g id="patch_99">
    <path clip-path="url(#p6932ca0f7a)" d="M 330.478739 235.663238 
L 332.791902 235.663238 
L 332.791902 217.621249 
L 330.478739 217.621249 
z
" style="fill:#1f77b4;"/>
   </g>
   <g id="patch_100">
    <path clip-path="url(#p6932ca0f7a)" d="M 332.791902 235.663238 
L 335.105066 235.663238 
L 335.105066 228.897492 
L 332.791902 228.897492 
z
" style="fill:#1f77b4;"/>
   </g>
   <g id="patch_101">
    <path clip-path="url(#p6932ca0f7a)" d="M 335.105066 235.663238 
L 337.41823 235.663238 
L 337.41823 231.15274 
L 335.105066 231.15274 
z
" style="fill:#1f77b4;"/>
   </g>
   <g id="patch_102">
    <path clip-path="url(#p6932ca0f7a)" d="M 337.41823 235.663238 
L 339.731393 235.663238 
L 339.731393 231.15274 
L 337.41823 231.15274 
z
" style="fill:#1f77b4;"/>
   </g>
   <g id="patch_103">
    <path clip-path="url(#p6932ca0f7a)" d="M 339.731393 235.663238 
L 342.044557 235.663238 
L 342.044557 231.15274 
L 339.731393 231.15274 
z
" style="fill:#1f77b4;"/>
   </g>
   <g id="patch_104">
    <path clip-path="url(#p6932ca0f7a)" d="M 342.044557 235.663238 
L 344.35772 235.663238 
L 344.35772 228.897492 
L 342.044557 228.897492 
z
" style="fill:#1f77b4;"/>
   </g>
   <g id="patch_105">
    <path clip-path="url(#p6932ca0f7a)" d="M 344.35772 235.663238 
L 346.670884 235.663238 
L 346.670884 235.663238 
L 344.35772 235.663238 
z
" style="fill:#1f77b4;"/>
   </g>
   <g id="patch_106">
    <path clip-path="url(#p6932ca0f7a)" d="M 346.670884 235.663238 
L 348.984048 235.663238 
L 348.984048 231.15274 
L 346.670884 231.15274 
z
" style="fill:#1f77b4;"/>
   </g>
   <g id="patch_107">
    <path clip-path="url(#p6932ca0f7a)" d="M 348.984048 235.663238 
L 351.297211 235.663238 
L 351.297211 233.407989 
L 348.984048 233.407989 
z
" style="fill:#1f77b4;"/>
   </g>
   <g id="patch_108">
    <path clip-path="url(#p6932ca0f7a)" d="M 351.297211 235.663238 
L 353.610375 235.663238 
L 353.610375 228.897492 
L 351.297211 228.897492 
z
" style="fill:#1f77b4;"/>
   </g>
   <g id="patch_109">
    <path clip-path="url(#p6932ca0f7a)" d="M 353.610375 235.663238 
L 355.923539 235.663238 
L 355.923539 235.663238 
L 353.610375 235.663238 
z
" style="fill:#1f77b4;"/>
   </g>
   <g id="patch_110">
    <path clip-path="url(#p6932ca0f7a)" d="M 355.923539 235.663238 
L 358.236702 235.663238 
L 358.236702 226.642243 
L 355.923539 226.642243 
z
" style="fill:#1f77b4;"/>
   </g>
   <g id="patch_111">
    <path clip-path="url(#p6932ca0f7a)" d="M 358.236702 235.663238 
L 360.549866 235.663238 
L 360.549866 231.15274 
L 358.236702 231.15274 
z
" style="fill:#1f77b4;"/>
   </g>
   <g id="patch_112">
    <path clip-path="url(#p6932ca0f7a)" d="M 360.549866 235.663238 
L 362.86303 235.663238 
L 362.86303 231.15274 
L 360.549866 231.15274 
z
" style="fill:#1f77b4;"/>
   </g>
   <g id="patch_113">
    <path clip-path="url(#p6932ca0f7a)" d="M 362.86303 235.663238 
L 365.176193 235.663238 
L 365.176193 228.897492 
L 362.86303 228.897492 
z
" style="fill:#1f77b4;"/>
   </g>
   <g id="patch_114">
    <path clip-path="url(#p6932ca0f7a)" d="M 365.176193 235.663238 
L 367.489357 235.663238 
L 367.489357 231.15274 
L 365.176193 231.15274 
z
" style="fill:#1f77b4;"/>
   </g>
   <g id="patch_115">
    <path clip-path="url(#p6932ca0f7a)" d="M 367.489357 235.663238 
L 369.80252 235.663238 
L 369.80252 228.897492 
L 367.489357 228.897492 
z
" style="fill:#1f77b4;"/>
   </g>
   <g id="patch_116">
    <path clip-path="url(#p6932ca0f7a)" d="M 369.80252 235.663238 
L 372.115684 235.663238 
L 372.115684 231.15274 
L 369.80252 231.15274 
z
" style="fill:#1f77b4;"/>
   </g>
   <g id="patch_117">
    <path clip-path="url(#p6932ca0f7a)" d="M 372.115684 235.663238 
L 374.428848 235.663238 
L 374.428848 235.663238 
L 372.115684 235.663238 
z
" style="fill:#1f77b4;"/>
   </g>
   <g id="patch_118">
    <path clip-path="url(#p6932ca0f7a)" d="M 374.428848 235.663238 
L 376.742011 235.663238 
L 376.742011 233.407989 
L 374.428848 233.407989 
z
" style="fill:#1f77b4;"/>
   </g>
   <g id="patch_119">
    <path clip-path="url(#p6932ca0f7a)" d="M 376.742011 235.663238 
L 379.055175 235.663238 
L 379.055175 231.15274 
L 376.742011 231.15274 
z
" style="fill:#1f77b4;"/>
   </g>
   <g id="patch_120">
    <path clip-path="url(#p6932ca0f7a)" d="M 379.055175 235.663238 
L 381.368339 235.663238 
L 381.368339 235.663238 
L 379.055175 235.663238 
z
" style="fill:#1f77b4;"/>
   </g>
   <g id="patch_121">
    <path clip-path="url(#p6932ca0f7a)" d="M 381.368339 235.663238 
L 383.681502 235.663238 
L 383.681502 233.407989 
L 381.368339 233.407989 
z
" style="fill:#1f77b4;"/>
   </g>
   <g id="patch_122">
    <path clip-path="url(#p6932ca0f7a)" d="M 383.681502 235.663238 
L 385.994666 235.663238 
L 385.994666 233.407989 
L 383.681502 233.407989 
z
" style="fill:#1f77b4;"/>
   </g>
   <g id="patch_123">
    <path clip-path="url(#p6932ca0f7a)" d="M 385.994666 235.663238 
L 388.30783 235.663238 
L 388.30783 233.407989 
L 385.994666 233.407989 
z
" style="fill:#1f77b4;"/>
   </g>
   <g id="patch_124">
    <path clip-path="url(#p6932ca0f7a)" d="M 388.30783 235.663238 
L 390.620993 235.663238 
L 390.620993 233.407989 
L 388.30783 233.407989 
z
" style="fill:#1f77b4;"/>
   </g>
   <g id="patch_125">
    <path clip-path="url(#p6932ca0f7a)" d="M 390.620993 235.663238 
L 392.934157 235.663238 
L 392.934157 235.663238 
L 390.620993 235.663238 
z
" style="fill:#1f77b4;"/>
   </g>
   <g id="patch_126">
    <path clip-path="url(#p6932ca0f7a)" d="M 392.934157 235.663238 
L 395.24732 235.663238 
L 395.24732 233.407989 
L 392.934157 233.407989 
z
" style="fill:#1f77b4;"/>
   </g>
   <g id="patch_127">
    <path clip-path="url(#p6932ca0f7a)" d="M 395.24732 235.663238 
L 397.560484 235.663238 
L 397.560484 233.407989 
L 395.24732 233.407989 
z
" style="fill:#1f77b4;"/>
   </g>
   <g id="patch_128">
    <path clip-path="url(#p6932ca0f7a)" d="M 397.560484 235.663238 
L 399.873648 235.663238 
L 399.873648 235.663238 
L 397.560484 235.663238 
z
" style="fill:#1f77b4;"/>
   </g>
   <g id="patch_129">
    <path clip-path="url(#p6932ca0f7a)" d="M 399.873648 235.663238 
L 402.186811 235.663238 
L 402.186811 233.407989 
L 399.873648 233.407989 
z
" style="fill:#1f77b4;"/>
   </g>
   <g id="patch_130">
    <path clip-path="url(#p6932ca0f7a)" d="M 402.186811 235.663238 
L 404.499975 235.663238 
L 404.499975 235.663238 
L 402.186811 235.663238 
z
" style="fill:#1f77b4;"/>
   </g>
   <g id="patch_131">
    <path clip-path="url(#p6932ca0f7a)" d="M 404.499975 235.663238 
L 406.813139 235.663238 
L 406.813139 233.407989 
L 404.499975 233.407989 
z
" style="fill:#1f77b4;"/>
   </g>
   <g id="patch_132">
    <path clip-path="url(#p6932ca0f7a)" d="M 406.813139 235.663238 
L 409.126302 235.663238 
L 409.126302 233.407989 
L 406.813139 233.407989 
z
" style="fill:#1f77b4;"/>
   </g>
   <g id="patch_133">
    <path clip-path="url(#p6932ca0f7a)" d="M 409.126302 235.663238 
L 411.439466 235.663238 
L 411.439466 235.663238 
L 409.126302 235.663238 
z
" style="fill:#1f77b4;"/>
   </g>
   <g id="patch_134">
    <path clip-path="url(#p6932ca0f7a)" d="M 411.439466 235.663238 
L 413.75263 235.663238 
L 413.75263 235.663238 
L 411.439466 235.663238 
z
" style="fill:#1f77b4;"/>
   </g>
   <g id="patch_135">
    <path clip-path="url(#p6932ca0f7a)" d="M 413.75263 235.663238 
L 416.065793 235.663238 
L 416.065793 233.407989 
L 413.75263 233.407989 
z
" style="fill:#1f77b4;"/>
   </g>
   <g id="patch_136">
    <path clip-path="url(#p6932ca0f7a)" d="M 416.065793 235.663238 
L 418.378957 235.663238 
L 418.378957 235.663238 
L 416.065793 235.663238 
z
" style="fill:#1f77b4;"/>
   </g>
   <g id="patch_137">
    <path clip-path="url(#p6932ca0f7a)" d="M 418.378957 235.663238 
L 420.69212 235.663238 
L 420.69212 231.15274 
L 418.378957 231.15274 
z
" style="fill:#1f77b4;"/>
   </g>
   <g id="patch_138">
    <path clip-path="url(#p6932ca0f7a)" d="M 420.69212 235.663238 
L 423.005284 235.663238 
L 423.005284 233.407989 
L 420.69212 233.407989 
z
" style="fill:#1f77b4;"/>
   </g>
   <g id="patch_139">
    <path clip-path="url(#p6932ca0f7a)" d="M 423.005284 235.663238 
L 425.318448 235.663238 
L 425.318448 233.407989 
L 423.005284 233.407989 
z
" style="fill:#1f77b4;"/>
   </g>
   <g id="patch_140">
    <path clip-path="url(#p6932ca0f7a)" d="M 425.318448 235.663238 
L 427.631611 235.663238 
L 427.631611 233.407989 
L 425.318448 233.407989 
z
" style="fill:#1f77b4;"/>
   </g>
   <g id="patch_141">
    <path clip-path="url(#p6932ca0f7a)" d="M 427.631611 235.663238 
L 429.944775 235.663238 
L 429.944775 233.407989 
L 427.631611 233.407989 
z
" style="fill:#1f77b4;"/>
   </g>
   <g id="patch_142">
    <path clip-path="url(#p6932ca0f7a)" d="M 429.944775 235.663238 
L 432.257939 235.663238 
L 432.257939 233.407989 
L 429.944775 233.407989 
z
" style="fill:#1f77b4;"/>
   </g>
   <g id="patch_143">
    <path clip-path="url(#p6932ca0f7a)" d="M 432.257939 235.663238 
L 434.571102 235.663238 
L 434.571102 231.15274 
L 432.257939 231.15274 
z
" style="fill:#1f77b4;"/>
   </g>
   <g id="patch_144">
    <path clip-path="url(#p6932ca0f7a)" d="M 434.571102 235.663238 
L 436.884266 235.663238 
L 436.884266 231.15274 
L 434.571102 231.15274 
z
" style="fill:#1f77b4;"/>
   </g>
   <g id="patch_145">
    <path clip-path="url(#p6932ca0f7a)" d="M 436.884266 235.663238 
L 439.19743 235.663238 
L 439.19743 231.15274 
L 436.884266 231.15274 
z
" style="fill:#1f77b4;"/>
   </g>
   <g id="patch_146">
    <path clip-path="url(#p6932ca0f7a)" d="M 439.19743 235.663238 
L 441.510593 235.663238 
L 441.510593 235.663238 
L 439.19743 235.663238 
z
" style="fill:#1f77b4;"/>
   </g>
   <g id="patch_147">
    <path clip-path="url(#p6932ca0f7a)" d="M 441.510593 235.663238 
L 443.823757 235.663238 
L 443.823757 235.663238 
L 441.510593 235.663238 
z
" style="fill:#1f77b4;"/>
   </g>
   <g id="patch_148">
    <path clip-path="url(#p6932ca0f7a)" d="M 443.823757 235.663238 
L 446.13692 235.663238 
L 446.13692 235.663238 
L 443.823757 235.663238 
z
" style="fill:#1f77b4;"/>
   </g>
   <g id="patch_149">
    <path clip-path="url(#p6932ca0f7a)" d="M 446.13692 235.663238 
L 448.450084 235.663238 
L 448.450084 233.407989 
L 446.13692 233.407989 
z
" style="fill:#1f77b4;"/>
   </g>
   <g id="patch_150">
    <path clip-path="url(#p6932ca0f7a)" d="M 448.450084 235.663238 
L 450.763248 235.663238 
L 450.763248 233.407989 
L 448.450084 233.407989 
z
" style="fill:#1f77b4;"/>
   </g>
   <g id="patch_151">
    <path clip-path="url(#p6932ca0f7a)" d="M 450.763248 235.663238 
L 453.076411 235.663238 
L 453.076411 228.897492 
L 450.763248 228.897492 
z
" style="fill:#1f77b4;"/>
   </g>
   <g id="patch_152">
    <path clip-path="url(#p6932ca0f7a)" d="M 453.076411 235.663238 
L 455.389575 235.663238 
L 455.389575 231.15274 
L 453.076411 231.15274 
z
" style="fill:#1f77b4;"/>
   </g>
   <g id="patch_153">
    <path clip-path="url(#p6932ca0f7a)" d="M 455.389575 235.663238 
L 457.702739 235.663238 
L 457.702739 235.663238 
L 455.389575 235.663238 
z
" style="fill:#1f77b4;"/>
   </g>
   <g id="patch_154">
    <path clip-path="url(#p6932ca0f7a)" d="M 457.702739 235.663238 
L 460.015902 235.663238 
L 460.015902 233.407989 
L 457.702739 233.407989 
z
" style="fill:#1f77b4;"/>
   </g>
   <g id="patch_155">
    <path clip-path="url(#p6932ca0f7a)" d="M 460.015902 235.663238 
L 462.329066 235.663238 
L 462.329066 235.663238 
L 460.015902 235.663238 
z
" style="fill:#1f77b4;"/>
   </g>
   <g id="patch_156">
    <path clip-path="url(#p6932ca0f7a)" d="M 462.329066 235.663238 
L 464.64223 235.663238 
L 464.64223 235.663238 
L 462.329066 235.663238 
z
" style="fill:#1f77b4;"/>
   </g>
   <g id="patch_157">
    <path clip-path="url(#p6932ca0f7a)" d="M 464.64223 235.663238 
L 466.955393 235.663238 
L 466.955393 233.407989 
L 464.64223 233.407989 
z
" style="fill:#1f77b4;"/>
   </g>
   <g id="patch_158">
    <path clip-path="url(#p6932ca0f7a)" d="M 466.955393 235.663238 
L 469.268557 235.663238 
L 469.268557 233.407989 
L 466.955393 233.407989 
z
" style="fill:#1f77b4;"/>
   </g>
   <g id="matplotlib.axis_5">
    <g id="xtick_8">
     <g id="line2d_39">
      <g>
       <use style="stroke:#000000;stroke-width:0.8;" x="236.085558" xlink:href="#me76dde59d2" y="235.663238"/>
      </g>
     </g>
     <g id="text_15">
      <!-- 0 -->
      <g transform="translate(229.723058 257.860113)scale(0.2 -0.2)">
       <use xlink:href="#DejaVuSans-48"/>
      </g>
     </g>
    </g>
    <g id="xtick_9">
     <g id="line2d_40">
      <g>
       <use style="stroke:#000000;stroke-width:0.8;" x="358.087859" xlink:href="#me76dde59d2" y="235.663238"/>
      </g>
     </g>
     <g id="text_16">
      <!-- 50 -->
      <g transform="translate(345.362859 257.860113)scale(0.2 -0.2)">
       <defs>
        <path d="M 10.796875 72.90625 
L 49.515625 72.90625 
L 49.515625 64.59375 
L 19.828125 64.59375 
L 19.828125 46.734375 
Q 21.96875 47.46875 24.109375 47.828125 
Q 26.265625 48.1875 28.421875 48.1875 
Q 40.625 48.1875 47.75 41.5 
Q 54.890625 34.8125 54.890625 23.390625 
Q 54.890625 11.625 47.5625 5.09375 
Q 40.234375 -1.421875 26.90625 -1.421875 
Q 22.3125 -1.421875 17.546875 -0.640625 
Q 12.796875 0.140625 7.71875 1.703125 
L 7.71875 11.625 
Q 12.109375 9.234375 16.796875 8.0625 
Q 21.484375 6.890625 26.703125 6.890625 
Q 35.15625 6.890625 40.078125 11.328125 
Q 45.015625 15.765625 45.015625 23.390625 
Q 45.015625 31 40.078125 35.4375 
Q 35.15625 39.890625 26.703125 39.890625 
Q 22.75 39.890625 18.8125 39.015625 
Q 14.890625 38.140625 10.796875 36.28125 
z
" id="DejaVuSans-53"/>
       </defs>
       <use xlink:href="#DejaVuSans-53"/>
       <use x="63.623047" xlink:href="#DejaVuSans-48"/>
      </g>
     </g>
    </g>
    <g id="xtick_10">
     <g id="line2d_41">
      <g>
       <use style="stroke:#000000;stroke-width:0.8;" x="480.090161" xlink:href="#me76dde59d2" y="235.663238"/>
      </g>
     </g>
     <g id="text_17">
      <!-- 100 -->
      <g transform="translate(461.002661 257.860113)scale(0.2 -0.2)">
       <use xlink:href="#DejaVuSans-49"/>
       <use x="63.623047" xlink:href="#DejaVuSans-48"/>
       <use x="127.246094" xlink:href="#DejaVuSans-48"/>
      </g>
     </g>
    </g>
   </g>
   <g id="matplotlib.axis_6">
    <g id="ytick_35">
     <g id="line2d_42">
      <g>
       <use style="stroke:#000000;stroke-width:0.8;" x="226.386375" xlink:href="#m625dccdd58" y="235.663238"/>
      </g>
     </g>
     <g id="text_18">
      <!-- 0 -->
      <g transform="translate(206.661375 243.261675)scale(0.2 -0.2)">
       <use xlink:href="#DejaVuSans-48"/>
      </g>
     </g>
    </g>
    <g id="ytick_36">
     <g id="line2d_43">
      <g>
       <use style="stroke:#000000;stroke-width:0.8;" x="226.386375" xlink:href="#m625dccdd58" y="190.558267"/>
      </g>
     </g>
     <g id="text_19">
      <!-- 20 -->
      <g transform="translate(193.936375 198.156704)scale(0.2 -0.2)">
       <use xlink:href="#DejaVuSans-50"/>
       <use x="63.623047" xlink:href="#DejaVuSans-48"/>
      </g>
     </g>
    </g>
    <g id="ytick_37">
     <g id="line2d_44">
      <g>
       <use style="stroke:#000000;stroke-width:0.8;" x="226.386375" xlink:href="#m625dccdd58" y="145.453296"/>
      </g>
     </g>
     <g id="text_20">
      <!-- 40 -->
      <g transform="translate(193.936375 153.051734)scale(0.2 -0.2)">
       <use xlink:href="#DejaVuSans-52"/>
       <use x="63.623047" xlink:href="#DejaVuSans-48"/>
      </g>
     </g>
    </g>
    <g id="ytick_38">
     <g id="line2d_45">
      <g>
       <use style="stroke:#000000;stroke-width:0.8;" x="226.386375" xlink:href="#m625dccdd58" y="100.348326"/>
      </g>
     </g>
     <g id="text_21">
      <!-- 60 -->
      <g transform="translate(193.936375 107.946763)scale(0.2 -0.2)">
       <use xlink:href="#DejaVuSans-54"/>
       <use x="63.623047" xlink:href="#DejaVuSans-48"/>
      </g>
     </g>
    </g>
    <g id="text_22">
     <!-- Count (n.u.) -->
     <g transform="translate(183.697312 238.7949)rotate(-90)scale(0.3 -0.3)">
      <use xlink:href="#DejaVuSans-67"/>
      <use x="69.824219" xlink:href="#DejaVuSans-111"/>
      <use x="131.005859" xlink:href="#DejaVuSans-117"/>
      <use x="194.384766" xlink:href="#DejaVuSans-110"/>
      <use x="257.763672" xlink:href="#DejaVuSans-116"/>
      <use x="296.972656" xlink:href="#DejaVuSans-32"/>
      <use x="328.759766" xlink:href="#DejaVuSans-40"/>
      <use x="367.773438" xlink:href="#DejaVuSans-110"/>
      <use x="431.152344" xlink:href="#DejaVuSans-46"/>
      <use x="462.939453" xlink:href="#DejaVuSans-117"/>
      <use x="526.318359" xlink:href="#DejaVuSans-46"/>
      <use x="558.105469" xlink:href="#DejaVuSans-41"/>
     </g>
    </g>
   </g>
   <g id="line2d_46">
    <path clip-path="url(#p6932ca0f7a)" d="M 309.286939 235.663238 
L 309.286939 62.798437 
" style="fill:none;stroke:#ff0000;stroke-dasharray:11.1,4.8;stroke-dashoffset:0;stroke-width:3;"/>
   </g>
   <g id="line2d_47">
    <path clip-path="url(#p6932ca0f7a)" d="M 237.952193 227.805747 
L 240.265357 208.525181 
L 242.57852 190.829319 
L 244.891684 183.434033 
L 247.204848 172.86934 
L 249.518011 163.625233 
L 251.831175 154.645243 
L 254.144339 147.778192 
L 256.457502 141.703493 
L 258.770666 136.157029 
L 261.08383 132.459386 
L 263.396993 128.761744 
L 265.710157 125.592335 
L 268.02332 122.687045 
L 270.336484 118.725285 
L 272.649648 116.876463 
L 274.962811 115.291759 
L 277.275975 113.442938 
L 279.589139 112.386468 
L 281.902302 111.329999 
L 284.215466 109.21706 
L 286.52863 108.160591 
L 288.841793 106.575887 
L 291.154957 106.047652 
L 293.46812 104.991183 
L 295.781284 102.878244 
L 298.094448 102.085892 
L 300.407611 101.029423 
L 302.720775 100.237071 
L 305.033939 99.180601 
L 307.347102 98.124132 
L 309.660266 97.595897 
L 311.97343 97.067663 
L 314.286593 95.482959 
L 316.599757 94.690606 
L 318.91292 94.162372 
L 321.226084 93.105902 
L 323.539248 92.841785 
L 325.852411 92.049433 
L 328.165575 91.785316 
L 330.478739 89.672377 
L 332.791902 88.880025 
L 335.105066 88.35179 
L 337.41823 87.823556 
L 339.731393 87.295321 
L 342.044557 86.502969 
L 344.35772 86.502969 
L 346.670884 85.974734 
L 348.984048 85.710617 
L 351.297211 84.918265 
L 353.610375 84.918265 
L 355.923539 83.861795 
L 358.236702 83.333561 
L 360.549866 82.805326 
L 362.86303 82.012974 
L 365.176193 81.484739 
L 367.489357 80.692387 
L 369.80252 80.164153 
L 372.115684 80.164153 
L 374.428848 79.900035 
L 376.742011 79.371801 
L 379.055175 79.371801 
L 381.368339 79.107683 
L 383.681502 78.843566 
L 385.994666 78.579449 
L 388.30783 78.315331 
L 390.620993 78.315331 
L 392.934157 78.051214 
L 395.24732 77.787097 
L 397.560484 77.787097 
L 399.873648 77.522979 
L 402.186811 77.522979 
L 404.499975 77.258862 
L 406.813139 76.994745 
L 409.126302 76.994745 
L 411.439466 76.994745 
L 413.75263 76.730627 
L 416.065793 76.730627 
L 418.378957 76.202393 
L 420.69212 75.938275 
L 423.005284 75.674158 
L 425.318448 75.410041 
L 427.631611 75.145923 
L 429.944775 74.881806 
L 432.257939 74.353571 
L 434.571102 73.825337 
L 436.884266 73.297102 
L 439.19743 73.297102 
L 441.510593 73.297102 
L 443.823757 73.297102 
L 446.13692 73.032984 
L 448.450084 72.768867 
L 450.763248 71.976515 
L 453.076411 71.44828 
L 455.389575 71.44828 
L 457.702739 71.184163 
L 460.015902 71.184163 
L 462.329066 71.184163 
L 464.64223 70.920046 
L 466.955393 70.655928 
" style="fill:none;stroke:#00ffff;stroke-linecap:square;stroke-width:2;"/>
   </g>
   <g id="line2d_48"/>
   <g id="patch_159">
    <path d="M 480.834375 235.663238 
L 480.834375 62.798437 
" style="fill:none;stroke:#000000;stroke-linecap:square;stroke-linejoin:miter;stroke-width:0.8;"/>
   </g>
   <g id="patch_160">
    <path d="M 226.386375 235.663238 
L 226.386375 62.798437 
" style="fill:none;stroke:#000000;stroke-linecap:square;stroke-linejoin:miter;stroke-width:0.8;"/>
   </g>
   <g id="patch_161">
    <path d="M 226.386375 235.663238 
L 480.834375 235.663238 
" style="fill:none;stroke:#000000;stroke-linecap:square;stroke-linejoin:miter;stroke-width:0.8;"/>
   </g>
   <g id="patch_162">
    <path d="M 226.386375 62.798437 
L 480.834375 62.798437 
" style="fill:none;stroke:#000000;stroke-linecap:square;stroke-linejoin:miter;stroke-width:0.8;"/>
   </g>
   <g id="text_23">
    <!-- 30 -->
    <g style="fill:#ff0000;" transform="translate(297.086709 257.122771)scale(0.2 -0.2)">
     <use xlink:href="#DejaVuSans-51"/>
     <use x="63.623047" xlink:href="#DejaVuSans-48"/>
    </g>
   </g>
   <g id="legend_1">
    <g id="patch_163">
     <path d="M 338.799015 144.044894 
L 472.411515 144.044894 
Q 475.411515 144.044894 475.411515 141.044894 
L 475.411515 98.510518 
Q 475.411515 95.510518 472.411515 95.510518 
L 338.799015 95.510518 
Q 335.799015 95.510518 335.799015 98.510518 
L 335.799015 141.044894 
Q 335.799015 144.044894 338.799015 144.044894 
z
" style="fill:#ffffff;opacity:0.8;stroke:#cccccc;stroke-linejoin:miter;"/>
    </g>
    <g id="line2d_49">
     <path d="M 341.799015 107.658175 
L 371.799015 107.658175 
" style="fill:none;stroke:#00ffff;stroke-linecap:square;stroke-width:2;"/>
    </g>
    <g id="line2d_50"/>
    <g id="text_24">
     <!-- Cumulative -->
     <g transform="translate(383.799015 112.908175)scale(0.15 -0.15)">
      <defs>
       <path d="M 52 44.1875 
Q 55.375 50.25 60.0625 53.125 
Q 64.75 56 71.09375 56 
Q 79.640625 56 84.28125 50.015625 
Q 88.921875 44.046875 88.921875 33.015625 
L 88.921875 0 
L 79.890625 0 
L 79.890625 32.71875 
Q 79.890625 40.578125 77.09375 44.375 
Q 74.3125 48.1875 68.609375 48.1875 
Q 61.625 48.1875 57.5625 43.546875 
Q 53.515625 38.921875 53.515625 30.90625 
L 53.515625 0 
L 44.484375 0 
L 44.484375 32.71875 
Q 44.484375 40.625 41.703125 44.40625 
Q 38.921875 48.1875 33.109375 48.1875 
Q 26.21875 48.1875 22.15625 43.53125 
Q 18.109375 38.875 18.109375 30.90625 
L 18.109375 0 
L 9.078125 0 
L 9.078125 54.6875 
L 18.109375 54.6875 
L 18.109375 46.1875 
Q 21.1875 51.21875 25.484375 53.609375 
Q 29.78125 56 35.6875 56 
Q 41.65625 56 45.828125 52.96875 
Q 50 49.953125 52 44.1875 
z
" id="DejaVuSans-109"/>
       <path d="M 9.421875 75.984375 
L 18.40625 75.984375 
L 18.40625 0 
L 9.421875 0 
z
" id="DejaVuSans-108"/>
      </defs>
      <use xlink:href="#DejaVuSans-67"/>
      <use x="69.824219" xlink:href="#DejaVuSans-117"/>
      <use x="133.203125" xlink:href="#DejaVuSans-109"/>
      <use x="230.615234" xlink:href="#DejaVuSans-117"/>
      <use x="293.994141" xlink:href="#DejaVuSans-108"/>
      <use x="321.777344" xlink:href="#DejaVuSans-97"/>
      <use x="383.056641" xlink:href="#DejaVuSans-116"/>
      <use x="422.265625" xlink:href="#DejaVuSans-105"/>
      <use x="450.048828" xlink:href="#DejaVuSans-118"/>
      <use x="509.228516" xlink:href="#DejaVuSans-101"/>
     </g>
    </g>
    <g id="line2d_51">
     <path d="M 341.799015 129.675362 
L 371.799015 129.675362 
" style="fill:none;"/>
    </g>
    <g id="line2d_52"/>
    <g id="text_25">
     <!-- Sum -->
     <g transform="translate(383.799015 134.925362)scale(0.15 -0.15)">
      <defs>
       <path d="M 53.515625 70.515625 
L 53.515625 60.890625 
Q 47.90625 63.578125 42.921875 64.890625 
Q 37.9375 66.21875 33.296875 66.21875 
Q 25.25 66.21875 20.875 63.09375 
Q 16.5 59.96875 16.5 54.203125 
Q 16.5 49.359375 19.40625 46.890625 
Q 22.3125 44.4375 30.421875 42.921875 
L 36.375 41.703125 
Q 47.40625 39.59375 52.65625 34.296875 
Q 57.90625 29 57.90625 20.125 
Q 57.90625 9.515625 50.796875 4.046875 
Q 43.703125 -1.421875 29.984375 -1.421875 
Q 24.8125 -1.421875 18.96875 -0.25 
Q 13.140625 0.921875 6.890625 3.21875 
L 6.890625 13.375 
Q 12.890625 10.015625 18.65625 8.296875 
Q 24.421875 6.59375 29.984375 6.59375 
Q 38.421875 6.59375 43.015625 9.90625 
Q 47.609375 13.234375 47.609375 19.390625 
Q 47.609375 24.75 44.3125 27.78125 
Q 41.015625 30.8125 33.5 32.328125 
L 27.484375 33.5 
Q 16.453125 35.6875 11.515625 40.375 
Q 6.59375 45.0625 6.59375 53.421875 
Q 6.59375 63.09375 13.40625 68.65625 
Q 20.21875 74.21875 32.171875 74.21875 
Q 37.3125 74.21875 42.625 73.28125 
Q 47.953125 72.359375 53.515625 70.515625 
z
" id="DejaVuSans-83"/>
      </defs>
      <use xlink:href="#DejaVuSans-83"/>
      <use x="63.476562" xlink:href="#DejaVuSans-117"/>
      <use x="126.855469" xlink:href="#DejaVuSans-109"/>
     </g>
    </g>
   </g>
  </g>
 </g>
 <defs>
  <clipPath id="pd096dcbf47">
   <rect height="326.16" width="446.4" x="82.434375" y="14.798437"/>
  </clipPath>
  <clipPath id="p6932ca0f7a">
   <rect height="172.8648" width="254.448" x="226.386375" y="62.798437"/>
  </clipPath>
 </defs>
</svg>
