<?xml version="1.0" encoding="utf-8" standalone="no"?>
<!DOCTYPE svg PUBLIC "-//W3C//DTD SVG 1.1//EN"
  "http://www.w3.org/Graphics/SVG/1.1/DTD/svg11.dtd">
<!-- Created with matplotlib (https://matplotlib.org/) -->
<svg height="399.950625pt" version="1.1" viewBox="0 0 541.254857 399.950625" width="541.254857pt" xmlns="http://www.w3.org/2000/svg" xmlns:xlink="http://www.w3.org/1999/xlink">
 <metadata>
  <rdf:RDF xmlns:cc="http://creativecommons.org/ns#" xmlns:dc="http://purl.org/dc/elements/1.1/" xmlns:rdf="http://www.w3.org/1999/02/22-rdf-syntax-ns#">
   <cc:Work>
    <dc:type rdf:resource="http://purl.org/dc/dcmitype/StillImage"/>
    <dc:date>2022-04-27T11:04:43.558707</dc:date>
    <dc:format>image/svg+xml</dc:format>
    <dc:creator>
     <cc:Agent>
      <dc:title>Matplotlib v3.3.4, https://matplotlib.org/</dc:title>
     </cc:Agent>
    </dc:creator>
   </cc:Work>
  </rdf:RDF>
 </metadata>
 <defs>
  <style type="text/css">*{stroke-linecap:butt;stroke-linejoin:round;}</style>
 </defs>
 <g id="figure_1">
  <g id="patch_1">
   <path d="M 0 399.950625 
L 541.254857 399.950625 
L 541.254857 0 
L 0 0 
z
" style="fill:none;"/>
  </g>
  <g id="axes_1">
   <g id="patch_2">
    <path d="M 85.409375 333.36 
L 531.809375 333.36 
L 531.809375 7.2 
L 85.409375 7.2 
z
" style="fill:#ffffff;"/>
   </g>
   <g id="patch_3">
    <path clip-path="url(#p4ff39111a4)" d="M 105.700284 333.36 
L 119.227557 333.36 
L 119.227557 22.731429 
L 105.700284 22.731429 
z
" style="fill:#1f77b4;"/>
   </g>
   <g id="patch_4">
    <path clip-path="url(#p4ff39111a4)" d="M 119.227557 333.36 
L 132.75483 333.36 
L 132.75483 124.884449 
L 119.227557 124.884449 
z
" style="fill:#1f77b4;"/>
   </g>
   <g id="patch_5">
    <path clip-path="url(#p4ff39111a4)" d="M 132.75483 333.36 
L 146.282102 333.36 
L 146.282102 231.20698 
L 132.75483 231.20698 
z
" style="fill:#1f77b4;"/>
   </g>
   <g id="patch_6">
    <path clip-path="url(#p4ff39111a4)" d="M 146.282102 333.36 
L 159.809375 333.36 
L 159.809375 277.071601 
L 146.282102 277.071601 
z
" style="fill:#1f77b4;"/>
   </g>
   <g id="patch_7">
    <path clip-path="url(#p4ff39111a4)" d="M 159.809375 333.36 
L 173.336648 333.36 
L 173.336648 291.66489 
L 159.809375 291.66489 
z
" style="fill:#1f77b4;"/>
   </g>
   <g id="patch_8">
    <path clip-path="url(#p4ff39111a4)" d="M 173.336648 333.36 
L 186.86392 333.36 
L 186.86392 314.5972 
L 173.336648 314.5972 
z
" style="fill:#1f77b4;"/>
   </g>
   <g id="patch_9">
    <path clip-path="url(#p4ff39111a4)" d="M 186.86392 333.36 
L 200.391193 333.36 
L 200.391193 304.173423 
L 186.86392 304.173423 
z
" style="fill:#1f77b4;"/>
   </g>
   <g id="patch_10">
    <path clip-path="url(#p4ff39111a4)" d="M 200.391193 333.36 
L 213.918466 333.36 
L 213.918466 312.512445 
L 200.391193 312.512445 
z
" style="fill:#1f77b4;"/>
   </g>
   <g id="patch_11">
    <path clip-path="url(#p4ff39111a4)" d="M 213.918466 333.36 
L 227.445739 333.36 
L 227.445739 320.851467 
L 213.918466 320.851467 
z
" style="fill:#1f77b4;"/>
   </g>
   <g id="patch_12">
    <path clip-path="url(#p4ff39111a4)" d="M 227.445739 333.36 
L 240.973011 333.36 
L 240.973011 316.681956 
L 227.445739 316.681956 
z
" style="fill:#1f77b4;"/>
   </g>
   <g id="patch_13">
    <path clip-path="url(#p4ff39111a4)" d="M 240.973011 333.36 
L 254.500284 333.36 
L 254.500284 312.512445 
L 240.973011 312.512445 
z
" style="fill:#1f77b4;"/>
   </g>
   <g id="patch_14">
    <path clip-path="url(#p4ff39111a4)" d="M 254.500284 333.36 
L 268.027557 333.36 
L 268.027557 325.020978 
L 254.500284 325.020978 
z
" style="fill:#1f77b4;"/>
   </g>
   <g id="patch_15">
    <path clip-path="url(#p4ff39111a4)" d="M 268.027557 333.36 
L 281.55483 333.36 
L 281.55483 325.020978 
L 268.027557 325.020978 
z
" style="fill:#1f77b4;"/>
   </g>
   <g id="patch_16">
    <path clip-path="url(#p4ff39111a4)" d="M 281.55483 333.36 
L 295.082102 333.36 
L 295.082102 320.851467 
L 281.55483 320.851467 
z
" style="fill:#1f77b4;"/>
   </g>
   <g id="patch_17">
    <path clip-path="url(#p4ff39111a4)" d="M 295.082102 333.36 
L 308.609375 333.36 
L 308.609375 327.105733 
L 295.082102 327.105733 
z
" style="fill:#1f77b4;"/>
   </g>
   <g id="patch_18">
    <path clip-path="url(#p4ff39111a4)" d="M 308.609375 333.36 
L 322.136648 333.36 
L 322.136648 320.851467 
L 308.609375 320.851467 
z
" style="fill:#1f77b4;"/>
   </g>
   <g id="patch_19">
    <path clip-path="url(#p4ff39111a4)" d="M 322.136648 333.36 
L 335.66392 333.36 
L 335.66392 329.190489 
L 322.136648 329.190489 
z
" style="fill:#1f77b4;"/>
   </g>
   <g id="patch_20">
    <path clip-path="url(#p4ff39111a4)" d="M 335.66392 333.36 
L 349.191193 333.36 
L 349.191193 329.190489 
L 335.66392 329.190489 
z
" style="fill:#1f77b4;"/>
   </g>
   <g id="patch_21">
    <path clip-path="url(#p4ff39111a4)" d="M 349.191193 333.36 
L 362.718466 333.36 
L 362.718466 325.020978 
L 349.191193 325.020978 
z
" style="fill:#1f77b4;"/>
   </g>
   <g id="patch_22">
    <path clip-path="url(#p4ff39111a4)" d="M 362.718466 333.36 
L 376.245739 333.36 
L 376.245739 331.275244 
L 362.718466 331.275244 
z
" style="fill:#1f77b4;"/>
   </g>
   <g id="patch_23">
    <path clip-path="url(#p4ff39111a4)" d="M 376.245739 333.36 
L 389.773011 333.36 
L 389.773011 331.275244 
L 376.245739 331.275244 
z
" style="fill:#1f77b4;"/>
   </g>
   <g id="patch_24">
    <path clip-path="url(#p4ff39111a4)" d="M 389.773011 333.36 
L 403.300284 333.36 
L 403.300284 329.190489 
L 389.773011 329.190489 
z
" style="fill:#1f77b4;"/>
   </g>
   <g id="patch_25">
    <path clip-path="url(#p4ff39111a4)" d="M 403.300284 333.36 
L 416.827557 333.36 
L 416.827557 325.020978 
L 403.300284 325.020978 
z
" style="fill:#1f77b4;"/>
   </g>
   <g id="patch_26">
    <path clip-path="url(#p4ff39111a4)" d="M 416.827557 333.36 
L 430.35483 333.36 
L 430.35483 331.275244 
L 416.827557 331.275244 
z
" style="fill:#1f77b4;"/>
   </g>
   <g id="patch_27">
    <path clip-path="url(#p4ff39111a4)" d="M 430.35483 333.36 
L 443.882102 333.36 
L 443.882102 329.190489 
L 430.35483 329.190489 
z
" style="fill:#1f77b4;"/>
   </g>
   <g id="patch_28">
    <path clip-path="url(#p4ff39111a4)" d="M 443.882102 333.36 
L 457.409375 333.36 
L 457.409375 331.275244 
L 443.882102 331.275244 
z
" style="fill:#1f77b4;"/>
   </g>
   <g id="patch_29">
    <path clip-path="url(#p4ff39111a4)" d="M 457.409375 333.36 
L 470.936648 333.36 
L 470.936648 333.36 
L 457.409375 333.36 
z
" style="fill:#1f77b4;"/>
   </g>
   <g id="patch_30">
    <path clip-path="url(#p4ff39111a4)" d="M 470.936648 333.36 
L 484.46392 333.36 
L 484.46392 333.36 
L 470.936648 333.36 
z
" style="fill:#1f77b4;"/>
   </g>
   <g id="patch_31">
    <path clip-path="url(#p4ff39111a4)" d="M 484.46392 333.36 
L 497.991193 333.36 
L 497.991193 333.36 
L 484.46392 333.36 
z
" style="fill:#1f77b4;"/>
   </g>
   <g id="patch_32">
    <path clip-path="url(#p4ff39111a4)" d="M 497.991193 333.36 
L 511.518466 333.36 
L 511.518466 327.105733 
L 497.991193 327.105733 
z
" style="fill:#1f77b4;"/>
   </g>
   <g id="matplotlib.axis_1">
    <g id="xtick_1">
     <g id="line2d_1">
      <defs>
       <path d="M 0 0 
L 0 3.5 
" id="mee71b3008a" style="stroke:#000000;stroke-width:0.8;"/>
      </defs>
      <g>
       <use style="stroke:#000000;stroke-width:0.8;" x="105.36031" xlink:href="#mee71b3008a" y="333.36"/>
      </g>
     </g>
     <g id="text_1">
      <!-- 0 -->
      <g transform="translate(98.99781 355.556875)scale(0.2 -0.2)">
       <defs>
        <path d="M 31.78125 66.40625 
Q 24.171875 66.40625 20.328125 58.90625 
Q 16.5 51.421875 16.5 36.375 
Q 16.5 21.390625 20.328125 13.890625 
Q 24.171875 6.390625 31.78125 6.390625 
Q 39.453125 6.390625 43.28125 13.890625 
Q 47.125 21.390625 47.125 36.375 
Q 47.125 51.421875 43.28125 58.90625 
Q 39.453125 66.40625 31.78125 66.40625 
z
M 31.78125 74.21875 
Q 44.046875 74.21875 50.515625 64.515625 
Q 56.984375 54.828125 56.984375 36.375 
Q 56.984375 17.96875 50.515625 8.265625 
Q 44.046875 -1.421875 31.78125 -1.421875 
Q 19.53125 -1.421875 13.0625 8.265625 
Q 6.59375 17.96875 6.59375 36.375 
Q 6.59375 54.828125 13.0625 64.515625 
Q 19.53125 74.21875 31.78125 74.21875 
z
" id="DejaVuSans-48"/>
       </defs>
       <use xlink:href="#DejaVuSans-48"/>
      </g>
     </g>
    </g>
    <g id="xtick_2">
     <g id="line2d_2">
      <g>
       <use style="stroke:#000000;stroke-width:0.8;" x="187.28172" xlink:href="#mee71b3008a" y="333.36"/>
      </g>
     </g>
     <g id="text_2">
      <!-- 100 -->
      <g transform="translate(168.19422 355.556875)scale(0.2 -0.2)">
       <defs>
        <path d="M 12.40625 8.296875 
L 28.515625 8.296875 
L 28.515625 63.921875 
L 10.984375 60.40625 
L 10.984375 69.390625 
L 28.421875 72.90625 
L 38.28125 72.90625 
L 38.28125 8.296875 
L 54.390625 8.296875 
L 54.390625 0 
L 12.40625 0 
z
" id="DejaVuSans-49"/>
       </defs>
       <use xlink:href="#DejaVuSans-49"/>
       <use x="63.623047" xlink:href="#DejaVuSans-48"/>
       <use x="127.246094" xlink:href="#DejaVuSans-48"/>
      </g>
     </g>
    </g>
    <g id="xtick_3">
     <g id="line2d_3">
      <g>
       <use style="stroke:#000000;stroke-width:0.8;" x="269.203129" xlink:href="#mee71b3008a" y="333.36"/>
      </g>
     </g>
     <g id="text_3">
      <!-- 200 -->
      <g transform="translate(250.115629 355.556875)scale(0.2 -0.2)">
       <defs>
        <path d="M 19.1875 8.296875 
L 53.609375 8.296875 
L 53.609375 0 
L 7.328125 0 
L 7.328125 8.296875 
Q 12.9375 14.109375 22.625 23.890625 
Q 32.328125 33.6875 34.8125 36.53125 
Q 39.546875 41.84375 41.421875 45.53125 
Q 43.3125 49.21875 43.3125 52.78125 
Q 43.3125 58.59375 39.234375 62.25 
Q 35.15625 65.921875 28.609375 65.921875 
Q 23.96875 65.921875 18.8125 64.3125 
Q 13.671875 62.703125 7.8125 59.421875 
L 7.8125 69.390625 
Q 13.765625 71.78125 18.9375 73 
Q 24.125 74.21875 28.421875 74.21875 
Q 39.75 74.21875 46.484375 68.546875 
Q 53.21875 62.890625 53.21875 53.421875 
Q 53.21875 48.921875 51.53125 44.890625 
Q 49.859375 40.875 45.40625 35.40625 
Q 44.1875 33.984375 37.640625 27.21875 
Q 31.109375 20.453125 19.1875 8.296875 
z
" id="DejaVuSans-50"/>
       </defs>
       <use xlink:href="#DejaVuSans-50"/>
       <use x="63.623047" xlink:href="#DejaVuSans-48"/>
       <use x="127.246094" xlink:href="#DejaVuSans-48"/>
      </g>
     </g>
    </g>
    <g id="xtick_4">
     <g id="line2d_4">
      <g>
       <use style="stroke:#000000;stroke-width:0.8;" x="351.124538" xlink:href="#mee71b3008a" y="333.36"/>
      </g>
     </g>
     <g id="text_4">
      <!-- 300 -->
      <g transform="translate(332.037038 355.556875)scale(0.2 -0.2)">
       <defs>
        <path d="M 40.578125 39.3125 
Q 47.65625 37.796875 51.625 33 
Q 55.609375 28.21875 55.609375 21.1875 
Q 55.609375 10.40625 48.1875 4.484375 
Q 40.765625 -1.421875 27.09375 -1.421875 
Q 22.515625 -1.421875 17.65625 -0.515625 
Q 12.796875 0.390625 7.625 2.203125 
L 7.625 11.71875 
Q 11.71875 9.328125 16.59375 8.109375 
Q 21.484375 6.890625 26.8125 6.890625 
Q 36.078125 6.890625 40.9375 10.546875 
Q 45.796875 14.203125 45.796875 21.1875 
Q 45.796875 27.640625 41.28125 31.265625 
Q 36.765625 34.90625 28.71875 34.90625 
L 20.21875 34.90625 
L 20.21875 43.015625 
L 29.109375 43.015625 
Q 36.375 43.015625 40.234375 45.921875 
Q 44.09375 48.828125 44.09375 54.296875 
Q 44.09375 59.90625 40.109375 62.90625 
Q 36.140625 65.921875 28.71875 65.921875 
Q 24.65625 65.921875 20.015625 65.03125 
Q 15.375 64.15625 9.8125 62.3125 
L 9.8125 71.09375 
Q 15.4375 72.65625 20.34375 73.4375 
Q 25.25 74.21875 29.59375 74.21875 
Q 40.828125 74.21875 47.359375 69.109375 
Q 53.90625 64.015625 53.90625 55.328125 
Q 53.90625 49.265625 50.4375 45.09375 
Q 46.96875 40.921875 40.578125 39.3125 
z
" id="DejaVuSans-51"/>
       </defs>
       <use xlink:href="#DejaVuSans-51"/>
       <use x="63.623047" xlink:href="#DejaVuSans-48"/>
       <use x="127.246094" xlink:href="#DejaVuSans-48"/>
      </g>
     </g>
    </g>
    <g id="xtick_5">
     <g id="line2d_5">
      <g>
       <use style="stroke:#000000;stroke-width:0.8;" x="433.045948" xlink:href="#mee71b3008a" y="333.36"/>
      </g>
     </g>
     <g id="text_5">
      <!-- 400 -->
      <g transform="translate(413.958448 355.556875)scale(0.2 -0.2)">
       <defs>
        <path d="M 37.796875 64.3125 
L 12.890625 25.390625 
L 37.796875 25.390625 
z
M 35.203125 72.90625 
L 47.609375 72.90625 
L 47.609375 25.390625 
L 58.015625 25.390625 
L 58.015625 17.1875 
L 47.609375 17.1875 
L 47.609375 0 
L 37.796875 0 
L 37.796875 17.1875 
L 4.890625 17.1875 
L 4.890625 26.703125 
z
" id="DejaVuSans-52"/>
       </defs>
       <use xlink:href="#DejaVuSans-52"/>
       <use x="63.623047" xlink:href="#DejaVuSans-48"/>
       <use x="127.246094" xlink:href="#DejaVuSans-48"/>
      </g>
     </g>
    </g>
    <g id="xtick_6">
     <g id="line2d_6">
      <g>
       <use style="stroke:#000000;stroke-width:0.8;" x="514.967357" xlink:href="#mee71b3008a" y="333.36"/>
      </g>
     </g>
     <g id="text_6">
      <!-- 500 -->
      <g transform="translate(495.879857 355.556875)scale(0.2 -0.2)">
       <defs>
        <path d="M 10.796875 72.90625 
L 49.515625 72.90625 
L 49.515625 64.59375 
L 19.828125 64.59375 
L 19.828125 46.734375 
Q 21.96875 47.46875 24.109375 47.828125 
Q 26.265625 48.1875 28.421875 48.1875 
Q 40.625 48.1875 47.75 41.5 
Q 54.890625 34.8125 54.890625 23.390625 
Q 54.890625 11.625 47.5625 5.09375 
Q 40.234375 -1.421875 26.90625 -1.421875 
Q 22.3125 -1.421875 17.546875 -0.640625 
Q 12.796875 0.140625 7.71875 1.703125 
L 7.71875 11.625 
Q 12.109375 9.234375 16.796875 8.0625 
Q 21.484375 6.890625 26.703125 6.890625 
Q 35.15625 6.890625 40.078125 11.328125 
Q 45.015625 15.765625 45.015625 23.390625 
Q 45.015625 31 40.078125 35.4375 
Q 35.15625 39.890625 26.703125 39.890625 
Q 22.75 39.890625 18.8125 39.015625 
Q 14.890625 38.140625 10.796875 36.28125 
z
" id="DejaVuSans-53"/>
       </defs>
       <use xlink:href="#DejaVuSans-53"/>
       <use x="63.623047" xlink:href="#DejaVuSans-48"/>
       <use x="127.246094" xlink:href="#DejaVuSans-48"/>
      </g>
     </g>
    </g>
    <g id="text_7">
     <!-- Gaps of 2 PAF Events (s) -->
     <g transform="translate(125.3375 386.511563)scale(0.3 -0.3)">
      <defs>
       <path d="M 59.515625 10.40625 
L 59.515625 29.984375 
L 43.40625 29.984375 
L 43.40625 38.09375 
L 69.28125 38.09375 
L 69.28125 6.78125 
Q 63.578125 2.734375 56.6875 0.65625 
Q 49.8125 -1.421875 42 -1.421875 
Q 24.90625 -1.421875 15.25 8.5625 
Q 5.609375 18.5625 5.609375 36.375 
Q 5.609375 54.25 15.25 64.234375 
Q 24.90625 74.21875 42 74.21875 
Q 49.125 74.21875 55.546875 72.453125 
Q 61.96875 70.703125 67.390625 67.28125 
L 67.390625 56.78125 
Q 61.921875 61.421875 55.765625 63.765625 
Q 49.609375 66.109375 42.828125 66.109375 
Q 29.4375 66.109375 22.71875 58.640625 
Q 16.015625 51.171875 16.015625 36.375 
Q 16.015625 21.625 22.71875 14.15625 
Q 29.4375 6.6875 42.828125 6.6875 
Q 48.046875 6.6875 52.140625 7.59375 
Q 56.25 8.5 59.515625 10.40625 
z
" id="DejaVuSans-71"/>
       <path d="M 34.28125 27.484375 
Q 23.390625 27.484375 19.1875 25 
Q 14.984375 22.515625 14.984375 16.5 
Q 14.984375 11.71875 18.140625 8.90625 
Q 21.296875 6.109375 26.703125 6.109375 
Q 34.1875 6.109375 38.703125 11.40625 
Q 43.21875 16.703125 43.21875 25.484375 
L 43.21875 27.484375 
z
M 52.203125 31.203125 
L 52.203125 0 
L 43.21875 0 
L 43.21875 8.296875 
Q 40.140625 3.328125 35.546875 0.953125 
Q 30.953125 -1.421875 24.3125 -1.421875 
Q 15.921875 -1.421875 10.953125 3.296875 
Q 6 8.015625 6 15.921875 
Q 6 25.140625 12.171875 29.828125 
Q 18.359375 34.515625 30.609375 34.515625 
L 43.21875 34.515625 
L 43.21875 35.40625 
Q 43.21875 41.609375 39.140625 45 
Q 35.0625 48.390625 27.6875 48.390625 
Q 23 48.390625 18.546875 47.265625 
Q 14.109375 46.140625 10.015625 43.890625 
L 10.015625 52.203125 
Q 14.9375 54.109375 19.578125 55.046875 
Q 24.21875 56 28.609375 56 
Q 40.484375 56 46.34375 49.84375 
Q 52.203125 43.703125 52.203125 31.203125 
z
" id="DejaVuSans-97"/>
       <path d="M 18.109375 8.203125 
L 18.109375 -20.796875 
L 9.078125 -20.796875 
L 9.078125 54.6875 
L 18.109375 54.6875 
L 18.109375 46.390625 
Q 20.953125 51.265625 25.265625 53.625 
Q 29.59375 56 35.59375 56 
Q 45.5625 56 51.78125 48.09375 
Q 58.015625 40.1875 58.015625 27.296875 
Q 58.015625 14.40625 51.78125 6.484375 
Q 45.5625 -1.421875 35.59375 -1.421875 
Q 29.59375 -1.421875 25.265625 0.953125 
Q 20.953125 3.328125 18.109375 8.203125 
z
M 48.6875 27.296875 
Q 48.6875 37.203125 44.609375 42.84375 
Q 40.53125 48.484375 33.40625 48.484375 
Q 26.265625 48.484375 22.1875 42.84375 
Q 18.109375 37.203125 18.109375 27.296875 
Q 18.109375 17.390625 22.1875 11.75 
Q 26.265625 6.109375 33.40625 6.109375 
Q 40.53125 6.109375 44.609375 11.75 
Q 48.6875 17.390625 48.6875 27.296875 
z
" id="DejaVuSans-112"/>
       <path d="M 44.28125 53.078125 
L 44.28125 44.578125 
Q 40.484375 46.53125 36.375 47.5 
Q 32.28125 48.484375 27.875 48.484375 
Q 21.1875 48.484375 17.84375 46.4375 
Q 14.5 44.390625 14.5 40.28125 
Q 14.5 37.15625 16.890625 35.375 
Q 19.28125 33.59375 26.515625 31.984375 
L 29.59375 31.296875 
Q 39.15625 29.25 43.1875 25.515625 
Q 47.21875 21.78125 47.21875 15.09375 
Q 47.21875 7.46875 41.1875 3.015625 
Q 35.15625 -1.421875 24.609375 -1.421875 
Q 20.21875 -1.421875 15.453125 -0.5625 
Q 10.6875 0.296875 5.421875 2 
L 5.421875 11.28125 
Q 10.40625 8.6875 15.234375 7.390625 
Q 20.0625 6.109375 24.8125 6.109375 
Q 31.15625 6.109375 34.5625 8.28125 
Q 37.984375 10.453125 37.984375 14.40625 
Q 37.984375 18.0625 35.515625 20.015625 
Q 33.0625 21.96875 24.703125 23.78125 
L 21.578125 24.515625 
Q 13.234375 26.265625 9.515625 29.90625 
Q 5.8125 33.546875 5.8125 39.890625 
Q 5.8125 47.609375 11.28125 51.796875 
Q 16.75 56 26.8125 56 
Q 31.78125 56 36.171875 55.265625 
Q 40.578125 54.546875 44.28125 53.078125 
z
" id="DejaVuSans-115"/>
       <path id="DejaVuSans-32"/>
       <path d="M 30.609375 48.390625 
Q 23.390625 48.390625 19.1875 42.75 
Q 14.984375 37.109375 14.984375 27.296875 
Q 14.984375 17.484375 19.15625 11.84375 
Q 23.34375 6.203125 30.609375 6.203125 
Q 37.796875 6.203125 41.984375 11.859375 
Q 46.1875 17.53125 46.1875 27.296875 
Q 46.1875 37.015625 41.984375 42.703125 
Q 37.796875 48.390625 30.609375 48.390625 
z
M 30.609375 56 
Q 42.328125 56 49.015625 48.375 
Q 55.71875 40.765625 55.71875 27.296875 
Q 55.71875 13.875 49.015625 6.21875 
Q 42.328125 -1.421875 30.609375 -1.421875 
Q 18.84375 -1.421875 12.171875 6.21875 
Q 5.515625 13.875 5.515625 27.296875 
Q 5.515625 40.765625 12.171875 48.375 
Q 18.84375 56 30.609375 56 
z
" id="DejaVuSans-111"/>
       <path d="M 37.109375 75.984375 
L 37.109375 68.5 
L 28.515625 68.5 
Q 23.6875 68.5 21.796875 66.546875 
Q 19.921875 64.59375 19.921875 59.515625 
L 19.921875 54.6875 
L 34.71875 54.6875 
L 34.71875 47.703125 
L 19.921875 47.703125 
L 19.921875 0 
L 10.890625 0 
L 10.890625 47.703125 
L 2.296875 47.703125 
L 2.296875 54.6875 
L 10.890625 54.6875 
L 10.890625 58.5 
Q 10.890625 67.625 15.140625 71.796875 
Q 19.390625 75.984375 28.609375 75.984375 
z
" id="DejaVuSans-102"/>
       <path d="M 19.671875 64.796875 
L 19.671875 37.40625 
L 32.078125 37.40625 
Q 38.96875 37.40625 42.71875 40.96875 
Q 46.484375 44.53125 46.484375 51.125 
Q 46.484375 57.671875 42.71875 61.234375 
Q 38.96875 64.796875 32.078125 64.796875 
z
M 9.8125 72.90625 
L 32.078125 72.90625 
Q 44.34375 72.90625 50.609375 67.359375 
Q 56.890625 61.8125 56.890625 51.125 
Q 56.890625 40.328125 50.609375 34.8125 
Q 44.34375 29.296875 32.078125 29.296875 
L 19.671875 29.296875 
L 19.671875 0 
L 9.8125 0 
z
" id="DejaVuSans-80"/>
       <path d="M 34.1875 63.1875 
L 20.796875 26.90625 
L 47.609375 26.90625 
z
M 28.609375 72.90625 
L 39.796875 72.90625 
L 67.578125 0 
L 57.328125 0 
L 50.6875 18.703125 
L 17.828125 18.703125 
L 11.1875 0 
L 0.78125 0 
z
" id="DejaVuSans-65"/>
       <path d="M 9.8125 72.90625 
L 51.703125 72.90625 
L 51.703125 64.59375 
L 19.671875 64.59375 
L 19.671875 43.109375 
L 48.578125 43.109375 
L 48.578125 34.8125 
L 19.671875 34.8125 
L 19.671875 0 
L 9.8125 0 
z
" id="DejaVuSans-70"/>
       <path d="M 9.8125 72.90625 
L 55.90625 72.90625 
L 55.90625 64.59375 
L 19.671875 64.59375 
L 19.671875 43.015625 
L 54.390625 43.015625 
L 54.390625 34.71875 
L 19.671875 34.71875 
L 19.671875 8.296875 
L 56.78125 8.296875 
L 56.78125 0 
L 9.8125 0 
z
" id="DejaVuSans-69"/>
       <path d="M 2.984375 54.6875 
L 12.5 54.6875 
L 29.59375 8.796875 
L 46.6875 54.6875 
L 56.203125 54.6875 
L 35.6875 0 
L 23.484375 0 
z
" id="DejaVuSans-118"/>
       <path d="M 56.203125 29.59375 
L 56.203125 25.203125 
L 14.890625 25.203125 
Q 15.484375 15.921875 20.484375 11.0625 
Q 25.484375 6.203125 34.421875 6.203125 
Q 39.59375 6.203125 44.453125 7.46875 
Q 49.3125 8.734375 54.109375 11.28125 
L 54.109375 2.78125 
Q 49.265625 0.734375 44.1875 -0.34375 
Q 39.109375 -1.421875 33.890625 -1.421875 
Q 20.796875 -1.421875 13.15625 6.1875 
Q 5.515625 13.8125 5.515625 26.8125 
Q 5.515625 40.234375 12.765625 48.109375 
Q 20.015625 56 32.328125 56 
Q 43.359375 56 49.78125 48.890625 
Q 56.203125 41.796875 56.203125 29.59375 
z
M 47.21875 32.234375 
Q 47.125 39.59375 43.09375 43.984375 
Q 39.0625 48.390625 32.421875 48.390625 
Q 24.90625 48.390625 20.390625 44.140625 
Q 15.875 39.890625 15.1875 32.171875 
z
" id="DejaVuSans-101"/>
       <path d="M 54.890625 33.015625 
L 54.890625 0 
L 45.90625 0 
L 45.90625 32.71875 
Q 45.90625 40.484375 42.875 44.328125 
Q 39.84375 48.1875 33.796875 48.1875 
Q 26.515625 48.1875 22.3125 43.546875 
Q 18.109375 38.921875 18.109375 30.90625 
L 18.109375 0 
L 9.078125 0 
L 9.078125 54.6875 
L 18.109375 54.6875 
L 18.109375 46.1875 
Q 21.34375 51.125 25.703125 53.5625 
Q 30.078125 56 35.796875 56 
Q 45.21875 56 50.046875 50.171875 
Q 54.890625 44.34375 54.890625 33.015625 
z
" id="DejaVuSans-110"/>
       <path d="M 18.3125 70.21875 
L 18.3125 54.6875 
L 36.8125 54.6875 
L 36.8125 47.703125 
L 18.3125 47.703125 
L 18.3125 18.015625 
Q 18.3125 11.328125 20.140625 9.421875 
Q 21.96875 7.515625 27.59375 7.515625 
L 36.8125 7.515625 
L 36.8125 0 
L 27.59375 0 
Q 17.1875 0 13.234375 3.875 
Q 9.28125 7.765625 9.28125 18.015625 
L 9.28125 47.703125 
L 2.6875 47.703125 
L 2.6875 54.6875 
L 9.28125 54.6875 
L 9.28125 70.21875 
z
" id="DejaVuSans-116"/>
       <path d="M 31 75.875 
Q 24.46875 64.65625 21.28125 53.65625 
Q 18.109375 42.671875 18.109375 31.390625 
Q 18.109375 20.125 21.3125 9.0625 
Q 24.515625 -2 31 -13.1875 
L 23.1875 -13.1875 
Q 15.875 -1.703125 12.234375 9.375 
Q 8.59375 20.453125 8.59375 31.390625 
Q 8.59375 42.28125 12.203125 53.3125 
Q 15.828125 64.359375 23.1875 75.875 
z
" id="DejaVuSans-40"/>
       <path d="M 8.015625 75.875 
L 15.828125 75.875 
Q 23.140625 64.359375 26.78125 53.3125 
Q 30.421875 42.28125 30.421875 31.390625 
Q 30.421875 20.453125 26.78125 9.375 
Q 23.140625 -1.703125 15.828125 -13.1875 
L 8.015625 -13.1875 
Q 14.5 -2 17.703125 9.0625 
Q 20.90625 20.125 20.90625 31.390625 
Q 20.90625 42.671875 17.703125 53.65625 
Q 14.5 64.65625 8.015625 75.875 
z
" id="DejaVuSans-41"/>
      </defs>
      <use xlink:href="#DejaVuSans-71"/>
      <use x="77.490234" xlink:href="#DejaVuSans-97"/>
      <use x="138.769531" xlink:href="#DejaVuSans-112"/>
      <use x="202.246094" xlink:href="#DejaVuSans-115"/>
      <use x="254.345703" xlink:href="#DejaVuSans-32"/>
      <use x="286.132812" xlink:href="#DejaVuSans-111"/>
      <use x="347.314453" xlink:href="#DejaVuSans-102"/>
      <use x="382.519531" xlink:href="#DejaVuSans-32"/>
      <use x="414.306641" xlink:href="#DejaVuSans-50"/>
      <use x="477.929688" xlink:href="#DejaVuSans-32"/>
      <use x="509.716797" xlink:href="#DejaVuSans-80"/>
      <use x="563.644531" xlink:href="#DejaVuSans-65"/>
      <use x="632.052734" xlink:href="#DejaVuSans-70"/>
      <use x="689.572266" xlink:href="#DejaVuSans-32"/>
      <use x="721.359375" xlink:href="#DejaVuSans-69"/>
      <use x="784.542969" xlink:href="#DejaVuSans-118"/>
      <use x="843.722656" xlink:href="#DejaVuSans-101"/>
      <use x="905.246094" xlink:href="#DejaVuSans-110"/>
      <use x="968.625" xlink:href="#DejaVuSans-116"/>
      <use x="1007.833984" xlink:href="#DejaVuSans-115"/>
      <use x="1059.933594" xlink:href="#DejaVuSans-32"/>
      <use x="1091.720703" xlink:href="#DejaVuSans-40"/>
      <use x="1130.734375" xlink:href="#DejaVuSans-115"/>
      <use x="1182.833984" xlink:href="#DejaVuSans-41"/>
     </g>
    </g>
   </g>
   <g id="matplotlib.axis_2">
    <g id="ytick_1">
     <g id="line2d_7">
      <defs>
       <path d="M 0 0 
L -3.5 0 
" id="m28d605b547" style="stroke:#000000;stroke-width:0.8;"/>
      </defs>
      <g>
       <use style="stroke:#000000;stroke-width:0.8;" x="85.409375" xlink:href="#m28d605b547" y="333.36"/>
      </g>
     </g>
     <g id="text_8">
      <!-- 0 -->
      <g transform="translate(65.684375 340.958438)scale(0.2 -0.2)">
       <use xlink:href="#DejaVuSans-48"/>
      </g>
     </g>
    </g>
    <g id="ytick_2">
     <g id="line2d_8">
      <g>
       <use style="stroke:#000000;stroke-width:0.8;" x="85.409375" xlink:href="#m28d605b547" y="291.66489"/>
      </g>
     </g>
     <g id="text_9">
      <!-- 20 -->
      <g transform="translate(52.959375 299.263327)scale(0.2 -0.2)">
       <use xlink:href="#DejaVuSans-50"/>
       <use x="63.623047" xlink:href="#DejaVuSans-48"/>
      </g>
     </g>
    </g>
    <g id="ytick_3">
     <g id="line2d_9">
      <g>
       <use style="stroke:#000000;stroke-width:0.8;" x="85.409375" xlink:href="#m28d605b547" y="249.969779"/>
      </g>
     </g>
     <g id="text_10">
      <!-- 40 -->
      <g transform="translate(52.959375 257.568217)scale(0.2 -0.2)">
       <use xlink:href="#DejaVuSans-52"/>
       <use x="63.623047" xlink:href="#DejaVuSans-48"/>
      </g>
     </g>
    </g>
    <g id="ytick_4">
     <g id="line2d_10">
      <g>
       <use style="stroke:#000000;stroke-width:0.8;" x="85.409375" xlink:href="#m28d605b547" y="208.274669"/>
      </g>
     </g>
     <g id="text_11">
      <!-- 60 -->
      <g transform="translate(52.959375 215.873107)scale(0.2 -0.2)">
       <defs>
        <path d="M 33.015625 40.375 
Q 26.375 40.375 22.484375 35.828125 
Q 18.609375 31.296875 18.609375 23.390625 
Q 18.609375 15.53125 22.484375 10.953125 
Q 26.375 6.390625 33.015625 6.390625 
Q 39.65625 6.390625 43.53125 10.953125 
Q 47.40625 15.53125 47.40625 23.390625 
Q 47.40625 31.296875 43.53125 35.828125 
Q 39.65625 40.375 33.015625 40.375 
z
M 52.59375 71.296875 
L 52.59375 62.3125 
Q 48.875 64.0625 45.09375 64.984375 
Q 41.3125 65.921875 37.59375 65.921875 
Q 27.828125 65.921875 22.671875 59.328125 
Q 17.53125 52.734375 16.796875 39.40625 
Q 19.671875 43.65625 24.015625 45.921875 
Q 28.375 48.1875 33.59375 48.1875 
Q 44.578125 48.1875 50.953125 41.515625 
Q 57.328125 34.859375 57.328125 23.390625 
Q 57.328125 12.15625 50.6875 5.359375 
Q 44.046875 -1.421875 33.015625 -1.421875 
Q 20.359375 -1.421875 13.671875 8.265625 
Q 6.984375 17.96875 6.984375 36.375 
Q 6.984375 53.65625 15.1875 63.9375 
Q 23.390625 74.21875 37.203125 74.21875 
Q 40.921875 74.21875 44.703125 73.484375 
Q 48.484375 72.75 52.59375 71.296875 
z
" id="DejaVuSans-54"/>
       </defs>
       <use xlink:href="#DejaVuSans-54"/>
       <use x="63.623047" xlink:href="#DejaVuSans-48"/>
      </g>
     </g>
    </g>
    <g id="ytick_5">
     <g id="line2d_11">
      <g>
       <use style="stroke:#000000;stroke-width:0.8;" x="85.409375" xlink:href="#m28d605b547" y="166.579559"/>
      </g>
     </g>
     <g id="text_12">
      <!-- 80 -->
      <g transform="translate(52.959375 174.177996)scale(0.2 -0.2)">
       <defs>
        <path d="M 31.78125 34.625 
Q 24.75 34.625 20.71875 30.859375 
Q 16.703125 27.09375 16.703125 20.515625 
Q 16.703125 13.921875 20.71875 10.15625 
Q 24.75 6.390625 31.78125 6.390625 
Q 38.8125 6.390625 42.859375 10.171875 
Q 46.921875 13.96875 46.921875 20.515625 
Q 46.921875 27.09375 42.890625 30.859375 
Q 38.875 34.625 31.78125 34.625 
z
M 21.921875 38.8125 
Q 15.578125 40.375 12.03125 44.71875 
Q 8.5 49.078125 8.5 55.328125 
Q 8.5 64.0625 14.71875 69.140625 
Q 20.953125 74.21875 31.78125 74.21875 
Q 42.671875 74.21875 48.875 69.140625 
Q 55.078125 64.0625 55.078125 55.328125 
Q 55.078125 49.078125 51.53125 44.71875 
Q 48 40.375 41.703125 38.8125 
Q 48.828125 37.15625 52.796875 32.3125 
Q 56.78125 27.484375 56.78125 20.515625 
Q 56.78125 9.90625 50.3125 4.234375 
Q 43.84375 -1.421875 31.78125 -1.421875 
Q 19.734375 -1.421875 13.25 4.234375 
Q 6.78125 9.90625 6.78125 20.515625 
Q 6.78125 27.484375 10.78125 32.3125 
Q 14.796875 37.15625 21.921875 38.8125 
z
M 18.3125 54.390625 
Q 18.3125 48.734375 21.84375 45.5625 
Q 25.390625 42.390625 31.78125 42.390625 
Q 38.140625 42.390625 41.71875 45.5625 
Q 45.3125 48.734375 45.3125 54.390625 
Q 45.3125 60.0625 41.71875 63.234375 
Q 38.140625 66.40625 31.78125 66.40625 
Q 25.390625 66.40625 21.84375 63.234375 
Q 18.3125 60.0625 18.3125 54.390625 
z
" id="DejaVuSans-56"/>
       </defs>
       <use xlink:href="#DejaVuSans-56"/>
       <use x="63.623047" xlink:href="#DejaVuSans-48"/>
      </g>
     </g>
    </g>
    <g id="ytick_6">
     <g id="line2d_12">
      <g>
       <use style="stroke:#000000;stroke-width:0.8;" x="85.409375" xlink:href="#m28d605b547" y="124.884449"/>
      </g>
     </g>
     <g id="text_13">
      <!-- 100 -->
      <g transform="translate(40.234375 132.482886)scale(0.2 -0.2)">
       <use xlink:href="#DejaVuSans-49"/>
       <use x="63.623047" xlink:href="#DejaVuSans-48"/>
       <use x="127.246094" xlink:href="#DejaVuSans-48"/>
      </g>
     </g>
    </g>
    <g id="ytick_7">
     <g id="line2d_13">
      <g>
       <use style="stroke:#000000;stroke-width:0.8;" x="85.409375" xlink:href="#m28d605b547" y="83.189338"/>
      </g>
     </g>
     <g id="text_14">
      <!-- 120 -->
      <g transform="translate(40.234375 90.787776)scale(0.2 -0.2)">
       <use xlink:href="#DejaVuSans-49"/>
       <use x="63.623047" xlink:href="#DejaVuSans-50"/>
       <use x="127.246094" xlink:href="#DejaVuSans-48"/>
      </g>
     </g>
    </g>
    <g id="ytick_8">
     <g id="line2d_14">
      <g>
       <use style="stroke:#000000;stroke-width:0.8;" x="85.409375" xlink:href="#m28d605b547" y="41.494228"/>
      </g>
     </g>
     <g id="text_15">
      <!-- 140 -->
      <g transform="translate(40.234375 49.092666)scale(0.2 -0.2)">
       <use xlink:href="#DejaVuSans-49"/>
       <use x="63.623047" xlink:href="#DejaVuSans-52"/>
       <use x="127.246094" xlink:href="#DejaVuSans-48"/>
      </g>
     </g>
    </g>
    <g id="text_16">
     <!-- Count (n.u.) -->
     <g transform="translate(29.995313 259.844062)rotate(-90)scale(0.3 -0.3)">
      <defs>
       <path d="M 64.40625 67.28125 
L 64.40625 56.890625 
Q 59.421875 61.53125 53.78125 63.8125 
Q 48.140625 66.109375 41.796875 66.109375 
Q 29.296875 66.109375 22.65625 58.46875 
Q 16.015625 50.828125 16.015625 36.375 
Q 16.015625 21.96875 22.65625 14.328125 
Q 29.296875 6.6875 41.796875 6.6875 
Q 48.140625 6.6875 53.78125 8.984375 
Q 59.421875 11.28125 64.40625 15.921875 
L 64.40625 5.609375 
Q 59.234375 2.09375 53.4375 0.328125 
Q 47.65625 -1.421875 41.21875 -1.421875 
Q 24.65625 -1.421875 15.125 8.703125 
Q 5.609375 18.84375 5.609375 36.375 
Q 5.609375 53.953125 15.125 64.078125 
Q 24.65625 74.21875 41.21875 74.21875 
Q 47.75 74.21875 53.53125 72.484375 
Q 59.328125 70.75 64.40625 67.28125 
z
" id="DejaVuSans-67"/>
       <path d="M 8.5 21.578125 
L 8.5 54.6875 
L 17.484375 54.6875 
L 17.484375 21.921875 
Q 17.484375 14.15625 20.5 10.265625 
Q 23.53125 6.390625 29.59375 6.390625 
Q 36.859375 6.390625 41.078125 11.03125 
Q 45.3125 15.671875 45.3125 23.6875 
L 45.3125 54.6875 
L 54.296875 54.6875 
L 54.296875 0 
L 45.3125 0 
L 45.3125 8.40625 
Q 42.046875 3.421875 37.71875 1 
Q 33.40625 -1.421875 27.6875 -1.421875 
Q 18.265625 -1.421875 13.375 4.4375 
Q 8.5 10.296875 8.5 21.578125 
z
M 31.109375 56 
z
" id="DejaVuSans-117"/>
       <path d="M 10.6875 12.40625 
L 21 12.40625 
L 21 0 
L 10.6875 0 
z
" id="DejaVuSans-46"/>
      </defs>
      <use xlink:href="#DejaVuSans-67"/>
      <use x="69.824219" xlink:href="#DejaVuSans-111"/>
      <use x="131.005859" xlink:href="#DejaVuSans-117"/>
      <use x="194.384766" xlink:href="#DejaVuSans-110"/>
      <use x="257.763672" xlink:href="#DejaVuSans-116"/>
      <use x="296.972656" xlink:href="#DejaVuSans-32"/>
      <use x="328.759766" xlink:href="#DejaVuSans-40"/>
      <use x="367.773438" xlink:href="#DejaVuSans-110"/>
      <use x="431.152344" xlink:href="#DejaVuSans-46"/>
      <use x="462.939453" xlink:href="#DejaVuSans-117"/>
      <use x="526.318359" xlink:href="#DejaVuSans-46"/>
      <use x="558.105469" xlink:href="#DejaVuSans-41"/>
     </g>
    </g>
   </g>
   <g id="patch_33">
    <path d="M 85.409375 333.36 
L 85.409375 7.2 
" style="fill:none;stroke:#000000;stroke-linecap:square;stroke-linejoin:miter;stroke-width:0.8;"/>
   </g>
   <g id="patch_34">
    <path d="M 531.809375 333.36 
L 531.809375 7.2 
" style="fill:none;stroke:#000000;stroke-linecap:square;stroke-linejoin:miter;stroke-width:0.8;"/>
   </g>
   <g id="patch_35">
    <path d="M 85.409375 333.36 
L 531.809375 333.36 
" style="fill:none;stroke:#000000;stroke-linecap:square;stroke-linejoin:miter;stroke-width:0.8;"/>
   </g>
   <g id="patch_36">
    <path d="M 85.409375 7.2 
L 531.809375 7.2 
" style="fill:none;stroke:#000000;stroke-linecap:square;stroke-linejoin:miter;stroke-width:0.8;"/>
   </g>
   <g id="patch_37">
    <path d="M 233.486672 230.372536 
L 235.374969 231.744096 
Q 201.471331 245.146287 167.72388 258.916726 
L 169.005926 259.893682 
Q 166.93103 260.121986 164.54376 259.613796 
Q 165.83772 257.544259 167.444055 256.211216 
L 167.255319 257.811986 
Q 200.612302 243.120931 233.813098 228.061629 
L 233.486672 230.372536 
z
" style="stroke:#000000;stroke-linecap:round;"/>
   </g>
  </g>
  <g id="axes_2">
   <g id="patch_38">
    <path d="M 231.969375 225.1112 
L 499.809375 225.1112 
L 499.809375 39.2 
L 231.969375 39.2 
z
" style="fill:#ffffff;"/>
   </g>
   <g id="patch_39">
    <path clip-path="url(#pb14b5f7fca)" d="M 244.14392 225.1112 
L 246.57883 225.1112 
L 246.57883 180.846629 
L 244.14392 180.846629 
z
" style="fill:#1f77b4;"/>
   </g>
   <g id="patch_40">
    <path clip-path="url(#pb14b5f7fca)" d="M 246.57883 225.1112 
L 249.013739 225.1112 
L 249.013739 225.1112 
L 246.57883 225.1112 
z
" style="fill:#1f77b4;"/>
   </g>
   <g id="patch_41">
    <path clip-path="url(#pb14b5f7fca)" d="M 249.013739 225.1112 
L 251.448648 225.1112 
L 251.448648 225.1112 
L 249.013739 225.1112 
z
" style="fill:#1f77b4;"/>
   </g>
   <g id="patch_42">
    <path clip-path="url(#pb14b5f7fca)" d="M 251.448648 225.1112 
L 253.883557 225.1112 
L 253.883557 136.582057 
L 251.448648 136.582057 
z
" style="fill:#1f77b4;"/>
   </g>
   <g id="patch_43">
    <path clip-path="url(#pb14b5f7fca)" d="M 253.883557 225.1112 
L 256.318466 225.1112 
L 256.318466 81.251343 
L 253.883557 81.251343 
z
" style="fill:#1f77b4;"/>
   </g>
   <g id="patch_44">
    <path clip-path="url(#pb14b5f7fca)" d="M 256.318466 225.1112 
L 258.753375 225.1112 
L 258.753375 114.449771 
L 256.318466 114.449771 
z
" style="fill:#1f77b4;"/>
   </g>
   <g id="patch_45">
    <path clip-path="url(#pb14b5f7fca)" d="M 258.753375 225.1112 
L 261.188284 225.1112 
L 261.188284 48.052914 
L 258.753375 48.052914 
z
" style="fill:#1f77b4;"/>
   </g>
   <g id="patch_46">
    <path clip-path="url(#pb14b5f7fca)" d="M 261.188284 225.1112 
L 263.623193 225.1112 
L 263.623193 169.780486 
L 261.188284 169.780486 
z
" style="fill:#1f77b4;"/>
   </g>
   <g id="patch_47">
    <path clip-path="url(#pb14b5f7fca)" d="M 263.623193 225.1112 
L 266.058102 225.1112 
L 266.058102 125.515914 
L 263.623193 125.515914 
z
" style="fill:#1f77b4;"/>
   </g>
   <g id="patch_48">
    <path clip-path="url(#pb14b5f7fca)" d="M 266.058102 225.1112 
L 268.493011 225.1112 
L 268.493011 59.119057 
L 266.058102 59.119057 
z
" style="fill:#1f77b4;"/>
   </g>
   <g id="patch_49">
    <path clip-path="url(#pb14b5f7fca)" d="M 268.493011 225.1112 
L 270.92792 225.1112 
L 270.92792 70.1852 
L 268.493011 70.1852 
z
" style="fill:#1f77b4;"/>
   </g>
   <g id="patch_50">
    <path clip-path="url(#pb14b5f7fca)" d="M 270.92792 225.1112 
L 273.36283 225.1112 
L 273.36283 147.6482 
L 270.92792 147.6482 
z
" style="fill:#1f77b4;"/>
   </g>
   <g id="patch_51">
    <path clip-path="url(#pb14b5f7fca)" d="M 273.36283 225.1112 
L 275.797739 225.1112 
L 275.797739 81.251343 
L 273.36283 81.251343 
z
" style="fill:#1f77b4;"/>
   </g>
   <g id="patch_52">
    <path clip-path="url(#pb14b5f7fca)" d="M 275.797739 225.1112 
L 278.232648 225.1112 
L 278.232648 103.383629 
L 275.797739 103.383629 
z
" style="fill:#1f77b4;"/>
   </g>
   <g id="patch_53">
    <path clip-path="url(#pb14b5f7fca)" d="M 278.232648 225.1112 
L 280.667557 225.1112 
L 280.667557 147.6482 
L 278.232648 147.6482 
z
" style="fill:#1f77b4;"/>
   </g>
   <g id="patch_54">
    <path clip-path="url(#pb14b5f7fca)" d="M 280.667557 225.1112 
L 283.102466 225.1112 
L 283.102466 81.251343 
L 280.667557 81.251343 
z
" style="fill:#1f77b4;"/>
   </g>
   <g id="patch_55">
    <path clip-path="url(#pb14b5f7fca)" d="M 283.102466 225.1112 
L 285.537375 225.1112 
L 285.537375 158.714343 
L 283.102466 158.714343 
z
" style="fill:#1f77b4;"/>
   </g>
   <g id="patch_56">
    <path clip-path="url(#pb14b5f7fca)" d="M 285.537375 225.1112 
L 287.972284 225.1112 
L 287.972284 158.714343 
L 285.537375 158.714343 
z
" style="fill:#1f77b4;"/>
   </g>
   <g id="patch_57">
    <path clip-path="url(#pb14b5f7fca)" d="M 287.972284 225.1112 
L 290.407193 225.1112 
L 290.407193 158.714343 
L 287.972284 158.714343 
z
" style="fill:#1f77b4;"/>
   </g>
   <g id="patch_58">
    <path clip-path="url(#pb14b5f7fca)" d="M 290.407193 225.1112 
L 292.842102 225.1112 
L 292.842102 103.383629 
L 290.407193 103.383629 
z
" style="fill:#1f77b4;"/>
   </g>
   <g id="patch_59">
    <path clip-path="url(#pb14b5f7fca)" d="M 292.842102 225.1112 
L 295.277011 225.1112 
L 295.277011 125.515914 
L 292.842102 125.515914 
z
" style="fill:#1f77b4;"/>
   </g>
   <g id="patch_60">
    <path clip-path="url(#pb14b5f7fca)" d="M 295.277011 225.1112 
L 297.71192 225.1112 
L 297.71192 169.780486 
L 295.277011 169.780486 
z
" style="fill:#1f77b4;"/>
   </g>
   <g id="patch_61">
    <path clip-path="url(#pb14b5f7fca)" d="M 297.71192 225.1112 
L 300.14683 225.1112 
L 300.14683 92.317486 
L 297.71192 92.317486 
z
" style="fill:#1f77b4;"/>
   </g>
   <g id="patch_62">
    <path clip-path="url(#pb14b5f7fca)" d="M 300.14683 225.1112 
L 302.581739 225.1112 
L 302.581739 136.582057 
L 300.14683 136.582057 
z
" style="fill:#1f77b4;"/>
   </g>
   <g id="patch_63">
    <path clip-path="url(#pb14b5f7fca)" d="M 302.581739 225.1112 
L 305.016648 225.1112 
L 305.016648 169.780486 
L 302.581739 169.780486 
z
" style="fill:#1f77b4;"/>
   </g>
   <g id="patch_64">
    <path clip-path="url(#pb14b5f7fca)" d="M 305.016648 225.1112 
L 307.451557 225.1112 
L 307.451557 191.912771 
L 305.016648 191.912771 
z
" style="fill:#1f77b4;"/>
   </g>
   <g id="patch_65">
    <path clip-path="url(#pb14b5f7fca)" d="M 307.451557 225.1112 
L 309.886466 225.1112 
L 309.886466 136.582057 
L 307.451557 136.582057 
z
" style="fill:#1f77b4;"/>
   </g>
   <g id="patch_66">
    <path clip-path="url(#pb14b5f7fca)" d="M 309.886466 225.1112 
L 312.321375 225.1112 
L 312.321375 202.978914 
L 309.886466 202.978914 
z
" style="fill:#1f77b4;"/>
   </g>
   <g id="patch_67">
    <path clip-path="url(#pb14b5f7fca)" d="M 312.321375 225.1112 
L 314.756284 225.1112 
L 314.756284 202.978914 
L 312.321375 202.978914 
z
" style="fill:#1f77b4;"/>
   </g>
   <g id="patch_68">
    <path clip-path="url(#pb14b5f7fca)" d="M 314.756284 225.1112 
L 317.191193 225.1112 
L 317.191193 202.978914 
L 314.756284 202.978914 
z
" style="fill:#1f77b4;"/>
   </g>
   <g id="patch_69">
    <path clip-path="url(#pb14b5f7fca)" d="M 317.191193 225.1112 
L 319.626102 225.1112 
L 319.626102 147.6482 
L 317.191193 147.6482 
z
" style="fill:#1f77b4;"/>
   </g>
   <g id="patch_70">
    <path clip-path="url(#pb14b5f7fca)" d="M 319.626102 225.1112 
L 322.061011 225.1112 
L 322.061011 169.780486 
L 319.626102 169.780486 
z
" style="fill:#1f77b4;"/>
   </g>
   <g id="patch_71">
    <path clip-path="url(#pb14b5f7fca)" d="M 322.061011 225.1112 
L 324.49592 225.1112 
L 324.49592 158.714343 
L 322.061011 158.714343 
z
" style="fill:#1f77b4;"/>
   </g>
   <g id="patch_72">
    <path clip-path="url(#pb14b5f7fca)" d="M 324.49592 225.1112 
L 326.93083 225.1112 
L 326.93083 158.714343 
L 324.49592 158.714343 
z
" style="fill:#1f77b4;"/>
   </g>
   <g id="patch_73">
    <path clip-path="url(#pb14b5f7fca)" d="M 326.93083 225.1112 
L 329.365739 225.1112 
L 329.365739 158.714343 
L 326.93083 158.714343 
z
" style="fill:#1f77b4;"/>
   </g>
   <g id="patch_74">
    <path clip-path="url(#pb14b5f7fca)" d="M 329.365739 225.1112 
L 331.800648 225.1112 
L 331.800648 158.714343 
L 329.365739 158.714343 
z
" style="fill:#1f77b4;"/>
   </g>
   <g id="patch_75">
    <path clip-path="url(#pb14b5f7fca)" d="M 331.800648 225.1112 
L 334.235557 225.1112 
L 334.235557 169.780486 
L 331.800648 169.780486 
z
" style="fill:#1f77b4;"/>
   </g>
   <g id="patch_76">
    <path clip-path="url(#pb14b5f7fca)" d="M 334.235557 225.1112 
L 336.670466 225.1112 
L 336.670466 202.978914 
L 334.235557 202.978914 
z
" style="fill:#1f77b4;"/>
   </g>
   <g id="patch_77">
    <path clip-path="url(#pb14b5f7fca)" d="M 336.670466 225.1112 
L 339.105375 225.1112 
L 339.105375 214.045057 
L 336.670466 214.045057 
z
" style="fill:#1f77b4;"/>
   </g>
   <g id="patch_78">
    <path clip-path="url(#pb14b5f7fca)" d="M 339.105375 225.1112 
L 341.540284 225.1112 
L 341.540284 202.978914 
L 339.105375 202.978914 
z
" style="fill:#1f77b4;"/>
   </g>
   <g id="patch_79">
    <path clip-path="url(#pb14b5f7fca)" d="M 341.540284 225.1112 
L 343.975193 225.1112 
L 343.975193 191.912771 
L 341.540284 191.912771 
z
" style="fill:#1f77b4;"/>
   </g>
   <g id="patch_80">
    <path clip-path="url(#pb14b5f7fca)" d="M 343.975193 225.1112 
L 346.410102 225.1112 
L 346.410102 191.912771 
L 343.975193 191.912771 
z
" style="fill:#1f77b4;"/>
   </g>
   <g id="patch_81">
    <path clip-path="url(#pb14b5f7fca)" d="M 346.410102 225.1112 
L 348.845011 225.1112 
L 348.845011 225.1112 
L 346.410102 225.1112 
z
" style="fill:#1f77b4;"/>
   </g>
   <g id="patch_82">
    <path clip-path="url(#pb14b5f7fca)" d="M 348.845011 225.1112 
L 351.27992 225.1112 
L 351.27992 180.846629 
L 348.845011 180.846629 
z
" style="fill:#1f77b4;"/>
   </g>
   <g id="patch_83">
    <path clip-path="url(#pb14b5f7fca)" d="M 351.27992 225.1112 
L 353.71483 225.1112 
L 353.71483 169.780486 
L 351.27992 169.780486 
z
" style="fill:#1f77b4;"/>
   </g>
   <g id="patch_84">
    <path clip-path="url(#pb14b5f7fca)" d="M 353.71483 225.1112 
L 356.149739 225.1112 
L 356.149739 225.1112 
L 353.71483 225.1112 
z
" style="fill:#1f77b4;"/>
   </g>
   <g id="patch_85">
    <path clip-path="url(#pb14b5f7fca)" d="M 356.149739 225.1112 
L 358.584648 225.1112 
L 358.584648 202.978914 
L 356.149739 202.978914 
z
" style="fill:#1f77b4;"/>
   </g>
   <g id="patch_86">
    <path clip-path="url(#pb14b5f7fca)" d="M 358.584648 225.1112 
L 361.019557 225.1112 
L 361.019557 191.912771 
L 358.584648 191.912771 
z
" style="fill:#1f77b4;"/>
   </g>
   <g id="patch_87">
    <path clip-path="url(#pb14b5f7fca)" d="M 361.019557 225.1112 
L 363.454466 225.1112 
L 363.454466 225.1112 
L 361.019557 225.1112 
z
" style="fill:#1f77b4;"/>
   </g>
   <g id="patch_88">
    <path clip-path="url(#pb14b5f7fca)" d="M 363.454466 225.1112 
L 365.889375 225.1112 
L 365.889375 214.045057 
L 363.454466 214.045057 
z
" style="fill:#1f77b4;"/>
   </g>
   <g id="patch_89">
    <path clip-path="url(#pb14b5f7fca)" d="M 365.889375 225.1112 
L 368.324284 225.1112 
L 368.324284 180.846629 
L 365.889375 180.846629 
z
" style="fill:#1f77b4;"/>
   </g>
   <g id="patch_90">
    <path clip-path="url(#pb14b5f7fca)" d="M 368.324284 225.1112 
L 370.759193 225.1112 
L 370.759193 225.1112 
L 368.324284 225.1112 
z
" style="fill:#1f77b4;"/>
   </g>
   <g id="patch_91">
    <path clip-path="url(#pb14b5f7fca)" d="M 370.759193 225.1112 
L 373.194102 225.1112 
L 373.194102 191.912771 
L 370.759193 191.912771 
z
" style="fill:#1f77b4;"/>
   </g>
   <g id="patch_92">
    <path clip-path="url(#pb14b5f7fca)" d="M 373.194102 225.1112 
L 375.629011 225.1112 
L 375.629011 214.045057 
L 373.194102 214.045057 
z
" style="fill:#1f77b4;"/>
   </g>
   <g id="patch_93">
    <path clip-path="url(#pb14b5f7fca)" d="M 375.629011 225.1112 
L 378.06392 225.1112 
L 378.06392 202.978914 
L 375.629011 202.978914 
z
" style="fill:#1f77b4;"/>
   </g>
   <g id="patch_94">
    <path clip-path="url(#pb14b5f7fca)" d="M 378.06392 225.1112 
L 380.49883 225.1112 
L 380.49883 225.1112 
L 378.06392 225.1112 
z
" style="fill:#1f77b4;"/>
   </g>
   <g id="patch_95">
    <path clip-path="url(#pb14b5f7fca)" d="M 380.49883 225.1112 
L 382.933739 225.1112 
L 382.933739 214.045057 
L 380.49883 214.045057 
z
" style="fill:#1f77b4;"/>
   </g>
   <g id="patch_96">
    <path clip-path="url(#pb14b5f7fca)" d="M 382.933739 225.1112 
L 385.368648 225.1112 
L 385.368648 214.045057 
L 382.933739 214.045057 
z
" style="fill:#1f77b4;"/>
   </g>
   <g id="patch_97">
    <path clip-path="url(#pb14b5f7fca)" d="M 385.368648 225.1112 
L 387.803557 225.1112 
L 387.803557 191.912771 
L 385.368648 191.912771 
z
" style="fill:#1f77b4;"/>
   </g>
   <g id="patch_98">
    <path clip-path="url(#pb14b5f7fca)" d="M 387.803557 225.1112 
L 390.238466 225.1112 
L 390.238466 214.045057 
L 387.803557 214.045057 
z
" style="fill:#1f77b4;"/>
   </g>
   <g id="patch_99">
    <path clip-path="url(#pb14b5f7fca)" d="M 390.238466 225.1112 
L 392.673375 225.1112 
L 392.673375 169.780486 
L 390.238466 169.780486 
z
" style="fill:#1f77b4;"/>
   </g>
   <g id="patch_100">
    <path clip-path="url(#pb14b5f7fca)" d="M 392.673375 225.1112 
L 395.108284 225.1112 
L 395.108284 225.1112 
L 392.673375 225.1112 
z
" style="fill:#1f77b4;"/>
   </g>
   <g id="patch_101">
    <path clip-path="url(#pb14b5f7fca)" d="M 395.108284 225.1112 
L 397.543193 225.1112 
L 397.543193 214.045057 
L 395.108284 214.045057 
z
" style="fill:#1f77b4;"/>
   </g>
   <g id="patch_102">
    <path clip-path="url(#pb14b5f7fca)" d="M 397.543193 225.1112 
L 399.978102 225.1112 
L 399.978102 202.978914 
L 397.543193 202.978914 
z
" style="fill:#1f77b4;"/>
   </g>
   <g id="patch_103">
    <path clip-path="url(#pb14b5f7fca)" d="M 399.978102 225.1112 
L 402.413011 225.1112 
L 402.413011 191.912771 
L 399.978102 191.912771 
z
" style="fill:#1f77b4;"/>
   </g>
   <g id="patch_104">
    <path clip-path="url(#pb14b5f7fca)" d="M 402.413011 225.1112 
L 404.84792 225.1112 
L 404.84792 214.045057 
L 402.413011 214.045057 
z
" style="fill:#1f77b4;"/>
   </g>
   <g id="patch_105">
    <path clip-path="url(#pb14b5f7fca)" d="M 404.84792 225.1112 
L 407.28283 225.1112 
L 407.28283 225.1112 
L 404.84792 225.1112 
z
" style="fill:#1f77b4;"/>
   </g>
   <g id="patch_106">
    <path clip-path="url(#pb14b5f7fca)" d="M 407.28283 225.1112 
L 409.717739 225.1112 
L 409.717739 202.978914 
L 407.28283 202.978914 
z
" style="fill:#1f77b4;"/>
   </g>
   <g id="patch_107">
    <path clip-path="url(#pb14b5f7fca)" d="M 409.717739 225.1112 
L 412.152648 225.1112 
L 412.152648 214.045057 
L 409.717739 214.045057 
z
" style="fill:#1f77b4;"/>
   </g>
   <g id="patch_108">
    <path clip-path="url(#pb14b5f7fca)" d="M 412.152648 225.1112 
L 414.587557 225.1112 
L 414.587557 225.1112 
L 412.152648 225.1112 
z
" style="fill:#1f77b4;"/>
   </g>
   <g id="patch_109">
    <path clip-path="url(#pb14b5f7fca)" d="M 414.587557 225.1112 
L 417.022466 225.1112 
L 417.022466 191.912771 
L 414.587557 191.912771 
z
" style="fill:#1f77b4;"/>
   </g>
   <g id="patch_110">
    <path clip-path="url(#pb14b5f7fca)" d="M 417.022466 225.1112 
L 419.457375 225.1112 
L 419.457375 202.978914 
L 417.022466 202.978914 
z
" style="fill:#1f77b4;"/>
   </g>
   <g id="patch_111">
    <path clip-path="url(#pb14b5f7fca)" d="M 419.457375 225.1112 
L 421.892284 225.1112 
L 421.892284 202.978914 
L 419.457375 202.978914 
z
" style="fill:#1f77b4;"/>
   </g>
   <g id="patch_112">
    <path clip-path="url(#pb14b5f7fca)" d="M 421.892284 225.1112 
L 424.327193 225.1112 
L 424.327193 191.912771 
L 421.892284 191.912771 
z
" style="fill:#1f77b4;"/>
   </g>
   <g id="patch_113">
    <path clip-path="url(#pb14b5f7fca)" d="M 424.327193 225.1112 
L 426.762102 225.1112 
L 426.762102 214.045057 
L 424.327193 214.045057 
z
" style="fill:#1f77b4;"/>
   </g>
   <g id="patch_114">
    <path clip-path="url(#pb14b5f7fca)" d="M 426.762102 225.1112 
L 429.197011 225.1112 
L 429.197011 202.978914 
L 426.762102 202.978914 
z
" style="fill:#1f77b4;"/>
   </g>
   <g id="patch_115">
    <path clip-path="url(#pb14b5f7fca)" d="M 429.197011 225.1112 
L 431.63192 225.1112 
L 431.63192 225.1112 
L 429.197011 225.1112 
z
" style="fill:#1f77b4;"/>
   </g>
   <g id="patch_116">
    <path clip-path="url(#pb14b5f7fca)" d="M 431.63192 225.1112 
L 434.06683 225.1112 
L 434.06683 214.045057 
L 431.63192 214.045057 
z
" style="fill:#1f77b4;"/>
   </g>
   <g id="patch_117">
    <path clip-path="url(#pb14b5f7fca)" d="M 434.06683 225.1112 
L 436.501739 225.1112 
L 436.501739 225.1112 
L 434.06683 225.1112 
z
" style="fill:#1f77b4;"/>
   </g>
   <g id="patch_118">
    <path clip-path="url(#pb14b5f7fca)" d="M 436.501739 225.1112 
L 438.936648 225.1112 
L 438.936648 202.978914 
L 436.501739 202.978914 
z
" style="fill:#1f77b4;"/>
   </g>
   <g id="patch_119">
    <path clip-path="url(#pb14b5f7fca)" d="M 438.936648 225.1112 
L 441.371557 225.1112 
L 441.371557 225.1112 
L 438.936648 225.1112 
z
" style="fill:#1f77b4;"/>
   </g>
   <g id="patch_120">
    <path clip-path="url(#pb14b5f7fca)" d="M 441.371557 225.1112 
L 443.806466 225.1112 
L 443.806466 225.1112 
L 441.371557 225.1112 
z
" style="fill:#1f77b4;"/>
   </g>
   <g id="patch_121">
    <path clip-path="url(#pb14b5f7fca)" d="M 443.806466 225.1112 
L 446.241375 225.1112 
L 446.241375 214.045057 
L 443.806466 214.045057 
z
" style="fill:#1f77b4;"/>
   </g>
   <g id="patch_122">
    <path clip-path="url(#pb14b5f7fca)" d="M 446.241375 225.1112 
L 448.676284 225.1112 
L 448.676284 214.045057 
L 446.241375 214.045057 
z
" style="fill:#1f77b4;"/>
   </g>
   <g id="patch_123">
    <path clip-path="url(#pb14b5f7fca)" d="M 448.676284 225.1112 
L 451.111193 225.1112 
L 451.111193 225.1112 
L 448.676284 225.1112 
z
" style="fill:#1f77b4;"/>
   </g>
   <g id="patch_124">
    <path clip-path="url(#pb14b5f7fca)" d="M 451.111193 225.1112 
L 453.546102 225.1112 
L 453.546102 225.1112 
L 451.111193 225.1112 
z
" style="fill:#1f77b4;"/>
   </g>
   <g id="patch_125">
    <path clip-path="url(#pb14b5f7fca)" d="M 453.546102 225.1112 
L 455.981011 225.1112 
L 455.981011 225.1112 
L 453.546102 225.1112 
z
" style="fill:#1f77b4;"/>
   </g>
   <g id="patch_126">
    <path clip-path="url(#pb14b5f7fca)" d="M 455.981011 225.1112 
L 458.41592 225.1112 
L 458.41592 214.045057 
L 455.981011 214.045057 
z
" style="fill:#1f77b4;"/>
   </g>
   <g id="patch_127">
    <path clip-path="url(#pb14b5f7fca)" d="M 458.41592 225.1112 
L 460.85083 225.1112 
L 460.85083 225.1112 
L 458.41592 225.1112 
z
" style="fill:#1f77b4;"/>
   </g>
   <g id="patch_128">
    <path clip-path="url(#pb14b5f7fca)" d="M 460.85083 225.1112 
L 463.285739 225.1112 
L 463.285739 202.978914 
L 460.85083 202.978914 
z
" style="fill:#1f77b4;"/>
   </g>
   <g id="patch_129">
    <path clip-path="url(#pb14b5f7fca)" d="M 463.285739 225.1112 
L 465.720648 225.1112 
L 465.720648 214.045057 
L 463.285739 214.045057 
z
" style="fill:#1f77b4;"/>
   </g>
   <g id="patch_130">
    <path clip-path="url(#pb14b5f7fca)" d="M 465.720648 225.1112 
L 468.155557 225.1112 
L 468.155557 214.045057 
L 465.720648 214.045057 
z
" style="fill:#1f77b4;"/>
   </g>
   <g id="patch_131">
    <path clip-path="url(#pb14b5f7fca)" d="M 468.155557 225.1112 
L 470.590466 225.1112 
L 470.590466 225.1112 
L 468.155557 225.1112 
z
" style="fill:#1f77b4;"/>
   </g>
   <g id="patch_132">
    <path clip-path="url(#pb14b5f7fca)" d="M 470.590466 225.1112 
L 473.025375 225.1112 
L 473.025375 225.1112 
L 470.590466 225.1112 
z
" style="fill:#1f77b4;"/>
   </g>
   <g id="patch_133">
    <path clip-path="url(#pb14b5f7fca)" d="M 473.025375 225.1112 
L 475.460284 225.1112 
L 475.460284 225.1112 
L 473.025375 225.1112 
z
" style="fill:#1f77b4;"/>
   </g>
   <g id="patch_134">
    <path clip-path="url(#pb14b5f7fca)" d="M 475.460284 225.1112 
L 477.895193 225.1112 
L 477.895193 225.1112 
L 475.460284 225.1112 
z
" style="fill:#1f77b4;"/>
   </g>
   <g id="patch_135">
    <path clip-path="url(#pb14b5f7fca)" d="M 477.895193 225.1112 
L 480.330102 225.1112 
L 480.330102 202.978914 
L 477.895193 202.978914 
z
" style="fill:#1f77b4;"/>
   </g>
   <g id="patch_136">
    <path clip-path="url(#pb14b5f7fca)" d="M 480.330102 225.1112 
L 482.765011 225.1112 
L 482.765011 225.1112 
L 480.330102 225.1112 
z
" style="fill:#1f77b4;"/>
   </g>
   <g id="patch_137">
    <path clip-path="url(#pb14b5f7fca)" d="M 482.765011 225.1112 
L 485.19992 225.1112 
L 485.19992 225.1112 
L 482.765011 225.1112 
z
" style="fill:#1f77b4;"/>
   </g>
   <g id="patch_138">
    <path clip-path="url(#pb14b5f7fca)" d="M 485.19992 225.1112 
L 487.63483 225.1112 
L 487.63483 214.045057 
L 485.19992 214.045057 
z
" style="fill:#1f77b4;"/>
   </g>
   <g id="matplotlib.axis_3">
    <g id="xtick_7">
     <g id="line2d_15">
      <g>
       <use style="stroke:#000000;stroke-width:0.8;" x="243.121626" xlink:href="#mee71b3008a" y="225.1112"/>
      </g>
     </g>
     <g id="text_17">
      <!-- 0 -->
      <g transform="translate(236.759126 247.308075)scale(0.2 -0.2)">
       <use xlink:href="#DejaVuSans-48"/>
      </g>
     </g>
    </g>
    <g id="xtick_8">
     <g id="line2d_16">
      <g>
       <use style="stroke:#000000;stroke-width:0.8;" x="366.289671" xlink:href="#mee71b3008a" y="225.1112"/>
      </g>
     </g>
     <g id="text_18">
      <!-- 50 -->
      <g transform="translate(353.564671 247.308075)scale(0.2 -0.2)">
       <use xlink:href="#DejaVuSans-53"/>
       <use x="63.623047" xlink:href="#DejaVuSans-48"/>
      </g>
     </g>
    </g>
    <g id="xtick_9">
     <g id="line2d_17">
      <g>
       <use style="stroke:#000000;stroke-width:0.8;" x="489.457717" xlink:href="#mee71b3008a" y="225.1112"/>
      </g>
     </g>
     <g id="text_19">
      <!-- 100 -->
      <g transform="translate(470.370217 247.308075)scale(0.2 -0.2)">
       <use xlink:href="#DejaVuSans-49"/>
       <use x="63.623047" xlink:href="#DejaVuSans-48"/>
       <use x="127.246094" xlink:href="#DejaVuSans-48"/>
      </g>
     </g>
    </g>
   </g>
   <g id="matplotlib.axis_4">
    <g id="ytick_9">
     <g id="line2d_18">
      <g>
       <use style="stroke:#000000;stroke-width:0.8;" x="231.969375" xlink:href="#m28d605b547" y="225.1112"/>
      </g>
     </g>
     <g id="text_20">
      <!-- 0 -->
      <g transform="translate(212.244375 232.709638)scale(0.2 -0.2)">
       <use xlink:href="#DejaVuSans-48"/>
      </g>
     </g>
    </g>
    <g id="ytick_10">
     <g id="line2d_19">
      <g>
       <use style="stroke:#000000;stroke-width:0.8;" x="231.969375" xlink:href="#m28d605b547" y="169.780486"/>
      </g>
     </g>
     <g id="text_21">
      <!-- 5 -->
      <g transform="translate(212.244375 177.378923)scale(0.2 -0.2)">
       <use xlink:href="#DejaVuSans-53"/>
      </g>
     </g>
    </g>
    <g id="ytick_11">
     <g id="line2d_20">
      <g>
       <use style="stroke:#000000;stroke-width:0.8;" x="231.969375" xlink:href="#m28d605b547" y="114.449771"/>
      </g>
     </g>
     <g id="text_22">
      <!-- 10 -->
      <g transform="translate(199.519375 122.048209)scale(0.2 -0.2)">
       <use xlink:href="#DejaVuSans-49"/>
       <use x="63.623047" xlink:href="#DejaVuSans-48"/>
      </g>
     </g>
    </g>
    <g id="ytick_12">
     <g id="line2d_21">
      <g>
       <use style="stroke:#000000;stroke-width:0.8;" x="231.969375" xlink:href="#m28d605b547" y="59.119057"/>
      </g>
     </g>
     <g id="text_23">
      <!-- 15 -->
      <g transform="translate(199.519375 66.717495)scale(0.2 -0.2)">
       <use xlink:href="#DejaVuSans-49"/>
       <use x="63.623047" xlink:href="#DejaVuSans-53"/>
      </g>
     </g>
    </g>
   </g>
   <g id="patch_139">
    <path d="M 231.969375 225.1112 
L 231.969375 39.2 
" style="fill:none;stroke:#000000;stroke-linecap:square;stroke-linejoin:miter;stroke-width:0.8;"/>
   </g>
   <g id="patch_140">
    <path d="M 499.809375 225.1112 
L 499.809375 39.2 
" style="fill:none;stroke:#000000;stroke-linecap:square;stroke-linejoin:miter;stroke-width:0.8;"/>
   </g>
   <g id="patch_141">
    <path d="M 231.969375 225.1112 
L 499.809375 225.1112 
" style="fill:none;stroke:#000000;stroke-linecap:square;stroke-linejoin:miter;stroke-width:0.8;"/>
   </g>
   <g id="patch_142">
    <path d="M 231.969375 39.2 
L 499.809375 39.2 
" style="fill:none;stroke:#000000;stroke-linecap:square;stroke-linejoin:miter;stroke-width:0.8;"/>
   </g>
  </g>
 </g>
 <defs>
  <clipPath id="p4ff39111a4">
   <rect height="326.16" width="446.4" x="85.409375" y="7.2"/>
  </clipPath>
  <clipPath id="pb14b5f7fca">
   <rect height="185.9112" width="267.84" x="231.969375" y="39.2"/>
  </clipPath>
 </defs>
</svg>
