<?xml version="1.0" encoding="utf-8" standalone="no"?>
<!DOCTYPE svg PUBLIC "-//W3C//DTD SVG 1.1//EN"
  "http://www.w3.org/Graphics/SVG/1.1/DTD/svg11.dtd">
<!-- Created with matplotlib (https://matplotlib.org/) -->
<svg height="399.950625pt" version="1.1" viewBox="0 0 1009.973148 399.950625" width="1009.973148pt" xmlns="http://www.w3.org/2000/svg" xmlns:xlink="http://www.w3.org/1999/xlink">
 <metadata>
  <rdf:RDF xmlns:cc="http://creativecommons.org/ns#" xmlns:dc="http://purl.org/dc/elements/1.1/" xmlns:rdf="http://www.w3.org/1999/02/22-rdf-syntax-ns#">
   <cc:Work>
    <dc:type rdf:resource="http://purl.org/dc/dcmitype/StillImage"/>
    <dc:date>2022-04-30T10:47:04.079697</dc:date>
    <dc:format>image/svg+xml</dc:format>
    <dc:creator>
     <cc:Agent>
      <dc:title>Matplotlib v3.3.4, https://matplotlib.org/</dc:title>
     </cc:Agent>
    </dc:creator>
   </cc:Work>
  </rdf:RDF>
 </metadata>
 <defs>
  <style type="text/css">*{stroke-linecap:butt;stroke-linejoin:round;}</style>
 </defs>
 <g id="figure_1">
  <g id="patch_1">
   <path d="M 0 399.950625 
L 1009.973148 399.950625 
L 1009.973148 0 
L 0 0 
z
" style="fill:none;"/>
  </g>
  <g id="axes_1">
   <g id="patch_2">
    <path d="M 72.41875 333.36 
L 965.21875 333.36 
L 965.21875 7.2 
L 72.41875 7.2 
z
" style="fill:#ffffff;"/>
   </g>
   <g id="patch_3">
    <path d="M 472.800546 327.255401 
L 500.477467 327.255401 
L 500.477467 13.304599 
L 472.800546 13.304599 
z
" style="fill:none;stroke:#008000;stroke-dasharray:11.1,4.8;stroke-dashoffset:0;stroke-linejoin:miter;stroke-width:3;"/>
   </g>
   <g id="matplotlib.axis_1">
    <g id="xtick_1">
     <g id="line2d_1">
      <defs>
       <path d="M 0 0 
L 0 3.5 
" id="m6a67843631" style="stroke:#000000;stroke-width:0.8;"/>
      </defs>
      <g>
       <use style="stroke:#000000;stroke-width:0.8;" x="113.000568" xlink:href="#m6a67843631" y="333.36"/>
      </g>
     </g>
     <g id="text_1">
      <!-- 0 -->
      <g transform="translate(106.638068 355.556875)scale(0.2 -0.2)">
       <defs>
        <path d="M 31.78125 66.40625 
Q 24.171875 66.40625 20.328125 58.90625 
Q 16.5 51.421875 16.5 36.375 
Q 16.5 21.390625 20.328125 13.890625 
Q 24.171875 6.390625 31.78125 6.390625 
Q 39.453125 6.390625 43.28125 13.890625 
Q 47.125 21.390625 47.125 36.375 
Q 47.125 51.421875 43.28125 58.90625 
Q 39.453125 66.40625 31.78125 66.40625 
z
M 31.78125 74.21875 
Q 44.046875 74.21875 50.515625 64.515625 
Q 56.984375 54.828125 56.984375 36.375 
Q 56.984375 17.96875 50.515625 8.265625 
Q 44.046875 -1.421875 31.78125 -1.421875 
Q 19.53125 -1.421875 13.0625 8.265625 
Q 6.59375 17.96875 6.59375 36.375 
Q 6.59375 54.828125 13.0625 64.515625 
Q 19.53125 74.21875 31.78125 74.21875 
z
" id="DejaVuSans-48"/>
       </defs>
       <use xlink:href="#DejaVuSans-48"/>
      </g>
     </g>
    </g>
    <g id="xtick_2">
     <g id="line2d_2">
      <g>
       <use style="stroke:#000000;stroke-width:0.8;" x="219.450266" xlink:href="#m6a67843631" y="333.36"/>
      </g>
     </g>
     <g id="text_2">
      <!-- 40000 -->
      <g transform="translate(187.637766 355.556875)scale(0.2 -0.2)">
       <defs>
        <path d="M 37.796875 64.3125 
L 12.890625 25.390625 
L 37.796875 25.390625 
z
M 35.203125 72.90625 
L 47.609375 72.90625 
L 47.609375 25.390625 
L 58.015625 25.390625 
L 58.015625 17.1875 
L 47.609375 17.1875 
L 47.609375 0 
L 37.796875 0 
L 37.796875 17.1875 
L 4.890625 17.1875 
L 4.890625 26.703125 
z
" id="DejaVuSans-52"/>
       </defs>
       <use xlink:href="#DejaVuSans-52"/>
       <use x="63.623047" xlink:href="#DejaVuSans-48"/>
       <use x="127.246094" xlink:href="#DejaVuSans-48"/>
       <use x="190.869141" xlink:href="#DejaVuSans-48"/>
       <use x="254.492188" xlink:href="#DejaVuSans-48"/>
      </g>
     </g>
    </g>
    <g id="xtick_3">
     <g id="line2d_3">
      <g>
       <use style="stroke:#000000;stroke-width:0.8;" x="325.899963" xlink:href="#m6a67843631" y="333.36"/>
      </g>
     </g>
     <g id="text_3">
      <!-- 50000 -->
      <g transform="translate(294.087463 355.556875)scale(0.2 -0.2)">
       <defs>
        <path d="M 10.796875 72.90625 
L 49.515625 72.90625 
L 49.515625 64.59375 
L 19.828125 64.59375 
L 19.828125 46.734375 
Q 21.96875 47.46875 24.109375 47.828125 
Q 26.265625 48.1875 28.421875 48.1875 
Q 40.625 48.1875 47.75 41.5 
Q 54.890625 34.8125 54.890625 23.390625 
Q 54.890625 11.625 47.5625 5.09375 
Q 40.234375 -1.421875 26.90625 -1.421875 
Q 22.3125 -1.421875 17.546875 -0.640625 
Q 12.796875 0.140625 7.71875 1.703125 
L 7.71875 11.625 
Q 12.109375 9.234375 16.796875 8.0625 
Q 21.484375 6.890625 26.703125 6.890625 
Q 35.15625 6.890625 40.078125 11.328125 
Q 45.015625 15.765625 45.015625 23.390625 
Q 45.015625 31 40.078125 35.4375 
Q 35.15625 39.890625 26.703125 39.890625 
Q 22.75 39.890625 18.8125 39.015625 
Q 14.890625 38.140625 10.796875 36.28125 
z
" id="DejaVuSans-53"/>
       </defs>
       <use xlink:href="#DejaVuSans-53"/>
       <use x="63.623047" xlink:href="#DejaVuSans-48"/>
       <use x="127.246094" xlink:href="#DejaVuSans-48"/>
       <use x="190.869141" xlink:href="#DejaVuSans-48"/>
       <use x="254.492188" xlink:href="#DejaVuSans-48"/>
      </g>
     </g>
    </g>
    <g id="xtick_4">
     <g id="line2d_4">
      <g>
       <use style="stroke:#000000;stroke-width:0.8;" x="432.349661" xlink:href="#m6a67843631" y="333.36"/>
      </g>
     </g>
     <g id="text_4">
      <!-- 60000 -->
      <g transform="translate(400.537161 355.556875)scale(0.2 -0.2)">
       <defs>
        <path d="M 33.015625 40.375 
Q 26.375 40.375 22.484375 35.828125 
Q 18.609375 31.296875 18.609375 23.390625 
Q 18.609375 15.53125 22.484375 10.953125 
Q 26.375 6.390625 33.015625 6.390625 
Q 39.65625 6.390625 43.53125 10.953125 
Q 47.40625 15.53125 47.40625 23.390625 
Q 47.40625 31.296875 43.53125 35.828125 
Q 39.65625 40.375 33.015625 40.375 
z
M 52.59375 71.296875 
L 52.59375 62.3125 
Q 48.875 64.0625 45.09375 64.984375 
Q 41.3125 65.921875 37.59375 65.921875 
Q 27.828125 65.921875 22.671875 59.328125 
Q 17.53125 52.734375 16.796875 39.40625 
Q 19.671875 43.65625 24.015625 45.921875 
Q 28.375 48.1875 33.59375 48.1875 
Q 44.578125 48.1875 50.953125 41.515625 
Q 57.328125 34.859375 57.328125 23.390625 
Q 57.328125 12.15625 50.6875 5.359375 
Q 44.046875 -1.421875 33.015625 -1.421875 
Q 20.359375 -1.421875 13.671875 8.265625 
Q 6.984375 17.96875 6.984375 36.375 
Q 6.984375 53.65625 15.1875 63.9375 
Q 23.390625 74.21875 37.203125 74.21875 
Q 40.921875 74.21875 44.703125 73.484375 
Q 48.484375 72.75 52.59375 71.296875 
z
" id="DejaVuSans-54"/>
       </defs>
       <use xlink:href="#DejaVuSans-54"/>
       <use x="63.623047" xlink:href="#DejaVuSans-48"/>
       <use x="127.246094" xlink:href="#DejaVuSans-48"/>
       <use x="190.869141" xlink:href="#DejaVuSans-48"/>
       <use x="254.492188" xlink:href="#DejaVuSans-48"/>
      </g>
     </g>
    </g>
    <g id="xtick_5">
     <g id="line2d_5">
      <g>
       <use style="stroke:#000000;stroke-width:0.8;" x="538.799358" xlink:href="#m6a67843631" y="333.36"/>
      </g>
     </g>
     <g id="text_5">
      <!-- 70000 -->
      <g transform="translate(506.986858 355.556875)scale(0.2 -0.2)">
       <defs>
        <path d="M 8.203125 72.90625 
L 55.078125 72.90625 
L 55.078125 68.703125 
L 28.609375 0 
L 18.3125 0 
L 43.21875 64.59375 
L 8.203125 64.59375 
z
" id="DejaVuSans-55"/>
       </defs>
       <use xlink:href="#DejaVuSans-55"/>
       <use x="63.623047" xlink:href="#DejaVuSans-48"/>
       <use x="127.246094" xlink:href="#DejaVuSans-48"/>
       <use x="190.869141" xlink:href="#DejaVuSans-48"/>
       <use x="254.492188" xlink:href="#DejaVuSans-48"/>
      </g>
     </g>
    </g>
    <g id="xtick_6">
     <g id="line2d_6">
      <g>
       <use style="stroke:#000000;stroke-width:0.8;" x="645.249056" xlink:href="#m6a67843631" y="333.36"/>
      </g>
     </g>
     <g id="text_6">
      <!-- 80000 -->
      <g transform="translate(613.436556 355.556875)scale(0.2 -0.2)">
       <defs>
        <path d="M 31.78125 34.625 
Q 24.75 34.625 20.71875 30.859375 
Q 16.703125 27.09375 16.703125 20.515625 
Q 16.703125 13.921875 20.71875 10.15625 
Q 24.75 6.390625 31.78125 6.390625 
Q 38.8125 6.390625 42.859375 10.171875 
Q 46.921875 13.96875 46.921875 20.515625 
Q 46.921875 27.09375 42.890625 30.859375 
Q 38.875 34.625 31.78125 34.625 
z
M 21.921875 38.8125 
Q 15.578125 40.375 12.03125 44.71875 
Q 8.5 49.078125 8.5 55.328125 
Q 8.5 64.0625 14.71875 69.140625 
Q 20.953125 74.21875 31.78125 74.21875 
Q 42.671875 74.21875 48.875 69.140625 
Q 55.078125 64.0625 55.078125 55.328125 
Q 55.078125 49.078125 51.53125 44.71875 
Q 48 40.375 41.703125 38.8125 
Q 48.828125 37.15625 52.796875 32.3125 
Q 56.78125 27.484375 56.78125 20.515625 
Q 56.78125 9.90625 50.3125 4.234375 
Q 43.84375 -1.421875 31.78125 -1.421875 
Q 19.734375 -1.421875 13.25 4.234375 
Q 6.78125 9.90625 6.78125 20.515625 
Q 6.78125 27.484375 10.78125 32.3125 
Q 14.796875 37.15625 21.921875 38.8125 
z
M 18.3125 54.390625 
Q 18.3125 48.734375 21.84375 45.5625 
Q 25.390625 42.390625 31.78125 42.390625 
Q 38.140625 42.390625 41.71875 45.5625 
Q 45.3125 48.734375 45.3125 54.390625 
Q 45.3125 60.0625 41.71875 63.234375 
Q 38.140625 66.40625 31.78125 66.40625 
Q 25.390625 66.40625 21.84375 63.234375 
Q 18.3125 60.0625 18.3125 54.390625 
z
" id="DejaVuSans-56"/>
       </defs>
       <use xlink:href="#DejaVuSans-56"/>
       <use x="63.623047" xlink:href="#DejaVuSans-48"/>
       <use x="127.246094" xlink:href="#DejaVuSans-48"/>
       <use x="190.869141" xlink:href="#DejaVuSans-48"/>
       <use x="254.492188" xlink:href="#DejaVuSans-48"/>
      </g>
     </g>
    </g>
    <g id="xtick_7">
     <g id="line2d_7">
      <g>
       <use style="stroke:#000000;stroke-width:0.8;" x="751.698753" xlink:href="#m6a67843631" y="333.36"/>
      </g>
     </g>
     <g id="text_7">
      <!-- 90000 -->
      <g transform="translate(719.886253 355.556875)scale(0.2 -0.2)">
       <defs>
        <path d="M 10.984375 1.515625 
L 10.984375 10.5 
Q 14.703125 8.734375 18.5 7.8125 
Q 22.3125 6.890625 25.984375 6.890625 
Q 35.75 6.890625 40.890625 13.453125 
Q 46.046875 20.015625 46.78125 33.40625 
Q 43.953125 29.203125 39.59375 26.953125 
Q 35.25 24.703125 29.984375 24.703125 
Q 19.046875 24.703125 12.671875 31.3125 
Q 6.296875 37.9375 6.296875 49.421875 
Q 6.296875 60.640625 12.9375 67.421875 
Q 19.578125 74.21875 30.609375 74.21875 
Q 43.265625 74.21875 49.921875 64.515625 
Q 56.59375 54.828125 56.59375 36.375 
Q 56.59375 19.140625 48.40625 8.859375 
Q 40.234375 -1.421875 26.421875 -1.421875 
Q 22.703125 -1.421875 18.890625 -0.6875 
Q 15.09375 0.046875 10.984375 1.515625 
z
M 30.609375 32.421875 
Q 37.25 32.421875 41.125 36.953125 
Q 45.015625 41.5 45.015625 49.421875 
Q 45.015625 57.28125 41.125 61.84375 
Q 37.25 66.40625 30.609375 66.40625 
Q 23.96875 66.40625 20.09375 61.84375 
Q 16.21875 57.28125 16.21875 49.421875 
Q 16.21875 41.5 20.09375 36.953125 
Q 23.96875 32.421875 30.609375 32.421875 
z
" id="DejaVuSans-57"/>
       </defs>
       <use xlink:href="#DejaVuSans-57"/>
       <use x="63.623047" xlink:href="#DejaVuSans-48"/>
       <use x="127.246094" xlink:href="#DejaVuSans-48"/>
       <use x="190.869141" xlink:href="#DejaVuSans-48"/>
       <use x="254.492188" xlink:href="#DejaVuSans-48"/>
      </g>
     </g>
    </g>
    <g id="xtick_8">
     <g id="line2d_8">
      <g>
       <use style="stroke:#000000;stroke-width:0.8;" x="858.148451" xlink:href="#m6a67843631" y="333.36"/>
      </g>
     </g>
     <g id="text_8">
      <!-- 100000 -->
      <g transform="translate(819.973451 355.556875)scale(0.2 -0.2)">
       <defs>
        <path d="M 12.40625 8.296875 
L 28.515625 8.296875 
L 28.515625 63.921875 
L 10.984375 60.40625 
L 10.984375 69.390625 
L 28.421875 72.90625 
L 38.28125 72.90625 
L 38.28125 8.296875 
L 54.390625 8.296875 
L 54.390625 0 
L 12.40625 0 
z
" id="DejaVuSans-49"/>
       </defs>
       <use xlink:href="#DejaVuSans-49"/>
       <use x="63.623047" xlink:href="#DejaVuSans-48"/>
       <use x="127.246094" xlink:href="#DejaVuSans-48"/>
       <use x="190.869141" xlink:href="#DejaVuSans-48"/>
       <use x="254.492188" xlink:href="#DejaVuSans-48"/>
       <use x="318.115234" xlink:href="#DejaVuSans-48"/>
      </g>
     </g>
    </g>
    <g id="xtick_9">
     <g id="line2d_9">
      <g>
       <use style="stroke:#000000;stroke-width:0.8;" x="964.598148" xlink:href="#m6a67843631" y="333.36"/>
      </g>
     </g>
     <g id="text_9">
      <!-- 110000 -->
      <g transform="translate(926.423148 355.556875)scale(0.2 -0.2)">
       <use xlink:href="#DejaVuSans-49"/>
       <use x="63.623047" xlink:href="#DejaVuSans-49"/>
       <use x="127.246094" xlink:href="#DejaVuSans-48"/>
       <use x="190.869141" xlink:href="#DejaVuSans-48"/>
       <use x="254.492188" xlink:href="#DejaVuSans-48"/>
       <use x="318.115234" xlink:href="#DejaVuSans-48"/>
      </g>
     </g>
    </g>
    <g id="text_10">
     <!-- Beats (n.u.) -->
     <g transform="translate(431.392188 386.511563)scale(0.3 -0.3)">
      <defs>
       <path d="M 19.671875 34.8125 
L 19.671875 8.109375 
L 35.5 8.109375 
Q 43.453125 8.109375 47.28125 11.40625 
Q 51.125 14.703125 51.125 21.484375 
Q 51.125 28.328125 47.28125 31.5625 
Q 43.453125 34.8125 35.5 34.8125 
z
M 19.671875 64.796875 
L 19.671875 42.828125 
L 34.28125 42.828125 
Q 41.5 42.828125 45.03125 45.53125 
Q 48.578125 48.25 48.578125 53.8125 
Q 48.578125 59.328125 45.03125 62.0625 
Q 41.5 64.796875 34.28125 64.796875 
z
M 9.8125 72.90625 
L 35.015625 72.90625 
Q 46.296875 72.90625 52.390625 68.21875 
Q 58.5 63.53125 58.5 54.890625 
Q 58.5 48.1875 55.375 44.234375 
Q 52.25 40.28125 46.1875 39.3125 
Q 53.46875 37.75 57.5 32.78125 
Q 61.53125 27.828125 61.53125 20.40625 
Q 61.53125 10.640625 54.890625 5.3125 
Q 48.25 0 35.984375 0 
L 9.8125 0 
z
" id="DejaVuSans-66"/>
       <path d="M 56.203125 29.59375 
L 56.203125 25.203125 
L 14.890625 25.203125 
Q 15.484375 15.921875 20.484375 11.0625 
Q 25.484375 6.203125 34.421875 6.203125 
Q 39.59375 6.203125 44.453125 7.46875 
Q 49.3125 8.734375 54.109375 11.28125 
L 54.109375 2.78125 
Q 49.265625 0.734375 44.1875 -0.34375 
Q 39.109375 -1.421875 33.890625 -1.421875 
Q 20.796875 -1.421875 13.15625 6.1875 
Q 5.515625 13.8125 5.515625 26.8125 
Q 5.515625 40.234375 12.765625 48.109375 
Q 20.015625 56 32.328125 56 
Q 43.359375 56 49.78125 48.890625 
Q 56.203125 41.796875 56.203125 29.59375 
z
M 47.21875 32.234375 
Q 47.125 39.59375 43.09375 43.984375 
Q 39.0625 48.390625 32.421875 48.390625 
Q 24.90625 48.390625 20.390625 44.140625 
Q 15.875 39.890625 15.1875 32.171875 
z
" id="DejaVuSans-101"/>
       <path d="M 34.28125 27.484375 
Q 23.390625 27.484375 19.1875 25 
Q 14.984375 22.515625 14.984375 16.5 
Q 14.984375 11.71875 18.140625 8.90625 
Q 21.296875 6.109375 26.703125 6.109375 
Q 34.1875 6.109375 38.703125 11.40625 
Q 43.21875 16.703125 43.21875 25.484375 
L 43.21875 27.484375 
z
M 52.203125 31.203125 
L 52.203125 0 
L 43.21875 0 
L 43.21875 8.296875 
Q 40.140625 3.328125 35.546875 0.953125 
Q 30.953125 -1.421875 24.3125 -1.421875 
Q 15.921875 -1.421875 10.953125 3.296875 
Q 6 8.015625 6 15.921875 
Q 6 25.140625 12.171875 29.828125 
Q 18.359375 34.515625 30.609375 34.515625 
L 43.21875 34.515625 
L 43.21875 35.40625 
Q 43.21875 41.609375 39.140625 45 
Q 35.0625 48.390625 27.6875 48.390625 
Q 23 48.390625 18.546875 47.265625 
Q 14.109375 46.140625 10.015625 43.890625 
L 10.015625 52.203125 
Q 14.9375 54.109375 19.578125 55.046875 
Q 24.21875 56 28.609375 56 
Q 40.484375 56 46.34375 49.84375 
Q 52.203125 43.703125 52.203125 31.203125 
z
" id="DejaVuSans-97"/>
       <path d="M 18.3125 70.21875 
L 18.3125 54.6875 
L 36.8125 54.6875 
L 36.8125 47.703125 
L 18.3125 47.703125 
L 18.3125 18.015625 
Q 18.3125 11.328125 20.140625 9.421875 
Q 21.96875 7.515625 27.59375 7.515625 
L 36.8125 7.515625 
L 36.8125 0 
L 27.59375 0 
Q 17.1875 0 13.234375 3.875 
Q 9.28125 7.765625 9.28125 18.015625 
L 9.28125 47.703125 
L 2.6875 47.703125 
L 2.6875 54.6875 
L 9.28125 54.6875 
L 9.28125 70.21875 
z
" id="DejaVuSans-116"/>
       <path d="M 44.28125 53.078125 
L 44.28125 44.578125 
Q 40.484375 46.53125 36.375 47.5 
Q 32.28125 48.484375 27.875 48.484375 
Q 21.1875 48.484375 17.84375 46.4375 
Q 14.5 44.390625 14.5 40.28125 
Q 14.5 37.15625 16.890625 35.375 
Q 19.28125 33.59375 26.515625 31.984375 
L 29.59375 31.296875 
Q 39.15625 29.25 43.1875 25.515625 
Q 47.21875 21.78125 47.21875 15.09375 
Q 47.21875 7.46875 41.1875 3.015625 
Q 35.15625 -1.421875 24.609375 -1.421875 
Q 20.21875 -1.421875 15.453125 -0.5625 
Q 10.6875 0.296875 5.421875 2 
L 5.421875 11.28125 
Q 10.40625 8.6875 15.234375 7.390625 
Q 20.0625 6.109375 24.8125 6.109375 
Q 31.15625 6.109375 34.5625 8.28125 
Q 37.984375 10.453125 37.984375 14.40625 
Q 37.984375 18.0625 35.515625 20.015625 
Q 33.0625 21.96875 24.703125 23.78125 
L 21.578125 24.515625 
Q 13.234375 26.265625 9.515625 29.90625 
Q 5.8125 33.546875 5.8125 39.890625 
Q 5.8125 47.609375 11.28125 51.796875 
Q 16.75 56 26.8125 56 
Q 31.78125 56 36.171875 55.265625 
Q 40.578125 54.546875 44.28125 53.078125 
z
" id="DejaVuSans-115"/>
       <path id="DejaVuSans-32"/>
       <path d="M 31 75.875 
Q 24.46875 64.65625 21.28125 53.65625 
Q 18.109375 42.671875 18.109375 31.390625 
Q 18.109375 20.125 21.3125 9.0625 
Q 24.515625 -2 31 -13.1875 
L 23.1875 -13.1875 
Q 15.875 -1.703125 12.234375 9.375 
Q 8.59375 20.453125 8.59375 31.390625 
Q 8.59375 42.28125 12.203125 53.3125 
Q 15.828125 64.359375 23.1875 75.875 
z
" id="DejaVuSans-40"/>
       <path d="M 54.890625 33.015625 
L 54.890625 0 
L 45.90625 0 
L 45.90625 32.71875 
Q 45.90625 40.484375 42.875 44.328125 
Q 39.84375 48.1875 33.796875 48.1875 
Q 26.515625 48.1875 22.3125 43.546875 
Q 18.109375 38.921875 18.109375 30.90625 
L 18.109375 0 
L 9.078125 0 
L 9.078125 54.6875 
L 18.109375 54.6875 
L 18.109375 46.1875 
Q 21.34375 51.125 25.703125 53.5625 
Q 30.078125 56 35.796875 56 
Q 45.21875 56 50.046875 50.171875 
Q 54.890625 44.34375 54.890625 33.015625 
z
" id="DejaVuSans-110"/>
       <path d="M 10.6875 12.40625 
L 21 12.40625 
L 21 0 
L 10.6875 0 
z
" id="DejaVuSans-46"/>
       <path d="M 8.5 21.578125 
L 8.5 54.6875 
L 17.484375 54.6875 
L 17.484375 21.921875 
Q 17.484375 14.15625 20.5 10.265625 
Q 23.53125 6.390625 29.59375 6.390625 
Q 36.859375 6.390625 41.078125 11.03125 
Q 45.3125 15.671875 45.3125 23.6875 
L 45.3125 54.6875 
L 54.296875 54.6875 
L 54.296875 0 
L 45.3125 0 
L 45.3125 8.40625 
Q 42.046875 3.421875 37.71875 1 
Q 33.40625 -1.421875 27.6875 -1.421875 
Q 18.265625 -1.421875 13.375 4.4375 
Q 8.5 10.296875 8.5 21.578125 
z
M 31.109375 56 
z
" id="DejaVuSans-117"/>
       <path d="M 8.015625 75.875 
L 15.828125 75.875 
Q 23.140625 64.359375 26.78125 53.3125 
Q 30.421875 42.28125 30.421875 31.390625 
Q 30.421875 20.453125 26.78125 9.375 
Q 23.140625 -1.703125 15.828125 -13.1875 
L 8.015625 -13.1875 
Q 14.5 -2 17.703125 9.0625 
Q 20.90625 20.125 20.90625 31.390625 
Q 20.90625 42.671875 17.703125 53.65625 
Q 14.5 64.65625 8.015625 75.875 
z
" id="DejaVuSans-41"/>
      </defs>
      <use xlink:href="#DejaVuSans-66"/>
      <use x="68.603516" xlink:href="#DejaVuSans-101"/>
      <use x="130.126953" xlink:href="#DejaVuSans-97"/>
      <use x="191.40625" xlink:href="#DejaVuSans-116"/>
      <use x="230.615234" xlink:href="#DejaVuSans-115"/>
      <use x="282.714844" xlink:href="#DejaVuSans-32"/>
      <use x="314.501953" xlink:href="#DejaVuSans-40"/>
      <use x="353.515625" xlink:href="#DejaVuSans-110"/>
      <use x="416.894531" xlink:href="#DejaVuSans-46"/>
      <use x="448.681641" xlink:href="#DejaVuSans-117"/>
      <use x="512.060547" xlink:href="#DejaVuSans-46"/>
      <use x="543.847656" xlink:href="#DejaVuSans-41"/>
     </g>
    </g>
   </g>
   <g id="matplotlib.axis_2">
    <g id="ytick_1">
     <g id="line2d_10">
      <defs>
       <path d="M 0 0 
L -3.5 0 
" id="m29e517040a" style="stroke:#000000;stroke-width:0.8;"/>
      </defs>
      <g>
       <use style="stroke:#000000;stroke-width:0.8;" x="72.41875" xlink:href="#m29e517040a" y="318.534545"/>
      </g>
     </g>
     <g id="text_11">
      <!-- N -->
      <g transform="translate(50.45625 326.132983)scale(0.2 -0.2)">
       <defs>
        <path d="M 9.8125 72.90625 
L 23.09375 72.90625 
L 55.421875 11.921875 
L 55.421875 72.90625 
L 64.984375 72.90625 
L 64.984375 0 
L 51.703125 0 
L 19.390625 60.984375 
L 19.390625 0 
L 9.8125 0 
z
" id="DejaVuSans-78"/>
       </defs>
       <use xlink:href="#DejaVuSans-78"/>
      </g>
     </g>
    </g>
    <g id="ytick_2">
     <g id="line2d_11">
      <g>
       <use style="stroke:#000000;stroke-width:0.8;" x="72.41875" xlink:href="#m29e517040a" y="27.839358"/>
      </g>
     </g>
     <g id="text_12">
      <!-- AF -->
      <g transform="translate(40.234375 35.437796)scale(0.2 -0.2)">
       <defs>
        <path d="M 34.1875 63.1875 
L 20.796875 26.90625 
L 47.609375 26.90625 
z
M 28.609375 72.90625 
L 39.796875 72.90625 
L 67.578125 0 
L 57.328125 0 
L 50.6875 18.703125 
L 17.828125 18.703125 
L 11.1875 0 
L 0.78125 0 
z
" id="DejaVuSans-65"/>
        <path d="M 9.8125 72.90625 
L 51.703125 72.90625 
L 51.703125 64.59375 
L 19.671875 64.59375 
L 19.671875 43.109375 
L 48.578125 43.109375 
L 48.578125 34.8125 
L 19.671875 34.8125 
L 19.671875 0 
L 9.8125 0 
z
" id="DejaVuSans-70"/>
       </defs>
       <use xlink:href="#DejaVuSans-65"/>
       <use x="68.408203" xlink:href="#DejaVuSans-70"/>
      </g>
     </g>
    </g>
    <g id="text_13">
     <!-- Class (n.u.) -->
     <g transform="translate(29.995312 254.760469)rotate(-90)scale(0.3 -0.3)">
      <defs>
       <path d="M 64.40625 67.28125 
L 64.40625 56.890625 
Q 59.421875 61.53125 53.78125 63.8125 
Q 48.140625 66.109375 41.796875 66.109375 
Q 29.296875 66.109375 22.65625 58.46875 
Q 16.015625 50.828125 16.015625 36.375 
Q 16.015625 21.96875 22.65625 14.328125 
Q 29.296875 6.6875 41.796875 6.6875 
Q 48.140625 6.6875 53.78125 8.984375 
Q 59.421875 11.28125 64.40625 15.921875 
L 64.40625 5.609375 
Q 59.234375 2.09375 53.4375 0.328125 
Q 47.65625 -1.421875 41.21875 -1.421875 
Q 24.65625 -1.421875 15.125 8.703125 
Q 5.609375 18.84375 5.609375 36.375 
Q 5.609375 53.953125 15.125 64.078125 
Q 24.65625 74.21875 41.21875 74.21875 
Q 47.75 74.21875 53.53125 72.484375 
Q 59.328125 70.75 64.40625 67.28125 
z
" id="DejaVuSans-67"/>
       <path d="M 9.421875 75.984375 
L 18.40625 75.984375 
L 18.40625 0 
L 9.421875 0 
z
" id="DejaVuSans-108"/>
      </defs>
      <use xlink:href="#DejaVuSans-67"/>
      <use x="69.824219" xlink:href="#DejaVuSans-108"/>
      <use x="97.607422" xlink:href="#DejaVuSans-97"/>
      <use x="158.886719" xlink:href="#DejaVuSans-115"/>
      <use x="210.986328" xlink:href="#DejaVuSans-115"/>
      <use x="263.085938" xlink:href="#DejaVuSans-32"/>
      <use x="294.873047" xlink:href="#DejaVuSans-40"/>
      <use x="333.886719" xlink:href="#DejaVuSans-110"/>
      <use x="397.265625" xlink:href="#DejaVuSans-46"/>
      <use x="429.052734" xlink:href="#DejaVuSans-117"/>
      <use x="492.431641" xlink:href="#DejaVuSans-46"/>
      <use x="524.21875" xlink:href="#DejaVuSans-41"/>
     </g>
    </g>
   </g>
   <g id="line2d_12"/>
   <g id="line2d_13">
    <path clip-path="url(#pb333a2b58a)" d="M 113.000568 318.534545 
L 254.97253 318.534545 
L 255.089624 27.839358 
L 255.962512 27.839358 
L 255.994447 318.534545 
L 256.068962 27.839358 
L 261.061452 27.839358 
L 261.178547 318.534545 
L 264.425263 318.534545 
L 264.542358 27.839358 
L 267.235535 27.839358 
L 267.35263 318.534545 
L 270.088387 318.534545 
L 270.205481 27.839358 
L 270.354511 27.839358 
L 270.386446 318.534545 
L 270.460961 27.839358 
L 271.844807 27.839358 
L 271.876742 318.534545 
L 271.951257 27.839358 
L 272.355765 27.839358 
L 272.3877 318.534545 
L 272.462215 27.839358 
L 273.292523 27.839358 
L 273.324458 318.534545 
L 273.398972 27.839358 
L 274.303795 27.839358 
L 274.420889 318.534545 
L 279.64757 318.534545 
L 279.764664 27.839358 
L 280.871741 27.839358 
L 280.924966 318.534545 
L 280.978191 27.839358 
L 282.851706 27.839358 
L 282.894285 318.534545 
L 282.958155 27.839358 
L 283.277504 27.839358 
L 283.309439 318.534545 
L 283.383954 27.839358 
L 283.447824 27.839358 
L 283.479759 318.534545 
L 283.554274 27.839358 
L 286.69454 27.839358 
L 286.726475 318.534545 
L 286.800989 27.839358 
L 288.014516 27.839358 
L 288.046451 318.534545 
L 288.120966 27.839358 
L 294.678267 27.839358 
L 294.710202 318.534545 
L 294.784717 27.839358 
L 297.403379 27.839358 
L 297.435314 318.534545 
L 297.509829 27.839358 
L 328.327016 27.839358 
L 328.358951 318.534545 
L 328.433466 27.839358 
L 345.209938 27.839358 
L 345.241873 318.534545 
L 345.316388 27.839358 
L 372.88686 27.839358 
L 372.918795 318.534545 
L 372.993309 27.839358 
L 373.919422 27.839358 
L 373.951357 318.534545 
L 374.025871 27.839358 
L 375.175528 27.839358 
L 375.207463 318.534545 
L 375.281978 27.839358 
L 386.93822 27.839358 
L 386.970155 318.534545 
L 387.044669 27.839358 
L 391.749746 27.839358 
L 391.781681 318.534545 
L 391.856196 27.839358 
L 399.637669 27.839358 
L 399.669604 318.534545 
L 399.744118 27.839358 
L 401.340864 27.839358 
L 401.372799 318.534545 
L 401.447314 27.839358 
L 406.354645 27.839358 
L 406.407869 318.534545 
L 406.461094 27.839358 
L 412.188088 27.839358 
L 412.230668 318.534545 
L 412.294538 27.839358 
L 422.15178 27.839358 
L 422.183715 318.534545 
L 422.258229 27.839358 
L 422.864993 27.839358 
L 422.896928 318.534545 
L 422.971442 27.839358 
L 436.746033 27.839358 
L 436.777968 318.534545 
L 436.852483 27.839358 
L 439.343406 27.839358 
L 439.375341 318.534545 
L 439.449856 27.839358 
L 444.463636 27.839358 
L 444.495571 318.534545 
L 444.570086 27.839358 
L 447.071654 27.839358 
L 447.103589 318.534545 
L 447.178104 27.839358 
L 449.690316 27.839358 
L 449.722251 318.534545 
L 449.796766 27.839358 
L 456.290198 27.839358 
L 456.322133 318.534545 
L 456.396647 27.839358 
L 456.865026 27.839358 
L 456.907606 318.534545 
L 456.971476 27.839358 
L 459.611428 27.839358 
L 459.643363 318.534545 
L 459.717878 27.839358 
L 470.330913 27.839358 
L 470.373493 318.534545 
L 470.437362 27.839358 
L 477.218208 27.839358 
L 477.250143 318.534545 
L 477.324658 27.839358 
L 479.357847 27.839358 
L 479.389782 318.534545 
L 479.464297 27.839358 
L 489.04477 27.839358 
L 489.076705 318.534545 
L 489.151219 27.839358 
L 493.962746 27.839358 
L 493.994681 318.534545 
L 494.069195 27.839358 
L 497.74171 27.839358 
L 497.858805 318.534545 
L 924.636932 318.534545 
L 924.636932 318.534545 
" style="fill:none;stroke:#1f77b4;stroke-linecap:square;stroke-width:1.5;"/>
   </g>
   <g id="line2d_14">
    <path clip-path="url(#pb333a2b58a)" d="M 113.000568 312.720642 
L 255.01511 312.720642 
L 255.132204 22.025455 
L 255.685743 22.025455 
L 255.792192 312.720642 
L 255.909287 22.025455 
L 255.951867 22.025455 
L 256.068962 312.720642 
L 256.207346 312.720642 
L 256.324441 22.025455 
L 257.484743 22.025455 
L 257.548612 312.720642 
L 257.591192 22.025455 
L 257.601837 22.025455 
L 257.676352 312.720642 
L 257.708287 22.025455 
L 258.474725 22.025455 
L 258.54924 312.720642 
L 258.581174 22.025455 
L 260.167275 22.025455 
L 260.28437 312.720642 
L 260.444044 312.720642 
L 260.561139 22.025455 
L 260.625009 22.025455 
L 260.678234 312.720642 
L 260.731458 22.025455 
L 261.061452 22.025455 
L 261.178547 312.720642 
L 264.510423 312.720642 
L 264.627517 22.025455 
L 266.373292 22.025455 
L 266.479742 312.720642 
L 266.596837 22.025455 
L 267.235535 22.025455 
L 267.35263 312.720642 
L 270.099032 312.720642 
L 270.216126 22.025455 
L 270.248061 22.025455 
L 270.333221 312.720642 
L 270.354511 22.025455 
L 270.684505 22.025455 
L 270.73773 312.720642 
L 270.790955 22.025455 
L 271.727712 22.025455 
L 271.844807 312.720642 
L 271.961901 22.025455 
L 273.111558 22.025455 
L 273.164783 312.720642 
L 273.218008 22.025455 
L 273.611872 22.025455 
L 273.697032 312.720642 
L 273.718321 22.025455 
L 274.29315 22.025455 
L 274.410245 312.720642 
L 279.743374 312.720642 
L 279.860469 22.025455 
L 280.009499 22.025455 
L 280.084013 312.720642 
L 280.115948 22.025455 
L 281.116575 22.025455 
L 281.180445 312.720642 
L 281.223025 22.025455 
L 284.043942 22.025455 
L 284.129102 312.720642 
L 284.150392 22.025455 
L 284.192972 22.025455 
L 284.310066 312.720642 
L 284.320711 312.720642 
L 284.437806 22.025455 
L 285.896167 22.025455 
L 286.013262 312.720642 
L 286.077131 312.720642 
L 286.194226 22.025455 
L 286.247451 22.025455 
L 286.311321 312.720642 
L 286.353901 22.025455 
L 286.758409 22.025455 
L 286.875504 312.720642 
L 286.992599 312.720642 
L 287.109693 22.025455 
L 287.918711 22.025455 
L 288.035806 312.720642 
L 288.110321 312.720642 
L 288.227415 22.025455 
L 288.28064 22.025455 
L 288.34451 312.720642 
L 288.38709 22.025455 
L 288.972563 22.025455 
L 289.036433 312.720642 
L 289.079013 22.025455 
L 289.589971 22.025455 
L 289.643196 312.720642 
L 289.696421 22.025455 
L 290.047705 22.025455 
L 290.1648 312.720642 
L 290.22867 312.720642 
L 290.345764 22.025455 
L 290.377699 22.025455 
L 290.430924 312.720642 
L 290.484149 22.025455 
L 290.494794 22.025455 
L 290.569309 312.720642 
L 290.601244 22.025455 
L 290.931238 22.025455 
L 291.048332 312.720642 
L 291.069622 312.720642 
L 291.186717 22.025455 
L 291.208007 22.025455 
L 291.314456 312.720642 
L 291.431551 22.025455 
L 291.79348 22.025455 
L 291.910575 312.720642 
L 292.357664 312.720642 
L 292.474758 22.025455 
L 292.591853 22.025455 
L 292.677013 312.720642 
L 292.698303 22.025455 
L 292.847332 22.025455 
L 292.964427 312.720642 
L 293.049587 22.025455 
L 293.070876 312.720642 
L 293.230551 312.720642 
L 293.347646 22.025455 
L 293.496675 22.025455 
L 293.5499 312.720642 
L 293.603125 22.025455 
L 294.167308 22.025455 
L 294.231178 312.720642 
L 294.273758 22.025455 
L 294.507947 22.025455 
L 294.625042 312.720642 
L 294.688912 312.720642 
L 294.806007 22.025455 
L 295.018906 22.025455 
L 295.136001 312.720642 
L 295.32761 312.720642 
L 295.444705 22.025455 
L 295.49793 22.025455 
L 295.615024 312.720642 
L 295.732119 22.025455 
L 296.296302 22.025455 
L 296.360172 312.720642 
L 296.402752 22.025455 
L 297.328864 22.025455 
L 297.382089 312.720642 
L 297.435314 22.025455 
L 298.723355 22.025455 
L 298.84045 312.720642 
L 299.03206 312.720642 
L 299.149154 22.025455 
L 299.319474 22.025455 
L 299.436568 312.720642 
L 299.532373 312.720642 
L 299.649468 22.025455 
L 300.543645 22.025455 
L 300.59687 312.720642 
L 300.650095 22.025455 
L 300.735255 22.025455 
L 300.852349 312.720642 
L 300.969444 22.025455 
L 301.235568 22.025455 
L 301.352663 312.720642 
L 301.448468 312.720642 
L 301.565562 22.025455 
L 301.906201 22.025455 
L 301.959426 312.720642 
L 302.012651 22.025455 
L 302.672639 22.025455 
L 302.747154 312.720642 
L 302.779089 22.025455 
L 303.119728 22.025455 
L 303.236823 312.720642 
L 303.449722 312.720642 
L 303.566817 22.025455 
L 303.683911 22.025455 
L 303.801006 312.720642 
L 303.918101 22.025455 
L 304.02455 22.025455 
L 304.141645 312.720642 
L 304.25874 22.025455 
L 304.269385 22.025455 
L 304.343899 312.720642 
L 304.375834 22.025455 
L 304.397124 22.025455 
L 304.514219 312.720642 
L 304.535509 312.720642 
L 304.652604 22.025455 
L 304.982598 22.025455 
L 305.046467 312.720642 
L 305.089047 22.025455 
L 305.184852 22.025455 
L 305.270012 312.720642 
L 305.291302 22.025455 
L 305.631941 22.025455 
L 305.749035 312.720642 
L 305.876775 312.720642 
L 305.99387 22.025455 
L 306.302574 22.025455 
L 306.366444 312.720642 
L 306.409024 22.025455 
L 306.696438 22.025455 
L 306.792242 312.720642 
L 306.802887 22.025455 
L 307.069012 22.025455 
L 307.143527 312.720642 
L 307.175461 22.025455 
L 308.665757 22.025455 
L 308.782852 312.720642 
L 308.814787 312.720642 
L 308.931881 22.025455 
L 311.02894 22.025455 
L 311.146035 312.720642 
L 311.454739 312.720642 
L 311.571834 22.025455 
L 311.923118 22.025455 
L 312.040213 312.720642 
L 312.285047 312.720642 
L 312.402142 22.025455 
L 312.423431 22.025455 
L 312.540526 312.720642 
L 312.678911 312.720642 
L 312.742781 22.025455 
L 312.78536 312.720642 
L 312.84923 312.720642 
L 312.966325 22.025455 
L 318.20365 22.025455 
L 318.256875 312.720642 
L 318.3101 22.025455 
L 318.714609 22.025455 
L 318.789123 312.720642 
L 318.821058 22.025455 
L 319.672656 22.025455 
L 319.789751 312.720642 
L 319.992005 312.720642 
L 320.1091 22.025455 
L 321.333271 22.025455 
L 321.450366 312.720642 
L 321.503591 312.720642 
L 321.620685 22.025455 
L 321.73778 312.720642 
L 321.897455 312.720642 
L 322.014549 22.025455 
L 322.057129 22.025455 
L 322.174224 312.720642 
L 322.184869 312.720642 
L 322.301963 22.025455 
L 322.323253 22.025455 
L 322.397768 312.720642 
L 322.429703 22.025455 
L 322.472283 22.025455 
L 322.578733 312.720642 
L 322.695827 22.025455 
L 323.685809 22.025455 
L 323.802904 312.720642 
L 324.037093 312.720642 
L 324.154188 22.025455 
L 324.303218 22.025455 
L 324.420312 312.720642 
L 324.430957 312.720642 
L 324.548052 22.025455 
L 324.558697 22.025455 
L 324.611922 312.720642 
L 324.665147 22.025455 
L 325.878673 22.025455 
L 325.995768 312.720642 
L 326.027703 312.720642 
L 326.144798 22.025455 
L 326.826076 22.025455 
L 326.94317 312.720642 
L 327.358324 312.720642 
L 327.475419 22.025455 
L 327.709608 22.025455 
L 327.826703 312.720642 
L 328.401531 312.720642 
L 328.518626 22.025455 
L 328.795395 22.025455 
L 328.91249 312.720642 
L 329.050874 312.720642 
L 329.167969 22.025455 
L 329.285064 22.025455 
L 329.402158 312.720642 
L 329.976987 312.720642 
L 330.094081 22.025455 
L 330.62633 22.025455 
L 330.679555 312.720642 
L 330.732779 22.025455 
L 331.733407 22.025455 
L 331.850501 312.720642 
L 331.882436 312.720642 
L 331.999531 22.025455 
L 332.712744 22.025455 
L 332.776614 312.720642 
L 332.819194 22.025455 
L 333.894335 22.025455 
L 333.979495 312.720642 
L 334.000785 22.025455 
L 334.373359 22.025455 
L 334.490454 312.720642 
L 334.501099 312.720642 
L 334.618193 22.025455 
L 334.873673 22.025455 
L 334.958832 312.720642 
L 334.980122 22.025455 
L 335.065282 22.025455 
L 335.182377 312.720642 
L 335.224957 312.720642 
L 335.342051 22.025455 
L 335.459146 22.025455 
L 335.533661 312.720642 
L 335.565596 22.025455 
L 335.650755 22.025455 
L 335.714625 312.720642 
L 335.757205 22.025455 
L 336.023329 22.025455 
L 336.140424 312.720642 
L 336.214939 312.720642 
L 336.332034 22.025455 
L 336.789767 22.025455 
L 336.885572 312.720642 
L 336.896217 22.025455 
L 337.130406 22.025455 
L 337.247501 312.720642 
L 337.364596 22.025455 
L 338.003294 22.025455 
L 338.099099 312.720642 
L 338.109744 22.025455 
L 339.110371 22.025455 
L 339.163596 312.720642 
L 339.21682 22.025455 
L 339.727779 22.025455 
L 339.844874 312.720642 
L 339.855519 312.720642 
L 339.972613 22.025455 
L 340.057773 22.025455 
L 340.174868 312.720642 
L 340.217448 312.720642 
L 340.334542 22.025455 
L 340.483572 22.025455 
L 340.600666 312.720642 
L 340.611311 312.720642 
L 340.685826 22.025455 
L 340.717761 312.720642 
L 340.749696 312.720642 
L 340.866791 22.025455 
L 340.962595 22.025455 
L 341.047755 312.720642 
L 341.069045 22.025455 
L 341.558714 22.025455 
L 341.633228 312.720642 
L 341.665163 22.025455 
L 342.495471 22.025455 
L 342.601921 312.720642 
L 342.719015 22.025455 
L 343.315134 22.025455 
L 343.432228 312.720642 
L 343.442873 312.720642 
L 343.559968 22.025455 
L 343.570613 22.025455 
L 343.687708 312.720642 
L 343.815447 312.720642 
L 343.911252 22.025455 
L 343.921897 312.720642 
L 344.188021 312.720642 
L 344.305116 22.025455 
L 344.390276 22.025455 
L 344.50737 312.720642 
L 344.624465 22.025455 
L 344.69898 22.025455 
L 344.78414 312.720642 
L 344.805429 22.025455 
L 345.050264 22.025455 
L 345.103489 312.720642 
L 345.156713 22.025455 
L 345.720897 22.025455 
L 345.837992 312.720642 
L 345.901861 312.720642 
L 346.018956 22.025455 
L 346.668299 22.025455 
L 346.732169 312.720642 
L 346.774749 22.025455 
L 347.264417 22.025455 
L 347.317642 312.720642 
L 347.370867 22.025455 
L 348.19053 22.025455 
L 348.27569 312.720642 
L 348.29698 22.025455 
L 350.649518 22.025455 
L 350.702743 312.720642 
L 350.755968 22.025455 
L 350.841127 22.025455 
L 350.915642 312.720642 
L 350.947577 22.025455 
L 351.085962 22.025455 
L 351.203056 312.720642 
L 351.288216 312.720642 
L 351.394666 22.025455 
L 351.51176 312.720642 
L 351.57563 22.025455 
L 351.61821 312.720642 
L 351.68208 312.720642 
L 351.799175 22.025455 
L 351.937559 22.025455 
L 352.044009 312.720642 
L 352.161104 22.025455 
L 352.235618 22.025455 
L 352.320778 312.720642 
L 352.342068 22.025455 
L 352.405938 22.025455 
L 352.459163 312.720642 
L 352.512388 22.025455 
L 354.662671 22.025455 
L 354.737186 312.720642 
L 354.769121 22.025455 
L 354.918151 22.025455 
L 354.992666 312.720642 
L 355.0246 22.025455 
L 355.04589 22.025455 
L 355.162985 312.720642 
L 355.17363 312.720642 
L 355.290725 22.025455 
L 356.003938 22.025455 
L 356.099742 312.720642 
L 356.110387 22.025455 
L 356.301997 22.025455 
L 356.376512 312.720642 
L 356.408447 22.025455 
L 356.493606 22.025455 
L 356.610701 312.720642 
L 356.674571 312.720642 
L 356.791665 22.025455 
L 357.472943 22.025455 
L 357.590038 312.720642 
L 357.664553 312.720642 
L 357.781648 22.025455 
L 358.760985 22.025455 
L 358.878079 312.720642 
L 358.888724 312.720642 
L 359.005819 22.025455 
L 359.112269 22.025455 
L 359.165494 312.720642 
L 359.218719 22.025455 
L 359.452908 22.025455 
L 359.516778 312.720642 
L 359.559358 22.025455 
L 359.719032 22.025455 
L 359.836127 312.720642 
L 360.070316 312.720642 
L 360.187411 22.025455 
L 360.911269 22.025455 
L 361.007073 312.720642 
L 361.017718 22.025455 
L 361.890606 22.025455 
L 362.007701 312.720642 
L 362.124795 22.025455 
L 362.901878 22.025455 
L 363.008328 312.720642 
L 363.125422 22.025455 
L 363.168002 22.025455 
L 363.285097 312.720642 
L 363.295742 312.720642 
L 363.412837 22.025455 
L 363.476706 22.025455 
L 363.561866 312.720642 
L 363.583156 22.025455 
L 364.030245 22.025455 
L 364.115405 312.720642 
L 364.136695 22.025455 
L 364.211209 22.025455 
L 364.328304 312.720642 
L 364.402819 312.720642 
L 364.519913 22.025455 
L 366.712777 22.025455 
L 366.829872 312.720642 
L 366.946967 22.025455 
L 368.043398 22.025455 
L 368.160493 312.720642 
L 368.213718 312.720642 
L 368.330813 22.025455 
L 370.768511 22.025455 
L 370.885605 312.720642 
L 370.928185 312.720642 
L 371.04528 22.025455 
L 371.10915 312.720642 
L 371.15173 22.025455 
L 372.003327 22.025455 
L 372.077842 312.720642 
L 372.109777 22.025455 
L 372.524931 22.025455 
L 372.642025 312.720642 
L 372.69525 312.720642 
L 372.812345 22.025455 
L 373.216854 22.025455 
L 373.323303 312.720642 
L 373.440398 22.025455 
L 373.653298 22.025455 
L 373.706522 312.720642 
L 373.759747 22.025455 
L 373.855552 22.025455 
L 373.951357 312.720642 
L 373.962002 22.025455 
L 376.080351 22.025455 
L 376.16551 312.720642 
L 376.1868 22.025455 
L 376.410345 22.025455 
L 376.527439 312.720642 
L 376.612599 312.720642 
L 376.729694 22.025455 
L 377.198072 22.025455 
L 377.283232 312.720642 
L 377.304522 22.025455 
L 378.273214 22.025455 
L 378.326439 312.720642 
L 378.379664 22.025455 
L 380.168019 22.025455 
L 380.285114 312.720642 
L 380.306404 312.720642 
L 380.423498 22.025455 
L 381.168646 22.025455 
L 381.243161 312.720642 
L 381.275096 22.025455 
L 381.296386 22.025455 
L 381.41348 312.720642 
L 381.424125 312.720642 
L 381.54122 22.025455 
L 382.967646 22.025455 
L 383.084741 312.720642 
L 383.106031 312.720642 
L 383.1699 22.025455 
L 383.21248 312.720642 
L 383.393445 312.720642 
L 383.510539 22.025455 
L 383.797954 22.025455 
L 383.872468 312.720642 
L 383.904403 22.025455 
L 384.777291 22.025455 
L 384.862451 312.720642 
L 384.883741 22.025455 
L 385.07535 22.025455 
L 385.16051 312.720642 
L 385.1818 22.025455 
L 389.493012 22.025455 
L 389.556882 312.720642 
L 389.599462 22.025455 
L 392.643924 22.025455 
L 392.739728 312.720642 
L 392.750373 22.025455 
L 395.74161 22.025455 
L 395.794835 312.720642 
L 395.848059 22.025455 
L 396.422888 22.025455 
L 396.539982 312.720642 
L 396.657077 312.720642 
L 396.774172 22.025455 
L 401.372799 22.025455 
L 401.426024 312.720642 
L 401.479248 22.025455 
L 401.745373 22.025455 
L 401.830532 312.720642 
L 401.851822 22.025455 
L 405.183698 22.025455 
L 405.236923 312.720642 
L 405.290148 22.025455 
L 406.716574 22.025455 
L 406.791088 312.720642 
L 406.823023 22.025455 
L 407.302047 22.025455 
L 407.397852 312.720642 
L 407.408497 22.025455 
L 407.770426 22.025455 
L 407.834295 312.720642 
L 407.876875 22.025455 
L 410.484893 22.025455 
L 410.538118 312.720642 
L 410.591343 22.025455 
L 411.198106 22.025455 
L 411.3152 312.720642 
L 411.42165 312.720642 
L 411.496165 22.025455 
L 411.5281 312.720642 
L 411.623905 312.720642 
L 411.740999 22.025455 
L 413.273875 22.025455 
L 413.34839 312.720642 
L 413.380325 22.025455 
L 416.75478 22.025455 
L 416.808005 312.720642 
L 416.86123 22.025455 
L 416.967679 22.025455 
L 417.042194 312.720642 
L 417.074129 22.025455 
L 419.980206 22.025455 
L 420.086656 312.720642 
L 420.20375 22.025455 
L 421.96017 22.025455 
L 422.013395 312.720642 
L 422.06662 22.025455 
L 423.524981 22.025455 
L 423.599496 312.720642 
L 423.63143 22.025455 
L 424.142389 22.025455 
L 424.195614 312.720642 
L 424.248839 22.025455 
L 424.749152 22.025455 
L 424.866247 312.720642 
L 424.983342 22.025455 
L 425.100436 312.720642 
L 425.355916 312.720642 
L 425.47301 22.025455 
L 425.739134 22.025455 
L 425.792359 312.720642 
L 425.845584 22.025455 
L 425.909454 22.025455 
L 425.983969 312.720642 
L 426.015904 22.025455 
L 427.602004 22.025455 
L 427.719099 312.720642 
L 427.836194 22.025455 
L 433.573832 22.025455 
L 433.680282 312.720642 
L 433.797377 22.025455 
L 434.393495 22.025455 
L 434.499945 312.720642 
L 434.617039 22.025455 
L 437.544406 22.025455 
L 437.640211 312.720642 
L 437.650856 22.025455 
L 439.822429 22.025455 
L 439.918234 312.720642 
L 439.928879 22.025455 
L 440.322743 22.025455 
L 440.386613 312.720642 
L 440.429193 22.025455 
L 441.004021 22.025455 
L 441.099826 312.720642 
L 441.110471 22.025455 
L 447.263263 22.025455 
L 447.327133 312.720642 
L 447.369713 22.025455 
L 448.221311 22.025455 
L 448.274535 312.720642 
L 448.32776 22.025455 
L 452.191884 22.025455 
L 452.308979 312.720642 
L 452.330269 312.720642 
L 452.447364 22.025455 
L 457.695334 22.025455 
L 457.812428 312.720642 
L 457.855008 312.720642 
L 457.972103 22.025455 
L 458.312742 22.025455 
L 458.365967 312.720642 
L 458.419192 22.025455 
L 459.292079 22.025455 
L 459.377239 312.720642 
L 459.398529 22.025455 
L 460.66528 22.025455 
L 460.75044 312.720642 
L 460.77173 22.025455 
L 461.378493 22.025455 
L 461.442363 312.720642 
L 461.484943 22.025455 
L 462.166221 22.025455 
L 462.240736 312.720642 
L 462.272671 22.025455 
L 469.38351 22.025455 
L 469.44738 312.720642 
L 469.48996 22.025455 
L 470.990901 22.025455 
L 471.076061 312.720642 
L 471.097351 22.025455 
L 471.576374 22.025455 
L 471.682824 312.720642 
L 471.799919 22.025455 
L 473.545694 22.025455 
L 473.641498 312.720642 
L 473.652143 22.025455 
L 474.684705 22.025455 
L 474.8018 312.720642 
L 474.88696 312.720642 
L 475.004055 22.025455 
L 477.345948 22.025455 
L 477.409818 312.720642 
L 477.452398 22.025455 
L 477.484332 22.025455 
L 477.537557 312.720642 
L 477.590782 22.025455 
L 479.113013 22.025455 
L 479.176883 312.720642 
L 479.219463 22.025455 
L 479.389782 22.025455 
L 479.443007 312.720642 
L 479.496232 22.025455 
L 480.13493 22.025455 
L 480.188155 312.720642 
L 480.24138 22.025455 
L 481.135557 22.025455 
L 481.252652 312.720642 
L 481.337812 312.720642 
L 481.454906 22.025455 
L 481.774255 22.025455 
L 481.89135 312.720642 
L 482.01909 312.720642 
L 482.136184 22.025455 
L 483.743575 22.025455 
L 483.860669 312.720642 
L 483.913894 22.025455 
L 483.967119 312.720642 
L 483.999054 312.720642 
L 484.116149 22.025455 
L 484.818717 22.025455 
L 484.935811 312.720642 
L 485.052906 22.025455 
L 486.149338 22.025455 
L 486.266433 312.720642 
L 486.426107 312.720642 
L 486.543202 22.025455 
L 488.991545 22.025455 
L 489.087349 312.720642 
L 489.097994 22.025455 
L 489.385409 22.025455 
L 489.502503 312.720642 
L 489.726048 312.720642 
L 489.843142 22.025455 
L 493.696621 22.025455 
L 493.760491 312.720642 
L 493.803071 22.025455 
L 495.069822 22.025455 
L 495.176272 312.720642 
L 495.293367 22.025455 
L 495.729811 22.025455 
L 495.79368 312.720642 
L 495.83626 22.025455 
L 495.889485 22.025455 
L 496.00658 312.720642 
L 496.038515 312.720642 
L 496.155609 22.025455 
L 497.74171 22.025455 
L 497.858805 312.720642 
L 924.636932 312.720642 
L 924.636932 312.720642 
" style="fill:none;stroke:#ff0000;stroke-linecap:square;stroke-opacity:0.5;stroke-width:1.5;"/>
   </g>
   <g id="patch_4">
    <path d="M 72.41875 333.36 
L 72.41875 7.2 
" style="fill:none;stroke:#000000;stroke-linecap:square;stroke-linejoin:miter;stroke-width:0.8;"/>
   </g>
   <g id="patch_5">
    <path d="M 965.21875 333.36 
L 965.21875 7.2 
" style="fill:none;stroke:#000000;stroke-linecap:square;stroke-linejoin:miter;stroke-width:0.8;"/>
   </g>
   <g id="patch_6">
    <path d="M 72.41875 333.36 
L 965.21875 333.36 
" style="fill:none;stroke:#000000;stroke-linecap:square;stroke-linejoin:miter;stroke-width:0.8;"/>
   </g>
   <g id="patch_7">
    <path d="M 72.41875 7.2 
L 965.21875 7.2 
" style="fill:none;stroke:#000000;stroke-linecap:square;stroke-linejoin:miter;stroke-width:0.8;"/>
   </g>
   <g id="patch_8">
    <path d="M 562.544576 145.541039 
L 564.510913 146.797685 
Q 538.061845 158.925163 511.790662 171.41091 
L 513.124492 172.311716 
Q 511.067845 172.662981 508.655427 172.297708 
Q 509.822647 170.155097 511.345638 168.729025 
L 511.257006 170.336102 
Q 537.083476 156.954682 562.73206 143.214993 
L 562.544576 145.541039 
z
" style="fill:#008000;stroke:#008000;stroke-linecap:round;"/>
   </g>
   <g id="legend_1">
    <g id="patch_9">
     <path d="M 83.61875 90.455 
L 229.81375 90.455 
Q 233.01375 90.455 233.01375 87.255 
L 233.01375 18.4 
Q 233.01375 15.2 229.81375 15.2 
L 83.61875 15.2 
Q 80.41875 15.2 80.41875 18.4 
L 80.41875 87.255 
Q 80.41875 90.455 83.61875 90.455 
z
" style="fill:#ffffff;opacity:0.8;stroke:#cccccc;stroke-linejoin:miter;"/>
    </g>
    <g id="line2d_15">
     <path d="M 86.81875 28.1575 
L 118.81875 28.1575 
" style="fill:none;"/>
    </g>
    <g id="line2d_16"/>
    <g id="text_14">
     <!-- LTAFDB - 00 -->
     <g transform="translate(131.61875 33.7575)scale(0.16 -0.16)">
      <defs>
       <path d="M 9.8125 72.90625 
L 19.671875 72.90625 
L 19.671875 8.296875 
L 55.171875 8.296875 
L 55.171875 0 
L 9.8125 0 
z
" id="DejaVuSans-76"/>
       <path d="M -0.296875 72.90625 
L 61.375 72.90625 
L 61.375 64.59375 
L 35.5 64.59375 
L 35.5 0 
L 25.59375 0 
L 25.59375 64.59375 
L -0.296875 64.59375 
z
" id="DejaVuSans-84"/>
       <path d="M 19.671875 64.796875 
L 19.671875 8.109375 
L 31.59375 8.109375 
Q 46.6875 8.109375 53.6875 14.9375 
Q 60.6875 21.78125 60.6875 36.53125 
Q 60.6875 51.171875 53.6875 57.984375 
Q 46.6875 64.796875 31.59375 64.796875 
z
M 9.8125 72.90625 
L 30.078125 72.90625 
Q 51.265625 72.90625 61.171875 64.09375 
Q 71.09375 55.28125 71.09375 36.53125 
Q 71.09375 17.671875 61.125 8.828125 
Q 51.171875 0 30.078125 0 
L 9.8125 0 
z
" id="DejaVuSans-68"/>
       <path d="M 4.890625 31.390625 
L 31.203125 31.390625 
L 31.203125 23.390625 
L 4.890625 23.390625 
z
" id="DejaVuSans-45"/>
      </defs>
      <use xlink:href="#DejaVuSans-76"/>
      <use x="41.962891" xlink:href="#DejaVuSans-84"/>
      <use x="95.296875" xlink:href="#DejaVuSans-65"/>
      <use x="163.705078" xlink:href="#DejaVuSans-70"/>
      <use x="221.224609" xlink:href="#DejaVuSans-68"/>
      <use x="298.226562" xlink:href="#DejaVuSans-66"/>
      <use x="366.830078" xlink:href="#DejaVuSans-32"/>
      <use x="398.617188" xlink:href="#DejaVuSans-45"/>
      <use x="434.701172" xlink:href="#DejaVuSans-32"/>
      <use x="466.488281" xlink:href="#DejaVuSans-48"/>
      <use x="530.111328" xlink:href="#DejaVuSans-48"/>
     </g>
    </g>
    <g id="line2d_17">
     <path d="M 86.81875 51.6425 
L 118.81875 51.6425 
" style="fill:none;stroke:#1f77b4;stroke-linecap:square;stroke-width:1.5;"/>
    </g>
    <g id="line2d_18"/>
    <g id="text_15">
     <!-- Annotation -->
     <g transform="translate(131.61875 57.2425)scale(0.16 -0.16)">
      <defs>
       <path d="M 30.609375 48.390625 
Q 23.390625 48.390625 19.1875 42.75 
Q 14.984375 37.109375 14.984375 27.296875 
Q 14.984375 17.484375 19.15625 11.84375 
Q 23.34375 6.203125 30.609375 6.203125 
Q 37.796875 6.203125 41.984375 11.859375 
Q 46.1875 17.53125 46.1875 27.296875 
Q 46.1875 37.015625 41.984375 42.703125 
Q 37.796875 48.390625 30.609375 48.390625 
z
M 30.609375 56 
Q 42.328125 56 49.015625 48.375 
Q 55.71875 40.765625 55.71875 27.296875 
Q 55.71875 13.875 49.015625 6.21875 
Q 42.328125 -1.421875 30.609375 -1.421875 
Q 18.84375 -1.421875 12.171875 6.21875 
Q 5.515625 13.875 5.515625 27.296875 
Q 5.515625 40.765625 12.171875 48.375 
Q 18.84375 56 30.609375 56 
z
" id="DejaVuSans-111"/>
       <path d="M 9.421875 54.6875 
L 18.40625 54.6875 
L 18.40625 0 
L 9.421875 0 
z
M 9.421875 75.984375 
L 18.40625 75.984375 
L 18.40625 64.59375 
L 9.421875 64.59375 
z
" id="DejaVuSans-105"/>
      </defs>
      <use xlink:href="#DejaVuSans-65"/>
      <use x="68.408203" xlink:href="#DejaVuSans-110"/>
      <use x="131.787109" xlink:href="#DejaVuSans-110"/>
      <use x="195.166016" xlink:href="#DejaVuSans-111"/>
      <use x="256.347656" xlink:href="#DejaVuSans-116"/>
      <use x="295.556641" xlink:href="#DejaVuSans-97"/>
      <use x="356.835938" xlink:href="#DejaVuSans-116"/>
      <use x="396.044922" xlink:href="#DejaVuSans-105"/>
      <use x="423.828125" xlink:href="#DejaVuSans-111"/>
      <use x="485.009766" xlink:href="#DejaVuSans-110"/>
     </g>
    </g>
    <g id="line2d_19">
     <path d="M 86.81875 75.1275 
L 118.81875 75.1275 
" style="fill:none;stroke:#ff0000;stroke-linecap:square;stroke-opacity:0.5;stroke-width:1.5;"/>
    </g>
    <g id="line2d_20"/>
    <g id="text_16">
     <!-- Prediction -->
     <g transform="translate(131.61875 80.7275)scale(0.16 -0.16)">
      <defs>
       <path d="M 19.671875 64.796875 
L 19.671875 37.40625 
L 32.078125 37.40625 
Q 38.96875 37.40625 42.71875 40.96875 
Q 46.484375 44.53125 46.484375 51.125 
Q 46.484375 57.671875 42.71875 61.234375 
Q 38.96875 64.796875 32.078125 64.796875 
z
M 9.8125 72.90625 
L 32.078125 72.90625 
Q 44.34375 72.90625 50.609375 67.359375 
Q 56.890625 61.8125 56.890625 51.125 
Q 56.890625 40.328125 50.609375 34.8125 
Q 44.34375 29.296875 32.078125 29.296875 
L 19.671875 29.296875 
L 19.671875 0 
L 9.8125 0 
z
" id="DejaVuSans-80"/>
       <path d="M 41.109375 46.296875 
Q 39.59375 47.171875 37.8125 47.578125 
Q 36.03125 48 33.890625 48 
Q 26.265625 48 22.1875 43.046875 
Q 18.109375 38.09375 18.109375 28.8125 
L 18.109375 0 
L 9.078125 0 
L 9.078125 54.6875 
L 18.109375 54.6875 
L 18.109375 46.1875 
Q 20.953125 51.171875 25.484375 53.578125 
Q 30.03125 56 36.53125 56 
Q 37.453125 56 38.578125 55.875 
Q 39.703125 55.765625 41.0625 55.515625 
z
" id="DejaVuSans-114"/>
       <path d="M 45.40625 46.390625 
L 45.40625 75.984375 
L 54.390625 75.984375 
L 54.390625 0 
L 45.40625 0 
L 45.40625 8.203125 
Q 42.578125 3.328125 38.25 0.953125 
Q 33.9375 -1.421875 27.875 -1.421875 
Q 17.96875 -1.421875 11.734375 6.484375 
Q 5.515625 14.40625 5.515625 27.296875 
Q 5.515625 40.1875 11.734375 48.09375 
Q 17.96875 56 27.875 56 
Q 33.9375 56 38.25 53.625 
Q 42.578125 51.265625 45.40625 46.390625 
z
M 14.796875 27.296875 
Q 14.796875 17.390625 18.875 11.75 
Q 22.953125 6.109375 30.078125 6.109375 
Q 37.203125 6.109375 41.296875 11.75 
Q 45.40625 17.390625 45.40625 27.296875 
Q 45.40625 37.203125 41.296875 42.84375 
Q 37.203125 48.484375 30.078125 48.484375 
Q 22.953125 48.484375 18.875 42.84375 
Q 14.796875 37.203125 14.796875 27.296875 
z
" id="DejaVuSans-100"/>
       <path d="M 48.78125 52.59375 
L 48.78125 44.1875 
Q 44.96875 46.296875 41.140625 47.34375 
Q 37.3125 48.390625 33.40625 48.390625 
Q 24.65625 48.390625 19.8125 42.84375 
Q 14.984375 37.3125 14.984375 27.296875 
Q 14.984375 17.28125 19.8125 11.734375 
Q 24.65625 6.203125 33.40625 6.203125 
Q 37.3125 6.203125 41.140625 7.25 
Q 44.96875 8.296875 48.78125 10.40625 
L 48.78125 2.09375 
Q 45.015625 0.34375 40.984375 -0.53125 
Q 36.96875 -1.421875 32.421875 -1.421875 
Q 20.0625 -1.421875 12.78125 6.34375 
Q 5.515625 14.109375 5.515625 27.296875 
Q 5.515625 40.671875 12.859375 48.328125 
Q 20.21875 56 33.015625 56 
Q 37.15625 56 41.109375 55.140625 
Q 45.0625 54.296875 48.78125 52.59375 
z
" id="DejaVuSans-99"/>
      </defs>
      <use xlink:href="#DejaVuSans-80"/>
      <use x="58.552734" xlink:href="#DejaVuSans-114"/>
      <use x="97.416016" xlink:href="#DejaVuSans-101"/>
      <use x="158.939453" xlink:href="#DejaVuSans-100"/>
      <use x="222.416016" xlink:href="#DejaVuSans-105"/>
      <use x="250.199219" xlink:href="#DejaVuSans-99"/>
      <use x="305.179688" xlink:href="#DejaVuSans-116"/>
      <use x="344.388672" xlink:href="#DejaVuSans-105"/>
      <use x="372.171875" xlink:href="#DejaVuSans-111"/>
      <use x="433.353516" xlink:href="#DejaVuSans-110"/>
     </g>
    </g>
   </g>
  </g>
  <g id="axes_2">
   <g id="patch_10">
    <path d="M 576.09875 247.9424 
L 933.21875 247.9424 
L 933.21875 39.2 
L 576.09875 39.2 
z
" style="fill:#ffffff;"/>
   </g>
   <g id="matplotlib.axis_3">
    <g id="xtick_10">
     <g id="line2d_21">
      <g>
       <use style="stroke:#000000;stroke-width:0.8;" x="592.331477" xlink:href="#m6a67843631" y="247.9424"/>
      </g>
     </g>
     <g id="text_17">
      <!-- 64000 -->
      <g transform="translate(560.518977 270.139275)scale(0.2 -0.2)">
       <use xlink:href="#DejaVuSans-54"/>
       <use x="63.623047" xlink:href="#DejaVuSans-52"/>
       <use x="127.246094" xlink:href="#DejaVuSans-48"/>
       <use x="190.869141" xlink:href="#DejaVuSans-48"/>
       <use x="254.492188" xlink:href="#DejaVuSans-48"/>
      </g>
     </g>
    </g>
    <g id="xtick_11">
     <g id="line2d_22">
      <g>
       <use style="stroke:#000000;stroke-width:0.8;" x="673.535716" xlink:href="#m6a67843631" y="247.9424"/>
      </g>
     </g>
     <g id="text_18">
      <!-- 64500 -->
      <g transform="translate(641.723216 270.139275)scale(0.2 -0.2)">
       <use xlink:href="#DejaVuSans-54"/>
       <use x="63.623047" xlink:href="#DejaVuSans-52"/>
       <use x="127.246094" xlink:href="#DejaVuSans-53"/>
       <use x="190.869141" xlink:href="#DejaVuSans-48"/>
       <use x="254.492188" xlink:href="#DejaVuSans-48"/>
      </g>
     </g>
    </g>
    <g id="xtick_12">
     <g id="line2d_23">
      <g>
       <use style="stroke:#000000;stroke-width:0.8;" x="754.739954" xlink:href="#m6a67843631" y="247.9424"/>
      </g>
     </g>
     <g id="text_19">
      <!-- 65000 -->
      <g transform="translate(722.927454 270.139275)scale(0.2 -0.2)">
       <use xlink:href="#DejaVuSans-54"/>
       <use x="63.623047" xlink:href="#DejaVuSans-53"/>
       <use x="127.246094" xlink:href="#DejaVuSans-48"/>
       <use x="190.869141" xlink:href="#DejaVuSans-48"/>
       <use x="254.492188" xlink:href="#DejaVuSans-48"/>
      </g>
     </g>
    </g>
    <g id="xtick_13">
     <g id="line2d_24">
      <g>
       <use style="stroke:#000000;stroke-width:0.8;" x="835.944193" xlink:href="#m6a67843631" y="247.9424"/>
      </g>
     </g>
     <g id="text_20">
      <!-- 65500 -->
      <g transform="translate(804.131693 270.139275)scale(0.2 -0.2)">
       <use xlink:href="#DejaVuSans-54"/>
       <use x="63.623047" xlink:href="#DejaVuSans-53"/>
       <use x="127.246094" xlink:href="#DejaVuSans-53"/>
       <use x="190.869141" xlink:href="#DejaVuSans-48"/>
       <use x="254.492188" xlink:href="#DejaVuSans-48"/>
      </g>
     </g>
    </g>
    <g id="xtick_14">
     <g id="line2d_25">
      <g>
       <use style="stroke:#000000;stroke-width:0.8;" x="917.148431" xlink:href="#m6a67843631" y="247.9424"/>
      </g>
     </g>
     <g id="text_21">
      <!-- 66000 -->
      <g transform="translate(885.335931 270.139275)scale(0.2 -0.2)">
       <use xlink:href="#DejaVuSans-54"/>
       <use x="63.623047" xlink:href="#DejaVuSans-54"/>
       <use x="127.246094" xlink:href="#DejaVuSans-48"/>
       <use x="190.869141" xlink:href="#DejaVuSans-48"/>
       <use x="254.492188" xlink:href="#DejaVuSans-48"/>
      </g>
     </g>
    </g>
   </g>
   <g id="matplotlib.axis_4">
    <g id="ytick_3">
     <g id="line2d_26">
      <g>
       <use style="stroke:#000000;stroke-width:0.8;" x="576.09875" xlink:href="#m29e517040a" y="238.454109"/>
      </g>
     </g>
     <g id="text_22">
      <!-- N -->
      <g transform="translate(554.13625 246.052547)scale(0.2 -0.2)">
       <use xlink:href="#DejaVuSans-78"/>
      </g>
     </g>
    </g>
    <g id="ytick_4">
     <g id="line2d_27">
      <g>
       <use style="stroke:#000000;stroke-width:0.8;" x="576.09875" xlink:href="#m29e517040a" y="52.409189"/>
      </g>
     </g>
     <g id="text_23">
      <!-- AF -->
      <g transform="translate(543.914375 60.007627)scale(0.2 -0.2)">
       <use xlink:href="#DejaVuSans-65"/>
       <use x="68.408203" xlink:href="#DejaVuSans-70"/>
      </g>
     </g>
    </g>
   </g>
   <g id="line2d_28">
    <path clip-path="url(#p124164ee05)" d="M 592.331477 52.409189 
L 627.2493 52.409189 
L 627.411708 238.454109 
L 627.736525 238.454109 
L 627.898934 52.409189 
L 659.893404 52.409189 
L 660.055812 238.454109 
L 660.380629 238.454109 
L 660.543038 52.409189 
L 807.685118 52.409189 
L 807.847526 238.454109 
L 808.172343 238.454109 
L 808.334752 52.409189 
L 882.717834 52.409189 
L 882.880243 238.454109 
L 883.20506 238.454109 
L 883.367468 52.409189 
L 916.986023 52.409189 
L 916.986023 52.409189 
" style="fill:none;stroke:#1f77b4;stroke-linecap:square;stroke-width:1.5;"/>
   </g>
   <g id="line2d_29">
    <path clip-path="url(#p124164ee05)" d="M 592.331477 48.688291 
L 629.198202 48.688291 
L 629.36061 234.733211 
L 630.172652 234.733211 
L 630.335061 48.688291 
L 631.309512 48.688291 
L 631.47192 234.733211 
L 632.121554 234.733211 
L 632.283963 48.688291 
L 656.158009 48.688291 
L 656.320417 234.733211 
L 657.13246 234.733211 
L 657.294868 48.688291 
L 660.380629 48.688291 
L 660.543038 234.733211 
L 661.192672 234.733211 
L 661.35508 48.688291 
L 671.749223 48.688291 
L 671.911631 234.733211 
L 672.561265 234.733211 
L 672.723673 48.688291 
L 687.015619 48.688291 
L 687.178028 234.733211 
L 690.10138 234.733211 
L 690.263789 48.688291 
L 696.760128 48.688291 
L 696.922536 234.733211 
L 700.495523 234.733211 
L 700.657931 48.688291 
L 726.805696 48.688291 
L 726.968105 234.733211 
L 728.592189 234.733211 
L 728.754598 48.688291 
L 729.404232 48.688291 
L 729.56664 234.733211 
L 730.7035 234.733211 
L 730.865908 48.688291 
L 743.208952 48.688291 
L 743.371361 234.733211 
L 744.995446 234.733211 
L 745.157854 48.688291 
L 763.510012 48.688291 
L 763.67242 234.733211 
L 767.732632 234.733211 
L 767.895041 48.688291 
L 806.873075 48.688291 
L 807.035484 234.733211 
L 808.334752 234.733211 
L 808.49716 48.688291 
L 812.882189 48.688291 
L 813.044597 234.733211 
L 818.07926 234.733211 
L 818.241669 48.688291 
L 878.657622 48.688291 
L 878.820031 234.733211 
L 879.632073 234.733211 
L 879.794482 48.688291 
L 899.608316 48.688291 
L 899.770724 234.733211 
L 901.2324 234.733211 
L 901.394809 48.688291 
L 909.677641 48.688291 
L 909.84005 234.733211 
L 910.652092 234.733211 
L 910.814501 48.688291 
L 912.113768 48.688291 
L 912.276177 234.733211 
L 914.387487 234.733211 
L 914.549896 48.688291 
L 916.986023 48.688291 
L 916.986023 48.688291 
" style="fill:none;stroke:#ff0000;stroke-linecap:square;stroke-opacity:0.5;stroke-width:1.5;"/>
   </g>
   <g id="patch_11">
    <path d="M 576.09875 247.9424 
L 576.09875 39.2 
" style="fill:none;stroke:#000000;stroke-linecap:square;stroke-linejoin:miter;stroke-width:0.8;"/>
   </g>
   <g id="patch_12">
    <path d="M 933.21875 247.9424 
L 933.21875 39.2 
" style="fill:none;stroke:#000000;stroke-linecap:square;stroke-linejoin:miter;stroke-width:0.8;"/>
   </g>
   <g id="patch_13">
    <path d="M 576.09875 247.9424 
L 933.21875 247.9424 
" style="fill:none;stroke:#000000;stroke-linecap:square;stroke-linejoin:miter;stroke-width:0.8;"/>
   </g>
   <g id="patch_14">
    <path d="M 576.09875 39.2 
L 933.21875 39.2 
" style="fill:none;stroke:#000000;stroke-linecap:square;stroke-linejoin:miter;stroke-width:0.8;"/>
   </g>
  </g>
 </g>
 <defs>
  <clipPath id="pb333a2b58a">
   <rect height="326.16" width="892.8" x="72.41875" y="7.2"/>
  </clipPath>
  <clipPath id="p124164ee05">
   <rect height="208.7424" width="357.12" x="576.09875" y="39.2"/>
  </clipPath>
 </defs>
</svg>
